<?xml version="1.0" encoding="UTF-8" standalone="no"?>
<!DOCTYPE svg PUBLIC "-//W3C//DTD SVG 1.1//EN" "http://www.w3.org/Graphics/SVG/1.1/DTD/svg11.dtd"
[
<!ATTLIST g
  xmlns:vectornator CDATA #FIXED "http://vectornator.io"
  vectornator:layerName CDATA #IMPLIED >
<!ATTLIST g
  xmlns:vectornator CDATA #FIXED "http://vectornator.io"
  vectornator:mask CDATA #IMPLIED >
<!ATTLIST text
  xmlns:vectornator CDATA #FIXED "http://vectornator.io"
  vectornator:width CDATA #IMPLIED >

<!ATTLIST path
  xmlns:vectornator CDATA #FIXED "http://vectornator.io"
  vectornator:blendMode CDATA #IMPLIED >
<!ATTLIST path
  xmlns:vectornator CDATA #FIXED "http://vectornator.io"
  vectornator:shadowColor CDATA #IMPLIED >
<!ATTLIST path
  xmlns:vectornator CDATA #FIXED "http://vectornator.io"
  vectornator:shadowOpacity CDATA #IMPLIED >
<!ATTLIST path
  xmlns:vectornator CDATA #FIXED "http://vectornator.io"
  vectornator:shadowRadius CDATA #IMPLIED >
<!ATTLIST path
  xmlns:vectornator CDATA #FIXED "http://vectornator.io"
  vectornator:shadowOffset CDATA #IMPLIED >
<!ATTLIST path
  xmlns:vectornator CDATA #FIXED "http://vectornator.io"
  vectornator:shadowAngle CDATA #IMPLIED >

<!ATTLIST image
  xmlns:vectornator CDATA #FIXED "http://vectornator.io"
  vectornator:blendMode CDATA #IMPLIED >
<!ATTLIST image
  xmlns:vectornator CDATA #FIXED "http://vectornator.io"
  vectornator:shadowColor CDATA #IMPLIED >
<!ATTLIST image
  xmlns:vectornator CDATA #FIXED "http://vectornator.io"
  vectornator:shadowOpacity CDATA #IMPLIED >
<!ATTLIST image
  xmlns:vectornator CDATA #FIXED "http://vectornator.io"
  vectornator:shadowRadius CDATA #IMPLIED >
<!ATTLIST image
  xmlns:vectornator CDATA #FIXED "http://vectornator.io"
  vectornator:shadowOffset CDATA #IMPLIED >
<!ATTLIST image
  xmlns:vectornator CDATA #FIXED "http://vectornator.io"
  vectornator:shadowAngle CDATA #IMPLIED >

<!ATTLIST g
  xmlns:vectornator CDATA #FIXED "http://vectornator.io"
  vectornator:blendMode CDATA #IMPLIED >
<!ATTLIST g
  xmlns:vectornator CDATA #FIXED "http://vectornator.io"
  vectornator:shadowColor CDATA #IMPLIED >
<!ATTLIST g
  xmlns:vectornator CDATA #FIXED "http://vectornator.io"
  vectornator:shadowOpacity CDATA #IMPLIED >
<!ATTLIST g
  xmlns:vectornator CDATA #FIXED "http://vectornator.io"
  vectornator:shadowRadius CDATA #IMPLIED >
<!ATTLIST g
  xmlns:vectornator CDATA #FIXED "http://vectornator.io"
  vectornator:shadowOffset CDATA #IMPLIED >
<!ATTLIST g
  xmlns:vectornator CDATA #FIXED "http://vectornator.io"
  vectornator:shadowAngle CDATA #IMPLIED >

<!ENTITY % SVG.filter.extra.content  "| feDropShadow" >
<!ELEMENT feDropShadow EMPTY>
<!ATTLIST feDropShadow
  xmlns:svg CDATA #FIXED "http://www.w3.org/Graphics/SVG/1.1/DTD/svg11.dtd"
  dx CDATA #IMPLIED>
<!ATTLIST feDropShadow
  xmlns:svg CDATA #FIXED "http://www.w3.org/Graphics/SVG/1.1/DTD/svg11.dtd"
  dy CDATA #IMPLIED>
<!ATTLIST feDropShadow
  xmlns:svg CDATA #FIXED "http://www.w3.org/Graphics/SVG/1.1/DTD/svg11.dtd"
  stdDeviation CDATA #IMPLIED>
<!ATTLIST feDropShadow
  xmlns:svg CDATA #FIXED "http://www.w3.org/Graphics/SVG/1.1/DTD/svg11.dtd"
  flood-opacity CDATA #IMPLIED>
<!ATTLIST feDropShadow
  xmlns:svg CDATA #FIXED "http://www.w3.org/Graphics/SVG/1.1/DTD/svg11.dtd"
  in CDATA #IMPLIED>
<!ATTLIST feDropShadow
  xmlns:svg CDATA #FIXED "http://www.w3.org/Graphics/SVG/1.1/DTD/svg11.dtd"
  result CDATA #IMPLIED>
<!ATTLIST feDropShadow
  xmlns:svg CDATA #FIXED "http://www.w3.org/Graphics/SVG/1.1/DTD/svg11.dtd"
  flood-color CDATA #IMPLIED>
]
>
<!-- Created with Vectornator (http://vectornator.io/) -->
<svg height="100%" stroke-miterlimit="10" style="fill-rule:nonzero;clip-rule:evenodd;stroke-linecap:round;stroke-linejoin:round;" version="1.1" viewBox="0 0 320 320" width="100%" xml:space="preserve" xmlns="http://www.w3.org/2000/svg" xmlns:vectornator="http://vectornator.io" xmlns:xlink="http://www.w3.org/1999/xlink">
<defs>
<linearGradient gradientTransform="matrix(1.03795 0 0 0.878106 -7.99466 60.8923)" gradientUnits="userSpaceOnUse" id="LinearGradient" x1="161.853" x2="161.853" y1="37.6499" y2="339.285">
<stop offset="0" stop-color="#ffe7e7"/>
<stop offset="1" stop-color="#ffffff"/>
</linearGradient>
<filter color-interpolation-filters="sRGB" filterUnits="userSpaceOnUse" height="106.935" id="Filter" width="358.902" x="-2.45403" y="-2.81749">
<feDropShadow dx="-3.67321e-06" dy="1" flood-color="#000000" flood-opacity="0.630858" in="SourceGraphic" result="Shadow" stdDeviation="1.5"/>
</filter>
<clipPath id="TextBounds">
<rect height="109.452" width="421.181" x="-51.8624" y="19.0321"/>
</clipPath>
<clipPath id="TextBounds_2">
<rect height="204" width="229.26" x="45.9512" y="93.5301"/>
</clipPath>
<filter color-interpolation-filters="sRGB" filterUnits="userSpaceOnUse" height="112.848" id="Filter_2" width="63.2223" x="127.215" y="121.682">
<feDropShadow dx="-3.67321e-06" dy="1" flood-color="#ffffff" flood-opacity="0.630858" in="SourceGraphic" result="Shadow" stdDeviation="1.5"/>
</filter>
<clipPath id="TextBounds_3">
<rect height="43" width="426.11" x="-53.055" y="252.543"/>
</clipPath>
</defs>
<clipPath id="ArtboardFrame">
<rect height="320" width="320" x="0" y="0"/>
</clipPath>
<g clip-path="url(#ArtboardFrame)" id="Слой-1" vectornator:layerName="Слой 1">
<path d="M10.0725 68.34L309.03 68.34C314.791 68.34 319.461 72.291 319.461 77.1648L319.461 324.65C319.461 329.524 314.791 333.475 309.03 333.475L10.0725 333.475C4.31145 333.475-0.358764 329.524-0.358764 324.65L-0.358764 77.1648C-0.358764 72.291 4.31145 68.34 10.0725 68.34Z" fill="url(#LinearGradient)" fill-rule="evenodd" opacity="1" stroke="none"/>
<path d="M0.545977-0.817494L353.448-0.817494L353.448 100.117L0.545977 100.117L0.545977-0.817494Z" fill="#e34234" fill-rule="evenodd" filter="url(#Filter)" stroke="none" vectornator:shadowAngle="1.5708" vectornator:shadowColor="#000000" vectornator:shadowOffset="1" vectornator:shadowOpacity="0.630858" vectornator:shadowRadius="3"/>
<g fill="#ffffff" opacity="1" stroke="none">
<path clip-path="url(#TextBounds)" d="M94.352 52.0161L94.352 50.9761L83.38 50.9761L83.38 52.0161L85.46 52.0161C85.46 53.4721 85.408 55.1881 85.2 56.8521C84.992 58.5161 84.576 60.0761 83.9 61.2721C82.496 63.7161 80.364 65.7441 77.244 66.8361C77.244 63.2481 76.724 60.3361 76.152 57.4241C75.58 54.5121 75.06 51.6521 75.06 47.9601C75.06 44.2161 75.476 39.4841 76.516 35.6881C77.504 31.8921 79.064 29.0321 81.3 29.0321C82.392 29.0321 83.432 30.3321 84.212 32.2041C84.992 34.1281 85.46 36.6761 85.46 39.1721L83.38 39.1721L83.38 40.2121L94.352 40.2121L94.352 39.1721L92.272 39.1721C90.66 31.4241 86.188 27.9921 80.832 27.9921C77.088 27.9921 73.968 30.6441 71.732 34.4401C69.496 38.2361 68.248 43.2281 68.248 47.9601C68.248 50.9241 69.028 53.3161 70.068 55.3961C70.588 56.4881 71.16 57.4761 71.836 58.4121C73.084 60.3361 74.28 62.3121 75.268 64.4441C75.736 65.5361 76.1 66.7321 76.256 68.0321C82.08 68.0321 85.98 65.6921 89.1 61.7921C91.388 59.0361 92.012 55.8121 92.272 52.0161L94.352 52.0161Z" fill-rule="evenodd"/>
<path clip-path="url(#TextBounds)" d="M111.252 29.0321C111.252 28.6681 110.992 28.1481 109.952 28.1481C108.496 28.1481 108.028 28.4081 106.832 29.4481L106.156 30.3841L100.956 39.0161C100.592 39.7961 100.956 39.9001 101.528 39.9001L102.412 39.9001C102.672 39.9001 102.984 39.7961 103.244 39.5361L110.94 29.9681C111.148 29.6041 111.252 29.4481 111.252 29.0321ZM104.18 47.1281C104.336 46.3481 104.076 45.2041 103.296 45.2041C102.828 45.1521 102.256 45.1521 101.684 45.1521C101.112 45.2041 100.488 45.2041 99.916 45.2041C99.136 45.2041 98.668 45.8281 98.616 46.5041C98.408 49.6241 98.304 52.4321 98.304 56.3841C98.304 60.3881 98.304 63.7681 98.512 66.8361C98.512 67.7201 98.928 68.1361 99.708 68.1361C100.228 68.0841 100.748 68.0321 101.268 68.0321L103.14 68.0321C103.556 68.0321 103.92 67.6161 103.92 67.1481C103.92 65.1201 103.764 63.5601 103.608 61.9481C103.452 60.3361 103.348 58.7241 103.4 56.6441C103.452 52.9001 103.816 49.3641 104.18 47.1281Z" fill-rule="evenodd"/>
<path clip-path="url(#TextBounds)" d="M117.596 31.9961C117.752 31.8401 118.168 31.8921 118.168 32.0481C117.18 36.2081 117.856 38.8601 120.352 39.1201C121.808 39.2761 122.796 38.2881 123.316 36.8841C123.836 35.4801 123.888 33.7121 123.628 32.2561C123.628 32.0481 124.252 31.8921 124.46 32.2561C125.864 34.9601 125.812 37.4041 124.824 39.1721C123.836 40.9401 121.912 42.0321 119.572 41.9801C116.66 41.8241 115.256 39.3281 115.256 36.4681C115.256 35.8441 115.672 34.9081 116.14 34.0241C116.556 33.1921 117.18 32.4121 117.596 31.9961ZM127.528 47.1801C127.476 48.0641 127.476 48.8961 127.424 49.6761L127.268 51.9641C127.164 53.4721 127.06 55.0321 127.06 56.9561C127.06 58.8801 127.112 60.5961 127.216 62.1041C127.32 63.6121 127.424 65.2241 127.476 66.9401C127.528 67.9281 126.956 68.0321 126.332 68.0321C125.188 67.9281 124.096 67.9281 123.004 68.0321C122.172 68.1881 121.964 67.5121 121.912 66.8361C121.756 64.7561 121.652 63.2481 121.652 60.8041C121.652 60.2321 121.652 59.7121 121.704 59.2441L121.704 56.4881C121.704 56.0201 121.704 55.4481 121.652 54.8761C121.652 54.7721 121.652 54.6681 121.704 54.5121C121.756 54.3561 121.704 54.3041 121.6 54.3041L118.428 55.1881C117.284 55.5521 116.192 55.8121 115.1 55.9681C114.892 56.0201 114.788 56.1761 114.84 56.3841L114.84 57.0081C114.788 57.4761 114.788 57.8401 114.788 58.1521C114.736 58.4641 114.736 58.7761 114.736 59.0361C114.684 59.2961 114.684 59.6081 114.684 59.8681L114.684 60.9081C114.684 62.0001 114.736 62.9881 114.788 63.8201C114.84 64.6521 114.84 65.5881 114.788 66.5761C114.788 67.3561 114.892 68.1881 113.488 68.0321C112.916 67.9801 112.448 67.9281 112.084 67.9281C111.72 67.9281 111.252 67.9801 110.732 68.0321C110.056 68.1881 109.692 67.3041 109.692 66.7321C109.692 64.9121 109.692 63.2481 109.64 61.6881C109.588 60.1281 109.588 58.3601 109.64 56.3841C109.692 55.4481 109.692 54.6161 109.744 53.8361C109.796 53.1081 109.796 52.3801 109.848 51.7041C109.848 50.3001 109.9 49.0001 109.9 47.1281C109.9 46.5041 110.108 45.8281 110.888 45.7761C111.356 45.7241 111.928 45.6201 112.5 45.5681C113.072 45.5161 113.644 45.4121 114.112 45.3601C114.892 45.2041 115.1 45.9841 115.1 46.5561C115.1 47.3361 115.1 48.0121 115.048 48.5841C114.996 49.2081 114.996 49.7801 114.996 50.3521C114.944 50.9241 114.944 51.4441 114.892 52.0161C114.84 52.5881 114.84 53.1601 114.84 53.7841C114.84 53.8361 114.84 53.9401 114.788 53.9921C114.736 54.0441 114.788 54.0961 114.84 54.0961C115.932 53.9401 116.972 53.6801 118.012 53.3681C119.052 53.0561 120.144 52.7441 121.236 52.4841C121.496 52.4321 121.652 52.3281 121.652 52.2761C121.808 50.4561 121.912 49.3121 121.912 47.4401C121.912 46.6081 122.068 45.8281 123.108 45.7761C124.2 45.6201 125.396 45.4641 126.488 45.4641C127.372 45.3081 127.58 46.4001 127.528 47.1801Z" fill-rule="evenodd"/>
<path clip-path="url(#TextBounds)" d="M181.4 66.9921L181.4 27.9921L175.368 27.9921L175.368 38.3921C174.38 36.1041 172.404 35.0641 170.168 35.0641L169.648 35.0641C167.932 35.2201 166.528 36.9881 166.684 38.8081C166.84 40.6281 168.348 41.9281 170.168 41.7721C171.988 41.6161 173.288 40.1081 173.132 38.2881C173.08 38.1841 173.08 38.0801 173.08 37.9241L172.924 37.4561C173.912 37.8201 174.588 38.8081 174.588 40.0041C174.588 41.5121 173.288 42.8121 171.468 44.0601C170.532 44.6841 169.544 45.3081 168.452 45.9321C166.32 47.1801 164.136 48.7401 162.212 50.7681C160.288 52.8481 158.832 55.0321 158 57.1121C157.584 58.1521 157.376 59.1401 157.376 60.0241C157.376 62.7281 157.792 65.2761 158.26 66.9921L154.724 66.9921C154.464 66.9921 154.412 67.3041 154.62 67.8761C155.036 69.0721 156.076 70.8401 157.168 72.8161C157.74 73.8041 158.208 74.7401 158.572 75.5721C158.936 76.1441 159.04 76.1961 159.196 75.5721C159.56 74.3241 160.08 72.4001 160.704 70.8401C160.964 70.0601 161.276 69.4361 161.536 68.8641C161.796 68.2921 162.056 68.0321 162.212 68.0321L177.032 68.0321C177.136 68.0321 177.344 68.2921 177.656 68.8121C178.28 69.9041 179.008 71.4641 179.684 73.2321C180.048 74.1161 180.308 74.8961 180.516 75.5721C180.568 75.7281 180.672 75.8321 180.828 75.8321C180.984 75.8321 181.088 75.7281 181.14 75.5721C181.4 74.8441 181.712 74.0121 182.18 73.0241C183.012 71.1001 183.792 69.1761 184.208 67.9281C184.364 67.3041 184.364 66.9921 184.156 66.9921L181.4 66.9921ZM175.368 66.9921L164.76 66.9921C164.292 65.7441 163.98 64.7561 163.772 63.6641C163.564 62.6241 163.46 61.4801 163.46 60.0241C163.46 55.8121 165.072 52.3281 168.4 49.0001C168.972 48.4281 169.596 47.9081 170.272 47.3361C171.676 46.2961 173.028 45.1521 174.12 43.9041C174.692 43.3321 175.108 42.6561 175.368 41.9801L175.368 66.9921Z" fill-rule="evenodd"/>
<path clip-path="url(#TextBounds)" d="M204.332 29.0321C204.332 28.8761 204.228 28.6681 204.072 28.4601C203.916 28.2521 203.552 28.1481 202.98 28.1481C201.576 28.1481 201.056 28.4081 199.86 29.4481L199.236 30.3841L194.036 39.0161C193.62 39.7961 194.088 39.9001 194.556 39.9001L195.44 39.9001C195.752 39.9001 196.064 39.7961 196.324 39.5361L203.968 29.9681C204.228 29.6041 204.332 29.4481 204.332 29.0321ZM199.808 47.9601C199.808 47.4921 199.756 46.8161 199.496 46.3481C199.236 45.8801 198.716 45.5161 197.832 45.5161C194.764 45.5161 191.956 46.5041 190.136 48.1161C189.512 48.6881 188.94 49.6761 188.576 50.9761C188.16 52.2761 187.9 53.7841 187.9 55.2401C187.9 56.6441 188.056 57.6841 188.264 58.7761C188.472 59.8681 188.68 61.0641 188.732 62.7281C188.784 63.5081 188.68 64.2361 188.42 64.9121C187.952 66.3681 187.692 67.2521 188.524 67.6681C188.888 67.9281 189.304 68.0321 189.72 68.0321C191.436 68.0321 193.672 67.6681 195.544 67.0441C197.416 66.4721 198.82 65.7961 198.872 65.0161C198.924 63.1961 198.196 61.7921 196.376 62.7801C195.908 63.1961 194.088 63.6121 193.048 63.7681C192.84 63.7681 192.684 63.5081 192.684 63.3521C192.684 62.4681 193.1 61.2721 193.776 60.2321C194.452 59.2441 195.336 58.3601 196.532 58.1521L198.352 57.6841C199.548 57.4241 199.6 56.4361 199.652 55.7081C199.704 55.3441 199.704 54.8761 199.704 54.3041C199.704 53.7321 199.548 53.2121 198.352 53.6281C196.428 54.2521 194.712 54.8761 193.256 55.4481C192.684 55.6041 192.528 55.3961 192.528 55.1361C192.476 54.8761 192.632 54.4601 192.684 54.2521C192.736 53.3681 192.892 52.1721 193.308 51.2361C193.672 50.3001 194.296 49.6761 195.284 49.5201C196.48 49.3641 197.416 49.3121 198.508 49.2601C199.288 49.1041 199.808 48.6361 199.808 47.9601Z" fill-rule="evenodd"/>
<path clip-path="url(#TextBounds)" d="M223.26 67.4081C223.208 65.5361 223.052 63.7681 222.896 62.0521C222.74 60.3361 222.636 58.4121 222.584 56.2801C222.532 52.7961 222.636 49.4681 222.896 46.2441C222.948 45.2041 222.012 45.3601 221.648 45.3601C221.076 45.4121 220.504 45.4641 220.036 45.4641C218.996 45.5161 217.8 45.5681 217.8 46.6081C217.644 47.9081 217.592 49.0521 217.54 50.0401C217.488 51.0801 217.384 52.1721 217.28 53.2641C217.28 53.6801 217.28 54.1481 216.708 53.9921C214.472 53.2121 213.172 52.7441 211.144 51.7041C210.78 51.4961 210.52 51.2361 210.572 50.6121L210.832 48.4801C210.884 48.0121 210.936 47.3361 211.04 46.5561C211.196 45.9841 210.78 45.3081 210.364 45.3081C208.752 45.3081 207.816 45.4121 206.62 45.7761C206.1 45.8281 205.84 46.1401 205.84 46.7121C205.632 48.5321 205.528 49.4681 205.528 50.2481C205.476 50.6641 205.476 51.0281 205.424 51.3921C205.372 51.7561 205.372 52.1721 205.32 52.6921C205.112 54.9801 204.956 57.8401 204.852 60.5441C204.748 63.2481 204.644 65.7441 204.696 67.3561C204.696 67.6681 204.904 67.8761 205.268 67.9281C205.944 67.9801 206.568 68.0321 207.14 67.9801C207.712 67.9281 208.492 67.9281 209.48 67.9281C209.844 67.9281 210.104 67.7721 210.104 67.0961C210.104 65.8481 210.104 64.6001 210.052 63.4041C210 62.2081 209.948 61.0641 209.948 59.9721C209.948 58.9321 210 57.8921 210.052 56.9041C210.104 55.9161 210.208 54.8761 210.26 53.7841C210.26 53.3161 210.416 53.0561 210.78 53.1081C211.872 53.6801 212.704 54.0441 213.588 54.4081C214.42 54.7721 215.356 55.0841 216.604 55.5001C217.072 55.6561 217.28 55.9681 217.28 56.4361C217.436 58.1521 217.54 59.8681 217.696 61.5321C217.852 63.1961 217.956 64.8601 218.112 66.5241C218.164 67.3041 218.58 67.8761 219.256 67.9281C219.672 67.9801 220.192 68.0321 220.764 68.0321L222.792 68.0321C223.156 68.0321 223.26 67.6161 223.26 67.4081Z" fill-rule="evenodd"/>
<path clip-path="url(#TextBounds)" d="M248.22 67.5641C247.804 65.4321 247.388 63.6641 246.764 61.7921C246.088 59.9721 245.256 57.9961 244.06 55.3441C243.904 54.9801 243.592 54.7721 243.124 54.7721C242.24 54.7721 241.46 55.0841 240.212 55.6561C238.964 56.2281 237.56 56.9041 236.104 57.6841C235.376 58.0481 234.7 58.4641 234.024 58.8281C234.18 57.6321 234.284 56.2801 234.44 54.8241C234.7 51.9121 235.064 49.8321 235.532 48.4281C235.74 47.7521 235.844 46.9201 235.844 45.9841C235.844 45.5161 235.584 45.3081 235.116 45.3081C233.504 45.3081 231.736 45.4641 230.072 45.7241C229.812 45.7761 229.656 46.0361 229.604 46.5041C228.824 54.4601 228.616 61.0641 228.46 67.5641C228.46 67.7721 228.616 68.0321 228.876 68.0321L247.752 68.0321C248.116 68.0321 248.272 67.7721 248.22 67.5641ZM241.928 65.2761C241.928 65.9001 241.616 66.4721 240.836 66.4721L234.024 66.4721C233.4 66.4721 233.4 65.9001 233.4 65.6401C233.452 64.8601 233.504 64.0801 233.608 63.2481C233.712 62.4161 233.816 61.2721 233.972 59.8161C234.648 59.4001 235.688 58.9321 236.52 58.5681C237.352 58.2041 238.08 57.9961 238.34 57.9961C238.6 57.9961 238.912 57.9961 239.12 58.2561C240.836 60.8041 241.928 63.3521 241.928 65.2761Z" fill-rule="evenodd"/>
</g>
<g fill="#181818" filter="url(#Filter_2)" stroke="none" vectornator:shadowAngle="1.5708" vectornator:shadowColor="#ffffff" vectornator:shadowOffset="1" vectornator:shadowOpacity="0.630858" vectornator:shadowRadius="3">
<path clip-path="url(#TextBounds_2)" d="M184.989 226.93L171.741 201.298C170.589 199.138 169.437 198.85 166.701 199.426L152.013 202.882C151.581 203.17 151.437 202.882 151.437 202.162L152.733 173.65C152.733 172.354 153.453 171.778 154.749 171.778L170.445 171.778C172.605 171.346 173.181 172.642 173.757 173.65C173.901 174.226 174.477 175.234 175.197 176.674C175.917 178.114 176.349 179.554 176.781 181.138C177.933 182.866 179.229 181.714 179.661 180.706L184.269 169.906C185.277 167.602 182.541 167.602 181.245 167.602L141.069 167.602C139.917 167.602 139.053 167.746 138.621 167.89C137.469 168.466 137.181 169.33 137.325 170.05L137.325 171.202C137.325 171.202 137.325 172.066 137.469 173.938L137.469 189.49C137.469 195.682 137.325 200.578 136.893 207.058L136.461 216.274L136.029 223.474L135.741 226.354C135.741 228.802 136.461 230.53 139.341 230.53L181.821 230.53C183.117 230.53 183.981 230.386 184.557 230.098C185.709 229.522 185.853 228.802 185.421 227.938L184.989 226.93ZM170.445 224.338C171.165 225.922 171.597 226.498 170.013 226.498L152.301 226.498C150.717 226.498 150.429 225.778 150.429 223.618L150.861 212.962C151.149 210.802 151.437 209.362 151.725 208.354C152.013 207.49 152.445 206.914 153.021 206.77L159.069 205.33C159.789 204.898 160.509 205.618 161.085 206.194C161.373 206.626 161.661 206.914 161.805 207.346C161.949 207.778 161.949 208.066 162.093 208.21L170.445 224.338Z" fill-rule="evenodd"/>
<path clip-path="url(#TextBounds_2)" d="M186.717 141.97C187.149 141.97 187.437 141.538 187.437 140.818C187.437 139.954 187.149 139.522 186.717 139.522C186.573 139.522 186.285 139.378 185.997 139.234C185.565 139.09 185.133 139.09 184.701 139.09C183.549 139.234 183.117 137.938 182.973 136.93C182.829 136.354 182.829 135.634 182.829 134.626L182.829 125.986C182.829 124.978 182.685 124.258 181.677 123.826C180.381 123.682 178.797 123.682 176.637 123.682L171.741 123.682C171.165 123.682 170.733 124.546 170.733 125.122C170.733 125.842 170.733 126.706 170.877 127.714C170.877 129.73 171.021 131.89 171.021 133.762C171.021 135.49 171.021 136.642 170.733 137.794C170.589 138.514 170.157 138.802 169.581 138.802C163.821 138.802 156.621 138.658 149.709 138.37C142.797 138.082 136.317 137.65 131.709 136.498C130.125 136.066 129.405 138.514 131.565 140.098C131.997 140.53 132.141 140.962 131.997 141.682C131.853 142.402 131.709 142.978 131.709 143.554C131.709 145.57 131.853 147.298 131.997 148.594C132.141 149.89 132.141 151.042 131.997 151.762C131.997 152.482 132.429 152.914 133.149 152.914C135.597 153.346 140.925 153.49 143.085 153.058C143.517 152.914 143.805 152.482 143.805 151.906C143.661 150.466 143.517 148.882 143.517 147.154C143.517 145.426 143.661 143.986 143.805 142.978C143.805 142.258 144.093 141.97 144.813 141.97C150.573 142.114 158.493 142.258 166.413 142.258C174.045 142.258 181.677 142.114 186.717 141.97Z" fill-rule="evenodd"/>
</g>
<g fill="#e67b7b" opacity="1" stroke="none">
<path clip-path="url(#TextBounds_3)" d="M114.94 280.183C114.91 279.103 114.82 278.083 114.73 277.093C114.64 276.103 114.58 274.993 114.55 273.763C114.52 271.753 114.58 269.833 114.73 267.973C114.76 267.373 114.22 267.463 114.01 267.463C113.68 267.493 113.35 267.523 113.08 267.523C112.48 267.553 111.79 267.583 111.79 268.183C111.7 268.933 111.67 269.593 111.64 270.163C111.61 270.763 111.55 271.393 111.49 272.023C111.49 272.263 111.49 272.533 111.16 272.443C109.87 271.993 109.12 271.723 107.95 271.123C107.74 271.003 107.59 270.853 107.62 270.493L107.77 269.263C107.8 268.993 107.83 268.603 107.89 268.153C107.98 267.823 107.74 267.433 107.5 267.433C106.57 267.433 106.03 267.493 105.34 267.703C105.04 267.733 104.89 267.913 104.89 268.243C104.77 269.293 104.71 269.833 104.71 270.283C104.68 270.523 104.68 270.733 104.65 270.943C104.62 271.153 104.62 271.393 104.59 271.693C104.47 273.013 104.38 274.663 104.32 276.223C104.26 277.783 104.2 279.223 104.23 280.153C104.23 280.333 104.35 280.453 104.56 280.483C104.95 280.513 105.31 280.543 105.64 280.513C105.97 280.483 106.42 280.483 106.99 280.483C107.2 280.483 107.35 280.393 107.35 280.003C107.35 279.283 107.35 278.563 107.32 277.873C107.29 277.183 107.26 276.523 107.26 275.893C107.26 275.293 107.29 274.693 107.32 274.123C107.35 273.553 107.41 272.953 107.44 272.323C107.44 272.053 107.53 271.903 107.74 271.933C108.37 272.263 108.85 272.473 109.36 272.683C109.84 272.893 110.38 273.073 111.1 273.313C111.37 273.403 111.49 273.583 111.49 273.853C111.58 274.843 111.64 275.833 111.73 276.793C111.82 277.753 111.88 278.713 111.97 279.673C112 280.123 112.24 280.453 112.63 280.483C112.87 280.513 113.17 280.543 113.5 280.543L114.67 280.543C114.88 280.543 114.94 280.303 114.94 280.183Z" fill-rule="evenodd"/>
<path clip-path="url(#TextBounds_3)" d="M124.78 268.963C124.78 268.693 124.75 268.303 124.6 268.033C124.45 267.763 124.15 267.553 123.64 267.553C121.87 267.553 120.25 268.123 119.2 269.053C118.84 269.383 118.51 269.953 118.3 270.703C118.06 271.453 117.91 272.323 117.91 273.163C117.91 273.973 118 274.573 118.12 275.203C118.24 275.833 118.36 276.523 118.39 277.483C118.42 277.933 118.36 278.353 118.21 278.743C117.94 279.583 117.79 280.093 118.27 280.333C118.48 280.483 118.72 280.543 118.96 280.543C119.95 280.543 121.24 280.333 122.32 279.973C122.83 279.823 123.28 279.643 123.67 279.433C124.39 279.043 124.39 278.173 123.94 277.543C123.7 277.243 123.31 277.243 122.8 277.513C122.53 277.753 121.48 277.993 120.88 278.083C120.76 278.083 120.67 277.933 120.67 277.843C120.67 277.333 120.91 276.643 121.3 276.043C121.69 275.473 122.2 274.963 122.89 274.843L123.94 274.573C124.63 274.423 124.66 273.853 124.69 273.433C124.72 273.223 124.72 272.953 124.72 272.623C124.72 272.293 124.63 271.993 123.94 272.233C122.83 272.593 121.84 272.953 121 273.283C120.67 273.373 120.58 273.253 120.58 273.103C120.55 272.953 120.64 272.713 120.67 272.593C120.7 272.083 120.79 271.393 121.03 270.853C121.24 270.313 121.6 269.953 122.17 269.863C122.86 269.773 123.4 269.743 124.03 269.713C124.48 269.623 124.78 269.353 124.78 268.963Z" fill-rule="evenodd"/>
<path clip-path="url(#TextBounds_3)" d="M137.71 279.793L134.95 274.453C134.71 274.003 134.47 273.943 133.9 274.063L130.84 274.783C130.75 274.843 130.72 274.783 130.72 274.633L130.99 268.693C130.99 268.423 131.14 268.303 131.41 268.303L134.68 268.303C135.13 268.213 135.25 268.483 135.37 268.693C135.4 268.813 135.52 269.023 135.67 269.323C135.82 269.623 135.91 269.923 136 270.253C136.24 270.613 136.51 270.373 136.6 270.163L137.56 267.913C137.77 267.433 137.2 267.433 136.93 267.433L128.56 267.433C128.32 267.433 128.14 267.463 128.05 267.493C127.81 267.613 127.75 267.793 127.78 267.943L127.78 268.183C127.78 268.183 127.78 268.363 127.81 268.753L127.81 271.993C127.81 273.283 127.78 274.303 127.69 275.653L127.6 277.573L127.51 279.073L127.45 279.673C127.45 280.183 127.6 280.543 128.2 280.543L137.05 280.543C137.32 280.543 137.5 280.513 137.62 280.453C137.86 280.333 137.89 280.183 137.8 280.003L137.71 279.793ZM134.68 279.253C134.83 279.583 134.92 279.703 134.59 279.703L130.9 279.703C130.57 279.703 130.51 279.553 130.51 279.103L130.6 276.883C130.66 276.433 130.72 276.133 130.78 275.923C130.84 275.743 130.93 275.623 131.05 275.593L132.31 275.293C132.46 275.203 132.61 275.353 132.73 275.473C132.79 275.563 132.85 275.623 132.88 275.713C132.91 275.803 132.91 275.863 132.94 275.893L134.68 279.253Z" fill-rule="evenodd"/>
<path clip-path="url(#TextBounds_3)" d="M155.32 258.043C155.32 257.953 155.26 257.833 155.17 257.713C155.08 257.593 154.87 257.533 154.54 257.533C153.7 257.533 153.43 257.683 152.74 258.283L152.38 258.823L149.38 263.803C149.14 264.253 149.41 264.313 149.68 264.313L150.19 264.313C150.37 264.313 150.52 264.253 150.67 264.103L155.11 258.583C155.26 258.373 155.32 258.283 155.32 258.043ZM152.02 280.273C151.78 279.043 151.57 277.993 151.21 276.913C150.85 275.833 150.37 274.663 149.68 273.133C149.47 272.683 148.87 272.833 148.36 272.953L147.46 273.313C147.1 273.463 146.71 273.613 146.32 273.793L145.06 274.333C144.61 274.513 144.22 274.693 143.83 274.873C143.92 274.183 143.98 273.463 144.07 272.743C144.22 271.303 144.43 270.043 144.7 269.233C144.82 268.843 144.88 268.363 144.88 267.823C144.88 267.553 144.73 267.433 144.46 267.433C143.53 267.433 142.51 267.523 141.55 267.673C141.4 267.703 141.31 267.853 141.28 268.123C140.83 272.713 140.71 276.523 140.62 280.273C140.62 280.393 140.71 280.543 140.86 280.543L151.75 280.543C151.96 280.543 152.05 280.393 152.02 280.273ZM157.78 280.153C157.75 279.103 157.63 277.603 157.48 275.683C157.33 273.793 157.21 271.393 157.18 268.483C157.09 268.153 157.06 267.823 156.73 267.733C156.49 267.733 156.07 267.673 155.62 267.583C155.17 267.493 154.72 267.433 154.48 267.433C154.15 267.433 153.76 267.703 153.85 268.063C153.97 270.103 154.06 272.293 154.12 274.333C154.18 276.403 154.21 278.383 154.21 280.033C154.21 280.303 154.39 280.543 154.63 280.543L157.6 280.543C157.81 280.543 157.78 280.273 157.78 280.153ZM148.54 278.983C148.54 279.343 148.3 279.673 147.91 279.673L143.86 279.673C143.5 279.673 143.5 279.343 143.5 279.223C143.53 278.773 143.59 278.233 143.62 277.663C143.65 277.093 143.71 276.403 143.8 275.563L145.36 274.963C145.63 274.873 145.87 274.783 146.08 274.723C146.29 274.663 146.41 274.633 146.47 274.633C146.68 274.633 146.86 274.663 146.95 274.873C147.94 276.763 148.54 277.903 148.54 278.983Z" fill-rule="evenodd"/>
<path clip-path="url(#TextBounds_3)" d="M169.39 273.463C169.3 273.133 169.12 273.133 168.91 273.133L166.51 273.133C166.3 273.133 166.12 273.133 166.27 272.923L170.14 268.183C170.47 267.793 170.05 267.433 169.69 267.433L161.77 267.433C161.53 267.433 161.35 267.463 161.26 267.493C161.02 267.613 160.99 267.793 161.02 267.943L161.02 268.183C161.02 268.183 161.02 268.363 161.05 268.693L161.05 270.013C161.05 270.523 161.05 271.093 161.08 271.693L161.08 273.373C161.08 274.663 161.02 276.193 160.93 277.453L160.84 279.043C160.81 279.463 160.78 279.673 160.78 279.673C160.75 280.243 161.14 280.543 161.59 280.543L171.28 280.543C171.73 280.543 171.94 280.093 171.73 279.493L169.39 273.463ZM164.83 273.493C164.71 273.643 164.47 273.793 164.32 273.823C164.17 273.853 164.02 273.853 164.05 273.643L164.23 268.753C164.32 268.513 164.53 268.303 164.98 268.303L168.1 268.303C168.43 268.303 168.94 268.453 168.67 268.783L164.83 273.493ZM168.79 279.463C168.91 279.673 168.7 279.673 168.49 279.673L164.05 279.673C163.9 279.673 163.75 279.613 163.78 279.403L163.9 276.193C163.99 275.833 164.29 275.353 164.44 275.143C164.92 274.513 165.1 274.303 165.43 273.973C165.64 273.643 166.12 273.733 166.27 273.823C166.42 273.853 166.84 274.063 166.93 274.273L168.79 279.463Z" fill-rule="evenodd"/>
<path clip-path="url(#TextBounds_3)" d="M195.64 268.183C195.73 267.703 195.4 267.433 195.01 267.433L192.94 267.643C192.46 267.733 192.13 268.123 192.16 268.513C192.19 270.403 192.25 271.873 192.31 273.433L192.4 275.863C192.43 276.733 192.46 277.663 192.52 278.713C192.61 279.043 192.16 279.643 191.59 279.643L187.42 279.643C186.79 279.643 186.58 278.893 186.55 278.203C186.52 277.723 186.52 277.303 186.52 276.913C186.52 276.103 186.55 275.383 186.58 274.603C186.61 274.213 186.61 273.793 186.64 273.313C186.67 272.923 186.67 272.533 186.7 272.203C186.73 271.873 186.73 271.573 186.76 271.243C186.76 270.643 186.82 270.013 186.94 269.203C186.97 268.993 187.03 268.783 187.06 268.633C187.12 268.303 187.18 267.883 186.97 267.613C186.88 267.493 186.73 267.433 186.58 267.433L185.38 267.523C185.02 267.553 184.6 267.583 184.15 267.673C183.79 267.763 183.52 268.033 183.52 268.483C183.49 270.403 183.46 271.993 183.46 273.553C183.46 275.083 183.52 276.613 183.64 278.503C183.67 279.103 183.58 279.553 182.98 279.553L178.78 279.553C178.15 279.553 177.85 279.223 177.82 278.563C177.73 276.793 177.67 275.503 177.76 273.493C177.79 272.563 177.88 271.723 177.97 271.033L178.24 268.783C178.27 268.453 178.36 268.063 178.21 267.733C178.12 267.523 177.91 267.343 177.67 267.433C177.34 267.463 177.04 267.523 176.77 267.553C176.5 267.583 176.17 267.643 175.75 267.703C175.3 267.733 175 268.153 175 268.603C174.91 270.133 174.88 271.513 174.82 273.013C174.76 274.513 174.7 276.103 174.7 277.933C174.7 278.653 174.7 279.163 174.79 279.763C174.79 280.033 175.06 280.543 175.3 280.543C178.21 280.573 181.9 280.603 185.41 280.603L194.95 280.603C195.28 280.603 195.64 280.063 195.55 279.493C195.43 279.013 195.37 278.653 195.34 278.353C195.31 278.203 195.31 278.083 195.31 277.933L195.31 277.393C195.31 276.433 195.28 275.743 195.28 275.053C195.25 274.363 195.22 273.703 195.25 272.833C195.28 272.383 195.28 271.993 195.31 271.603C195.31 270.853 195.37 270.133 195.49 269.383C195.52 269.023 195.58 268.633 195.64 268.183Z" fill-rule="evenodd"/>
<path clip-path="url(#TextBounds_3)" d="M202.3 268.483C202.39 268.033 202.24 267.373 201.79 267.373C201.52 267.343 201.19 267.343 200.86 267.343C200.53 267.373 200.17 267.373 199.84 267.373C199.39 267.373 199.12 267.733 199.09 268.123C198.97 269.923 198.91 271.543 198.91 273.823C198.91 276.133 198.91 278.083 199.03 279.853C199.03 280.363 199.27 280.603 199.72 280.603C200.02 280.573 200.32 280.543 200.62 280.543L201.7 280.543C201.94 280.543 202.15 280.303 202.15 280.033C202.15 278.863 202.06 277.963 201.97 277.033C201.88 276.103 201.82 275.173 201.85 273.973C201.88 271.813 202.09 269.773 202.3 268.483Z" fill-rule="evenodd"/>
<path clip-path="url(#TextBounds_3)" d="M210.04 259.753C210.13 259.663 210.37 259.693 210.37 259.783C209.8 262.183 210.19 263.713 211.63 263.863C212.47 263.953 213.04 263.383 213.34 262.573C213.64 261.763 213.67 260.743 213.52 259.903C213.52 259.783 213.88 259.693 214 259.903C214.81 261.463 214.78 262.873 214.21 263.893C213.64 264.913 212.53 265.543 211.18 265.513C209.5 265.423 208.69 263.983 208.69 262.333C208.69 261.973 208.93 261.433 209.2 260.923C209.44 260.443 209.8 259.993 210.04 259.753ZM215.77 268.513C215.74 269.023 215.74 269.503 215.71 269.953L215.62 271.273C215.56 272.143 215.5 273.043 215.5 274.153C215.5 275.263 215.53 276.253 215.59 277.123C215.65 277.993 215.71 278.923 215.74 279.913C215.77 280.483 215.44 280.543 215.08 280.543C214.42 280.483 213.79 280.483 213.16 280.543C212.68 280.633 212.56 280.243 212.53 279.853C212.44 278.653 212.38 277.783 212.38 276.373C212.38 276.043 212.38 275.743 212.41 275.473L212.41 273.883C212.41 273.613 212.41 273.283 212.38 272.953C212.38 272.893 212.38 272.833 212.41 272.743C212.44 272.653 212.41 272.623 212.35 272.623L210.52 273.133C209.86 273.343 209.23 273.493 208.6 273.583C208.48 273.613 208.42 273.703 208.45 273.823L208.45 274.183C208.42 274.453 208.42 274.663 208.42 274.843C208.39 275.023 208.39 275.203 208.39 275.353C208.36 275.503 208.36 275.683 208.36 275.833L208.36 276.433C208.36 277.063 208.39 277.633 208.42 278.113C208.45 278.593 208.45 279.133 208.42 279.703C208.42 280.153 208.48 280.633 207.67 280.543C207.34 280.513 207.07 280.483 206.86 280.483C206.65 280.483 206.38 280.513 206.08 280.543C205.69 280.633 205.48 280.123 205.48 279.793C205.48 278.743 205.48 277.783 205.45 276.883C205.42 275.983 205.42 274.963 205.45 273.823C205.48 273.283 205.48 272.803 205.51 272.353C205.54 271.933 205.54 271.513 205.57 271.123C205.57 270.313 205.6 269.563 205.6 268.483C205.6 268.123 205.72 267.733 206.17 267.703C206.44 267.673 206.77 267.613 207.1 267.583C207.43 267.553 207.76 267.493 208.03 267.463C208.48 267.373 208.6 267.823 208.6 268.153C208.6 268.603 208.6 268.993 208.57 269.323C208.54 269.683 208.54 270.013 208.54 270.343C208.51 270.673 208.51 270.973 208.48 271.303C208.45 271.633 208.45 271.963 208.45 272.323C208.45 272.353 208.45 272.413 208.42 272.443C208.39 272.473 208.42 272.503 208.45 272.503C209.08 272.413 209.68 272.263 210.28 272.083C210.88 271.903 211.51 271.723 212.14 271.573C212.29 271.543 212.38 271.483 212.38 271.453C212.47 270.403 212.53 269.743 212.53 268.663C212.53 268.183 212.62 267.733 213.22 267.703C213.85 267.613 214.54 267.523 215.17 267.523C215.68 267.433 215.8 268.063 215.77 268.513Z" fill-rule="evenodd"/>
</g>
</g>
</svg>
