<?xml version="1.0" encoding="UTF-8" standalone="no"?>

<svg height="100%" stroke-miterlimit="10" style="fill-rule:nonzero;clip-rule:evenodd;stroke-linecap:round;stroke-linejoin:round;" version="1.1" viewBox="0 0 320 320" width="100%" xml:space="preserve" xmlns="http://www.w3.org/2000/svg" xmlns:vectornator="http://vectornator.io" xmlns:xlink="http://www.w3.org/1999/xlink">
<defs>
<linearGradient gradientTransform="matrix(1.03795 0 0 0.878106 -7.99466 60.8923)" gradientUnits="userSpaceOnUse" id="LinearGradient" x1="161.853" x2="161.853" y1="37.6499" y2="339.285">
<stop offset="0" stop-color="#ffe7e7"/>
<stop offset="1" stop-color="#ffffff"/>
</linearGradient>
<filter color-interpolation-filters="sRGB" filterUnits="userSpaceOnUse" height="106.935" id="Filter" width="358.902" x="-2.45403" y="-2.81749">
<feDropShadow dx="-3.67321e-06" dy="1" flood-color="#000000" flood-opacity="0.630858" in="SourceGraphic" result="Shadow" stdDeviation="1.5"/>
</filter>
<clipPath id="TextBounds">
<rect height="109.452" width="421.181" x="-51.8624" y="19.0321"/>
</clipPath>
<clipPath id="TextBounds_2">
<rect height="204" width="229.26" x="45.9512" y="93.5301"/>
</clipPath>
<filter color-interpolation-filters="sRGB" filterUnits="userSpaceOnUse" height="113.052" id="Filter_2" width="127.845" x="96.669" y="121.682">
<feDropShadow dx="-3.67321e-06" dy="1" flood-color="#ffffff" flood-opacity="0.630858" in="SourceGraphic" result="Shadow" stdDeviation="1.5"/>
</filter>
</defs>
<clipPath id="ArtboardFrame">
<rect height="320" width="320" x="0" y="0"/>
</clipPath>
<g clip-path="url(#ArtboardFrame)" id="Слой-1" vectornator:layerName="Слой 1">
<path d="M10.0725 68.34L309.03 68.34C314.791 68.34 319.461 72.291 319.461 77.1648L319.461 324.65C319.461 329.524 314.791 333.475 309.03 333.475L10.0725 333.475C4.31145 333.475-0.358764 329.524-0.358764 324.65L-0.358764 77.1648C-0.358764 72.291 4.31145 68.34 10.0725 68.34Z" fill="url(#LinearGradient)" fill-rule="evenodd" opacity="1" stroke="none"/>
<path d="M0.545977-0.817494L353.448-0.817494L353.448 100.117L0.545977 100.117L0.545977-0.817494Z" fill="#e34234" fill-rule="evenodd" filter="url(#Filter)" stroke="none" vectornator:shadowAngle="1.5708" vectornator:shadowColor="#000000" vectornator:shadowOffset="1" vectornator:shadowOpacity="0.630858" vectornator:shadowRadius="3"/>
<g fill="#ffffff" opacity="1" stroke="none">
<path clip-path="url(#TextBounds)" d="M94.352 52.0161L94.352 50.9761L83.38 50.9761L83.38 52.0161L85.46 52.0161C85.46 53.4721 85.408 55.1881 85.2 56.8521C84.992 58.5161 84.576 60.0761 83.9 61.2721C82.496 63.7161 80.364 65.7441 77.244 66.8361C77.244 63.2481 76.724 60.3361 76.152 57.4241C75.58 54.5121 75.06 51.6521 75.06 47.9601C75.06 44.2161 75.476 39.4841 76.516 35.6881C77.504 31.8921 79.064 29.0321 81.3 29.0321C82.392 29.0321 83.432 30.3321 84.212 32.2041C84.992 34.1281 85.46 36.6761 85.46 39.1721L83.38 39.1721L83.38 40.2121L94.352 40.2121L94.352 39.1721L92.272 39.1721C90.66 31.4241 86.188 27.9921 80.832 27.9921C77.088 27.9921 73.968 30.6441 71.732 34.4401C69.496 38.2361 68.248 43.2281 68.248 47.9601C68.248 50.9241 69.028 53.3161 70.068 55.3961C70.588 56.4881 71.16 57.4761 71.836 58.4121C73.084 60.3361 74.28 62.3121 75.268 64.4441C75.736 65.5361 76.1 66.7321 76.256 68.0321C82.08 68.0321 85.98 65.6921 89.1 61.7921C91.388 59.0361 92.012 55.8121 92.272 52.0161L94.352 52.0161Z" fill-rule="evenodd"/>
<path clip-path="url(#TextBounds)" d="M111.252 29.0321C111.252 28.6681 110.992 28.1481 109.952 28.1481C108.496 28.1481 108.028 28.4081 106.832 29.4481L106.156 30.3841L100.956 39.0161C100.592 39.7961 100.956 39.9001 101.528 39.9001L102.412 39.9001C102.672 39.9001 102.984 39.7961 103.244 39.5361L110.94 29.9681C111.148 29.6041 111.252 29.4481 111.252 29.0321ZM104.18 47.1281C104.336 46.3481 104.076 45.2041 103.296 45.2041C102.828 45.1521 102.256 45.1521 101.684 45.1521C101.112 45.2041 100.488 45.2041 99.916 45.2041C99.136 45.2041 98.668 45.8281 98.616 46.5041C98.408 49.6241 98.304 52.4321 98.304 56.3841C98.304 60.3881 98.304 63.7681 98.512 66.8361C98.512 67.7201 98.928 68.1361 99.708 68.1361C100.228 68.0841 100.748 68.0321 101.268 68.0321L103.14 68.0321C103.556 68.0321 103.92 67.6161 103.92 67.1481C103.92 65.1201 103.764 63.5601 103.608 61.9481C103.452 60.3361 103.348 58.7241 103.4 56.6441C103.452 52.9001 103.816 49.3641 104.18 47.1281Z" fill-rule="evenodd"/>
<path clip-path="url(#TextBounds)" d="M117.596 31.9961C117.752 31.8401 118.168 31.8921 118.168 32.0481C117.18 36.2081 117.856 38.8601 120.352 39.1201C121.808 39.2761 122.796 38.2881 123.316 36.8841C123.836 35.4801 123.888 33.7121 123.628 32.2561C123.628 32.0481 124.252 31.8921 124.46 32.2561C125.864 34.9601 125.812 37.4041 124.824 39.1721C123.836 40.9401 121.912 42.0321 119.572 41.9801C116.66 41.8241 115.256 39.3281 115.256 36.4681C115.256 35.8441 115.672 34.9081 116.14 34.0241C116.556 33.1921 117.18 32.4121 117.596 31.9961ZM127.528 47.1801C127.476 48.0641 127.476 48.8961 127.424 49.6761L127.268 51.9641C127.164 53.4721 127.06 55.0321 127.06 56.9561C127.06 58.8801 127.112 60.5961 127.216 62.1041C127.32 63.6121 127.424 65.2241 127.476 66.9401C127.528 67.9281 126.956 68.0321 126.332 68.0321C125.188 67.9281 124.096 67.9281 123.004 68.0321C122.172 68.1881 121.964 67.5121 121.912 66.8361C121.756 64.7561 121.652 63.2481 121.652 60.8041C121.652 60.2321 121.652 59.7121 121.704 59.2441L121.704 56.4881C121.704 56.0201 121.704 55.4481 121.652 54.8761C121.652 54.7721 121.652 54.6681 121.704 54.5121C121.756 54.3561 121.704 54.3041 121.6 54.3041L118.428 55.1881C117.284 55.5521 116.192 55.8121 115.1 55.9681C114.892 56.0201 114.788 56.1761 114.84 56.3841L114.84 57.0081C114.788 57.4761 114.788 57.8401 114.788 58.1521C114.736 58.4641 114.736 58.7761 114.736 59.0361C114.684 59.2961 114.684 59.6081 114.684 59.8681L114.684 60.9081C114.684 62.0001 114.736 62.9881 114.788 63.8201C114.84 64.6521 114.84 65.5881 114.788 66.5761C114.788 67.3561 114.892 68.1881 113.488 68.0321C112.916 67.9801 112.448 67.9281 112.084 67.9281C111.72 67.9281 111.252 67.9801 110.732 68.0321C110.056 68.1881 109.692 67.3041 109.692 66.7321C109.692 64.9121 109.692 63.2481 109.64 61.6881C109.588 60.1281 109.588 58.3601 109.64 56.3841C109.692 55.4481 109.692 54.6161 109.744 53.8361C109.796 53.1081 109.796 52.3801 109.848 51.7041C109.848 50.3001 109.9 49.0001 109.9 47.1281C109.9 46.5041 110.108 45.8281 110.888 45.7761C111.356 45.7241 111.928 45.6201 112.5 45.5681C113.072 45.5161 113.644 45.4121 114.112 45.3601C114.892 45.2041 115.1 45.9841 115.1 46.5561C115.1 47.3361 115.1 48.0121 115.048 48.5841C114.996 49.2081 114.996 49.7801 114.996 50.3521C114.944 50.9241 114.944 51.4441 114.892 52.0161C114.84 52.5881 114.84 53.1601 114.84 53.7841C114.84 53.8361 114.84 53.9401 114.788 53.9921C114.736 54.0441 114.788 54.0961 114.84 54.0961C115.932 53.9401 116.972 53.6801 118.012 53.3681C119.052 53.0561 120.144 52.7441 121.236 52.4841C121.496 52.4321 121.652 52.3281 121.652 52.2761C121.808 50.4561 121.912 49.3121 121.912 47.4401C121.912 46.6081 122.068 45.8281 123.108 45.7761C124.2 45.6201 125.396 45.4641 126.488 45.4641C127.372 45.3081 127.58 46.4001 127.528 47.1801Z" fill-rule="evenodd"/>
<path clip-path="url(#TextBounds)" d="M181.4 66.9921L181.4 27.9921L175.368 27.9921L175.368 38.3921C174.38 36.1041 172.404 35.0641 170.168 35.0641L169.648 35.0641C167.932 35.2201 166.528 36.9881 166.684 38.8081C166.84 40.6281 168.348 41.9281 170.168 41.7721C171.988 41.6161 173.288 40.1081 173.132 38.2881C173.08 38.1841 173.08 38.0801 173.08 37.9241L172.924 37.4561C173.912 37.8201 174.588 38.8081 174.588 40.0041C174.588 41.5121 173.288 42.8121 171.468 44.0601C170.532 44.6841 169.544 45.3081 168.452 45.9321C166.32 47.1801 164.136 48.7401 162.212 50.7681C160.288 52.8481 158.832 55.0321 158 57.1121C157.584 58.1521 157.376 59.1401 157.376 60.0241C157.376 62.7281 157.792 65.2761 158.26 66.9921L154.724 66.9921C154.464 66.9921 154.412 67.3041 154.62 67.8761C155.036 69.0721 156.076 70.8401 157.168 72.8161C157.74 73.8041 158.208 74.7401 158.572 75.5721C158.936 76.1441 159.04 76.1961 159.196 75.5721C159.56 74.3241 160.08 72.4001 160.704 70.8401C160.964 70.0601 161.276 69.4361 161.536 68.8641C161.796 68.2921 162.056 68.0321 162.212 68.0321L177.032 68.0321C177.136 68.0321 177.344 68.2921 177.656 68.8121C178.28 69.9041 179.008 71.4641 179.684 73.2321C180.048 74.1161 180.308 74.8961 180.516 75.5721C180.568 75.7281 180.672 75.8321 180.828 75.8321C180.984 75.8321 181.088 75.7281 181.14 75.5721C181.4 74.8441 181.712 74.0121 182.18 73.0241C183.012 71.1001 183.792 69.1761 184.208 67.9281C184.364 67.3041 184.364 66.9921 184.156 66.9921L181.4 66.9921ZM175.368 66.9921L164.76 66.9921C164.292 65.7441 163.98 64.7561 163.772 63.6641C163.564 62.6241 163.46 61.4801 163.46 60.0241C163.46 55.8121 165.072 52.3281 168.4 49.0001C168.972 48.4281 169.596 47.9081 170.272 47.3361C171.676 46.2961 173.028 45.1521 174.12 43.9041C174.692 43.3321 175.108 42.6561 175.368 41.9801L175.368 66.9921Z" fill-rule="evenodd"/>
<path clip-path="url(#TextBounds)" d="M204.332 29.0321C204.332 28.8761 204.228 28.6681 204.072 28.4601C203.916 28.2521 203.552 28.1481 202.98 28.1481C201.576 28.1481 201.056 28.4081 199.86 29.4481L199.236 30.3841L194.036 39.0161C193.62 39.7961 194.088 39.9001 194.556 39.9001L195.44 39.9001C195.752 39.9001 196.064 39.7961 196.324 39.5361L203.968 29.9681C204.228 29.6041 204.332 29.4481 204.332 29.0321ZM199.808 47.9601C199.808 47.4921 199.756 46.8161 199.496 46.3481C199.236 45.8801 198.716 45.5161 197.832 45.5161C194.764 45.5161 191.956 46.5041 190.136 48.1161C189.512 48.6881 188.94 49.6761 188.576 50.9761C188.16 52.2761 187.9 53.7841 187.9 55.2401C187.9 56.6441 188.056 57.6841 188.264 58.7761C188.472 59.8681 188.68 61.0641 188.732 62.7281C188.784 63.5081 188.68 64.2361 188.42 64.9121C187.952 66.3681 187.692 67.2521 188.524 67.6681C188.888 67.9281 189.304 68.0321 189.72 68.0321C191.436 68.0321 193.672 67.6681 195.544 67.0441C197.416 66.4721 198.82 65.7961 198.872 65.0161C198.924 63.1961 198.196 61.7921 196.376 62.7801C195.908 63.1961 194.088 63.6121 193.048 63.7681C192.84 63.7681 192.684 63.5081 192.684 63.3521C192.684 62.4681 193.1 61.2721 193.776 60.2321C194.452 59.2441 195.336 58.3601 196.532 58.1521L198.352 57.6841C199.548 57.4241 199.6 56.4361 199.652 55.7081C199.704 55.3441 199.704 54.8761 199.704 54.3041C199.704 53.7321 199.548 53.2121 198.352 53.6281C196.428 54.2521 194.712 54.8761 193.256 55.4481C192.684 55.6041 192.528 55.3961 192.528 55.1361C192.476 54.8761 192.632 54.4601 192.684 54.2521C192.736 53.3681 192.892 52.1721 193.308 51.2361C193.672 50.3001 194.296 49.6761 195.284 49.5201C196.48 49.3641 197.416 49.3121 198.508 49.2601C199.288 49.1041 199.808 48.6361 199.808 47.9601Z" fill-rule="evenodd"/>
<path clip-path="url(#TextBounds)" d="M223.26 67.4081C223.208 65.5361 223.052 63.7681 222.896 62.0521C222.74 60.3361 222.636 58.4121 222.584 56.2801C222.532 52.7961 222.636 49.4681 222.896 46.2441C222.948 45.2041 222.012 45.3601 221.648 45.3601C221.076 45.4121 220.504 45.4641 220.036 45.4641C218.996 45.5161 217.8 45.5681 217.8 46.6081C217.644 47.9081 217.592 49.0521 217.54 50.0401C217.488 51.0801 217.384 52.1721 217.28 53.2641C217.28 53.6801 217.28 54.1481 216.708 53.9921C214.472 53.2121 213.172 52.7441 211.144 51.7041C210.78 51.4961 210.52 51.2361 210.572 50.6121L210.832 48.4801C210.884 48.0121 210.936 47.3361 211.04 46.5561C211.196 45.9841 210.78 45.3081 210.364 45.3081C208.752 45.3081 207.816 45.4121 206.62 45.7761C206.1 45.8281 205.84 46.1401 205.84 46.7121C205.632 48.5321 205.528 49.4681 205.528 50.2481C205.476 50.6641 205.476 51.0281 205.424 51.3921C205.372 51.7561 205.372 52.1721 205.32 52.6921C205.112 54.9801 204.956 57.8401 204.852 60.5441C204.748 63.2481 204.644 65.7441 204.696 67.3561C204.696 67.6681 204.904 67.8761 205.268 67.9281C205.944 67.9801 206.568 68.0321 207.14 67.9801C207.712 67.9281 208.492 67.9281 209.48 67.9281C209.844 67.9281 210.104 67.7721 210.104 67.0961C210.104 65.8481 210.104 64.6001 210.052 63.4041C210 62.2081 209.948 61.0641 209.948 59.9721C209.948 58.9321 210 57.8921 210.052 56.9041C210.104 55.9161 210.208 54.8761 210.26 53.7841C210.26 53.3161 210.416 53.0561 210.78 53.1081C211.872 53.6801 212.704 54.0441 213.588 54.4081C214.42 54.7721 215.356 55.0841 216.604 55.5001C217.072 55.6561 217.28 55.9681 217.28 56.4361C217.436 58.1521 217.54 59.8681 217.696 61.5321C217.852 63.1961 217.956 64.8601 218.112 66.5241C218.164 67.3041 218.58 67.8761 219.256 67.9281C219.672 67.9801 220.192 68.0321 220.764 68.0321L222.792 68.0321C223.156 68.0321 223.26 67.6161 223.26 67.4081Z" fill-rule="evenodd"/>
<path clip-path="url(#TextBounds)" d="M248.22 67.5641C247.804 65.4321 247.388 63.6641 246.764 61.7921C246.088 59.9721 245.256 57.9961 244.06 55.3441C243.904 54.9801 243.592 54.7721 243.124 54.7721C242.24 54.7721 241.46 55.0841 240.212 55.6561C238.964 56.2281 237.56 56.9041 236.104 57.6841C235.376 58.0481 234.7 58.4641 234.024 58.8281C234.18 57.6321 234.284 56.2801 234.44 54.8241C234.7 51.9121 235.064 49.8321 235.532 48.4281C235.74 47.7521 235.844 46.9201 235.844 45.9841C235.844 45.5161 235.584 45.3081 235.116 45.3081C233.504 45.3081 231.736 45.4641 230.072 45.7241C229.812 45.7761 229.656 46.0361 229.604 46.5041C228.824 54.4601 228.616 61.0641 228.46 67.5641C228.46 67.7721 228.616 68.0321 228.876 68.0321L247.752 68.0321C248.116 68.0321 248.272 67.7721 248.22 67.5641ZM241.928 65.2761C241.928 65.9001 241.616 66.4721 240.836 66.4721L234.024 66.4721C233.4 66.4721 233.4 65.9001 233.4 65.6401C233.452 64.8601 233.504 64.0801 233.608 63.2481C233.712 62.4161 233.816 61.2721 233.972 59.8161C234.648 59.4001 235.688 58.9321 236.52 58.5681C237.352 58.2041 238.08 57.9961 238.34 57.9961C238.6 57.9961 238.912 57.9961 239.12 58.2561C240.836 60.8041 241.928 63.3521 241.928 65.2761Z" fill-rule="evenodd"/>
</g>
<g fill="#181818" filter="url(#Filter_2)" stroke="none" vectornator:shadowAngle="1.5708" vectornator:shadowColor="#ffffff" vectornator:shadowOffset="1" vectornator:shadowOpacity="0.630858" vectornator:shadowRadius="3">
<path clip-path="url(#TextBounds_2)" d="M156.981 169.474C157.413 167.17 156.981 166.018 153.669 166.45C148.053 167.458 143.733 168.034 138.693 171.922C135.237 174.658 131.637 178.546 128.325 183.586C125.013 188.626 123.141 194.53 122.421 197.842C121.845 200.866 122.997 202.738 126.885 203.746C132.501 204.754 135.237 206.05 136.965 210.082C138.261 213.394 138.837 214.978 139.413 217.282C139.557 218.434 139.845 219.73 139.989 221.314C140.133 222.898 140.565 225.202 141.141 228.082C141.141 229.234 141.573 230.53 142.725 230.53C145.173 230.386 147.189 230.242 148.773 230.386C150.357 230.53 152.373 230.53 154.821 230.53C155.829 230.53 157.125 229.378 156.693 228.658C155.541 222.898 154.821 219.298 152.517 214.258C151.365 211.522 150.645 209.938 149.637 208.354C148.629 206.77 147.621 205.33 145.317 203.026C144.165 201.874 142.005 201.442 139.269 201.01L135.093 200.578C133.509 200.578 132.069 200.434 130.629 200.29C130.197 200.146 129.909 200.002 129.765 200.002C129.477 200.146 129.045 200.002 128.613 199.858C127.605 199.426 127.317 198.562 127.461 197.41C127.461 193.954 128.901 190.786 131.781 186.322C134.517 182.434 138.117 179.122 141.141 179.122C144.021 179.122 145.029 179.698 147.765 182.434C148.917 183.586 150.501 184.882 151.077 181.57C151.509 178.834 151.509 178.114 152.517 175.954C153.093 174.514 153.957 173.218 154.965 172.21C155.973 171.202 156.549 170.338 156.981 169.474ZM116.373 171.202C116.517 169.906 116.373 168.034 114.645 168.034C110.613 168.466 107.301 168.898 103.413 169.474C101.685 169.906 100.965 171.49 100.965 173.218L100.965 185.314C100.965 188.914 100.821 192.802 100.677 197.41C100.533 203.314 100.245 208.642 100.101 213.394C99.813 218.146 99.669 222.898 99.669 227.938C99.669 229.234 100.821 230.53 102.117 230.53C103.845 230.53 105.429 230.53 107.013 230.674C108.453 230.818 110.037 230.674 111.765 230.53C113.061 230.53 114.357 230.098 114.357 228.37L114.357 213.106C114.357 210.946 114.357 208.642 114.501 206.482C114.645 204.322 114.645 201.874 114.789 198.994C114.933 193.666 115.365 189.058 115.653 184.882C115.941 180.706 116.229 176.386 116.373 171.202Z" fill-rule="evenodd"/>
<path clip-path="url(#TextBounds_2)" d="M159.285 141.97C159.717 141.97 160.005 141.538 160.005 140.818C160.005 139.954 159.717 139.522 159.285 139.522C159.141 139.522 158.853 139.378 158.565 139.234C158.133 139.09 157.701 139.09 157.269 139.09C156.117 139.234 155.685 137.938 155.541 136.93C155.397 136.354 155.397 135.634 155.397 134.626L155.397 125.986C155.397 124.978 155.253 124.258 154.245 123.826C152.949 123.682 151.365 123.682 149.205 123.682L144.309 123.682C143.733 123.682 143.301 124.546 143.301 125.122C143.301 125.842 143.301 126.706 143.445 127.714C143.445 129.73 143.589 131.89 143.589 133.762C143.589 135.49 143.589 136.642 143.301 137.794C143.157 138.514 142.725 138.802 142.149 138.802C136.389 138.802 129.189 138.658 122.277 138.37C115.365 138.082 108.885 137.65 104.277 136.498C102.693 136.066 101.973 138.514 104.133 140.098C104.565 140.53 104.709 140.962 104.565 141.682C104.421 142.402 104.277 142.978 104.277 143.554C104.277 145.57 104.421 147.298 104.565 148.594C104.709 149.89 104.709 151.042 104.565 151.762C104.565 152.482 104.997 152.914 105.717 152.914C108.165 153.346 113.493 153.49 115.653 153.058C116.085 152.914 116.373 152.482 116.373 151.906C116.229 150.466 116.085 148.882 116.085 147.154C116.085 145.426 116.229 143.986 116.373 142.978C116.373 142.258 116.661 141.97 117.381 141.97C123.141 142.114 131.061 142.258 138.981 142.258C146.613 142.258 154.245 142.114 159.285 141.97Z" fill-rule="evenodd"/>
<path clip-path="url(#TextBounds_2)" d="M221.493 172.786C221.637 170.626 221.061 167.602 218.613 168.034C215.589 168.034 212.277 168.466 209.253 168.898C206.373 169.042 205.941 171.202 205.941 173.506C205.941 178.69 205.653 181.858 205.221 186.898C205.221 187.042 204.789 187.33 204.069 187.474C201.045 188.194 198.021 189.058 195.141 189.922C192.261 190.786 189.381 191.506 186.357 191.938C186.213 191.938 186.069 191.794 186.213 191.65C186.357 191.506 186.357 191.218 186.357 191.074C186.357 189.346 186.357 187.762 186.501 186.178C186.645 184.594 186.645 183.154 186.789 181.57C186.789 179.986 186.789 178.402 186.933 176.674C187.077 175.09 187.077 173.218 187.077 171.058C187.077 169.474 186.501 167.314 184.341 167.746C183.045 167.89 181.461 168.178 179.877 168.322C178.293 168.466 176.709 168.754 175.413 168.898C173.253 169.042 172.677 170.914 172.677 172.642C172.677 177.826 172.533 181.426 172.533 185.314C172.389 187.186 172.389 189.202 172.245 191.218C172.101 193.378 172.101 195.682 171.957 198.274C171.813 203.746 171.813 208.642 171.957 212.962C172.101 217.282 172.101 221.89 172.101 226.93C172.101 228.514 173.109 230.962 174.981 230.53C176.421 230.386 177.717 230.242 178.725 230.242C179.733 230.242 181.029 230.386 182.613 230.53C186.501 230.962 186.213 228.658 186.213 226.498C186.357 223.762 186.357 221.17 186.213 218.866C186.069 216.562 185.925 213.826 185.925 210.802L185.925 207.922C185.925 207.202 185.925 206.338 186.069 205.618C186.069 204.898 186.069 204.034 186.213 203.17C186.213 202.306 186.213 201.298 186.357 200.002L186.357 198.274C186.213 197.698 186.501 197.266 187.077 197.122C190.101 196.69 193.125 195.97 196.293 194.962L205.077 192.514C205.365 192.514 205.509 192.658 205.365 193.09C205.221 193.522 205.221 193.81 205.221 194.098C205.365 195.682 205.365 197.266 205.365 198.562L205.365 206.194C205.221 207.49 205.221 208.93 205.221 210.514C205.221 217.282 205.509 221.458 205.941 227.218C206.085 229.09 206.661 230.962 208.965 230.53C211.989 230.242 215.013 230.242 218.181 230.53C219.909 230.53 221.493 230.242 221.349 227.506C221.205 222.754 220.917 218.29 220.629 214.114C220.341 209.938 220.197 205.186 220.197 199.858C220.197 194.53 220.485 190.21 220.773 186.034L221.205 179.698C221.349 177.538 221.349 175.234 221.493 172.786Z" fill-rule="evenodd"/>
</g>
</g>
</svg>
