<?xml version="1.0" encoding="UTF-8" standalone="no"?>

<svg height="100%" stroke-miterlimit="10" style="fill-rule:nonzero;clip-rule:evenodd;stroke-linecap:round;stroke-linejoin:round;" version="1.1" viewBox="0 0 320 320" width="100%" xml:space="preserve" xmlns="http://www.w3.org/2000/svg" xmlns:vectornator="http://vectornator.io" xmlns:xlink="http://www.w3.org/1999/xlink">
<defs>
<linearGradient gradientTransform="matrix(1.03795 0 0 0.878106 -7.99466 60.8923)" gradientUnits="userSpaceOnUse" id="LinearGradient" x1="161.853" x2="161.853" y1="37.6499" y2="339.285">
<stop offset="0" stop-color="#ffe7e7"/>
<stop offset="1" stop-color="#ffffff"/>
</linearGradient>
<radialGradient cx="176.997" cy="49.6499" gradientTransform="matrix(1 0 0 1 0 0)" gradientUnits="userSpaceOnUse" id="RadialGradient" r="176.451">
<stop offset="0" stop-color="#3485e3"/>
<stop offset="1" stop-color="#000000"/>
</radialGradient>
<filter color-interpolation-filters="sRGB" filterUnits="userSpaceOnUse" height="106.935" id="Filter" width="358.902" x="-2.45403" y="-2.81749">
<feDropShadow dx="-3.67321e-06" dy="1" flood-color="#000000" flood-opacity="0.630858" in="SourceGraphic" result="Shadow" stdDeviation="1.5"/>
</filter>
<clipPath id="TextBounds">
<rect height="109.452" width="421.181" x="-51.8624" y="19.0321"/>
</clipPath>
<clipPath id="TextBounds_2">
<rect height="204" width="290.988" x="14.5061" y="96.0956"/>
</clipPath>
<filter color-interpolation-filters="sRGB" filterUnits="userSpaceOnUse" height="138.394" id="Filter_2" width="252.031" x="35.8529" y="124.248">
<feDropShadow dx="-3.67321e-06" dy="1" flood-color="#ffffff" flood-opacity="0.630858" in="SourceGraphic" result="Shadow" stdDeviation="1.5"/>
</filter>
</defs>
<clipPath id="ArtboardFrame">
<rect height="320" width="320" x="0" y="0"/>
</clipPath>
<g clip-path="url(#ArtboardFrame)" id="Слой-1" vectornator:layerName="Слой 1">
<path d="M10.0725 68.34L309.03 68.34C314.791 68.34 319.461 72.291 319.461 77.1648L319.461 324.65C319.461 329.524 314.791 333.475 309.03 333.475L10.0725 333.475C4.31145 333.475-0.358764 329.524-0.358764 324.65L-0.358764 77.1648C-0.358764 72.291 4.31145 68.34 10.0725 68.34Z" fill="url(#LinearGradient)" fill-rule="evenodd" opacity="1" stroke="none"/>
<path d="M0.545977-0.817494L353.448-0.817494L353.448 100.117L0.545977 100.117L0.545977-0.817494Z" fill="url(#RadialGradient)" fill-rule="evenodd" filter="url(#Filter)" stroke="none" vectornator:shadowAngle="1.5708" vectornator:shadowColor="#000000" vectornator:shadowOffset="1" vectornator:shadowOpacity="0.630858" vectornator:shadowRadius="3"/>
<g fill="#ffffff" opacity="1" stroke="none">
<path clip-path="url(#TextBounds)" d="M94.352 52.0161L94.352 50.9761L83.38 50.9761L83.38 52.0161L85.46 52.0161C85.46 53.4721 85.408 55.1881 85.2 56.8521C84.992 58.5161 84.576 60.0761 83.9 61.2721C82.496 63.7161 80.364 65.7441 77.244 66.8361C77.244 63.2481 76.724 60.3361 76.152 57.4241C75.58 54.5121 75.06 51.6521 75.06 47.9601C75.06 44.2161 75.476 39.4841 76.516 35.6881C77.504 31.8921 79.064 29.0321 81.3 29.0321C82.392 29.0321 83.432 30.3321 84.212 32.2041C84.992 34.1281 85.46 36.6761 85.46 39.1721L83.38 39.1721L83.38 40.2121L94.352 40.2121L94.352 39.1721L92.272 39.1721C90.66 31.4241 86.188 27.9921 80.832 27.9921C77.088 27.9921 73.968 30.6441 71.732 34.4401C69.496 38.2361 68.248 43.2281 68.248 47.9601C68.248 50.9241 69.028 53.3161 70.068 55.3961C70.588 56.4881 71.16 57.4761 71.836 58.4121C73.084 60.3361 74.28 62.3121 75.268 64.4441C75.736 65.5361 76.1 66.7321 76.256 68.0321C82.08 68.0321 85.98 65.6921 89.1 61.7921C91.388 59.0361 92.012 55.8121 92.272 52.0161L94.352 52.0161Z" fill-rule="evenodd"/>
<path clip-path="url(#TextBounds)" d="M111.252 29.0321C111.252 28.6681 110.992 28.1481 109.952 28.1481C108.496 28.1481 108.028 28.4081 106.832 29.4481L106.156 30.3841L100.956 39.0161C100.592 39.7961 100.956 39.9001 101.528 39.9001L102.412 39.9001C102.672 39.9001 102.984 39.7961 103.244 39.5361L110.94 29.9681C111.148 29.6041 111.252 29.4481 111.252 29.0321ZM104.18 47.1281C104.336 46.3481 104.076 45.2041 103.296 45.2041C102.828 45.1521 102.256 45.1521 101.684 45.1521C101.112 45.2041 100.488 45.2041 99.916 45.2041C99.136 45.2041 98.668 45.8281 98.616 46.5041C98.408 49.6241 98.304 52.4321 98.304 56.3841C98.304 60.3881 98.304 63.7681 98.512 66.8361C98.512 67.7201 98.928 68.1361 99.708 68.1361C100.228 68.0841 100.748 68.0321 101.268 68.0321L103.14 68.0321C103.556 68.0321 103.92 67.6161 103.92 67.1481C103.92 65.1201 103.764 63.5601 103.608 61.9481C103.452 60.3361 103.348 58.7241 103.4 56.6441C103.452 52.9001 103.816 49.3641 104.18 47.1281Z" fill-rule="evenodd"/>
<path clip-path="url(#TextBounds)" d="M117.596 31.9961C117.752 31.8401 118.168 31.8921 118.168 32.0481C117.18 36.2081 117.856 38.8601 120.352 39.1201C121.808 39.2761 122.796 38.2881 123.316 36.8841C123.836 35.4801 123.888 33.7121 123.628 32.2561C123.628 32.0481 124.252 31.8921 124.46 32.2561C125.864 34.9601 125.812 37.4041 124.824 39.1721C123.836 40.9401 121.912 42.0321 119.572 41.9801C116.66 41.8241 115.256 39.3281 115.256 36.4681C115.256 35.8441 115.672 34.9081 116.14 34.0241C116.556 33.1921 117.18 32.4121 117.596 31.9961ZM127.528 47.1801C127.476 48.0641 127.476 48.8961 127.424 49.6761L127.268 51.9641C127.164 53.4721 127.06 55.0321 127.06 56.9561C127.06 58.8801 127.112 60.5961 127.216 62.1041C127.32 63.6121 127.424 65.2241 127.476 66.9401C127.528 67.9281 126.956 68.0321 126.332 68.0321C125.188 67.9281 124.096 67.9281 123.004 68.0321C122.172 68.1881 121.964 67.5121 121.912 66.8361C121.756 64.7561 121.652 63.2481 121.652 60.8041C121.652 60.2321 121.652 59.7121 121.704 59.2441L121.704 56.4881C121.704 56.0201 121.704 55.4481 121.652 54.8761C121.652 54.7721 121.652 54.6681 121.704 54.5121C121.756 54.3561 121.704 54.3041 121.6 54.3041L118.428 55.1881C117.284 55.5521 116.192 55.8121 115.1 55.9681C114.892 56.0201 114.788 56.1761 114.84 56.3841L114.84 57.0081C114.788 57.4761 114.788 57.8401 114.788 58.1521C114.736 58.4641 114.736 58.7761 114.736 59.0361C114.684 59.2961 114.684 59.6081 114.684 59.8681L114.684 60.9081C114.684 62.0001 114.736 62.9881 114.788 63.8201C114.84 64.6521 114.84 65.5881 114.788 66.5761C114.788 67.3561 114.892 68.1881 113.488 68.0321C112.916 67.9801 112.448 67.9281 112.084 67.9281C111.72 67.9281 111.252 67.9801 110.732 68.0321C110.056 68.1881 109.692 67.3041 109.692 66.7321C109.692 64.9121 109.692 63.2481 109.64 61.6881C109.588 60.1281 109.588 58.3601 109.64 56.3841C109.692 55.4481 109.692 54.6161 109.744 53.8361C109.796 53.1081 109.796 52.3801 109.848 51.7041C109.848 50.3001 109.9 49.0001 109.9 47.1281C109.9 46.5041 110.108 45.8281 110.888 45.7761C111.356 45.7241 111.928 45.6201 112.5 45.5681C113.072 45.5161 113.644 45.4121 114.112 45.3601C114.892 45.2041 115.1 45.9841 115.1 46.5561C115.1 47.3361 115.1 48.0121 115.048 48.5841C114.996 49.2081 114.996 49.7801 114.996 50.3521C114.944 50.9241 114.944 51.4441 114.892 52.0161C114.84 52.5881 114.84 53.1601 114.84 53.7841C114.84 53.8361 114.84 53.9401 114.788 53.9921C114.736 54.0441 114.788 54.0961 114.84 54.0961C115.932 53.9401 116.972 53.6801 118.012 53.3681C119.052 53.0561 120.144 52.7441 121.236 52.4841C121.496 52.4321 121.652 52.3281 121.652 52.2761C121.808 50.4561 121.912 49.3121 121.912 47.4401C121.912 46.6081 122.068 45.8281 123.108 45.7761C124.2 45.6201 125.396 45.4641 126.488 45.4641C127.372 45.3081 127.58 46.4001 127.528 47.1801Z" fill-rule="evenodd"/>
<path clip-path="url(#TextBounds)" d="M181.4 66.9921L181.4 27.9921L175.368 27.9921L175.368 38.3921C174.38 36.1041 172.404 35.0641 170.168 35.0641L169.648 35.0641C167.932 35.2201 166.528 36.9881 166.684 38.8081C166.84 40.6281 168.348 41.9281 170.168 41.7721C171.988 41.6161 173.288 40.1081 173.132 38.2881C173.08 38.1841 173.08 38.0801 173.08 37.9241L172.924 37.4561C173.912 37.8201 174.588 38.8081 174.588 40.0041C174.588 41.5121 173.288 42.8121 171.468 44.0601C170.532 44.6841 169.544 45.3081 168.452 45.9321C166.32 47.1801 164.136 48.7401 162.212 50.7681C160.288 52.8481 158.832 55.0321 158 57.1121C157.584 58.1521 157.376 59.1401 157.376 60.0241C157.376 62.7281 157.792 65.2761 158.26 66.9921L154.724 66.9921C154.464 66.9921 154.412 67.3041 154.62 67.8761C155.036 69.0721 156.076 70.8401 157.168 72.8161C157.74 73.8041 158.208 74.7401 158.572 75.5721C158.936 76.1441 159.04 76.1961 159.196 75.5721C159.56 74.3241 160.08 72.4001 160.704 70.8401C160.964 70.0601 161.276 69.4361 161.536 68.8641C161.796 68.2921 162.056 68.0321 162.212 68.0321L177.032 68.0321C177.136 68.0321 177.344 68.2921 177.656 68.8121C178.28 69.9041 179.008 71.4641 179.684 73.2321C180.048 74.1161 180.308 74.8961 180.516 75.5721C180.568 75.7281 180.672 75.8321 180.828 75.8321C180.984 75.8321 181.088 75.7281 181.14 75.5721C181.4 74.8441 181.712 74.0121 182.18 73.0241C183.012 71.1001 183.792 69.1761 184.208 67.9281C184.364 67.3041 184.364 66.9921 184.156 66.9921L181.4 66.9921ZM175.368 66.9921L164.76 66.9921C164.292 65.7441 163.98 64.7561 163.772 63.6641C163.564 62.6241 163.46 61.4801 163.46 60.0241C163.46 55.8121 165.072 52.3281 168.4 49.0001C168.972 48.4281 169.596 47.9081 170.272 47.3361C171.676 46.2961 173.028 45.1521 174.12 43.9041C174.692 43.3321 175.108 42.6561 175.368 41.9801L175.368 66.9921Z" fill-rule="evenodd"/>
<path clip-path="url(#TextBounds)" d="M204.332 29.0321C204.332 28.8761 204.228 28.6681 204.072 28.4601C203.916 28.2521 203.552 28.1481 202.98 28.1481C201.576 28.1481 201.056 28.4081 199.86 29.4481L199.236 30.3841L194.036 39.0161C193.62 39.7961 194.088 39.9001 194.556 39.9001L195.44 39.9001C195.752 39.9001 196.064 39.7961 196.324 39.5361L203.968 29.9681C204.228 29.6041 204.332 29.4481 204.332 29.0321ZM199.808 47.9601C199.808 47.4921 199.756 46.8161 199.496 46.3481C199.236 45.8801 198.716 45.5161 197.832 45.5161C194.764 45.5161 191.956 46.5041 190.136 48.1161C189.512 48.6881 188.94 49.6761 188.576 50.9761C188.16 52.2761 187.9 53.7841 187.9 55.2401C187.9 56.6441 188.056 57.6841 188.264 58.7761C188.472 59.8681 188.68 61.0641 188.732 62.7281C188.784 63.5081 188.68 64.2361 188.42 64.9121C187.952 66.3681 187.692 67.2521 188.524 67.6681C188.888 67.9281 189.304 68.0321 189.72 68.0321C191.436 68.0321 193.672 67.6681 195.544 67.0441C197.416 66.4721 198.82 65.7961 198.872 65.0161C198.924 63.1961 198.196 61.7921 196.376 62.7801C195.908 63.1961 194.088 63.6121 193.048 63.7681C192.84 63.7681 192.684 63.5081 192.684 63.3521C192.684 62.4681 193.1 61.2721 193.776 60.2321C194.452 59.2441 195.336 58.3601 196.532 58.1521L198.352 57.6841C199.548 57.4241 199.6 56.4361 199.652 55.7081C199.704 55.3441 199.704 54.8761 199.704 54.3041C199.704 53.7321 199.548 53.2121 198.352 53.6281C196.428 54.2521 194.712 54.8761 193.256 55.4481C192.684 55.6041 192.528 55.3961 192.528 55.1361C192.476 54.8761 192.632 54.4601 192.684 54.2521C192.736 53.3681 192.892 52.1721 193.308 51.2361C193.672 50.3001 194.296 49.6761 195.284 49.5201C196.48 49.3641 197.416 49.3121 198.508 49.2601C199.288 49.1041 199.808 48.6361 199.808 47.9601Z" fill-rule="evenodd"/>
<path clip-path="url(#TextBounds)" d="M223.26 67.4081C223.208 65.5361 223.052 63.7681 222.896 62.0521C222.74 60.3361 222.636 58.4121 222.584 56.2801C222.532 52.7961 222.636 49.4681 222.896 46.2441C222.948 45.2041 222.012 45.3601 221.648 45.3601C221.076 45.4121 220.504 45.4641 220.036 45.4641C218.996 45.5161 217.8 45.5681 217.8 46.6081C217.644 47.9081 217.592 49.0521 217.54 50.0401C217.488 51.0801 217.384 52.1721 217.28 53.2641C217.28 53.6801 217.28 54.1481 216.708 53.9921C214.472 53.2121 213.172 52.7441 211.144 51.7041C210.78 51.4961 210.52 51.2361 210.572 50.6121L210.832 48.4801C210.884 48.0121 210.936 47.3361 211.04 46.5561C211.196 45.9841 210.78 45.3081 210.364 45.3081C208.752 45.3081 207.816 45.4121 206.62 45.7761C206.1 45.8281 205.84 46.1401 205.84 46.7121C205.632 48.5321 205.528 49.4681 205.528 50.2481C205.476 50.6641 205.476 51.0281 205.424 51.3921C205.372 51.7561 205.372 52.1721 205.32 52.6921C205.112 54.9801 204.956 57.8401 204.852 60.5441C204.748 63.2481 204.644 65.7441 204.696 67.3561C204.696 67.6681 204.904 67.8761 205.268 67.9281C205.944 67.9801 206.568 68.0321 207.14 67.9801C207.712 67.9281 208.492 67.9281 209.48 67.9281C209.844 67.9281 210.104 67.7721 210.104 67.0961C210.104 65.8481 210.104 64.6001 210.052 63.4041C210 62.2081 209.948 61.0641 209.948 59.9721C209.948 58.9321 210 57.8921 210.052 56.9041C210.104 55.9161 210.208 54.8761 210.26 53.7841C210.26 53.3161 210.416 53.0561 210.78 53.1081C211.872 53.6801 212.704 54.0441 213.588 54.4081C214.42 54.7721 215.356 55.0841 216.604 55.5001C217.072 55.6561 217.28 55.9681 217.28 56.4361C217.436 58.1521 217.54 59.8681 217.696 61.5321C217.852 63.1961 217.956 64.8601 218.112 66.5241C218.164 67.3041 218.58 67.8761 219.256 67.9281C219.672 67.9801 220.192 68.0321 220.764 68.0321L222.792 68.0321C223.156 68.0321 223.26 67.6161 223.26 67.4081Z" fill-rule="evenodd"/>
<path clip-path="url(#TextBounds)" d="M248.22 67.5641C247.804 65.4321 247.388 63.6641 246.764 61.7921C246.088 59.9721 245.256 57.9961 244.06 55.3441C243.904 54.9801 243.592 54.7721 243.124 54.7721C242.24 54.7721 241.46 55.0841 240.212 55.6561C238.964 56.2281 237.56 56.9041 236.104 57.6841C235.376 58.0481 234.7 58.4641 234.024 58.8281C234.18 57.6321 234.284 56.2801 234.44 54.8241C234.7 51.9121 235.064 49.8321 235.532 48.4281C235.74 47.7521 235.844 46.9201 235.844 45.9841C235.844 45.5161 235.584 45.3081 235.116 45.3081C233.504 45.3081 231.736 45.4641 230.072 45.7241C229.812 45.7761 229.656 46.0361 229.604 46.5041C228.824 54.4601 228.616 61.0641 228.46 67.5641C228.46 67.7721 228.616 68.0321 228.876 68.0321L247.752 68.0321C248.116 68.0321 248.272 67.7721 248.22 67.5641ZM241.928 65.2761C241.928 65.9001 241.616 66.4721 240.836 66.4721L234.024 66.4721C233.4 66.4721 233.4 65.9001 233.4 65.6401C233.452 64.8601 233.504 64.0801 233.608 63.2481C233.712 62.4161 233.816 61.2721 233.972 59.8161C234.648 59.4001 235.688 58.9321 236.52 58.5681C237.352 58.2041 238.08 57.9961 238.34 57.9961C238.6 57.9961 238.912 57.9961 239.12 58.2561C240.836 60.8041 241.928 63.3521 241.928 65.2761Z" fill-rule="evenodd"/>
</g>
<g fill="#181818" filter="url(#Filter_2)" stroke="none" vectornator:shadowAngle="1.5708" vectornator:shadowColor="#ffffff" vectornator:shadowOffset="1" vectornator:shadowOpacity="0.630858" vectornator:shadowRadius="3">
<path clip-path="url(#TextBounds_2)" d="M120.112 174.488C120.256 174.056 120.544 172.76 120.544 171.464C120.4 170.312 119.68 169.16 118.096 169.16C114.496 169.16 111.472 169.304 108.592 169.592C105.568 169.88 102.688 170.168 98.8 170.168L47.68 170.168C45.088 170.168 42.64 170.024 40.48 169.88C38.896 169.88 38.752 170.744 38.896 171.752C39.04 172.904 39.904 173.912 40.624 174.056C42.208 174.488 42.064 177.224 42.064 178.232L42.064 191.048C42.064 194.504 41.92 197.96 41.776 202.136C41.632 203.288 42.496 204.584 43.504 204.584C46.528 204.728 49.84 205.016 53.872 204.584C55.168 204.152 55.6 203 55.6 201.992C55.6 196.808 55.456 193.352 55.456 189.896C55.312 188.168 55.312 186.296 55.312 184.424L55.312 177.368C55.312 176.072 55.6 174.488 56.896 174.344L71.872 174.344C73.168 174.344 74.032 175.208 73.6 176.216C73.456 182.408 73.456 187.88 73.312 192.344C73.024 201.56 72.736 209.336 72.736 217.256C72.592 221.144 72.592 225.608 72.736 230.504C72.736 231.8 73.888 233.096 75.04 233.096C77.2 233.096 79.36 233.096 81.232 233.24C83.104 233.384 85.12 233.24 87.136 233.096C88.288 233.096 88.864 231.224 88.864 230.072C88.864 227.48 88.864 225.032 88.72 222.728L87.856 208.904C87.568 204.008 87.28 197.96 87.424 194.36C87.568 192.488 87.568 190.76 87.712 188.888C87.856 185.432 88.144 181.544 88.144 175.784C88.144 174.632 89.152 174.344 90.304 174.344L99.664 174.344C102.4 174.344 103.984 176.648 104.992 179.816L106.288 184.856L107.152 189.608C107.728 191.768 108.736 192.488 109.744 192.344C110.752 192.2 111.472 191.192 111.904 189.896C113.056 185.72 114.064 182.984 115.36 180.824C116.512 178.664 117.952 176.936 120.112 174.488Z" fill-rule="evenodd"/>
<path clip-path="url(#TextBounds_2)" d="M224.08 201.704C224.08 190.76 219.328 183.272 211.552 178.232C203.776 173.192 192.832 170.888 180.736 170.312C180.016 167.576 178 165.848 175.264 165.848C172.384 165.848 169.936 167.576 169.504 170.312C157.408 170.888 146.752 173.192 138.976 178.232C131.2 183.272 126.448 190.76 126.448 201.704C126.448 213.224 131.2 220.712 138.976 225.608C146.752 230.504 157.696 232.664 169.936 233.096C170.512 234.968 172.816 236.696 175.264 236.696C177.424 236.696 179.584 234.968 180.16 233.096C192.4 232.664 203.344 230.504 211.408 225.608C219.328 220.712 224.08 213.224 224.08 201.704ZM209.392 201.704C209.392 210.488 206.224 217.112 201.04 221.576C195.856 226.184 188.656 228.776 180.448 229.496C179.872 227.192 177.568 225.464 175.264 225.464C172.528 225.464 170.368 227.192 169.792 229.496C161.584 228.776 154.24 226.184 149.056 221.432C143.872 216.824 140.704 210.2 140.704 200.984C140.704 192.344 143.872 186.008 149.056 181.4C154.24 176.936 161.584 174.488 169.792 173.768C170.512 176.216 172.384 177.368 175.264 177.368C177.568 177.368 179.44 176.072 180.448 173.768C188.656 174.488 195.856 177.08 201.04 181.544C206.224 186.152 209.392 192.632 209.392 201.704Z" fill-rule="evenodd"/>
<path clip-path="url(#TextBounds_2)" d="M223.504 144.536C223.936 144.536 224.224 144.104 224.224 143.384C224.224 142.52 223.936 142.088 223.504 142.088C223.36 142.088 223.072 141.944 222.784 141.8C222.352 141.656 221.92 141.656 221.488 141.656C220.336 141.8 219.904 140.504 219.76 139.496C219.616 138.92 219.616 138.2 219.616 137.192L219.616 128.552C219.616 127.544 219.472 126.824 218.464 126.392C217.168 126.248 215.584 126.248 213.424 126.248L208.528 126.248C207.952 126.248 207.52 127.112 207.52 127.688C207.52 128.408 207.52 129.272 207.664 130.28C207.664 132.296 207.808 134.456 207.808 136.328C207.808 138.056 207.808 139.208 207.52 140.36C207.376 141.08 206.944 141.368 206.368 141.368C200.608 141.368 193.408 141.224 186.496 140.936C179.584 140.648 173.104 140.216 168.496 139.064C166.912 138.632 166.192 141.08 168.352 142.664C168.784 143.096 168.928 143.528 168.784 144.248C168.64 144.968 168.496 145.544 168.496 146.12C168.496 148.136 168.64 149.864 168.784 151.16C168.928 152.456 168.928 153.608 168.784 154.328C168.784 155.048 169.216 155.48 169.936 155.48C172.384 155.912 177.712 156.056 179.872 155.624C180.304 155.48 180.592 155.048 180.592 154.472C180.448 153.032 180.304 151.448 180.304 149.72C180.304 147.992 180.448 146.552 180.592 145.544C180.592 144.824 180.88 144.536 181.6 144.536C187.36 144.68 195.28 144.824 203.2 144.824C210.832 144.824 218.464 144.68 223.504 144.536Z" fill-rule="evenodd"/>
<path clip-path="url(#TextBounds_2)" d="M283.984 234.392C284.704 232.808 284.992 231.8 284.848 231.08C284.272 229.784 282.688 229.496 280.672 229.928C279.664 230.072 278.8 230.216 278.08 230.216C276.784 230.216 276.352 229.064 275.632 226.904L266.848 188.888C266.416 187.016 266.128 185.288 266.128 183.704C266.128 182.12 265.984 180.104 265.84 177.944C265.84 176.936 266.128 175.928 266.56 175.208C266.992 174.488 266.992 173.768 266.848 173.048C266.848 172.04 266.704 171.32 266.272 170.744C265.84 170.312 264.4 170.312 261.952 170.744C259.504 171.752 256.48 171.176 254.032 170.744C251.008 170.312 249.856 171.896 250.432 175.352C250.576 176.936 251.008 179.096 251.584 181.688C251.728 182.984 252.016 184.28 252.16 185.576L252.592 189.176C253.168 191.912 253.024 193.352 252.016 195.8C250.144 201.992 247.984 206.744 246.112 211.352C244.24 216.104 242.368 220.856 241.072 226.184C240.496 227.768 239.488 228.92 237.76 228.92C236.752 228.92 235.888 228.776 235.168 228.488C233.872 227.912 232 227.912 230.416 229.64C229.696 230.648 229.408 231.656 229.552 232.664C230.128 234.968 230.704 236.984 231.136 238.856L232.432 244.472C232.72 246.344 233.008 248.216 233.44 250.088C233.872 251.96 234.304 254.12 234.736 256.568C235.168 258.728 237.04 259.88 237.76 256.568C238.192 254.408 238.48 252.392 238.912 250.808L239.776 246.344C240.064 245.048 240.496 243.608 240.928 242.168C241.36 240.872 241.792 239.144 242.368 237.272C242.944 234.968 243.232 233.24 246.544 233.672C251.008 234.104 254.464 234.104 257.92 234.104C261.376 234.104 264.832 233.96 269.296 233.528C272.176 233.528 272.896 235.256 273.328 237.416C273.472 240.872 273.472 243.896 273.472 246.632L273.472 256.424C273.472 257 274.192 257.72 275.056 257.864C275.92 258.008 276.496 257.864 276.928 256.568C277.504 254.264 277.936 252.104 278.368 250.088C279.088 246.2 281.248 240.728 282.112 238.568C282.544 237.56 283.12 236.12 283.984 234.392ZM261.376 226.472C261.952 228.056 260.368 229.352 259.072 229.784C254.032 230.216 249.856 230.072 245.68 229.496C244.24 229.352 243.664 228.344 244.096 226.76C245.248 222.152 246.544 218.696 247.984 215.096C248.704 213.224 249.424 211.352 250.288 209.336L253.312 202.136C253.456 201.416 254.032 201.128 254.752 201.56C255.472 201.992 256.048 203.288 256.48 205.448C257.2 209.048 258.064 212.504 258.928 215.816C259.648 219.272 260.512 222.872 261.376 226.472Z" fill-rule="evenodd"/>
</g>
</g>
</svg>
