<?xml version="1.0" encoding="UTF-8" standalone="no"?>

<svg height="100%" stroke-miterlimit="10" style="fill-rule:nonzero;clip-rule:evenodd;stroke-linecap:round;stroke-linejoin:round;" version="1.1" viewBox="0 0 320 320" width="100%" xml:space="preserve" xmlns="http://www.w3.org/2000/svg" xmlns:vectornator="http://vectornator.io" xmlns:xlink="http://www.w3.org/1999/xlink">
<defs>
<linearGradient gradientTransform="matrix(1.03795 0 0 0.878106 -7.99466 60.8923)" gradientUnits="userSpaceOnUse" id="LinearGradient" x1="161.853" x2="161.853" y1="37.6499" y2="339.285">
<stop offset="0" stop-color="#ffe7e7"/>
<stop offset="1" stop-color="#ffffff"/>
</linearGradient>
<filter color-interpolation-filters="sRGB" filterUnits="userSpaceOnUse" height="106.935" id="Filter" width="358.902" x="-2.45403" y="-2.81749">
<feDropShadow dx="-3.67321e-06" dy="1" flood-color="#000000" flood-opacity="0.630858" in="SourceGraphic" result="Shadow" stdDeviation="1.5"/>
</filter>
<clipPath id="TextBounds">
<rect height="109.452" width="421.181" x="-51.8624" y="19.0321"/>
</clipPath>
<clipPath id="TextBounds_2">
<rect height="204" width="229.26" x="45.9512" y="93.5301"/>
</clipPath>
<filter color-interpolation-filters="sRGB" filterUnits="userSpaceOnUse" height="138.394" id="Filter_2" width="65.8503" x="124.911" y="121.682">
<feDropShadow dx="-3.67321e-06" dy="1" flood-color="#ffffff" flood-opacity="0.630858" in="SourceGraphic" result="Shadow" stdDeviation="1.5"/>
</filter>
</defs>
<clipPath id="ArtboardFrame">
<rect height="320" width="320" x="0" y="0"/>
</clipPath>
<g clip-path="url(#ArtboardFrame)" id="Слой-1" vectornator:layerName="Слой 1">
<path d="M10.0725 68.34L309.03 68.34C314.791 68.34 319.461 72.291 319.461 77.1648L319.461 324.65C319.461 329.524 314.791 333.475 309.03 333.475L10.0725 333.475C4.31145 333.475-0.358764 329.524-0.358764 324.65L-0.358764 77.1648C-0.358764 72.291 4.31145 68.34 10.0725 68.34Z" fill="url(#LinearGradient)" fill-rule="evenodd" opacity="1" stroke="none"/>
<path d="M0.545977-0.817494L353.448-0.817494L353.448 100.117L0.545977 100.117L0.545977-0.817494Z" fill="#e34234" fill-rule="evenodd" filter="url(#Filter)" stroke="none" vectornator:shadowAngle="1.5708" vectornator:shadowColor="#000000" vectornator:shadowOffset="1" vectornator:shadowOpacity="0.630858" vectornator:shadowRadius="3"/>
<g fill="#ffffff" opacity="1" stroke="none">
<path clip-path="url(#TextBounds)" d="M94.326 52.0161L94.326 50.9761L83.354 50.9761L83.354 52.0161L85.434 52.0161C85.434 53.4721 85.382 55.1881 85.174 56.8521C84.966 58.5161 84.55 60.0761 83.874 61.2721C82.47 63.7161 80.338 65.7441 77.218 66.8361C77.218 63.2481 76.698 60.3361 76.126 57.4241C75.554 54.5121 75.034 51.6521 75.034 47.9601C75.034 44.2161 75.45 39.4841 76.49 35.6881C77.478 31.8921 79.038 29.0321 81.274 29.0321C82.366 29.0321 83.406 30.3321 84.186 32.2041C84.966 34.1281 85.434 36.6761 85.434 39.1721L83.354 39.1721L83.354 40.2121L94.326 40.2121L94.326 39.1721L92.246 39.1721C90.634 31.4241 86.162 27.9921 80.806 27.9921C77.062 27.9921 73.942 30.6441 71.706 34.4401C69.47 38.2361 68.222 43.2281 68.222 47.9601C68.222 50.9241 69.002 53.3161 70.042 55.3961C70.562 56.4881 71.134 57.4761 71.81 58.4121C73.058 60.3361 74.254 62.3121 75.242 64.4441C75.71 65.5361 76.074 66.7321 76.23 68.0321C82.054 68.0321 85.954 65.6921 89.074 61.7921C91.362 59.0361 91.986 55.8121 92.246 52.0161L94.326 52.0161Z" fill-rule="evenodd"/>
<path clip-path="url(#TextBounds)" d="M104.154 47.1281C104.31 46.3481 104.05 45.2041 103.27 45.2041C102.802 45.1521 102.23 45.1521 101.658 45.1521C101.086 45.2041 100.462 45.2041 99.89 45.2041C99.11 45.2041 98.642 45.8281 98.59 46.5041C98.382 49.6241 98.278 52.4321 98.278 56.3841C98.278 60.3881 98.278 63.7681 98.486 66.8361C98.486 67.7201 98.902 68.1361 99.682 68.1361C100.202 68.0841 100.722 68.0321 101.242 68.0321L103.114 68.0321C103.53 68.0321 103.894 67.6161 103.894 67.1481C103.894 65.1201 103.738 63.5601 103.582 61.9481C103.426 60.3361 103.322 58.7241 103.374 56.6441C103.426 52.9001 103.79 49.3641 104.154 47.1281Z" fill-rule="evenodd"/>
<path clip-path="url(#TextBounds)" d="M106.806 29.0321C106.806 28.8761 106.702 28.6681 106.546 28.4601C106.39 28.2521 106.026 28.1481 105.454 28.1481C104.05 28.1481 103.53 28.4081 102.334 29.4481L101.71 30.3841L96.51 39.0161C96.094 39.7961 96.562 39.9001 97.03 39.9001L97.914 39.9001C98.226 39.9001 98.538 39.7961 98.798 39.5361L106.494 29.9681C106.702 29.6041 106.806 29.4481 106.806 29.0321Z" fill-rule="evenodd"/>
<path clip-path="url(#TextBounds)" d="M117.622 31.9961C117.778 31.8401 118.194 31.8921 118.194 32.0481C117.206 36.2081 117.882 38.8601 120.378 39.1201C121.834 39.2761 122.822 38.2881 123.342 36.8841C123.862 35.4801 123.914 33.7121 123.654 32.2561C123.654 32.0481 124.278 31.8921 124.486 32.2561C125.89 34.9601 125.838 37.4041 124.85 39.1721C123.862 40.9401 121.938 42.0321 119.598 41.9801C116.686 41.8241 115.282 39.3281 115.282 36.4681C115.282 35.8441 115.698 34.9081 116.166 34.0241C116.582 33.1921 117.206 32.4121 117.622 31.9961ZM127.554 47.1801C127.502 48.0641 127.502 48.8961 127.45 49.6761L127.294 51.9641C127.19 53.4721 127.086 55.0321 127.086 56.9561C127.086 58.8801 127.138 60.5961 127.242 62.1041C127.346 63.6121 127.45 65.2241 127.502 66.9401C127.554 67.9281 126.982 68.0321 126.358 68.0321C125.214 67.9281 124.122 67.9281 123.03 68.0321C122.198 68.1881 121.99 67.5121 121.938 66.8361C121.782 64.7561 121.678 63.2481 121.678 60.8041C121.678 60.2321 121.678 59.7121 121.73 59.2441L121.73 56.4881C121.73 56.0201 121.73 55.4481 121.678 54.8761C121.678 54.7721 121.678 54.6681 121.73 54.5121C121.782 54.3561 121.73 54.3041 121.626 54.3041L118.454 55.1881C117.31 55.5521 116.218 55.8121 115.126 55.9681C114.918 56.0201 114.814 56.1761 114.866 56.3841L114.866 57.0081C114.814 57.4761 114.814 57.8401 114.814 58.1521C114.762 58.4641 114.762 58.7761 114.762 59.0361C114.71 59.2961 114.71 59.6081 114.71 59.8681L114.71 60.9081C114.71 62.0001 114.762 62.9881 114.814 63.8201C114.866 64.6521 114.866 65.5881 114.814 66.5761C114.814 67.3561 114.918 68.1881 113.514 68.0321C112.942 67.9801 112.474 67.9281 112.11 67.9281C111.746 67.9281 111.278 67.9801 110.758 68.0321C110.082 68.1881 109.718 67.3041 109.718 66.7321C109.718 64.9121 109.718 63.2481 109.666 61.6881C109.614 60.1281 109.614 58.3601 109.666 56.3841C109.718 55.4481 109.718 54.6161 109.77 53.8361C109.822 53.1081 109.822 52.3801 109.874 51.7041C109.874 50.3001 109.926 49.0001 109.926 47.1281C109.926 46.5041 110.134 45.8281 110.914 45.7761C111.382 45.7241 111.954 45.6201 112.526 45.5681C113.098 45.5161 113.67 45.4121 114.138 45.3601C114.918 45.2041 115.126 45.9841 115.126 46.5561C115.126 47.3361 115.126 48.0121 115.074 48.5841C115.022 49.2081 115.022 49.7801 115.022 50.3521C114.97 50.9241 114.97 51.4441 114.918 52.0161C114.866 52.5881 114.866 53.1601 114.866 53.7841C114.866 53.8361 114.866 53.9401 114.814 53.9921C114.762 54.0441 114.814 54.0961 114.866 54.0961C115.958 53.9401 116.998 53.6801 118.038 53.3681C119.078 53.0561 120.17 52.7441 121.262 52.4841C121.522 52.4321 121.678 52.3281 121.678 52.2761C121.834 50.4561 121.938 49.3121 121.938 47.4401C121.938 46.6081 122.094 45.8281 123.134 45.7761C124.226 45.6201 125.422 45.4641 126.514 45.4641C127.398 45.3081 127.606 46.4001 127.554 47.1801Z" fill-rule="evenodd"/>
<path clip-path="url(#TextBounds)" d="M181.426 66.9921L181.426 27.9921L175.394 27.9921L175.394 38.3921C174.406 36.1041 172.43 35.0641 170.194 35.0641L169.674 35.0641C167.958 35.2201 166.554 36.9881 166.71 38.8081C166.866 40.6281 168.374 41.9281 170.194 41.7721C172.014 41.6161 173.314 40.1081 173.158 38.2881C173.106 38.1841 173.106 38.0801 173.106 37.9241L172.95 37.4561C173.938 37.8201 174.614 38.8081 174.614 40.0041C174.614 41.5121 173.314 42.8121 171.494 44.0601C170.558 44.6841 169.57 45.3081 168.478 45.9321C166.346 47.1801 164.162 48.7401 162.238 50.7681C160.314 52.8481 158.858 55.0321 158.026 57.1121C157.61 58.1521 157.402 59.1401 157.402 60.0241C157.402 62.7281 157.818 65.2761 158.286 66.9921L154.75 66.9921C154.49 66.9921 154.438 67.3041 154.646 67.8761C155.062 69.0721 156.102 70.8401 157.194 72.8161C157.766 73.8041 158.234 74.7401 158.598 75.5721C158.962 76.1441 159.066 76.1961 159.222 75.5721C159.586 74.3241 160.106 72.4001 160.73 70.8401C160.99 70.0601 161.302 69.4361 161.562 68.8641C161.822 68.2921 162.082 68.0321 162.238 68.0321L177.058 68.0321C177.162 68.0321 177.37 68.2921 177.682 68.8121C178.306 69.9041 179.034 71.4641 179.71 73.2321C180.074 74.1161 180.334 74.8961 180.542 75.5721C180.594 75.7281 180.698 75.8321 180.854 75.8321C181.01 75.8321 181.114 75.7281 181.166 75.5721C181.426 74.8441 181.738 74.0121 182.206 73.0241C183.038 71.1001 183.818 69.1761 184.234 67.9281C184.39 67.3041 184.39 66.9921 184.182 66.9921L181.426 66.9921ZM175.394 66.9921L164.786 66.9921C164.318 65.7441 164.006 64.7561 163.798 63.6641C163.59 62.6241 163.486 61.4801 163.486 60.0241C163.486 55.8121 165.098 52.3281 168.426 49.0001C168.998 48.4281 169.622 47.9081 170.298 47.3361C171.702 46.2961 173.054 45.1521 174.146 43.9041C174.718 43.3321 175.134 42.6561 175.394 41.9801L175.394 66.9921Z" fill-rule="evenodd"/>
<path clip-path="url(#TextBounds)" d="M204.358 29.0321C204.358 28.8761 204.254 28.6681 204.098 28.4601C203.942 28.2521 203.578 28.1481 203.006 28.1481C201.602 28.1481 201.082 28.4081 199.886 29.4481L199.262 30.3841L194.062 39.0161C193.646 39.7961 194.114 39.9001 194.582 39.9001L195.466 39.9001C195.778 39.9001 196.09 39.7961 196.35 39.5361L203.994 29.9681C204.254 29.6041 204.358 29.4481 204.358 29.0321ZM199.834 47.9601C199.834 47.4921 199.782 46.8161 199.522 46.3481C199.262 45.8801 198.742 45.5161 197.858 45.5161C194.79 45.5161 191.982 46.5041 190.162 48.1161C189.538 48.6881 188.966 49.6761 188.602 50.9761C188.186 52.2761 187.926 53.7841 187.926 55.2401C187.926 56.6441 188.082 57.6841 188.29 58.7761C188.498 59.8681 188.706 61.0641 188.758 62.7281C188.81 63.5081 188.706 64.2361 188.446 64.9121C187.978 66.3681 187.718 67.2521 188.55 67.6681C188.914 67.9281 189.33 68.0321 189.746 68.0321C191.462 68.0321 193.698 67.6681 195.57 67.0441C197.442 66.4721 198.846 65.7961 198.898 65.0161C198.95 63.1961 198.222 61.7921 196.402 62.7801C195.934 63.1961 194.114 63.6121 193.074 63.7681C192.866 63.7681 192.71 63.5081 192.71 63.3521C192.71 62.4681 193.126 61.2721 193.802 60.2321C194.478 59.2441 195.362 58.3601 196.558 58.1521L198.378 57.6841C199.574 57.4241 199.626 56.4361 199.678 55.7081C199.73 55.3441 199.73 54.8761 199.73 54.3041C199.73 53.7321 199.574 53.2121 198.378 53.6281C196.454 54.2521 194.738 54.8761 193.282 55.4481C192.71 55.6041 192.554 55.3961 192.554 55.1361C192.502 54.8761 192.658 54.4601 192.71 54.2521C192.762 53.3681 192.918 52.1721 193.334 51.2361C193.698 50.3001 194.322 49.6761 195.31 49.5201C196.506 49.3641 197.442 49.3121 198.534 49.2601C199.314 49.1041 199.834 48.6361 199.834 47.9601Z" fill-rule="evenodd"/>
<path clip-path="url(#TextBounds)" d="M223.286 67.4081C223.234 65.5361 223.078 63.7681 222.922 62.0521C222.766 60.3361 222.662 58.4121 222.61 56.2801C222.558 52.7961 222.662 49.4681 222.922 46.2441C222.974 45.2041 222.038 45.3601 221.674 45.3601C221.102 45.4121 220.53 45.4641 220.062 45.4641C219.022 45.5161 217.826 45.5681 217.826 46.6081C217.67 47.9081 217.618 49.0521 217.566 50.0401C217.514 51.0801 217.41 52.1721 217.306 53.2641C217.306 53.6801 217.306 54.1481 216.734 53.9921C214.498 53.2121 213.198 52.7441 211.17 51.7041C210.806 51.4961 210.546 51.2361 210.598 50.6121L210.858 48.4801C210.91 48.0121 210.962 47.3361 211.066 46.5561C211.222 45.9841 210.806 45.3081 210.39 45.3081C208.778 45.3081 207.842 45.4121 206.646 45.7761C206.126 45.8281 205.866 46.1401 205.866 46.7121C205.658 48.5321 205.554 49.4681 205.554 50.2481C205.502 50.6641 205.502 51.0281 205.45 51.3921C205.398 51.7561 205.398 52.1721 205.346 52.6921C205.138 54.9801 204.982 57.8401 204.878 60.5441C204.774 63.2481 204.67 65.7441 204.722 67.3561C204.722 67.6681 204.93 67.8761 205.294 67.9281C205.97 67.9801 206.594 68.0321 207.166 67.9801C207.738 67.9281 208.518 67.9281 209.506 67.9281C209.87 67.9281 210.13 67.7721 210.13 67.0961C210.13 65.8481 210.13 64.6001 210.078 63.4041C210.026 62.2081 209.974 61.0641 209.974 59.9721C209.974 58.9321 210.026 57.8921 210.078 56.9041C210.13 55.9161 210.234 54.8761 210.286 53.7841C210.286 53.3161 210.442 53.0561 210.806 53.1081C211.898 53.6801 212.73 54.0441 213.614 54.4081C214.446 54.7721 215.382 55.0841 216.63 55.5001C217.098 55.6561 217.306 55.9681 217.306 56.4361C217.462 58.1521 217.566 59.8681 217.722 61.5321C217.878 63.1961 217.982 64.8601 218.138 66.5241C218.19 67.3041 218.606 67.8761 219.282 67.9281C219.698 67.9801 220.218 68.0321 220.79 68.0321L222.818 68.0321C223.182 68.0321 223.286 67.6161 223.286 67.4081Z" fill-rule="evenodd"/>
<path clip-path="url(#TextBounds)" d="M248.246 67.5641C247.83 65.4321 247.414 63.6641 246.79 61.7921C246.114 59.9721 245.282 57.9961 244.086 55.3441C243.93 54.9801 243.618 54.7721 243.15 54.7721C242.266 54.7721 241.486 55.0841 240.238 55.6561C238.99 56.2281 237.586 56.9041 236.13 57.6841C235.402 58.0481 234.726 58.4641 234.05 58.8281C234.206 57.6321 234.31 56.2801 234.466 54.8241C234.726 51.9121 235.09 49.8321 235.558 48.4281C235.766 47.7521 235.87 46.9201 235.87 45.9841C235.87 45.5161 235.61 45.3081 235.142 45.3081C233.53 45.3081 231.762 45.4641 230.098 45.7241C229.838 45.7761 229.682 46.0361 229.63 46.5041C228.85 54.4601 228.642 61.0641 228.486 67.5641C228.486 67.7721 228.642 68.0321 228.902 68.0321L247.778 68.0321C248.142 68.0321 248.298 67.7721 248.246 67.5641ZM241.954 65.2761C241.954 65.9001 241.642 66.4721 240.862 66.4721L234.05 66.4721C233.426 66.4721 233.426 65.9001 233.426 65.6401C233.478 64.8601 233.53 64.0801 233.634 63.2481C233.738 62.4161 233.842 61.2721 233.998 59.8161C234.674 59.4001 235.714 58.9321 236.546 58.5681C237.378 58.2041 238.106 57.9961 238.366 57.9961C238.626 57.9961 238.938 57.9961 239.146 58.2561C240.862 60.8041 241.954 63.3521 241.954 65.2761Z" fill-rule="evenodd"/>
</g>
<g fill="#181818" filter="url(#Filter_2)" stroke="none" vectornator:shadowAngle="1.5708" vectornator:shadowColor="#ffffff" vectornator:shadowOffset="1" vectornator:shadowOpacity="0.630858" vectornator:shadowRadius="3">
<path clip-path="url(#TextBounds_2)" d="M186.861 231.826C187.581 230.242 187.869 229.234 187.725 228.514C187.149 227.218 185.565 226.93 183.549 227.362C182.541 227.506 181.677 227.65 180.957 227.65C179.661 227.65 179.229 226.498 178.509 224.338L169.725 186.322C169.293 184.45 169.005 182.722 169.005 181.138C169.005 179.554 168.861 177.538 168.717 175.378C168.717 174.37 169.005 173.362 169.437 172.642C169.869 171.922 169.869 171.202 169.725 170.482C169.725 169.474 169.581 168.754 169.149 168.178C168.717 167.746 167.277 167.746 164.829 168.178C162.381 169.186 159.357 168.61 156.909 168.178C153.885 167.746 152.733 169.33 153.309 172.786C153.453 174.37 153.885 176.53 154.461 179.122C154.605 180.418 154.893 181.714 155.037 183.01L155.469 186.61C156.045 189.346 155.901 190.786 154.893 193.234C153.021 199.426 150.861 204.178 148.989 208.786C147.117 213.538 145.245 218.29 143.949 223.618C143.373 225.202 142.365 226.354 140.637 226.354C139.629 226.354 138.765 226.21 138.045 225.922C136.749 225.346 134.877 225.346 133.293 227.074C132.573 228.082 132.285 229.09 132.429 230.098C133.005 232.402 133.581 234.418 134.013 236.29L135.309 241.906C135.597 243.778 135.885 245.65 136.317 247.522C136.749 249.394 137.181 251.554 137.613 254.002C138.045 256.162 139.917 257.314 140.637 254.002C141.069 251.842 141.357 249.826 141.789 248.242L142.653 243.778C142.941 242.482 143.373 241.042 143.805 239.602C144.237 238.306 144.669 236.578 145.245 234.706C145.821 232.402 146.109 230.674 149.421 231.106C153.885 231.538 157.341 231.538 160.797 231.538C164.253 231.538 167.709 231.394 172.173 230.962C175.053 230.962 175.773 232.69 176.205 234.85C176.349 238.306 176.349 241.33 176.349 244.066L176.349 253.858C176.349 254.434 177.069 255.154 177.933 255.298C178.797 255.442 179.373 255.298 179.805 254.002C180.381 251.698 180.813 249.538 181.245 247.522C181.965 243.634 184.125 238.162 184.989 236.002C185.421 234.994 185.997 233.554 186.861 231.826ZM164.253 223.906C164.829 225.49 163.245 226.786 161.949 227.218C156.909 227.65 152.733 227.506 148.557 226.93C147.117 226.786 146.541 225.778 146.973 224.194C148.125 219.586 149.421 216.13 150.861 212.53C151.581 210.658 152.301 208.786 153.165 206.77L156.189 199.57C156.333 198.85 156.909 198.562 157.629 198.994C158.349 199.426 158.925 200.722 159.357 202.882C160.077 206.482 160.941 209.938 161.805 213.25C162.525 216.706 163.389 220.306 164.253 223.906Z" fill-rule="evenodd"/>
<path clip-path="url(#TextBounds_2)" d="M184.413 141.97C184.845 141.97 185.133 141.538 185.133 140.818C185.133 139.954 184.845 139.522 184.413 139.522C184.269 139.522 183.981 139.378 183.693 139.234C183.261 139.09 182.829 139.09 182.397 139.09C181.245 139.234 180.813 137.938 180.669 136.93C180.525 136.354 180.525 135.634 180.525 134.626L180.525 125.986C180.525 124.978 180.381 124.258 179.373 123.826C178.077 123.682 176.493 123.682 174.333 123.682L169.437 123.682C168.861 123.682 168.429 124.546 168.429 125.122C168.429 125.842 168.429 126.706 168.573 127.714C168.573 129.73 168.717 131.89 168.717 133.762C168.717 135.49 168.717 136.642 168.429 137.794C168.285 138.514 167.853 138.802 167.277 138.802C161.517 138.802 154.317 138.658 147.405 138.37C140.493 138.082 134.013 137.65 129.405 136.498C127.821 136.066 127.101 138.514 129.261 140.098C129.693 140.53 129.837 140.962 129.693 141.682C129.549 142.402 129.405 142.978 129.405 143.554C129.405 145.57 129.549 147.298 129.693 148.594C129.837 149.89 129.837 151.042 129.693 151.762C129.693 152.482 130.125 152.914 130.845 152.914C133.293 153.346 138.621 153.49 140.781 153.058C141.213 152.914 141.501 152.482 141.501 151.906C141.357 150.466 141.213 148.882 141.213 147.154C141.213 145.426 141.357 143.986 141.501 142.978C141.501 142.258 141.789 141.97 142.509 141.97C148.269 142.114 156.189 142.258 164.109 142.258C171.741 142.258 179.373 142.114 184.413 141.97Z" fill-rule="evenodd"/>
</g>
</g>
</svg>
