<?xml version="1.0" encoding="UTF-8" standalone="no"?>
<!DOCTYPE svg PUBLIC "-//W3C//DTD SVG 1.1//EN" "http://www.w3.org/Graphics/SVG/1.1/DTD/svg11.dtd"
[
<!ATTLIST g
  xmlns:vectornator CDATA #FIXED "http://vectornator.io"
  vectornator:layerName CDATA #IMPLIED >
<!ATTLIST g
  xmlns:vectornator CDATA #FIXED "http://vectornator.io"
  vectornator:mask CDATA #IMPLIED >
<!ATTLIST text
  xmlns:vectornator CDATA #FIXED "http://vectornator.io"
  vectornator:width CDATA #IMPLIED >

<!ATTLIST path
  xmlns:vectornator CDATA #FIXED "http://vectornator.io"
  vectornator:blendMode CDATA #IMPLIED >
<!ATTLIST path
  xmlns:vectornator CDATA #FIXED "http://vectornator.io"
  vectornator:shadowColor CDATA #IMPLIED >
<!ATTLIST path
  xmlns:vectornator CDATA #FIXED "http://vectornator.io"
  vectornator:shadowOpacity CDATA #IMPLIED >
<!ATTLIST path
  xmlns:vectornator CDATA #FIXED "http://vectornator.io"
  vectornator:shadowRadius CDATA #IMPLIED >
<!ATTLIST path
  xmlns:vectornator CDATA #FIXED "http://vectornator.io"
  vectornator:shadowOffset CDATA #IMPLIED >
<!ATTLIST path
  xmlns:vectornator CDATA #FIXED "http://vectornator.io"
  vectornator:shadowAngle CDATA #IMPLIED >

<!ATTLIST image
  xmlns:vectornator CDATA #FIXED "http://vectornator.io"
  vectornator:blendMode CDATA #IMPLIED >
<!ATTLIST image
  xmlns:vectornator CDATA #FIXED "http://vectornator.io"
  vectornator:shadowColor CDATA #IMPLIED >
<!ATTLIST image
  xmlns:vectornator CDATA #FIXED "http://vectornator.io"
  vectornator:shadowOpacity CDATA #IMPLIED >
<!ATTLIST image
  xmlns:vectornator CDATA #FIXED "http://vectornator.io"
  vectornator:shadowRadius CDATA #IMPLIED >
<!ATTLIST image
  xmlns:vectornator CDATA #FIXED "http://vectornator.io"
  vectornator:shadowOffset CDATA #IMPLIED >
<!ATTLIST image
  xmlns:vectornator CDATA #FIXED "http://vectornator.io"
  vectornator:shadowAngle CDATA #IMPLIED >

<!ATTLIST g
  xmlns:vectornator CDATA #FIXED "http://vectornator.io"
  vectornator:blendMode CDATA #IMPLIED >
<!ATTLIST g
  xmlns:vectornator CDATA #FIXED "http://vectornator.io"
  vectornator:shadowColor CDATA #IMPLIED >
<!ATTLIST g
  xmlns:vectornator CDATA #FIXED "http://vectornator.io"
  vectornator:shadowOpacity CDATA #IMPLIED >
<!ATTLIST g
  xmlns:vectornator CDATA #FIXED "http://vectornator.io"
  vectornator:shadowRadius CDATA #IMPLIED >
<!ATTLIST g
  xmlns:vectornator CDATA #FIXED "http://vectornator.io"
  vectornator:shadowOffset CDATA #IMPLIED >
<!ATTLIST g
  xmlns:vectornator CDATA #FIXED "http://vectornator.io"
  vectornator:shadowAngle CDATA #IMPLIED >

<!ENTITY % SVG.filter.extra.content  "| feDropShadow" >
<!ELEMENT feDropShadow EMPTY>
<!ATTLIST feDropShadow
  xmlns:svg CDATA #FIXED "http://www.w3.org/Graphics/SVG/1.1/DTD/svg11.dtd"
  dx CDATA #IMPLIED>
<!ATTLIST feDropShadow
  xmlns:svg CDATA #FIXED "http://www.w3.org/Graphics/SVG/1.1/DTD/svg11.dtd"
  dy CDATA #IMPLIED>
<!ATTLIST feDropShadow
  xmlns:svg CDATA #FIXED "http://www.w3.org/Graphics/SVG/1.1/DTD/svg11.dtd"
  stdDeviation CDATA #IMPLIED>
<!ATTLIST feDropShadow
  xmlns:svg CDATA #FIXED "http://www.w3.org/Graphics/SVG/1.1/DTD/svg11.dtd"
  flood-opacity CDATA #IMPLIED>
<!ATTLIST feDropShadow
  xmlns:svg CDATA #FIXED "http://www.w3.org/Graphics/SVG/1.1/DTD/svg11.dtd"
  in CDATA #IMPLIED>
<!ATTLIST feDropShadow
  xmlns:svg CDATA #FIXED "http://www.w3.org/Graphics/SVG/1.1/DTD/svg11.dtd"
  result CDATA #IMPLIED>
<!ATTLIST feDropShadow
  xmlns:svg CDATA #FIXED "http://www.w3.org/Graphics/SVG/1.1/DTD/svg11.dtd"
  flood-color CDATA #IMPLIED>
]
>
<!-- Created with Vectornator (http://vectornator.io/) -->
<svg height="100%" stroke-miterlimit="10" style="fill-rule:nonzero;clip-rule:evenodd;stroke-linecap:round;stroke-linejoin:round;" version="1.1" viewBox="0 0 320 320" width="100%" xml:space="preserve" xmlns="http://www.w3.org/2000/svg" xmlns:vectornator="http://vectornator.io" xmlns:xlink="http://www.w3.org/1999/xlink">
<defs>
<linearGradient gradientTransform="matrix(1.03795 0 0 0.878106 -7.99466 60.8923)" gradientUnits="userSpaceOnUse" id="LinearGradient" x1="161.853" x2="161.853" y1="37.6499" y2="339.285">
<stop offset="0" stop-color="#ffe7e7"/>
<stop offset="1" stop-color="#ffffff"/>
</linearGradient>
<filter color-interpolation-filters="sRGB" filterUnits="userSpaceOnUse" height="106.935" id="Filter" width="358.902" x="-2.45403" y="-2.81749">
<feDropShadow dx="-3.67321e-06" dy="1" flood-color="#000000" flood-opacity="0.630858" in="SourceGraphic" result="Shadow" stdDeviation="1.5"/>
</filter>
<clipPath id="TextBounds">
<rect height="109.452" width="421.181" x="-51.8624" y="19.0321"/>
</clipPath>
<clipPath id="TextBounds_2">
<rect height="204" width="229.26" x="45.9512" y="93.5301"/>
</clipPath>
<filter color-interpolation-filters="sRGB" filterUnits="userSpaceOnUse" height="150.576" id="Filter_2" width="81.3707" x="121.162" y="121.682">
<feDropShadow dx="-3.67321e-06" dy="1" flood-color="#ffffff" flood-opacity="0.630858" in="SourceGraphic" result="Shadow" stdDeviation="1.5"/>
</filter>
</defs>
<clipPath id="ArtboardFrame">
<rect height="320" width="320" x="0" y="0"/>
</clipPath>
<g clip-path="url(#ArtboardFrame)" id="Слой-1" vectornator:layerName="Слой 1">
<path d="M10.0725 68.34L309.03 68.34C314.791 68.34 319.461 72.291 319.461 77.1648L319.461 324.65C319.461 329.524 314.791 333.475 309.03 333.475L10.0725 333.475C4.31145 333.475-0.358764 329.524-0.358764 324.65L-0.358764 77.1648C-0.358764 72.291 4.31145 68.34 10.0725 68.34Z" fill="url(#LinearGradient)" fill-rule="evenodd" opacity="1" stroke="none"/>
<path d="M0.545977-0.817494L353.448-0.817494L353.448 100.117L0.545977 100.117L0.545977-0.817494Z" fill="#e34234" fill-rule="evenodd" filter="url(#Filter)" stroke="none" vectornator:shadowAngle="1.5708" vectornator:shadowColor="#000000" vectornator:shadowOffset="1" vectornator:shadowOpacity="0.630858" vectornator:shadowRadius="3"/>
<g fill="#ffffff" opacity="1" stroke="none">
<path clip-path="url(#TextBounds)" d="M94.352 52.0161L94.352 50.9761L83.38 50.9761L83.38 52.0161L85.46 52.0161C85.46 53.4721 85.408 55.1881 85.2 56.8521C84.992 58.5161 84.576 60.0761 83.9 61.2721C82.496 63.7161 80.364 65.7441 77.244 66.8361C77.244 63.2481 76.724 60.3361 76.152 57.4241C75.58 54.5121 75.06 51.6521 75.06 47.9601C75.06 44.2161 75.476 39.4841 76.516 35.6881C77.504 31.8921 79.064 29.0321 81.3 29.0321C82.392 29.0321 83.432 30.3321 84.212 32.2041C84.992 34.1281 85.46 36.6761 85.46 39.1721L83.38 39.1721L83.38 40.2121L94.352 40.2121L94.352 39.1721L92.272 39.1721C90.66 31.4241 86.188 27.9921 80.832 27.9921C77.088 27.9921 73.968 30.6441 71.732 34.4401C69.496 38.2361 68.248 43.2281 68.248 47.9601C68.248 50.9241 69.028 53.3161 70.068 55.3961C70.588 56.4881 71.16 57.4761 71.836 58.4121C73.084 60.3361 74.28 62.3121 75.268 64.4441C75.736 65.5361 76.1 66.7321 76.256 68.0321C82.08 68.0321 85.98 65.6921 89.1 61.7921C91.388 59.0361 92.012 55.8121 92.272 52.0161L94.352 52.0161Z" fill-rule="evenodd"/>
<path clip-path="url(#TextBounds)" d="M111.252 29.0321C111.252 28.6681 110.992 28.1481 109.952 28.1481C108.496 28.1481 108.028 28.4081 106.832 29.4481L106.156 30.3841L100.956 39.0161C100.592 39.7961 100.956 39.9001 101.528 39.9001L102.412 39.9001C102.672 39.9001 102.984 39.7961 103.244 39.5361L110.94 29.9681C111.148 29.6041 111.252 29.4481 111.252 29.0321ZM104.18 47.1281C104.336 46.3481 104.076 45.2041 103.296 45.2041C102.828 45.1521 102.256 45.1521 101.684 45.1521C101.112 45.2041 100.488 45.2041 99.916 45.2041C99.136 45.2041 98.668 45.8281 98.616 46.5041C98.408 49.6241 98.304 52.4321 98.304 56.3841C98.304 60.3881 98.304 63.7681 98.512 66.8361C98.512 67.7201 98.928 68.1361 99.708 68.1361C100.228 68.0841 100.748 68.0321 101.268 68.0321L103.14 68.0321C103.556 68.0321 103.92 67.6161 103.92 67.1481C103.92 65.1201 103.764 63.5601 103.608 61.9481C103.452 60.3361 103.348 58.7241 103.4 56.6441C103.452 52.9001 103.816 49.3641 104.18 47.1281Z" fill-rule="evenodd"/>
<path clip-path="url(#TextBounds)" d="M117.596 31.9961C117.752 31.8401 118.168 31.8921 118.168 32.0481C117.18 36.2081 117.856 38.8601 120.352 39.1201C121.808 39.2761 122.796 38.2881 123.316 36.8841C123.836 35.4801 123.888 33.7121 123.628 32.2561C123.628 32.0481 124.252 31.8921 124.46 32.2561C125.864 34.9601 125.812 37.4041 124.824 39.1721C123.836 40.9401 121.912 42.0321 119.572 41.9801C116.66 41.8241 115.256 39.3281 115.256 36.4681C115.256 35.8441 115.672 34.9081 116.14 34.0241C116.556 33.1921 117.18 32.4121 117.596 31.9961ZM127.528 47.1801C127.476 48.0641 127.476 48.8961 127.424 49.6761L127.268 51.9641C127.164 53.4721 127.06 55.0321 127.06 56.9561C127.06 58.8801 127.112 60.5961 127.216 62.1041C127.32 63.6121 127.424 65.2241 127.476 66.9401C127.528 67.9281 126.956 68.0321 126.332 68.0321C125.188 67.9281 124.096 67.9281 123.004 68.0321C122.172 68.1881 121.964 67.5121 121.912 66.8361C121.756 64.7561 121.652 63.2481 121.652 60.8041C121.652 60.2321 121.652 59.7121 121.704 59.2441L121.704 56.4881C121.704 56.0201 121.704 55.4481 121.652 54.8761C121.652 54.7721 121.652 54.6681 121.704 54.5121C121.756 54.3561 121.704 54.3041 121.6 54.3041L118.428 55.1881C117.284 55.5521 116.192 55.8121 115.1 55.9681C114.892 56.0201 114.788 56.1761 114.84 56.3841L114.84 57.0081C114.788 57.4761 114.788 57.8401 114.788 58.1521C114.736 58.4641 114.736 58.7761 114.736 59.0361C114.684 59.2961 114.684 59.6081 114.684 59.8681L114.684 60.9081C114.684 62.0001 114.736 62.9881 114.788 63.8201C114.84 64.6521 114.84 65.5881 114.788 66.5761C114.788 67.3561 114.892 68.1881 113.488 68.0321C112.916 67.9801 112.448 67.9281 112.084 67.9281C111.72 67.9281 111.252 67.9801 110.732 68.0321C110.056 68.1881 109.692 67.3041 109.692 66.7321C109.692 64.9121 109.692 63.2481 109.64 61.6881C109.588 60.1281 109.588 58.3601 109.64 56.3841C109.692 55.4481 109.692 54.6161 109.744 53.8361C109.796 53.1081 109.796 52.3801 109.848 51.7041C109.848 50.3001 109.9 49.0001 109.9 47.1281C109.9 46.5041 110.108 45.8281 110.888 45.7761C111.356 45.7241 111.928 45.6201 112.5 45.5681C113.072 45.5161 113.644 45.4121 114.112 45.3601C114.892 45.2041 115.1 45.9841 115.1 46.5561C115.1 47.3361 115.1 48.0121 115.048 48.5841C114.996 49.2081 114.996 49.7801 114.996 50.3521C114.944 50.9241 114.944 51.4441 114.892 52.0161C114.84 52.5881 114.84 53.1601 114.84 53.7841C114.84 53.8361 114.84 53.9401 114.788 53.9921C114.736 54.0441 114.788 54.0961 114.84 54.0961C115.932 53.9401 116.972 53.6801 118.012 53.3681C119.052 53.0561 120.144 52.7441 121.236 52.4841C121.496 52.4321 121.652 52.3281 121.652 52.2761C121.808 50.4561 121.912 49.3121 121.912 47.4401C121.912 46.6081 122.068 45.8281 123.108 45.7761C124.2 45.6201 125.396 45.4641 126.488 45.4641C127.372 45.3081 127.58 46.4001 127.528 47.1801Z" fill-rule="evenodd"/>
<path clip-path="url(#TextBounds)" d="M181.4 66.9921L181.4 27.9921L175.368 27.9921L175.368 38.3921C174.38 36.1041 172.404 35.0641 170.168 35.0641L169.648 35.0641C167.932 35.2201 166.528 36.9881 166.684 38.8081C166.84 40.6281 168.348 41.9281 170.168 41.7721C171.988 41.6161 173.288 40.1081 173.132 38.2881C173.08 38.1841 173.08 38.0801 173.08 37.9241L172.924 37.4561C173.912 37.8201 174.588 38.8081 174.588 40.0041C174.588 41.5121 173.288 42.8121 171.468 44.0601C170.532 44.6841 169.544 45.3081 168.452 45.9321C166.32 47.1801 164.136 48.7401 162.212 50.7681C160.288 52.8481 158.832 55.0321 158 57.1121C157.584 58.1521 157.376 59.1401 157.376 60.0241C157.376 62.7281 157.792 65.2761 158.26 66.9921L154.724 66.9921C154.464 66.9921 154.412 67.3041 154.62 67.8761C155.036 69.0721 156.076 70.8401 157.168 72.8161C157.74 73.8041 158.208 74.7401 158.572 75.5721C158.936 76.1441 159.04 76.1961 159.196 75.5721C159.56 74.3241 160.08 72.4001 160.704 70.8401C160.964 70.0601 161.276 69.4361 161.536 68.8641C161.796 68.2921 162.056 68.0321 162.212 68.0321L177.032 68.0321C177.136 68.0321 177.344 68.2921 177.656 68.8121C178.28 69.9041 179.008 71.4641 179.684 73.2321C180.048 74.1161 180.308 74.8961 180.516 75.5721C180.568 75.7281 180.672 75.8321 180.828 75.8321C180.984 75.8321 181.088 75.7281 181.14 75.5721C181.4 74.8441 181.712 74.0121 182.18 73.0241C183.012 71.1001 183.792 69.1761 184.208 67.9281C184.364 67.3041 184.364 66.9921 184.156 66.9921L181.4 66.9921ZM175.368 66.9921L164.76 66.9921C164.292 65.7441 163.98 64.7561 163.772 63.6641C163.564 62.6241 163.46 61.4801 163.46 60.0241C163.46 55.8121 165.072 52.3281 168.4 49.0001C168.972 48.4281 169.596 47.9081 170.272 47.3361C171.676 46.2961 173.028 45.1521 174.12 43.9041C174.692 43.3321 175.108 42.6561 175.368 41.9801L175.368 66.9921Z" fill-rule="evenodd"/>
<path clip-path="url(#TextBounds)" d="M204.332 29.0321C204.332 28.8761 204.228 28.6681 204.072 28.4601C203.916 28.2521 203.552 28.1481 202.98 28.1481C201.576 28.1481 201.056 28.4081 199.86 29.4481L199.236 30.3841L194.036 39.0161C193.62 39.7961 194.088 39.9001 194.556 39.9001L195.44 39.9001C195.752 39.9001 196.064 39.7961 196.324 39.5361L203.968 29.9681C204.228 29.6041 204.332 29.4481 204.332 29.0321ZM199.808 47.9601C199.808 47.4921 199.756 46.8161 199.496 46.3481C199.236 45.8801 198.716 45.5161 197.832 45.5161C194.764 45.5161 191.956 46.5041 190.136 48.1161C189.512 48.6881 188.94 49.6761 188.576 50.9761C188.16 52.2761 187.9 53.7841 187.9 55.2401C187.9 56.6441 188.056 57.6841 188.264 58.7761C188.472 59.8681 188.68 61.0641 188.732 62.7281C188.784 63.5081 188.68 64.2361 188.42 64.9121C187.952 66.3681 187.692 67.2521 188.524 67.6681C188.888 67.9281 189.304 68.0321 189.72 68.0321C191.436 68.0321 193.672 67.6681 195.544 67.0441C197.416 66.4721 198.82 65.7961 198.872 65.0161C198.924 63.1961 198.196 61.7921 196.376 62.7801C195.908 63.1961 194.088 63.6121 193.048 63.7681C192.84 63.7681 192.684 63.5081 192.684 63.3521C192.684 62.4681 193.1 61.2721 193.776 60.2321C194.452 59.2441 195.336 58.3601 196.532 58.1521L198.352 57.6841C199.548 57.4241 199.6 56.4361 199.652 55.7081C199.704 55.3441 199.704 54.8761 199.704 54.3041C199.704 53.7321 199.548 53.2121 198.352 53.6281C196.428 54.2521 194.712 54.8761 193.256 55.4481C192.684 55.6041 192.528 55.3961 192.528 55.1361C192.476 54.8761 192.632 54.4601 192.684 54.2521C192.736 53.3681 192.892 52.1721 193.308 51.2361C193.672 50.3001 194.296 49.6761 195.284 49.5201C196.48 49.3641 197.416 49.3121 198.508 49.2601C199.288 49.1041 199.808 48.6361 199.808 47.9601Z" fill-rule="evenodd"/>
<path clip-path="url(#TextBounds)" d="M223.26 67.4081C223.208 65.5361 223.052 63.7681 222.896 62.0521C222.74 60.3361 222.636 58.4121 222.584 56.2801C222.532 52.7961 222.636 49.4681 222.896 46.2441C222.948 45.2041 222.012 45.3601 221.648 45.3601C221.076 45.4121 220.504 45.4641 220.036 45.4641C218.996 45.5161 217.8 45.5681 217.8 46.6081C217.644 47.9081 217.592 49.0521 217.54 50.0401C217.488 51.0801 217.384 52.1721 217.28 53.2641C217.28 53.6801 217.28 54.1481 216.708 53.9921C214.472 53.2121 213.172 52.7441 211.144 51.7041C210.78 51.4961 210.52 51.2361 210.572 50.6121L210.832 48.4801C210.884 48.0121 210.936 47.3361 211.04 46.5561C211.196 45.9841 210.78 45.3081 210.364 45.3081C208.752 45.3081 207.816 45.4121 206.62 45.7761C206.1 45.8281 205.84 46.1401 205.84 46.7121C205.632 48.5321 205.528 49.4681 205.528 50.2481C205.476 50.6641 205.476 51.0281 205.424 51.3921C205.372 51.7561 205.372 52.1721 205.32 52.6921C205.112 54.9801 204.956 57.8401 204.852 60.5441C204.748 63.2481 204.644 65.7441 204.696 67.3561C204.696 67.6681 204.904 67.8761 205.268 67.9281C205.944 67.9801 206.568 68.0321 207.14 67.9801C207.712 67.9281 208.492 67.9281 209.48 67.9281C209.844 67.9281 210.104 67.7721 210.104 67.0961C210.104 65.8481 210.104 64.6001 210.052 63.4041C210 62.2081 209.948 61.0641 209.948 59.9721C209.948 58.9321 210 57.8921 210.052 56.9041C210.104 55.9161 210.208 54.8761 210.26 53.7841C210.26 53.3161 210.416 53.0561 210.78 53.1081C211.872 53.6801 212.704 54.0441 213.588 54.4081C214.42 54.7721 215.356 55.0841 216.604 55.5001C217.072 55.6561 217.28 55.9681 217.28 56.4361C217.436 58.1521 217.54 59.8681 217.696 61.5321C217.852 63.1961 217.956 64.8601 218.112 66.5241C218.164 67.3041 218.58 67.8761 219.256 67.9281C219.672 67.9801 220.192 68.0321 220.764 68.0321L222.792 68.0321C223.156 68.0321 223.26 67.6161 223.26 67.4081Z" fill-rule="evenodd"/>
<path clip-path="url(#TextBounds)" d="M248.22 67.5641C247.804 65.4321 247.388 63.6641 246.764 61.7921C246.088 59.9721 245.256 57.9961 244.06 55.3441C243.904 54.9801 243.592 54.7721 243.124 54.7721C242.24 54.7721 241.46 55.0841 240.212 55.6561C238.964 56.2281 237.56 56.9041 236.104 57.6841C235.376 58.0481 234.7 58.4641 234.024 58.8281C234.18 57.6321 234.284 56.2801 234.44 54.8241C234.7 51.9121 235.064 49.8321 235.532 48.4281C235.74 47.7521 235.844 46.9201 235.844 45.9841C235.844 45.5161 235.584 45.3081 235.116 45.3081C233.504 45.3081 231.736 45.4641 230.072 45.7241C229.812 45.7761 229.656 46.0361 229.604 46.5041C228.824 54.4601 228.616 61.0641 228.46 67.5641C228.46 67.7721 228.616 68.0321 228.876 68.0321L247.752 68.0321C248.116 68.0321 248.272 67.7721 248.22 67.5641ZM241.928 65.2761C241.928 65.9001 241.616 66.4721 240.836 66.4721L234.024 66.4721C233.4 66.4721 233.4 65.9001 233.4 65.6401C233.452 64.8601 233.504 64.0801 233.608 63.2481C233.712 62.4161 233.816 61.2721 233.972 59.8161C234.648 59.4001 235.688 58.9321 236.52 58.5681C237.352 58.2041 238.08 57.9961 238.34 57.9961C238.6 57.9961 238.912 57.9961 239.12 58.2561C240.836 60.8041 241.928 63.3521 241.928 65.2761Z" fill-rule="evenodd"/>
</g>
<g fill="#181818" filter="url(#Filter_2)" stroke="none" vectornator:shadowAngle="1.5708" vectornator:shadowColor="#ffffff" vectornator:shadowOffset="1" vectornator:shadowOpacity="0.630858" vectornator:shadowRadius="3">
<path clip-path="url(#TextBounds_2)" d="M196.653 225.058C197.661 223.906 196.365 222.178 195.789 221.458C194.637 220.45 193.629 219.586 192.909 218.866C191.325 217.57 190.461 216.418 189.453 215.122C188.877 214.546 188.157 213.826 187.437 212.962C185.133 210.226 182.541 206.482 180.957 203.746C179.949 202.018 179.229 200.434 176.781 201.154C170.445 202.45 167.565 204.466 162.381 207.778L156.765 210.946C153.309 212.962 150.141 214.69 146.685 216.274C144.957 217.138 143.085 218.002 140.925 218.866C138.765 219.874 138.189 218.146 137.901 215.842C137.757 214.69 137.613 213.394 137.757 211.954L137.757 208.354C137.757 205.906 138.621 200.578 140.349 195.394C142.077 190.354 144.669 185.17 147.693 182.722C154.749 176.962 159.789 176.818 163.101 177.25C168.717 177.826 171.165 180.274 172.749 184.162C178.653 183.154 184.557 183.586 189.597 184.018C191.181 184.162 192.045 183.154 192.477 180.85C190.173 176.386 187.149 173.794 183.405 171.922C181.533 170.914 179.517 170.194 177.357 169.474C175.197 168.754 172.893 167.89 170.445 167.17L170.157 167.026C169.869 166.882 169.581 166.882 169.437 166.882C160.797 168.034 153.597 169.474 146.109 175.378C139.629 180.418 135.021 185.17 131.709 190.354C128.253 195.682 126.093 201.874 124.365 209.362C123.789 211.522 124.509 217.138 125.661 222.754C126.813 228.37 128.253 233.986 129.261 236.29C132.285 243.634 135.885 250.546 140.925 257.89C143.805 262.066 146.253 264.946 148.413 266.242C150.429 267.538 151.869 268.258 152.733 268.258C154.461 268.258 157.629 267.682 160.797 266.818C163.965 265.954 167.133 264.802 169.437 263.65C174.189 260.914 177.501 258.178 181.101 255.298C182.829 254.002 182.541 251.266 181.245 250.258C179.517 249.538 177.933 249.826 176.493 251.122C174.621 252.274 173.325 253.138 172.173 254.002C171.021 254.866 170.013 255.586 168.285 256.594C167.133 257.17 165.117 257.746 163.245 257.746C161.373 257.89 159.357 257.602 158.637 256.594C153.453 250.402 148.557 243.058 144.525 234.85C141.645 229.09 142.365 227.218 143.517 224.914C144.669 222.754 148.701 221.17 152.157 219.586L157.053 217.426C159.933 216.13 162.525 215.266 163.677 215.122C165.837 214.69 167.709 215.986 169.581 218.002C171.309 220.018 172.893 222.898 174.477 225.346C175.485 226.354 176.781 225.922 178.365 225.778C184.125 224.626 188.301 225.058 193.485 226.21C194.781 226.354 195.933 225.922 196.653 225.058Z" fill-rule="evenodd"/>
<path clip-path="url(#TextBounds_2)" d="M198.813 141.97C199.245 141.97 199.533 141.538 199.533 140.818C199.533 139.954 199.245 139.522 198.813 139.522C198.669 139.522 198.381 139.378 198.093 139.234C197.661 139.09 197.229 139.09 196.797 139.09C195.645 139.234 195.213 137.938 195.069 136.93C194.925 136.354 194.925 135.634 194.925 134.626L194.925 125.986C194.925 124.978 194.781 124.258 193.773 123.826C192.477 123.682 190.893 123.682 188.733 123.682L183.837 123.682C183.261 123.682 182.829 124.546 182.829 125.122C182.829 125.842 182.829 126.706 182.973 127.714C182.973 129.73 183.117 131.89 183.117 133.762C183.117 135.49 183.117 136.642 182.829 137.794C182.685 138.514 182.253 138.802 181.677 138.802C175.917 138.802 168.717 138.658 161.805 138.37C154.893 138.082 148.413 137.65 143.805 136.498C142.221 136.066 141.501 138.514 143.661 140.098C144.093 140.53 144.237 140.962 144.093 141.682C143.949 142.402 143.805 142.978 143.805 143.554C143.805 145.57 143.949 147.298 144.093 148.594C144.237 149.89 144.237 151.042 144.093 151.762C144.093 152.482 144.525 152.914 145.245 152.914C147.693 153.346 153.021 153.49 155.181 153.058C155.613 152.914 155.901 152.482 155.901 151.906C155.757 150.466 155.613 148.882 155.613 147.154C155.613 145.426 155.757 143.986 155.901 142.978C155.901 142.258 156.189 141.97 156.909 141.97C162.669 142.114 170.589 142.258 178.509 142.258C186.141 142.258 193.773 142.114 198.813 141.97Z" fill-rule="evenodd"/>
</g>
</g>
</svg>
