<?xml version="1.0" encoding="UTF-8" standalone="no"?>
<!DOCTYPE svg PUBLIC "-//W3C//DTD SVG 1.1//EN" "http://www.w3.org/Graphics/SVG/1.1/DTD/svg11.dtd">
<!-- Created with Vectornator (http://vectornator.io/) -->
<svg height="100%" stroke-miterlimit="10" style="fill-rule:nonzero;clip-rule:evenodd;stroke-linecap:round;stroke-linejoin:round;" version="1.1" viewBox="0 0 482.936 495.296" width="100%" xml:space="preserve" xmlns="http://www.w3.org/2000/svg" xmlns:xlink="http://www.w3.org/1999/xlink">
<defs/>
<g id="layer1">
<path d="M39.2391 246.571C39.2391 130.989 129.431 37.2917 240.689 37.2917C351.947 37.2917 442.139 130.989 442.139 246.571C442.139 362.153 351.947 455.85 240.689 455.85C129.431 455.85 39.2391 362.153 39.2391 246.571Z" fill="#e4e4e4" fill-opacity="0" fill-rule="nonzero" opacity="1" stroke="#cdcdcd" stroke-dasharray="5.504080295562744" stroke-linecap="butt" stroke-linejoin="round" stroke-width="11.0082"/>
<g opacity="1">
<path d="M279.546 456.902C279.546 476.964 263.469 493.228 243.637 493.228C223.804 493.228 207.727 476.964 207.727 456.902C207.727 436.84 223.804 420.576 243.637 420.576C263.469 420.576 279.546 436.84 279.546 456.902Z" fill="#292121" fill-opacity="0.205418" fill-rule="nonzero" opacity="1" stroke="none"/>
<path d="M480.892 255.658C480.892 275.72 464.815 291.984 444.983 291.984C425.151 291.984 409.074 275.72 409.074 255.658C409.074 235.595 425.151 219.332 444.983 219.332C464.815 219.332 480.892 235.595 480.892 255.658Z" fill="#292121" fill-opacity="0.205418" fill-rule="nonzero" opacity="1" stroke="none"/>
<path d="M78.1996 253.218C78.1996 273.281 62.1224 289.545 42.2903 289.545C22.4582 289.545 6.38105 273.281 6.38105 253.218C6.38106 233.156 22.4582 216.892 42.2903 216.892C62.1224 216.892 78.1996 233.156 78.1996 253.218Z" fill="#292121" fill-opacity="0.205418" fill-rule="nonzero" opacity="1" stroke="none"/>
<path d="M111.958 151.986C111.958 172.049 95.8811 188.313 76.049 188.313C56.2168 188.313 40.1397 172.049 40.1397 151.986C40.1397 131.924 56.2168 115.66 76.049 115.66C95.8811 115.66 111.958 131.924 111.958 151.986Z" fill="#292121" fill-opacity="0.205418" fill-rule="nonzero" opacity="1" stroke="none"/>
<path d="M189.125 75.558C189.125 95.6204 173.047 111.884 153.215 111.884C133.383 111.884 117.306 95.6204 117.306 75.558C117.306 55.4957 133.383 39.2319 153.215 39.2319C173.047 39.2319 189.125 55.4957 189.125 75.558Z" fill="#292121" fill-opacity="0.205418" fill-rule="nonzero" opacity="1" stroke="none"/>
<path d="M373.588 84.905C373.588 104.967 357.511 121.231 337.678 121.231C317.846 121.231 301.769 104.967 301.769 84.905C301.769 64.8427 317.846 48.5789 337.678 48.5789C357.511 48.5789 373.588 64.8427 373.588 84.905Z" fill="#292121" fill-opacity="0.205418" fill-rule="nonzero" opacity="1" stroke="none"/>
<path d="M441.105 153.206C441.105 173.268 425.028 189.532 405.196 189.532C385.364 189.532 369.287 173.268 369.287 153.206C369.287 133.144 385.364 116.88 405.196 116.88C425.028 116.88 441.105 133.144 441.105 153.206Z" fill="#292121" fill-opacity="0.205418" fill-rule="nonzero" opacity="1" stroke="none"/>
<path d="M450.75 345.913C450.75 365.975 434.673 382.239 414.841 382.239C395.009 382.239 378.932 365.975 378.932 345.913C378.932 325.85 395.009 309.587 414.841 309.587C434.673 309.587 450.75 325.85 450.75 345.913Z" fill="#292121" fill-opacity="0.205418" fill-rule="nonzero" opacity="1" stroke="none"/>
<path d="M378.41 421.532C378.41 441.594 362.333 457.858 342.501 457.858C322.669 457.858 306.592 441.594 306.592 421.532C306.592 401.47 322.669 385.206 342.501 385.206C362.333 385.206 378.41 401.47 378.41 421.532Z" fill="#292121" fill-opacity="0.205418" fill-rule="nonzero" opacity="1" stroke="none"/>
<path d="M186.71 428.85C186.71 448.912 170.632 465.176 150.8 465.176C130.968 465.176 114.891 448.912 114.891 428.85C114.891 408.788 130.968 392.524 150.8 392.524C170.632 392.524 186.71 408.788 186.71 428.85Z" fill="#292121" fill-opacity="0.205418" fill-rule="nonzero" opacity="1" stroke="none"/>
<path d="M113.164 353.231C113.164 373.293 97.0867 389.557 77.2546 389.557C57.4225 389.557 41.3454 373.293 41.3454 353.231C41.3454 333.168 57.4225 316.905 77.2546 316.905C97.0867 316.905 113.164 333.168 113.164 353.231Z" fill="#292121" fill-opacity="0.205418" fill-rule="nonzero" opacity="1" stroke="none"/>
<path d="M281.957 50.7545C281.957 70.8168 265.88 87.0806 246.048 87.0806C226.216 87.0806 210.139 70.8168 210.139 50.7545C210.139 30.6921 226.216 14.4284 246.048 14.4283C265.88 14.4283 281.957 30.6921 281.957 50.7545Z" fill="#292121" fill-opacity="0.205418" fill-rule="nonzero" opacity="1" stroke="none"/>
</g>
<g opacity="1">
<path d="M284.769 37.5431C284.769 58.0008 268.185 74.5849 247.727 74.5849C227.269 74.5849 210.685 58.0008 210.685 37.5431C210.685 17.0855 227.269 0.501374 247.727 0.501371C268.185 0.501366 284.769 17.0855 284.769 37.5431Z" fill="#9e00ed" fill-rule="nonzero" opacity="1" stroke="#bfbfbf" stroke-linecap="butt" stroke-linejoin="miter" stroke-width="1.00274"/>
<path d="M282.281 451.692C282.281 472.15 265.697 488.734 245.24 488.734C224.782 488.734 208.198 472.15 208.198 451.692C208.198 431.235 224.782 414.651 245.24 414.651C265.697 414.651 282.281 431.235 282.281 451.692Z" fill="#ffffff" fill-rule="nonzero" opacity="1" stroke="#9e00ed" stroke-linecap="butt" stroke-linejoin="miter" stroke-width="1.00274"/>
<path d="M481.161 240.071C481.161 260.529 464.577 277.113 444.119 277.113C423.662 277.113 407.078 260.529 407.078 240.071C407.078 219.614 423.662 203.029 444.119 203.029C464.577 203.029 481.161 219.614 481.161 240.071Z" fill="#9e00ed" fill-rule="nonzero" opacity="1" stroke="#bfbfbf" stroke-linecap="butt" stroke-linejoin="miter" stroke-width="1.00274"/>
<path d="M74.5849 243.996C74.5849 264.454 58.0008 281.038 37.5431 281.038C17.0855 281.038 0.501371 264.454 0.501373 243.996C0.501376 223.538 17.0855 206.954 37.5431 206.954C58.0008 206.954 74.5849 223.538 74.5849 243.996Z" fill="#9e00ed" fill-rule="nonzero" opacity="1" stroke="#bfbfbf" stroke-linecap="butt" stroke-linejoin="miter" stroke-width="1.00274"/>
<path d="M109.408 140.77C109.408 161.227 92.8241 177.811 72.3665 177.811C51.9089 177.811 35.3247 161.227 35.3247 140.77C35.3247 120.312 51.9089 103.728 72.3665 103.728C92.8241 103.728 109.408 120.312 109.408 140.77Z" fill="#9e00ed" fill-rule="nonzero" opacity="1" stroke="#bfbfbf" stroke-linecap="butt" stroke-linejoin="miter" stroke-width="1.00274"/>
<path d="M186.406 66.3137C186.406 86.7713 169.822 103.355 149.364 103.355C128.907 103.355 112.323 86.7713 112.323 66.3137C112.323 45.8561 128.907 29.2719 149.364 29.2719C169.822 29.2719 186.406 45.8561 186.406 66.3137Z" fill="#9e00ed" fill-rule="nonzero" opacity="1" stroke="#bfbfbf" stroke-linecap="butt" stroke-linejoin="miter" stroke-width="1.00274"/>
<path d="M379.289 72.3665C379.289 92.8241 362.705 109.408 342.247 109.408C321.79 109.408 305.206 92.8241 305.206 72.3665C305.206 51.9089 321.79 35.3247 342.247 35.3247C362.705 35.3247 379.289 51.9089 379.289 72.3665Z" fill="#9e00ed" fill-rule="nonzero" opacity="1" stroke="#bfbfbf" stroke-linecap="butt" stroke-linejoin="miter" stroke-width="1"/>
<path d="M448.936 142.013C448.936 162.471 432.352 179.055 411.894 179.055C391.437 179.055 374.852 162.471 374.852 142.013C374.852 121.556 391.437 104.971 411.894 104.971C432.352 104.971 448.936 121.556 448.936 142.013Z" fill="#9e00ed" fill-rule="nonzero" opacity="1" stroke="#bfbfbf" stroke-linecap="butt" stroke-linejoin="miter" stroke-width="1.00274"/>
<path d="M458.886 338.516C458.886 358.974 442.301 375.558 421.844 375.558C401.386 375.558 384.802 358.974 384.802 338.516C384.802 318.059 401.386 301.475 421.844 301.475C442.301 301.475 458.886 318.059 458.886 338.516Z" fill="#9e00ed" fill-rule="nonzero" opacity="1" stroke="#bfbfbf" stroke-linecap="butt" stroke-linejoin="miter" stroke-width="1.00274"/>
<path d="M384.264 415.625C384.264 436.083 367.68 452.667 347.222 452.667C326.765 452.667 310.18 436.083 310.18 415.625C310.18 395.168 326.765 378.584 347.222 378.584C367.68 378.584 384.264 395.168 384.264 415.625Z" fill="#9e00ed" fill-rule="nonzero" opacity="1" stroke="#bfbfbf" stroke-linecap="butt" stroke-linejoin="miter" stroke-width="1.00274"/>
<path d="M186.517 423.087C186.517 443.545 169.933 460.129 149.475 460.129C129.018 460.129 112.434 443.545 112.434 423.087C112.434 402.63 129.018 386.046 149.475 386.046C169.933 386.046 186.517 402.63 186.517 423.087Z" fill="#9e00ed" fill-rule="nonzero" opacity="1" stroke="#bfbfbf" stroke-linecap="butt" stroke-linejoin="miter" stroke-width="1.00274"/>
<path d="M110.652 345.979C110.652 366.436 94.0678 383.02 73.6102 383.02C53.1526 383.02 36.5684 366.436 36.5684 345.979C36.5684 325.521 53.1526 308.937 73.6102 308.937C94.0678 308.937 110.652 325.521 110.652 345.979Z" fill="#9e00ed" fill-rule="nonzero" opacity="1" stroke="#bfbfbf" stroke-linecap="butt" stroke-linejoin="miter" stroke-width="1.00274"/>
</g>
<g opacity="1">
<g opacity="1">
<clipPath clip-rule="nonzero" id="ClipPath">
<path d="M196.031 109.3L305.466 109.3L305.466 109.3L305.466 380.3L305.466 380.3L196.031 380.3L196.031 380.3L196.031 109.3L196.031 109.3Z"/>
</clipPath>
<g clip-path="url(#ClipPath)">
<path d="M276.953 173.603C277.527 173.603 277.909 173.029 277.909 172.072C277.909 170.924 277.527 170.35 276.953 170.35C276.761 170.35 276.378 170.158 275.996 169.967C275.422 169.775 274.847 169.775 274.273 169.775C272.742 169.967 272.168 168.244 271.977 166.905C271.785 166.139 271.785 165.182 271.785 163.843L271.785 152.36C271.785 151.02 271.594 150.064 270.254 149.489C268.532 149.298 266.427 149.298 263.556 149.298L257.049 149.298C256.284 149.298 255.71 150.446 255.71 151.212C255.71 152.169 255.71 153.317 255.901 154.657C255.901 157.336 256.092 160.207 256.092 162.695C256.092 164.991 256.092 166.522 255.71 168.053C255.518 169.01 254.944 169.393 254.179 169.393C246.523 169.393 236.955 169.201 227.768 168.819C218.582 168.436 209.97 167.862 203.846 166.331C201.741 165.757 200.784 169.01 203.655 171.115C204.229 171.689 204.42 172.263 204.229 173.22C204.038 174.177 203.846 174.943 203.846 175.708C203.846 178.387 204.038 180.684 204.229 182.406C204.42 184.129 204.42 185.66 204.229 186.617C204.229 187.574 204.803 188.148 205.76 188.148C209.013 188.722 216.094 188.913 218.965 188.339C219.539 188.148 219.922 187.574 219.922 186.808C219.731 184.894 219.539 182.789 219.539 180.493C219.539 178.196 219.731 176.282 219.922 174.943C219.922 173.986 220.305 173.603 221.262 173.603C228.917 173.794 239.443 173.986 249.968 173.986C260.111 173.986 270.254 173.794 276.953 173.603Z" fill="#e34234" fill-rule="nonzero" opacity="1" stroke="none"/>
</g>
</g>
<g opacity="1">
<clipPath clip-rule="nonzero" id="ClipPath_2">
<path d="M179.896 97.2929L335.669 97.2929L335.669 97.2929L335.669 404.049L335.669 404.049L179.896 404.049L179.896 404.049L179.896 97.2929L179.896 97.2929Z"/>
</clipPath>
<g clip-path="url(#ClipPath_2)">
<path d="M275.326 251.972C274.492 249.581 272.823 249.581 270.876 249.581L248.625 249.581C246.678 249.581 245.009 249.581 246.4 248.059L282.28 213.716C285.339 210.89 281.445 208.282 278.108 208.282L204.679 208.282C202.454 208.282 200.785 208.499 199.95 208.716C197.725 209.586 197.447 210.89 197.725 211.977L197.725 213.716C197.725 213.716 197.725 215.02 198.003 217.411L198.003 226.975C198.003 230.67 198.003 234.8 198.282 239.147L198.282 251.32C198.282 260.666 197.725 271.752 196.891 280.881L196.056 292.402C195.778 295.445 195.5 296.966 195.5 296.966C195.222 301.096 198.838 303.27 203.01 303.27L292.849 303.27C297.021 303.27 298.968 300.009 297.021 295.662L275.326 251.972ZM233.049 252.189C231.936 253.276 229.711 254.363 228.321 254.58C226.93 254.798 225.539 254.798 225.817 253.276L227.486 217.846C228.321 216.107 230.268 214.585 234.44 214.585L263.366 214.585C266.426 214.585 271.154 215.672 268.651 218.063L233.049 252.189ZM269.763 295.445C270.876 296.966 268.929 296.966 266.982 296.966L225.817 296.966C224.427 296.966 223.036 296.532 223.314 295.01L224.427 271.752C225.261 269.144 228.042 265.666 229.433 264.144C233.883 259.58 235.552 258.058 238.612 255.667C240.559 253.276 245.009 253.928 246.4 254.58C247.79 254.798 251.684 256.319 252.519 257.841L269.763 295.445Z" fill="#e34234" fill-rule="nonzero" opacity="1" stroke="none"/>
</g>
</g>
</g>
<path d="M274.388 450.992C274.388 467.168 261.275 480.281 245.1 480.281C228.924 480.281 215.811 467.168 215.811 450.992C215.811 434.816 228.924 421.703 245.1 421.703C261.275 421.703 274.388 434.816 274.388 450.992Z" fill="#fff8f7" fill-rule="nonzero" opacity="1" stroke="none"/>
</g>
</svg>
