<?xml version="1.0" encoding="UTF-8" standalone="no"?>
<!-- Created with Inkscape (http://www.inkscape.org/) -->

<svg
   width="111.31245"
   height="111.17366"
   viewBox="0 0 38.711836 48.993863"
   version="1.1"
   id="svg69"
   inkscape:version="1.2 (dc2aeda, 2022-05-15)"
   sodipodi:docname="ins-template-512x512.svg"
   inkscape:export-filename="@.svg"
   inkscape:export-xdpi="96"
   inkscape:export-ydpi="96"
   xmlns:inkscape="http://www.inkscape.org/namespaces/inkscape"
   xmlns:sodipodi="http://sodipodi.sourceforge.net/DTD/sodipodi-0.dtd"
   xmlns="http://www.w3.org/2000/svg"
   xmlns:svg="http://www.w3.org/2000/svg"
   xmlns:rdf="http://www.w3.org/1999/02/22-rdf-syntax-ns#"
   xmlns:cc="http://creativecommons.org/ns#"
   xmlns:dc="http://purl.org/dc/elements/1.1/">
  <title
     id="title66">Aprakos email</title>
  <sodipodi:namedview
     id="namedview71"
     pagecolor="#fffafd"
     bordercolor="#000000"
     borderopacity="0.25"
     inkscape:showpageshadow="false"
     inkscape:pageopacity="1"
     inkscape:pagecheckerboard="false"
     inkscape:deskcolor="#d1d1d1"
     inkscape:document-units="px"
     showgrid="true"
     inkscape:zoom="0.371875"
     inkscape:cx="1055.4622"
     inkscape:cy="960"
     inkscape:window-width="1120"
     inkscape:window-height="875"
     inkscape:window-x="394"
     inkscape:window-y="99"
     inkscape:window-maximized="0"
     inkscape:current-layer="layer1"
     guidehicolor="#e0e0e0"
     guidehiopacity="0.49803922"
     showborder="true">
    <inkscape:grid
       type="xygrid"
       id="grid73"
       empspacing="4"
       originx="0"
       originy="0"
       dotted="false"
       color="#7d7d7d"
       opacity="0.14901961"
       empcolor="#d4d4d4"
       empopacity="0.30196078"
       spacingx="2.6458333"
       spacingy="2.6458333" />
  </sodipodi:namedview>
  <defs
     id="defs66" />
  <g
     inkscape:label="Слой 1"
     inkscape:groupmode="layer"
     id="layer1"
     transform="translate(-10.316388,-5.0459447)">
    <g
       aria-label="@"
       transform="scale(1.105966,0.90418691)"
       id="text1104"
       style="font-size:137.424px;font-family:Fontics;-inkscape-font-specification:'Fontics, Normal';fill:#6c5353;fill-rule:evenodd;stroke-width:5.61508">
      <path
         id="path3606"
         d="m 27.428755,5.5806436 v 0.3426533 h -0.571147 v 0.5138618 h 0.571147 V 6.8940293 H 26.001276 V 7.5218719 L 27.428755,7.487204 V 8.8497443 L 27.143181,8.6640499 V 9.120684 l 0.285574,0.1999405 V 10.535228 C 21.311667,19.106886 9.2166501,14.674839 9.328717,30.532367 9.4429119,46.976429 8.5294184,47.946904 22.004411,47.946904 c 1.256144,0 1.484621,9.53539 -0.74218,11.819286 1.998411,-1.14195 6.280676,-2.055592 7.822306,-3.368834 0.628072,-0.513878 2.055379,-8.45029 -0.171422,-9.420948 -14.616942,-0.0571 -14.616857,-0.05727 -14.616857,-16.215842 0,-11.36239 12.675653,-11.476479 13.303724,-18.385268 2.283898,8.22203 11.933322,6.908798 11.933322,17.186337 0,15.187915 0.0572,14.445615 -1.82701,15.187881 l -4.453666,1.313388 c 12.390145,0 10.905698,-8.4e-5 11.07699,-15.758973 C 44.443815,17.285716 35.308049,16.257799 30.39767,12.946148 29.359393,12.253964 28.535714,11.475922 27.999707,10.50127 V 9.7202674 l 0.28538,0.1997033 V 9.4061088 L 27.999707,9.2206534 V 7.4964637 l 1.541631,0.025408 V 6.8940302 H 27.999707 V 6.4371596 h 0.685105 V 5.9232978 H 27.999707 V 5.5806444 Z M 29.535903,19.56152 c -0.05342,-0.0016 -0.108888,9.41e-4 -0.165987,0.0081 -2.283896,0.22839 -4.168069,1.141972 -6.280674,1.884237 0.856462,0 1.884302,0.171246 2.854958,3.311605 -7.822348,12.218851 -7.936586,15.359266 -8.107879,17.414773 0,1.199049 0.970591,1.712886 2.740612,2.169666 2.854871,0.628071 4.910423,-1.655865 9.135633,-6.680439 l 1.827204,6.052356 c 0.285488,0.913558 0.856397,1.541587 1.712858,1.541587 l 5.024618,-1.370379 c -0.456779,0.0571 -0.970612,-0.285301 -1.141905,-0.856275 C 34.851443,37.098599 31.996377,23.908976 30.454747,20.597325 L 30.340595,20.197681 C 30.190715,19.798 29.909824,19.573239 29.535903,19.561529 Z m -2.906599,7.487797 2.51231,8.050812 c -0.91356,2.626482 -3.083327,5.138629 -4.967542,6.394772 -1.99841,0 -2.512223,-1.769827 -2.226736,-3.768237 0.22839,-1.541631 1.712902,-7.251501 4.681968,-10.677347 z"
         style="fill:#f55;stroke-width:2.33298" />
    </g>
  </g>
  <metadata
     id="metadata64">
    <rdf:RDF>
      <cc:Work
         rdf:about="">
        <dc:title>Шаблон 262144px</dc:title>
        <dc:date>2022</dc:date>
        <dc:creator>
          <cc:Agent>
            <dc:title>YSTM</dc:title>
          </cc:Agent>
        </dc:creator>
        <dc:rights>
          <cc:Agent>
            <dc:title>FREE</dc:title>
          </cc:Agent>
        </dc:rights>
        <dc:publisher>
          <cc:Agent>
            <dc:title>YSTM</dc:title>
          </cc:Agent>
        </dc:publisher>
        <dc:subject>
          <rdf:Bag>
            <rdf:li>YSTM</rdf:li>
          </rdf:Bag>
        </dc:subject>
      </cc:Work>
    </rdf:RDF>
  </metadata>
</svg>
