<?xml version="1.0" encoding="UTF-8" standalone="no"?>
<!-- Created with Pixodesk SVG (https://pixodesk.com) -->
<svg xmlns="http://www.w3.org/2000/svg" viewBox="0 0 512 512" text-rendering="geometricPrecision" shape-rendering="geometricPrecision" stroke-linecap="round" stroke-linejoin="round" stroke-miterlimit="10">
  <defs>
    <clippath>
      <rect x="104.661" y="4.4063" width="337.498" height="533"/>
    </clippath>
    <filter id="Filter" x="6.8312" y="5.507" width="493.92" height="494.072" filterUnits="userSpaceOnUse">
      <feDropShadow result="Shadow" dx="0" dy="1" stdDeviation="3" flood-color="#000000" flood-opacity="0.6309"/>
    </filter>
  </defs>
  <g id="Слой-1">
    <path fill="#ff0000" stroke="none" filter="url(#Filter)" d="M16.5183,11.171C16.5183,11.171,63.2057,10.1364,158.82,10.6501C205.966,10.9034,194.046,126.903,274.814,81.9023C344.339,43.1651,491.272,89.6314,491.272,89.6314L494.751,485.486L12.8312,492.579L16.5183,11.171z"/>
    <path fill="#4f1313" stroke="none" opacity="0.4847" d="M14.6218,177.418C14.6218,177.418,65.5113,285.132,157.592,174.558C258.757,53.0768,487.405,160.565,491.508,160.139C495.612,159.714,490.953,394.117,494.359,394.668C497.765,395.219,322.356,239.723,174.634,397.085C92.333,484.756,14.1294,367.589,14.1294,367.589L14.6218,177.418z"/>
    <path fill="#ffffff" stroke="none" d="M299.815,374.858L204.829,374.858L191.759,419.406L106.529,419.406L207.958,149.542L298.894,149.542L400.324,419.406L313.069,419.406L299.815,374.858zM282.327,316.504L252.506,219.493L222.869,316.504L282.327,316.504z"/>
  </g>
</svg>