<?xml version="1.0" encoding="UTF-8"?>
<!-- Created with EazyDraw for Mac ( https://www.eazydraw.com/ ) -->

<svg
    version="1.1"
    xmlns:dc="http://purl.org/dc/elements/1.1/"
    xmlns:cc="http://creativecommons.org/ns#"
    xmlns:rdf="http://www.w3.org/1999/02/22-rdf-syntax-ns#"
    xmlns:svg="http://www.w3.org/2000/svg"
    xmlns:xlink="http://www.w3.org/1999/xlink"
    xmlns="http://www.w3.org/2000/svg"
    width="610.574528998"
    height="313.798711445"
    viewBox="0, 0, 610.574528998, 313.798711445"
    preserveAspectRatio="none"
    id="svg2">
   <defs
       id="defs_B6F12790">
      <filter
          id="filter_B993D480"
          width="1.126570762637"
          height="1.328830933471"
          x="-0.026570762637"
          y="-0.1">
         <feGaussianBlur
             id="filter_B993D480_blur"
             in="SourceAlpha"
             stdDeviation="2.498059845722"
             result="blur"/>
         <feColorMatrix
             id="filter_B993D480_ColorMatrix"
             result="bluralpha"
             type="matrix"
             values="0 0 0 0 0      0 0 0 0 0      0 0 0 0 0      0 0 0 0.7 0"/>
         <feOffset
             id="filter_B993D480_Offset"
             in="bluralpha"
             dx="-0.62798391344"
             dy="13.4863637946"
             result="offsetBlur"/>
         <feMerge
             id="filter_B993D480_Merge">
            <feMergeNode id="filter_B993D480_MergeNode_a" in="offsetBlur"/>
            <feMergeNode id="filter_B993D480_MergeNode_b" in="SourceGraphic"/>
         </feMerge>
      </filter>
   </defs>
   <metadata
       id="metadata7">
      <rdf:RDF>
         <cc:Work
             rdf:about="">
            <dc:format>image/svg+xml</dc:format>
            <dc:type rdf:resource="http://purl.org/dc/dcmitype/StillImage"/>
            <dc:title></dc:title>
         </cc:Work>
      </rdf:RDF>
   </metadata>
   <g
       id="layer_Paper"
       style="fill:#000000;fill-opacity:1;stroke:#000000;stroke-opacity:1;fill-rule:nonzero;stroke-linecap:square;stroke-linejoin:miter;stroke-width:1;stroke-miterlimit:10">
      <ellipse
          style="fill:none;stroke:#424242;stroke-linecap:butt;stroke-width:4.246567726135;stroke-miterlimit:6;filter:url(#filter_B993D480)"
          id="B993D480"
          cx="305.915248413"
          cy="226.670552909"
          rx="293.86328125"
          ry="62.2178182755"/>
      <g id="DDA3E570_transform" transform="matrix(1,0.116136807715,0,1,0,-16.9410272152)">
         <path
             style="fill:#9437FF;fill-opacity:0.85972;stroke:#942193;stroke-linecap:butt;stroke-width:4.236615180969;stroke-miterlimit:6"
             id="31A3E570"
             d="M75.4785159721,52.9604882731 C132.786085004,62.9205908227 190.093654035,72.8806933724 247.401223067,82.8407959221 C252.327375133,83.6969651957 256.397357925,89.4792865351 255.541188651,94.4054386008 C246.303701887,147.555283975 237.066215123,200.705129349 227.828728358,253.854974723
C226.972559085,258.781126789 221.190237745,262.851109581 216.264085679,261.994940307 C158.956516648,252.034837757 101.648947616,242.074735208 44.3413785847,232.114632658 C39.4152265189,231.258463384 35.3452437268,225.476142045 36.2014130004,220.549989979
C45.4388997647,167.400144605 54.6763865291,114.250299231 63.9138732934,61.1004538573 C64.770042567,56.1743017916 70.5523639064,52.1043189994 75.4785159721,52.9604882731 z"/>
      </g>
      <text
          id="C251B280"
          style="fill:#FFFFFF;stroke:none"
          font-family=".AppleSystemUIFont"
          font-size="18"
          font-weight="bold"
          font-style="italic">
         <tspan x="96.9294062945" y="153.47771429">ПЕТЕЛЬКИ</tspan>
      </text>
      <g id="08BD2670_transform" transform="matrix(1,0.172678341902,0,1,0,-38.9924104063)">
         <path
             style="fill:#00F900;fill-opacity:0.78711;stroke:#FFFB00;stroke-linecap:butt;stroke-width:4.246567726135;stroke-miterlimit:6"
             id="C903D450"
             d="M138.559502087,53.7046877585 C196.726168754,53.7046877585 254.892835421,53.7046877585 313.059502087,53.7046877585 C318.059502087,53.7046877585 323.059502087,58.7046877585 323.059502087,63.7046877585 C323.059502087,117.651302342 323.059502087,171.597916925 323.059502087,225.544531508
C323.059502087,230.544531508 318.059502087,235.544531508 313.059502087,235.544531508 C254.892835421,235.544531508 196.726168754,235.544531508 138.559502087,235.544531508 C133.559502087,235.544531508 128.559502087,230.544531508 128.559502087,225.544531508
C128.559502087,171.597916925 128.559502087,117.651302342 128.559502087,63.7046877585 C128.559502087,58.7046877585 133.559502087,53.7046877585 138.559502087,53.7046877585 z"/>
      </g>
      <g id="69ECC370_transform" transform="matrix(0.693949912367,-0.765132560071,0.960175572724,0.429847413562,-60.6992214269,293.378871815)">
         <path
             style="fill:#424242;fill-opacity:0.87412;stroke:#C0C0C0;stroke-linecap:butt;stroke-width:4.246567726135;stroke-miterlimit:6"
             id="19D35370"
             d="M150.413840781,183.757212115 C177.90734643,132.498376211 205.40085208,81.2395403069 232.894357729,29.9807044029 C235.257696323,25.5745007435 242.027238577,23.5316356786 246.433442236,25.8949742731 C293.973396354,51.3937975303 341.513350471,76.8926207875 389.053304589,102.391444045
C393.459508248,104.754782639 395.502373313,111.524324893 393.139034719,115.930528552 C365.64552907,167.189364456 338.152023421,218.44820036 310.658517772,269.707036265 C308.295179177,274.113239924 301.525636923,276.156104989 297.119433264,273.792766394
C249.579479146,248.293943137 202.039525029,222.79511988 154.499570911,197.296296623 C150.093367252,194.932958028 148.050502187,188.163415774 150.413840781,183.757212115 z"/>
      </g>
      <text
          id="18DEAA70"
          style="fill:#FFFFFF;stroke:none"
          font-family=".AppleSystemUIFont"
          font-size="18"
          font-weight="bold"
          font-style="italic">
         <tspan x="248.410715094" y="156.343870334">TABS</tspan>
      </text>
      <g id="FCF99570_transform" transform="matrix(1,0.170516360234,0,1,0,-57.9380220811)">
         <path
             style="fill:#0096FF;fill-opacity:0.81515;stroke:#0096FF;stroke-linecap:butt;stroke-width:5.921401023865;stroke-miterlimit:6"
             id="6CF90370"
             d="M292.217274962,59.797577974 C333.516412681,69.0012125288 374.815550399,78.2048470837 416.114688118,87.4084816385 C419.664757263,88.19962501 422.423683036,92.5408375263 421.632539664,96.0909066712 C413.096638356,134.393749052 404.560737048,172.696591432 396.02483574,210.999433812
C395.233692368,214.549502957 390.892479852,217.308428731 387.342410707,216.517285359 C346.043272989,207.313650804 304.74413527,198.110016249 263.444997551,188.906381695 C259.894928407,188.115238323 257.136002633,183.774025807 257.927146005,180.223956662
C266.463047313,141.921114281 274.998948621,103.618271901 283.534849929,65.3154295207 C284.325993301,61.7653603759 288.667205817,59.0064346025 292.217274962,59.797577974 z"/>
      </g>
      <g id="7C9EE470_transform" transform="matrix(1,0,0.182362562814,1,-27.7864896248,0)">
         <path
             style="fill:#FF2F92;fill-opacity:0.88594;stroke:#00FDFF;stroke-linecap:butt;stroke-width:4.246567726135;stroke-miterlimit:6"
             id="6D8EE470"
             d="M323.123583267,71.4641903468 C380.946124533,65.146371686 438.7686658,58.8285530252 496.591207066,52.5107343645 C501.561626086,51.9676553965 507.075124074,56.3949954485 507.618203042,61.3654144686 C513.477657397,114.992870307 519.337111751,168.620326145 525.196566106,222.247781983
C525.739645074,227.218201003 521.312305022,232.731698991 516.341886002,233.274777959 C458.519344736,239.59259662 400.69680347,245.91041528 342.874262203,252.228233941 C337.903843183,252.771312909 332.390345195,248.343972857 331.847266227,243.373553837
C325.987811873,189.746097999 320.128357518,136.118642161 314.268903163,82.4911863228 C313.725824195,77.5207673027 318.153164247,72.0072693147 323.123583267,71.4641903468 z"/>
      </g>
      <text
          id="281FBB70"
          style="fill:#FFFFFF;stroke:none"
          font-family=".AppleSystemUIFont"
          font-size="18"
          font-weight="normal"
          font-style="italic">
         <tspan x="377.778144791" y="158.869484153">ВКЛАДКИ</tspan>
      </text>
      <g id="13034570_transform" transform="matrix(1,0.229775963077,0,1,0,-117.012308711)">
         <path
             style="fill:#424242;fill-opacity:0.88356;stroke:#FFD479;stroke-linecap:butt;stroke-width:6.022346019745;stroke-miterlimit:6"
             id="4D2E7270"
             d="M415.71233574,187.866621312 C426.869516812,143.771685234 438.026697885,99.6767491548 449.183878957,55.581813076 C450.409732329,50.7370475669 456.480351209,47.1181354289 461.325116718,48.3439888 C506.063498216,59.6639785234 550.801879714,70.9839682469 595.540261212,82.3039579703
C600.385026721,83.5298113414 604.003938859,89.6004302215 602.778085488,94.4451957306 C591.620904415,138.540131809 580.463723342,182.635067888 569.30654227,226.730003967 C568.080688899,231.574769476 562.010070019,235.193681614 557.16530451,233.967828243
C512.426923012,222.64783852 467.688541514,211.327848796 422.950160016,200.007859073 C418.105394507,198.782005702 414.486482369,192.711386821 415.71233574,187.866621312 z"/>
      </g>
   </g>
</svg>
