<?xml version="1.0" encoding="UTF-8" standalone="no"?>
<svg height="1.2rem" viewBox="0 0 483.62762 172.46475" version="1.1" id="svg1"  xmlns="http://www.w3.org/2000/svg" xmlns:svg="http://www.w3.org/2000/svg"> <defs id="defs1" /> <g id="layer1" transform="translate(-235.16663,-665.07428)"> <rect style="display:inline;fill:#ce727a;fill-opacity:1;fill-rule:evenodd;stroke:none;stroke-width:4;stroke-dasharray:none;stroke-opacity:1" id="rect1" width="483.62762" height="171.98334" x="-718.79425" y="665.30188" ry="31.038733" transform="scale(-1,1)" /> <g id="g37" transform="matrix(1,0,0,1.0519654,1.7396677,-37.838467)" style="stroke-width:0.974988"> <rect style="display:inline;fill:#fffafa;fill-opacity:1;fill-rule:evenodd;stroke:none;stroke-width:3.89997;stroke-dasharray:none;stroke-opacity:1" id="rect21" width="127.35595" height="145.47913" x="-388.12833" y="678.24323" ry="25.076527" transform="scale(-1,1)" /> <path d="m 323.83635,729.98932 c -2.77019,-1.84679 -5.07867,-4.00137 -6.46376,-6.61766 v -2.15458 l 0.76949,0.61559 v -1.38509 l -0.76949,-0.4617 v -4.61697 h 4.15527 v -1.69288 h -4.15527 v -1.2312 h 1.84679 v -1.38509 h -1.84679 v -0.92339 h -1.53899 v 0.92339 h -1.53899 v 1.38509 h 1.53899 v 1.2312 h -3.84748 v 1.69288 h 3.84748 v 3.53968 l -0.7695,-0.4617 v 1.2312 l 0.7695,0.46169 v 3.38578 c -16.46719,23.08485 -49.09378,11.08073 -48.78598,53.86465 0.30779,44.32292 -2.15459,46.9392 34.16557,46.9392 3.38578,0 8.15665,10.61903 2.15459,16.77499 5.38646,-3.07798 12.61972,-5.54036 16.77499,-9.08004 1.69289,-1.38509 5.69426,-7.69495 -0.3078,-10.31123 -39.39814,-0.1539 -39.39814,-0.1539 -39.39814,-43.70732 0,-30.6259 34.16558,-30.9337 35.85847,-49.55548 6.15596,22.16146 32.16489,18.62178 32.16489,46.3236 0,40.93713 0.1539,38.93645 -4.92477,40.93713 l -12.00412,3.53968 c 33.39608,0 29.39471,0 29.8564,-42.47612 0.3078,-35.08898 -24.31604,-37.85916 -37.55135,-46.7853 z m 16.62109,81.10477 c -6.15596,-16.00549 -13.85091,-51.55616 -18.00618,-60.4823 l -0.3078,-1.0773 c -0.4617,-1.23119 -1.38509,-1.84678 -2.61629,-1.69289 -6.15596,0.6156 -11.23462,3.07798 -16.92889,5.07867 2.30849,0 5.07867,0.4617 7.69495,8.92614 -21.08416,32.93439 -23.23874,32.011 -24.00824,46.9392 1.07729,3.07798 4.77087,4.61697 9.54174,5.84816 7.69495,1.69289 13.23531,-4.46307 24.62384,-18.00618 l 4.92477,16.31329 c 0.76949,2.46239 2.30848,4.15528 4.61697,4.15528 l 13.54311,-3.69358 c -1.23119,0.1539 -2.61628,-0.7695 -3.07798,-2.30849 z m -32.16489,-4.15527 c -8.00275,3.07798 -11.38853,-2.30848 -10.61903,-11.85022 0.61559,-9.84954 6.46375,-17.85229 14.4665,-27.08623 l 6.77156,21.69976 c -2.46239,7.07936 -5.54037,13.85091 -10.61903,17.23669 z" id="text2" style="font-size:153.899px;font-family:Evangeliecs;-inkscape-font-specification:Evangeliecs;opacity:0.987531;fill-rule:evenodd;stroke-width:11.6999;stroke-linecap:round;stroke-miterlimit:5.5;stroke-dashoffset:175.57;paint-order:stroke fill markers" transform="scale(1.0351893,0.96600687)" aria-label="@" /> </g> <rect style="display:inline;fill:#ffffff;fill-opacity:1;fill-rule:evenodd;stroke:none;stroke-width:4;stroke-dasharray:none;stroke-opacity:1" id="rect24" width="8.414712" height="171.98331" x="-690.39874" y="665.55573" ry="0" transform="scale(-1,1)" /> <rect style="display:inline;fill:#ffffff;fill-opacity:1;fill-rule:evenodd;stroke:none;stroke-width:4;stroke-dasharray:none;stroke-opacity:1" id="rect25" width="8.414712" height="171.98331" x="-671.29498" y="665.55573" ry="0" transform="scale(-1,1)" /> <rect style="display:inline;fill:#ffffff;fill-opacity:1;fill-rule:evenodd;stroke:none;stroke-width:4;stroke-dasharray:none;stroke-opacity:1" id="rect26" width="8.414712" height="171.98331" x="-650.19122" y="665.55573" ry="0" transform="scale(-1,1)" /> <rect style="display:inline;fill:#ffffff;fill-opacity:1;fill-rule:evenodd;stroke:none;stroke-width:4;stroke-dasharray:none;stroke-opacity:1" id="rect27" width="8.414712" height="171.98331" x="-629.08746" y="665.55573" ry="0" transform="scale(-1,1)" /> <rect style="display:inline;fill:#ffffff;fill-opacity:1;fill-rule:evenodd;stroke:none;stroke-width:4;stroke-dasharray:none;stroke-opacity:1" id="rect28" width="8.414712" height="171.98331" x="-607.9837" y="665.55573" ry="0" transform="scale(-1,1)" /> <rect style="display:inline;fill:#ffffff;fill-opacity:1;fill-rule:evenodd;stroke:none;stroke-width:4;stroke-dasharray:none;stroke-opacity:1" id="rect29" width="8.414712" height="171.98331" x="-584.79272" y="665.55573" ry="0" transform="scale(-1,1)" /> <rect style="display:inline;fill:#ffffff;fill-opacity:1;fill-rule:evenodd;stroke:none;stroke-width:4;stroke-dasharray:none;stroke-opacity:1" id="rect30" width="8.414712" height="171.98331" x="-561.60181" y="665.55573" ry="0" transform="scale(-1,1)" /> <rect style="display:inline;fill:#ffffff;fill-opacity:1;fill-rule:evenodd;stroke:none;stroke-width:4;stroke-dasharray:none;stroke-opacity:1" id="rect31" width="8.414712" height="171.98331" x="-536.73071" y="665.07428" ry="0" transform="scale(-1,1)" /> <rect style="display:inline;fill:#ffffff;fill-opacity:1;fill-rule:evenodd;stroke:none;stroke-width:4;stroke-dasharray:none;stroke-opacity:1" id="rect32" width="8.414712" height="171.98331" x="-509.55414" y="665.55573" ry="0" transform="scale(-1,1)" /> <rect style="display:inline;fill:#ffffff;fill-opacity:1;fill-rule:evenodd;stroke:none;stroke-width:4;stroke-dasharray:none;stroke-opacity:1" id="rect33" width="8.414712" height="171.98331" x="-482.11578" y="665.11505" ry="0" transform="scale(-1,1)" /> <rect style="display:inline;fill:#ffffff;fill-opacity:1;fill-rule:evenodd;stroke:none;stroke-width:4;stroke-dasharray:none;stroke-opacity:1" id="rect34" width="8.414712" height="171.98331" x="-451.02756" y="665.1969" ry="0" transform="scale(-1,1)" /> <rect style="display:inline;fill:#ffffff;fill-opacity:1;fill-rule:evenodd;stroke:none;stroke-width:4;stroke-dasharray:none;stroke-opacity:1" id="rect35" width="8.414712" height="171.98331" x="-420.87054" y="665.55573" ry="0" transform="scale(-1,1)" /> </g> </svg>