<?xml version="1.0" encoding="UTF-8" standalone="no"?>
<!-- Created with Pixodesk SVG (https://pixodesk.com) -->
<svg xmlns="http://www.w3.org/2000/svg" viewBox="0 0 24 24" text-rendering="geometricPrecision" shape-rendering="geometricPrecision" fill="#000000" stroke="#000000">
  <path fill="#000000" stroke="none" transform="translate(12, 12.1578)translate(-11.0733, -2.1027)" d="M20.6691,0L20.6691,13.5888L1.4775,13.5888L1.4775,0L4.6086,0C4.6086,0,4.6086,-2.7457,4.6086,-2.7458C4.6086,-6.4116,7.5803,-9.3834,11.2461,-9.3834C14.9913,-9.3834,17.963,-6.4116,17.963,-2.7458C17.963,-2.7457,17.963,0,17.963,0L20.6691,0zM12.276,4.1404L9.8706,4.1404L9.8706,11.6853L12.276,11.6853L12.276,4.1404zM15.481,0C15.481,0,15.481,-2.7306,15.481,-2.7306C15.481,-5.0476,13.6027,-6.9258,11.2858,-6.9258C8.9689,-6.9258,7.0906,-5.0476,7.0906,-2.7306C7.0906,-2.7306,7.0906,0,7.0906,0L15.481,0z" data-px-corners="[0,5]=6.6375|[0,6]=6.6375|[2,1]=6.6375|[2,2]=6.6375" data-px-src-d="M20.6691,0L20.6691,13.5888L1.4775,13.5888L1.4775,0L4.6086,0L4.6086,-9.3834L17.963,-9.3834L17.963,0L20.6691,0zM12.276,4.1404L9.8706,4.1404L9.8706,11.6853L12.276,11.6853L12.276,4.1404zM15.481,0L15.481,-6.9258L7.0906,-6.9258L7.0906,0L15.481,0z"/>
  <rect fill="#000000" stroke="none" transform="translate(12.1739, 13.4943)translate(-1.8084, -0.3083)" width="3.6168" height="0.6166"/>
  <rect fill="#000000" stroke="none" transform="translate(11.9653, 19.4085)translate(-1.8084, -0.3083)" width="3.6168" height="0.6166"/>
  <rect fill="#000000" stroke="none" transform="translate(11.837, 16.7183)translate(-1.8084, -0.3083)" width="3.6168" height="0.6166"/>
</svg>