<?xml version="1.0" encoding="UTF-8" standalone="no"?>
<svg height="77%" stroke-miterlimit="10" style="fill-rule:nonzero;clip-rule:evenodd;stroke-linecap:round;stroke-linejoin:round;" version="1.1" viewBox="0 0 800 222" width="77%" xml:space="preserve" xmlns="http://www.w3.org/2000/svg" xmlns:vectornator="http://vectornator.io" xmlns:xlink="http://www.w3.org/1999/xlink">
<defs>
<filter color-interpolation-filters="sRGB" filterUnits="userSpaceOnUse" height="102.195" id="Filter" width="503.978" x="231.289" y="92.2006">
<feDropShadow dx="-3.61999e-06" dy="1" flood-color="#000000" flood-opacity="0.630858" in="SourceGraphic" result="Shadow" stdDeviation="1.5"/>
</filter>
<filter color-interpolation-filters="sRGB" filterUnits="userSpaceOnUse" height="138.511" id="Filter_2" width="227.811" x="24.4918" y="5.65071">
<feDropShadow dx="-3.61999e-06" dy="1" flood-color="#000000" flood-opacity="0.630858" in="SourceGraphic" result="Shadow" stdDeviation="1.5"/>
</filter>
<filter color-interpolation-filters="sRGB" filterUnits="userSpaceOnUse" height="10.3982" id="Filter_3" width="28.1114" x="764.279" y="124.214">
<feDropShadow dx="-3.61999e-06" dy="1" flood-color="#000000" flood-opacity="0.630858" in="SourceGraphic" result="Shadow" stdDeviation="1.5"/>
</filter>
<filter color-interpolation-filters="sRGB" filterUnits="userSpaceOnUse" height="10.4419" id="Filter_4" width="29.459" x="763.26" y="150.677">
<feDropShadow dx="-3.61999e-06" dy="1" flood-color="#000000" flood-opacity="0.630858" in="SourceGraphic" result="Shadow" stdDeviation="1.5"/>
</filter>
<filter color-interpolation-filters="sRGB" filterUnits="userSpaceOnUse" height="80.1285" id="Filter_5" width="269.481" x="9.35038" y="133.358">
<feDropShadow dx="-2.53399e-05" dy="7" flood-color="#000000" flood-opacity="0.630858" in="SourceGraphic" result="Shadow" stdDeviation="3.5"/>
</filter>
<clipPath id="TextBounds">
<rect height="59.792" width="327.81" x="-26.6005" y="58.5799"/>
</clipPath>
<filter color-interpolation-filters="sRGB" filterUnits="userSpaceOnUse" height="49.4427" id="Filter_6" width="49.8069" x="720.037" y="115.928">
<feDropShadow dx="-3.61999e-06" dy="1" flood-color="#000000" flood-opacity="0.630858" in="SourceGraphic" result="Shadow" stdDeviation="1.5"/>
</filter>
<filter color-interpolation-filters="sRGB" filterUnits="userSpaceOnUse" height="65.5781" id="Filter_7" width="14.7268" x="756.392" y="109.286">
<feDropShadow dx="-3.61999e-06" dy="1" flood-color="#000000" flood-opacity="0.630858" in="SourceGraphic" result="Shadow" stdDeviation="1.5"/>
</filter>
</defs>
<g id="Слой-1" vectornator:layerName="Слой 1">
<g filter="url(#Filter)" vectornator:shadowAngle="1.5708" vectornator:shadowColor="#000000" vectornator:shadowOffset="1" vectornator:shadowOpacity="0.630858" vectornator:shadowRadius="3">
<path d="M424.719 95.9062C424.337 96.0083 424.241 96.5954 424.156 96.9062C423.97 97.5905 423.885 98.3737 423.531 99C422.695 100.479 421.771 101.89 421 103.406C420.088 105.201 419.282 107.063 418.406 108.875C415.263 115.378 411.875 121.785 408.25 128.031C407.431 129.443 406.585 130.844 405.812 132.281C405.251 133.327 404.747 134.4 404.062 135.375C403.417 136.295 402.591 137.128 401.781 137.906C401.506 138.171 401.154 138.338 400.844 138.562C399.858 137.801 398.852 137.101 397.75 136.531C396.455 135.861 395.623 136.547 394.844 137.469C394.836 136.351 394.957 135.199 394.344 134.219C393.826 133.39 393.089 132.602 392.375 132C391.243 131.045 390.059 130.159 388.844 129.312C388.152 128.83 387.19 128.338 386.312 128.219C382.881 127.754 381.385 130.865 379.125 132.719C378.456 133.268 377.7 133.742 377 134.25C376.229 134.809 375.47 135.37 374.625 135.812C373.718 136.287 372.745 136.642 371.812 137.062C371.077 137.394 370.331 137.633 369.594 137.875C369.251 137.261 368.951 136.621 368.656 136C368.108 134.844 368.179 133.515 367.656 132.344C366.789 130.401 364.622 128.7 363 127.5C362.261 126.953 361.51 126.406 360.719 125.938C360.271 125.673 359.773 125.45 359.281 125.281C359.129 125.229 358.971 125.253 358.812 125.281C358.182 125.393 357.902 127.057 357.719 127.562C357.429 128.363 356.808 129.048 356.344 129.75C355.537 130.968 354.748 132.202 353.969 133.438C352.053 136.476 350.254 139.577 348.688 142.812C347.097 146.097 345.651 149.433 344 152.688C343.645 150.282 343.279 147.865 342.875 145.469C341.456 137.048 339.582 128.721 338.281 120.281C337.959 118.193 337.904 116.062 337.625 113.969C337.469 112.798 337.126 111.715 336.906 110.562C336.804 110.024 336.824 109.471 336.688 108.938C336.532 108.331 336.183 107.766 335.75 107.312C335.109 106.641 334.46 105.974 333.75 105.375C332.913 104.669 332.024 104.031 331.125 103.406C330.694 103.107 330.243 102.843 329.781 102.594C329.274 102.32 328.566 102.063 327.969 102.125C327.52 102.171 327.314 102.496 327.25 102.906C327.156 103.51 327.313 104.15 327.188 104.75C327.039 105.464 326.542 106.242 326.25 106.906C326.106 107.234 325.957 107.579 325.812 107.906C325.523 108.561 325.261 109.221 324.969 109.875C323.427 113.327 321.891 116.798 320.031 120.094C317.756 124.126 315.023 127.924 312.469 131.781C311.008 133.988 309.488 136.169 308.344 138.562C307.156 141.047 306.237 143.699 304.5 145.875C303.803 146.748 302.91 147.497 301.969 148.156C301.845 147.61 301.622 147.082 301.531 146.531C300.914 142.8 301.16 138.955 300.438 135.25C300.228 134.175 300.71 133.062 299.906 132.125C299.389 131.522 298.882 130.895 298.281 130.375C297.206 129.445 296.068 128.601 294.906 127.781C294.454 127.462 293.931 127.219 293.438 126.969C292.911 126.702 292.081 126.492 291.531 126.812C290.689 127.304 291.224 128.919 290.969 129.719C290.801 130.243 290.601 130.755 290.438 131.281C289.86 133.141 289.425 135.056 288.719 136.875C288.334 137.866 287.808 138.752 287.375 139.719C286.779 141.051 286.295 142.178 284.688 142.406C283.54 142.569 282.357 142.225 281.219 142.094C279.861 141.938 278.457 141.983 277.094 141.938C271.47 141.751 265.841 141.644 260.219 141.938C257.812 142.063 255.272 142.166 252.938 142.812C252.023 143.066 251.149 143.482 250.25 143.781C249.292 144.1 248.298 144.316 247.312 144.531C243.382 145.389 239.355 145.845 235.375 146.406C235.116 146.718 236.464 148.257 238.375 149.844C240.286 151.431 242.054 152.468 242.312 152.156C246.306 151.593 250.306 151.111 254.25 150.25C255.251 150.031 256.276 149.823 257.25 149.5C258.795 148.987 260.184 148.401 261.812 148.156C266.232 147.492 270.729 147.518 275.188 147.5C279.133 147.484 283.089 147.628 287.031 147.781C288.912 147.854 291.076 148.708 292.844 147.75C293.994 147.127 294.261 145.832 294.812 144.75C294.963 144.454 295.052 144.142 295.188 143.844C295.471 144.906 295.621 145.988 296.062 147.031C296.437 147.915 296.439 148.888 297.094 149.656C298.645 151.474 300.599 152.95 302.562 154.312C303.352 154.86 304.335 155.267 305.312 155.312C306.51 155.368 307.617 154.823 308.594 154.188C310.572 152.899 312.047 151.192 313.188 149.125C313.532 148.501 313.886 147.771 314.188 147.125C314.646 146.141 315.063 145.136 315.531 144.156C316.107 142.952 316.792 141.853 317.5 140.719C320.651 135.67 324.26 130.876 327.188 125.688C328.347 123.632 329.353 121.515 330.344 119.375C330.765 118.464 331.173 117.539 331.594 116.625C331.974 119.028 332.241 121.442 332.688 123.844C333.605 128.782 334.568 133.709 335.438 138.656C336.204 143.021 336.776 147.405 337.469 151.781C337.797 153.854 338.283 155.905 338.656 157.969C338.827 158.914 338.394 159.897 338.562 160.844C338.582 160.954 338.599 161.06 338.656 161.156C338.859 161.494 339.043 161.87 339.344 162.125C341.135 163.641 342.999 165.07 344.906 166.438C345.156 166.616 345.637 166.789 346 166.719C346.711 166.582 347.666 165.386 348.031 164.812C348.64 163.857 348.994 162.753 349.438 161.719C349.811 160.846 350.278 160.028 350.719 159.188C350.986 158.678 351.275 158.171 351.531 157.656C353.561 153.579 355.26 149.333 357.406 145.312C359.256 141.847 361.464 138.63 363.594 135.344C363.745 136.17 363.787 137.028 364.219 137.781C364.66 138.552 365.385 139.349 366 139.906C366.825 140.654 367.704 141.362 368.594 142.031C369.829 142.96 371.264 143.924 372.844 144.156C374.94 144.465 376.973 143.623 378.844 142.781C379.783 142.358 380.775 141.978 381.688 141.5C382.825 140.905 383.802 140.117 384.844 139.375C385.221 139.106 385.843 138.714 386.219 138.406C387.086 137.695 387.822 136.86 388.594 136.062C388.765 136.589 388.97 137.113 389.062 137.625C389.253 138.68 388.874 139.875 389.656 140.781C390.313 141.542 390.941 142.332 391.719 142.969C393.087 144.091 394.581 145.095 396.062 146.062C396.371 146.264 397.031 146.482 397.469 146.562C398.848 146.817 399.618 145.443 400.438 144.594C400.834 144.183 401.314 143.875 401.688 143.438C401.721 143.399 401.78 143.384 401.812 143.344C402.064 143.529 402.276 143.759 402.531 143.938C403.716 144.767 404.921 145.477 406.375 145.125C407.688 144.807 408.662 143.823 409.562 142.875C410.141 142.265 410.734 141.691 411.219 141C411.908 140.017 412.402 138.93 412.969 137.875C413.536 136.819 414.148 135.787 414.75 134.75C417.749 129.582 420.641 124.33 423.344 119C425.102 115.533 426.685 111.956 428.531 108.531C428.767 109.35 428.983 110.182 429.219 111C432.677 122.987 435.604 135.121 437.25 147.5C437.89 152.316 438.545 157.153 439.188 161.969C439.318 162.945 438.394 164.409 438.938 165.281C439.166 165.648 439.365 166.056 439.688 166.344C441.143 167.646 442.677 168.872 444.25 170.031C444.733 170.387 445.298 170.626 445.844 170.875C446.213 171.043 446.654 170.975 447.031 170.875C448.9 170.382 448.46 168.259 449.281 166.938C449.888 165.961 450.551 165.02 451.188 164.062C451.614 163.421 452.042 162.766 452.469 162.125C452.886 161.497 453.304 160.88 453.719 160.25C456.165 156.532 458.567 152.789 461.094 149.125C461.989 147.826 462.907 146.55 463.844 145.281C464.366 144.574 464.892 143.897 465.312 143.125C465.995 141.871 466.653 140.603 467.531 139.5C467.778 139.991 468.112 140.505 468.469 140.875C469.063 141.491 469.685 142.078 470.344 142.625C471.225 143.358 472.152 144.035 473.094 144.688C474.037 145.34 475.13 145.932 476.281 146.125C478.886 146.561 481.044 144.578 483.25 143.562C484.807 142.846 486.465 142.339 488.062 141.719C490.503 140.771 492.921 139.787 495.375 138.875C495.988 138.647 496.601 138.444 497.188 138.156C497.708 137.9 498.251 137.594 498.812 137.344C500.079 138.335 501.33 139.341 502.656 140.25C503.042 140.515 503.528 140.625 503.969 140.781C504.814 141.081 505.835 141.086 506.719 141.031C508.129 140.944 509.35 140.719 510.562 140.281C511.237 141.28 512.008 142.209 512.938 142.969C514.115 143.932 515.357 144.816 516.625 145.656C517.143 145.999 517.894 146.372 518.562 146.438C519.483 146.527 520.53 146.062 521.312 145.625C522.922 144.726 524.267 143.285 525.688 142.125C526.324 141.606 526.971 141.067 527.594 140.531C529.735 138.69 531.805 136.764 533.875 134.844C535.996 132.876 538.093 130.901 540.031 128.75C542.369 126.155 544.496 123.39 546.5 120.531C546.823 120.071 547.104 119.594 547.406 119.125C547.944 123.695 548.546 128.238 549.312 132.781C551.113 143.449 553.112 154.086 554.938 164.75C555.487 167.959 556.058 171.154 556.531 174.375C556.666 175.295 556.802 176.237 556.938 177.156C557.013 177.668 557.157 178.17 557.156 178.688C557.154 179.981 556.181 181.112 556.219 182.406C556.229 182.765 556.405 183.254 556.656 183.5C557.897 184.717 559.159 185.934 560.531 187C561.353 187.638 562.302 188.07 563.219 188.562C563.43 188.676 563.779 188.727 564.031 188.719C567.017 188.627 567.158 185.836 568.219 183.781C568.986 182.295 570.041 180.955 570.875 179.5C572.605 176.483 574.142 173.35 575.719 170.25C582.084 157.735 588.03 144.989 594.75 132.656C596.004 130.355 597.249 127.997 598.75 125.844C599.419 124.884 600.183 123.952 600.938 123.031C601.076 123.697 601.211 124.368 601.344 125.031C601.936 127.982 602.569 130.899 603.188 133.844C603.453 135.11 603.761 136.405 603.938 137.688C604.372 140.85 603.922 144.136 605.625 147C605.78 147.26 606.245 147.987 606.438 148.188C607.171 148.954 607.888 149.746 608.719 150.406C609.929 151.368 611.224 152.206 612.531 153.031C612.864 153.241 613.402 153.39 613.812 153.312C614.795 153.127 615.654 152.052 616.312 151.406C616.813 150.915 617.361 150.476 617.875 150C618.526 149.396 619.054 148.712 619.656 148.062C620.03 147.659 620.39 147.309 620.688 146.844C620.762 146.727 620.835 146.593 620.906 146.469C620.992 146.528 621.067 146.603 621.156 146.656C622.243 147.309 623.335 147.968 624.438 148.594C624.537 148.65 624.638 148.665 624.75 148.688C626.483 149.032 627.996 147.955 629.312 146.969C630.003 146.452 630.76 146.009 631.406 145.438C632.325 144.625 632.983 143.557 633.875 142.719C634.716 141.928 635.682 141.179 636.594 140.469C636.873 140.252 637.23 140.154 637.531 139.969C638.355 140.574 639.139 141.217 639.969 141.812C640.2 141.978 640.515 142.057 640.781 142.156C641.873 142.564 643.076 142.527 644.219 142.531C645.391 142.535 646.578 142.544 647.75 142.531C652.751 142.476 657.747 142.128 662.75 142.25C667.055 142.355 671.351 142.784 675.656 142.906C684.9 143.169 694.13 143.229 703.375 143.438C712.619 143.646 721.859 143.994 731.094 144.438C731.352 144.133 730.053 142.587 728.188 141C726.322 139.413 724.602 138.383 724.344 138.688C712.357 138.111 700.374 137.755 688.375 137.531C680.713 137.388 672.996 137.461 665.344 137.031C661.819 136.833 658.313 136.502 654.781 136.469C651.54 136.438 648.301 136.585 645.062 136.688C642.884 136.757 640.711 136.792 638.531 136.781C637.378 135.83 636.241 134.877 635.031 134C634.628 133.708 633.968 133.384 633.406 133.312C632.005 133.134 630.555 133.992 629.5 134.812C628.582 135.527 627.628 136.267 626.781 137.062C625.777 138.007 625.04 139.216 623.938 140.062C623.313 140.542 622.604 140.966 621.938 141.438C621.22 140.826 620.535 140.19 619.781 139.625C619.157 139.157 618.415 138.821 617.719 138.469C617.361 138.288 616.872 138.211 616.469 138.219C614.678 138.253 614.183 140.435 613.281 141.594C612.667 142.383 611.904 143.027 611.188 143.719C611.166 143.49 611.188 143.259 611.156 143.031C610.91 141.237 610.437 139.458 610.062 137.688C609.135 133.303 608.042 128.907 607.406 124.469C607.092 122.275 607.681 119.999 607.062 117.844C606.932 117.39 606.695 116.575 606.344 116.25C604.705 114.735 603.103 113.177 601.312 111.844C600.691 111.381 599.921 111.157 599.188 110.906C598.95 110.825 598.439 111.603 598.344 111.75C597.641 112.834 597.151 113.58 596.25 114.562C595.956 114.883 595.667 115.178 595.375 115.5C594.039 116.971 592.732 118.587 591.594 120.219C589.484 123.244 587.802 126.615 586.094 129.875C578.951 143.503 572.368 157.391 565.25 171.031C564.526 172.42 563.746 173.784 562.938 175.125C562.07 169.811 561.2 164.516 560.25 159.219C558.409 148.96 556.432 138.692 554.938 128.375C554.424 124.831 554.152 121.279 553.781 117.719C553.652 116.481 553.326 115.149 553.344 113.906C553.359 112.882 553.889 111.678 553.125 110.781C552.675 110.253 552.251 109.696 551.719 109.25C550.388 108.135 548.99 107.114 547.562 106.125C547.12 105.818 546.358 105.463 545.75 105.469C543.633 105.488 543.801 107.38 543.156 108.781C542.86 109.424 542.417 110.013 542.062 110.625C540.966 112.518 539.782 114.318 538.5 116.094C536.447 118.937 534.248 121.695 531.844 124.25C530.218 125.978 528.488 127.575 526.75 129.188C524.682 131.105 522.607 133.036 520.469 134.875C519.401 135.793 518.293 136.653 517.219 137.562C516.429 138.231 515.67 138.931 514.844 139.5C513.753 137.939 512.099 136.575 510.688 135.531C510.144 135.129 509.582 134.719 509 134.375C508.371 134.003 507.341 133.409 506.5 133.406C505.476 133.403 504.567 134.338 503.656 134.719C502.815 135.07 501.798 135.097 500.906 135.188C500.577 135.221 500.238 135.201 499.906 135.219C499.089 134.482 498.294 133.709 497.406 133.062C496.298 132.255 494.768 131.176 493.281 131.219C491.881 131.259 490.672 132.3 489.406 132.781C485.908 134.11 482.433 135.476 478.938 136.812C477.799 137.248 476.643 137.617 475.562 138.188C474.7 138.643 473.868 139.148 473 139.594C472.96 139.531 472.948 139.471 472.906 139.406C471.332 136.989 469.37 135.238 467 133.5C466.349 133.022 465.643 132.643 464.938 132.25C464.51 132.012 463.973 131.799 463.469 131.781C462.794 131.758 462.132 132.17 461.594 132.531C459.815 133.724 459.135 135.732 458.156 137.531C457.186 139.315 455.789 140.871 454.625 142.531C452.479 145.593 450.429 148.752 448.375 151.875C447.236 153.607 446.091 155.336 444.938 157.062C444.538 153.893 444.167 150.718 443.656 147.562C442.232 138.77 440.222 130.09 437.875 121.5C436.908 117.96 435.856 114.474 434.875 110.938C434.509 109.618 434.045 108.281 433.781 106.938C433.618 106.106 433.643 105.244 433.531 104.406C433.271 102.465 432.115 100.903 430.625 99.6562C429.554 98.7598 428.487 97.8648 427.344 97.0625C426.735 96.6352 426.075 96.2955 425.406 95.9688C425.228 95.8815 424.929 95.8502 424.719 95.9062Z" fill="#f1f1f1" stroke="none"/>
</g>
<g filter="url(#Filter_2)" vectornator:shadowAngle="1.5708" vectornator:shadowColor="#000000" vectornator:shadowOffset="1" vectornator:shadowOpacity="0.630858" vectornator:shadowRadius="3">
<path d="M35.4219 19.6483C28.4903 48.7179 43.0373 133.893 44.48 133.97C50.0307 134.264 229.502 134.095 230.626 132.786C232.212 130.941 240.215 81.7412 240.105 75.7268C240.076 74.1019 244.14 19.401 243.049 18.2348C241.984 17.0963 240.002 17.9114 238.472 17.8858C234.408 17.8178 230.341 18.0549 226.277 17.954C220.995 17.8227 215.722 17.4008 210.442 17.1895C182.24 16.061 154.303 14.1988 126.053 14.0634C102.469 13.9505 79.2873 12.94 55.747 15.0159C47.6372 15.7311 37.4735 11.0448 35.4219 19.6483Z" fill="#ebebeb" fill-rule="evenodd" stroke="none"/>
<path d="M84.125 9.90625C76.0714 9.92952 68.0433 10.094 60 10.5625C57.5464 10.7054 55.0752 10.8705 52.625 11.0625C51.4625 11.1536 50.3233 11.2571 49.1562 11.25C45.0765 11.225 40.9521 10.1668 36.875 10.625C34.7171 10.8675 36.872 10.6419 30.625 15.9688C28.8494 31.8757 29.0194 26.5416 28.8438 31.875C28.6366 38.1645 28.787 44.4665 29.0938 50.75C29.929 67.8578 31.8792 84.8995 34.3438 101.844C35.3392 108.687 36.4262 115.549 37.7188 122.344C38.0984 124.34 38.4887 126.338 38.9688 128.312C39.1403 129.018 39.2749 130.02 39.7188 130.625C40.0654 131.097 40.3207 131.638 40.7812 132C43.3662 134.031 46.1172 135.899 48.8125 137.781C48.9628 137.886 50.0721 137.841 50.2812 137.844C51.6286 137.863 52.9963 137.867 54.3438 137.875C59.5717 137.907 64.8033 137.899 70.0312 137.906C90.3332 137.934 110.636 137.901 130.938 137.844C158.136 137.767 185.335 137.681 212.531 137.312C218.167 137.236 223.803 137.177 229.438 137C230.931 136.953 232.416 136.886 233.906 136.781C234.272 136.755 235.082 136.85 235.375 136.562C235.767 136.178 235.898 135.28 236.031 134.781C236.893 131.568 237.48 128.266 238.094 125C238.961 120.389 239.761 115.784 240.531 111.156C242.109 101.671 243.716 92.1334 244.688 82.5625C244.845 81.0141 244.875 79.4568 244.969 77.9062C245.131 75.2209 245.32 72.5592 245.5 69.875C246.049 61.6656 246.594 53.4626 247.094 45.25C247.454 39.3329 247.794 33.3947 247.969 27.4688C248.013 25.9527 248.071 24.4229 248 22.9062C247.985 22.5789 248.033 21.9337 247.812 21.6562C247.207 20.894 246.65 20.0703 245.938 19.4062C244.627 18.1836 243.236 17.047 241.781 16C240.811 15.3018 239.742 14.7497 238.688 14.1875C238.418 14.0441 238.107 13.986 237.812 13.9062C236.654 13.5927 235.443 13.9668 234.281 14.0312C233.15 14.0941 232.009 14.0501 230.875 14.0625C226.511 14.1101 222.175 14.1714 217.812 13.9688C198.039 13.0501 178.279 12.0286 158.5 11.2188C150.884 10.9069 143.246 10.604 135.625 10.4375C126.515 10.2385 117.393 10.2152 108.281 10.0938C100.23 9.98644 92.1786 9.88298 84.125 9.90625ZM85.2188 17.625C97.4052 17.4576 109.564 17.6697 121.75 17.8125C134.079 17.9569 146.426 18.0626 158.75 18.5C175.147 19.082 191.515 20.0044 207.906 20.7188C217.914 21.1549 227.917 21.932 237.938 21.75C238.062 21.7477 238.188 21.7512 238.312 21.75C238.268 22.9268 238.244 24.1052 238.188 25.2812C237.817 32.989 237.34 40.7056 236.844 48.4062C236.448 54.5463 236.031 60.6731 235.625 66.8125C235.439 69.6185 235.378 72.4529 235.094 75.25C234.067 85.3621 232.343 95.4194 230.656 105.438C229.895 109.958 229.113 114.498 228.25 119C227.711 121.811 227.179 124.639 226.438 127.406C226.329 127.811 226.209 128.2 226.062 128.594C226.026 128.692 225.88 128.932 225.875 129.031C225.875 129.033 224.663 129.144 224.469 129.156C222.71 129.268 220.948 129.294 219.188 129.344C218.783 129.355 218.373 129.365 217.969 129.375C217.537 129.386 217.119 129.427 216.688 129.438C216.226 129.448 215.774 129.459 215.312 129.469C204.314 129.707 193.282 129.784 182.281 129.875C147.536 130.163 112.808 130.241 78.0625 130.25C69.0055 130.252 59.9319 130.25 50.875 130.219C49.7379 130.215 48.6058 130.224 47.4688 130.219C47.1813 128.737 46.8894 127.236 46.625 125.75C45.4691 119.253 44.485 112.752 43.5625 106.219C41.1613 89.2123 39.2298 72.0758 38.5625 54.9062C38.3416 49.2218 38.5716 54.9092 40.2188 23.3438C41.0922 21.113 40.6754 21.788 41.0938 21.0938C43.5929 16.9459 49.9488 18.2789 53.9062 18.6562C55.6927 18.8266 57.485 18.9741 59.2812 18.9062C62.077 18.8006 64.8628 18.4752 67.6562 18.3125C73.4983 17.9723 79.3668 17.7054 85.2188 17.625Z" fill="#f1f1f1" stroke="none"/>
</g>
<path d="M769.279 128.214C773.303 128.47 777.436 128.695 781.463 128.582C782.855 128.543 784.243 128.478 785.638 128.493C785.996 128.497 787.606 128.623 787.367 128.531" fill="none" fill-rule="evenodd" filter="url(#Filter_3)" stroke="#feff34" stroke-linecap="round" stroke-linejoin="round" stroke-width="4" vectornator:shadowAngle="1.5708" vectornator:shadowColor="#000000" vectornator:shadowOffset="1" vectornator:shadowOpacity="0.630858" vectornator:shadowRadius="3"/>
<path d="M768.26 154.694C773.682 154.622 779.122 154.792 784.538 154.982C785.318 155.009 786.34 154.889 787.152 154.986C787.345 155.009 787.716 154.925 787.719 155.119" fill="none" fill-rule="evenodd" filter="url(#Filter_4)" stroke="#feff34" stroke-linecap="round" stroke-linejoin="round" stroke-width="4" vectornator:shadowAngle="1.5708" vectornator:shadowColor="#000000" vectornator:shadowOffset="1" vectornator:shadowOpacity="0.630858" vectornator:shadowRadius="3"/>
<g filter="url(#Filter_5)" vectornator:shadowAngle="1.5708" vectornator:shadowColor="#000000" vectornator:shadowOffset="7" vectornator:shadowOpacity="0.630858" vectornator:shadowRadius="7">
<path d="M22.4184 193.418C22.4184 193.418 70.1509 191.579 88.8563 191.721C106.018 191.851 123.139 191.602 140.295 191.721C150.971 191.795 174.268 191.807 184.666 191.793C206.928 191.764 216.045 191.619 239.051 191.721C246.183 191.752 253.323 192.34 260.445 191.721C262.061 191.58 263.99 192.426 265.3 191.721C270.045 189.167 236.845 141.47 235.686 140.598C233.154 138.694 49.6314 139.208 47.4203 141.425C46.394 142.453 22.4184 193.418 22.4184 193.418Z" fill="#e8e8e8" fill-rule="evenodd" stroke="none"/>
<path d="M151.375 135.594C129.599 135.621 107.805 135.729 86.0312 136.062C75.4427 136.225 64.8648 136.338 54.2812 136.719C51.4131 136.822 48.518 136.93 45.6562 137.156C45.0444 137.205 43.1654 137.224 42.6875 137.656C42.2846 138.021 42.0234 138.751 41.7812 139.219C41.2391 140.267 40.7102 141.317 40.1875 142.375C38.4287 145.935 36.7182 149.514 35 153.094C29.1582 165.266 34.986 153.093 17.625 189.688C17.29 190.118 19.1727 192.132 21.8125 194.188C21.8737 194.235 21.9078 194.266 21.9688 194.312C24.4054 196.329 26.6333 197.649 26.9688 197.25C85.1654 195.585 65.7843 195.824 85.1875 195.594C93.6431 195.494 102.106 195.611 110.562 195.594C145.092 195.525 179.595 195.691 214.125 195.562C224.531 195.524 234.97 195.406 245.375 195.562C248.944 195.616 252.494 195.771 256.062 195.812C257.257 195.826 258.462 195.834 259.656 195.812C260.853 195.791 262.055 195.731 263.25 195.656C264.033 195.607 264.959 195.506 265.781 195.562C266.925 195.641 268.071 195.998 269.219 195.781C269.69 195.692 270.194 195.52 270.406 195.062C270.735 194.353 270.498 193.432 270.312 192.719C269.927 191.236 269.329 189.793 268.688 188.406C266.007 182.608 262.622 177.133 259.25 171.719C255.251 165.299 251.062 158.985 246.781 152.75C245.182 150.42 243.565 148.101 241.906 145.812C241.046 144.625 240.175 143.25 239.062 142.281C237.713 141.107 236.408 139.875 234.969 138.812C234.003 138.1 232.918 137.563 231.875 136.969C231.257 136.616 230.378 136.562 229.688 136.5C228.276 136.373 226.884 136.34 225.469 136.281C220.718 136.085 215.942 135.984 211.188 135.906C191.245 135.582 171.32 135.568 151.375 135.594ZM159 143.281C176.737 143.259 194.482 143.265 212.219 143.469C218.188 143.537 224.157 143.613 230.125 143.781C232.021 143.835 233.918 143.907 235.812 144C237.675 146.669 239.533 149.359 241.344 152.062C247.049 160.58 252.72 169.201 257.5 178.281C258.69 180.541 259.932 182.882 260.656 185.344C260.847 185.993 261.234 187.118 260.781 187.75C260.48 188.17 259.728 188.166 259.281 188.156C258.13 188.13 257.035 187.808 255.875 187.875C250.53 188.185 245.225 188.147 239.875 188C232.733 187.804 225.582 187.844 218.438 187.844C206.124 187.843 193.813 187.95 181.5 187.969C160.535 188.001 139.558 187.829 118.594 187.875C110.023 187.894 101.477 187.954 92.9062 187.938C86.7775 187.926 80.6286 187.853 74.5 187.938C59.9756 188.138 52.3059 188.532 30.9375 189.219C37.9604 174.384 39.9836 170.103 44.5625 160.562C46.2802 156.984 47.9917 153.403 49.75 149.844C50.2717 148.788 50.8025 147.734 51.3438 146.688C51.584 146.223 51.7973 145.579 52.1562 145.188C52.347 144.979 53.8135 144.932 54.0938 144.906C55.8341 144.745 57.5983 144.644 59.3438 144.562C65.8084 144.262 72.2801 144.133 78.75 144C105.496 143.452 132.249 143.315 159 143.281Z" fill="#f1f1f1" stroke="none"/>
</g>
<g fill="#8a8a8a" opacity="0.513975" stroke="none">
<path clip-path="url(#TextBounds)" d="M85.3147 88.5799L85.3147 67.7454L77.532 67.7454L77.532 64.9578L96.2557 64.9578L96.2557 67.7454L88.4407 67.7454L88.4407 88.5799L85.3147 88.5799Z" fill-rule="evenodd"/>
<path clip-path="url(#TextBounds)" d="M99.0916 88.5799L99.0916 64.9578L101.992 64.9578L101.992 73.4334C103.345 71.865 105.054 71.0809 107.116 71.0809C108.384 71.0809 109.485 71.3306 110.419 71.8301C111.354 72.3296 112.023 73.0198 112.425 73.9007C112.828 74.7815 113.03 76.0599 113.03 77.7356L113.03 88.5799L110.129 88.5799L110.129 77.7356C110.129 76.2854 109.815 75.23 109.187 74.5694C108.558 73.9087 107.669 73.5784 106.52 73.5784C105.66 73.5784 104.852 73.8013 104.095 74.2471C103.337 74.6929 102.798 75.2972 102.475 76.0599C102.153 76.8226 101.992 77.8753 101.992 79.2181L101.992 88.5799L99.0916 88.5799Z" fill-rule="evenodd"/>
<path clip-path="url(#TextBounds)" d="M129.159 83.0691L132.156 83.4397C131.683 85.1907 130.808 86.5496 129.53 87.5164C128.251 88.4832 126.618 88.9666 124.631 88.9666C122.128 88.9666 120.144 88.1958 118.677 86.6543C117.211 85.1128 116.478 82.951 116.478 80.1687C116.478 77.2898 117.219 75.0555 118.701 73.4656C120.184 71.8758 122.107 71.0809 124.47 71.0809C126.758 71.0809 128.627 71.8597 130.077 73.4173C131.528 74.9749 132.253 77.1663 132.253 79.9915C132.253 80.1634 132.247 80.4212 132.237 80.7649L119.475 80.7649C119.582 82.6448 120.114 84.0843 121.07 85.0833C122.026 86.0823 123.219 86.5818 124.647 86.5818C125.711 86.5818 126.618 86.3025 127.37 85.7439C128.122 85.1854 128.719 84.2937 129.159 83.0691ZM119.636 78.3802L129.191 78.3802C129.062 76.9407 128.697 75.8611 128.095 75.1414C127.172 74.0242 125.974 73.4656 124.502 73.4656C123.17 73.4656 122.05 73.9114 121.143 74.803C120.235 75.6946 119.733 76.887 119.636 78.3802Z" fill-rule="evenodd"/>
<path clip-path="url(#TextBounds)" d="M156.68 83.0691L159.678 83.4397C159.205 85.1907 158.329 86.5496 157.051 87.5164C155.773 88.4832 154.14 88.9666 152.153 88.9666C149.65 88.9666 147.665 88.1958 146.199 86.6543C144.732 85.1128 143.999 82.951 143.999 80.1687C143.999 77.2898 144.741 75.0555 146.223 73.4656C147.705 71.8758 149.628 71.0809 151.991 71.0809C154.28 71.0809 156.149 71.8597 157.599 73.4173C159.049 74.9749 159.774 77.1663 159.774 79.9915C159.774 80.1634 159.769 80.4212 159.758 80.7649L146.996 80.7649C147.104 82.6448 147.636 84.0843 148.592 85.0833C149.548 86.0823 150.74 86.5818 152.169 86.5818C153.232 86.5818 154.14 86.3025 154.892 85.7439C155.644 85.1854 156.24 84.2937 156.68 83.0691ZM147.158 78.3802L156.713 78.3802C156.584 76.9407 156.219 75.8611 155.617 75.1414C154.693 74.0242 153.495 73.4656 152.024 73.4656C150.692 73.4656 149.572 73.9114 148.664 74.803C147.756 75.6946 147.254 76.887 147.158 78.3802Z" fill-rule="evenodd"/>
<path clip-path="url(#TextBounds)" d="M163.319 88.5799L163.319 71.4676L165.929 71.4676L165.929 73.9007C167.186 72.0208 169.002 71.0809 171.376 71.0809C172.407 71.0809 173.355 71.2662 174.22 71.6368C175.085 72.0074 175.732 72.4935 176.161 73.095C176.591 73.6966 176.892 74.4109 177.064 75.2381C177.171 75.7752 177.225 76.7151 177.225 78.0579L177.225 88.5799L174.325 88.5799L174.325 78.1707C174.325 76.9891 174.212 76.1055 173.986 75.5201C173.761 74.9346 173.36 74.4673 172.786 74.1182C172.211 73.7691 171.537 73.5945 170.763 73.5945C169.528 73.5945 168.462 73.9866 167.565 74.7708C166.668 75.555 166.22 77.0428 166.22 79.2342L166.22 88.5799L163.319 88.5799Z" fill-rule="evenodd"/>
<path clip-path="url(#TextBounds)" d="M192.774 88.5799L192.774 86.4207C191.689 88.118 190.094 88.9666 187.989 88.9666C186.624 88.9666 185.37 88.5906 184.226 87.8387C183.082 87.0867 182.196 86.0367 181.567 84.6885C180.939 83.3404 180.625 81.7908 180.625 80.0398C180.625 78.3318 180.909 76.7823 181.479 75.3912C182.048 74 182.902 72.9339 184.041 72.1927C185.179 71.4515 186.452 71.0809 187.86 71.0809C188.891 71.0809 189.809 71.2984 190.615 71.7334C191.421 72.1685 192.076 72.7352 192.581 73.4334L192.581 64.9578L195.465 64.9578L195.465 88.5799L192.774 88.5799ZM183.606 80.0398C183.606 82.2312 184.068 83.8694 184.991 84.9544C185.915 86.0394 187.006 86.5818 188.262 86.5818C189.53 86.5818 190.607 86.0635 191.493 85.0269C192.379 83.9903 192.823 82.4085 192.823 80.2815C192.823 77.9397 192.371 76.221 191.469 75.1253C190.567 74.0296 189.455 73.4817 188.134 73.4817C186.845 73.4817 185.768 74.0081 184.903 75.0608C184.038 76.1136 183.606 77.7732 183.606 80.0398Z" fill-rule="evenodd"/>
</g>
<path d="M231.215 129.63C231.193 129.762 207.579 87.327 163.1 61.518C110.647 31.0824 39.5922 19.1963 39.5922 19.1963L238.584 22.5319C238.584 22.5319 235.167 105.526 231.215 129.63Z" fill="#dddddd" fill-rule="evenodd" opacity="0.314102" stroke="none"/>
<g opacity="1">
<path d="M56.4187 153.142C70.6716 153.142 84.907 155.243 99.1833 155.057C124.912 154.72 150.652 152.675 176.386 154.599C188.942 155.538 201.759 155.262 214.355 155.262C218.271 155.262 222.174 155.463 226.088 155.555C227.594 155.59 229.109 155.742 230.613 155.807C230.734 155.812 231.278 155.842 231.13 155.688" fill="#b3b3b3" fill-rule="evenodd" opacity="1" stroke="#a09b9a" stroke-linecap="round" stroke-linejoin="round" stroke-width="1"/>
<path d="M59.8499 166.145C71.6065 166.145 83.4185 164.852 95.1619 164.729C114.124 164.531 133.39 164.384 152.327 165.421C169.038 166.336 185.735 167.492 202.477 167.8C213.041 167.995 223.557 166.678 234.083 166.678" fill="#b3b3b3" fill-rule="evenodd" opacity="1" stroke="#a09b9a" stroke-linecap="round" stroke-linejoin="round" stroke-width="1"/>
<path d="M52.553 178.574C83.6481 175.585 115.17 176.239 146.339 177.084C157.106 177.376 167.887 177.035 178.657 177.258C191.96 177.533 205.198 178.56 218.5 178.825C222.856 178.911 227.224 178.825 231.581 178.825C232.82 178.825 234.06 178.836 235.299 178.825C235.726 178.821 236.151 178.78 236.577 178.769C236.988 178.758 237.68 178.769 237.394 178.769" fill="#b3b3b3" fill-rule="evenodd" opacity="1" stroke="#a09b9a" stroke-linecap="round" stroke-linejoin="round" stroke-width="1"/>
<path d="M144.083 153.823C144.083 159.15 144.032 164.557 144.238 169.881C144.293 171.323 144.404 172.759 144.451 174.204C144.454 174.31 144.423 176.685 144.571 176.122" fill="#b3b3b3" fill-rule="evenodd" opacity="1" stroke="#a09b9a" stroke-linecap="round" stroke-linejoin="round" stroke-width="1"/>
<path d="M156.063 155.359C157.023 161.202 158.48 166.989 159.417 172.814C159.55 173.638 160.177 177.563 160.78 177.092" fill="#b3b3b3" fill-rule="evenodd" opacity="1" stroke="#a09b9a" stroke-linecap="round" stroke-linejoin="round" stroke-width="1"/>
<path d="M171.586 156.332C171.673 158.082 171.666 159.038 171.894 160.648C172.536 165.184 173.2 170.662 174.583 175.112C174.757 175.675 175.392 174.281 175.791 173.859" fill="#b3b3b3" fill-rule="evenodd" opacity="1" stroke="#a09b9a" stroke-linecap="round" stroke-linejoin="round" stroke-width="1"/>
<path d="M184.344 156.153C185.87 160.937 187.519 165.676 188.997 170.477C189.203 171.147 191.16 177.72 191.342 176.954" fill="#b3b3b3" fill-rule="evenodd" opacity="1" stroke="#a09b9a" stroke-linecap="round" stroke-linejoin="round" stroke-width="1"/>
<path d="M200.463 156.56C202.055 163.048 205.356 169.318 209.953 174.053C210.847 174.974 211.69 175.995 212.449 177.04C212.761 177.469 212.94 178.746 213.316 178.377" fill="#b3b3b3" fill-rule="evenodd" opacity="1" stroke="#a09b9a" stroke-linecap="round" stroke-linejoin="round" stroke-width="1"/>
<path d="M218.931 158.212C219.816 163.757 223.126 168.676 225.875 173.396C226.592 174.627 227.047 176.004 227.596 177.324C227.846 177.925 228.401 179.701 228.491 179.054" fill="#b3b3b3" fill-rule="evenodd" opacity="1" stroke="#a09b9a" stroke-linecap="round" stroke-linejoin="round" stroke-width="1"/>
<path d="M133.327 156.024C131.74 159.429 132.108 166.109 131.477 169.979C131.288 171.14 131.208 172.335 131.044 173.503C130.982 173.939 131.133 175.119 130.832 174.807" fill="#b3b3b3" fill-rule="evenodd" opacity="1" stroke="#a09b9a" stroke-linecap="round" stroke-linejoin="round" stroke-width="1"/>
<path d="M118.034 156.385C116.818 157.711 117.425 159.99 117.114 161.792C116.649 164.48 115.983 166.96 115.417 169.601C115.142 170.888 114.907 172.178 114.739 173.485C114.692 173.855 114.502 175.332 114.433 174.917" fill="#b3b3b3" fill-rule="evenodd" opacity="1" stroke="#a09b9a" stroke-linecap="round" stroke-linejoin="round" stroke-width="1"/>
<path d="M103.748 156.093C101.975 158.48 101.71 166.168 100.574 169.55C100.238 170.55 99.3495 172.354 98.9805 173.208C98.8521 173.505 98.6952 174.906 98.7613 174.542" fill="#b3b3b3" fill-rule="evenodd" opacity="1" stroke="#a09b9a" stroke-linecap="round" stroke-linejoin="round" stroke-width="1"/>
<path d="M87.5463 154.697C86.3388 159.598 84.6411 164.053 82.8517 168.72C82.3139 170.123 82.1969 171.584 81.6449 172.974C81.3703 173.666 80.8279 175.799 80.8279 175.052" fill="#b3b3b3" fill-rule="evenodd" opacity="1" stroke="#a09b9a" stroke-linecap="round" stroke-linejoin="round" stroke-width="1"/>
<path d="M72.5227 154.554C69.172 159.082 67.7511 165.839 65.04 170.918C64.9764 171.037 63.2813 175.411 63.0285 175.411" fill="#b3b3b3" fill-rule="evenodd" opacity="1" stroke="#a09b9a" stroke-linecap="round" stroke-linejoin="round" stroke-width="1"/>
</g>
<path d="M759.262 123.928C754.155 124.405 749.019 124.498 743.899 124.754C742.247 124.837 739.799 124.76 738.231 125.511C734.466 127.314 732.16 130.907 730.672 134.656C729.838 136.759 729.461 139.279 729.163 141.441C728.795 144.11 729.276 146.911 730.009 149.477C731.649 155.209 745.944 154.923 751.047 155.089C753.378 155.165 755.727 155.36 758.056 155.329C758.931 155.318 758.559 155.317 760.092 155.371C760.255 155.377 761.036 155.279 760.8 155.282" fill="#5e5e5e" fill-rule="evenodd" filter="url(#Filter_6)" stroke="#a6a6a6" stroke-linecap="round" stroke-linejoin="round" stroke-width="12" vectornator:shadowAngle="1.5708" vectornator:shadowColor="#000000" vectornator:shadowOffset="1" vectornator:shadowOpacity="0.630858" vectornator:shadowRadius="3"/>
<path d="M764.07 115.286C763.168 124.101 763.678 133.055 763.66 141.902C763.649 146.935 763.212 151.955 763.478 156.988C763.653 160.308 764.075 163.546 764.119 166.865" fill="none" fill-rule="evenodd" filter="url(#Filter_7)" stroke="#f1f1f1" stroke-linecap="round" stroke-linejoin="round" stroke-width="8" vectornator:shadowAngle="1.5708" vectornator:shadowColor="#000000" vectornator:shadowOffset="1" vectornator:shadowOpacity="0.630858" vectornator:shadowRadius="3"/>
</g>
</svg>
