<?xml version="1.0" encoding="UTF-8" standalone="no"?>
<!DOCTYPE svg PUBLIC "-//W3C//DTD SVG 1.1//EN" "http://www.w3.org/Graphics/SVG/1.1/DTD/svg11.dtd"
[
<!ATTLIST g
  xmlns:vectornator CDATA #FIXED "http://vectornator.io"
  vectornator:layerName CDATA #IMPLIED >
<!ATTLIST g
  xmlns:vectornator CDATA #FIXED "http://vectornator.io"
  vectornator:mask CDATA #IMPLIED >
<!ATTLIST text
  xmlns:vectornator CDATA #FIXED "http://vectornator.io"
  vectornator:width CDATA #IMPLIED >

<!ATTLIST path
  xmlns:vectornator CDATA #FIXED "http://vectornator.io"
  vectornator:blendMode CDATA #IMPLIED >
<!ATTLIST path
  xmlns:vectornator CDATA #FIXED "http://vectornator.io"
  vectornator:shadowColor CDATA #IMPLIED >
<!ATTLIST path
  xmlns:vectornator CDATA #FIXED "http://vectornator.io"
  vectornator:shadowOpacity CDATA #IMPLIED >
<!ATTLIST path
  xmlns:vectornator CDATA #FIXED "http://vectornator.io"
  vectornator:shadowRadius CDATA #IMPLIED >
<!ATTLIST path
  xmlns:vectornator CDATA #FIXED "http://vectornator.io"
  vectornator:shadowOffset CDATA #IMPLIED >
<!ATTLIST path
  xmlns:vectornator CDATA #FIXED "http://vectornator.io"
  vectornator:shadowAngle CDATA #IMPLIED >

<!ATTLIST image
  xmlns:vectornator CDATA #FIXED "http://vectornator.io"
  vectornator:blendMode CDATA #IMPLIED >
<!ATTLIST image
  xmlns:vectornator CDATA #FIXED "http://vectornator.io"
  vectornator:shadowColor CDATA #IMPLIED >
<!ATTLIST image
  xmlns:vectornator CDATA #FIXED "http://vectornator.io"
  vectornator:shadowOpacity CDATA #IMPLIED >
<!ATTLIST image
  xmlns:vectornator CDATA #FIXED "http://vectornator.io"
  vectornator:shadowRadius CDATA #IMPLIED >
<!ATTLIST image
  xmlns:vectornator CDATA #FIXED "http://vectornator.io"
  vectornator:shadowOffset CDATA #IMPLIED >
<!ATTLIST image
  xmlns:vectornator CDATA #FIXED "http://vectornator.io"
  vectornator:shadowAngle CDATA #IMPLIED >

<!ATTLIST g
  xmlns:vectornator CDATA #FIXED "http://vectornator.io"
  vectornator:blendMode CDATA #IMPLIED >
<!ATTLIST g
  xmlns:vectornator CDATA #FIXED "http://vectornator.io"
  vectornator:shadowColor CDATA #IMPLIED >
<!ATTLIST g
  xmlns:vectornator CDATA #FIXED "http://vectornator.io"
  vectornator:shadowOpacity CDATA #IMPLIED >
<!ATTLIST g
  xmlns:vectornator CDATA #FIXED "http://vectornator.io"
  vectornator:shadowRadius CDATA #IMPLIED >
<!ATTLIST g
  xmlns:vectornator CDATA #FIXED "http://vectornator.io"
  vectornator:shadowOffset CDATA #IMPLIED >
<!ATTLIST g
  xmlns:vectornator CDATA #FIXED "http://vectornator.io"
  vectornator:shadowAngle CDATA #IMPLIED >

<!ENTITY % SVG.filter.extra.content  "| feDropShadow" >
<!ELEMENT feDropShadow EMPTY>
<!ATTLIST feDropShadow
  xmlns:svg CDATA #FIXED "http://www.w3.org/Graphics/SVG/1.1/DTD/svg11.dtd"
  dx CDATA #IMPLIED>
<!ATTLIST feDropShadow
  xmlns:svg CDATA #FIXED "http://www.w3.org/Graphics/SVG/1.1/DTD/svg11.dtd"
  dy CDATA #IMPLIED>
<!ATTLIST feDropShadow
  xmlns:svg CDATA #FIXED "http://www.w3.org/Graphics/SVG/1.1/DTD/svg11.dtd"
  stdDeviation CDATA #IMPLIED>
<!ATTLIST feDropShadow
  xmlns:svg CDATA #FIXED "http://www.w3.org/Graphics/SVG/1.1/DTD/svg11.dtd"
  flood-opacity CDATA #IMPLIED>
<!ATTLIST feDropShadow
  xmlns:svg CDATA #FIXED "http://www.w3.org/Graphics/SVG/1.1/DTD/svg11.dtd"
  in CDATA #IMPLIED>
<!ATTLIST feDropShadow
  xmlns:svg CDATA #FIXED "http://www.w3.org/Graphics/SVG/1.1/DTD/svg11.dtd"
  result CDATA #IMPLIED>
<!ATTLIST feDropShadow
  xmlns:svg CDATA #FIXED "http://www.w3.org/Graphics/SVG/1.1/DTD/svg11.dtd"
  flood-color CDATA #IMPLIED>
]
>
<!-- Created with Vectornator (http://vectornator.io/) -->
<svg height="100%" stroke-miterlimit="10" style="fill-rule:nonzero;clip-rule:evenodd;stroke-linecap:round;stroke-linejoin:round;" version="1.1" viewBox="0 0 800 250" width="100%" xml:space="preserve" xmlns="http://www.w3.org/2000/svg" xmlns:vectornator="http://vectornator.io" xmlns:xlink="http://www.w3.org/1999/xlink">
<defs>
<filter color-interpolation-filters="sRGB" filterUnits="userSpaceOnUse" height="102.195" id="Filter" width="503.978" x="230.449" y="96.7591">
<feDropShadow dx="-3.61999e-06" dy="1" flood-color="#000000" flood-opacity="0.630858" in="SourceGraphic" result="Shadow" stdDeviation="1.5"/>
</filter>
<filter color-interpolation-filters="sRGB" filterUnits="userSpaceOnUse" height="138.511" id="Filter_2" width="227.811" x="23.623" y="10.2384">
<feDropShadow dx="-3.61999e-06" dy="1" flood-color="#000000" flood-opacity="0.630858" in="SourceGraphic" result="Shadow" stdDeviation="1.5"/>
</filter>
<filter color-interpolation-filters="sRGB" filterUnits="userSpaceOnUse" height="10.3982" id="Filter_3" width="28.1114" x="763.439" y="128.772">
<feDropShadow dx="-3.61999e-06" dy="1" flood-color="#000000" flood-opacity="0.630858" in="SourceGraphic" result="Shadow" stdDeviation="1.5"/>
</filter>
<filter color-interpolation-filters="sRGB" filterUnits="userSpaceOnUse" height="10.4419" id="Filter_4" width="29.459" x="762.42" y="155.236">
<feDropShadow dx="-3.61999e-06" dy="1" flood-color="#000000" flood-opacity="0.630858" in="SourceGraphic" result="Shadow" stdDeviation="1.5"/>
</filter>
<filter color-interpolation-filters="sRGB" filterUnits="userSpaceOnUse" height="80.1285" id="Filter_5" width="269.481" x="8.51029" y="137.916">
<feDropShadow dx="-2.53399e-05" dy="7" flood-color="#000000" flood-opacity="0.630858" in="SourceGraphic" result="Shadow" stdDeviation="3.5"/>
</filter>
<filter color-interpolation-filters="sRGB" filterUnits="userSpaceOnUse" height="116.434" id="Filter_6" width="204.992" x="35.7234" y="21.784">
<feComponentTransfer in="SourceGraphic" result="Alpha">
<feFuncA slope="0.314102" type="linear"/>
</feComponentTransfer>
<feDropShadow dx="-3.61999e-06" dy="1" flood-color="#bebebe" flood-opacity="0.630858" in="Alpha" result="Shadow" stdDeviation="1.5"/>
</filter>
<filter color-interpolation-filters="sRGB" filterUnits="userSpaceOnUse" height="48.6399" id="Filter_7" width="51.6076" x="717.396" y="121.265">
<feDropShadow dx="-3.61999e-06" dy="1" flood-color="#000000" flood-opacity="0.630858" in="SourceGraphic" result="Shadow" stdDeviation="1.5"/>
</filter>
<filter color-interpolation-filters="sRGB" filterUnits="userSpaceOnUse" height="65.5781" id="Filter_8" width="14.7268" x="755.552" y="113.845">
<feDropShadow dx="-3.61999e-06" dy="1" flood-color="#000000" flood-opacity="0.630858" in="SourceGraphic" result="Shadow" stdDeviation="1.5"/>
</filter>
<clipPath id="TextBounds">
<rect height="59.792" width="327.81" x="-23.6188" y="82.6091"/>
</clipPath>
</defs>
<g id="Слой-1" vectornator:layerName="Слой 1">
<g filter="url(#Filter)" vectornator:shadowAngle="1.5708" vectornator:shadowColor="#000000" vectornator:shadowOffset="1" vectornator:shadowOpacity="0.630858" vectornator:shadowRadius="3">
<path d="M424.094 100.438C423.698 100.388 423.508 100.829 423.406 101.125C423.161 101.835 423.092 102.613 422.812 103.312C422.652 103.715 422.409 104.064 422.188 104.438C421.667 105.316 421.116 106.198 420.625 107.094C420.305 107.678 420.098 108.307 419.75 108.875C419.468 109.335 419.122 109.745 418.812 110.188C418.506 110.626 418.252 111.119 417.875 111.5C417.519 111.86 417.071 112.085 416.656 112.375C415.814 112.964 414.9 113.5 413.969 113.938C410.838 115.409 407.319 116.61 405.281 119.594C403.878 121.648 404.543 124.401 404.906 126.688C405.195 128.505 405.559 130.325 405.75 132.156C405.845 133.069 405.913 134.024 405.781 134.938C405.633 135.966 404.973 136.819 404.5 137.719C403.457 139.705 401.946 141.832 400.062 143.156C399.061 142.378 398.027 141.674 396.906 141.094C395.611 140.424 394.78 141.11 394 142.031C393.992 140.913 394.145 139.762 393.531 138.781C393.013 137.953 392.245 137.165 391.531 136.562C390.399 135.608 389.215 134.722 388 133.875C387.308 133.392 386.378 132.9 385.5 132.781C382.068 132.316 380.541 135.427 378.281 137.281C377.612 137.83 376.857 138.305 376.156 138.812C375.386 139.371 374.627 139.933 373.781 140.375C372.875 140.85 371.902 141.205 370.969 141.625C370.233 141.956 369.487 142.196 368.75 142.438C368.408 141.823 368.107 141.184 367.812 140.562C367.264 139.407 367.335 138.077 366.812 136.906C365.946 134.964 363.779 133.231 362.156 132.031C361.417 131.484 360.667 130.968 359.875 130.5C359.428 130.235 358.96 130.013 358.469 129.844C358.317 129.791 358.127 129.816 357.969 129.844C357.338 129.956 357.058 131.619 356.875 132.125C356.586 132.925 355.965 133.611 355.5 134.312C354.694 135.531 353.904 136.733 353.125 137.969C351.209 141.007 349.41 144.139 347.844 147.375C346.258 150.651 344.802 153.972 343.156 157.219C342.802 154.819 342.434 152.422 342.031 150.031C340.612 141.611 338.77 133.284 337.469 124.844C337.147 122.755 337.06 120.624 336.781 118.531C336.625 117.361 336.282 116.247 336.062 115.094C335.96 114.555 335.98 114.002 335.844 113.469C335.689 112.862 335.371 112.329 334.938 111.875C334.296 111.203 333.616 110.536 332.906 109.938C332.069 109.232 331.181 108.593 330.281 107.969C329.85 107.669 329.4 107.406 328.938 107.156C328.43 106.882 327.722 106.626 327.125 106.688C326.676 106.734 326.47 107.058 326.406 107.469C326.312 108.073 326.469 108.682 326.344 109.281C326.195 109.995 325.699 110.804 325.406 111.469C325.262 111.796 325.144 112.141 325 112.469C324.711 113.124 324.417 113.784 324.125 114.438C322.583 117.89 321.047 121.36 319.188 124.656C316.912 128.689 314.211 132.456 311.656 136.312C310.195 138.519 308.675 140.732 307.531 143.125C306.344 145.609 305.393 148.262 303.656 150.438C302.959 151.311 302.066 152.06 301.125 152.719C301 152.169 300.779 151.648 300.688 151.094C300.071 147.363 300.316 143.517 299.594 139.812C299.384 138.738 299.866 137.594 299.062 136.656C298.545 136.053 298.038 135.457 297.438 134.938C296.362 134.007 295.224 133.164 294.062 132.344C293.61 132.024 293.088 131.782 292.594 131.531C292.067 131.264 291.237 131.054 290.688 131.375C289.845 131.866 290.38 133.481 290.125 134.281C289.958 134.806 289.788 135.318 289.625 135.844C289.048 137.704 288.581 139.588 287.875 141.406C287.49 142.398 286.964 143.314 286.531 144.281C285.935 145.613 285.451 146.74 283.844 146.969C282.696 147.132 281.513 146.787 280.375 146.656C279.017 146.5 277.613 146.514 276.25 146.469C270.626 146.282 264.997 146.175 259.375 146.469C256.968 146.594 254.429 146.729 252.094 147.375C251.179 147.628 250.305 148.014 249.406 148.312C248.448 148.631 247.454 148.847 246.469 149.062C242.539 149.921 238.511 150.408 234.531 150.969C234.273 151.28 235.62 152.819 237.531 154.406C239.442 155.993 241.21 157.03 241.469 156.719C245.463 156.156 249.463 155.674 253.406 154.812C254.407 154.594 255.433 154.386 256.406 154.062C257.952 153.549 259.34 152.963 260.969 152.719C265.389 152.055 269.917 152.08 274.375 152.062C278.32 152.047 282.246 152.19 286.188 152.344C288.068 152.417 290.233 153.27 292 152.312C293.15 151.689 293.417 150.394 293.969 149.312C294.12 149.017 294.208 148.705 294.344 148.406C294.627 149.469 294.777 150.551 295.219 151.594C295.593 152.478 295.595 153.451 296.25 154.219C297.801 156.037 299.755 157.482 301.719 158.844C302.508 159.391 303.491 159.83 304.469 159.875C305.666 159.931 306.804 159.386 307.781 158.75C309.76 157.462 311.204 155.754 312.344 153.688C312.688 153.063 313.042 152.334 313.344 151.688C313.803 150.704 314.219 149.698 314.688 148.719C315.263 147.515 315.949 146.384 316.656 145.25C319.807 140.201 323.416 135.439 326.344 130.25C327.503 128.195 328.51 126.078 329.5 123.938C329.921 123.027 330.33 122.101 330.75 121.188C331.13 123.591 331.398 126.004 331.844 128.406C332.761 133.345 333.724 138.271 334.594 143.219C335.361 147.584 335.964 151.968 336.656 156.344C336.984 158.416 337.44 160.467 337.812 162.531C337.983 163.477 337.55 164.46 337.719 165.406C337.738 165.517 337.755 165.623 337.812 165.719C338.015 166.057 338.199 166.433 338.5 166.688C340.291 168.204 342.155 169.633 344.062 171C344.312 171.179 344.793 171.351 345.156 171.281C345.867 171.145 346.822 169.949 347.188 169.375C347.796 168.419 348.151 167.316 348.594 166.281C348.968 165.409 349.465 164.59 349.906 163.75C350.174 163.241 350.431 162.734 350.688 162.219C352.718 158.141 354.416 153.895 356.562 149.875C358.413 146.41 360.62 143.193 362.75 139.906C362.901 140.732 362.943 141.59 363.375 142.344C363.817 143.115 364.541 143.911 365.156 144.469C365.981 145.217 366.86 145.924 367.75 146.594C368.985 147.523 370.42 148.486 372 148.719C374.096 149.028 376.13 148.186 378 147.344C378.939 146.921 379.931 146.54 380.844 146.062C381.981 145.467 382.958 144.679 384 143.938C384.377 143.669 385 143.246 385.375 142.938C386.231 142.235 386.99 141.445 387.75 140.656C387.918 141.173 388.128 141.685 388.219 142.188C388.409 143.242 388.03 144.437 388.812 145.344C389.469 146.105 390.098 146.894 390.875 147.531C392.244 148.653 393.737 149.626 395.219 150.594C395.528 150.795 396.188 151.013 396.625 151.094C398.004 151.348 398.774 150.005 399.594 149.156C399.99 148.746 400.47 148.438 400.844 148C400.881 147.956 400.932 147.921 400.969 147.875C401.225 148.065 401.427 148.317 401.688 148.5C403.074 149.471 404.369 150.133 406.031 149.5C407.386 148.984 408.344 147.838 409.312 146.812C410.539 145.514 411.286 143.999 412.125 142.438C412.5 141.74 412.857 141.215 412.969 140.438C413.141 139.239 412.997 137.973 412.844 136.781C412.513 134.209 411.964 131.68 411.75 129.094C411.713 128.648 411.588 128.196 411.625 127.75C411.676 127.126 411.839 126.512 412 125.906C412.129 125.421 412.875 124.599 413.219 124.219C414.379 122.934 415.863 122.032 417.406 121.281C419.067 120.474 420.871 119.892 422.469 118.969C422.917 118.709 423.294 118.36 423.719 118.062C424.146 117.763 424.633 117.527 425 117.156C425.386 116.766 425.654 116.262 425.969 115.812C426.281 115.366 426.622 114.933 426.906 114.469C427.187 114.011 427.414 113.521 427.656 113.031C427.897 113.865 428.135 114.698 428.375 115.531C431.833 127.518 434.76 139.683 436.406 152.062C437.047 156.878 437.701 161.716 438.344 166.531C438.474 167.508 437.551 168.971 438.094 169.844C438.322 170.211 438.522 170.618 438.844 170.906C440.3 172.209 441.834 173.435 443.406 174.594C443.889 174.949 444.455 175.157 445 175.406C445.369 175.575 445.841 175.537 446.219 175.438C448.087 174.944 447.616 172.822 448.438 171.5C449.045 170.523 449.707 169.583 450.344 168.625C452.227 165.793 454.097 162.933 455.969 160.094C456.587 159.155 457.213 158.232 457.812 157.281C457.894 157.152 457.893 157.023 457.875 156.875C457.804 156.309 457.457 155.778 457.156 155.312C456.52 154.329 455.743 153.442 455.094 152.469C454.923 152.213 454.785 151.95 454.625 151.688C454.618 151.638 454.628 151.625 454.625 151.594C454.615 151.473 454.577 151.266 454.656 151.156C454.917 150.795 455.405 150.596 455.875 150.469C457.494 150.029 459.229 150.184 460.875 149.969C461.447 149.894 462.055 149.863 462.594 149.656C463.01 149.496 463.353 149.201 463.688 148.906C464.167 148.483 464.501 147.623 464.781 147.062C465.318 145.988 465.905 144.928 466.656 144C466.902 144.509 467.253 145.021 467.625 145.406C468.219 146.023 468.842 146.64 469.5 147.188C470.381 147.92 471.308 148.598 472.25 149.25C473.193 149.903 474.287 150.495 475.438 150.688C478.042 151.124 480.2 149.14 482.406 148.125C483.963 147.409 485.621 146.902 487.219 146.281C489.659 145.334 492.078 144.35 494.531 143.438C495.144 143.21 495.758 143.007 496.344 142.719C496.864 142.463 497.407 142.156 497.969 141.906C499.236 142.897 500.486 143.903 501.812 144.812C502.198 145.077 502.684 145.187 503.125 145.344C503.97 145.644 504.991 145.649 505.875 145.594C507.286 145.506 508.506 145.282 509.719 144.844C510.394 145.842 511.164 146.771 512.094 147.531C513.272 148.494 514.513 149.378 515.781 150.219C516.299 150.562 517.05 150.904 517.719 150.969C518.639 151.058 519.686 150.593 520.469 150.156C522.078 149.257 523.423 147.847 524.844 146.688C525.48 146.168 526.127 145.629 526.75 145.094C528.891 143.253 530.961 141.326 533.031 139.406C535.152 137.439 537.249 135.464 539.188 133.312C541.525 130.718 543.653 127.953 545.656 125.094C545.953 124.671 546.19 124.211 546.469 123.781C546.731 125.871 547.022 127.967 547.188 130.062C547.396 132.702 547.355 135.356 547.281 138C547.179 141.644 546.982 145.291 547.031 148.938C547.088 153.12 547.507 157.483 549.312 161.312C550.704 164.263 552.945 166.618 555.406 168.719C555.914 169.152 556.436 169.536 556.969 169.938C556.991 169.962 556.986 169.984 557 170C557.046 170.054 557.081 170.101 557.125 170.156C557.246 170.309 557.362 170.461 557.469 170.625C557.83 171.183 558.098 171.789 558.25 172.438C558.799 174.783 557.59 176.907 556.875 179.062C556.58 179.952 556.318 180.742 556.25 181.688C556.193 182.48 556.393 183.15 556.219 183.906C555.987 184.91 555.344 185.921 555.375 186.969C555.386 187.328 555.561 187.785 555.812 188.031C557.053 189.248 558.315 190.466 559.688 191.531C560.509 192.169 561.458 192.633 562.375 193.125C562.587 193.239 562.966 193.289 563.219 193.281C566.205 193.189 566.314 190.399 567.375 188.344C568.142 186.857 569.197 185.517 570.031 184.062C571.761 181.045 573.299 177.912 574.875 174.812C581.24 162.297 587.186 149.551 593.906 137.219C595.16 134.918 596.405 132.56 597.906 130.406C598.576 129.446 599.34 128.514 600.094 127.594C600.232 128.26 600.367 128.931 600.5 129.594C601.092 132.544 601.725 135.461 602.344 138.406C602.61 139.672 602.949 140.967 603.125 142.25C603.559 145.413 603.079 148.698 604.781 151.562C604.936 151.823 605.401 152.518 605.594 152.719C606.328 153.485 607.044 154.309 607.875 154.969C609.086 155.93 610.411 156.769 611.719 157.594C612.051 157.804 612.558 157.922 612.969 157.844C613.951 157.658 614.81 156.615 615.469 155.969C615.97 155.477 616.517 155.039 617.031 154.562C617.682 153.959 618.21 153.243 618.812 152.594C619.187 152.191 619.546 151.84 619.844 151.375C619.919 151.257 619.991 151.126 620.062 151C620.153 151.063 620.217 151.162 620.312 151.219C621.399 151.872 622.491 152.53 623.594 153.156C623.693 153.213 623.794 153.228 623.906 153.25C625.639 153.595 627.152 152.517 628.469 151.531C629.159 151.015 629.917 150.54 630.562 149.969C631.481 149.156 632.171 148.119 633.062 147.281C633.903 146.491 634.869 145.741 635.781 145.031C636.063 144.812 636.414 144.718 636.719 144.531C637.538 145.132 638.331 145.783 639.156 146.375C639.387 146.541 639.671 146.619 639.938 146.719C641.03 147.126 642.232 147.09 643.375 147.094C644.547 147.098 645.734 147.107 646.906 147.094C651.908 147.038 656.903 146.691 661.906 146.812C666.211 146.917 670.507 147.348 674.812 147.469C683.994 147.727 693.161 147.801 702.344 148C711.649 148.202 720.954 148.508 730.25 148.969C730.509 148.665 729.209 147.15 727.344 145.562C725.478 143.975 723.759 142.946 723.5 143.25C711.393 142.65 699.275 142.315 687.156 142.094C679.614 141.956 672.032 141.985 664.5 141.562C660.975 141.365 657.47 141.065 653.938 141.031C650.696 141 647.457 141.147 644.219 141.25C642.04 141.319 639.867 141.354 637.688 141.344C636.534 140.393 635.397 139.44 634.188 138.562C633.784 138.27 633.124 137.946 632.562 137.875C631.161 137.697 629.711 138.554 628.656 139.375C627.738 140.09 626.784 140.829 625.938 141.625C624.933 142.569 624.196 143.779 623.094 144.625C622.469 145.104 621.761 145.529 621.094 146C620.376 145.389 619.691 144.753 618.938 144.188C618.313 143.719 617.571 143.384 616.875 143.031C616.518 142.85 616.029 142.774 615.625 142.781C613.834 142.815 613.34 144.998 612.438 146.156C611.823 146.945 611.06 147.59 610.344 148.281C610.322 148.052 610.344 147.822 610.312 147.594C610.066 145.799 609.594 144.021 609.219 142.25C608.291 137.866 607.198 133.47 606.562 129.031C606.248 126.837 606.837 124.562 606.219 122.406C606.088 121.952 605.852 121.138 605.5 120.812C603.861 119.297 602.259 117.708 600.469 116.375C599.847 115.912 599.078 115.72 598.344 115.469C598.106 115.387 597.595 116.166 597.5 116.312C596.797 117.397 596.338 118.143 595.438 119.125C595.144 119.445 594.823 119.741 594.531 120.062C593.195 121.534 591.888 123.149 590.75 124.781C588.641 127.806 586.959 131.177 585.25 134.438C578.125 148.033 571.566 161.891 564.469 175.5C563.231 173.399 561.219 171.564 559.562 170.156C559.155 169.81 558.622 169.39 558.125 169C556.624 167.189 555.718 164.989 555.156 162.719C554.335 159.401 554.24 155.962 554.25 152.562C554.26 148.916 554.477 145.27 554.531 141.625C554.562 139.566 554.537 137.522 554.375 135.469C554.121 132.255 553.593 129.055 553.281 125.844C553.05 123.463 552.765 121.095 552.5 118.719C552.376 117.605 553.121 116.329 552.281 115.344C551.831 114.815 551.407 114.258 550.875 113.812C549.544 112.698 548.146 111.677 546.719 110.688C546.369 110.445 545.955 110.289 545.562 110.125C544.752 109.787 543.678 110.187 543.188 110.875C542.602 111.695 542.667 112.767 542.156 113.625C540.729 116.022 539.293 118.39 537.656 120.656C537.107 121.417 536.479 122.288 535.906 123.031C531.202 129.14 525.458 134.422 519.625 139.438C518.557 140.356 517.45 141.216 516.375 142.125C515.588 142.791 514.852 143.51 514 144.094C513.754 143.713 513.589 143.339 513.188 142.938C511.682 141.431 509.993 140.024 508.156 138.938C507.527 138.565 506.498 137.972 505.656 137.969C504.495 137.965 503.524 139.094 502.438 139.406C501.435 139.694 500.304 139.749 499.219 139.781C499.17 139.738 499.142 139.667 499.094 139.625C498.284 138.926 497.427 138.255 496.562 137.625C495.454 136.818 493.924 135.738 492.438 135.781C491.302 135.814 490.298 136.547 489.312 137.031C488.737 137.314 488.133 137.495 487.531 137.719C484.024 139.022 480.562 140.426 477.062 141.75C476.265 142.052 475.473 142.352 474.719 142.75C473.856 143.205 473.024 143.711 472.156 144.156C472.116 144.093 472.105 144.033 472.062 143.969C470.488 141.552 468.526 139.801 466.156 138.062C465.505 137.585 464.799 137.205 464.094 136.812C462.001 135.647 460.08 137.226 458.938 138.969C458.292 139.953 457.873 141.064 457.312 142.094C457.096 142.492 456.932 142.948 456.594 143.25C456.288 143.523 455.946 143.791 455.562 143.938C455.06 144.13 454.503 144.182 453.969 144.25C452.561 144.43 451.123 144.343 449.719 144.562C449.084 144.661 448.416 144.822 447.875 145.188C446.83 145.893 447.828 147.212 448.312 147.938C448.628 148.411 448.978 148.853 449.312 149.312C449.535 149.618 449.749 149.942 449.969 150.25C450.119 150.461 450.842 151.401 450.656 151.688C448.496 155.018 446.288 158.317 444.094 161.625C443.615 157.869 443.168 154.112 442.531 150.375C440.378 137.73 436.832 125.456 433.375 113.125C433.177 112.42 432.969 111.726 432.875 111C432.715 109.765 432.742 108.554 432.281 107.375C431.81 106.169 430.746 105.027 429.781 104.219C428.71 103.322 427.643 102.427 426.5 101.625C425.891 101.198 425.231 100.858 424.562 100.531C424.419 100.461 424.253 100.457 424.094 100.438Z" fill="#f1f1f1" stroke="none"/>
</g>
<g filter="url(#Filter_2)" vectornator:shadowAngle="1.5708" vectornator:shadowColor="#000000" vectornator:shadowOffset="1" vectornator:shadowOpacity="0.630858" vectornator:shadowRadius="3">
<path d="M34.5531 24.236C27.6215 53.3056 42.1685 138.481 43.6112 138.557C49.1619 138.852 228.634 138.683 229.758 137.374C231.343 135.529 239.346 86.3289 239.237 80.3145C239.207 78.6896 243.272 23.9887 242.18 22.8225C241.115 21.684 239.133 22.4992 237.603 22.4736C233.539 22.4055 229.472 22.6426 225.408 22.5417C220.126 22.4105 214.853 21.9886 209.573 21.7773C181.371 20.6487 153.434 18.7865 125.185 18.6512C101.601 18.5382 78.4185 17.5277 54.8782 19.6036C46.7684 20.3188 36.6047 15.6325 34.5531 24.236Z" fill="#ebebeb" fill-rule="evenodd" stroke="none"/>
<path d="M83.2812 14.4688C75.2277 14.492 67.1683 14.6565 59.125 15.125C56.6714 15.2679 54.2314 15.4642 51.7812 15.6562C50.6187 15.7474 49.4483 15.8509 48.2812 15.8438C44.2015 15.8188 40.0771 14.7605 36 15.2188C33.8421 15.4613 35.997 15.2044 29.75 20.5312C29.7477 20.5342 29.7521 20.5594 29.75 20.5625C27.9744 36.4695 28.1444 31.1353 27.9688 36.4688C27.7616 42.7582 27.912 49.0602 28.2188 55.3438C29.054 72.4515 31.0354 89.4932 33.5 106.438C34.4954 113.281 35.5512 120.112 36.8438 126.906C37.2234 128.902 37.6137 130.9 38.0938 132.875C38.2653 133.581 38.3999 134.614 38.8438 135.219C39.1904 135.691 39.4769 136.232 39.9375 136.594C42.5225 138.625 45.2422 140.492 47.9375 142.375C48.0878 142.48 49.2283 142.434 49.4375 142.438C50.7849 142.457 52.1213 142.46 53.4688 142.469C58.6967 142.501 63.9283 142.493 69.1562 142.5C89.4582 142.528 109.761 142.495 130.062 142.438C157.261 142.361 184.46 142.274 211.656 141.906C217.292 141.83 222.928 141.77 228.562 141.594C230.056 141.547 231.541 141.48 233.031 141.375C233.397 141.349 234.207 141.413 234.5 141.125C234.892 140.74 235.023 139.873 235.156 139.375C236.018 136.161 236.605 132.86 237.219 129.594C238.086 124.983 238.886 120.378 239.656 115.75C241.234 106.265 242.841 96.7272 243.812 87.1562C243.97 85.6079 244.031 84.0505 244.125 82.5C244.287 79.8147 244.445 77.1529 244.625 74.4688C245.174 66.2594 245.719 58.0251 246.219 49.8125C246.579 43.8954 246.95 37.9885 247.125 32.0625C247.17 30.5464 247.227 29.0166 247.156 27.5C247.141 27.1726 247.158 26.5274 246.938 26.25C246.332 25.4877 245.775 24.6641 245.062 24C243.752 22.7774 242.361 21.6408 240.906 20.5938C239.936 19.8955 238.867 19.3434 237.812 18.7812C237.543 18.6378 237.232 18.5797 236.938 18.5C235.779 18.1865 234.599 18.5605 233.438 18.625C232.306 18.6878 231.134 18.6126 230 18.625C225.636 18.6726 221.3 18.7652 216.938 18.5625C197.164 17.6439 177.404 16.5911 157.625 15.7812C150.009 15.4694 142.371 15.1665 134.75 15C125.64 14.801 116.549 14.8089 107.438 14.6875C99.386 14.5802 91.3348 14.4455 83.2812 14.4688ZM84.3438 22.2188C96.5302 22.0514 108.689 22.2635 120.875 22.4062C133.204 22.5507 145.551 22.6563 157.875 23.0938C174.272 23.6758 190.64 24.5981 207.031 25.3125C217.039 25.7487 227.042 26.5258 237.062 26.3438C237.187 26.3415 237.313 26.345 237.438 26.3438C237.394 27.5206 237.369 28.6989 237.312 29.875C236.942 37.5827 236.465 45.2994 235.969 53C235.573 59.1401 235.156 65.2669 234.75 71.4062C234.564 74.2123 234.503 77.0466 234.219 79.8438C233.192 89.9558 231.468 100.013 229.781 110.031C229.02 114.551 228.238 119.092 227.375 123.594C226.836 126.405 226.304 129.233 225.562 132C225.454 132.405 225.334 132.794 225.188 133.188C225.151 133.286 225.005 133.526 225 133.625C225 133.627 223.788 133.738 223.594 133.75C221.835 133.862 220.073 133.888 218.312 133.938C217.908 133.949 217.498 133.958 217.094 133.969C216.662 133.98 216.244 133.99 215.812 134C215.351 134.011 214.899 134.021 214.438 134.031C203.439 134.27 192.438 134.378 181.438 134.469C146.693 134.756 111.933 134.835 77.1875 134.844C68.1305 134.846 59.0882 134.843 50.0312 134.812C48.8987 134.809 47.7576 134.818 46.625 134.812C46.3359 133.323 46.047 131.838 45.7812 130.344C44.6254 123.847 43.61 117.346 42.6875 110.812C40.2863 93.806 38.3861 76.6696 37.7188 59.5C37.4978 53.8156 37.6966 59.4717 39.3438 27.9062C40.1761 25.7715 39.8055 26.3734 40.2188 25.6875C42.7179 21.5397 49.0738 22.8726 53.0312 23.25C54.8177 23.4204 56.61 23.5679 58.4062 23.5C61.202 23.3944 63.9878 23.0377 66.7812 22.875C72.6233 22.5348 78.4918 22.2991 84.3438 22.2188Z" fill="#f1f1f1" stroke="none"/>
</g>
<path d="M768.439 132.772C772.462 133.028 776.595 133.254 780.623 133.14C782.014 133.101 783.403 133.036 784.798 133.052C785.156 133.056 786.766 133.181 786.527 133.09" fill="none" fill-rule="evenodd" filter="url(#Filter_3)" stroke="#feff34" stroke-linecap="round" stroke-linejoin="round" stroke-width="4" vectornator:shadowAngle="1.5708" vectornator:shadowColor="#000000" vectornator:shadowOffset="1" vectornator:shadowOpacity="0.630858" vectornator:shadowRadius="3"/>
<path d="M767.42 159.252C772.842 159.18 778.282 159.35 783.698 159.54C784.478 159.568 785.5 159.448 786.312 159.544C786.505 159.567 786.876 159.483 786.879 159.677" fill="none" fill-rule="evenodd" filter="url(#Filter_4)" stroke="#feff34" stroke-linecap="round" stroke-linejoin="round" stroke-width="4" vectornator:shadowAngle="1.5708" vectornator:shadowColor="#000000" vectornator:shadowOffset="1" vectornator:shadowOpacity="0.630858" vectornator:shadowRadius="3"/>
<g filter="url(#Filter_5)" vectornator:shadowAngle="1.5708" vectornator:shadowColor="#000000" vectornator:shadowOffset="7" vectornator:shadowOpacity="0.630858" vectornator:shadowRadius="7">
<path d="M21.5783 197.977C21.5783 197.977 69.3108 196.137 88.0162 196.279C105.178 196.41 122.299 196.16 139.455 196.279C150.131 196.353 173.428 196.365 183.826 196.352C206.088 196.323 215.205 196.178 238.21 196.279C245.343 196.311 252.483 196.899 259.605 196.279C261.221 196.139 263.15 196.985 264.46 196.279C269.205 193.726 236.005 146.028 234.846 145.157C232.314 143.252 48.7913 143.767 46.5802 145.983C45.5539 147.012 21.5783 197.977 21.5783 197.977Z" fill="#e8e8e8" fill-rule="evenodd" stroke="none"/>
<path d="M150.531 140.156C128.755 140.184 106.961 140.292 85.1875 140.625C74.599 140.787 64.0211 140.901 53.4375 141.281C50.5693 141.384 47.6743 141.492 44.8125 141.719C44.2007 141.767 42.3217 141.786 41.8438 142.219C41.4409 142.583 41.1797 143.313 40.9375 143.781C40.3953 144.829 39.8664 145.88 39.3438 146.938C37.5849 150.498 35.8744 154.076 34.1562 157.656C28.3144 169.828 34.1734 157.655 16.8125 194.25C16.4775 194.68 18.3289 196.695 20.9688 198.75C21.03 198.798 21.064 198.828 21.125 198.875C23.5617 200.891 25.8208 202.212 26.1562 201.812C84.3529 200.147 64.9406 200.386 84.3438 200.156C92.7994 200.056 101.263 200.173 109.719 200.156C144.248 200.087 178.783 200.222 213.312 200.094C223.718 200.055 234.126 199.969 244.531 200.125C248.1 200.179 251.65 200.334 255.219 200.375C256.413 200.389 257.618 200.396 258.812 200.375C260.009 200.354 261.211 200.293 262.406 200.219C263.189 200.17 264.115 200.069 264.938 200.125C266.081 200.203 267.258 200.56 268.406 200.344C268.877 200.255 269.381 200.083 269.594 199.625C269.923 198.916 269.685 197.994 269.5 197.281C269.115 195.798 268.485 194.356 267.844 192.969C265.163 187.17 261.778 181.695 258.406 176.281C254.407 169.861 250.219 163.548 245.938 157.312C244.338 154.983 242.752 152.663 241.094 150.375C240.233 149.188 239.363 147.781 238.25 146.812C236.901 145.638 235.564 144.438 234.125 143.375C233.16 142.662 232.074 142.126 231.031 141.531C230.413 141.179 229.566 141.125 228.875 141.062C227.464 140.936 226.04 140.871 224.625 140.812C219.874 140.617 215.098 140.546 210.344 140.469C190.401 140.144 170.476 140.131 150.531 140.156ZM158.156 147.812C175.894 147.79 193.639 147.828 211.375 148.031C217.345 148.1 223.313 148.176 229.281 148.344C231.177 148.397 233.074 148.47 234.969 148.562C236.831 151.231 238.689 153.921 240.5 156.625C246.205 165.142 251.907 173.764 256.688 182.844C257.877 185.104 259.089 187.445 259.812 189.906C260.004 190.556 260.39 191.681 259.938 192.312C259.637 192.732 258.885 192.729 258.438 192.719C257.286 192.692 256.191 192.37 255.031 192.438C249.687 192.748 244.381 192.678 239.031 192.531C231.889 192.335 224.739 192.407 217.594 192.406C205.28 192.405 192.97 192.481 180.656 192.5C159.691 192.532 138.715 192.36 117.75 192.406C109.18 192.425 100.633 192.485 92.0625 192.469C85.9338 192.457 79.7849 192.415 73.6562 192.5C59.1318 192.701 51.4621 193.094 30.0938 193.781C37.1217 178.936 39.139 174.636 43.7188 165.094C45.4365 161.515 47.1479 157.965 48.9062 154.406C49.428 153.35 49.9588 152.265 50.5 151.219C50.7403 150.754 50.9535 150.142 51.3125 149.75C51.5032 149.542 52.9698 149.463 53.25 149.438C54.9904 149.277 56.7546 149.206 58.5 149.125C64.9646 148.824 71.4364 148.695 77.9062 148.562C104.653 148.015 131.405 147.846 158.156 147.812Z" fill="#f1f1f1" stroke="none"/>
</g>
<g opacity="1">
<path d="M150.531 37.5938C146.133 38.1181 142.046 40.056 139.438 44.0312C138.29 45.78 137.577 47.7828 136.906 49.75C136.158 51.9435 135.687 54.2058 135.188 56.4688C134.202 55.6458 133.222 54.7835 132.25 54.0312C127.679 50.4938 122.701 47.2584 117.25 45.25C111.024 42.9558 103.6 42.4354 98.2188 46.9688C97.1275 47.8881 96.1894 48.9556 95.375 50.125C92.5257 54.2164 91.5395 59.2735 91.4375 64.1875C91.3228 69.716 92.2738 75.3533 94.2188 80.5312C94.9657 82.5198 95.8206 84.5749 97.0625 86.3125C98.2134 87.9229 99.6928 89.3461 101.188 90.625C101.998 91.3189 102.915 91.9504 103.781 92.625C103.746 92.6758 103.69 92.7314 103.656 92.7812C101.976 95.2567 100.65 97.9284 99.5 100.688C98.8958 102.138 98.2898 103.63 97.9062 105.156C97.5099 106.734 97.5268 108.416 97.4375 110.031C97.3972 110.761 97.418 111.562 97.2812 112.281C97.2003 112.707 97.0304 113.117 96.9062 113.531C96.5641 114.673 96.4926 114.897 97.25 115.844C97.4285 116.067 97.617 116.291 97.8125 116.5C98.22 116.935 98.6228 117.348 99.0625 117.75C99.8593 118.479 100.686 119.203 101.531 119.875C102.96 121.01 104.45 122.057 106.031 122.969C106.308 123.128 106.586 123.271 106.875 123.406C107.018 123.473 107.165 123.538 107.312 123.594C107.371 123.616 107.546 123.698 107.5 123.656C107.615 123.707 107.817 123.712 107.906 123.719C108.501 123.761 108.923 122.9 109.125 122.531C109.213 122.37 109.296 122.197 109.375 122.031C109.461 121.849 109.547 121.655 109.625 121.469C109.71 121.267 109.797 121.079 109.875 120.875C111.349 117.013 111.966 112.754 114 109.125C115.169 107.039 117.275 105.11 119.094 103.594C123.571 99.8611 129.021 97.4028 134.688 96.0625C135.142 98.852 135.558 101.646 135.969 104.438C136.215 106.116 136.454 107.812 136.625 109.5C136.658 109.826 136.665 110.141 136.688 110.469C136.683 110.512 136.692 110.55 136.688 110.594C136.52 112.102 136.394 112.157 137.438 113.344C137.685 113.626 137.952 113.923 138.219 114.188C138.734 114.698 139.232 115.182 139.781 115.656C140.616 116.378 141.464 117.084 142.344 117.75C143.672 118.757 144.78 119.512 146.188 120.281C146.534 120.471 146.903 120.623 147.281 120.75C147.416 120.795 147.547 120.827 147.688 120.844C147.693 120.849 147.713 120.839 147.719 120.844C147.894 120.95 148.139 120.709 148.188 120.562C148.279 120.284 148.166 119.954 148.156 119.625C148.242 119.056 148.323 118.357 148.375 117.875C148.484 116.871 148.581 115.844 148.719 114.844C149.132 111.842 149.656 108.872 149.844 105.844C150.052 102.48 150.079 99.0871 150.219 95.7188C150.221 95.667 150.217 95.6143 150.219 95.5625C151.51 95.7639 152.811 95.9002 154.094 96.125C158.772 96.9449 163.438 97.935 167.969 99.375C170.674 100.235 173.301 101.305 175.875 102.5C176.587 102.83 177.272 103.171 177.969 103.531C178.113 103.606 178.266 103.665 178.406 103.75C178.741 103.978 179.07 104.214 179.406 104.438C179.599 104.358 179.361 103.339 178.875 102.156C178.389 100.973 177.849 100.077 177.656 100.156C178.651 102.628 178.949 103.089 178.656 102.625C178.062 101.683 177.637 100.601 177 99.6875C176.818 99.4268 176.481 99.3356 176.219 99.1562C175.945 98.9689 175.681 98.7801 175.406 98.5938C174.715 98.1252 174.014 97.6714 173.312 97.2188C171.406 95.9885 169.366 94.9865 167.312 94.0312C164.966 92.9401 162.565 91.9265 160.125 91.0625C156.935 89.9328 153.676 89.0834 150.375 88.3438C150.375 84.7413 150.221 81.1395 149.594 77.5938C149.331 76.1091 149.02 74.6369 148.5 73.2188C147.887 71.5449 147.013 69.956 146.062 68.4062C146.853 63.9158 147.916 59.4555 149.688 55.25C152.851 47.7389 161.112 45.6163 168.531 47.0625C169.873 47.3241 171.189 47.7383 172.469 48.25C173.035 49.1139 173.575 49.9958 174.062 50.9062C175.561 53.7053 176.717 56.6914 177.562 59.75C180.298 69.6453 180.43 80.0572 180.156 90.25C180.077 93.191 179.955 96.1226 179.844 99.0625C179.798 100.281 179.726 101.5 179.688 102.719C179.675 103.114 180.05 103.944 179.656 103.906C179.11 103.854 179.658 103.909 179.625 105.094C179.233 105.612 181.508 107.968 184.688 110.375C187.867 112.782 190.764 114.331 191.156 113.812C191.35 106.841 191.768 99.7756 191.781 92.75C191.795 85.7244 191.409 78.7262 189.938 71.8438C188.184 63.6412 184.728 55.6354 178.562 49.7812C176.8 48.1078 174.917 46.546 172.969 45.0938C171.372 43.9032 169.719 42.7883 168 41.7812C166.58 40.9491 165.116 40.19 163.594 39.5625C159.657 37.9401 154.929 37.0694 150.531 37.5938ZM120.469 52.7188C124.387 52.9479 128.326 54.3407 131.469 56.4375C131.486 56.453 131.489 56.4586 131.5 56.4688C131.584 56.5477 131.638 56.6371 131.719 56.7188C131.853 56.8536 131.995 56.9864 132.125 57.125C132.488 57.5127 132.786 57.8365 133.125 58.25C133.599 58.8283 133.951 59.5087 134.375 60.125C132.935 68.5638 132.761 77.2373 133.406 85.7812C132.967 85.7732 132.534 85.709 132.094 85.7188C125.56 85.8637 119.039 87.771 113.281 91C112.125 90.3015 110.956 89.604 109.781 88.9375C109.344 88.6896 108.599 88.7442 108.125 88.8438C108.075 88.8543 108.05 88.9248 108 88.9375C107.363 88.8985 106.722 88.8791 106.062 88.8125C105.936 88.7997 105.814 88.7628 105.688 88.75C105.522 88.3098 105.305 87.8834 105.156 87.4375C103.302 81.8703 102.518 75.7856 103.125 69.9375C103.478 66.5369 104.327 63.1389 106.094 60.1875C107.029 58.6248 108.198 57.176 109.594 56C112.661 53.416 116.55 52.4896 120.469 52.7188Z" fill="#f1f1f1" stroke="none"/>
</g>
<path d="M230.346 134.218C230.325 134.35 206.711 91.9148 162.231 66.1057C109.778 35.6701 38.7234 23.784 38.7234 23.784L237.715 27.1196C237.715 27.1196 234.298 110.114 230.346 134.218Z" fill="#dddddd" fill-rule="evenodd" filter="url(#Filter_6)" stroke="none" vectornator:shadowAngle="1.5708" vectornator:shadowColor="#bebebe" vectornator:shadowOffset="1" vectornator:shadowOpacity="0.630858" vectornator:shadowRadius="3"/>
<g opacity="1">
<path d="M55.5786 157.701C69.8315 157.701 84.0669 159.802 98.3432 159.615C124.071 159.279 149.812 157.234 175.546 159.158C188.102 160.097 200.919 159.821 213.515 159.821C217.431 159.821 221.334 160.022 225.248 160.113C226.754 160.148 228.269 160.301 229.773 160.365C229.894 160.371 230.438 160.4 230.29 160.247" fill="#b3b3b3" fill-rule="evenodd" opacity="1" stroke="#a09b9a" stroke-linecap="round" stroke-linejoin="round" stroke-width="1"/>
<path d="M59.0098 170.704C70.7664 170.704 82.5784 169.41 94.3219 169.287C113.284 169.089 132.55 168.943 151.487 169.979C168.197 170.894 184.895 172.05 201.637 172.359C212.201 172.554 222.717 171.236 233.243 171.236" fill="#b3b3b3" fill-rule="evenodd" opacity="1" stroke="#a09b9a" stroke-linecap="round" stroke-linejoin="round" stroke-width="1"/>
<path d="M51.7129 183.132C82.808 180.144 114.33 180.798 145.499 181.642C156.266 181.934 167.047 181.593 177.817 181.816C191.12 182.091 204.358 183.119 217.66 183.383C222.016 183.47 226.383 183.383 230.741 183.383C231.98 183.383 233.22 183.395 234.459 183.383C234.886 183.379 235.311 183.338 235.737 183.327C236.148 183.317 236.839 183.327 236.554 183.327" fill="#b3b3b3" fill-rule="evenodd" opacity="1" stroke="#a09b9a" stroke-linecap="round" stroke-linejoin="round" stroke-width="1"/>
<path d="M143.242 158.381C143.242 163.709 143.192 169.116 143.397 174.439C143.453 175.882 143.564 177.318 143.611 178.762C143.614 178.869 143.583 181.243 143.731 180.681" fill="#b3b3b3" fill-rule="evenodd" opacity="1" stroke="#a09b9a" stroke-linecap="round" stroke-linejoin="round" stroke-width="1"/>
<path d="M155.223 159.917C156.183 165.76 157.64 171.547 158.577 177.373C158.71 178.196 159.337 182.121 159.94 181.65" fill="#b3b3b3" fill-rule="evenodd" opacity="1" stroke="#a09b9a" stroke-linecap="round" stroke-linejoin="round" stroke-width="1"/>
<path d="M170.746 160.891C170.833 162.641 170.826 163.596 171.054 165.207C171.696 169.743 172.36 175.221 173.742 179.671C173.917 180.233 174.552 178.84 174.951 178.418" fill="#b3b3b3" fill-rule="evenodd" opacity="1" stroke="#a09b9a" stroke-linecap="round" stroke-linejoin="round" stroke-width="1"/>
<path d="M183.504 160.712C185.03 165.496 186.679 170.234 188.157 175.036C188.363 175.706 190.32 182.278 190.502 181.512" fill="#b3b3b3" fill-rule="evenodd" opacity="1" stroke="#a09b9a" stroke-linecap="round" stroke-linejoin="round" stroke-width="1"/>
<path d="M199.623 161.119C201.214 167.607 204.516 173.877 209.113 178.612C210.007 179.533 210.85 180.553 211.609 181.598C211.921 182.027 212.1 183.305 212.476 182.936" fill="#b3b3b3" fill-rule="evenodd" opacity="1" stroke="#a09b9a" stroke-linecap="round" stroke-linejoin="round" stroke-width="1"/>
<path d="M218.091 162.77C218.976 168.316 222.286 173.235 225.035 177.955C225.752 179.186 226.207 180.562 226.756 181.883C227.006 182.484 227.561 184.26 227.651 183.612" fill="#b3b3b3" fill-rule="evenodd" opacity="1" stroke="#a09b9a" stroke-linecap="round" stroke-linejoin="round" stroke-width="1"/>
<path d="M132.487 160.582C130.9 163.988 131.268 170.667 130.637 174.537C130.448 175.699 130.368 176.893 130.204 178.062C130.142 178.498 130.293 179.677 129.992 179.366" fill="#b3b3b3" fill-rule="evenodd" opacity="1" stroke="#a09b9a" stroke-linecap="round" stroke-linejoin="round" stroke-width="1"/>
<path d="M117.194 160.943C115.978 162.269 116.585 164.549 116.274 166.35C115.809 169.039 115.143 171.519 114.577 174.159C114.302 175.446 114.067 176.736 113.899 178.043C113.852 178.413 113.662 179.89 113.593 179.475" fill="#b3b3b3" fill-rule="evenodd" opacity="1" stroke="#a09b9a" stroke-linecap="round" stroke-linejoin="round" stroke-width="1"/>
<path d="M102.908 160.652C101.135 163.038 100.87 170.726 99.7336 174.109C99.3978 175.108 98.5094 176.912 98.1404 177.767C98.012 178.064 97.8551 179.465 97.9212 179.101" fill="#b3b3b3" fill-rule="evenodd" opacity="1" stroke="#a09b9a" stroke-linecap="round" stroke-linejoin="round" stroke-width="1"/>
<path d="M86.7063 159.256C85.4987 164.157 83.801 168.611 82.0116 173.279C81.4738 174.681 81.3568 176.143 80.8048 177.533C80.5302 178.224 79.9879 180.358 79.9879 179.61" fill="#b3b3b3" fill-rule="evenodd" opacity="1" stroke="#a09b9a" stroke-linecap="round" stroke-linejoin="round" stroke-width="1"/>
<path d="M71.6826 159.113C68.3319 163.64 66.911 170.398 64.1999 175.476C64.1363 175.595 62.4412 179.969 62.1884 179.969" fill="#b3b3b3" fill-rule="evenodd" opacity="1" stroke="#a09b9a" stroke-linecap="round" stroke-linejoin="round" stroke-width="1"/>
</g>
<path d="M758.332 129.265C752.936 129.729 747.51 129.82 742.099 130.07C740.354 130.15 735.033 131.173 733.376 131.905C726.499 134.941 726.844 144.223 726.53 146.331C726.141 148.931 726.648 151.661 727.424 154.161C729.156 159.747 744.26 159.468 749.652 159.63C752.115 159.704 754.597 159.894 757.058 159.864C757.983 159.853 757.59 159.852 759.209 159.905C759.381 159.91 760.206 159.815 759.957 159.818" fill="#5e5e5e" fill-rule="evenodd" filter="url(#Filter_7)" stroke="#a6a6a6" stroke-linecap="round" stroke-linejoin="round" stroke-width="12" vectornator:shadowAngle="1.5708" vectornator:shadowColor="#000000" vectornator:shadowOffset="1" vectornator:shadowOpacity="0.630858" vectornator:shadowRadius="3"/>
<path d="M763.23 119.845C762.328 128.659 762.838 137.614 762.82 146.46C762.809 151.493 762.372 156.513 762.638 161.547C762.813 164.867 763.235 168.105 763.279 171.423" fill="none" fill-rule="evenodd" filter="url(#Filter_8)" stroke="#f1f1f1" stroke-linecap="round" stroke-linejoin="round" stroke-width="8" vectornator:shadowAngle="1.5708" vectornator:shadowColor="#000000" vectornator:shadowOffset="1" vectornator:shadowOpacity="0.630858" vectornator:shadowRadius="3"/>
<path d="M745.494 144.009C745.712 144.009 745.569 143.595 745.569 143.847L741.937 145.01C741.937 145.262 744.648 144.478 744.43 144.478C744.43 144.478 743.8 144.717 743.8 144.465L743.8 144.465C743.8 144.213 745.494 144.009 745.494 144.009Z" fill="#5e5e5e" fill-rule="evenodd" opacity="1" stroke="#a6a6a6" stroke-linecap="round" stroke-linejoin="round" stroke-width="12"/>
<g fill="#ffffff" opacity="1" stroke="#e4e4e4" stroke-linecap="round" stroke-linejoin="round" stroke-width="1.38061">
<path clip-path="url(#TextBounds)" d="M87.4529 90.4431C86.0009 90.6741 84.8129 93.5121 84.0539 94.8321C82.6679 97.9011 82.4699 99.5841 82.3709 102.818C81.8429 115.787 91.1819 115.787 94.0199 109.781C97.5179 102.422 93.2609 89.4861 87.4529 90.4431ZM87.6179 94.4361C90.5879 92.8191 94.1519 100.904 91.6769 107.405C90.0599 110.507 88.2119 110.837 86.6279 108.626C84.4499 105.161 84.2519 96.2511 87.6179 94.4361Z" fill-rule="evenodd"/>
<path clip-path="url(#TextBounds)" d="M103.26 90.4431C101.808 90.6741 100.62 93.5121 99.8609 94.8321C98.4749 97.9011 98.2769 99.5841 98.1779 102.818C97.6499 115.787 106.989 115.787 109.827 109.781C113.325 102.422 109.068 89.4861 103.26 90.4431ZM103.425 94.4361C106.395 92.8191 109.959 100.904 107.484 107.405C105.867 110.507 104.019 110.837 102.435 108.626C100.257 105.161 100.059 96.2511 103.425 94.4361Z" fill-rule="evenodd"/>
<path clip-path="url(#TextBounds)" d="M119.067 90.4431C117.615 90.6741 116.427 93.5121 115.668 94.8321C114.282 97.9011 114.084 99.5841 113.985 102.818C113.457 115.787 122.796 115.787 125.634 109.781C129.132 102.422 124.875 89.4861 119.067 90.4431ZM119.232 94.4361C122.202 92.8191 125.766 100.904 123.291 107.405C121.674 110.507 119.826 110.837 118.242 108.626C116.064 105.161 115.866 96.2511 119.232 94.4361Z" fill-rule="evenodd"/>
<path clip-path="url(#TextBounds)" d="M134.874 90.4431C133.422 90.6741 132.234 93.5121 131.475 94.8321C130.089 97.9011 129.891 99.5841 129.792 102.818C129.264 115.787 138.603 115.787 141.441 109.781C144.939 102.422 140.682 89.4861 134.874 90.4431ZM135.039 94.4361C138.009 92.8191 141.573 100.904 139.098 107.405C137.481 110.507 135.633 110.837 134.049 108.626C131.871 105.161 131.673 96.2511 135.039 94.4361Z" fill-rule="evenodd"/>
<path clip-path="url(#TextBounds)" d="M150.681 90.4431C149.229 90.6741 148.041 93.5121 147.282 94.8321C145.896 97.9011 145.698 99.5841 145.599 102.818C145.071 115.787 154.41 115.787 157.248 109.781C160.746 102.422 156.489 89.4861 150.681 90.4431ZM150.846 94.4361C153.816 92.8191 157.38 100.904 154.905 107.405C153.288 110.507 151.44 110.837 149.856 108.626C147.678 105.161 147.48 96.2511 150.846 94.4361Z" fill-rule="evenodd"/>
<path clip-path="url(#TextBounds)" d="M166.488 90.4431C165.036 90.6741 163.848 93.5121 163.089 94.8321C161.703 97.9011 161.505 99.5841 161.406 102.818C160.878 115.787 170.217 115.787 173.055 109.781C176.553 102.422 172.296 89.4861 166.488 90.4431ZM166.653 94.4361C169.623 92.8191 173.187 100.904 170.712 107.405C169.095 110.507 167.247 110.837 165.663 108.626C163.485 105.161 163.287 96.2511 166.653 94.4361Z" fill-rule="evenodd"/>
<path clip-path="url(#TextBounds)" d="M184.308 109.319C181.932 96.8121 188.367 90.5091 183.912 90.5091C183.648 90.5091 183.252 90.6081 183.087 90.6411C181.965 90.9381 182.295 95.0961 180.81 96.7461C179.622 97.9671 177.147 100.178 177.114 100.541C176.619 102.191 180.348 101.102 181.338 100.31C181.305 100.805 180.975 108.164 180.579 110.507C180.513 110.903 179.655 113.609 181.107 113.609L184.209 113.609C185.463 113.609 184.737 111.728 184.704 111.398L184.308 109.319Z" fill-rule="evenodd"/>
<path clip-path="url(#TextBounds)" d="M196.254 109.319C193.878 96.8121 200.313 90.5091 195.858 90.5091C195.594 90.5091 195.198 90.6081 195.033 90.6411C193.911 90.9381 194.241 95.0961 192.756 96.7461C191.568 97.9671 189.093 100.178 189.06 100.541C188.565 102.191 192.294 101.102 193.284 100.31C193.251 100.805 192.921 108.164 192.525 110.507C192.459 110.903 191.601 113.609 193.053 113.609L196.155 113.609C197.409 113.609 196.683 111.728 196.65 111.398L196.254 109.319Z" fill-rule="evenodd"/>
</g>
</g>
</svg>
