<?xml version="1.0" encoding="UTF-8" standalone="no"?>
<!DOCTYPE svg PUBLIC "-//W3C//DTD SVG 1.1//EN" "http://www.w3.org/Graphics/SVG/1.1/DTD/svg11.dtd">
<!-- Created with Vectornator (http://vectornator.io/) -->
<svg height="100%" stroke-miterlimit="10" style="fill-rule:nonzero;clip-rule:evenodd;stroke-linecap:round;stroke-linejoin:round;" version="1.1" viewBox="0 0 800 220" width="100%" xml:space="preserve" xmlns="http://www.w3.org/2000/svg" xmlns:xlink="http://www.w3.org/1999/xlink">
<defs>
<filter color-interpolation-filters="sRGB" filterUnits="userSpaceOnUse" height="134.044" id="Filter" width="225.296" x="24.9378" y="12.4352">
<feDropShadow dx="-3.61999e-06" dy="1" flood-color="#000000" flood-opacity="0.630858" in="SourceGraphic" result="Shadow" stdDeviation="1.5"/>
</filter>
<filter color-interpolation-filters="sRGB" filterUnits="userSpaceOnUse" height="10.3983" id="Filter_2" width="28.112" x="763.439" y="128.772">
<feDropShadow dx="-3.61999e-06" dy="1" flood-color="#000000" flood-opacity="0.630858" in="SourceGraphic" result="Shadow" stdDeviation="1.5"/>
</filter>
<filter color-interpolation-filters="sRGB" filterUnits="userSpaceOnUse" height="10.4419" id="Filter_3" width="29.459" x="762.42" y="155.235">
<feDropShadow dx="-3.61999e-06" dy="1" flood-color="#000000" flood-opacity="0.630858" in="SourceGraphic" result="Shadow" stdDeviation="1.5"/>
</filter>
<filter color-interpolation-filters="sRGB" filterUnits="userSpaceOnUse" height="75.7357" id="Filter_4" width="266.984" x="9.77333" y="140.148">
<feDropShadow dx="-2.53399e-05" dy="7" flood-color="#000000" flood-opacity="0.630858" in="SourceGraphic" result="Shadow" stdDeviation="3.5"/>
</filter>
<filter color-interpolation-filters="sRGB" filterUnits="userSpaceOnUse" height="48.6402" id="Filter_5" width="51.6074" x="717.396" y="121.265">
<feDropShadow dx="-3.61999e-06" dy="1" flood-color="#000000" flood-opacity="0.630858" in="SourceGraphic" result="Shadow" stdDeviation="1.5"/>
</filter>
<filter color-interpolation-filters="sRGB" filterUnits="userSpaceOnUse" height="65.578" id="Filter_6" width="14.7267" x="755.552" y="113.845">
<feDropShadow dx="-3.61999e-06" dy="1" flood-color="#000000" flood-opacity="0.630858" in="SourceGraphic" result="Shadow" stdDeviation="1.5"/>
</filter>
<clipPath id="TextBounds">
<rect height="98.6345" width="496.573" x="43.3045" y="9.97898"/>
</clipPath>
<filter color-interpolation-filters="sRGB" filterUnits="userSpaceOnUse" height="50.8133" id="Filter_7" width="184.701" x="48.5721" y="49.2449">
<feDropShadow dx="-3.61999e-06" dy="1" flood-color="#000000" flood-opacity="0.630858" in="SourceGraphic" result="Shadow" stdDeviation="0.5"/>
</filter>
</defs>
<g id="Слой-1">
<path d="M424.094 100.438C423.698 100.388 423.508 100.829 423.406 101.125C423.161 101.835 423.092 102.613 422.812 103.312C422.652 103.715 422.409 104.064 422.188 104.438C421.667 105.316 421.116 106.198 420.625 107.094C420.305 107.678 420.098 108.307 419.75 108.875C419.468 109.335 419.122 109.745 418.812 110.188C418.506 110.626 418.252 111.119 417.875 111.5C417.519 111.86 417.071 112.085 416.656 112.375C415.814 112.964 414.9 113.5 413.969 113.938C410.838 115.409 407.319 116.61 405.281 119.594C403.878 121.648 404.543 124.401 404.906 126.688C405.195 128.505 405.559 130.325 405.75 132.156C405.845 133.069 405.913 134.024 405.781 134.938C405.633 135.966 404.973 136.819 404.5 137.719C403.457 139.705 401.946 141.832 400.062 143.156C399.061 142.378 398.027 141.674 396.906 141.094C395.611 140.424 394.78 141.11 394 142.031C393.992 140.913 394.145 139.762 393.531 138.781C393.013 137.953 392.245 137.165 391.531 136.562C390.399 135.608 389.215 134.722 388 133.875C387.308 133.392 386.378 132.9 385.5 132.781C382.068 132.316 380.541 135.427 378.281 137.281C377.612 137.83 376.857 138.305 376.156 138.812C375.386 139.371 374.627 139.933 373.781 140.375C372.875 140.85 371.902 141.205 370.969 141.625C370.233 141.956 369.487 142.196 368.75 142.438C368.408 141.823 368.107 141.184 367.812 140.562C367.264 139.407 367.335 138.077 366.812 136.906C365.946 134.964 363.779 133.231 362.156 132.031C361.417 131.484 360.667 130.968 359.875 130.5C359.428 130.235 358.96 130.013 358.469 129.844C358.317 129.791 358.127 129.816 357.969 129.844C357.338 129.956 357.058 131.619 356.875 132.125C356.586 132.925 355.965 133.611 355.5 134.312C354.694 135.531 353.904 136.733 353.125 137.969C351.209 141.007 349.41 144.139 347.844 147.375C346.258 150.651 344.802 153.972 343.156 157.219C342.802 154.819 342.434 152.422 342.031 150.031C340.612 141.611 338.77 133.284 337.469 124.844C337.147 122.755 337.06 120.624 336.781 118.531C336.625 117.361 336.282 116.247 336.062 115.094C335.96 114.555 335.98 114.002 335.844 113.469C335.689 112.862 335.371 112.329 334.938 111.875C334.296 111.203 333.616 110.536 332.906 109.938C332.069 109.232 331.181 108.593 330.281 107.969C329.85 107.669 329.4 107.406 328.938 107.156C328.43 106.882 327.722 106.626 327.125 106.688C326.676 106.734 326.47 107.058 326.406 107.469C326.312 108.073 326.469 108.682 326.344 109.281C326.195 109.995 325.699 110.804 325.406 111.469C325.262 111.796 325.144 112.141 325 112.469C324.711 113.124 324.417 113.784 324.125 114.438C322.583 117.89 321.047 121.36 319.188 124.656C316.912 128.689 314.211 132.456 311.656 136.312C310.195 138.519 308.675 140.732 307.531 143.125C306.344 145.609 305.393 148.262 303.656 150.438C302.959 151.311 302.066 152.06 301.125 152.719C301 152.169 300.779 151.648 300.688 151.094C300.071 147.363 300.316 143.517 299.594 139.812C299.384 138.738 299.866 137.594 299.062 136.656C298.545 136.053 298.038 135.457 297.438 134.938C296.362 134.007 295.224 133.164 294.062 132.344C293.61 132.024 293.088 131.782 292.594 131.531C292.067 131.264 291.237 131.054 290.688 131.375C289.845 131.866 290.38 133.481 290.125 134.281C289.958 134.806 289.788 135.318 289.625 135.844C289.048 137.704 288.581 139.588 287.875 141.406C287.49 142.398 286.964 143.314 286.531 144.281C285.935 145.613 285.451 146.74 283.844 146.969C282.696 147.132 281.513 146.787 280.375 146.656C279.017 146.5 277.613 146.514 276.25 146.469C270.626 146.282 264.997 146.175 259.375 146.469C256.968 146.594 254.429 146.729 252.094 147.375C251.179 147.628 250.305 148.014 249.406 148.312C248.448 148.631 247.454 148.847 246.469 149.062C242.539 149.921 238.511 150.408 234.531 150.969C234.273 151.28 235.62 152.819 237.531 154.406C239.442 155.993 241.21 157.03 241.469 156.719C245.463 156.156 249.463 155.674 253.406 154.812C254.407 154.594 255.433 154.386 256.406 154.062C257.952 153.549 259.34 152.963 260.969 152.719C265.389 152.055 269.917 152.08 274.375 152.062C278.32 152.047 282.246 152.19 286.188 152.344C288.068 152.417 290.233 153.27 292 152.312C293.15 151.689 293.417 150.394 293.969 149.312C294.12 149.017 294.208 148.705 294.344 148.406C294.627 149.469 294.777 150.551 295.219 151.594C295.593 152.478 295.595 153.451 296.25 154.219C297.801 156.037 299.755 157.482 301.719 158.844C302.508 159.391 303.491 159.83 304.469 159.875C305.666 159.931 306.804 159.386 307.781 158.75C309.76 157.462 311.204 155.754 312.344 153.688C312.688 153.063 313.042 152.334 313.344 151.688C313.803 150.704 314.219 149.698 314.688 148.719C315.263 147.515 315.949 146.384 316.656 145.25C319.807 140.201 323.416 135.439 326.344 130.25C327.503 128.195 328.51 126.078 329.5 123.938C329.921 123.027 330.33 122.101 330.75 121.188C331.13 123.591 331.398 126.004 331.844 128.406C332.761 133.345 333.724 138.271 334.594 143.219C335.361 147.584 335.964 151.968 336.656 156.344C336.984 158.416 337.44 160.467 337.812 162.531C337.983 163.477 337.55 164.46 337.719 165.406C337.738 165.517 337.755 165.623 337.812 165.719C338.015 166.057 338.199 166.433 338.5 166.688C340.291 168.204 342.155 169.633 344.062 171C344.312 171.179 344.793 171.351 345.156 171.281C345.867 171.145 346.822 169.949 347.188 169.375C347.796 168.419 348.151 167.316 348.594 166.281C348.968 165.409 349.465 164.59 349.906 163.75C350.174 163.241 350.431 162.734 350.688 162.219C352.718 158.141 354.416 153.895 356.562 149.875C358.413 146.41 360.62 143.193 362.75 139.906C362.901 140.732 362.943 141.59 363.375 142.344C363.817 143.115 364.541 143.911 365.156 144.469C365.981 145.217 366.86 145.924 367.75 146.594C368.985 147.523 370.42 148.486 372 148.719C374.096 149.028 376.13 148.186 378 147.344C378.939 146.921 379.931 146.54 380.844 146.062C381.981 145.467 382.958 144.679 384 143.938C384.377 143.669 385 143.246 385.375 142.938C386.231 142.235 386.99 141.445 387.75 140.656C387.918 141.173 388.128 141.685 388.219 142.188C388.409 143.242 388.03 144.437 388.812 145.344C389.469 146.105 390.098 146.894 390.875 147.531C392.244 148.653 393.737 149.626 395.219 150.594C395.528 150.795 396.188 151.013 396.625 151.094C398.004 151.348 398.774 150.005 399.594 149.156C399.99 148.746 400.47 148.438 400.844 148C400.881 147.956 400.932 147.921 400.969 147.875C401.225 148.065 401.427 148.317 401.688 148.5C403.074 149.471 404.369 150.133 406.031 149.5C407.386 148.984 408.344 147.838 409.312 146.812C410.539 145.514 411.286 143.999 412.125 142.438C412.5 141.74 412.857 141.215 412.969 140.438C413.141 139.239 412.997 137.973 412.844 136.781C412.513 134.209 411.964 131.68 411.75 129.094C411.713 128.648 411.588 128.196 411.625 127.75C411.676 127.126 411.839 126.512 412 125.906C412.129 125.421 412.875 124.599 413.219 124.219C414.379 122.934 415.863 122.032 417.406 121.281C419.067 120.474 420.871 119.892 422.469 118.969C422.917 118.709 423.294 118.36 423.719 118.062C424.146 117.763 424.633 117.527 425 117.156C425.386 116.766 425.654 116.262 425.969 115.812C426.281 115.366 426.622 114.933 426.906 114.469C427.187 114.011 427.414 113.521 427.656 113.031C427.897 113.865 428.135 114.698 428.375 115.531C431.833 127.518 434.76 139.683 436.406 152.062C437.047 156.878 437.701 161.716 438.344 166.531C438.474 167.508 437.551 168.971 438.094 169.844C438.322 170.211 438.522 170.618 438.844 170.906C440.3 172.209 441.834 173.435 443.406 174.594C443.889 174.949 444.455 175.157 445 175.406C445.369 175.575 445.841 175.537 446.219 175.438C448.087 174.944 447.616 172.822 448.438 171.5C449.045 170.523 449.707 169.583 450.344 168.625C452.227 165.793 454.097 162.933 455.969 160.094C456.587 159.155 457.213 158.232 457.812 157.281C457.894 157.152 457.893 157.023 457.875 156.875C457.804 156.309 457.457 155.778 457.156 155.312C456.52 154.329 455.743 153.442 455.094 152.469C454.923 152.213 454.785 151.95 454.625 151.688C454.618 151.638 454.628 151.625 454.625 151.594C454.615 151.473 454.577 151.266 454.656 151.156C454.917 150.795 455.405 150.596 455.875 150.469C457.494 150.029 459.229 150.184 460.875 149.969C461.447 149.894 462.055 149.863 462.594 149.656C463.01 149.496 463.353 149.201 463.688 148.906C464.167 148.483 464.501 147.623 464.781 147.062C465.318 145.988 465.905 144.928 466.656 144C466.902 144.509 467.253 145.021 467.625 145.406C468.219 146.023 468.842 146.64 469.5 147.188C470.381 147.92 471.308 148.598 472.25 149.25C473.193 149.903 474.287 150.495 475.438 150.688C478.042 151.124 480.2 149.14 482.406 148.125C483.963 147.409 485.621 146.902 487.219 146.281C489.659 145.334 492.078 144.35 494.531 143.438C495.144 143.21 495.758 143.007 496.344 142.719C496.864 142.463 497.407 142.156 497.969 141.906C499.236 142.897 500.486 143.903 501.812 144.812C502.198 145.077 502.684 145.187 503.125 145.344C503.97 145.644 504.991 145.649 505.875 145.594C507.286 145.506 508.506 145.282 509.719 144.844C510.394 145.842 511.164 146.771 512.094 147.531C513.272 148.494 514.513 149.378 515.781 150.219C516.299 150.562 517.05 150.904 517.719 150.969C518.639 151.058 519.686 150.593 520.469 150.156C522.078 149.257 523.423 147.847 524.844 146.688C525.48 146.168 526.127 145.629 526.75 145.094C528.891 143.253 530.961 141.326 533.031 139.406C535.152 137.439 537.249 135.464 539.188 133.312C541.525 130.718 543.653 127.953 545.656 125.094C545.953 124.671 546.19 124.211 546.469 123.781C546.731 125.871 547.022 127.967 547.188 130.062C547.396 132.702 547.355 135.356 547.281 138C547.179 141.644 546.982 145.291 547.031 148.938C547.088 153.12 547.507 157.483 549.312 161.312C550.704 164.263 552.945 166.618 555.406 168.719C555.914 169.152 556.436 169.536 556.969 169.938C556.991 169.962 556.986 169.984 557 170C557.046 170.054 557.081 170.101 557.125 170.156C557.246 170.309 557.362 170.461 557.469 170.625C557.83 171.183 558.098 171.789 558.25 172.438C558.799 174.783 557.59 176.907 556.875 179.062C556.58 179.952 556.318 180.742 556.25 181.688C556.193 182.48 556.393 183.15 556.219 183.906C555.987 184.91 555.344 185.921 555.375 186.969C555.386 187.328 555.561 187.785 555.812 188.031C557.053 189.248 558.315 190.466 559.688 191.531C560.509 192.169 561.458 192.633 562.375 193.125C562.587 193.239 562.966 193.289 563.219 193.281C566.205 193.189 566.314 190.399 567.375 188.344C568.142 186.857 569.197 185.517 570.031 184.062C571.761 181.045 573.299 177.912 574.875 174.812C581.24 162.297 587.186 149.551 593.906 137.219C595.16 134.918 596.405 132.56 597.906 130.406C598.576 129.446 599.34 128.514 600.094 127.594C600.232 128.26 600.367 128.931 600.5 129.594C601.092 132.544 601.725 135.461 602.344 138.406C602.61 139.672 602.949 140.967 603.125 142.25C603.559 145.413 603.079 148.698 604.781 151.562C604.936 151.823 605.401 152.518 605.594 152.719C606.328 153.485 607.044 154.309 607.875 154.969C609.086 155.93 610.411 156.769 611.719 157.594C612.051 157.804 612.558 157.922 612.969 157.844C613.951 157.658 614.81 156.615 615.469 155.969C615.97 155.477 616.517 155.039 617.031 154.562C617.682 153.959 618.21 153.243 618.812 152.594C619.187 152.191 619.546 151.84 619.844 151.375C619.919 151.257 619.991 151.126 620.062 151C620.153 151.063 620.217 151.162 620.312 151.219C621.399 151.872 622.491 152.53 623.594 153.156C623.693 153.213 623.794 153.228 623.906 153.25C625.639 153.595 627.152 152.517 628.469 151.531C629.159 151.015 629.917 150.54 630.562 149.969C631.481 149.156 632.171 148.119 633.062 147.281C633.903 146.491 634.869 145.741 635.781 145.031C636.063 144.812 636.414 144.718 636.719 144.531C637.538 145.132 638.331 145.783 639.156 146.375C639.387 146.541 639.671 146.619 639.938 146.719C641.03 147.126 642.232 147.09 643.375 147.094C644.547 147.098 645.734 147.107 646.906 147.094C651.908 147.038 656.903 146.691 661.906 146.812C666.211 146.917 670.507 147.348 674.812 147.469C683.994 147.727 693.161 147.801 702.344 148C711.649 148.202 720.954 148.508 730.25 148.969C730.509 148.665 729.209 147.15 727.344 145.562C725.478 143.975 723.759 142.946 723.5 143.25C711.393 142.65 699.275 142.315 687.156 142.094C679.614 141.956 672.032 141.985 664.5 141.562C660.975 141.365 657.47 141.065 653.938 141.031C650.696 141 647.457 141.147 644.219 141.25C642.04 141.319 639.867 141.354 637.688 141.344C636.534 140.393 635.397 139.44 634.188 138.562C633.784 138.27 633.124 137.946 632.562 137.875C631.161 137.697 629.711 138.554 628.656 139.375C627.738 140.09 626.784 140.829 625.938 141.625C624.933 142.569 624.196 143.779 623.094 144.625C622.469 145.104 621.761 145.529 621.094 146C620.376 145.389 619.691 144.753 618.938 144.188C618.313 143.719 617.571 143.384 616.875 143.031C616.518 142.85 616.029 142.774 615.625 142.781C613.834 142.815 613.34 144.998 612.438 146.156C611.823 146.945 611.06 147.59 610.344 148.281C610.322 148.052 610.344 147.822 610.312 147.594C610.066 145.799 609.594 144.021 609.219 142.25C608.291 137.866 607.198 133.47 606.562 129.031C606.248 126.837 606.837 124.562 606.219 122.406C606.088 121.952 605.852 121.138 605.5 120.812C603.861 119.297 602.259 117.708 600.469 116.375C599.847 115.912 599.078 115.72 598.344 115.469C598.106 115.387 597.595 116.166 597.5 116.312C596.797 117.397 596.338 118.143 595.438 119.125C595.144 119.445 594.823 119.741 594.531 120.062C593.195 121.534 591.888 123.149 590.75 124.781C588.641 127.806 586.959 131.177 585.25 134.438C578.125 148.033 571.566 161.891 564.469 175.5C563.231 173.399 561.219 171.564 559.562 170.156C559.155 169.81 558.622 169.39 558.125 169C556.624 167.189 555.718 164.989 555.156 162.719C554.335 159.401 554.24 155.962 554.25 152.562C554.26 148.916 554.477 145.27 554.531 141.625C554.562 139.566 554.537 137.522 554.375 135.469C554.121 132.255 553.593 129.055 553.281 125.844C553.05 123.463 552.765 121.095 552.5 118.719C552.376 117.605 553.121 116.329 552.281 115.344C551.831 114.815 551.407 114.258 550.875 113.812C549.544 112.698 548.146 111.677 546.719 110.688C546.369 110.445 545.955 110.289 545.562 110.125C544.752 109.787 543.678 110.187 543.188 110.875C542.602 111.695 542.667 112.767 542.156 113.625C540.729 116.022 539.293 118.39 537.656 120.656C537.107 121.417 536.479 122.288 535.906 123.031C531.202 129.14 525.458 134.422 519.625 139.438C518.557 140.356 517.45 141.216 516.375 142.125C515.588 142.791 514.852 143.51 514 144.094C513.754 143.713 513.589 143.339 513.188 142.938C511.682 141.431 509.993 140.024 508.156 138.938C507.527 138.565 506.498 137.972 505.656 137.969C504.495 137.965 503.524 139.094 502.438 139.406C501.435 139.694 500.304 139.749 499.219 139.781C499.17 139.738 499.142 139.667 499.094 139.625C498.284 138.926 497.427 138.255 496.562 137.625C495.454 136.818 493.924 135.738 492.438 135.781C491.302 135.814 490.298 136.547 489.312 137.031C488.737 137.314 488.133 137.495 487.531 137.719C484.024 139.022 480.562 140.426 477.062 141.75C476.265 142.052 475.473 142.352 474.719 142.75C473.856 143.205 473.024 143.711 472.156 144.156C472.116 144.093 472.105 144.033 472.062 143.969C470.488 141.552 468.526 139.801 466.156 138.062C465.505 137.585 464.799 137.205 464.094 136.812C462.001 135.647 460.08 137.226 458.938 138.969C458.292 139.953 457.873 141.064 457.312 142.094C457.096 142.492 456.932 142.948 456.594 143.25C456.288 143.523 455.946 143.791 455.562 143.938C455.06 144.13 454.503 144.182 453.969 144.25C452.561 144.43 451.123 144.343 449.719 144.562C449.084 144.661 448.416 144.822 447.875 145.188C446.83 145.893 447.828 147.212 448.312 147.938C448.628 148.411 448.978 148.853 449.312 149.312C449.535 149.618 449.749 149.942 449.969 150.25C450.119 150.461 450.842 151.401 450.656 151.688C448.496 155.018 446.288 158.317 444.094 161.625C443.615 157.869 443.168 154.112 442.531 150.375C440.378 137.73 436.832 125.456 433.375 113.125C433.177 112.42 432.969 111.726 432.875 111C432.715 109.765 432.742 108.554 432.281 107.375C431.81 106.169 430.746 105.027 429.781 104.219C428.71 103.322 427.643 102.427 426.5 101.625C425.891 101.198 425.231 100.858 424.562 100.531C424.419 100.461 424.253 100.457 424.094 100.438Z" fill="#f47777" fill-rule="nonzero" opacity="1" stroke="none"/>
<g filter="url(#Filter)">
<path d="M34.6153 24.2071C27.6836 53.2767 42.2306 138.452 43.6733 138.528C49.224 138.823 228.695 138.653 229.819 137.345C231.405 135.499 239.408 86.3 239.298 80.2856C239.269 78.6607 243.333 23.9598 242.242 22.7936C241.176 21.6551 239.195 22.4703 237.665 22.4447C233.601 22.3766 229.534 22.6137 225.47 22.5128C220.188 22.3816 214.915 21.9597 209.635 21.7484C181.433 20.6198 153.496 18.7576 125.246 18.6223C101.662 18.5093 78.4806 17.4988 54.9403 19.5747C46.8305 20.2899 36.6668 15.6036 34.6153 24.2071Z" fill="#ff3838" fill-rule="evenodd" opacity="1" stroke="none"/>
<path d="M83.3146 14.4378C75.2611 14.4611 67.2329 14.6568 59.1896 15.1253C56.7361 15.2682 54.2648 15.4333 51.8146 15.6253C50.6521 15.7164 49.513 15.8199 48.3459 15.8128C44.2661 15.7878 40.1417 14.7296 36.0646 15.1878C33.9068 15.4303 36.0616 15.2047 29.8146 20.5315C28.039 36.4385 28.2091 31.1044 28.0334 36.4378C27.8262 42.7273 27.9766 49.0293 28.2834 55.3128C29.1187 72.4206 31.0688 89.4623 33.5334 106.406C34.5288 113.25 35.6158 120.112 36.9084 126.906C37.2881 128.902 37.6783 130.9 38.1584 132.875C38.3299 133.581 38.4645 134.583 38.9084 135.188C39.255 135.66 39.5416 136.201 40.0022 136.562C42.5871 138.594 45.3069 140.461 48.0022 142.344C48.1525 142.449 49.293 142.403 49.5022 142.406C50.8495 142.426 52.1859 142.429 53.5334 142.438C58.7613 142.47 63.9929 142.461 69.2209 142.469C89.5228 142.497 109.825 142.464 130.127 142.406C157.325 142.329 184.524 142.243 211.721 141.875C217.357 141.799 222.993 141.739 228.627 141.562C230.12 141.516 231.605 141.449 233.095 141.344C233.461 141.318 234.271 141.381 234.564 141.094C234.956 140.709 235.087 139.842 235.221 139.344C236.082 136.13 236.669 132.829 237.283 129.562C238.15 124.952 238.951 120.347 239.721 115.719C241.299 106.233 242.905 96.6963 243.877 87.1253C244.034 85.5769 244.064 84.0196 244.158 82.4691C244.32 79.7837 244.51 77.122 244.689 74.4378C245.239 66.2284 245.783 57.9941 246.283 49.7815C246.643 43.8645 247.014 37.9575 247.189 32.0315C247.234 30.5155 247.26 28.9857 247.189 27.4691C247.174 27.1417 247.222 26.4965 247.002 26.2191C246.396 25.4568 245.839 24.6331 245.127 23.9691C243.816 22.7464 242.426 21.6098 240.971 20.5628C240 19.8646 238.932 19.3125 237.877 18.7503C237.608 18.6069 237.296 18.5488 237.002 18.4691C235.844 18.1555 234.632 18.5296 233.471 18.5941C232.339 18.6569 231.198 18.5817 230.064 18.5941C225.7 18.6416 221.364 18.7342 217.002 18.5315C197.228 17.6129 177.468 16.5601 157.689 15.7503C150.073 15.4385 142.435 15.1355 134.814 14.9691C125.704 14.77 116.613 14.778 107.502 14.6565C99.4506 14.5492 91.3682 14.4145 83.3146 14.4378ZM84.4084 22.1878C96.5949 22.0204 108.754 22.2325 120.939 22.3753C133.268 22.5197 145.616 22.6254 157.939 23.0628C174.336 23.6448 190.705 24.5672 207.095 25.2815C217.103 25.7177 227.106 26.4948 237.127 26.3128C237.251 26.3105 237.377 26.314 237.502 26.3128C237.458 27.4896 237.433 28.668 237.377 29.8441C237.006 37.5518 236.529 45.2684 236.033 52.9691C235.637 59.1091 235.221 65.2359 234.814 71.3753C234.629 74.1813 234.567 77.0157 234.283 79.8128C233.256 89.9249 231.532 99.9822 229.845 110C229.084 114.52 228.302 119.061 227.439 123.562C226.9 126.374 226.369 129.201 225.627 131.969C225.518 132.374 225.398 132.763 225.252 133.156C225.215 133.254 225.069 133.495 225.064 133.594C225.064 133.595 223.852 133.706 223.658 133.719C221.9 133.831 220.138 133.857 218.377 133.906C217.972 133.918 217.563 133.927 217.158 133.938C216.726 133.949 216.309 133.959 215.877 133.969C215.415 133.98 214.963 133.99 214.502 134C203.503 134.238 192.503 134.346 181.502 134.438C146.757 134.725 111.998 134.804 77.2522 134.812C68.1952 134.815 59.1216 134.812 50.0646 134.781C48.9276 134.777 47.7955 134.786 46.6584 134.781C46.3695 133.293 46.0802 131.805 45.8146 130.312C44.6588 123.816 43.6747 117.315 42.7522 110.781C40.3509 93.7751 38.4195 76.6386 37.7522 59.4691C37.5312 53.7846 37.7613 59.472 39.4084 27.9065C40.2818 25.6758 39.8651 26.3508 40.2834 25.6565C42.7825 21.5087 49.1385 22.8417 53.0959 23.2191C54.8823 23.3894 56.6747 23.5369 58.4709 23.4691C61.2667 23.3634 64.0525 23.038 66.8459 22.8753C72.6879 22.5351 78.5564 22.2682 84.4084 22.1878Z" fill="#ff3838" fill-rule="nonzero" opacity="1" stroke="none"/>
</g>
<path d="M768.439 132.772C772.462 133.028 776.595 133.254 780.623 133.14C782.014 133.101 783.403 133.036 784.798 133.052C785.156 133.056 786.766 133.181 786.527 133.09" fill="none" filter="url(#Filter_2)" stroke="#feff34" stroke-linecap="round" stroke-linejoin="round" stroke-width="4"/>
<path d="M767.42 159.252C772.842 159.18 778.282 159.35 783.698 159.54C784.478 159.568 785.5 159.448 786.312 159.544C786.505 159.567 786.876 159.483 786.879 159.677" fill="none" filter="url(#Filter_3)" stroke="#feff34" stroke-linecap="round" stroke-linejoin="round" stroke-width="4"/>
<g filter="url(#Filter_4)">
<path d="M21.5783 197.977C21.5783 197.977 69.3108 196.137 88.0162 196.279C105.178 196.41 122.299 196.16 139.455 196.279C150.131 196.353 173.428 196.365 183.826 196.352C206.088 196.323 215.205 196.178 238.21 196.279C245.343 196.311 252.483 196.899 259.605 196.279C261.221 196.139 263.15 196.985 264.46 196.279C269.205 193.726 236.005 146.028 234.846 145.157C232.314 143.252 48.7913 143.767 46.5802 145.983C45.5539 147.012 21.5783 197.977 21.5783 197.977Z" fill="#ff1e1e" fill-rule="evenodd" opacity="1" stroke="none"/>
<path d="M150.531 140.156C128.755 140.184 106.961 140.292 85.1875 140.625C74.599 140.787 64.0211 140.901 53.4375 141.281C50.5693 141.384 47.6743 141.492 44.8125 141.719C44.2007 141.767 42.3217 141.786 41.8438 142.219C41.4409 142.583 41.1797 143.313 40.9375 143.781C40.3953 144.829 39.8664 145.88 39.3438 146.938C37.5849 150.498 35.8744 154.076 34.1562 157.656C28.3144 169.828 34.1734 157.655 16.8125 194.25C16.4775 194.68 18.3289 196.695 20.9688 198.75C21.03 198.798 21.064 198.828 21.125 198.875C23.5617 200.891 25.8208 202.212 26.1562 201.812C84.3529 200.147 64.9406 200.386 84.3438 200.156C92.7994 200.056 101.263 200.173 109.719 200.156C144.248 200.087 178.783 200.222 213.312 200.094C223.718 200.055 234.126 199.969 244.531 200.125C248.1 200.179 251.65 200.334 255.219 200.375C256.413 200.389 257.618 200.396 258.812 200.375C260.009 200.354 261.211 200.293 262.406 200.219C263.189 200.17 264.115 200.069 264.938 200.125C266.081 200.203 267.258 200.56 268.406 200.344C268.877 200.255 269.381 200.083 269.594 199.625C269.923 198.916 269.685 197.994 269.5 197.281C269.115 195.798 268.485 194.356 267.844 192.969C265.163 187.17 261.778 181.695 258.406 176.281C254.407 169.861 250.219 163.548 245.938 157.312C244.338 154.983 242.752 152.663 241.094 150.375C240.233 149.188 239.363 147.781 238.25 146.812C236.901 145.638 235.564 144.438 234.125 143.375C233.16 142.662 232.074 142.126 231.031 141.531C230.413 141.179 229.566 141.125 228.875 141.062C227.464 140.936 226.04 140.871 224.625 140.812C219.874 140.617 215.098 140.546 210.344 140.469C190.401 140.144 170.476 140.131 150.531 140.156ZM158.156 147.812C175.894 147.79 193.639 147.828 211.375 148.031C217.345 148.1 223.313 148.176 229.281 148.344C231.177 148.397 233.074 148.47 234.969 148.562C236.831 151.231 238.689 153.921 240.5 156.625C246.205 165.142 251.907 173.764 256.688 182.844C257.877 185.104 259.089 187.445 259.812 189.906C260.004 190.556 260.39 191.681 259.938 192.312C259.637 192.732 258.885 192.729 258.438 192.719C257.286 192.692 256.191 192.37 255.031 192.438C249.687 192.748 244.381 192.678 239.031 192.531C231.889 192.335 224.739 192.407 217.594 192.406C205.28 192.405 192.97 192.481 180.656 192.5C159.691 192.532 138.715 192.36 117.75 192.406C109.18 192.425 100.633 192.485 92.0625 192.469C85.9338 192.457 79.7849 192.415 73.6562 192.5C59.1318 192.701 51.4621 193.094 30.0938 193.781C37.1217 178.936 39.139 174.636 43.7188 165.094C45.4365 161.515 47.1479 157.965 48.9062 154.406C49.428 153.35 49.9588 152.265 50.5 151.219C50.7403 150.754 50.9535 150.142 51.3125 149.75C51.5032 149.542 52.9698 149.463 53.25 149.438C54.9904 149.277 56.7546 149.206 58.5 149.125C64.9646 148.824 71.4364 148.695 77.9062 148.562C104.653 148.015 131.405 147.846 158.156 147.812Z" fill="#ff1e1e" fill-rule="nonzero" opacity="1" stroke="none"/>
</g>
<path d="M143.375 36.875C138.977 37.3993 134.921 39.3372 132.312 43.3125C131.165 45.0613 130.452 47.0641 129.781 49.0312C129.035 51.2184 128.53 53.4937 128.031 55.75C127.052 54.9323 126.06 54.0916 125.094 53.3438C120.523 49.8063 115.545 46.5397 110.094 44.5312C103.867 42.237 96.4746 41.7167 91.0938 46.25C90.0025 47.1694 89.0332 48.2368 88.2188 49.4062C85.3694 53.4976 84.3832 58.5547 84.2812 63.4688C84.1665 68.9973 85.1176 74.6346 87.0625 79.8125C87.8094 81.801 88.6956 83.8874 89.9375 85.625C91.0884 87.2354 92.5678 88.6585 94.0625 89.9375C94.8673 90.6261 95.7655 91.2676 96.625 91.9375C96.5978 91.9773 96.5579 92.0233 96.5312 92.0625C94.8507 94.538 93.4933 97.241 92.3438 100C91.7395 101.45 91.1648 102.911 90.7812 104.438C90.3849 106.015 90.3706 107.697 90.2812 109.312C90.2409 110.042 90.2617 110.843 90.125 111.562C90.044 111.988 89.9054 112.398 89.7812 112.812C89.4391 113.954 89.3676 114.178 90.125 115.125C90.3035 115.348 90.492 115.573 90.6875 115.781C91.095 116.216 91.4978 116.66 91.9375 117.062C92.7343 117.791 93.5297 118.485 94.375 119.156C95.8039 120.292 97.3251 121.37 98.9062 122.281C99.1826 122.441 99.4609 122.553 99.75 122.688C99.8927 122.754 100.04 122.819 100.188 122.875C100.246 122.897 100.421 122.979 100.375 122.938C100.495 122.979 100.668 122.994 100.75 123C101.345 123.042 101.798 122.181 102 121.812C102.088 121.652 102.171 121.478 102.25 121.312C102.336 121.13 102.391 120.936 102.469 120.75C102.553 120.548 102.641 120.361 102.719 120.156C104.193 116.295 104.841 112.035 106.875 108.406C108.044 106.32 110.119 104.422 111.938 102.906C116.418 99.1707 121.891 96.7145 127.562 95.375C128.016 98.1543 128.435 100.938 128.844 103.719C129.09 105.397 129.329 107.094 129.5 108.781C129.538 109.153 129.54 109.532 129.562 109.906C129.395 111.414 129.269 111.439 130.312 112.625C130.56 112.907 130.796 113.205 131.062 113.469C131.578 113.979 132.107 114.494 132.656 114.969C133.491 115.69 134.339 116.396 135.219 117.062C136.547 118.069 137.624 118.793 139.031 119.562C139.378 119.752 139.778 119.904 140.156 120.031C140.291 120.076 140.422 120.109 140.562 120.125C140.738 120.231 141.014 120.021 141.062 119.875C141.153 119.6 141.04 119.262 141.031 118.938C141.117 118.368 141.166 117.638 141.219 117.156C141.328 116.152 141.456 115.157 141.594 114.156C142.007 111.154 142.5 108.153 142.688 105.125C142.896 101.761 142.954 98.3684 143.094 95C143.095 94.9585 143.092 94.9165 143.094 94.875C144.384 95.0763 145.687 95.1816 146.969 95.4062C151.647 96.2261 156.313 97.2162 160.844 98.6562C163.549 99.5162 166.145 100.587 168.719 101.781C169.43 102.111 170.147 102.453 170.844 102.812C170.947 102.866 171.056 102.909 171.156 102.969C171.531 103.225 171.903 103.468 172.281 103.719C172.474 103.64 172.236 102.62 171.75 101.438C171.264 100.255 170.693 99.3583 170.5 99.4375C171.495 101.91 171.793 102.371 171.5 101.906C170.906 100.964 170.512 99.9138 169.875 99C169.693 98.7393 169.356 98.6168 169.094 98.4375C168.82 98.2502 168.556 98.0614 168.281 97.875C167.59 97.4064 166.889 96.9526 166.188 96.5C164.281 95.2698 162.21 94.2677 160.156 93.3125C157.81 92.2214 155.44 91.2078 153 90.3438C149.81 89.2142 146.52 88.3959 143.219 87.6562C143.219 84.0518 143.096 80.454 142.469 76.9062C142.206 75.4216 141.863 73.9494 141.344 72.5312C140.738 70.8791 139.872 69.3125 138.938 67.7812C139.728 63.2595 140.748 58.7652 142.531 54.5312C145.695 47.0201 153.987 44.8975 161.406 46.3438C162.742 46.6041 164.038 47.0233 165.312 47.5312C165.879 48.3951 166.419 49.2771 166.906 50.1875C168.405 52.9866 169.561 56.0039 170.406 59.0625C173.142 68.9578 173.274 79.3384 173 89.5312C172.921 92.4722 172.799 95.4039 172.688 98.3438C172.641 99.5622 172.601 100.781 172.562 102C172.55 102.395 172.925 103.225 172.531 103.188C171.985 103.136 172.533 103.19 172.5 104.375C172.108 104.893 174.352 107.281 177.531 109.688C180.711 112.094 183.608 113.612 184 113.094C184.194 106.123 184.643 99.0881 184.656 92.0625C184.67 85.0369 184.252 78.0075 182.781 71.125C181.028 62.9225 177.571 54.9167 171.406 49.0625C169.644 47.389 167.792 45.8272 165.844 44.375C164.247 43.1844 162.594 42.0696 160.875 41.0625C159.455 40.2304 157.96 39.5025 156.438 38.875C152.501 37.2526 147.773 36.3507 143.375 36.875ZM113.344 52C117.262 52.2292 121.201 53.6532 124.344 55.75C124.427 55.8289 124.513 55.9184 124.594 56C124.728 56.1348 124.87 56.2677 125 56.4062C125.363 56.794 125.661 57.149 126 57.5625C126.473 58.1393 126.827 58.7917 127.25 59.4062C125.803 67.8645 125.633 76.5298 126.281 85.0938C125.842 85.0857 125.41 85.0215 124.969 85.0312C118.444 85.176 111.909 87.092 106.156 90.3125C104.99 89.608 103.841 88.891 102.656 88.2188C102.219 87.9709 101.474 88.0254 101 88.125C100.95 88.1355 100.925 88.2061 100.875 88.2188C100.232 88.1802 99.6037 88.161 98.9375 88.0938C98.8123 88.0811 98.6878 88.0439 98.5625 88.0312C98.3963 87.5898 98.1802 87.1659 98.0312 86.7188C96.1771 81.1516 95.3613 75.0669 95.9688 69.2188C96.322 65.8182 97.202 62.4514 98.9688 59.5C99.9042 57.9373 101.042 56.4885 102.438 55.3125C105.505 52.7285 109.425 51.7708 113.344 52Z" fill="#f9f9f9" fill-opacity="0.203098" fill-rule="nonzero" opacity="0.318077" stroke="none"/>
<path d="M230.375 134.189C230.353 134.32 206.739 91.8856 162.26 66.0765C109.807 35.6409 38.7522 23.7548 38.7522 23.7548L237.744 27.0904C237.744 27.0904 234.327 110.084 230.375 134.189Z" fill="#f00000" fill-rule="evenodd" opacity="0.1927" stroke="none"/>
<g opacity="1">
<path d="M55.5786 157.701C69.8315 157.701 84.0669 159.802 98.3432 159.615C124.071 159.279 149.812 157.234 175.546 159.158C188.102 160.097 200.919 159.821 213.515 159.821C217.431 159.821 221.334 160.022 225.248 160.113C226.754 160.148 228.269 160.301 229.773 160.365C229.894 160.371 230.438 160.4 230.29 160.247" fill="#ffffff" fill-rule="evenodd" opacity="1" stroke="#a09b9a" stroke-linecap="round" stroke-linejoin="round" stroke-width="1"/>
<path d="M59.0098 170.704C70.7664 170.704 82.5784 169.41 94.3219 169.287C113.284 169.089 132.55 168.943 151.487 169.979C168.197 170.894 184.895 172.05 201.637 172.359C212.201 172.554 222.717 171.236 233.243 171.236" fill="#ffffff" fill-rule="evenodd" opacity="1" stroke="#a09b9a" stroke-linecap="round" stroke-linejoin="round" stroke-width="1"/>
<path d="M51.7129 183.132C82.808 180.144 114.33 180.798 145.499 181.642C156.266 181.934 167.047 181.593 177.817 181.816C191.12 182.091 204.358 183.119 217.66 183.383C222.016 183.47 226.383 183.383 230.741 183.383C231.98 183.383 233.22 183.395 234.459 183.383C234.886 183.379 235.311 183.338 235.737 183.327C236.148 183.317 236.839 183.327 236.554 183.327" fill="#ffffff" fill-rule="evenodd" opacity="1" stroke="#a09b9a" stroke-linecap="round" stroke-linejoin="round" stroke-width="1"/>
<path d="M143.242 158.381C143.242 163.709 143.192 169.116 143.397 174.439C143.453 175.882 143.564 177.318 143.611 178.762C143.614 178.869 143.583 181.243 143.731 180.681" fill="#ffffff" fill-rule="evenodd" opacity="1" stroke="#a09b9a" stroke-linecap="round" stroke-linejoin="round" stroke-width="1"/>
<path d="M155.223 159.917C156.183 165.76 157.64 171.547 158.577 177.373C158.71 178.196 159.337 182.121 159.94 181.65" fill="#ffffff" fill-rule="evenodd" opacity="1" stroke="#a09b9a" stroke-linecap="round" stroke-linejoin="round" stroke-width="1"/>
<path d="M170.746 160.891C170.833 162.641 170.826 163.596 171.054 165.207C171.696 169.743 172.36 175.221 173.742 179.671C173.917 180.233 174.552 178.84 174.951 178.418" fill="#ffffff" fill-rule="evenodd" opacity="1" stroke="#a09b9a" stroke-linecap="round" stroke-linejoin="round" stroke-width="1"/>
<path d="M183.504 160.712C185.03 165.496 186.679 170.234 188.157 175.036C188.363 175.706 190.32 182.278 190.502 181.512" fill="#ffffff" fill-rule="evenodd" opacity="1" stroke="#a09b9a" stroke-linecap="round" stroke-linejoin="round" stroke-width="1"/>
<path d="M199.623 161.119C201.214 167.607 204.516 173.877 209.113 178.612C210.007 179.533 210.85 180.553 211.609 181.598C211.921 182.027 212.1 183.305 212.476 182.936" fill="#ffffff" fill-rule="evenodd" opacity="1" stroke="#a09b9a" stroke-linecap="round" stroke-linejoin="round" stroke-width="1"/>
<path d="M218.091 162.77C218.976 168.316 222.286 173.235 225.035 177.955C225.752 179.186 226.207 180.562 226.756 181.883C227.006 182.484 227.561 184.26 227.651 183.612" fill="#ffffff" fill-rule="evenodd" opacity="1" stroke="#a09b9a" stroke-linecap="round" stroke-linejoin="round" stroke-width="1"/>
<path d="M132.487 160.582C130.9 163.988 131.268 170.667 130.637 174.537C130.448 175.699 130.368 176.893 130.204 178.062C130.142 178.498 130.293 179.677 129.992 179.366" fill="#ffffff" fill-rule="evenodd" opacity="1" stroke="#a09b9a" stroke-linecap="round" stroke-linejoin="round" stroke-width="1"/>
<path d="M117.194 160.943C115.978 162.269 116.585 164.549 116.274 166.35C115.809 169.039 115.143 171.519 114.577 174.159C114.302 175.446 114.067 176.736 113.899 178.043C113.852 178.413 113.662 179.89 113.593 179.475" fill="#ffffff" fill-rule="evenodd" opacity="1" stroke="#a09b9a" stroke-linecap="round" stroke-linejoin="round" stroke-width="1"/>
<path d="M102.908 160.652C101.135 163.038 100.87 170.726 99.7336 174.109C99.3978 175.108 98.5094 176.912 98.1404 177.767C98.012 178.064 97.8551 179.465 97.9212 179.101" fill="#ffffff" fill-rule="evenodd" opacity="1" stroke="#a09b9a" stroke-linecap="round" stroke-linejoin="round" stroke-width="1"/>
<path d="M86.7063 159.256C85.4987 164.157 83.801 168.611 82.0116 173.279C81.4738 174.681 81.3568 176.143 80.8048 177.533C80.5302 178.224 79.9879 180.358 79.9879 179.61" fill="#ffffff" fill-rule="evenodd" opacity="1" stroke="#a09b9a" stroke-linecap="round" stroke-linejoin="round" stroke-width="1"/>
<path d="M71.6826 159.113C68.3319 163.64 66.911 170.398 64.1999 175.476C64.1363 175.595 62.4412 179.969 62.1884 179.969" fill="#ffffff" fill-rule="evenodd" opacity="1" stroke="#a09b9a" stroke-linecap="round" stroke-linejoin="round" stroke-width="1"/>
</g>
<path d="M758.332 129.265C752.936 129.729 747.51 129.82 742.099 130.07C740.354 130.15 735.033 131.173 733.376 131.905C726.499 134.941 726.844 144.223 726.53 146.331C726.141 148.931 726.648 151.661 727.424 154.161C729.156 159.747 744.26 159.468 749.652 159.63C752.115 159.704 754.597 159.894 757.058 159.864C757.983 159.853 757.59 159.852 759.209 159.905C759.381 159.91 760.206 159.815 759.957 159.818" fill="#ff0000" fill-rule="evenodd" filter="url(#Filter_5)" stroke="#000000" stroke-linecap="round" stroke-linejoin="round" stroke-width="12"/>
<path d="M763.23 119.845C762.328 128.659 762.838 137.614 762.82 146.46C762.809 151.493 762.372 156.513 762.638 161.547C762.813 164.867 763.235 168.105 763.279 171.423" fill="none" filter="url(#Filter_6)" stroke="#f1f1f1" stroke-linecap="round" stroke-linejoin="round" stroke-width="8"/>
<path d="M745.494 144.009C745.712 144.009 745.569 143.595 745.569 143.847L741.937 145.01C741.937 145.262 744.648 144.478 744.43 144.478C744.43 144.478 743.8 144.717 743.8 144.465L743.8 144.465C743.8 144.213 745.494 144.009 745.494 144.009Z" fill="#5e5e5e" fill-rule="evenodd" opacity="1" stroke="#a6a6a6" stroke-linecap="round" stroke-linejoin="round" stroke-width="12"/>
<g fill="#ffffff" filter="url(#Filter_7)" stroke="none">
<path clip-path="url(#TextBounds)" d="M49.5819 65.751L63.7243 64.4607C66.52 64.2057 68.8456 64.7881 70.701 66.2081C72.5564 67.6281 73.6143 69.7644 73.8746 72.6172C74.0984 75.0705 73.5302 77.2761 72.1699 79.234C70.8096 81.1918 68.5462 82.3152 65.3797 82.6041L55.4949 83.506L56.7071 96.7926L52.4494 97.181L49.5819 65.751ZM69.576 73.0309C69.3652 70.7202 68.3662 69.2293 66.5791 68.5581C65.5974 68.2019 64.2863 68.0985 62.646 68.2482L54.1734 69.0212L55.167 79.9115L63.6396 79.1385C65.5509 78.9641 67.065 78.4161 68.1819 77.4944C69.2987 76.5727 69.7634 75.0849 69.576 73.0309Z"/>
<path clip-path="url(#TextBounds)" d="M78.772 71.6741L82.4307 71.3403L82.7918 75.2985C83.0211 74.5009 83.6701 73.4961 84.7388 72.2839C85.8076 71.0718 87.1051 70.3961 88.6313 70.2568C88.7026 70.2503 88.8245 70.2464 88.997 70.2451C89.1694 70.2437 89.4645 70.2456 89.882 70.2506L90.2529 74.3158C90.0208 74.2938 89.8078 74.2845 89.6139 74.2878C89.4201 74.2911 89.209 74.3031 88.9808 74.3239C87.0409 74.5009 85.6073 75.261 84.6799 76.604C83.7526 77.9471 83.3631 79.4317 83.5114 81.0577L84.7139 94.2374L80.8627 94.5887L78.772 71.6741Z"/>
<path clip-path="url(#TextBounds)" d="M104.214 89.9557C106.767 89.7227 108.43 88.5966 109.202 86.5774C109.974 84.5581 110.252 82.3646 110.036 79.9968C109.841 77.8573 109.34 76.1483 108.533 74.87C107.257 72.8579 105.292 71.9729 102.639 72.2149C100.285 72.4296 98.6555 73.4844 97.7497 75.3792C96.8439 77.2741 96.5068 79.4909 96.7384 82.0299C96.961 84.469 97.6813 86.4527 98.8994 87.9812C100.118 89.5096 101.889 90.1678 104.214 89.9557ZM102.439 68.8461C105.392 68.5767 107.978 69.3331 110.197 71.1154C112.416 72.8977 113.7 75.7002 114.049 79.5229C114.386 83.2171 113.766 86.3516 112.189 88.9261C110.611 91.5006 107.933 92.9603 104.153 93.3052C101.001 93.5928 98.4001 92.755 96.3513 90.7917C94.3024 88.8285 93.1141 86.0496 92.7861 82.4552C92.4347 78.604 93.132 75.4482 94.8779 72.9877C96.6238 70.5272 99.1442 69.1467 102.439 68.8461Z"/>
<path clip-path="url(#TextBounds)" d="M116.54 59.5342L120.284 59.1925L121.325 70.5964C122.066 69.4213 122.995 68.4915 124.112 67.8071C125.229 67.1228 126.472 66.7181 127.841 66.5932C130.694 66.3329 133.098 67.1024 135.053 68.9016C137.007 70.7008 138.159 73.5118 138.508 77.3345C138.839 80.9574 138.236 84.0471 136.7 86.6035C135.164 89.1598 132.842 90.5799 129.732 90.8636C127.992 91.0223 126.484 90.7356 125.21 90.0033C124.451 89.5692 123.615 88.84 122.702 87.8159L122.969 90.7471L119.417 91.0711L116.54 59.5342ZM129.186 87.4831C131.269 87.2931 132.752 86.3237 133.635 84.5747C134.518 82.8258 134.836 80.5963 134.589 77.8862C134.369 75.4756 133.67 73.5259 132.491 72.037C131.312 70.5481 129.718 69.8953 127.706 70.0788C125.952 70.2389 124.474 71.0281 123.273 72.4465C122.072 73.8649 121.608 76.0646 121.88 79.0457C122.076 81.1995 122.507 82.9221 123.171 84.2134C124.414 86.6457 126.419 87.7356 129.186 87.4831Z"/>
<path clip-path="url(#TextBounds)" d="M141.326 57.3807L145.177 57.0293L148.045 88.4593L144.193 88.8107L141.326 57.3807Z"/>
<path clip-path="url(#TextBounds)" d="M161.226 63.6336C162.852 63.4852 164.463 63.7229 166.059 64.3468C167.655 64.9707 168.908 65.8524 169.817 66.9919C170.693 68.077 171.329 69.3781 171.726 70.8951C172.051 71.9298 172.319 73.6025 172.529 75.9132L155.734 77.4456C156.017 79.764 156.737 81.5789 157.892 82.8902C159.047 84.2015 160.701 84.7588 162.855 84.5623C164.866 84.3788 166.411 83.5692 167.488 82.1333C168.102 81.3006 168.506 80.3649 168.699 79.3262L172.486 78.9807C172.463 79.8313 172.216 80.7994 171.747 81.8849C171.278 82.9705 170.724 83.8732 170.085 84.5931C169.02 85.8409 167.642 86.7432 165.953 87.3C165.046 87.6129 164.008 87.8226 162.839 87.9293C159.986 88.1896 157.474 87.3725 155.302 85.478C153.13 83.5835 151.873 80.7678 151.532 77.0307C151.197 73.3507 151.922 70.2713 153.71 67.7927C155.497 65.314 158.003 63.9277 161.226 63.6336ZM168.292 73.2148C167.983 71.5603 167.497 70.2598 166.836 69.3134C165.611 67.5554 163.765 66.789 161.297 67.0141C159.529 67.1755 158.104 67.9491 157.022 69.335C155.94 70.721 155.453 72.4014 155.562 74.3763L168.292 73.2148Z"/>
<path clip-path="url(#TextBounds)" d="M176.1 62.7943L179.909 62.4468L180.205 65.6989C181.015 64.4888 181.768 63.5932 182.463 63.012C183.653 62.0261 185.054 61.4596 186.666 61.3126C188.491 61.146 190.001 61.4613 191.196 62.2584C191.87 62.7146 192.51 63.4185 193.115 64.3701C193.858 63.0654 194.781 62.0643 195.882 61.367C196.984 60.6696 198.255 60.2552 199.695 60.1238C202.776 59.8427 204.975 60.7639 206.29 62.8876C206.999 64.0311 207.445 65.6155 207.63 67.641L209.022 82.896L205.021 83.261L203.569 67.3427C203.429 65.8165 202.952 64.803 202.137 64.302C201.322 63.8011 200.365 63.6008 199.267 63.701C197.755 63.8389 196.499 64.464 195.501 65.5763C194.502 66.6886 194.11 68.4286 194.326 70.7964L195.543 84.1258L191.627 84.483L190.263 69.5275C190.121 67.9728 189.832 66.8557 189.396 66.1764C188.714 65.16 187.574 64.7246 185.976 64.8704C184.521 65.0031 183.25 65.6872 182.162 66.9227C181.073 68.1582 180.664 70.2523 180.933 73.2048L182.042 85.3575L178.191 85.7089L176.1 62.7943Z"/>
<path clip-path="url(#TextBounds)" d="M216.325 74.9809C216.556 76.2542 216.967 77.2091 217.557 77.8457C218.64 78.9981 220.38 79.465 222.776 79.2464C224.203 79.1162 225.43 78.6915 226.457 77.9721C227.485 77.2527 227.939 76.2441 227.821 74.9461C227.731 73.9619 227.227 73.2527 226.31 72.8186C225.726 72.5556 224.594 72.292 222.916 72.0281L219.786 71.537C217.788 71.2303 216.298 70.8197 215.316 70.3052C213.566 69.4149 212.608 68.0498 212.44 66.2098C212.242 64.0417 212.863 62.216 214.302 60.7327C215.742 59.2494 217.781 58.3874 220.42 58.1467C223.872 57.8317 226.453 58.6174 228.164 60.5036C229.237 61.7001 229.827 63.0414 229.933 64.5274L226.296 64.8592C226.146 63.9957 225.767 63.232 225.16 62.5683C224.183 61.6362 222.603 61.2698 220.421 61.4689C218.966 61.6016 217.89 61.9803 217.191 62.6049C216.493 63.2295 216.186 63.9983 216.269 64.9111C216.36 65.9096 216.925 66.6635 217.964 67.1727C218.567 67.4773 219.437 67.7143 220.575 67.8838L223.177 68.272C226.006 68.6899 227.919 69.1697 228.918 69.7114C230.505 70.559 231.395 72.0383 231.588 74.1493C231.774 76.189 231.161 78.0212 229.749 79.6458C228.336 81.2704 226.047 82.2272 222.881 82.5161C219.472 82.8271 216.987 82.2735 215.426 80.8554C213.866 79.4373 212.932 77.5917 212.624 75.3186L216.325 74.9809Z"/>
</g>
</g>
</svg>
