<?xml version="1.0" encoding="UTF-8" standalone="no"?>
<!-- Created with Inkscape (http://www.inkscape.org/) -->

<svg
   version="1.1"
   id="svg1"
   width="853.33331"
   height="266.66666"
   viewBox="0 0 853.33331 266.66666"
   xmlns:xlink="http://www.w3.org/1999/xlink"
   xmlns="http://www.w3.org/2000/svg"
   xmlns:svg="http://www.w3.org/2000/svg">
  <defs
     id="defs1">
    <linearGradient
       id="linearGradient200210">
      <stop
         style="stop-color:#636363;stop-opacity:0.73641306;"
         offset="0.60384613"
         id="stop200210" />
      <stop
         style="stop-color:#ffe720;stop-opacity:0.6630435;"
         offset="0.60384613"
         id="stop200211" />
    </linearGradient>
    <linearGradient
       id="linearGradient200208">
      <stop
         style="stop-color:#434040;stop-opacity:1;"
         offset="0.47115383"
         id="stop200208" />
      <stop
         style="stop-color:#696666;stop-opacity:1;"
         offset="0.47115386"
         id="stop200209" />
    </linearGradient>
    <filter
       style="color-interpolation-filters:sRGB"
       id="filter200148"
       x="-0.26702622"
       y="-1.0311308"
       width="1.5665519"
       height="2.5414856">
      <feGaussianBlur
         result="result0"
         in="SourceGraphic"
         stdDeviation="0.80135458"
         id="feGaussianBlur200146" />
      <feColorMatrix
         values="1 0 0 -1 0 1 0 1 -1 0 1 0 0 -1 0 -0.8 -1 0 4.4 -2.9 "
         in="result0"
         result="fbSourceGraphicAlpha"
         id="feColorMatrix200146" />
      <feGaussianBlur
         stdDeviation="0.7"
         in="fbSourceGraphicAlpha"
         result="result0"
         id="feGaussianBlur200147" />
      <feSpecularLighting
         in="result0"
         result="result1"
         lighting-color="#ffffff"
         surfaceScale="-2"
         specularConstant="1.5"
         specularExponent="10"
         id="feSpecularLighting200147">
        <feDistantLight
           elevation="50"
           azimuth="235"
           id="feDistantLight200147" />
      </feSpecularLighting>
      <feComposite
         result="result4"
         operator="in"
         in="SourceGraphic"
         in2="result1"
         id="feComposite200147" />
      <feComposite
         operator="arithmetic"
         k2="1"
         k3="1"
         in2="result4"
         id="feComposite200148"
         result="fbSourceGraphic"
         k1="0"
         k4="0" />
      <feColorMatrix
         result="fbSourceGraphicAlpha"
         in="fbSourceGraphic"
         values="0 0 0 -1 0 0 0 0 -1 0 0 0 0 -1 0 0 0 0 1 0"
         id="feColorMatrix200206" />
      <feFlood
         id="feFlood200206"
         result="flood"
         in="fbSourceGraphic"
         flood-opacity="0.498039"
         flood-color="rgb(0,0,0)" />
      <feGaussianBlur
         id="feGaussianBlur200206"
         result="blur"
         in="fbSourceGraphic"
         stdDeviation="18.636364" />
      <feOffset
         id="feOffset200206"
         result="offset"
         in="blur"
         dx="5.963746"
         dy="-50.000000" />
      <feComposite
         id="feComposite200206"
         result="comp1"
         operator="out"
         in="flood"
         in2="offset" />
      <feComposite
         id="feComposite200207"
         result="comp2"
         operator="in"
         in="comp1"
         in2="fbSourceGraphic" />
    </filter>
    <linearGradient
       xlink:href="#linearGradient200208"
       id="linearGradient200209"
       x1="817.03833"
       y1="140.51787"
       x2="821.33984"
       y2="140.51787"
       gradientUnits="userSpaceOnUse" />
    <linearGradient
       xlink:href="#linearGradient200210"
       id="linearGradient200212"
       gradientUnits="userSpaceOnUse"
       x1="819.70148"
       y1="133.44427"
       x2="837.93182"
       y2="133.44427"
       gradientTransform="translate(2.7921563e-5,16.101502)" />
    <linearGradient
       xlink:href="#linearGradient200210"
       id="linearGradient200213"
       gradientUnits="userSpaceOnUse"
       gradientTransform="translate(2.7921563e-5,0.24837008)"
       x1="819.70148"
       y1="133.44427"
       x2="837.93182"
       y2="133.44427" />
  </defs>
  <g
     id="g1">
    <rect
       style="mix-blend-mode:normal;fill:url(#linearGradient200212);fill-opacity:1;stroke:none;stroke-width:1.32277;stroke-linecap:round;stroke-linejoin:bevel;stroke-opacity:1;paint-order:stroke fill markers"
       id="rect200211"
       width="18.230349"
       height="4.0981193"
       x="819.70148"
       y="147.49672"
       ry="2.0490596" />
    <path
       id="rect200001"
       style="opacity:0.512605;mix-blend-mode:normal;fill:#a9a3a3;fill-opacity:1;stroke:#000000;stroke-width:1.57046;stroke-linecap:round;stroke-linejoin:bevel;paint-order:stroke fill markers"
       d="M 66.391877,28.066138 H 259.87055 c 4.34338,0 8.14648,4.121451 7.84004,9.212407 L 261.07063,147.5911 c -0.30644,5.09096 -4.44524,16.47085 -8.7886,16.45737 L 72.557553,163.49117 C 68.21419,163.47767 65.50293,151.00976 65.191804,145.91919 L 58.551843,37.278545 c -0.311129,-5.090563 3.496654,-9.212407 7.840034,-9.212407 z" />
    <path
       style="color:#000000;mix-blend-mode:difference;fill:#a6a6a6;fill-opacity:1;stroke:none;stroke-width:1.13001;stroke-linecap:round;stroke-linejoin:bevel;stroke-dasharray:none;paint-order:stroke fill markers"
       d="m 593.33046,73.230099 c -9.46395,13.845734 -13.96769,36.037791 -23.52501,50.284231 l -0.012,0.017 c -5.0866,7.73085 -11.54386,19.00483 -17.91722,25.44182 -3.18667,3.21851 -6.26882,5.1039 -8.89738,5.15488 -2.62858,0.0509 -5.17401,-1.42573 -7.98016,-6.3635 l -1.10592,-0.96593 c -6.20255,-2.17241 -9.01601,-1.69482 -10.3164,-1.68431 -0.45878,-0.3187 -0.78135,-0.42822 -1.25442,-0.77906 -0.60818,-0.45101 -1.2427,-0.76526 -1.85454,-1.20862 -0.90079,-0.89986 -1.81781,-1.82811 -3.58465,-3.98507 l -1.40295,-0.72324 c -3.64008,-0.0813 -6.66965,1.76201 -9.05396,4.09185 -2.38427,2.32985 -4.23728,5.15756 -5.80246,7.4071 -1.25674,1.80623 -2.09809,2.5867 -2.70354,3.09923 -0.37168,0.0574 -1.03106,0.27497 -1.25844,0.28152 -0.32303,-0.3416 -0.76343,-0.86512 -1.34274,-2.13087 l -3.20933,-0.54121 c -11.91821,14.47802 -23.9662,29.26048 -34.61012,45.44971 -0.90448,-3.60465 -2.45428,-8.0357 -4.17874,-12.81677 -3.49009,-9.67631 -7.57239,-20.91497 -7.98617,-26.40293 l -0.0904,-0.53392 C 438.83032,132.40605 434.6183,107.58646 429.90176,82.947625 l -2.77378,-1.698873 c -0.73108,0.380126 -1.40992,0.867639 -2.0673,1.39793 -0.0276,0.01611 -0.0527,-7.59e-4 -0.0803,0.01699 -0.0396,0.02548 -0.0411,0.0656 -0.0783,0.09222 -5.22485,4.336291 -8.25573,13.176103 -11.36008,22.323208 -3.52164,10.37661 -7.0234,21.45464 -11.78759,27.53873 l -0.10839,0.15047 c -3.98411,5.99833 -8.74483,17.05049 -13.25075,24.88122 -2.25296,3.91536 -4.52471,6.95981 -5.949,7.93373 -0.71214,0.48698 -1.00778,0.46686 -1.22232,0.3786 -0.21449,-0.0882 -0.68366,-0.45436 -1.25642,-1.81779 l -1.05774,-1.16736 c -2.71387,-1.30906 -5.05161,-1.41652 -6.9184,-0.71353 -1.8668,0.70298 -3.13971,2.11117 -4.01819,3.19146 -0.38792,0.47705 -0.30095,0.41187 -0.54792,0.67712 -0.20903,0.0435 -0.44189,-0.0356 -0.63425,0.0509 -0.0396,-0.0666 -0.0298,-0.0305 -0.0722,-0.10674 l -2.33425,-0.95381 -7.59906,12.71301 c -3.1787,-4.48277 -5.41428,-9.25093 -6.84791,-14.84389 -1.08418,-4.39747 -2.01367,-9.48239 -3.05075,-14.13219 -1.03711,-4.64981 -2.09582,-8.84178 -3.92587,-11.8193 -0.91502,-1.48878 -2.14044,-2.76253 -3.73318,-3.15506 l -0.29704,-0.2791 c -0.057,0.0783 -0.0732,0.17491 -0.12644,0.25484 l -0.024,-0.0218 c -0.0122,0.0213 -0.0181,0.0466 -0.0302,0.0679 -1.4492,-0.1794 -2.9447,0.31564 -4.31722,1.43432 l -0.80485,1.31785 c 1.98885,24.87427 -1.3215,21.92797 -8.80288,28.45531 -16.25131,14.17894 -44.1263,7.3213 -63.8334,10.56519 l 3.38593,4.49251 c 15.78995,-1.56498 45.28482,2.90871 62.3825,-9.3279 7.01196,-5.01837 6.29379,0.84898 11.87351,-22.98226 0.68257,3.16957 1.54244,6.51124 2.66139,10.04762 3.15577,9.97355 7.5587,20.62758 10.55325,26.99268 l 1.26647,1.16495 c 5.91571,1.97496 11.67328,-8.70722 14.51922,-14.37976 0.0958,-0.0217 0.20931,0.0141 0.29906,-0.0194 0.13408,-0.0502 0.17099,-0.14853 0.29103,-0.2063 l 2.29205,0.79358 c 2.98132,-2.43558 4.76699,-3.43403 5.56363,-3.65986 0.79666,-0.22583 0.46236,-0.21926 0.94734,0.23542 0.485,0.45467 1.47637,1.68063 3.15113,2.3493 1.67475,0.66866 3.86102,0.73812 7.00069,-0.12141 l 1.1019,-0.81059 c 15.35294,-22.02294 26.86939,-47.61292 37.00056,-73.45201 0.0106,0.04865 0.009,0.07254 0.02,0.121352 1.74082,8.103468 4.26625,18.348278 4.62432,21.541698 l 0.0441,0.27669 c 6.15471,29.14563 12.93972,58.51267 23.37648,86.0989 l 2.76175,1.16494 c 7.69087,-4.72929 14.25308,-13.8089 20.84154,-23.31825 6.0786,-8.77348 12.18288,-17.83909 18.72004,-24.46621 0.89894,0.38717 1.85235,0.56455 2.69551,0.27425 0.52348,-0.18023 0.86429,-0.63634 1.3026,-0.94166 0.88503,-0.20962 1.5784,-0.0501 2.56906,-0.54363 4.50195,-2.24285 8.67592,-9.95737 13.09823,-11.50866 0.0358,0.007 0.16129,-0.0147 0.56398,0.15532 0.4993,0.21081 1.44116,0.94141 2.20578,1.46588 0.29257,0.28647 0.78856,0.93691 1.05974,1.1698 0.95669,0.82161 1.89609,1.22965 2.78985,1.46831 1.17597,0.82122 2.38249,1.58923 3.67095,2.03622 0.96719,0.33555 2.01733,0.51237 3.117,0.19659 0.33451,-0.096 0.64038,-0.34018 0.95739,-0.53879 4.19184,5.30618 8.69707,8.05946 13.20256,8.36818 4.99679,0.34235 9.75832,-2.04736 14.06363,-5.70094 8.61064,-7.30716 15.75185,-19.80605 20.31569,-29.14297 l 0.024,-0.0509 c 3.33594,-7.19762 7.9918,-15.71277 11.88392,-24.25262 1.94052,-4.257761 3.70688,-8.515068 5.0157,-12.680877 3.3823,17.335017 10.35483,37.037837 14.79019,53.475677 l 0.0882,0.26696 c 8.1296,21.30312 12.47119,47.84973 25.23504,66.70991 l 2.35632,0.70626 c 7.86026,-4.012 13.88976,-12.46248 19.60919,-21.39611 5.71941,-8.93363 11.14971,-18.44397 17.27896,-24.93218 l -0.1726,0.16504 c 5.46176,-4.62035 8.92457,-12.14484 11.69325,-16.0034 1.38434,-1.92928 2.36339,-2.52651 2.73566,-2.49007 0.0984,0.01 0.37225,0.28148 0.55797,0.4053 0.0709,0.14673 0.17982,0.19636 0.29302,0.63344 0.10114,0.39032 0.20281,1.0928 0.86907,1.86149 0.24537,0.28308 0.57445,0.4176 0.89316,0.56063 0.20515,0.39849 0.34799,0.4949 0.56599,0.98049 l 2.85005,0.91255 c 3.70877,-2.78524 7.16491,-1.73801 12.15288,-0.74024 4.8314,0.96644 10.87865,1.59844 18.03564,-2.59199 9.15695,1.87729 16.20588,-3.51198 21.85914,-6.98965 2.46449,-1.51606 4.61807,-2.46485 6.59527,-2.76675 2.28352,1.47617 4.64877,2.64131 7.13718,3.33951 0.3665,0.41362 0.67564,0.52637 1.06376,1.04116 l 1.22832,0.77663 c 4.53126,0.7322 13.46312,1.42483 21.10649,1.56053 3.82169,0.0678 7.28463,-2e-4 9.7805,-0.30821 1.24794,-0.154 2.20526,-0.30544 3.14309,-0.77178 0.46891,-0.23316 1.09201,-0.48915 1.54946,-1.64063 0.22875,-0.57573 0.28187,-1.3895 0.1365,-1.99738 -0.14538,-0.6079 -0.40172,-1.00541 -0.63222,-1.296 l -1.27652,-0.74509 c -8.78285,-0.98119 -17.24286,0.0264 -24.80151,-0.0922 -3.30295,-0.052 -6.36988,-0.3862 -9.26669,-1.07271 -2.65999,-2.67768 -5.41184,-3.9503 -8.10862,-3.94624 -0.0914,1.3e-4 -0.17207,0.0556 -0.26293,0.0583 -0.59774,-0.44447 -1.2347,-0.77227 -1.80637,-1.29842 l -1.87863,-0.36889 c -8.89395,3.64533 -18.84612,8.34795 -28.13929,11.12277 -9.29319,2.7748 -17.81854,3.49759 -23.8381,-0.0583 l -1.8104,0.017 c -2.1374,1.31801 -2.87721,1.59669 -3.43412,1.82992 -0.23718,-0.33674 -0.45051,-0.89399 -0.69847,-1.18192 -0.19175,-0.22267 -0.41964,-0.35225 -0.6242,-0.54608 -0.19863,-0.25477 -0.28851,-0.53581 -0.54592,-0.75963 -1.39048,-1.20898 -3.37386,-1.85774 -6.52903,-1.98526 l -1.46919,0.67712 c -16.84221,19.49839 -30.15481,42.84299 -46.3355,62.02102 -0.53243,-1.87702 -1.20299,-3.93403 -2.02314,-6.25428 -1.5267,-4.31909 -3.46912,-9.32006 -5.48736,-14.5278 -4.03648,-10.41546 -8.38241,-21.72536 -10.22808,-29.52399 l -0.10032,-0.33492 C 609.28428,126.23618 605.02768,98.599151 596.77261,73.873223 Z m -77.9109,72.114751 -0.0107,0.0267 c 0.002,-0.007 -0.008,0.009 -0.006,0.002 0.004,-0.0112 0.0122,-0.0182 0.0161,-0.0291 z"
       id="use200111" />
    <rect
       style="opacity:1;fill:#494949;fill-opacity:1;stroke:none;stroke-width:8.10384;stroke-linecap:round;stroke-linejoin:bevel;stroke-dasharray:none;stroke-opacity:1;paint-order:stroke fill markers"
       id="rect200128"
       width="12.163097"
       height="11.467469"
       x="786.80511"
       y="134.55743"
       ry="3.0176141" />
    <path
       id="path200001"
       style="display:inline;opacity:0.859244;mix-blend-mode:normal;fill:#666667;fill-opacity:0.533784;stroke:#aaaaaa;stroke-width:1.21402;stroke-linecap:round;stroke-linejoin:bevel;stroke-opacity:1;paint-order:stroke fill markers"
       d="m 30.668501,237.77525 263.502569,0.55729 c 4.3502,0.009 9.53931,-3.16691 7.85236,-5.49661 l -40.79875,-56.34414 c -1.68694,-2.3297 -4.45224,-9.82737 -8.80244,-9.81934 l -180.007148,0.33252 c -4.350196,0.007 -5.629778,8.21664 -7.377336,10.48438 l -42.221621,54.78928 c -1.74755,2.26773 3.502163,5.48742 7.852366,5.49662 z" />
    <path
       id="rect200003"
       style="display:inline;opacity:1;mix-blend-mode:color-burn;fill:#afafaf;fill-opacity:0.882883;stroke:#827e7e;stroke-width:1.33785;stroke-linecap:round;stroke-linejoin:bevel;stroke-opacity:1;paint-order:stroke fill markers;filter:url(#filter200148)"
       d="M 86.187589,43.001042 254.9643,43.449539 c 4.06932,0.01081 7.61559,3.285024 7.34538,7.345386 l -5.38197,80.871275 c -0.27022,4.06036 -3.27604,7.34538 -7.34538,7.34538 H 92.466549 c -4.069344,0 -7.032112,-3.28812 -7.345386,-7.34538 l -6.27896,-81.319772 c -0.313274,-4.057267 3.276057,-7.356199 7.345386,-7.345386 z"
       transform="matrix(1.0573559,0,0,1.2875901,-15.876628,-22.414922)" />
    <rect
       style="display:inline;fill:#484848;fill-opacity:1;stroke:#575757;stroke-width:1.5192;stroke-linecap:round;stroke-linejoin:bevel;stroke-opacity:1;paint-order:stroke fill markers"
       id="rect200104"
       width="280.11874"
       height="8.9168739"
       x="20.864704"
       y="230.925"
       ry="3.1471338" />
    <g
       id="rect200107"
       transform="matrix(1.0574937,0,0,1.2426047,-17.726046,-18.142173)"
       style="fill:#434343;fill-opacity:1">
      <path
         style="color:#000000;display:inline;fill:#434343;fill-opacity:1;stroke-linecap:round;stroke-linejoin:bevel;-inkscape-stroke:none;paint-order:stroke fill markers"
         d="m 780.42773,115.98242 c -6.60548,0 -11.99414,5.38866 -11.99414,11.99414 0,6.60549 5.38866,11.99414 11.99414,11.99414 h 0.1836 c 3.04268,0 11.13072,0.0762 11.13072,0.0762 0,0 1.1408,-23.02411 -0.9536,-23.75465 -1.82923,-0.63804 -6.94429,-0.30985 -10.17712,-0.30985 z m 0,4.50781 h 0.1836 c 4.18657,0 7.48633,3.29976 7.48633,7.48633 0,4.18657 -3.29976,7.48633 -7.48633,7.48633 h -0.1836 c -4.18657,0 -7.48632,-3.29976 -7.48632,-7.48633 0,-4.18657 3.29975,-7.48633 7.48632,-7.48633 z"
         id="path200127" />
    </g>
    <path
       id="path200110"
       style="stroke-width:8.65956;stroke-linecap:round;stroke-linejoin:bevel;paint-order:stroke fill markers"
       d="m 818.4908,140.55671 c -0.0429,4.3127 2.46378,9.16833 -0.45148,11.11604 -1.47559,0.98585 -6.18022,0.68818 -9.55854,0.2953 -6.15336,-0.71559 -11.21673,-5.08202 -11.21673,-11.351 0,-6.26898 5.06892,-10.58917 11.21673,-11.351 3.77471,-0.46776 7.46322,-0.52091 8.93663,0.62507 2.51871,1.95898 1.116,6.37823 1.07339,10.66559 z" />
    <rect
       style="display:inline;opacity:1;fill:url(#linearGradient200209);fill-opacity:1;stroke:none;stroke-width:1.10393;stroke-linecap:round;stroke-linejoin:bevel;stroke-opacity:1;paint-order:stroke fill markers"
       id="rect200110"
       width="4.3015423"
       height="40.436119"
       x="817.03833"
       y="120.29981"
       ry="2.3785954" />
    <path
       style="fill:#ededed;fill-opacity:0.175676;stroke:none;stroke-width:0.770207;stroke-linecap:round;stroke-linejoin:bevel;stroke-dasharray:none;stroke-opacity:1;paint-order:stroke fill markers"
       d="m 72.510759,205.07661 c -8.959016,-0.83416 -18.017105,-1.16869 -26.845389,-3.25356 3.773317,-4.31396 6.96541,-7.80637 10.117897,-12.61059 6.440044,-4.79887 14.985493,-0.08 22.318624,-0.89224 42.722859,0.97457 85.463809,0.3256 128.190439,-0.0662 14.31364,-0.38825 30.64747,0.11146 41.81669,-12.2128 3.20778,-3.75711 7.83366,-7.76225 7.83366,-7.76225 -0.64101,-2.65788 8.20567,12.59239 13.21739,18.13707 0,0 -8.60963,8.01958 -12.12156,9.19486 -18.03365,11.34527 -39.04183,8.643 -58.73347,9.40353 -41.93053,0.17224 -83.86447,0.38646 -125.794281,0.0623 z m 111.019691,-1.71052 c -5.73331,-0.59354 -0.71826,1.27091 0,0 z m -3.14396,-1.72019 c -23.00931,-0.12028 -46.02022,-0.17264 -69.02878,0.0878 25.35083,0.21368 50.71123,0.21371 76.06238,1.2e-4 -2.34405,-0.0643 -4.68911,-0.0637 -7.0336,-0.088 z m 3.86278,-2.45244 c -4.85282,-0.93546 -3.46978,1.4419 0,0 z m -63.9278,-3.38198 c -4.01192,-0.47412 -14.46831,0.33103 -4.46862,0.29778 0.35627,-0.0313 7.1904,0.0646 4.46862,-0.29778 z m 67.78007,-0.01 c -10.53549,-0.12464 -21.07515,-0.19081 -31.60876,0.0954 11.65373,0.22542 23.31768,0.23203 34.97119,-5.2e-4 -1.11997,-0.0658 -2.24154,-0.07 -3.36243,-0.095 z m -9.59842,-3.34026 c -24.00601,-0.1173 -48.01361,-0.17591 -72.01888,0.0878 26.51697,0.21181 53.04282,0.21444 79.55948,-8e-5 -2.5131,-0.063 -5.0271,-0.0637 -7.5406,-0.0877 z m -1.66939,-2.50458 c -22.48101,-0.12041 -44.96367,-0.17244 -67.44392,0.0879 24.76789,0.2153 49.54556,0.21236 74.31381,1.5e-4 -2.28945,-0.0645 -4.57998,-0.0639 -6.86989,-0.0882 z"
       id="path200117" />
    <text
       xml:space="preserve"
       style="font-style:normal;font-variant:normal;font-weight:600;font-stretch:normal;font-size:27.9808px;font-family:'.PingFang SC';-inkscape-font-specification:'.PingFang SC, Semi-Bold';font-variant-ligatures:normal;font-variant-caps:normal;font-variant-numeric:normal;font-variant-east-asian:normal;opacity:0.271008;fill:#fffafa;fill-opacity:0.555263;stroke:none;stroke-width:0.898446;stroke-linecap:round;stroke-linejoin:bevel;stroke-opacity:1;paint-order:stroke fill markers"
       x="107.36153"
       y="134.40103"
       id="text200106"
       transform="scale(1.018962,0.98139084)"><tspan
         id="tspan200106"
         x="107.36153"
         y="134.40103"
         style="font-style:normal;font-variant:normal;font-weight:600;font-stretch:normal;font-size:27.9808px;font-family:'.PingFang SC';-inkscape-font-specification:'.PingFang SC, Semi-Bold';font-variant-ligatures:normal;font-variant-caps:normal;font-variant-numeric:normal;font-variant-east-asian:normal;fill:#fffafa;fill-opacity:0.555263;stroke:none;stroke-width:0.898446;stroke-opacity:1">The end</tspan></text>
    <path
       id="rect200119"
       style="opacity:0.697479;mix-blend-mode:normal;fill:#ededed;fill-opacity:0.864865;stroke:none;stroke-width:1.14632;stroke-linecap:round;stroke-linejoin:bevel;stroke-opacity:1;paint-order:stroke fill markers"
       d="m 251.78694,36.522835 c 7.72926,-0.03756 8.53302,7.464599 7.80819,13.980607 -2.71992,24.451547 -4.70966,67.249598 -4.71108,67.246628 C 233.87388,73.578395 69.085143,37.834919 71.542111,36.281703 91.04967,33.476154 183.82837,36.85316 251.78694,36.522835 Z" />
    <path
       id="rect200126"
       style="opacity:0.206311;fill:#d9d5d5;stroke-width:1.38011;stroke-linecap:round;stroke-linejoin:bevel;paint-order:stroke fill markers"
       d="m 124.96171,202.89752 h 78.00596 c 1.97387,0 2.71695,1.44258 3.56294,2.88828 l 9.50122,16.23627 c 0.84602,1.44571 -1.58915,2.9052 -3.56291,2.8883 l -97.83465,-0.83719 c -1.97373,-0.0169 -4.5057,-1.48252 -3.56292,-2.8883 l 10.32744,-15.39908 c 0.9428,-1.40578 1.58906,-2.88828 3.56292,-2.88828 z" />
    <g
       id="g200174"
       transform="matrix(1.0574937,0,0,1.2426047,-16.464859,-24.563971)">
      <path
         style="fill:none;fill-rule:evenodd;stroke:#cccccc;stroke-width:1.03205px;stroke-linecap:butt;stroke-linejoin:miter;stroke-opacity:1"
         d="M 86.156909,160.81202 254.34572,159.64541"
         id="path200162" />
      <path
         style="fill:none;fill-rule:evenodd;stroke:#c6c6c6;stroke-width:1.07885px;stroke-linecap:butt;stroke-linejoin:miter;stroke-opacity:1"
         d="M 78.186459,170.93471 262.32614,169.77034"
         id="path200163" />
      <path
         style="fill:none;fill-rule:evenodd;stroke:#bababa;stroke-width:1.1305px;stroke-linecap:butt;stroke-linejoin:miter;stroke-opacity:1"
         d="M 68.808852,182.61488 271.40106,181.45281"
         id="path200164" />
      <path
         style="fill:none;fill-rule:evenodd;stroke:#ffffff;stroke-width:0.702613px;stroke-linecap:butt;stroke-linejoin:miter;stroke-opacity:1"
         d="M 68.85919,182.61059 86.308394,160.64877"
         id="path200166" />
      <path
         style="fill:none;fill-rule:evenodd;stroke:#ffffff;stroke-width:0.709792px;stroke-linecap:butt;stroke-linejoin:miter;stroke-opacity:1"
         d="M 111.66056,160.60452 99.946549,183.06199"
         id="path200167" />
      <path
         style="fill:none;fill-rule:evenodd;stroke:#ffffff;stroke-width:0.795093px;stroke-linecap:butt;stroke-linejoin:miter;stroke-opacity:1"
         d="m 165.48306,160.40292 -0.79542,21.69041"
         id="path200168" />
      <path
         style="fill:none;fill-rule:evenodd;stroke:#ffffff;stroke-width:0.763716px;stroke-linecap:butt;stroke-linejoin:miter;stroke-opacity:1"
         d="m 129.85504,160.24796 -7.99433,22.72083"
         id="path200169" />
      <path
         style="fill:none;fill-rule:evenodd;stroke:#ffffff;stroke-width:0.785058px;stroke-linecap:butt;stroke-linejoin:miter;stroke-opacity:1"
         d="m 147.46531,160.05649 -4.36333,22.61475"
         id="path200170" />
      <path
         style="fill:none;fill-rule:evenodd;stroke:#ffffff;stroke-width:0.861337px;stroke-linecap:butt;stroke-linejoin:miter;stroke-opacity:1"
         d="M 185.06124,160.27625 187.03475,182.22"
         id="path200171" />
      <path
         style="fill:none;fill-rule:evenodd;stroke:#ffffff;stroke-width:0.680049px;stroke-linecap:butt;stroke-linejoin:miter;stroke-opacity:1"
         d="m 207.9791,160.47315 6.30163,21.41899"
         id="path200172" />
      <path
         style="fill:none;fill-rule:evenodd;stroke:#ffffff;stroke-width:0.731531px;stroke-linecap:butt;stroke-linejoin:miter;stroke-opacity:1"
         d="m 231.95104,159.5725 10.63554,22.61127"
         id="path200173" />
      <path
         style="fill:none;fill-rule:evenodd;stroke:#ffffff;stroke-width:0.620657px;stroke-linecap:butt;stroke-linejoin:miter;stroke-opacity:1"
         d="m 254.20381,159.51487 17.37313,22.26153"
         id="path200174" />
    </g>
    <text
       xml:space="preserve"
       style="font-style:normal;font-variant:normal;font-weight:600;font-stretch:normal;font-size:16.5284px;font-family:'.PingFang SC';-inkscape-font-specification:'.PingFang SC, Semi-Bold';font-variant-ligatures:normal;font-variant-caps:normal;font-variant-numeric:normal;font-variant-east-asian:normal;opacity:1;mix-blend-mode:normal;fill:#5f5f5f;fill-opacity:1;stroke:none;stroke-width:2.00067;stroke-linecap:round;stroke-linejoin:bevel;stroke-dasharray:none;stroke-opacity:1;paint-order:stroke fill markers"
       x="811.51776"
       y="143.43022"
       id="text200207"
       transform="scale(0.98629639,1.013894)"><tspan
         id="tspan200207"
         x="811.51776"
         y="143.43022"
         style="fill:#5f5f5f;fill-opacity:1;stroke-width:2.00067"></tspan></text>
    <rect
       style="mix-blend-mode:normal;fill:url(#linearGradient200213);fill-opacity:1;stroke:none;stroke-width:1.32277;stroke-linecap:round;stroke-linejoin:bevel;stroke-opacity:1;paint-order:stroke fill markers"
       id="rect200213"
       width="18.230349"
       height="4.0981193"
       x="819.70148"
       y="131.64359"
       ry="2.0490596" />
    <path
       id="rect200214"
       style="opacity:1;fill:#828282;stroke-width:4.46928;stroke-linecap:round;stroke-linejoin:bevel;paint-order:stroke fill markers"
       d="m 262.26241,173.31158 h 4.3107 c 1.26625,0 2.28565,1.03668 2.28565,2.32439 v 3.25469 c 0,1.28771 -1.2267,3.44789 -2.42443,3.03005 -1.94109,-0.67718 -3.70797,-4.16021 -5.90244,-7.13154 0,-1.28771 0.46428,-1.47759 1.73052,-1.47759 z" />
  </g>
</svg>
