<?xml version="1.0" encoding="UTF-8" standalone="no"?>
<!-- Created with Inkscape (http://www.inkscape.org/) -->

<svg width="235.11794" height="40.24971" viewBox="0 0 235.11794 40.24971" version="1.1" id="svg1" xmlns="http://www.w3.org/2000/svg" xmlns:svg="http://www.w3.org/2000/svg">
  <defs id="defs1">
    <filter style="color-interpolation-filters:sRGB" id="filter34" x="-0.015795159" y="-0.1374497" width="1.0315903" height="1.3818047">
      <feFlood result="flood" in="SourceGraphic" flood-opacity="0.560784" flood-color="rgb(44,44,44)" id="feFlood33" />
      <feGaussianBlur result="blur" in="SourceGraphic" stdDeviation="1.500000" id="feGaussianBlur33" />
      <feOffset result="offset" in="blur" dx="0.000000" dy="2.800000" id="feOffset33" />
      <feComposite result="comp1" operator="in" in="flood" in2="offset" id="feComposite33" />
      <feComposite result="comp2" operator="over" in="SourceGraphic" in2="comp1" id="feComposite34" />
    </filter>
    <filter style="color-interpolation-filters:sRGB" id="filter36" x="-0.124316" y="-0.12068266" width="1.248632" height="1.3352296">
      <feFlood result="flood" in="SourceGraphic" flood-opacity="0.560784" flood-color="rgb(44,44,44)" id="feFlood34" />
      <feGaussianBlur result="blur" in="SourceGraphic" stdDeviation="1.500000" id="feGaussianBlur34" />
      <feOffset result="offset" in="blur" dx="0.000000" dy="2.800000" id="feOffset34" />
      <feComposite result="comp1" operator="in" in="flood" in2="offset" id="feComposite35" />
      <feComposite result="comp2" operator="over" in="SourceGraphic" in2="comp1" id="feComposite36" />
    </filter>
  </defs>
  <g id="layer1" transform="translate(-152.32384,-119.88435)">
    <path d="m 155.92383,127.12302 v -3.63867 h 3.16406 v 3.63867 z m 0,22.13086 v -18.66797 h 3.16406 v 18.66797 z m 10.89844,0 h -2.93555 v -25.76953 h 3.16406 v 9.19336 c 1.33594,-1.67579 3.04102,-2.51368 5.11524,-2.51368 1.14843,0 2.23242,0.23438 3.25195,0.70313 1.03125,0.45703 1.875,1.10742 2.53125,1.95117 0.66797,0.83203 1.18945,1.83985 1.56445,3.02344 0.375,1.18359 0.5625,2.44922 0.5625,3.79687 0,3.19922 -0.79102,5.67188 -2.37305,7.41797 -1.58203,1.74609 -3.48046,2.61914 -5.69531,2.61914 -2.20313,0 -3.93164,-0.91992 -5.18554,-2.75976 z m -0.0352,-9.47461 c 0,2.23828 0.30469,3.85547 0.91406,4.85156 0.99609,1.62891 2.34375,2.44336 4.04297,2.44336 1.38281,0 2.57813,-0.59766 3.58594,-1.79297 1.00781,-1.20703 1.51172,-3 1.51172,-5.37891 0,-2.4375 -0.48633,-4.23633 -1.45899,-5.39648 -0.96093,-1.16015 -2.12695,-1.74023 -3.49804,-1.74023 -1.38281,0 -2.57813,0.60351 -3.58594,1.81054 -1.00781,1.19531 -1.51172,2.92969 -1.51172,5.20313 z m 15.96094,0.14062 c 0,-3.45703 0.96094,-6.01757 2.88281,-7.68164 1.60547,-1.38281 3.5625,-2.07422 5.87109,-2.07422 2.56641,0 4.66406,0.84375 6.29297,2.53125 1.62891,1.67579 2.44336,3.9961 2.44336,6.96094 0,2.40235 -0.36328,4.29493 -1.08984,5.67774 -0.71485,1.37109 -1.76368,2.4375 -3.14649,3.19921 -1.37109,0.76172 -2.87109,1.14258 -4.5,1.14258 -2.61328,0 -4.72851,-0.83789 -6.3457,-2.51367 -1.60547,-1.67578 -2.4082,-4.08984 -2.4082,-7.24219 z m 3.25195,0 c 0,2.39063 0.52148,4.1836 1.56445,5.37891 1.04297,1.18359 2.35547,1.77539 3.9375,1.77539 1.57031,0 2.87695,-0.59766 3.91992,-1.79297 1.04297,-1.19531 1.56446,-3.01758 1.56446,-5.4668 0,-2.30859 -0.52734,-4.05469 -1.58203,-5.23828 -1.04297,-1.19531 -2.34376,-1.79297 -3.90235,-1.79297 -1.58203,0 -2.89453,0.5918 -3.9375,1.77539 -1.04294,1.1836 -1.56441,2.97071 -1.56441,5.36133 z m 17.2793,-13.06054 v -3.04102 h 16.68164 v 2.46094 c -1.64063,1.74609 -3.26953,4.06641 -4.88672,6.96094 -1.60547,2.89453 -2.84765,5.87109 -3.72656,8.92968 -0.63281,2.15625 -1.03711,4.51758 -1.21289,7.08399 h -3.25196 c 0.0351,-2.02735 0.43357,-4.47657 1.19531,-7.34766 0.76172,-2.87109 1.85157,-5.63672 3.26954,-8.29687 1.42969,-2.67188 2.94726,-4.92188 4.55273,-6.75 z m 57.23437,22.39453 v -18.66797 h 2.83008 v 2.61914 c 0.58594,-0.91406 1.36524,-1.64648 2.33789,-2.19727 0.97265,-0.5625 2.08008,-0.84375 3.32227,-0.84375 1.38281,0 2.51366,0.28711 3.39257,0.86133 0.89063,0.57422 1.51758,1.37695 1.88086,2.4082 1.47657,-2.17969 3.39844,-3.26953 5.76563,-3.26953 1.85156,0 3.27539,0.51563 4.27148,1.54688 0.99609,1.01953 1.49414,2.5957 1.49414,4.72851 v 12.81446 h -3.14648 v -11.75977 c 0,-1.26563 -0.10547,-2.17383 -0.31641,-2.72461 -0.19922,-0.5625 -0.56836,-1.01367 -1.10742,-1.35351 -0.53906,-0.33985 -1.17187,-0.50977 -1.89844,-0.50977 -1.3125,0 -2.40234,0.43945 -3.26953,1.31836 -0.86719,0.86719 -1.30078,2.26172 -1.30078,4.18359 v 10.84571 h -3.16406 v -12.12891 c 0,-1.40625 -0.25781,-2.46093 -0.77344,-3.16406 -0.51563,-0.70313 -1.35938,-1.05469 -2.53125,-1.05469 -0.89063,0 -1.7168,0.23438 -2.47851,0.70313 -0.75,0.46875 -1.29492,1.15429 -1.63477,2.05664 -0.33985,0.90234 -0.50977,2.20312 -0.50977,3.90234 v 9.68555 z m 42.76758,-6.01172 3.26953,0.4043 c -0.51563,1.91015 -1.4707,3.39257 -2.86523,4.44726 -1.39453,1.05469 -3.17578,1.58203 -5.34375,1.58203 -2.73047,0 -4.89844,-0.83789 -6.50391,-2.51367 -1.59375,-1.6875 -2.39062,-4.04883 -2.39062,-7.08398 0,-3.14063 0.80859,-5.57813 2.42578,-7.3125 1.61719,-1.73438 3.71484,-2.60157 6.29297,-2.60157 2.49609,0 4.53515,0.84961 6.11718,2.54883 1.58203,1.69922 2.37305,4.08985 2.37305,7.17188 0,0.1875 -0.006,0.46875 -0.0176,0.84375 H 292.7168 c 0.11719,2.05078 0.69726,3.62109 1.74023,4.71093 1.04297,1.08985 2.34375,1.63477 3.90234,1.63477 1.16016,0 2.1504,-0.30469 2.97071,-0.91406 0.82031,-0.60938 1.4707,-1.58204 1.95117,-2.91797 z m -10.38867,-5.11524 h 10.42383 c -0.14063,-1.57031 -0.53907,-2.74804 -1.19532,-3.5332 -1.00781,-1.21875 -2.31445,-1.82812 -3.91992,-1.82812 -1.45313,0 -2.67774,0.48633 -3.67383,1.45898 -0.98437,0.97265 -1.52929,2.27343 -1.63476,3.90234 z m 18.52734,11.12696 v -3.60352 h 3.60352 v 3.60352 z m 21.28711,-6.83789 3.11133,0.40429 c -0.33985,2.14453 -1.21289,3.82618 -2.61914,5.04493 -1.39453,1.20703 -3.11133,1.81054 -5.15039,1.81054 -2.55469,0 -4.61133,-0.83203 -6.16992,-2.49609 -1.54688,-1.67578 -2.32032,-4.07226 -2.32032,-7.18945 0,-2.01563 0.33399,-3.7793 1.00196,-5.29102 0.66797,-1.51172 1.68164,-2.64258 3.04101,-3.39258 1.37109,-0.76172 2.85938,-1.14258 4.46485,-1.14258 2.02734,0 3.68554,0.51563 4.97461,1.54688 1.28906,1.01953 2.11523,2.47266 2.47851,4.35937 l -3.07617,0.47461 c -0.29297,-1.25391 -0.81445,-2.19727 -1.56445,-2.83008 -0.73829,-0.63281 -1.63477,-0.94921 -2.68946,-0.94921 -1.59375,0 -2.88867,0.57422 -3.88476,1.72265 -0.99609,1.13672 -1.49414,2.94141 -1.49414,5.41406 0,2.50781 0.48047,4.33008 1.4414,5.4668 0.96094,1.13672 2.21485,1.70508 3.76172,1.70508 1.24219,0 2.2793,-0.38086 3.11133,-1.14258 0.83203,-0.76172 1.35938,-1.93359 1.58203,-3.51562 z m 4.64063,-2.4961 c 0,-3.45703 0.96094,-6.01757 2.88281,-7.68164 1.60547,-1.38281 3.5625,-2.07422 5.87109,-2.07422 2.56641,0 4.66406,0.84375 6.29297,2.53125 1.62891,1.67579 2.44336,3.9961 2.44336,6.96094 0,2.40235 -0.36328,4.29493 -1.08984,5.67774 -0.71485,1.37109 -1.76368,2.4375 -3.14649,3.19921 -1.37109,0.76172 -2.87109,1.14258 -4.5,1.14258 -2.61328,0 -4.72851,-0.83789 -6.3457,-2.51367 -1.60547,-1.67578 -2.4082,-4.08984 -2.4082,-7.24219 z m 3.25195,0 c 0,2.39063 0.52148,4.1836 1.56445,5.37891 1.04297,1.18359 2.35547,1.77539 3.9375,1.77539 1.57031,0 2.87695,-0.59766 3.91992,-1.79297 1.04297,-1.19531 1.56446,-3.01758 1.56446,-5.4668 0,-2.30859 -0.52734,-4.05469 -1.58203,-5.23828 -1.04297,-1.19531 -2.34376,-1.79297 -3.90235,-1.79297 -1.58203,0 -2.89453,0.5918 -3.9375,1.77539 -1.04297,1.1836 -1.56445,2.97071 -1.56445,5.36133 z m 17.94726,9.33399 v -18.66797 h 2.83008 v 2.61914 c 0.58594,-0.91406 1.36524,-1.64648 2.33789,-2.19727 0.97266,-0.5625 2.08008,-0.84375 3.32227,-0.84375 1.38281,0 2.51367,0.28711 3.39258,0.86133 0.89062,0.57422 1.51757,1.37695 1.88086,2.4082 1.47656,-2.17969 3.39843,-3.26953 5.76562,-3.26953 1.85157,0 3.2754,0.51563 4.27149,1.54688 0.99609,1.01953 1.49414,2.5957 1.49414,4.72851 v 12.81446 h -3.14649 v -11.75977 c 0,-1.26563 -0.10547,-2.17383 -0.3164,-2.72461 -0.19922,-0.5625 -0.56836,-1.01367 -1.10743,-1.35351 -0.53906,-0.33985 -1.17187,-0.50977 -1.89843,-0.50977 -1.3125,0 -2.40234,0.43945 -3.26953,1.31836 -0.86719,0.86719 -1.30079,2.26172 -1.30079,4.18359 v 10.84571 h -3.16406 v -12.12891 c 0,-1.40625 -0.25781,-2.46093 -0.77344,-3.16406 -0.51562,-0.70313 -1.35937,-1.05469 -2.53125,-1.05469 -0.89062,0 -1.71679,0.23438 -2.47851,0.70313 -0.75,0.46875 -1.29492,1.15429 -1.63477,2.05664 -0.33984,0.90234 -0.50976,2.20312 -0.50976,3.90234 v 9.68555 z" id="text1" style="font-size:36px;font-family:Arial;-inkscape-font-specification:'Arial, Normal';text-align:center;text-anchor:middle;white-space:pre;inline-size:255.93;fill:#cc0000;stroke-width:0.825;stroke-linecap:round;stroke-linejoin:round;stroke-dasharray:4.95, 4.95;paint-order:stroke fill markers;filter:url(#filter34)" aria-label="ibo7@me.com" />
    <path d="m 245.44881,143.81346 q 0,2.37617 -0.70088,4.59848 -0.68379,2.22231 -1.9659,4.05145 h -7.52168 l -0.46155,-1.98299 q -1.26501,1.02569 -2.42745,1.57272 -1.16245,0.54703 -2.66678,0.54703 -2.87192,0 -4.59848,-2.17103 -1.70947,-2.17103 -1.70947,-6.06863 0,-3.8805 2.10265,-6.18829 2.10265,-2.30779 5.02585,-2.30779 1.24791,0 2.20522,0.29061 0.9573,0.27352 2.06846,0.83764 v -0.82054 h 2.71806 v 14.39376 h 4.15402 q 0.71798,-1.28211 1.07696,-3.19672 0.37609,-1.9317 0.37609,-3.45313 0,-2.80354 -0.78636,-5.09423 -0.76926,-2.29069 -2.2736,-3.93179 -1.50433,-1.64109 -3.72665,-2.51292 -2.22231,-0.88893 -5.04294,-0.88893 -2.73516,0 -5.00876,0.9915 -2.2565,0.99149 -3.8805,2.66677 -1.64109,1.67529 -2.5813,4.01726 -0.92312,2.32489 -0.92312,4.95747 0,2.82063 0.88893,5.16261 0.88892,2.32488 2.51292,3.98307 1.69238,1.72657 3.96598,2.5984 2.2736,0.88893 4.95747,0.88893 1.47015,0 3.02577,-0.18805 1.57271,-0.18804 3.00867,-0.59831 v 2.42745 q -1.65819,0.35899 -3.09415,0.47865 -1.43595,0.13676 -2.95739,0.13676 -3.17961,0 -5.89768,-1.09406 -2.71806,-1.07697 -4.66686,-3.02577 -1.96589,-1.96589 -3.05995,-4.71814 -1.09406,-2.75225 -1.09406,-6.08572 0,-3.16253 1.14534,-5.88059 1.14535,-2.73516 3.12834,-4.73524 1.98299,-2.00008 4.70105,-3.14543 2.71806,-1.14535 5.8122,-1.14535 3.35057,0 5.98316,1.05988 2.63259,1.05987 4.44463,2.97448 1.81204,1.91461 2.76934,4.61558 0.9744,2.68387 0.9744,5.98315 z m -10.6842,4.35915 v -8.85506 q -1.07697,-0.49575 -1.93171,-0.70089 -0.85473,-0.22223 -1.82913,-0.22223 -2.20522,0 -3.45314,1.53853 -1.24791,1.53852 -1.24791,4.37625 0,2.78644 0.99149,4.22239 0.9915,1.41887 3.09415,1.41887 1.14534,0 2.29069,-0.52994 1.14535,-0.52994 2.08556,-1.24792 z" id="text2" style="font-size:35.01px;font-family:'.Al Nile PUA';-inkscape-font-specification:'.Al Nile PUA';opacity:0.987531;fill-rule:evenodd;stroke-width:46.7;stroke-linecap:round;stroke-miterlimit:5.5;stroke-dashoffset:175.57;paint-order:stroke fill markers;filter:url(#filter36)" transform="scale(1.0329512,0.96809996)" aria-label="@" />
  </g>
</svg>
