<?xml version="1.0" encoding="UTF-8" standalone="no"?>
<!DOCTYPE svg PUBLIC "-//W3C//DTD SVG 1.1//EN" "http://www.w3.org/Graphics/SVG/1.1/DTD/svg11.dtd">
<!-- Created with Vectornator (http://vectornator.io/) -->
<svg height="100%" stroke-miterlimit="10" style="fill-rule:nonzero;clip-rule:evenodd;stroke-linecap:round;stroke-linejoin:round;" version="1.1" viewBox="0 0 126.799 34.0079" width="100%" xml:space="preserve" xmlns="http://www.w3.org/2000/svg" xmlns:xlink="http://www.w3.org/1999/xlink">
<defs/>
<clipPath id="ArtboardFrame">
<rect height="34.0079" width="126.799" x="0" y="0"/>
</clipPath>
<g clip-path="url(#ArtboardFrame)" id="layer1">
<g opacity="1">
<path d="M19.4234 0.153674L21.8289 0.153674L21.8289 1.79086L19.4234 1.79086L19.4234 0.153674ZM19.4234 2.54148L21.8289 2.54148L21.8289 8.81832L19.4234 8.81832L19.4234 2.54148Z" fill="#8b8b8b" fill-rule="evenodd" opacity="1" stroke="none"/>
<path d="M23.3774 0.153674L25.8066 0.153674L25.8066 3.15616C26.047 2.90398 26.3188 2.71485 26.6222 2.58876C26.9296 2.46267 27.2684 2.39963 27.6388 2.39963C28.4032 2.39963 29.0356 2.67544 29.5361 3.22708C30.0365 3.77478 30.2867 4.56283 30.2867 5.59124C30.2867 6.27685 30.1724 6.88168 29.9439 7.40574C29.7153 7.92585 29.3982 8.31594 28.9923 8.576C28.5904 8.83211 28.1432 8.96017 27.6506 8.96017C27.229 8.96017 26.8429 8.86954 26.4922 8.68829C26.2282 8.54644 25.9406 8.28047 25.6293 7.89039L25.6293 8.81832L23.3774 8.81832L23.3774 0.153674ZM25.7889 5.66217C25.7889 6.20198 25.8893 6.59404 26.0903 6.83834C26.2952 7.07869 26.5533 7.19887 26.8646 7.19887C27.1522 7.19887 27.3926 7.08066 27.5856 6.84425C27.7826 6.60389 27.8811 6.20198 27.8811 5.63853C27.8811 5.14205 27.7846 4.77758 27.5915 4.5451C27.4024 4.31263 27.1719 4.19639 26.9 4.19639C26.573 4.19639 26.305 4.31854 26.0962 4.56283C25.8913 4.80319 25.7889 5.16963 25.7889 5.66217Z" fill="#8b8b8b" fill-rule="evenodd" opacity="1" stroke="none"/>
<path d="M31.1437 5.69763C31.1437 4.74015 31.4668 3.95209 32.113 3.33347C32.7592 2.71091 33.632 2.39963 34.7313 2.39963C35.9882 2.39963 36.9379 2.7641 37.5801 3.49305C38.0963 4.08015 38.3544 4.80319 38.3544 5.66217C38.3544 6.62753 38.0332 7.41953 37.391 8.03815C36.7527 8.65283 35.8681 8.96017 34.7372 8.96017C33.7285 8.96017 32.9129 8.70405 32.2903 8.19182C31.5259 7.55744 31.1437 6.72604 31.1437 5.69763ZM33.5551 5.69173C33.5551 6.25125 33.6674 6.66498 33.892 6.93291C34.1206 7.20085 34.4062 7.33482 34.749 7.33482C35.0958 7.33482 35.3795 7.20282 35.6001 6.93883C35.8247 6.67483 35.937 6.25125 35.937 5.66809C35.937 5.12433 35.8247 4.72046 35.6001 4.45646C35.3755 4.18852 35.0977 4.05455 34.7668 4.05455C34.4161 4.05455 34.1265 4.19049 33.8979 4.46237C33.6694 4.73031 33.5551 5.14009 33.5551 5.69173Z" fill="#8b8b8b" fill-rule="evenodd" opacity="1" stroke="none"/>
<path d="M39.3237 0.153674L46.3511 0.153674L46.3511 1.77903C45.7404 2.33067 45.2301 2.92762 44.8204 3.56989C44.3239 4.35006 43.9318 5.21889 43.6442 6.17637C43.4157 6.92108 43.262 7.80173 43.1832 8.81832L40.7836 8.81832C40.9727 7.40377 41.2702 6.21774 41.676 5.26026C42.0819 4.30278 42.7241 3.27831 43.6028 2.18685L39.3237 2.18685L39.3237 0.153674Z" fill="#8b8b8b" fill-rule="evenodd" opacity="1" stroke="none"/>
<path d="M53.6919 2.03318L52.9531 6.70831C52.9373 6.80287 52.9294 6.87183 52.9294 6.91517C52.9294 6.9861 52.9491 7.04126 52.9885 7.08066C53.0279 7.12006 53.087 7.13976 53.1658 7.13976C53.3471 7.13976 53.552 7.05899 53.7805 6.89744C54.1194 6.66102 54.3972 6.32019 54.6139 5.87494C54.8345 5.42575 54.9449 4.88396 54.9449 4.24958C54.9449 3.20935 54.6454 2.3878 54.0465 1.78494C53.4515 1.18208 52.6516 0.88065 51.6469 0.88065C50.9061 0.88065 50.2303 1.05796 49.6196 1.41259C49.0128 1.76721 48.5439 2.28141 48.2129 2.9552C47.8859 3.62899 47.7224 4.3737 47.7224 5.18933C47.7224 6.4581 48.079 7.46484 48.7921 8.20955C49.5093 8.95032 50.4333 9.3207 51.5641 9.3207C52.1158 9.3207 52.6457 9.2281 53.154 9.04291C53.6663 8.85772 54.1568 8.5819 54.6257 8.21546L55.8373 8.21546C55.5142 8.59766 55.2069 8.89712 54.9153 9.11384C54.4858 9.433 53.9874 9.69306 53.42 9.89401C52.8526 10.095 52.2418 10.1954 51.5878 10.1954C50.6776 10.1954 49.86 9.98464 49.1349 9.56303C48.4099 9.14142 47.8425 8.54053 47.4328 7.76036C47.0269 6.98018 46.824 6.1212 46.824 5.18342C46.824 4.19835 47.0348 3.30391 47.4564 2.5001C47.8819 1.69234 48.4454 1.07372 49.1468 0.644234C49.8481 0.214745 50.6795 7.61719e-08 51.641 7.61719e-08C52.8821 7.61719e-08 53.8908 0.394027 54.6671 1.18208C55.4473 1.97013 55.8373 2.98869 55.8373 4.23776C55.8373 4.97853 55.6856 5.65625 55.3822 6.27094C55.0788 6.88562 54.6336 7.37224 54.0465 7.7308C53.5934 8.00662 53.1678 8.14453 52.7698 8.14453C52.5334 8.14453 52.3404 8.08937 52.1906 7.97904C52.0409 7.86871 51.9306 7.69337 51.8596 7.45302C51.5956 7.70913 51.3553 7.89038 51.1386 7.99677C50.9219 8.09922 50.6874 8.15044 50.4352 8.15044C49.9112 8.15044 49.46 7.93176 49.0818 7.49439C48.7035 7.05702 48.5144 6.43052 48.5144 5.61488C48.5144 4.64951 48.7567 3.77675 49.2413 2.99657C49.726 2.2164 50.3269 1.82631 51.044 1.82631C51.3238 1.82631 51.57 1.89133 51.7828 2.02136C51.9995 2.15139 52.2162 2.37795 52.4329 2.70105L52.5393 2.03318L53.6919 2.03318ZM49.7555 5.90449C49.7555 6.37339 49.856 6.73786 50.057 6.99792C50.2067 7.19099 50.3978 7.28753 50.6303 7.28753C50.8825 7.28753 51.111 7.18114 51.3159 6.96837C51.5208 6.75165 51.7001 6.32216 51.8537 5.6799C52.0074 5.03764 52.0842 4.46039 52.0842 3.94815C52.0842 3.56201 52.0015 3.27043 51.836 3.07341C51.6705 2.8764 51.4735 2.77789 51.245 2.77789C50.9849 2.77789 50.7564 2.8764 50.5594 3.07341C50.2954 3.33741 50.0944 3.75705 49.9565 4.33233C49.8225 4.90367 49.7555 5.42772 49.7555 5.90449Z" fill="#8b8b8b" fill-rule="evenodd" opacity="1" stroke="none"/>
<path d="M56.5643 2.54148L58.8103 2.54148L58.8103 3.45759C59.1334 3.07538 59.4584 2.8035 59.7855 2.64195C60.1165 2.4804 60.5144 2.39963 60.9794 2.39963C61.4798 2.39963 61.8758 2.48828 62.1674 2.66559C62.459 2.84291 62.6973 3.1069 62.8825 3.45759C63.2608 3.0478 63.6056 2.77001 63.9169 2.62422C64.2281 2.47449 64.6123 2.39963 65.0694 2.39963C65.7432 2.39963 66.2692 2.60058 66.6475 3.00249C67.0257 3.40045 67.2149 4.02499 67.2149 4.87608L67.2149 8.81832L64.8034 8.81832L64.8034 5.24253C64.8034 4.95883 64.7483 4.74803 64.6379 4.61012C64.4764 4.3934 64.2754 4.28504 64.0351 4.28504C63.7514 4.28504 63.5228 4.38749 63.3495 4.59239C63.1761 4.79728 63.0894 5.12629 63.0894 5.57942L63.0894 8.81832L60.678 8.81832L60.678 5.36074C60.678 5.08492 60.6622 4.89776 60.6307 4.79925C60.5795 4.64164 60.4908 4.51555 60.3647 4.42098C60.2386 4.32248 60.0909 4.27322 59.9214 4.27322C59.6456 4.27322 59.419 4.37764 59.2417 4.58648C59.0644 4.79531 58.9758 5.13811 58.9758 5.61488L58.9758 8.81832L56.5643 8.81832L56.5643 2.54148Z" fill="#8b8b8b" fill-rule="evenodd" opacity="1" stroke="none"/>
<path d="M75.6195 6.27685L70.7966 6.27685C70.8399 6.663 70.9443 6.95063 71.1098 7.13977C71.3423 7.41165 71.6457 7.54759 72.02 7.54759C72.2564 7.54759 72.481 7.48848 72.6938 7.37027C72.8238 7.29541 72.9637 7.16341 73.1134 6.97428L75.4835 7.19296C75.121 7.8234 74.6836 8.27653 74.1714 8.55235C73.6592 8.82423 72.9243 8.96017 71.9668 8.96017C71.1354 8.96017 70.4813 8.84393 70.0046 8.61146C69.5278 8.37504 69.1318 8.00269 68.8166 7.49439C68.5053 6.98216 68.3497 6.38127 68.3497 5.69172C68.3497 4.71059 68.6629 3.91663 69.2894 3.30983C69.9199 2.70303 70.7887 2.39963 71.8959 2.39963C72.7943 2.39963 73.5035 2.53557 74.0236 2.80744C74.5438 3.07932 74.9398 3.47335 75.2116 3.98952C75.4835 4.5057 75.6195 5.17752 75.6195 6.00497L75.6195 6.27685ZM73.1725 5.12432C73.1253 4.65937 72.9992 4.32642 72.7943 4.12546C72.5933 3.92451 72.3274 3.82403 71.9964 3.82403C71.6142 3.82403 71.3088 3.97573 71.0803 4.27913C70.9345 4.46827 70.8419 4.75 70.8025 5.12432L73.1725 5.12432Z" fill="#8b8b8b" fill-rule="evenodd" opacity="1" stroke="none"/>
<path d="M76.7306 6.40688L79.3016 6.40688L79.3016 8.81832L76.7306 8.81832L76.7306 6.40688Z" fill="#8b8b8b" fill-rule="evenodd" opacity="1" stroke="none"/>
<path d="M85.4366 6.36551L87.724 6.62556C87.5979 7.10234 87.391 7.51606 87.1034 7.86675C86.8157 8.21349 86.4473 8.4834 85.9981 8.67647C85.5529 8.86954 84.9855 8.96608 84.2959 8.96608C83.63 8.96608 83.0744 8.90501 82.6292 8.78286C82.1879 8.65677 81.8076 8.45582 81.4885 8.18C81.1693 7.90024 80.9191 7.5732 80.7379 7.19887C80.5566 6.82455 80.466 6.32807 80.466 5.70945C80.466 5.06325 80.5763 4.5254 80.797 4.09591C80.9585 3.78069 81.1792 3.49896 81.4589 3.25072C81.7387 2.99855 82.0263 2.81138 82.3218 2.68924C82.7907 2.49616 83.3916 2.39963 84.1245 2.39963C85.149 2.39963 85.9292 2.58285 86.465 2.94929C87.0049 3.31574 87.3831 3.85162 87.5998 4.55692L85.3361 4.85835C85.2652 4.59042 85.1352 4.38946 84.9461 4.25549C84.7609 4.11758 84.5107 4.04863 84.1954 4.04863C83.7975 4.04863 83.4744 4.19245 83.2261 4.48009C82.9818 4.76379 82.8597 5.19525 82.8597 5.77447C82.8597 6.29064 82.9818 6.6827 83.2261 6.95064C83.4704 7.21857 83.7817 7.35254 84.16 7.35254C84.4752 7.35254 84.7392 7.27177 84.952 7.11022C85.1687 6.94866 85.3302 6.70043 85.4366 6.36551Z" fill="#8b8b8b" fill-rule="evenodd" opacity="1" stroke="none"/>
<path d="M88.5337 5.69763C88.5337 4.74015 88.8568 3.95209 89.503 3.33347C90.1492 2.71091 91.022 2.39963 92.1213 2.39963C93.3782 2.39963 94.3278 2.7641 94.9701 3.49305C95.4863 4.08015 95.7444 4.80319 95.7444 5.66217C95.7444 6.62753 95.4232 7.41953 94.781 8.03815C94.1426 8.65283 93.2581 8.96017 92.1272 8.96017C91.1185 8.96017 90.3029 8.70405 89.6803 8.19182C88.9159 7.55744 88.5337 6.72604 88.5337 5.69763ZM90.9451 5.69173C90.9451 6.25125 91.0574 6.66498 91.282 6.93291C91.5105 7.20085 91.7962 7.33482 92.139 7.33482C92.4858 7.33482 92.7695 7.20282 92.9901 6.93883C93.2147 6.67483 93.327 6.25125 93.327 5.66809C93.327 5.12433 93.2147 4.72046 92.9901 4.45646C92.7655 4.18852 92.4877 4.05455 92.1567 4.05455C91.8061 4.05455 91.5165 4.19049 91.2879 4.46237C91.0594 4.73031 90.9451 5.14009 90.9451 5.69173Z" fill="#8b8b8b" fill-rule="evenodd" opacity="1" stroke="none"/>
<path d="M96.9205 2.54148L99.1665 2.54148L99.1665 3.45759C99.4896 3.07538 99.8147 2.8035 100.142 2.64195C100.473 2.4804 100.871 2.39963 101.336 2.39963C101.836 2.39963 102.232 2.48828 102.524 2.66559C102.815 2.84291 103.054 3.1069 103.239 3.45759C103.617 3.0478 103.962 2.77001 104.273 2.62422C104.584 2.47449 104.969 2.39963 105.426 2.39963C106.099 2.39963 106.625 2.60058 107.004 3.00249C107.382 3.40045 107.571 4.02499 107.571 4.87608L107.571 8.81832L105.16 8.81832L105.16 5.24253C105.16 4.95883 105.104 4.74803 104.994 4.61012C104.833 4.3934 104.632 4.28504 104.391 4.28504C104.108 4.28504 103.879 4.38749 103.706 4.59239C103.532 4.79728 103.446 5.12629 103.446 5.57942L103.446 8.81832L101.034 8.81832L101.034 5.36074C101.034 5.08492 101.018 4.89776 100.987 4.79925C100.936 4.64164 100.847 4.51555 100.721 4.42098C100.595 4.32248 100.447 4.27322 100.278 4.27322C100.002 4.27322 99.7752 4.37764 99.5979 4.58648C99.4206 4.79531 99.332 5.13811 99.332 5.61488L99.332 8.81832L96.9205 8.81832L96.9205 2.54148Z" fill="#8b8b8b" fill-rule="evenodd" opacity="1" stroke="none"/>
</g>
<g opacity="1">
<path d="M21.4629 24.6015C21.1121 24.6415 20.8422 24.6948 20.4239 24.8413C19.5333 25.1343 18.9395 25.5605 18.7236 26.04C18.5752 26.3863 18.6426 26.8391 18.872 27.2786C19.3039 27.9046 20.046 28.3974 20.6128 28.8369C20.7612 28.9302 20.6938 28.8902 20.235 29.4363C19.5602 30.0223 19.3039 30.302 18.9665 30.6616C18.6157 31.0745 18.3728 31.3808 18.2648 31.6871C18.0084 32.4064 18.1164 33.0457 18.6157 33.3786C18.8451 33.5518 19.6007 33.8182 20.5318 33.8448C20.8287 33.8714 21.6518 33.8448 21.9757 33.8448C22.8933 33.7782 23.9189 33.6051 24.4721 32.9657C24.6745 32.6594 24.7555 32.2865 24.715 31.8736C24.6341 31.1944 23.5545 29.9424 22.4885 28.9834C22.4885 28.9701 22.9473 28.3308 23.0957 28.1843C23.9863 27.2387 24.3102 26.7192 24.1753 26.0133C24.1213 25.7603 23.9189 25.4273 23.676 25.2142C23.3251 24.9212 22.7854 24.6815 22.3131 24.5882C22.1106 24.5616 21.7193 24.5616 21.4629 24.6015ZM22.34 25.5339C22.6099 25.6005 23.2307 25.8935 23.2307 26.1865C23.2442 26.4529 23.1362 26.6393 22.5964 27.1588C22.1646 27.5983 21.6249 28.1443 21.5979 28.1443C21.1121 27.8114 20.7342 27.4251 19.7357 26.6393C19.5063 26.4529 19.5333 26.333 19.8841 26.1066C20.3024 25.8269 21.0311 25.5605 21.5574 25.5072C21.7733 25.4673 22.1646 25.4806 22.34 25.5339ZM21.5169 29.9024C22.2186 30.635 22.9068 31.5273 23.0822 31.7537C23.7299 32.6594 23.2037 32.5395 21.8677 32.5395C19.1419 32.5395 19.2364 32.1533 20.127 31.2476C20.2889 31.0478 20.6668 30.7282 21.1391 30.2487C21.2065 30.2088 21.382 30.0223 21.5169 29.9024Z" fill="#666666" fill-rule="evenodd" opacity="1" stroke="none"/>
<path d="M30.9233 24.5882C30.1946 24.6681 29.412 25.1476 29.0341 25.7336C28.4674 26.586 28.4539 28.1177 28.7642 29.1699C29.0341 29.969 29.5874 30.5151 30.451 30.7282C31.2202 31.0079 32.2322 30.6749 32.1243 30.5417C32.1243 30.5551 31.9219 31.3542 31.8679 31.4874C31.571 32.3131 31.2742 33.0989 29.8573 32.6461C28.9127 32.2998 28.6833 32.7127 29.223 33.1522C29.6684 33.4985 30.532 34.1112 31.2742 33.9114C32.4751 33.5651 32.7585 32.6328 33.3523 31.1944C33.8111 30.0889 34.0944 28.2509 33.919 27.1721C33.7706 26.4262 33.5952 26.0133 33.2173 25.5605C32.7855 25.0011 32.0838 24.6015 31.2742 24.5882C31.1122 24.5749 30.9638 24.5749 30.9233 24.5882ZM31.7869 25.9734C32.0703 26.1066 32.2862 26.333 32.4751 26.666C32.6776 27.0389 32.7855 27.4784 32.7855 28.0644C32.745 28.2775 32.7585 28.4507 32.745 28.4507C32.745 28.4507 32.4616 29.8358 31.5171 29.8492C30.8963 29.8492 29.9652 29.2631 29.7628 28.6771C29.3985 27.585 30.2891 26.4129 31.0043 26.0133C31.1797 25.9334 31.2742 25.8935 31.4631 25.9068C31.598 25.9068 31.652 25.9334 31.7869 25.9734Z" fill="#6c5353" fill-rule="evenodd" opacity="1" stroke="none"/>
<path d="M38.1832 24.6815C38.1832 24.6815 37.1981 24.3219 36.1725 25.6804C35.9566 26.04 35.8352 26.4662 35.8217 26.9323C35.8217 27.3719 36.0646 27.6516 36.4424 27.4917C37.0901 27.1321 36.3884 26.9323 36.6448 26.4529C36.9822 25.8269 37.6434 25.8668 38.0752 26.0267C38.8579 26.3064 38.48 27.7714 38.507 27.7448C38.4261 28.3441 37.4815 30.2088 35.3629 32.2998C35.12 32.6061 34.8771 33.5251 36.0106 33.8315C36.321 33.9513 39.3167 33.8847 39.8295 33.645C40.3017 33.2721 40.2208 32.6328 39.816 32.4197C39.816 32.4197 39.762 32.4064 39.735 32.393C39.3706 32.2998 38.507 32.4996 37.8593 32.6195C37.5219 32.6461 36.9552 32.9658 36.9552 32.5262C36.9552 32.0068 38.1157 30.7548 38.7364 29.6361C38.7634 29.5828 38.7769 29.5428 38.7904 29.5428C38.7904 29.5428 38.7904 29.5428 38.7904 29.5295C39.3167 28.424 39.8294 27.505 39.5326 26.2398C39.3571 25.4939 38.9658 25.0411 38.3721 24.7481C38.3316 24.7347 38.2911 24.7081 38.2911 24.7081C38.2911 24.7081 38.2911 24.6948 38.2776 24.6948C38.2506 24.6948 38.1831 24.6815 38.1832 24.6815Z" fill="#6c5353" fill-rule="evenodd" opacity="1" stroke="none"/>
<path d="M44.4444 24.5882C44.3365 24.5882 44.1341 24.6149 43.9721 24.6282C43.1355 24.6815 42.7442 24.8147 42.5822 25.0677C42.5013 25.2142 42.4473 25.4939 42.3933 26.1732C42.3798 26.3463 42.3528 26.5328 42.3528 26.5594C42.3528 26.586 42.3393 26.7326 42.3259 26.8657C42.2854 27.1987 42.1639 27.9046 42.1099 28.1843C42.0964 28.2909 42.0425 28.5173 42.0155 28.6638C41.9885 28.8103 41.948 28.9568 41.9345 29.0101C41.921 29.0367 41.894 29.1566 41.894 29.2232C41.894 29.3564 41.921 29.3963 41.948 29.4895C42.0425 29.6627 42.1774 29.7559 42.3933 29.7559C42.6362 29.7559 42.8386 29.5561 42.8926 29.2498C43.3109 27.9446 45.7264 29.8358 45.6049 31.4075C45.5645 31.7271 45.4565 31.9668 45.2676 32.14C45.1461 32.2732 44.9977 32.3531 44.8223 32.4064C44.6199 32.4596 44.1341 32.4596 43.8642 32.4064C43.3649 32.2865 42.9061 32.1133 42.4608 31.8203C42.1504 31.5939 42.0425 31.554 41.8131 31.554C41.6511 31.554 41.6107 31.554 41.5297 31.5939C41.2733 31.7271 41.1519 32.0201 41.2058 32.3131C41.2463 32.5662 41.3813 32.7926 41.6376 33.0057C42.1774 33.4852 43.0275 33.8847 43.9047 33.978C44.215 34.0179 44.3095 34.0179 44.6199 33.978C45.0652 33.938 45.389 33.7782 45.6859 33.6184C46.2931 33.2454 46.698 32.6727 46.8194 31.9935C46.8734 31.7271 46.8464 31.2077 46.7519 30.9147C46.6305 30.5151 46.536 30.2887 46.3066 29.8358C46.0772 29.3564 45.8478 29.0101 45.6049 28.7703C45.2136 28.3841 44.9032 28.2109 44.269 28.0911C44.0261 28.0378 43.5133 28.0378 43.23 28.0911C43.122 28.1044 43.0141 28.131 43.0141 28.131C43.0141 28.131 43.0276 27.7315 43.0545 27.5317C43.176 26.8258 43.23 26.1865 43.23 26L43.23 25.8535L43.5808 25.8535C44.0396 25.8402 44.7008 25.7869 44.9437 25.747C45.3216 25.6937 45.5779 25.5871 45.8074 25.4007C45.9153 25.3075 45.9558 25.121 45.9018 24.9878C45.8478 24.9079 45.7939 24.8679 45.6049 24.7614C45.4565 24.6815 45.389 24.6415 45.2271 24.6282C44.9977 24.5882 44.7143 24.5749 44.4444 24.5882Z" fill="#6c5353" fill-rule="evenodd" opacity="1" stroke="none"/>
<path d="M54.754 24.5616C54.1602 24.6548 53.6744 25.8002 53.3641 26.333C52.7973 27.5716 52.7164 28.2509 52.6759 29.5561C52.46 34.7904 56.2788 34.7904 57.4393 32.3664C58.8697 29.3963 57.129 24.1753 54.754 24.5616ZM54.8214 26.1732C56.0359 25.5205 57.4933 28.7836 56.4812 31.4075C55.82 32.6594 55.0643 32.7926 54.4166 31.9002C53.526 30.5018 53.445 26.9057 54.8214 26.1732Z" fill="#916f6f" fill-rule="evenodd" opacity="1" stroke="none"/>
<path d="M61.2177 24.5616C60.6239 24.6548 60.1381 25.8002 59.8278 26.333C59.261 27.5716 59.18 28.2509 59.1396 29.5561C58.9237 34.7904 62.7425 34.7904 63.903 32.3664C65.3334 29.3963 63.5926 24.1753 61.2177 24.5616ZM61.2851 26.1732C62.4996 25.5205 63.957 28.7836 62.9449 31.4075C62.2837 32.6594 61.528 32.7926 60.8803 31.9002C59.9897 30.5018 59.9087 26.9057 61.2851 26.1732Z" fill="#916f6f" fill-rule="evenodd" opacity="1" stroke="none"/>
<path d="M69.9484 25.0544C69.9484 23.909 69.3951 24.4817 68.7609 25.8402C67.7488 28.0112 67.4385 28.7437 65.6707 31.1011C65.5358 31.2743 65.4818 31.3808 65.4683 31.5273C65.4008 31.9136 65.6842 32.2998 66.0755 32.3398C66.1565 32.3398 66.224 32.3398 66.3724 32.2998C66.6288 32.2332 68.2481 32.14 68.9633 32.2599C68.9633 32.6994 68.518 33.5385 68.5855 33.7782C68.599 33.9913 70.6636 34.0179 70.8255 33.645C70.8795 33.5385 70.0024 32.6861 70.0833 32.3131C70.2992 32.3131 71.5677 32.8192 71.5677 31.7005C71.5677 31.0478 70.5961 30.888 70.0833 30.8347C70.0698 30.4751 70.3802 29.5561 70.2318 29.1965C70.1643 29.05 70.0563 28.9302 69.9484 28.8769C69.8269 28.8236 69.638 28.8236 69.5031 28.8769C69.3141 28.9834 69.1792 29.1965 69.0982 29.4895C69.0713 29.6627 69.0173 30.4219 69.0173 30.6483L69.0173 30.8347C68.4775 30.8347 66.8312 31.3808 67.236 30.9147C67.236 30.9147 68.4505 29.1699 68.7609 28.4374C69.0847 27.7581 69.6785 26.2664 69.8134 25.7736C69.8269 25.707 69.8674 25.6271 69.8674 25.6005C69.9214 25.454 69.9349 25.2808 69.9484 25.0544Z" fill="#916f6f" fill-rule="evenodd" opacity="1" stroke="none"/>
<path d="M72.9306 30.2487C72.9845 30.3952 73.0115 30.4485 73.106 30.4485L76.8034 30.4485C76.9518 30.4485 76.9923 30.302 76.8709 30.1688L76.4795 29.7559C76.4121 29.7026 75.3595 29.6361 74.6443 29.676L72.998 29.7559C72.8901 29.7559 72.7956 29.8491 72.8496 29.9957L72.9306 30.2487Z" fill="#6c5353" fill-rule="evenodd" opacity="1" stroke="none"/>
<path d="M80.6088 24.6415C80.15 24.7614 80.2849 26.4395 79.6777 27.1055C79.1919 27.5983 78.1798 28.4906 78.1663 28.6371C77.9639 29.3031 79.4887 28.8636 79.8936 28.5439C79.8936 28.3441 79.7586 31.6472 79.5832 32.6594C79.5562 32.8192 79.2054 33.9114 79.7991 33.9114L81.0676 33.9114C81.5803 33.9114 81.2835 33.1522 81.27 33.019L81.108 32.1799C80.1365 27.1321 82.7678 24.5882 80.9461 24.5882C80.8382 24.5882 80.6762 24.6282 80.6088 24.6415Z" fill="#916f6f" fill-rule="evenodd" opacity="1" stroke="none"/>
<path d="M85.4936 24.6415C85.0348 24.7614 85.1698 26.4395 84.5625 27.1055C84.0768 27.5983 83.0647 28.4906 83.0512 28.6371C82.8488 29.3031 84.3736 28.8636 84.7785 28.5439C84.7785 28.3441 84.6435 31.6472 84.4681 32.6594C84.4411 32.8192 84.0902 33.9114 84.684 33.9114L85.9524 33.9114C86.4652 33.9114 86.1684 33.1522 86.1549 33.019L85.9929 32.1799C85.0213 27.1321 87.6527 24.5882 85.831 24.5882C85.723 24.5882 85.5611 24.6282 85.4936 24.6415Z" fill="#916f6f" fill-rule="evenodd" opacity="1" stroke="none"/>
<path d="M88.152 30.2487C88.206 30.3952 88.233 30.4485 88.3274 30.4485L92.0248 30.4485C92.1733 30.4485 92.2137 30.302 92.0923 30.1688L91.701 29.7559C91.6335 29.7026 90.5809 29.6361 89.8658 29.676L88.2195 29.7559C88.1115 29.7559 88.0171 29.8491 88.071 29.9957L88.152 30.2487Z" fill="#6c5353" fill-rule="evenodd" opacity="1" stroke="none"/>
<path d="M96.4509 24.6815C96.4509 24.6815 95.4658 24.3219 94.4403 25.6804C94.2244 26.04 94.1029 26.4662 94.0894 26.9323C94.0894 27.3719 94.3323 27.6516 94.7102 27.4917C95.3579 27.1321 94.6562 26.9323 94.9126 26.4529C95.2499 25.8269 95.9111 25.8668 96.343 26.0267C97.1256 26.3064 96.7478 27.7714 96.7748 27.7448C96.6938 28.3441 95.7492 30.2088 93.6306 32.2998C93.3877 32.6061 93.1448 33.5251 94.2783 33.8315C94.5887 33.9513 97.5844 33.8847 98.0972 33.645C98.5695 33.2721 98.4885 32.6328 98.0837 32.4197C98.0837 32.4197 98.0298 32.4064 98.0028 32.393C97.6384 32.2998 96.7748 32.4996 96.1271 32.6195C95.7897 32.6461 95.223 32.9658 95.223 32.5262C95.223 32.0068 96.3835 30.7548 97.0042 29.6361C97.0312 29.5828 97.0447 29.5428 97.0582 29.5428C97.0582 29.5428 97.0582 29.5428 97.0582 29.5295C97.5845 28.424 98.0973 27.505 97.8004 26.2398C97.625 25.4939 97.2336 25.0411 96.6399 24.7481C96.5994 24.7347 96.5589 24.7081 96.5589 24.7081C96.5589 24.7081 96.5589 24.6948 96.5454 24.6948C96.5184 24.6948 96.451 24.6815 96.4509 24.6815Z" fill="#916f6f" fill-rule="evenodd" opacity="1" stroke="none"/>
<path d="M104.156 24.5882C103.481 24.6415 103.387 24.6415 102.361 24.7347C101.66 24.8013 101.417 24.8013 100.634 24.8013C100.094 24.8013 99.6625 24.8013 99.5545 24.9745C99.3791 25.2142 99.4736 25.5605 99.73 25.707C99.9324 25.8136 100.216 25.8402 101.025 25.8402C101.552 25.8402 101.876 25.8136 102.361 25.7736C102.712 25.7336 102.996 25.707 102.996 25.707C103.104 25.707 102.631 26.3729 102.334 26.959C101.417 28.7437 100.634 31.9802 100.634 32.8459C100.634 33.7249 101.147 33.9114 101.727 33.9114C102.577 33.7915 102.375 33.2321 102.375 32.6727C102.199 29.7959 103.09 27.0788 104.858 25.4273C104.898 25.3607 104.925 25.3208 104.925 25.1476C104.925 24.7081 104.912 24.5882 104.156 24.5882Z" fill="#916f6f" fill-rule="evenodd" opacity="1" stroke="none"/>
</g>
<path d="M3.17044 17.2898C3.73837 17.1419 4.3623 17.0798 4.96766 17.0066C7.04192 16.7821 9.67524 18.1329 11.2213 16.446C14.2876 16.2252 17.371 16.1033 20.4557 16.0146C24.0318 15.9299 27.2632 18.1531 30.8419 18.1329C34.7056 18.103 38.915 15.8231 42.7787 15.8508C46.9554 15.8826 51.1211 16.0574 55.2873 16.2162C77.709 17.0495 99.6921 18.2211 121.767 17.3753C122.44 17.3675 123.114 17.299 123.788 17.3093C124.016 17.3197 124.246 17.3116 124.474 17.3055C127.217 17.207 126.978 14.946 124.235 15.0446L124.235 15.0446C124.062 15.0542 123.892 15.0646 123.717 15.0558C122.968 15.0721 122.223 15.1254 121.476 15.1612C99.1521 13.8497 77.2164 15.1115 55.5072 14.2077C51.2838 14.0545 47.0611 13.8661 42.8283 13.8312C38.9347 13.7942 35.0405 13.7845 31.1467 13.8164C27.529 13.8457 23.9106 13.8732 20.2946 13.9455C17.1219 14.0224 13.9528 14.1574 10.7951 14.3541C8.62656 14.4903 6.46493 14.6532 4.30621 14.8352C3.43204 14.9138 2.55794 15.0067 1.71897 15.1746C-0.846888 15.7728 0.604581 17.888 3.17044 17.2898Z" fill="#acacac" fill-rule="nonzero" opacity="1" stroke="#dbdbdb" stroke-linecap="butt" stroke-linejoin="miter" stroke-width="0.767623"/>
</g>
</svg>
