<?xml version="1.0" encoding="UTF-8" standalone="no"?>
<!DOCTYPE svg PUBLIC "-//W3C//DTD SVG 1.1//EN" "http://www.w3.org/Graphics/SVG/1.1/DTD/svg11.dtd">
<!-- Created with Vectornator (http://vectornator.io/) -->
<svg height="100%" stroke-miterlimit="10" style="fill-rule:nonzero;clip-rule:evenodd;stroke-linecap:round;stroke-linejoin:round;" version="1.1" viewBox="0 0 820 312" width="100%" xml:space="preserve" xmlns="http://www.w3.org/2000/svg" xmlns:xlink="http://www.w3.org/1999/xlink">
<defs/>
<clipPath id="ArtboardFrame">
<rect height="312" width="820" x="0" y="0"/>
</clipPath>
<g clip-path="url(#ArtboardFrame)" id="Слой-1">
<path d="M-12.9912-9.57318L854.37-9.57318L854.37 333.213L-12.9912 333.213L-12.9912-9.57318Z" fill="#e67b7b" fill-rule="nonzero" opacity="0.0817221" stroke="#ffed00" stroke-linecap="butt" stroke-linejoin="bevel" stroke-width="5.33037"/>
<path d="M378.546 233.882L372.689 222.503L366.831 211.123L378.546 211.123L390.261 211.123L384.404 222.503L378.546 233.882Z" fill="#000000" fill-rule="nonzero" opacity="1" stroke="none"/>
<g opacity="1">
<path d="M792.87 235.385C756.61 235.385 27.7655 235.385 27.7655 235.385" fill="none" stroke="#007bff" stroke-linecap="butt" stroke-linejoin="bevel" stroke-width="2"/>
<g fill="#007bff" stroke="none">
<path d="M791.12 235.385L785.87 242.385L799.87 235.385L785.87 228.385L791.12 235.385Z" fill="#007bff"/>
</g>
</g>
<path d="M87.9229 235.385C87.9229 228.27 93.6902 222.503 100.805 222.503C107.919 222.503 113.686 228.27 113.686 235.385C113.686 242.499 107.919 248.266 100.805 248.266C93.6902 248.266 87.9229 242.499 87.9229 235.385Z" fill="#e34234" fill-rule="nonzero" opacity="1" stroke="#ffed00" stroke-linecap="butt" stroke-linejoin="bevel" stroke-width="5.33037"/>
<path d="M704.231 235.385C704.231 228.27 709.999 222.503 717.113 222.503C724.227 222.503 729.995 228.27 729.995 235.385C729.995 242.499 724.227 248.266 717.113 248.266C709.999 248.266 704.231 242.499 704.231 235.385Z" fill="#e34234" fill-rule="nonzero" opacity="1" stroke="#ffed00" stroke-linecap="butt" stroke-linejoin="bevel" stroke-width="5.33037"/>
<path d="M717.113 321.573L717.113-7.60737L829.938-9.57318L829.938 318.102" fill="#3489e3" fill-rule="nonzero" opacity="0.171421" stroke="none"/>
<path d="M-12.9912 321.573L-12.9912-7.60737L100.805-9.57318L100.805 318.102" fill="#c79000" fill-rule="nonzero" opacity="0.201465" stroke="none"/>
<g fill="#323232" opacity="0.401709" stroke="none">
<path d="M71.5052 262.88L83.891 262.88L83.891 278.628L81.7963 278.628L81.7963 264.738L73.5892 264.738L73.5892 278.628L71.5052 278.628L71.5052 262.88Z"/>
<path d="M94.4935 277.221C93.7774 277.829 93.0881 278.259 92.4256 278.51C91.7632 278.76 91.0524 278.886 90.2933 278.886C89.0401 278.886 88.0768 278.58 87.4037 277.967C86.7305 277.355 86.3939 276.573 86.3939 275.62C86.3939 275.062 86.521 274.551 86.7753 274.089C87.0295 273.627 87.3625 273.257 87.7743 272.978C88.1861 272.698 88.6498 272.487 89.1654 272.344C89.5449 272.243 90.1179 272.147 90.8841 272.054C92.4453 271.868 93.5948 271.646 94.3324 271.388C94.3395 271.123 94.3431 270.954 94.3431 270.883C94.3431 270.095 94.1605 269.54 93.7953 269.218C93.3011 268.781 92.5671 268.562 91.5931 268.562C90.6836 268.562 90.0122 268.722 89.579 269.041C89.1457 269.359 88.8252 269.923 88.6175 270.732L86.7269 270.475C86.8988 269.665 87.1817 269.012 87.5755 268.514C87.9694 268.016 88.5388 267.633 89.2836 267.365C90.0283 267.096 90.8913 266.962 91.8724 266.962C92.8464 266.962 93.6377 267.076 94.2464 267.306C94.8552 267.535 95.3028 267.823 95.5892 268.17C95.8757 268.518 96.0762 268.956 96.1908 269.486C96.2552 269.816 96.2875 270.41 96.2875 271.27L96.2875 273.848C96.2875 275.645 96.3286 276.782 96.411 277.258C96.4934 277.735 96.6563 278.191 96.8998 278.628L94.8802 278.628C94.6797 278.227 94.5508 277.758 94.4935 277.221ZM94.3324 272.902C93.6306 273.189 92.5778 273.432 91.1742 273.633C90.3793 273.747 89.8171 273.876 89.4877 274.02C89.1582 274.163 88.904 274.372 88.725 274.648C88.5459 274.924 88.4564 275.23 88.4564 275.566C88.4564 276.082 88.6516 276.512 89.0419 276.855C89.4322 277.199 90.0033 277.371 90.7552 277.371C91.5 277.371 92.1625 277.208 92.7425 276.882C93.3226 276.556 93.7487 276.111 94.0209 275.545C94.2285 275.108 94.3324 274.464 94.3324 273.611L94.3324 272.902Z"/>
<path d="M106.729 274.449L108.63 274.696C108.423 276.007 107.891 277.033 107.035 277.774C106.179 278.515 105.128 278.886 103.882 278.886C102.321 278.886 101.066 278.375 100.117 277.355C99.1682 276.334 98.6937 274.872 98.6937 272.967C98.6937 271.735 98.8978 270.657 99.306 269.733C99.7142 268.81 100.335 268.117 101.17 267.655C102.004 267.193 102.912 266.962 103.893 266.962C105.132 266.962 106.145 267.275 106.933 267.902C107.721 268.528 108.226 269.418 108.448 270.571L106.568 270.861C106.389 270.095 106.072 269.519 105.617 269.132C105.162 268.745 104.613 268.552 103.968 268.552C102.994 268.552 102.203 268.901 101.594 269.599C100.985 270.297 100.681 271.402 100.681 272.913C100.681 274.446 100.975 275.559 101.562 276.254C102.149 276.949 102.915 277.296 103.861 277.296C104.62 277.296 105.254 277.063 105.762 276.598C106.271 276.132 106.593 275.416 106.729 274.449Z"/>
<path d="M108.995 278.628L113.163 272.698L109.307 267.22L111.724 267.22L113.475 269.895C113.804 270.403 114.069 270.829 114.27 271.173C114.585 270.7 114.875 270.281 115.14 269.916L117.063 267.22L119.372 267.22L115.43 272.591L119.673 278.628L117.299 278.628L114.957 275.083L114.334 274.127L111.337 278.628L108.995 278.628Z"/>
<path d="M128.482 277.221C127.766 277.829 127.076 278.259 126.414 278.51C125.751 278.76 125.041 278.886 124.282 278.886C123.028 278.886 122.065 278.58 121.392 277.967C120.719 277.355 120.382 276.573 120.382 275.62C120.382 275.062 120.509 274.551 120.764 274.089C121.018 273.627 121.351 273.257 121.763 272.978C122.174 272.698 122.638 272.487 123.154 272.344C123.533 272.243 124.106 272.147 124.872 272.054C126.434 271.868 127.583 271.646 128.321 271.388C128.328 271.123 128.331 270.954 128.331 270.883C128.331 270.095 128.149 269.54 127.784 269.218C127.289 268.781 126.555 268.562 125.581 268.562C124.672 268.562 124.001 268.722 123.567 269.041C123.134 269.359 122.814 269.923 122.606 270.732L120.715 270.475C120.887 269.665 121.17 269.012 121.564 268.514C121.958 268.016 122.527 267.633 123.272 267.365C124.017 267.096 124.88 266.962 125.861 266.962C126.835 266.962 127.626 267.076 128.235 267.306C128.843 267.535 129.291 267.823 129.578 268.17C129.864 268.518 130.064 268.956 130.179 269.486C130.244 269.816 130.276 270.41 130.276 271.27L130.276 273.848C130.276 275.645 130.317 276.782 130.399 277.258C130.482 277.735 130.645 278.191 130.888 278.628L128.869 278.628C128.668 278.227 128.539 277.758 128.482 277.221ZM128.321 272.902C127.619 273.189 126.566 273.432 125.162 273.633C124.368 273.747 123.805 273.876 123.476 274.02C123.147 274.163 122.892 274.372 122.713 274.648C122.534 274.924 122.445 275.23 122.445 275.566C122.445 276.082 122.64 276.512 123.03 276.855C123.42 277.199 123.992 277.371 124.744 277.371C125.488 277.371 126.151 277.208 126.731 276.882C127.311 276.556 127.737 276.111 128.009 275.545C128.217 275.108 128.321 274.464 128.321 273.611L128.321 272.902Z"/>
</g>
<g fill="#323232" opacity="0.401709" stroke="none">
<path d="M687.814 262.88L700.199 262.88L700.199 278.628L698.105 278.628L698.105 264.738L689.898 264.738L689.898 278.628L687.814 278.628L687.814 262.88Z"/>
<path d="M710.802 277.221C710.086 277.829 709.396 278.259 708.734 278.51C708.072 278.76 707.361 278.886 706.602 278.886C705.348 278.886 704.385 278.58 703.712 277.967C703.039 277.355 702.702 276.573 702.702 275.62C702.702 275.062 702.829 274.551 703.084 274.089C703.338 273.627 703.671 273.257 704.083 272.978C704.494 272.698 704.958 272.487 705.474 272.344C705.853 272.243 706.426 272.147 707.193 272.054C708.754 271.868 709.903 271.646 710.641 271.388C710.648 271.123 710.652 270.954 710.652 270.883C710.652 270.095 710.469 269.54 710.104 269.218C709.61 268.781 708.875 268.562 707.902 268.562C706.992 268.562 706.321 268.722 705.887 269.041C705.454 269.359 705.134 269.923 704.926 270.732L703.035 270.475C703.207 269.665 703.49 269.012 703.884 268.514C704.278 268.016 704.847 267.633 705.592 267.365C706.337 267.096 707.2 266.962 708.181 266.962C709.155 266.962 709.946 267.076 710.555 267.306C711.164 267.535 711.611 267.823 711.898 268.17C712.184 268.518 712.385 268.956 712.499 269.486C712.564 269.816 712.596 270.41 712.596 271.27L712.596 273.848C712.596 275.645 712.637 276.782 712.719 277.258C712.802 277.735 712.965 278.191 713.208 278.628L711.189 278.628C710.988 278.227 710.859 277.758 710.802 277.221ZM710.641 272.902C709.939 273.189 708.886 273.432 707.483 273.633C706.688 273.747 706.125 273.876 705.796 274.02C705.467 274.163 705.212 274.372 705.033 274.648C704.854 274.924 704.765 275.23 704.765 275.566C704.765 276.082 704.96 276.512 705.35 276.855C705.741 277.199 706.312 277.371 707.064 277.371C707.808 277.371 708.471 277.208 709.051 276.882C709.631 276.556 710.057 276.111 710.329 275.545C710.537 275.108 710.641 274.464 710.641 273.611L710.641 272.902Z"/>
<path d="M723.037 274.449L724.939 274.696C724.731 276.007 724.199 277.033 723.343 277.774C722.488 278.515 721.437 278.886 720.191 278.886C718.629 278.886 717.374 278.375 716.425 277.355C715.477 276.334 715.002 274.872 715.002 272.967C715.002 271.735 715.206 270.657 715.614 269.733C716.023 268.81 716.644 268.117 717.478 267.655C718.312 267.193 719.22 266.962 720.201 266.962C721.44 266.962 722.454 267.275 723.241 267.902C724.029 268.528 724.534 269.418 724.756 270.571L722.876 270.861C722.697 270.095 722.38 269.519 721.925 269.132C721.471 268.745 720.921 268.552 720.277 268.552C719.303 268.552 718.511 268.901 717.902 269.599C717.294 270.297 716.989 271.402 716.989 272.913C716.989 274.446 717.283 275.559 717.87 276.254C718.458 276.949 719.224 277.296 720.169 277.296C720.928 277.296 721.562 277.063 722.07 276.598C722.579 276.132 722.901 275.416 723.037 274.449Z"/>
<path d="M725.304 278.628L729.472 272.698L725.615 267.22L728.032 267.22L729.783 269.895C730.113 270.403 730.378 270.829 730.578 271.173C730.893 270.7 731.183 270.281 731.448 269.916L733.371 267.22L735.681 267.22L731.738 272.591L735.982 278.628L733.608 278.628L731.266 275.083L730.643 274.127L727.646 278.628L725.304 278.628Z"/>
<path d="M744.79 277.221C744.074 277.829 743.385 278.259 742.722 278.51C742.06 278.76 741.349 278.886 740.59 278.886C739.337 278.886 738.374 278.58 737.7 277.967C737.027 277.355 736.691 276.573 736.691 275.62C736.691 275.062 736.818 274.551 737.072 274.089C737.326 273.627 737.659 273.257 738.071 272.978C738.483 272.698 738.946 272.487 739.462 272.344C739.842 272.243 740.415 272.147 741.181 272.054C742.742 271.868 743.891 271.646 744.629 271.388C744.636 271.123 744.64 270.954 744.64 270.883C744.64 270.095 744.457 269.54 744.092 269.218C743.598 268.781 742.864 268.562 741.89 268.562C740.98 268.562 740.309 268.722 739.876 269.041C739.442 269.359 739.122 269.923 738.914 270.732L737.024 270.475C737.195 269.665 737.478 269.012 737.872 268.514C738.266 268.016 738.835 267.633 739.58 267.365C740.325 267.096 741.188 266.962 742.169 266.962C743.143 266.962 743.934 267.076 744.543 267.306C745.152 267.535 745.599 267.823 745.886 268.17C746.172 268.518 746.373 268.956 746.487 269.486C746.552 269.816 746.584 270.41 746.584 271.27L746.584 273.848C746.584 275.645 746.625 276.782 746.708 277.258C746.79 277.735 746.953 278.191 747.196 278.628L745.177 278.628C744.976 278.227 744.847 277.758 744.79 277.221ZM744.629 272.902C743.927 273.189 742.874 273.432 741.471 273.633C740.676 273.747 740.114 273.876 739.784 274.02C739.455 274.163 739.201 274.372 739.022 274.648C738.843 274.924 738.753 275.23 738.753 275.566C738.753 276.082 738.948 276.512 739.339 276.855C739.729 277.199 740.3 277.371 741.052 277.371C741.797 277.371 742.459 277.208 743.039 276.882C743.619 276.556 744.045 276.111 744.318 275.545C744.525 275.108 744.629 274.464 744.629 273.611L744.629 272.902Z"/>
</g>
<g fill="#323232" opacity="0.174932" stroke="none">
<path d="M331.175 111.388L331.175 97.4981L325.987 97.4981L325.987 95.6397L338.469 95.6397L338.469 97.4981L333.259 97.4981L333.259 111.388L331.175 111.388Z"/>
<path d="M346.934 107.714L348.932 107.961C348.617 109.128 348.033 110.034 347.181 110.679C346.329 111.323 345.24 111.646 343.915 111.646C342.247 111.646 340.924 111.132 339.946 110.104C338.968 109.076 338.48 107.635 338.48 105.78C338.48 103.861 338.974 102.371 339.962 101.312C340.95 100.252 342.232 99.7218 343.808 99.7218C345.333 99.7218 346.579 100.241 347.546 101.279C348.513 102.318 348.996 103.779 348.996 105.662C348.996 105.777 348.993 105.949 348.986 106.178L340.478 106.178C340.549 107.431 340.904 108.391 341.541 109.057C342.179 109.723 342.974 110.056 343.926 110.056C344.635 110.056 345.24 109.87 345.741 109.497C346.243 109.125 346.64 108.53 346.934 107.714ZM340.585 104.588L346.955 104.588C346.869 103.628 346.626 102.909 346.225 102.429C345.609 101.684 344.81 101.312 343.829 101.312C342.941 101.312 342.195 101.609 341.59 102.203C340.984 102.798 340.65 103.593 340.585 104.588Z"/>
<path d="M351.349 99.9796L353.282 99.9796L353.282 104.91C353.898 104.91 354.33 104.792 354.577 104.556C354.824 104.319 355.187 103.632 355.667 102.493C356.047 101.591 356.355 100.996 356.591 100.71C356.827 100.424 357.099 100.23 357.407 100.13C357.715 100.03 358.21 99.9796 358.89 99.9796L359.277 99.9796L359.277 101.58L358.739 101.569C358.231 101.569 357.905 101.645 357.762 101.795C357.612 101.953 357.382 102.422 357.074 103.202C356.781 103.947 356.512 104.463 356.269 104.749C356.025 105.036 355.649 105.297 355.141 105.533C355.972 105.755 356.788 106.529 357.59 107.854L359.706 111.388L357.579 111.388L355.517 107.854C355.094 107.145 354.725 106.677 354.41 106.452C354.095 106.226 353.719 106.113 353.282 106.113L353.282 111.388L351.349 111.388L351.349 99.9796Z"/>
<path d="M361.146 115.781L360.931 113.966C361.353 114.08 361.722 114.138 362.037 114.138C362.467 114.138 362.811 114.066 363.069 113.923C363.326 113.78 363.538 113.579 363.702 113.321C363.824 113.128 364.021 112.648 364.293 111.882C364.329 111.774 364.386 111.617 364.465 111.409L360.136 99.9796L362.22 99.9796L364.594 106.586C364.902 107.424 365.178 108.305 365.421 109.229C365.643 108.341 365.908 107.474 366.216 106.629L368.655 99.9796L370.588 99.9796L366.248 111.581C365.783 112.834 365.421 113.697 365.163 114.17C364.82 114.807 364.426 115.275 363.982 115.572C363.538 115.869 363.008 116.018 362.392 116.018C362.019 116.018 361.604 115.939 361.146 115.781Z"/>
<path d="M372.296 99.9796L374.23 99.9796L374.23 109.798L378.634 109.798L378.634 99.9796L380.568 99.9796L380.568 109.798L384.983 109.798L384.983 99.9796L386.905 99.9796L386.905 109.798L388.184 109.798L388.184 114.621L386.583 114.621L386.583 111.388L372.296 111.388L372.296 99.9796Z"/>
<path d="M390.332 99.9796L392.266 99.9796L392.266 108.681L397.626 99.9796L399.71 99.9796L399.71 111.388L397.777 111.388L397.777 102.74L392.416 111.388L390.332 111.388L390.332 99.9796Z"/>
<path d="M402.621 99.9796L404.555 99.9796L404.555 108.681L409.915 99.9796L411.999 99.9796L411.999 111.388L410.066 111.388L410.066 102.74L404.705 111.388L402.621 111.388L402.621 99.9796ZM409.335 95.6612L410.656 95.6612C410.549 96.5564 410.221 97.2439 409.674 97.7237C409.126 98.2035 408.397 98.4434 407.488 98.4434C406.571 98.4434 405.839 98.2053 405.291 97.7291C404.743 97.2528 404.415 96.5636 404.308 95.6612L405.629 95.6612C405.729 96.1482 405.928 96.5116 406.225 96.7515C406.523 96.9915 406.922 97.1114 407.423 97.1114C408.003 97.1114 408.442 96.995 408.739 96.7623C409.036 96.5295 409.235 96.1625 409.335 95.6612Z"/>
<path d="M421.033 99.9796L427.597 99.9796L427.597 101.58L422.967 101.58L422.967 111.388L421.033 111.388L421.033 99.9796Z"/>
<path d="M427.844 105.684C427.844 103.571 428.431 102.006 429.606 100.989C430.587 100.144 431.783 99.7218 433.194 99.7218C434.762 99.7218 436.044 100.236 437.039 101.263C438.035 102.291 438.532 103.711 438.532 105.523C438.532 106.991 438.312 108.145 437.872 108.987C437.431 109.828 436.79 110.482 435.949 110.947C435.107 111.413 434.189 111.646 433.194 111.646C431.597 111.646 430.306 111.134 429.321 110.109C428.336 109.085 427.844 107.61 427.844 105.684ZM429.831 105.684C429.831 107.145 430.15 108.239 430.787 108.965C431.425 109.692 432.227 110.056 433.194 110.056C434.153 110.056 434.952 109.691 435.589 108.96C436.226 108.23 436.545 107.116 436.545 105.619C436.545 104.208 436.225 103.14 435.584 102.413C434.943 101.686 434.146 101.322 433.194 101.322C432.227 101.322 431.425 101.684 430.787 102.407C430.15 103.131 429.831 104.223 429.831 105.684Z"/>
<path d="M441.841 99.9796L449.79 99.9796L449.79 109.798L451.026 109.798L451.026 114.621L449.436 114.621L449.436 111.388L440.455 111.388L440.455 114.621L438.865 114.621L438.865 109.798L439.886 109.798C441.247 107.95 441.898 104.677 441.841 99.9796ZM443.452 101.58C443.309 105.283 442.736 108.022 441.734 109.798L447.867 109.798L447.867 101.58L443.452 101.58Z"/>
</g>
<g fill="#323232" opacity="0.401709" stroke="none">
<path d="M680.804 201.696C680.804 200.352 681.178 199.356 681.925 198.709C682.549 198.171 683.31 197.902 684.208 197.902C685.206 197.902 686.022 198.229 686.655 198.883C687.289 199.537 687.606 200.44 687.606 201.593C687.606 202.528 687.465 203.263 687.185 203.798C686.905 204.334 686.497 204.749 685.962 205.046C685.426 205.342 684.842 205.49 684.208 205.49C683.192 205.49 682.37 205.164 681.744 204.512C681.117 203.861 680.804 202.922 680.804 201.696ZM682.069 201.696C682.069 202.626 682.271 203.322 682.677 203.784C683.083 204.247 683.593 204.478 684.208 204.478C684.819 204.478 685.327 204.246 685.733 203.781C686.138 203.316 686.341 202.607 686.341 201.655C686.341 200.757 686.137 200.077 685.729 199.614C685.321 199.152 684.814 198.921 684.208 198.921C683.593 198.921 683.083 199.151 682.677 199.611C682.271 200.071 682.069 200.766 682.069 201.696Z"/>
<path d="M693.279 198.066L693.279 201.204C693.671 201.204 693.947 201.129 694.107 200.978C694.266 200.828 694.499 200.39 694.804 199.666C695.091 198.978 695.348 198.538 695.576 198.346C695.8 198.16 696.155 198.066 696.643 198.066L697.094 198.066L697.094 199.085L696.759 199.078C696.431 199.078 696.221 199.126 696.13 199.221C696.034 199.322 695.888 199.62 695.693 200.117C695.51 200.591 695.342 200.919 695.187 201.101C695.032 201.284 694.79 201.45 694.462 201.6C694.995 201.742 695.515 202.234 696.021 203.077L697.374 205.326L696.021 205.326L694.701 203.077C694.432 202.621 694.198 202.323 693.997 202.181C693.797 202.04 693.557 201.969 693.279 201.969L693.279 205.326L692.022 205.326L692.022 201.969C691.748 201.969 691.511 202.039 691.311 202.178C691.11 202.317 690.875 202.617 690.607 203.077L689.287 205.326L687.934 205.326L689.28 203.077C689.791 202.234 690.313 201.742 690.846 201.6C690.481 201.432 690.226 201.248 690.08 201.05C689.934 200.852 689.716 200.379 689.424 199.632C689.324 199.381 689.217 199.226 689.103 199.167C688.984 199.107 688.809 199.078 688.576 199.078C688.517 199.078 688.396 199.08 688.214 199.085L688.214 198.066L688.385 198.066C688.859 198.066 689.193 198.095 689.386 198.152C689.58 198.209 689.753 198.329 689.906 198.514C690.059 198.698 690.258 199.082 690.504 199.666C690.805 200.381 691.034 200.816 691.191 200.971C691.348 201.126 691.625 201.204 692.022 201.204L692.022 198.066L693.279 198.066Z"/>
<path d="M698.256 198.066L699.486 198.066L699.486 203.603L702.898 198.066L704.224 198.066L704.224 205.326L702.993 205.326L702.993 199.823L699.582 205.326L698.256 205.326L698.256 198.066Z"/>
<path d="M707.047 198.066L712.106 198.066L712.106 204.314L712.892 204.314L712.892 207.384L711.88 207.384L711.88 205.326L706.165 205.326L706.165 207.384L705.153 207.384L705.153 204.314L705.803 204.314C706.669 203.138 707.083 201.056 707.047 198.066ZM708.072 199.085C707.981 201.441 707.617 203.184 706.979 204.314L710.882 204.314L710.882 199.085L708.072 199.085Z"/>
<path d="M718.983 204.43C718.527 204.818 718.088 205.091 717.667 205.251C717.245 205.41 716.793 205.49 716.31 205.49C715.512 205.49 714.899 205.295 714.471 204.905C714.042 204.516 713.828 204.018 713.828 203.412C713.828 203.056 713.909 202.732 714.071 202.438C714.233 202.144 714.445 201.908 714.707 201.73C714.969 201.552 715.264 201.418 715.592 201.327C715.833 201.263 716.198 201.202 716.686 201.142C717.679 201.024 718.411 200.883 718.88 200.718C718.885 200.55 718.887 200.443 718.887 200.397C718.887 199.896 718.771 199.543 718.538 199.338C718.224 199.06 717.757 198.921 717.137 198.921C716.558 198.921 716.131 199.022 715.855 199.225C715.579 199.428 715.375 199.787 715.243 200.301L714.04 200.137C714.15 199.622 714.33 199.207 714.58 198.89C714.831 198.573 715.193 198.329 715.667 198.158C716.141 197.988 716.69 197.902 717.315 197.902C717.934 197.902 718.438 197.975 718.825 198.121C719.213 198.267 719.498 198.45 719.68 198.671C719.862 198.892 719.99 199.171 720.063 199.509C720.104 199.718 720.124 200.096 720.124 200.643L720.124 202.284C720.124 203.428 720.15 204.151 720.203 204.454C720.255 204.757 720.359 205.048 720.514 205.326L719.229 205.326C719.101 205.071 719.019 204.772 718.983 204.43ZM718.88 201.682C718.433 201.865 717.763 202.02 716.87 202.147C716.364 202.22 716.007 202.302 715.797 202.393C715.587 202.484 715.426 202.618 715.312 202.793C715.198 202.969 715.141 203.163 715.141 203.378C715.141 203.706 715.265 203.979 715.513 204.198C715.762 204.417 716.125 204.526 716.604 204.526C717.078 204.526 717.499 204.422 717.868 204.215C718.237 204.008 718.509 203.724 718.682 203.364C718.814 203.086 718.88 202.676 718.88 202.134L718.88 201.682Z"/>
<path d="M727.001 202.988L728.273 203.145C728.072 203.888 727.701 204.465 727.158 204.875C726.616 205.285 725.923 205.49 725.08 205.49C724.018 205.49 723.176 205.163 722.554 204.509C721.932 203.855 721.621 202.938 721.621 201.758C721.621 200.536 721.936 199.588 722.565 198.914C723.194 198.239 724.009 197.902 725.012 197.902C725.983 197.902 726.776 198.232 727.391 198.893C728.006 199.554 728.314 200.484 728.314 201.682C728.314 201.755 728.311 201.865 728.307 202.01L722.893 202.01C722.938 202.808 723.164 203.419 723.569 203.843C723.975 204.266 724.481 204.478 725.087 204.478C725.538 204.478 725.923 204.36 726.242 204.123C726.561 203.886 726.814 203.508 727.001 202.988ZM722.961 200.999L727.015 200.999C726.96 200.388 726.805 199.93 726.55 199.625C726.158 199.151 725.65 198.914 725.026 198.914C724.46 198.914 723.985 199.103 723.6 199.481C723.215 199.859 723.002 200.365 722.961 200.999Z"/>
<path d="M729.852 198.066L731.766 198.066L733.673 203.877L735.792 198.066L737.563 198.066L737.563 205.326L736.332 205.326L736.332 199.481L734.186 205.326L733.085 205.326L731.055 199.201L731.055 205.326L729.852 205.326L729.852 198.066Z"/>
<path d="M744.18 204.43C743.724 204.818 743.285 205.091 742.864 205.251C742.442 205.41 741.99 205.49 741.507 205.49C740.709 205.49 740.097 205.295 739.668 204.905C739.24 204.516 739.026 204.018 739.026 203.412C739.026 203.056 739.106 202.732 739.268 202.438C739.43 202.144 739.642 201.908 739.904 201.73C740.166 201.552 740.461 201.418 740.789 201.327C741.031 201.263 741.395 201.202 741.883 201.142C742.876 201.024 743.608 200.883 744.077 200.718C744.082 200.55 744.084 200.443 744.084 200.397C744.084 199.896 743.968 199.543 743.735 199.338C743.421 199.06 742.954 198.921 742.334 198.921C741.755 198.921 741.328 199.022 741.052 199.225C740.777 199.428 740.573 199.787 740.441 200.301L739.237 200.137C739.347 199.622 739.527 199.207 739.777 198.89C740.028 198.573 740.39 198.329 740.864 198.158C741.338 197.988 741.888 197.902 742.512 197.902C743.132 197.902 743.635 197.975 744.023 198.121C744.41 198.267 744.695 198.45 744.877 198.671C745.059 198.892 745.187 199.171 745.26 199.509C745.301 199.718 745.321 200.096 745.321 200.643L745.321 202.284C745.321 203.428 745.348 204.151 745.4 204.454C745.452 204.757 745.556 205.048 745.711 205.326L744.426 205.326C744.298 205.071 744.216 204.772 744.18 204.43ZM744.077 201.682C743.631 201.865 742.961 202.02 742.068 202.147C741.562 202.22 741.204 202.302 740.994 202.393C740.785 202.484 740.623 202.618 740.509 202.793C740.395 202.969 740.338 203.163 740.338 203.378C740.338 203.706 740.462 203.979 740.711 204.198C740.959 204.417 741.322 204.526 741.801 204.526C742.275 204.526 742.696 204.422 743.066 204.215C743.435 204.008 743.706 203.724 743.879 203.364C744.011 203.086 744.077 202.676 744.077 202.134L744.077 201.682Z"/>
<path d="M752.944 198.066L752.944 205.326L751.72 205.326L751.72 202.496L751.009 202.496C750.576 202.496 750.254 202.552 750.042 202.663C749.83 202.775 749.521 203.134 749.115 203.74L748.042 205.326L746.518 205.326L747.844 203.371C748.249 202.774 748.653 202.437 749.054 202.359C748.352 202.263 747.831 202.01 747.492 201.6C747.152 201.19 746.983 200.718 746.983 200.185C746.983 199.556 747.205 199.046 747.649 198.654C748.093 198.262 748.737 198.066 749.58 198.066L752.944 198.066ZM751.72 199.085L749.97 199.085C749.236 199.085 748.763 199.199 748.551 199.426C748.34 199.654 748.234 199.921 748.234 200.226C748.234 200.659 748.39 200.977 748.702 201.18C749.014 201.383 749.567 201.484 750.36 201.484L751.72 201.484L751.72 199.085Z"/>
</g>
<g fill="#323232" opacity="0.401709" stroke="none">
<path d="M63.4188 198.066L69.1473 198.066L69.1473 205.326L67.9169 205.326L67.9169 199.085L64.6493 199.085L64.6493 205.326L63.4188 205.326L63.4188 198.066Z"/>
<path d="M70.993 208.108L70.993 198.066L72.1141 198.066L72.1141 199.009C72.3784 198.64 72.6769 198.363 73.0096 198.179C73.3423 197.994 73.7456 197.902 74.2196 197.902C74.8394 197.902 75.3863 198.062 75.8602 198.381C76.3342 198.7 76.6919 199.15 76.9335 199.731C77.175 200.312 77.2958 200.949 77.2958 201.641C77.2958 202.384 77.1625 203.053 76.8959 203.648C76.6293 204.242 76.2419 204.698 75.7338 205.015C75.2256 205.332 74.6913 205.49 74.1307 205.49C73.7206 205.49 73.3526 205.403 73.0267 205.23C72.7009 205.057 72.4331 204.838 72.2235 204.574L72.2235 208.108L70.993 208.108ZM72.1073 201.737C72.1073 202.671 72.2964 203.362 72.6747 203.808C73.0529 204.255 73.5109 204.478 74.0487 204.478C74.5956 204.478 75.0638 204.247 75.4535 203.784C75.8431 203.322 76.038 202.605 76.038 201.634C76.038 200.709 75.8477 200.017 75.4671 199.556C75.0866 199.096 74.632 198.866 74.1034 198.866C73.5793 198.866 73.1156 199.111 72.7123 199.601C72.3089 200.091 72.1073 200.803 72.1073 201.737Z"/>
<path d="M78.3212 201.696C78.3212 200.352 78.6949 199.356 79.4422 198.709C80.0666 198.171 80.8277 197.902 81.7255 197.902C82.7235 197.902 83.5393 198.229 84.1727 198.883C84.8062 199.537 85.1229 200.44 85.1229 201.593C85.1229 202.528 84.9828 203.263 84.7025 203.798C84.4222 204.334 84.0143 204.749 83.4789 205.046C82.9434 205.342 82.3589 205.49 81.7255 205.49C80.7092 205.49 79.8877 205.164 79.2611 204.512C78.6345 203.861 78.3212 202.922 78.3212 201.696ZM79.5858 201.696C79.5858 202.626 79.7886 203.322 80.1942 203.784C80.5998 204.247 81.1102 204.478 81.7255 204.478C82.3361 204.478 82.8443 204.246 83.2499 203.781C83.6555 203.316 83.8583 202.607 83.8583 201.655C83.8583 200.757 83.6543 200.077 83.2464 199.614C82.8386 199.152 82.3316 198.921 81.7255 198.921C81.1102 198.921 80.5998 199.151 80.1942 199.611C79.7886 200.071 79.5858 200.766 79.5858 201.696Z"/>
<path d="M86.6063 198.066L87.8368 198.066L87.8368 204.307L90.6395 204.307L90.6395 198.066L91.87 198.066L91.87 204.307L94.6796 204.307L94.6796 198.066L95.9032 198.066L95.9032 205.326L86.6063 205.326L86.6063 198.066Z"/>
<path d="M102.766 202.988L104.038 203.145C103.837 203.888 103.466 204.465 102.924 204.875C102.381 205.285 101.689 205.49 100.846 205.49C99.7837 205.49 98.9418 205.163 98.3197 204.509C97.6976 203.855 97.3866 202.938 97.3866 201.758C97.3866 200.536 97.701 199.588 98.3299 198.914C98.9588 198.239 99.7746 197.902 100.777 197.902C101.748 197.902 102.541 198.232 103.156 198.893C103.771 199.554 104.079 200.484 104.079 201.682C104.079 201.755 104.077 201.865 104.072 202.01L98.6581 202.01C98.7036 202.808 98.9292 203.419 99.3348 203.843C99.7404 204.266 100.246 204.478 100.852 204.478C101.304 204.478 101.689 204.36 102.008 204.123C102.327 203.886 102.58 203.508 102.766 202.988ZM98.7264 200.999L102.78 200.999C102.725 200.388 102.571 199.93 102.315 199.625C101.923 199.151 101.415 198.914 100.791 198.914C100.226 198.914 99.7507 199.103 99.3656 199.481C98.9805 199.859 98.7674 200.365 98.7264 200.999Z"/>
<path d="M106.246 198.066L111.305 198.066L111.305 204.314L112.091 204.314L112.091 207.384L111.079 207.384L111.079 205.326L105.364 205.326L105.364 207.384L104.352 207.384L104.352 204.314L105.002 204.314C105.868 203.138 106.282 201.056 106.246 198.066ZM107.271 199.085C107.18 201.441 106.816 203.184 106.178 204.314L110.081 204.314L110.081 199.085L107.271 199.085Z"/>
<path d="M113.485 198.066L114.716 198.066L114.716 204.307L117.518 204.307L117.518 198.066L118.749 198.066L118.749 204.307L121.558 204.307L121.558 198.066L122.782 198.066L122.782 205.326L113.485 205.326L113.485 198.066Z"/>
<path d="M129.413 204.43C128.957 204.818 128.519 205.091 128.097 205.251C127.675 205.41 127.223 205.49 126.74 205.49C125.943 205.49 125.33 205.295 124.901 204.905C124.473 204.516 124.259 204.018 124.259 203.412C124.259 203.056 124.34 202.732 124.501 202.438C124.663 202.144 124.875 201.908 125.137 201.73C125.399 201.552 125.694 201.418 126.022 201.327C126.264 201.263 126.628 201.202 127.116 201.142C128.11 201.024 128.841 200.883 129.31 200.718C129.315 200.55 129.317 200.443 129.317 200.397C129.317 199.896 129.201 199.543 128.969 199.338C128.654 199.06 128.187 198.921 127.567 198.921C126.988 198.921 126.561 199.022 126.286 199.225C126.01 199.428 125.806 199.787 125.674 200.301L124.471 200.137C124.58 199.622 124.76 199.207 125.011 198.89C125.261 198.573 125.624 198.329 126.098 198.158C126.571 197.988 127.121 197.902 127.745 197.902C128.365 197.902 128.868 197.975 129.256 198.121C129.643 198.267 129.928 198.45 130.11 198.671C130.293 198.892 130.42 199.171 130.493 199.509C130.534 199.718 130.555 200.096 130.555 200.643L130.555 202.284C130.555 203.428 130.581 204.151 130.633 204.454C130.686 204.757 130.789 205.048 130.944 205.326L129.659 205.326C129.531 205.071 129.449 204.772 129.413 204.43ZM129.31 201.682C128.864 201.865 128.194 202.02 127.301 202.147C126.795 202.22 126.437 202.302 126.227 202.393C126.018 202.484 125.856 202.618 125.742 202.793C125.628 202.969 125.571 203.163 125.571 203.378C125.571 203.706 125.695 203.979 125.944 204.198C126.192 204.417 126.556 204.526 127.034 204.526C127.508 204.526 127.93 204.422 128.299 204.215C128.668 204.008 128.939 203.724 129.112 203.364C129.244 203.086 129.31 202.676 129.31 202.134L129.31 201.682Z"/>
<path d="M138.177 198.066L138.177 205.326L136.953 205.326L136.953 202.496L136.242 202.496C135.809 202.496 135.487 202.552 135.275 202.663C135.063 202.775 134.754 203.134 134.348 203.74L133.275 205.326L131.751 205.326L133.077 203.371C133.483 202.774 133.886 202.437 134.287 202.359C133.585 202.263 133.064 202.01 132.725 201.6C132.385 201.19 132.216 200.718 132.216 200.185C132.216 199.556 132.438 199.046 132.882 198.654C133.327 198.262 133.97 198.066 134.813 198.066L138.177 198.066ZM136.953 199.085L135.203 199.085C134.469 199.085 133.996 199.199 133.785 199.426C133.573 199.654 133.467 199.921 133.467 200.226C133.467 200.659 133.623 200.977 133.935 201.18C134.247 201.383 134.8 201.484 135.593 201.484L136.953 201.484L136.953 199.085Z"/>
</g>
<g fill="#7b7b7b" opacity="1" stroke="none">
<path d="M393.559 203.468L393.559 205.326L383.149 205.326C383.135 204.86 383.21 204.413 383.375 203.983C383.64 203.274 384.064 202.576 384.648 201.888C385.232 201.201 386.075 200.406 387.178 199.504C388.889 198.1 390.046 196.988 390.647 196.168C391.249 195.348 391.55 194.573 391.55 193.843C391.55 193.076 391.276 192.43 390.728 191.904C390.18 191.377 389.466 191.114 388.585 191.114C387.654 191.114 386.909 191.393 386.351 191.952C385.792 192.51 385.509 193.284 385.502 194.272L383.515 194.068C383.651 192.586 384.163 191.456 385.051 190.679C385.939 189.902 387.131 189.513 388.628 189.513C390.139 189.513 391.335 189.932 392.216 190.77C393.097 191.608 393.537 192.647 393.537 193.885C393.537 194.516 393.408 195.135 393.15 195.744C392.893 196.353 392.465 196.994 391.867 197.667C391.269 198.34 390.275 199.264 388.886 200.438C387.726 201.412 386.981 202.073 386.651 202.42C386.322 202.767 386.05 203.117 385.835 203.468L393.559 203.468Z"/>
<path d="M405.794 203.468L405.794 205.326L395.385 205.326C395.37 204.86 395.446 204.413 395.61 203.983C395.875 203.274 396.3 202.576 396.883 201.888C397.467 201.201 398.31 200.406 399.413 199.504C401.125 198.1 402.281 196.988 402.883 196.168C403.484 195.348 403.785 194.573 403.785 193.843C403.785 193.076 403.511 192.43 402.963 191.904C402.415 191.377 401.701 191.114 400.82 191.114C399.889 191.114 399.144 191.393 398.586 191.952C398.027 192.51 397.744 193.284 397.737 194.272L395.75 194.068C395.886 192.586 396.398 191.456 397.286 190.679C398.174 189.902 399.366 189.513 400.863 189.513C402.374 189.513 403.57 189.932 404.451 190.77C405.332 191.608 405.772 192.647 405.772 193.885C405.772 194.516 405.643 195.135 405.386 195.744C405.128 196.353 404.7 196.994 404.102 197.667C403.504 198.34 402.51 199.264 401.121 200.438C399.961 201.412 399.216 202.073 398.887 202.42C398.557 202.767 398.285 203.117 398.07 203.468L405.794 203.468Z"/>
<path d="M407.867 201.201L409.897 201.029C410.048 202.017 410.397 202.76 410.945 203.258C411.493 203.756 412.153 204.005 412.927 204.005C413.858 204.005 414.645 203.654 415.29 202.952C415.935 202.25 416.257 201.319 416.257 200.159C416.257 199.056 415.947 198.186 415.328 197.549C414.708 196.911 413.897 196.593 412.894 196.593C412.271 196.593 411.709 196.734 411.208 197.017C410.707 197.3 410.313 197.667 410.026 198.118L408.211 197.882L409.736 189.793L417.567 189.793L417.567 191.64L411.283 191.64L410.435 195.873C411.38 195.214 412.372 194.884 413.41 194.884C414.785 194.884 415.945 195.361 416.891 196.313C417.836 197.266 418.309 198.49 418.309 199.987C418.309 201.412 417.893 202.644 417.062 203.682C416.053 204.957 414.674 205.594 412.927 205.594C411.494 205.594 410.325 205.193 409.419 204.391C408.513 203.589 407.996 202.526 407.867 201.201Z"/>
</g>
</g>
</svg>
