<?xml version="1.0" encoding="UTF-8" standalone="no"?>
<!DOCTYPE svg PUBLIC "-//W3C//DTD SVG 1.1//EN" "http://www.w3.org/Graphics/SVG/1.1/DTD/svg11.dtd">
<!-- Created with Vectornator (http://vectornator.io/) -->
<svg height="100%" stroke-miterlimit="10" style="fill-rule:nonzero;clip-rule:evenodd;stroke-linecap:round;stroke-linejoin:round;" version="1.1" viewBox="0 0 512 150" width="100%" xml:space="preserve" xmlns="http://www.w3.org/2000/svg" xmlns:vectornator="http://vectornator.io" xmlns:xlink="http://www.w3.org/1999/xlink">
<defs>
<clipPath id="TextBounds">
<rect height="173" width="493.828" x="33.2667" y="-22.9254"/>
</clipPath>
<clipPath id="TextBounds_2">
<rect height="173" width="493.828" x="13.0332" y="-23.056"/>
</clipPath>
<clipPath id="TextBounds_3">
<rect height="173" width="493.828" x="23.1624" y="-23.0413"/>
</clipPath>
<clipPath id="TextBounds_4">
<rect height="1" width="0" x="62.9227" y="170.781"/>
</clipPath>
</defs>
<clipPath id="ArtboardFrame">
<rect height="150" width="512" x="0" y="0"/>
</clipPath>
<g clip-path="url(#ArtboardFrame)" id="Слой-1" vectornator:layerName="Слой 1">
<path d="M371.159 371.617L371.159 371.617C371.171 371.617 371.182 371.627 371.182 371.64L371.182 371.752C371.182 371.765 371.171 371.775 371.159 371.775L371.159 371.775C371.146 371.775 371.136 371.765 371.136 371.752L371.136 371.64C371.136 371.627 371.146 371.617 371.159 371.617Z" fill="#000000" fill-rule="nonzero" opacity="1" stroke="none"/>
<g fill="#dcd35b" opacity="1" stroke="none">
<path clip-path="url(#TextBounds)" d="M44.0597 23.7445L84.1505 23.7445C92.0535 23.7445 98.4374 24.8168 103.302 26.9613C108.167 29.1058 112.188 32.1836 115.365 36.1947C118.542 40.2057 120.846 44.8721 122.275 50.1937C123.705 55.5153 124.42 61.1546 124.42 67.1117C124.42 76.4444 123.358 83.6821 121.233 88.8251C119.108 93.968 116.16 98.2769 112.387 101.752C108.614 105.227 104.563 107.54 100.234 108.692C94.3171 110.28 88.9558 111.075 84.1505 111.075L44.0597 111.075L44.0597 23.7445ZM71.045 43.5218L71.045 91.2376L77.6573 91.2376C83.2966 91.2376 87.3077 90.6122 89.6905 89.3612C92.0733 88.1102 93.9399 85.926 95.2901 82.8085C96.6404 79.6909 97.3155 74.6374 97.3155 67.6478C97.3155 58.3946 95.8064 52.0602 92.7882 48.6449C89.7699 45.2295 84.766 43.5218 77.7765 43.5218L71.045 43.5218Z"/>
<path clip-path="url(#TextBounds)" d="M137.942 23.7445L162.247 23.7445L162.247 40.4242L137.942 40.4242L137.942 23.7445ZM137.942 47.8109L162.247 47.8109L162.247 109.168C162.247 116.992 161.681 122.532 160.549 125.788C159.418 129.045 157.323 131.686 154.265 133.711C151.207 135.737 146.838 136.749 141.159 136.749C136.473 136.749 130.655 136.054 123.705 134.664L127.339 117.032C129.285 117.429 130.715 117.627 131.628 117.627C133.693 117.627 135.262 116.922 136.334 115.513C137.406 114.103 137.942 111.293 137.942 107.083L137.942 47.8109Z"/>
<path clip-path="url(#TextBounds)" d="M199.717 68.3031L176.544 65.8607C177.418 61.8099 178.679 58.6229 180.327 56.2997C181.975 53.9764 184.348 51.961 187.445 50.2533C189.669 49.0222 192.727 48.069 196.619 47.3939C200.511 46.7188 204.721 46.3812 209.248 46.3812C216.516 46.3812 222.354 46.7883 226.762 47.6024C231.17 48.4165 234.844 50.1143 237.782 52.6957C239.847 54.4828 241.476 57.0145 242.667 60.2909C243.858 63.5672 244.454 66.6947 244.454 69.6732L244.454 97.6117C244.454 100.59 244.643 102.923 245.02 104.611C245.397 106.299 246.221 108.453 247.492 111.075L224.736 111.075C223.823 109.446 223.227 108.205 222.949 107.351C222.671 106.498 222.393 105.157 222.115 103.33C218.938 106.388 215.781 108.573 212.644 109.883C208.355 111.631 203.371 112.504 197.691 112.504C190.146 112.504 184.417 110.757 180.505 107.262C176.594 103.767 174.638 99.4584 174.638 94.3353C174.638 89.53 176.048 85.5785 178.867 82.4808C181.687 79.3832 186.889 77.0798 194.475 75.5707C203.569 73.7438 209.467 72.4631 212.167 71.7284C214.868 70.9937 217.727 70.0306 220.745 68.8392C220.745 65.8607 220.13 63.7757 218.899 62.5843C217.667 61.3929 215.503 60.7972 212.405 60.7972C208.434 60.7972 205.455 61.4326 203.47 62.7035C201.921 63.6963 200.67 65.5628 199.717 68.3031ZM220.745 81.0511C217.409 82.2425 213.934 83.2949 210.32 84.2084C205.396 85.5189 202.278 86.8096 200.968 88.0804C199.618 89.391 198.942 90.8802 198.942 92.5482C198.942 94.4544 199.608 96.0132 200.938 97.2245C202.268 98.4357 204.224 99.0414 206.806 99.0414C209.506 99.0414 212.018 98.3861 214.341 97.0755C216.665 95.765 218.313 94.1665 219.286 92.2801C220.259 90.3937 220.745 87.9414 220.745 84.9232L220.745 81.0511Z"/>
<path clip-path="url(#TextBounds)" d="M258.989 47.8109L281.566 47.8109L281.566 58.1166C284.942 53.9069 288.358 50.8986 291.813 49.0917C295.268 47.2847 299.477 46.3812 304.441 46.3812C311.153 46.3812 316.405 48.3768 320.198 52.368C323.99 56.3592 325.887 62.5248 325.887 70.8646L325.887 111.075L301.523 111.075L301.523 76.2855C301.523 72.3141 300.788 69.5044 299.318 67.8563C297.849 66.2082 295.784 65.3841 293.123 65.3841C290.184 65.3841 287.802 66.4961 285.975 68.7201C284.148 70.944 283.234 74.9352 283.234 80.6937L283.234 111.075L258.989 111.075L258.989 47.8109Z"/>
<path clip-path="url(#TextBounds)" d="M384.385 47.8109L407.081 47.8109L407.081 107.56L407.141 110.36C407.141 114.331 406.297 118.114 404.609 121.708C402.921 125.302 400.677 128.211 397.878 130.435C395.078 132.659 391.523 134.267 387.214 135.26C382.906 136.253 377.971 136.749 372.411 136.749C359.703 136.749 350.976 134.843 346.23 131.031C341.484 127.218 339.111 122.115 339.111 115.721C339.111 114.927 339.151 113.855 339.231 112.504L362.761 115.185C363.357 117.369 364.27 118.878 365.501 119.712C367.288 120.943 369.532 121.559 372.233 121.559C375.727 121.559 378.338 120.626 380.066 118.759C381.794 116.893 382.657 113.636 382.657 108.99L382.657 99.3988C380.275 102.218 377.892 104.264 375.509 105.535C371.776 107.52 367.745 108.513 363.416 108.513C354.957 108.513 348.126 104.82 342.924 97.433C339.231 92.1908 337.384 85.2608 337.384 76.6429C337.384 66.794 339.767 59.2881 344.532 54.1253C349.298 48.9626 355.533 46.3812 363.237 46.3812C368.162 46.3812 372.223 47.2152 375.42 48.8832C378.616 50.5511 381.605 53.3112 384.385 57.1634L384.385 47.8109ZM361.569 78.4896C361.569 83.0567 362.542 86.4422 364.488 88.6463C366.434 90.8504 368.996 91.9525 372.173 91.9525C375.191 91.9525 377.723 90.8107 379.768 88.5272C381.813 86.2437 382.836 82.7985 382.836 78.1918C382.836 73.585 381.764 70.0604 379.619 67.618C377.475 65.1756 374.854 63.9544 371.756 63.9544C368.658 63.9544 366.186 65.0764 364.339 67.3202C362.493 69.564 361.569 73.2871 361.569 78.4896Z"/>
<path clip-path="url(#TextBounds)" d="M418.757 79.6214C418.757 69.971 422.013 62.0184 428.526 55.7635C435.039 49.5086 443.836 46.3812 454.916 46.3812C467.585 46.3812 477.156 50.0547 483.629 57.4017C488.831 63.319 491.433 70.6065 491.433 79.264C491.433 88.9938 488.206 96.9663 481.753 103.181C475.299 109.397 466.373 112.504 454.976 112.504C444.809 112.504 436.588 109.923 430.314 104.76C422.609 98.3662 418.757 89.9867 418.757 79.6214ZM443.062 79.5619C443.062 85.2012 444.203 89.3711 446.487 92.0716C448.77 94.7722 451.64 96.1224 455.095 96.1224C458.59 96.1224 461.459 94.792 463.703 92.1312C465.947 89.4704 467.068 85.2012 467.068 79.3236C467.068 73.8431 465.937 69.7626 463.673 67.0819C461.409 64.4012 458.609 63.0609 455.274 63.0609C451.739 63.0609 448.82 64.4211 446.517 67.1415C444.213 69.8618 443.062 74.002 443.062 79.5619Z"/>
</g>
<g fill="#727272" opacity="1" stroke="none">
<path clip-path="url(#TextBounds_2)" d="M23.8262 23.6139L63.917 23.6139C71.82 23.6139 78.2039 24.6862 83.0688 26.8307C87.9337 28.9753 91.9547 32.0531 95.1318 36.0641C98.3089 40.0752 100.612 44.7415 102.042 50.0632C103.472 55.3848 104.187 61.0241 104.187 66.9811C104.187 76.3138 103.124 83.5516 100.999 88.6945C98.8748 93.8374 95.9261 98.1463 92.1533 101.621C88.3805 105.096 84.3297 107.41 80.001 108.561C74.0836 110.15 68.7223 110.944 63.917 110.944L23.8262 110.944L23.8262 23.6139ZM50.8115 43.3913L50.8115 91.1071L57.4238 91.1071C63.0631 91.1071 67.0742 90.4816 69.457 89.2306C71.8398 87.9797 73.7064 85.7954 75.0566 82.6779C76.4069 79.5604 77.082 74.5068 77.082 67.5173C77.082 58.264 75.5729 51.9297 72.5547 48.5143C69.5364 45.099 64.5325 43.3913 57.5429 43.3913L50.8115 43.3913Z"/>
<path clip-path="url(#TextBounds_2)" d="M117.709 23.6139L142.014 23.6139L142.014 40.2936L117.709 40.2936L117.709 23.6139ZM117.709 47.6803L142.014 47.6803L142.014 109.038C142.014 116.861 141.448 122.401 140.316 125.658C139.184 128.914 137.089 131.555 134.031 133.581C130.973 135.606 126.605 136.619 120.926 136.619C116.24 136.619 110.422 135.924 103.472 134.534L107.105 116.901C109.051 117.298 110.481 117.497 111.395 117.497C113.46 117.497 115.028 116.792 116.101 115.382C117.173 113.972 117.709 111.162 117.709 106.953L117.709 47.6803Z"/>
<path clip-path="url(#TextBounds_2)" d="M179.483 68.1725L156.311 65.7302C157.184 61.6794 158.445 58.4924 160.093 56.1691C161.741 53.8459 164.114 51.8304 167.212 50.1227C169.436 48.8916 172.494 47.9385 176.386 47.2634C180.278 46.5882 184.487 46.2507 189.015 46.2507C196.282 46.2507 202.12 46.6577 206.528 47.4718C210.937 48.286 214.61 49.9837 217.549 52.5651C219.614 54.3522 221.242 56.884 222.434 60.1603C223.625 63.4367 224.221 66.5641 224.221 69.5427L224.221 97.4811C224.221 100.46 224.409 102.793 224.787 104.481C225.164 106.168 225.988 108.323 227.259 110.944L204.503 110.944C203.589 109.316 202.994 108.075 202.716 107.221C202.438 106.367 202.16 105.027 201.882 103.2C198.705 106.258 195.548 108.442 192.41 109.753C188.121 111.5 183.137 112.374 177.458 112.374C169.912 112.374 164.184 110.626 160.272 107.132C156.36 103.637 154.404 99.3278 154.404 94.2048C154.404 89.3994 155.814 85.4479 158.634 82.3503C161.453 79.2526 166.656 76.9492 174.241 75.4401C183.336 73.6133 189.233 72.3325 191.934 71.5978C194.634 70.8631 197.493 69.9001 200.512 68.7087C200.512 65.7302 199.896 63.6452 198.665 62.4538C197.434 61.2624 195.27 60.6667 192.172 60.6667C188.201 60.6667 185.222 61.3021 183.236 62.5729C181.687 63.5658 180.437 65.4323 179.483 68.1725ZM200.512 80.9206C197.176 82.112 193.701 83.1644 190.087 84.0778C185.162 85.3884 182.045 86.679 180.734 87.9499C179.384 89.2604 178.709 90.7497 178.709 92.4177C178.709 94.3239 179.374 95.8827 180.705 97.0939C182.035 98.3052 183.991 98.9108 186.572 98.9108C189.273 98.9108 191.785 98.2555 194.108 96.945C196.431 95.6344 198.079 94.036 199.052 92.1496C200.025 90.2632 200.512 87.8109 200.512 84.7927L200.512 80.9206Z"/>
<path clip-path="url(#TextBounds_2)" d="M238.756 47.6803L261.333 47.6803L261.333 57.986C264.709 53.7764 268.124 50.7681 271.579 48.9611C275.034 47.1541 279.244 46.2507 284.208 46.2507C290.92 46.2507 296.172 48.2463 299.964 52.2375C303.757 56.2287 305.653 62.3942 305.653 70.7341L305.653 110.944L281.289 110.944L281.289 76.155C281.289 72.1836 280.554 69.3739 279.085 67.7258C277.616 66.0776 275.55 65.2536 272.89 65.2536C269.951 65.2536 267.568 66.3656 265.741 68.5895C263.914 70.8135 263.001 74.8047 263.001 80.5632L263.001 110.944L238.756 110.944L238.756 47.6803Z"/>
<path clip-path="url(#TextBounds_2)" d="M364.151 47.6803L386.848 47.6803L386.848 107.429L386.907 110.229C386.907 114.201 386.063 117.983 384.375 121.577C382.688 125.171 380.444 128.08 377.644 130.304C374.844 132.528 371.29 134.137 366.981 135.13C362.672 136.122 357.738 136.619 352.178 136.619C339.469 136.619 330.742 134.713 325.997 130.9C321.251 127.088 318.878 121.984 318.878 115.591C318.878 114.796 318.918 113.724 318.997 112.374L342.527 115.054C343.123 117.239 344.036 118.748 345.268 119.582C347.055 120.813 349.298 121.428 351.999 121.428C355.494 121.428 358.105 120.495 359.832 118.629C361.56 116.762 362.424 113.506 362.424 108.859L362.424 99.2682C360.041 102.088 357.658 104.133 355.275 105.404C351.542 107.39 347.511 108.382 343.183 108.382C334.724 108.382 327.893 104.689 322.69 97.3024C318.997 92.0602 317.15 85.1302 317.15 76.5124C317.15 66.6634 319.533 59.1576 324.299 53.9948C329.064 48.832 335.299 46.2507 343.004 46.2507C347.928 46.2507 351.989 47.0846 355.186 48.7526C358.383 50.4206 361.371 53.1807 364.151 57.0329L364.151 47.6803ZM341.336 78.3591C341.336 82.9261 342.309 86.3117 344.255 88.5158C346.201 90.7199 348.762 91.8219 351.939 91.8219C354.958 91.8219 357.489 90.6802 359.535 88.3967C361.58 86.1131 362.603 82.668 362.603 78.0612C362.603 73.4544 361.53 69.9299 359.386 67.4875C357.241 65.0451 354.62 63.8239 351.522 63.8239C348.425 63.8239 345.953 64.9458 344.106 67.1896C342.259 69.4334 341.336 73.1566 341.336 78.3591Z"/>
<path clip-path="url(#TextBounds_2)" d="M398.523 79.4909C398.523 69.8405 401.78 61.8879 408.293 55.633C414.806 49.3781 423.603 46.2507 434.683 46.2507C447.351 46.2507 456.922 49.9242 463.395 57.2712C468.598 63.1885 471.199 70.4759 471.199 79.1335C471.199 88.8633 467.972 96.8358 461.519 103.051C455.066 109.266 446.14 112.374 434.742 112.374C424.576 112.374 416.355 109.792 410.08 104.63C402.376 98.2357 398.523 89.8561 398.523 79.4909ZM422.828 79.4313C422.828 85.0706 423.97 89.2406 426.253 91.9411C428.537 94.6416 431.406 95.9919 434.861 95.9919C438.356 95.9919 441.225 94.6615 443.469 92.0007C445.713 89.3399 446.835 85.0706 446.835 79.193C446.835 73.7126 445.703 69.632 443.439 66.9513C441.176 64.2707 438.376 62.9303 435.04 62.9303C431.506 62.9303 428.587 64.2905 426.283 67.0109C423.98 69.7313 422.828 73.8714 422.828 79.4313Z"/>
</g>
<g fill="#8d8bb3" opacity="1" stroke="none">
<path clip-path="url(#TextBounds_3)" d="M33.9554 23.6286L74.0462 23.6286C81.9492 23.6286 88.3332 24.7009 93.1981 26.8454C98.063 28.9899 102.084 32.0677 105.261 36.0788C108.438 40.0899 110.742 44.7562 112.171 50.0778C113.601 55.3995 114.316 61.0388 114.316 66.9958C114.316 76.3285 113.253 83.5663 111.129 88.7092C109.004 93.8521 106.055 98.161 102.283 101.636C98.5098 105.111 94.459 107.424 90.1302 108.576C84.2129 110.164 78.8515 110.959 74.0462 110.959L33.9554 110.959L33.9554 23.6286ZM60.9407 43.406L60.9407 91.1218L67.553 91.1218C73.1924 91.1218 77.2034 90.4963 79.5862 89.2453C81.9691 87.9943 83.8356 85.8101 85.1859 82.6926C86.5361 79.5751 87.2112 74.5215 87.2112 67.5319C87.2112 58.2787 85.7021 51.9444 82.6839 48.529C79.6657 45.1136 74.6618 43.406 67.6722 43.406L60.9407 43.406Z"/>
<path clip-path="url(#TextBounds_3)" d="M127.838 23.6286L152.143 23.6286L152.143 40.3083L127.838 40.3083L127.838 23.6286ZM127.838 47.695L152.143 47.695L152.143 109.052C152.143 116.876 151.577 122.416 150.445 125.673C149.313 128.929 147.218 131.57 144.16 133.595C141.103 135.621 136.734 136.634 131.055 136.634C126.369 136.634 120.551 135.939 113.601 134.549L117.235 116.916C119.181 117.313 120.61 117.511 121.524 117.511C123.589 117.511 125.158 116.807 126.23 115.397C127.302 113.987 127.838 111.177 127.838 106.967L127.838 47.695Z"/>
<path clip-path="url(#TextBounds_3)" d="M189.613 68.1872L166.44 65.7448C167.313 61.694 168.574 58.507 170.222 56.1838C171.871 53.8606 174.243 51.8451 177.341 50.1374C179.565 48.9063 182.623 47.9532 186.515 47.278C190.407 46.6029 194.617 46.2653 199.144 46.2653C206.411 46.2653 212.249 46.6724 216.658 47.4865C221.066 48.3007 224.739 49.9984 227.678 52.5798C229.743 54.3669 231.371 56.8986 232.563 60.175C233.754 63.4514 234.35 66.5788 234.35 69.5573L234.35 97.4958C234.35 100.474 234.539 102.807 234.916 104.495C235.293 106.183 236.117 108.338 237.388 110.959L214.632 110.959C213.719 109.33 213.123 108.089 212.845 107.236C212.567 106.382 212.289 105.041 212.011 103.215C208.834 106.272 205.677 108.457 202.539 109.767C198.25 111.515 193.266 112.388 187.587 112.388C180.042 112.388 174.313 110.641 170.401 107.146C166.489 103.651 164.534 99.3425 164.534 94.2194C164.534 89.4141 165.943 85.4626 168.763 82.3649C171.583 79.2673 176.785 76.9639 184.37 75.4548C193.465 73.628 199.362 72.3472 202.063 71.6125C204.763 70.8778 207.623 69.9148 210.641 68.7233C210.641 65.7448 210.025 63.6599 208.794 62.4685C207.563 61.2771 205.399 60.6814 202.301 60.6814C198.33 60.6814 195.351 61.3168 193.366 62.5876C191.817 63.5804 190.566 65.447 189.613 68.1872ZM210.641 80.9353C207.305 82.1267 203.83 83.1791 200.216 84.0925C195.292 85.403 192.174 86.6937 190.864 87.9646C189.513 89.2751 188.838 90.7644 188.838 92.4323C188.838 94.3386 189.503 95.8973 190.834 97.1086C192.164 98.3199 194.12 98.9255 196.701 98.9255C199.402 98.9255 201.914 98.2702 204.237 96.9597C206.56 95.6491 208.208 94.0507 209.181 92.1643C210.154 90.2779 210.641 87.8256 210.641 84.8073L210.641 80.9353Z"/>
<path clip-path="url(#TextBounds_3)" d="M248.885 47.695L271.462 47.695L271.462 58.0007C274.838 53.7911 278.253 50.7828 281.708 48.9758C285.163 47.1688 289.373 46.2653 294.337 46.2653C301.049 46.2653 306.301 48.2609 310.094 52.2522C313.886 56.2434 315.783 62.4089 315.783 70.7487L315.783 110.959L291.418 110.959L291.418 76.1696C291.418 72.1983 290.684 69.3885 289.214 67.7404C287.745 66.0923 285.68 65.2683 283.019 65.2683C280.08 65.2683 277.697 66.3802 275.87 68.6042C274.044 70.8282 273.13 74.8194 273.13 80.5778L273.13 110.959L248.885 110.959L248.885 47.695Z"/>
<path clip-path="url(#TextBounds_3)" d="M374.281 47.695L396.977 47.695L396.977 107.444L397.036 110.244C397.036 114.215 396.193 117.998 394.505 121.592C392.817 125.186 390.573 128.095 387.773 130.319C384.973 132.543 381.419 134.151 377.11 135.144C372.801 136.137 367.867 136.634 362.307 136.634C349.599 136.634 340.872 134.727 336.126 130.915C331.38 127.102 329.007 121.999 329.007 115.605C329.007 114.811 329.047 113.739 329.126 112.388L352.657 115.069C353.252 117.253 354.166 118.762 355.397 119.596C357.184 120.828 359.428 121.443 362.128 121.443C365.623 121.443 368.234 120.51 369.962 118.643C371.689 116.777 372.553 113.52 372.553 108.874L372.553 99.2829C370.17 102.103 367.787 104.148 365.405 105.419C361.672 107.404 357.641 108.397 353.312 108.397C344.853 108.397 338.022 104.704 332.82 97.3171C329.126 92.0749 327.28 85.1449 327.28 76.5271C327.28 66.6781 329.662 59.1722 334.428 54.0095C339.194 48.8467 345.429 46.2653 353.133 46.2653C358.058 46.2653 362.118 47.0993 365.315 48.7673C368.512 50.4353 371.501 53.1954 374.281 57.0476L374.281 47.695ZM351.465 78.3737C351.465 82.9408 352.438 86.3264 354.384 88.5305C356.33 90.7346 358.892 91.8366 362.069 91.8366C365.087 91.8366 367.619 90.6949 369.664 88.4113C371.709 86.1278 372.732 82.6827 372.732 78.0759C372.732 73.4691 371.659 69.9445 369.515 67.5022C367.37 65.0598 364.749 63.8386 361.652 63.8386C358.554 63.8386 356.082 64.9605 354.235 67.2043C352.388 69.4481 351.465 73.1713 351.465 78.3737Z"/>
<path clip-path="url(#TextBounds_3)" d="M408.653 79.5056C408.653 69.8552 411.909 61.9025 418.422 55.6477C424.935 49.3928 433.732 46.2653 444.812 46.2653C457.48 46.2653 467.051 49.9388 473.525 57.2858C478.727 63.2032 481.328 70.4906 481.328 79.1482C481.328 88.878 478.102 96.8505 471.648 103.066C465.195 109.281 456.269 112.388 444.871 112.388C434.705 112.388 426.484 109.807 420.209 104.644C412.505 98.2504 408.653 89.8708 408.653 79.5056ZM432.957 79.446C432.957 85.0853 434.099 89.2552 436.383 91.9558C438.666 94.6563 441.535 96.0065 444.991 96.0065C448.485 96.0065 451.355 94.6761 453.598 92.0153C455.842 89.3545 456.964 85.0853 456.964 79.2077C456.964 73.7273 455.832 69.6467 453.569 66.966C451.305 64.2854 448.505 62.945 445.169 62.945C441.635 62.945 438.716 64.3052 436.412 67.0256C434.109 69.746 432.957 73.8861 432.957 79.446Z"/>
</g>
<g fill="#727272" opacity="1" stroke="none"/>
</g>
</svg>
