<?xml version="1.0" encoding="UTF-8" standalone="no"?>
<!DOCTYPE svg PUBLIC "-//W3C//DTD SVG 1.1//EN" "http://www.w3.org/Graphics/SVG/1.1/DTD/svg11.dtd">
<!-- Created with Vectornator (http://vectornator.io/) -->
<svg height="100%" stroke-miterlimit="10" style="fill-rule:nonzero;clip-rule:evenodd;stroke-linecap:round;stroke-linejoin:round;" version="1.1" viewBox="0 0 655.537 277" width="100%" xml:space="preserve" xmlns="http://www.w3.org/2000/svg" xmlns:vectornator="http://vectornator.io" xmlns:xlink="http://www.w3.org/1999/xlink">
<defs>
<filter color-interpolation-filters="sRGB" filterUnits="userSpaceOnUse" height="161.152" id="Filter" width="145.723" x="482.126" y="77.587">
<feDropShadow dx="-3.61999e-06" dy="1" flood-color="#000000" flood-opacity="1" in="SourceGraphic" result="Shadow" stdDeviation="1.5"/>
</filter>
<filter color-interpolation-filters="sRGB" filterUnits="userSpaceOnUse" height="192.197" id="Filter_2" width="157.652" x="358.886" y="50.4303">
<feDropShadow dx="-3.61999e-06" dy="1" flood-color="#000000" flood-opacity="1" in="SourceGraphic" result="Shadow" stdDeviation="1.5"/>
</filter>
<filter color-interpolation-filters="sRGB" filterUnits="userSpaceOnUse" height="227.117" id="Filter_3" width="178.987" x="209.394" y="26.3132">
<feDropShadow dx="-3.61999e-06" dy="1" flood-color="#000000" flood-opacity="1" in="SourceGraphic" result="Shadow" stdDeviation="1.5"/>
</filter>
<filter color-interpolation-filters="sRGB" filterUnits="userSpaceOnUse" height="249.124" id="Filter_4" width="211.06" x="26.7227" y="12.0348">
<feDropShadow dx="6.12323e-17" dy="1" flood-color="#000000" flood-opacity="1" in="SourceGraphic" result="Shadow" stdDeviation="1.5"/>
</filter>
<clipPath id="TextBounds">
<rect height="49.8953" width="69.6419" x="68.532" y="41.3501"/>
</clipPath>
</defs>
<g id="Iun5YR5Dx_ZqvMkLHgsSt" vectornator:layerName="Iun5YR5Dx_ZqvMkLHgsSt">
<g filter="url(#Filter)" vectornator:shadowAngle="1.5708" vectornator:shadowColor="#000000" vectornator:shadowOffset="1" vectornator:shadowOpacity="1" vectornator:shadowRadius="3">
<path d="M620.586 212.632L519.121 234.629C516.36 235.228 513.422 233.326 512.789 230.381L485.249 102.368C484.615 99.4233 486.509 96.4744 489.443 95.8384L563.816 79.7146C565.197 79.4153 566.689 79.6357 567.948 80.4506L600.681 101.638C601.94 102.453 602.719 103.553 603.054 105.112L624.781 206.102C625.241 209.084 623.347 212.033 620.586 212.632Z" fill="#b3b5b3" fill-rule="evenodd" opacity="1" stroke="none"/>
<path d="M495.452 106.011L561.934 91.494L567.491 117.136L593.034 111.558L613.28 204.992L521.254 225.087L495.452 106.011Z" fill="#cd2323" fill-rule="evenodd" opacity="1" stroke="none"/>
<path d="M530.739 201.317C531.158 203.249 533.075 204.485 535 204.065L591.86 191.649C593.784 191.229 595.016 189.304 594.597 187.372C594.179 185.441 592.262 184.204 590.337 184.624L533.477 197.04C531.553 197.46 530.321 199.385 530.739 201.317ZM529.595 179.126L586.455 166.71C588.38 166.29 590.297 167.527 590.716 169.458C591.134 171.39 589.902 173.315 587.978 173.735L531.118 186.151C529.193 186.571 527.276 185.335 526.858 183.403C526.439 181.471 527.671 179.546 529.595 179.126ZM525.76 161.501L582.62 149.085C584.545 148.665 586.462 149.901 586.88 151.833C587.299 153.765 586.067 155.69 584.142 156.11L527.282 168.526C525.358 168.946 523.441 167.709 523.022 165.777C522.604 163.846 523.836 161.921 525.76 161.501Z" fill="#b3b5b3" fill-rule="evenodd" opacity="1" stroke="none"/>
<g opacity="1">
<g opacity="1">
<clipPath id="ClipPath">
<path d="M509.106 106.605L527.476 105.242L527.476 105.242L529.389 131.235L529.389 131.235L511.019 132.597L511.019 132.597L509.106 106.605L509.106 106.605Z"/>
</clipPath>
<g clip-path="url(#ClipPath)">
<path d="M516.65 108.742C518.701 108.251 520.385 108.744 521.702 110.221C522.721 111.363 523.502 113.074 524.043 115.354C524.557 117.517 524.66 119.382 524.354 120.95C523.906 123.201 522.628 124.579 520.518 125.084C518.615 125.539 517.002 125.049 515.679 123.612C514.575 122.413 513.747 120.647 513.192 118.314C512.764 116.507 512.628 114.9 512.785 113.493C513.082 110.871 514.371 109.287 516.65 108.742ZM520.074 123.265C521.108 123.018 521.821 122.362 522.215 121.297C522.609 120.233 522.509 118.449 521.915 115.946C521.486 114.139 520.912 112.705 520.192 111.645C519.473 110.584 518.475 110.207 517.199 110.512C516.026 110.793 515.3 111.551 515.021 112.788C514.741 114.025 514.857 115.721 515.369 117.876C515.754 119.498 516.237 120.759 516.817 121.661C517.705 123.038 518.791 123.572 520.074 123.265Z" fill="#b3b3b3" fill-rule="evenodd" opacity="1" stroke="none"/>
</g>
</g>
<g opacity="1">
<clipPath id="ClipPath_2">
<path d="M522.106 103.494L540.477 102.132L540.477 102.132L542.39 128.125L542.39 128.125L524.019 129.487L524.019 129.487L522.106 103.494L522.106 103.494Z"/>
</clipPath>
<g clip-path="url(#ClipPath_2)">
<path d="M529.651 105.631C531.701 105.141 533.385 105.634 534.703 107.111C535.722 108.252 536.503 109.963 537.044 112.244C537.557 114.406 537.661 116.271 537.355 117.839C536.907 120.091 535.629 121.469 533.518 121.974C531.616 122.429 530.002 121.938 528.679 120.502C527.576 119.303 526.747 117.537 526.193 115.204C525.764 113.397 525.628 111.79 525.785 110.383C526.083 107.761 527.371 106.177 529.651 105.631ZM533.075 120.155C534.108 119.907 534.821 119.252 535.215 118.187C535.61 117.122 535.51 115.338 534.915 112.835C534.486 111.028 533.913 109.595 533.193 108.534C532.473 107.474 531.475 107.096 530.2 107.402C529.027 107.682 528.3 108.441 528.021 109.678C527.741 110.915 527.858 112.611 528.369 114.765C528.755 116.387 529.237 117.649 529.818 118.551C530.706 119.927 531.791 120.462 533.075 120.155Z" fill="#b3b3b3" fill-rule="evenodd" opacity="1" stroke="none"/>
</g>
</g>
<g opacity="1">
<clipPath id="ClipPath_3">
<path d="M535.113 100.383L553.483 99.0202L553.483 99.0202L555.396 125.013L555.396 125.013L537.026 126.375L537.026 126.375L535.113 100.383L535.113 100.383Z"/>
</clipPath>
<g clip-path="url(#ClipPath_3)">
<path d="M546.457 112.469L544.746 105.26L541.379 113.684L546.457 112.469ZM547.827 118.092L546.904 114.205L539.955 115.867L539.491 113.912L544.351 102.067L546.032 101.665L548.482 111.984L550.817 111.426L551.231 113.17L548.896 113.728L549.819 117.616L547.827 118.092Z" fill="#b3b3b3" fill-rule="evenodd" opacity="1" stroke="none"/>
</g>
</g>
</g>
</g>
<g filter="url(#Filter_2)" vectornator:shadowAngle="1.5708" vectornator:shadowColor="#000000" vectornator:shadowOffset="1" vectornator:shadowOpacity="1" vectornator:shadowRadius="3">
<path d="M488.289 238.57L367.186 221.127C363.891 220.652 361.436 217.289 361.956 213.709L384.558 58.1022C385.078 54.5225 388.39 51.9899 391.892 52.4943L480.659 65.28C482.307 65.5174 483.863 66.3863 484.915 67.8277L512.273 105.304C513.326 106.745 513.729 108.308 513.454 110.203L495.622 232.962C494.896 236.512 491.585 239.045 488.289 238.57Z" fill="#9d9d9d" fill-rule="evenodd" opacity="1" stroke="none"/>
<path d="M396.029 66.1395L474.576 77.4682L470.089 108.322L500.267 112.674L483.916 225.1L375.191 209.419L396.029 66.1395Z" fill="#6c3bf4" fill-rule="evenodd" opacity="1" stroke="none"/>
<path d="M395.397 186.821C395.059 189.145 396.643 191.316 398.916 191.643L466.094 201.333C468.369 201.661 470.506 200.027 470.843 197.703C471.182 195.377 469.598 193.208 467.324 192.88L400.146 183.19C397.873 182.863 395.735 184.496 395.397 186.821ZM403.281 161.635L470.459 171.324C472.733 171.652 474.316 173.822 473.978 176.147C473.641 178.472 471.503 180.105 469.23 179.777L402.052 170.088C399.778 169.761 398.194 167.59 398.532 165.266C398.87 162.941 401.007 161.308 403.281 161.635ZM406.386 140.291L473.564 149.98C475.837 150.308 477.421 152.478 477.083 154.803C476.744 157.128 474.608 158.762 472.334 158.433L405.156 148.744C402.882 148.417 401.298 146.246 401.637 143.921C401.974 141.597 404.111 139.964 406.386 140.291Z" fill="#b3b5b3" fill-rule="evenodd" opacity="1" stroke="none"/>
<g opacity="1">
<g opacity="1">
<clipPath id="ClipPath_4">
<path d="M404.714 70.7242L428.81 70.2431L428.81 70.2431L429.205 103.706L429.205 103.706L405.11 104.187L405.11 104.187L404.714 70.7242L404.714 70.7242Z"/>
</clipPath>
<g clip-path="url(#ClipPath_4)">
<path d="M419.3 74.1829C421.858 74.6889 423.497 76.1326 424.214 78.5139C424.77 80.3547 424.763 82.7247 424.193 85.6239C423.652 88.3725 422.805 90.5666 421.65 92.2061C419.983 94.5559 417.834 95.4706 415.202 94.95C412.828 94.4803 411.268 93.0766 410.523 90.7387C409.902 88.7874 409.884 86.3292 410.467 83.3641C410.918 81.0673 411.596 79.1526 412.5 77.62C414.19 74.7662 416.456 73.6204 419.3 74.1829ZM415.644 92.6316C416.932 92.8865 418.073 92.5058 419.066 91.4897C420.059 90.4736 420.87 88.3747 421.495 85.1931C421.946 82.8963 422.042 80.952 421.782 79.3603C421.521 77.7685 420.595 76.8152 419.002 76.5003C417.539 76.2109 416.33 76.7029 415.377 77.9763C414.424 79.2499 413.678 81.2561 413.139 83.9953C412.734 86.0568 412.625 87.7562 412.811 89.0937C413.098 91.1356 414.042 92.3149 415.644 92.6316Z" fill="#31a8f7" fill-rule="evenodd" opacity="1" stroke="none"/>
</g>
</g>
<g opacity="1">
<clipPath id="ClipPath_5">
<path d="M420.933 73.932L445.029 73.451L445.029 73.451L445.425 106.914L445.425 106.914L421.329 107.395L421.329 107.395L420.933 73.932L420.933 73.932Z"/>
</clipPath>
<g clip-path="url(#ClipPath_5)">
<path d="M435.52 77.3907C438.078 77.8967 439.716 79.3404 440.434 81.7217C440.99 83.5626 440.983 85.9326 440.412 88.8317C439.872 91.5803 439.025 93.7744 437.871 95.4139C436.203 97.7637 434.054 98.6784 431.421 98.1578C429.047 97.6882 427.487 96.2845 426.742 93.9466C426.123 91.9953 426.103 89.537 426.687 86.5719C427.139 84.2751 427.816 82.3605 428.72 80.8279C430.409 77.974 432.676 76.8283 435.52 77.3907ZM431.863 95.8395C433.152 96.0943 434.293 95.7137 435.286 94.6975C436.28 93.6814 437.089 91.5826 437.715 88.4009C438.166 86.1041 438.262 84.1599 438.001 82.5682C437.741 80.9764 436.814 80.023 435.222 79.7081C433.759 79.4188 432.551 79.9107 431.597 81.1842C430.644 82.4577 429.898 84.464 429.359 87.2032C428.954 89.2646 428.844 90.9641 429.031 92.3016C429.318 94.3434 430.262 95.5228 431.863 95.8395Z" fill="#31a8f7" fill-rule="evenodd" opacity="1" stroke="none"/>
</g>
</g>
<g opacity="1">
<clipPath id="ClipPath_6">
<path d="M437.161 77.1413L461.257 76.6603L461.257 76.6603L461.653 110.123L461.653 110.123L437.557 110.604L437.557 110.604L437.161 77.1413L437.161 77.1413Z"/>
</clipPath>
<g clip-path="url(#ClipPath_6)">
<path d="M447.359 101.31C445.021 100.847 443.454 99.8555 442.659 98.334C441.864 96.8125 441.651 95.1104 442.021 93.2278L444.616 93.7411C444.469 95.0714 444.522 96.0694 444.774 96.7352C445.208 97.9263 446.268 98.6884 447.952 99.0215C449.26 99.2799 450.379 99.1298 451.311 98.5709C452.244 98.0121 452.82 97.1678 453.042 96.0383C453.316 94.6452 453.091 93.5885 452.368 92.8685C451.644 92.1484 450.542 91.6418 449.059 91.3488C448.894 91.3159 448.725 91.2851 448.554 91.2562C448.383 91.2272 448.209 91.2001 448.033 91.175L448.474 88.93C448.726 89.0091 448.938 89.0708 449.112 89.1147C449.285 89.1587 449.473 89.2008 449.675 89.2408C450.605 89.4247 451.398 89.4251 452.055 89.2422C453.209 88.9226 453.918 88.085 454.185 86.7296C454.383 85.7224 454.185 84.8767 453.594 84.1924C453.002 83.5081 452.241 83.074 451.311 82.8901C449.655 82.5625 448.398 82.9007 447.541 83.9047C447.068 84.4567 446.696 85.3024 446.424 86.4418L443.968 85.9558C444.263 84.4496 444.81 83.2277 445.606 82.2899C446.989 80.6076 448.955 80.0185 451.504 80.5227C453.52 80.9213 454.989 81.6887 455.914 82.8249C456.837 83.9611 457.128 85.3999 456.785 87.1413C456.541 88.3838 456.016 89.3264 455.211 89.9691C454.712 90.369 454.113 90.6418 453.415 90.7873C454.398 91.2848 455.099 92.0079 455.52 92.9565C455.941 93.9052 456.033 94.9819 455.796 96.1868C455.416 98.1164 454.486 99.5655 453.004 100.534C451.523 101.503 449.641 101.761 447.359 101.31Z" fill="#31a8f7" fill-rule="evenodd" opacity="1" stroke="none"/>
</g>
</g>
</g>
</g>
<g filter="url(#Filter_3)" vectornator:shadowAngle="1.5708" vectornator:shadowColor="#000000" vectornator:shadowOffset="1" vectornator:shadowOpacity="1" vectornator:shadowRadius="3">
<path d="M359.169 249.374L218.676 230.432C214.853 229.916 211.935 225.934 212.454 221.645L234.999 35.1987C235.518 30.9097 239.29 27.8286 243.352 28.3763L346.332 42.2605C348.243 42.5181 350.064 43.5328 351.314 45.2398L383.829 89.6233C385.08 91.3304 385.583 93.1931 385.308 95.4637L367.522 242.552C366.764 246.808 362.992 249.889 359.169 249.374Z" fill="#929292" fill-rule="evenodd" opacity="1" stroke="none"/>
<path d="M248.631 44.9864L339.425 57.2277L334.971 94.0628L369.856 98.766L353.625 232.987L227.946 216.043L248.631 44.9864Z" fill="#515050" fill-rule="evenodd" opacity="1" stroke="none"/>
<path d="M250.615 188.823C250.279 191.598 252.155 194.158 254.784 194.513L332.437 204.983C335.065 205.337 337.49 203.356 337.826 200.581C338.161 197.806 336.285 195.245 333.657 194.891L256.004 184.421C253.376 184.067 250.95 186.048 250.615 188.823ZM259.116 158.687L336.769 169.156C339.397 169.511 341.273 172.072 340.938 174.847C340.602 177.622 338.177 179.603 335.548 179.249L257.896 168.779C255.267 168.424 253.391 165.864 253.727 163.089C254.062 160.314 256.488 158.333 259.116 158.687ZM262.197 133.205L339.85 143.675C342.478 144.029 344.354 146.59 344.019 149.365C343.683 152.141 341.258 154.121 338.629 153.767L260.977 143.297C258.348 142.943 256.472 140.382 256.808 137.607C257.143 134.832 259.569 132.851 262.197 133.205Z" fill="#b3b5b3" fill-rule="evenodd" opacity="1" stroke="none"/>
<g opacity="1">
<g opacity="1">
<clipPath id="ClipPath_7">
<path d="M267.456 54.9565L288.897 59.2299L288.897 59.2299L282.716 93.8021L282.716 93.8021L261.276 89.5287L261.276 89.5287L267.456 54.9565L267.456 54.9565Z"/>
</clipPath>
<g clip-path="url(#ClipPath_7)">
<path d="M276.621 59.5957C279.436 59.9722 281.324 61.4686 282.285 64.0844C283.03 66.1066 283.205 68.7639 282.81 72.0565C282.435 75.178 281.685 77.7006 280.559 79.6246C278.932 82.3831 276.671 83.5685 273.776 83.1811C271.163 82.8316 269.363 81.3743 268.375 78.809C267.552 76.6677 267.342 73.9135 267.746 70.546C268.06 67.9377 268.647 65.7408 269.51 63.9555C271.123 60.6304 273.493 59.1771 276.621 59.5957ZM274.076 80.5493C275.493 80.739 276.701 80.2271 277.701 79.0141C278.7 77.801 279.417 75.3878 279.85 71.7746C280.163 69.1662 280.117 66.9795 279.712 65.2146C279.306 63.4497 278.228 62.4501 276.477 62.2157C274.867 62.0003 273.594 62.6419 272.658 64.1405C271.722 65.6391 271.068 67.9438 270.694 71.0545C270.413 73.3957 270.425 75.3088 270.731 76.7943C271.199 79.062 272.314 80.3136 274.076 80.5493Z" fill="#16b516" fill-rule="evenodd" opacity="1" stroke="none"/>
</g>
</g>
<g opacity="1">
<clipPath id="ClipPath_8">
<path d="M285.298 57.3438L306.739 61.6172L306.739 61.6172L300.558 96.1894L300.558 96.1894L279.118 91.916L279.118 91.916L285.298 57.3438L285.298 57.3438Z"/>
</clipPath>
<g clip-path="url(#ClipPath_8)">
<path d="M294.463 61.983C297.277 62.3595 299.166 63.8559 300.127 66.4717C300.872 68.4939 301.047 71.1514 300.652 74.4438C300.277 77.5653 299.527 80.0879 298.401 82.0119C296.774 84.7704 294.513 85.9558 291.618 85.5684C289.005 85.2189 287.205 83.7616 286.217 81.1964C285.394 79.055 285.184 76.3008 285.588 72.9333C285.901 70.325 286.489 68.1281 287.352 66.3428C288.964 63.0177 291.335 61.5644 294.463 61.983ZM291.917 82.9366C293.335 83.1263 294.544 82.6146 295.542 81.4014C296.542 80.1883 297.258 77.7751 297.692 74.1619C298.005 71.5535 297.959 69.3668 297.553 67.6019C297.148 65.837 296.07 64.8374 294.318 64.603C292.709 64.3876 291.436 65.0292 290.5 66.5278C289.564 68.0264 288.91 70.3311 288.536 73.4418C288.255 75.783 288.267 77.6961 288.573 79.1816C289.041 81.4493 290.156 82.7009 291.917 82.9366Z" fill="#16b516" fill-rule="evenodd" opacity="1" stroke="none"/>
</g>
</g>
<g opacity="1">
<clipPath id="ClipPath_9">
<path d="M303.148 59.7322L324.589 64.0056L324.589 64.0056L318.408 98.5778L318.408 98.5778L296.968 94.3044L296.968 94.3044L303.148 59.7322L303.148 59.7322Z"/>
</clipPath>
<g clip-path="url(#ClipPath_9)">
<path d="M302.117 86.338C302.455 84.3738 303.049 82.7045 303.898 81.33C304.747 79.9556 306.22 78.8004 308.317 77.8645L311.447 76.4749C312.849 75.8478 313.847 75.2862 314.442 74.7901C315.378 74.0138 315.915 73.0539 316.053 71.9101C316.213 70.5738 315.961 69.4622 315.296 68.5748C314.631 67.6875 313.665 67.1591 312.4 66.9899C310.527 66.7392 309.142 67.3141 308.243 68.7145C307.762 69.4647 307.416 70.5481 307.205 71.9644L304.426 71.5926C304.696 69.5977 305.241 68.0141 306.061 66.8422C307.512 64.7771 309.736 63.9451 312.733 64.346C315.223 64.6793 316.957 65.6336 317.936 67.2092C318.914 68.7847 319.299 70.4437 319.09 72.1861C318.87 74.0249 318.068 75.5144 316.687 76.6547C315.887 77.3188 314.506 78.0681 312.544 78.9026L310.318 79.8429C309.257 80.2874 308.411 80.7337 307.781 81.1815C306.657 81.9762 305.895 82.9223 305.496 84.0203L317.371 85.6092L317.044 88.3352L302.117 86.338Z" fill="#16b516" fill-rule="evenodd" opacity="1" stroke="none"/>
</g>
</g>
</g>
</g>
<g filter="url(#Filter_4)" vectornator:shadowAngle="1.5708" vectornator:shadowColor="#000000" vectornator:shadowOffset="1" vectornator:shadowOpacity="1" vectornator:shadowRadius="3">
<g opacity="1">
<path d="M226.366 244.918L54.5164 257.139C49.8402 257.471 45.4576 253.67 45.1042 248.702L29.7455 32.7204C29.3922 27.7519 33.1929 23.3693 38.1613 23.016L164.126 14.0584C166.464 13.8922 168.865 14.6027 170.743 16.2316L219.578 58.5823C221.456 60.2111 222.479 62.1946 222.666 64.825L234.782 235.214C234.843 240.203 231.043 244.586 226.366 244.918Z" fill="#b3b5b3" fill-rule="evenodd" opacity="1" stroke="none"/>
<path d="M48.2178 40.5127L159.277 32.6151L162.312 75.2854L204.982 72.251L216.038 227.734L62.3087 238.666L48.2178 40.5127Z" fill="#ffffff" fill-rule="evenodd" opacity="1" stroke="none"/>
<path d="M83.2373 202.517C83.4659 205.732 86.2833 208.175 89.4982 207.946L184.483 201.192C187.698 200.963 190.141 198.146 189.913 194.931C189.684 191.716 186.867 189.273 183.652 189.501L88.6669 196.256C85.452 196.484 83.0087 199.302 83.2373 202.517ZM86.547 166.445L181.532 159.691C184.747 159.462 187.564 161.905 187.793 165.12C188.022 168.335 185.578 171.153 182.363 171.381L87.3783 178.136C84.1634 178.364 81.346 175.921 81.1174 172.706C80.8888 169.491 83.3321 166.674 86.547 166.445ZM84.4479 136.927L179.433 130.172C182.648 129.944 185.465 132.387 185.694 135.602C185.922 138.817 183.479 141.634 180.264 141.863L85.2792 148.617C82.0643 148.846 79.2469 146.402 79.0183 143.188C78.7897 139.973 81.233 137.155 84.4479 136.927Z" fill="#b3b5b3" fill-rule="evenodd" opacity="1" stroke="none"/>
</g>
</g>
<g opacity="1">
<g fill="#e34f4f" opacity="1" stroke="none">
<path clip-path="url(#TextBounds)" d="M72.7308 68.5714C72.4725 64.2249 73.0743 61.1369 74.536 59.3073C75.9978 57.4778 78.33 56.4679 81.5327 56.2776C83.0716 56.1861 84.3463 56.3008 85.3567 56.6217C86.3671 56.9425 87.2023 57.3885 87.8624 57.9598C88.5224 58.531 89.0517 59.1413 89.4503 59.7907C89.8489 60.44 90.184 61.2054 90.4555 62.0866C90.9832 63.7666 91.302 65.5321 91.412 67.383C91.6585 71.5319 91.1371 74.6099 89.8476 76.617C88.5581 78.6242 86.1977 79.7297 82.7662 79.9336C80.8426 80.0479 79.2698 79.8335 78.0479 79.2905C76.826 78.7474 75.8003 77.9057 74.9708 76.7654C74.3697 75.9559 73.8723 74.8298 73.4787 73.387C73.0852 71.9443 72.8359 70.3391 72.7308 68.5714ZM79.0331 68.2125C79.2061 71.124 79.5817 73.0974 80.1597 74.1327C80.7378 75.1679 81.5155 75.6565 82.493 75.5984C83.1377 75.5601 83.6831 75.3007 84.1294 74.8203C84.5756 74.3398 84.8815 73.6042 85.047 72.6135C85.2125 71.6228 85.2337 70.0928 85.1107 68.0235C84.9303 64.9872 84.5517 62.9618 83.9749 61.9474C83.3981 60.9329 82.5949 60.4563 81.5655 60.5175C80.5153 60.5799 79.7879 61.1579 79.3833 62.2515C78.9787 63.3452 78.862 65.3322 79.0331 68.2125Z"/>
<path clip-path="url(#TextBounds)" d="M94.037 67.3053C93.7787 62.9588 94.3804 59.8708 95.8422 58.0412C97.3039 56.2117 99.6362 55.2018 102.839 55.0115C104.378 54.92 105.652 55.0347 106.663 55.3556C107.673 55.6764 108.508 56.1224 109.169 56.6937C109.829 57.2649 110.358 57.8752 110.756 58.5246C111.155 59.1739 111.49 59.9393 111.762 60.8205C112.289 62.5005 112.608 64.266 112.718 66.1169C112.965 70.2658 112.443 73.3438 111.154 75.3509C109.864 77.358 107.504 78.4636 104.072 78.6675C102.149 78.7818 100.576 78.5674 99.3541 78.0244C98.1322 77.4813 97.1065 76.6396 96.277 75.4993C95.6758 74.6898 95.1785 73.5637 94.7849 72.1209C94.3913 70.6782 94.142 69.073 94.037 67.3053ZM100.339 66.9464C100.512 69.8579 100.888 71.8313 101.466 72.8666C102.044 73.9018 102.822 74.3904 103.799 74.3323C104.444 74.294 104.989 74.0346 105.436 73.5542C105.882 73.0737 106.188 72.3381 106.353 71.3474C106.519 70.3567 106.54 68.8267 106.417 66.7574C106.236 63.7211 105.858 61.6957 105.281 60.6813C104.704 59.6668 103.901 59.1902 102.872 59.2514C101.821 59.3138 101.094 59.8918 100.689 60.9854C100.285 62.0791 100.168 64.0661 100.339 66.9464Z"/>
<path clip-path="url(#TextBounds)" d="M129.043 53.4543L130.425 76.7102L123.998 77.0921L123.093 61.8533C122.1 62.7054 121.132 63.4047 120.189 63.9512C119.246 64.4977 118.054 65.038 116.615 65.5723L116.305 60.3627C118.426 59.5375 120.056 58.6007 121.194 57.5522C122.331 56.5037 123.196 55.2418 123.786 53.7667L129.043 53.4543Z"/>
</g>
</g>
</g>
</svg>
