<?xml version="1.0" encoding="UTF-8" standalone="no"?>
<!DOCTYPE svg PUBLIC "-//W3C//DTD SVG 1.1//EN" "http://www.w3.org/Graphics/SVG/1.1/DTD/svg11.dtd">
<!-- Created with Vectornator (http://vectornator.io/) -->
<svg height="100%" stroke-miterlimit="10" style="fill-rule:nonzero;clip-rule:evenodd;stroke-linecap:round;stroke-linejoin:round;" version="1.1" viewBox="0 0 320 320" width="100%" xml:space="preserve" xmlns="http://www.w3.org/2000/svg" xmlns:xlink="http://www.w3.org/1999/xlink">
<defs>
<linearGradient gradientTransform="matrix(0.76 0 0 0.893958 22.3372 13.3413)" gradientUnits="userSpaceOnUse" id="LinearGradient" x1="268.32" x2="140.704" y1="282.604" y2="281.251">
<stop offset="0" stop-color="#fc861d"/>
<stop offset="1" stop-color="#fffa9e"/>
<stop offset="1" stop-color="#fc951d"/>
</linearGradient>
<clipPath id="TextBounds">
<rect height="81.813" width="64.7661" x="145.255" y="92.0606"/>
</clipPath>
<radialGradient cx="28.1726" cy="50.0234" gradientTransform="matrix(0.47 0 0 0.79 115.806 197.87)" gradientUnits="userSpaceOnUse" id="RadialGradient" r="33.4592">
<stop offset="0" stop-color="#645858"/>
<stop offset="1" stop-color="#000000"/>
</radialGradient>
<clipPath id="TextBounds_2">
<rect height="80" width="46.4473" x="106.14" y="187.997"/>
</clipPath>
<linearGradient gradientTransform="matrix(0.8 0 0 0.8 106.14 195.173)" gradientUnits="userSpaceOnUse" id="LinearGradient_2" x1="-0.5" x2="59.5" y1="59" y2="59">
<stop offset="0" stop-color="#000000"/>
<stop offset="1" stop-color="#ff0000"/>
<stop offset="1" stop-color="#000000"/>
</linearGradient>
<clipPath id="TextBounds_3">
<rect height="84.4189" width="62.8161" x="50.4674" y="90.1042"/>
</clipPath>
<clipPath id="TextBounds_4">
<rect height="20.605" width="17.6043" x="207.485" y="254.73"/>
</clipPath>
<clipPath id="TextBounds_5">
<rect height="20.2735" width="17.0275" x="212.58" y="250.633"/>
</clipPath>
<clipPath id="TextBounds_6">
<rect height="20.605" width="17.6043" x="218.087" y="247.914"/>
</clipPath>
</defs>
<g id="-m16lWn4Hb2WOO2FOR6JQ">
<path d="M303.75 244.354C293.981 228.636 258.676 228.054 243.383 229.058C228.09 230.063 241.195 234.44 224.801 244.354C220.867 246.732 200.809 260.252 196.721 262.623C180.969 271.758 170.754 289.954 172.645 292.623C174.838 295.72 172.732 302.428 184.971 297.98C193.77 294.783 198.497 286.866 211.978 278.536C233.418 265.288 243.383 262.623 243.383 262.623C243.383 262.623 223.787 270.183 211.978 278.536C206.13 282.673 212.159 285.142 211.978 285.747C211.432 287.573 222.45 298.884 227.636 295.754C232.402 292.876 244.108 283.067 253.65 279.931L253.65 279.931C253.658 279.928 253.666 279.932 253.67 279.94C253.673 279.947 253.671 279.957 253.663 279.961C246.446 284.263 231.212 294.101 233.683 295.754C235.115 296.712 248.883 305.724 249.661 304.857C251.298 303.031 268.221 292.623 268.221 292.623L255.938 304.857C255.938 304.857 258.64 309.575 263.683 310.306C269.11 311.093 276.931 307.902 277.638 308.037C279.003 308.298 282.383 302.797 283.202 302.014C283.72 301.519 297.467 297.98 297.467 297.98C297.467 297.98 303.45 294.923 303.75 292.623C304.569 286.362 313.52 260.071 303.75 244.354Z" fill="#fede7b" fill-rule="nonzero" opacity="0.87" stroke="#fc861d" stroke-linecap="round" stroke-linejoin="miter" stroke-width="7.11"/>
</g>
<g id="my38kERKNS0tpySZ2DLfD">
<path d="M128.95 13.3433C187.799 13.3433 235.561 69.5236 235.561 138.746C235.561 207.968 187.799 264.148 128.95 264.148C70.1007 264.148 22.3389 207.968 22.3389 138.746C22.3389 69.5236 70.1007 13.3433 128.95 13.3433Z" fill="url(#LinearGradient)" fill-rule="nonzero" opacity="1" stroke="#2543ce" stroke-linecap="round" stroke-linejoin="miter" stroke-width="0"/>
</g>
<g id="74F0jd7KnwTZajFoCbW1l">
<path d="M50.6284 175.643C13.7077 173.528 13.5202 159.08 10.1383 124.248C6.75641 89.4164 61.3015 77.6176 127.12 77.6176C192.938 77.6176 247.859 87.0802 247.859 124.248C247.859 131.315 250.918 172.43 210.104 175.643C169.29 178.857 153.22 159.457 133.132 159.166C113.044 158.874 87.549 177.758 50.6284 175.643Z" fill="#000000" fill-rule="nonzero" opacity="0.82" stroke="#f4279d" stroke-linecap="round" stroke-linejoin="miter" stroke-width="8.28304"/>
</g>
<g id="d1Tcfb67A415a09Kcl-2f">
<path clip-path="url(#TextBounds)" d="M180.605 135.593L188.693 114.678L165.813 129.873L180.605 135.593ZM174.384 151.969L178.746 140.69L158.507 132.864L160.701 127.192L193.181 106.041L198.079 107.935L186.503 137.873L193.303 140.502L191.346 145.562L184.546 142.933L180.185 154.212L174.384 151.969Z" fill="#000000" opacity="1" stroke="none"/>
</g>
<g id="uxMgmHzFx2Y0z7OgHV7KG">
<path d="M129.046 197.868C136.355 197.868 142.287 207.839 142.287 220.125C142.287 232.41 136.355 242.381 129.046 242.381C121.736 242.381 115.804 232.41 115.804 220.125C115.804 207.839 121.736 197.868 129.046 197.868Z" fill="url(#RadialGradient)" fill-rule="nonzero" opacity="1" stroke="#f4279d" stroke-linecap="round" stroke-linejoin="miter" stroke-width="0"/>
<path clip-path="url(#TextBounds_2)" d="M128.764 193.419C135.931 193.419 141.113 196.371 144.31 202.275C146.785 206.838 148.022 213.09 148.022 221.031C148.022 228.559 146.901 234.785 144.658 239.709C141.409 246.773 136.099 250.305 128.725 250.305C122.074 250.305 117.124 247.418 113.875 241.643C111.168 236.822 109.815 230.351 109.815 222.23C109.815 215.939 110.627 210.538 112.251 206.026C115.293 197.621 120.797 193.419 128.764 193.419ZM128.686 243.963C132.296 243.963 135.17 242.365 137.31 239.168C139.45 235.971 140.52 230.016 140.52 221.301C140.52 215.011 139.747 209.835 138.2 205.775C136.653 201.714 133.649 199.684 129.189 199.684C125.09 199.684 122.093 201.611 120.198 205.465C118.303 209.32 117.356 214.998 117.356 222.5C117.356 228.146 117.961 232.684 119.173 236.113C121.029 241.346 124.2 243.963 128.686 243.963Z" fill="url(#LinearGradient_2)" opacity="1" stroke="none"/>
</g>
<g id="Wbo6UqOdupcxMmv8KieqR">
<path clip-path="url(#TextBounds_3)" d="M78.5515 134.91L72.0678 112.217L94.6008 130.324L78.5515 134.91ZM83.5117 152.668L80.0151 140.429L101.974 134.156L100.215 128.002L68.1866 102.736L62.8718 104.255L72.1528 136.738L64.775 138.846L66.3434 144.336L73.7212 142.228L77.2178 154.466L83.5117 152.668Z" fill="#000000" opacity="1" stroke="none"/>
</g>
<g id="jglCkVqggQM-ePpaCBvnf"/>
<g id="GbbmkWm7rYuiyovIbjSM3">
<path d="M26.907 105.122C33.7353 93.2307 53.4747 83.981 82.2196 81.1125C110.964 78.2441 110.198 92.1464 137.745 92.1464C151.869 92.1464 155.917 82.6149 175.605 82.6149C195.294 82.6149 217.183 90.8971 230.532 105.122C243.881 119.348 236.38 158.645 236.38 158.645C236.38 158.645 236.696 111.536 190.736 94.4165C178.061 89.695 147.874 137.601 127.605 129.78C104.283 120.781 90.4973 91.9356 75.7149 92.1464C31.0691 92.7829 23.2591 172.986 23.2591 163.026C23.2591 159.261 20.0788 117.014 26.907 105.122Z" fill="#fc861d" fill-rule="nonzero" opacity="0.15" stroke="#f4279d" stroke-linecap="round" stroke-linejoin="miter" stroke-width="0"/>
</g>
<g id="SKoa6TCExTYrKOXmhvLhl">
<path clip-path="url(#TextBounds_4)" d="M214.607 259.465C214.048 258.492 213.864 259.245 213.995 260.704C214.207 263.035 214.304 263.807 213.973 266.66C213.944 266.872 213.951 266.989 214.011 267.12C214.143 267.48 214.569 267.672 214.917 267.517C214.984 267.478 215.041 267.446 215.146 267.34C215.328 267.16 216.64 266.301 217.298 266.058C217.512 266.432 217.549 267.359 217.722 267.53C217.838 267.704 219.581 266.732 219.535 266.338C219.528 266.221 218.377 265.92 218.263 265.564C218.444 265.46 219.754 265.279 219.208 264.329C218.889 263.775 217.997 264.107 217.541 264.309C217.354 264.01 217.166 263.08 216.866 262.846C216.738 262.754 216.589 262.704 216.473 262.711C216.345 262.724 216.186 262.815 216.099 262.926C215.993 263.107 215.984 263.353 216.059 263.641C216.121 263.801 216.446 264.472 216.557 264.664L216.648 264.822C216.195 265.082 215.082 266.339 215.194 265.748C215.194 265.748 215.36 263.681 215.263 262.91C215.203 262.177 214.972 260.624 214.845 260.141C214.824 260.078 214.819 259.99 214.806 259.968C214.779 259.817 214.706 259.664 214.607 259.465Z" fill="#b59655" opacity="1" stroke="none"/>
<path clip-path="url(#TextBounds_5)" d="M217.561 255.71C217.109 256.075 217.261 257.282 217.261 257.884C217.39 259.209 217.654 259.825 218.257 260.953C220.63 265.501 223.831 263.662 223.621 261.044C223.37 257.833 219.363 254.238 217.561 255.71ZM218.404 257.046C219.104 255.907 221.918 257.976 222.35 260.692C222.407 262.073 221.838 262.55 220.86 262.105C219.431 261.346 217.608 258.331 218.404 257.046Z" fill="#b59655" opacity="1" stroke="none"/>
<path clip-path="url(#TextBounds_6)" d="M225.209 252.649C224.65 251.676 224.466 252.429 224.597 253.888C224.808 256.219 224.906 256.991 224.574 259.844C224.546 260.056 224.553 260.172 224.613 260.303C224.745 260.664 225.171 260.855 225.518 260.701C225.586 260.662 225.643 260.629 225.748 260.524C225.93 260.344 227.242 259.485 227.9 259.242C228.114 259.615 228.15 260.542 228.324 260.713C228.439 260.888 230.183 259.916 230.136 259.521C230.13 259.405 228.978 259.103 228.864 258.748C229.045 258.644 230.355 258.462 229.809 257.512C229.491 256.958 228.599 257.29 228.143 257.492C227.956 257.193 227.768 256.263 227.468 256.03C227.34 255.938 227.191 255.888 227.074 255.895C226.946 255.908 226.788 255.999 226.701 256.109C226.595 256.291 226.586 256.537 226.661 256.824C226.723 256.984 227.048 257.655 227.158 257.847L227.249 258.006C226.797 258.266 225.684 259.522 225.795 258.932C225.795 258.932 225.962 256.865 225.864 256.093C225.804 255.361 225.574 253.808 225.447 253.324C225.425 253.261 225.42 253.174 225.407 253.151C225.381 253.001 225.308 252.847 225.209 252.649Z" fill="#b59655" opacity="1" stroke="none"/>
</g>
</svg>
