<svg xmlns="http://www.w3.org/2000/svg" version="1.1" xmlns:xlink="http://www.w3.org/1999/xlink" width="1000" height="1000"><g clip-path="url(#SvgjsClipPath1241)"><rect width="1000" height="1000" fill="#ffffff"></rect><g transform="matrix(1.2599672408517377,0,0,1.2599672408517377,150,154.9012725669133)"><svg xmlns="http://www.w3.org/2000/svg" version="1.1" xmlns:xlink="http://www.w3.org/1999/xlink" width="555.57" height="547.79"><svg inkscape:export-filename="RRR.svg" inkscape:export-xdpi="96" inkscape:export-ydpi="96" inkscape:version="1.3.2 (091e20e, 2023-11-25)" version="1.1" viewBox="0 0 555.57 547.79" xmlns="http://www.w3.org/2000/svg" xmlns:inkscape="http://www.inkscape.org/namespaces/inkscape" xmlns:sodipodi="http://sodipodi.sourceforge.net/DTD/sodipodi-0.dtd"><sodipodi:namedview bordercolor="#cccccc" borderopacity="1" inkscape:current-layer="layer1" inkscape:deskcolor="#d1d1d1" inkscape:document-units="px" inkscape:export-bgcolor="#ffffff00" inkscape:pagecheckerboard="0" inkscape:pageopacity="1" inkscape:showpageshadow="0" pagecolor="#ffffff"><inkscape:page x="0" y="0" width="555.57446" height="547.79327" bleed="0" margin="0"></inkscape:page></sodipodi:namedview><g transform="translate(18.675 15.562)" style="fill:#000000;mix-blend-mode:normal;opacity:.609" inkscape:groupmode="layer" inkscape:label="Слой 2"><rect x="-18.675" y="-15.562" width="555.57" height="547.79" style="fill-opacity:.99729;fill-rule:evenodd;fill:#ffffff;mix-blend-mode:normal;opacity:.902"></rect><rect x="172.74" y="154.07" width="171.19" height="189.86" style="display:none;fill-rule:evenodd;fill:#0000ff;mix-blend-mode:normal;opacity:1"></rect></g><g transform="translate(18.675 15.562)" style="mix-blend-mode:normal" inkscape:groupmode="layer" inkscape:label="Слой 1"><g transform="scale(1.0247 .97593)" style="mix-blend-mode:normal;stroke:#000000"><path d="m245.62 12.541c-6.8032 0-13.608 3.6881-16.066 11.064l.0664-.18359-41.082 103.68c-.57675 1.1248-2.111 2.7405-3.6856 3.6152-1.5901.88337-2.8537.91398-3.3535.66406l-.22265-.11133-100.23-33.412c-7.155-2.385-14.2.08362-18.447 4.9375-4.2471 4.8539-5.9751 12.053-3.627 19.098l.07422.2207 41.119 84.199c.71956 2.2332.66421 4.2897.0527 5.8184-.62178 1.5545-1.6846 2.6859-3.7402 3.3711l-.02539.01-72.609 25.512-.0332.0117c-8.9204 3.3451-14.037 10.545-14.037 17.982 0 7.4378 5.1167 14.639 14.037 17.984l.04883.0176 92.217 31.393.01.004c1.3916.46386 2.8719 2.3053 3.6445 4.8164.76593 2.4893.46742 5.4074.21875 5.9453l-49.002 78.406-.10742.24804c-3.3294 7.7685-2.9799 15.894 1.1152 21.564 4.0951 5.6702 12.118 7.9828 20.979 4.6602l90.357-33.393.17187-.0859c.91725-.45862 2.1098-.51712 3.3535.17383s2.6539 2.1976 3.4512 5.3867l.0566.23047 39.303 98.258-.11524-.33789c2.3417 8.196 9.1846 12.765 15.951 13.072 6.7666.30757 13.766-3.5904 16.225-10.967l-.14257.35938 46.9-101.62c1.8323-2.7214 3.2638-4.4011 3.8223-4.7734.5745-.383.0618-.44857 1.3965.21875l.24023.11914 104.17 33.414-.3086-.11523c8.1568 3.4958 16.796 1.1867 21.701-4.6387 4.9056-5.8254 5.8251-15.106.29101-23.961l-.0742-.1211-50.988-68.637c-1.887-2.8397-2.8164-4.9651-2.8164-5.6113 0-.32514-.0152-.40973.39453-.89258.40969-.48286 1.3646-1.2555 3.0644-2.1055l.0898-.0449 92.271-53.006.0273-.0176c5.7846-3.4707 9.0527-8.9824 9.0527-14.521 0-5.5391-3.5303-10.888-9.5527-13.297l.21289.0918-93.791-44.939c-4.7105-3.1935-5.8844-7.0332-4.4102-11.521l33.232-76.236-.0781.16797c3.5672-7.1344 1.8096-14.943-3.2774-19.395-5.087-4.4511-13.306-5.4057-21.197-.89648l.29883-.15234-78.494 35.322-.0625.0332c-1.126.56297-3.557 1.0026-5.4082.66602-1.8512-.33659-2.894-.9515-3.4316-2.5645l-.0605-.17968-43.215-94.287.13867.35156c-2.459-7.3768-9.2614-11.065-16.065-11.065zm0 6.6953c3.9809 0 7.9612 2.194 9.4238 6.582l.0586.17969 43.217 94.287-.13867-.35157c1.4231 4.2693 5.2795 6.5945 8.8203 7.2383 3.5408.64378 6.9935.1048 9.7891-1.293l-.1289.0625 78.584-35.363.14648-.08398c5.8341-3.3337 10.359-2.3256 13.115.08594 2.756 2.4115 3.94 6.3661 1.625 10.996l-.041.082-33.432 76.697-.0488.14844c-2.4034 7.2104.33215 15.087 7.2598 19.705l.20703.13672 94.443 45.254.10742.043c3.7813 1.5125 5.1524 4.0048 5.1524 6.7988 0 2.7919-1.634 6.1026-5.6465 8.5137-.003.002-.005.004-.008.006l-92.096 52.906.17773-.0957c-2.2216 1.1108-3.9655 2.2987-5.2715 3.8379-1.306 1.5392-2.0566 3.5392-2.0566 5.4199 0 3.7614 2.009 6.5233 4.0195 9.5391l.0508.0742 50.896 68.518c4.2296 6.8054 3.197 12.211.26758 15.689-2.9374 3.4881-8.0234 5.1013-13.592 2.7148l-.15039-.0645-104.08-33.385.49609.20313c-2.5868-1.2934-6.0416-1.359-8.4082.21875s-3.8625 3.8358-5.873 6.8516l-.15039.22852-47.254 102.38-.0606.18554c-1.4627 4.388-5.2481 6.3701-9.2656 6.1875-4.0175-.18261-7.9593-2.4748-9.5391-8.0039l-.0488-.17188-39.281-98.203.14649.45117c-1.1635-4.6538-3.6758-8.0486-6.8438-9.8086-3.168-1.76-6.8786-1.8185-9.8828-.31641l.35352-.15234-90.203 33.336-.0078.002c-6.8254 2.5595-10.566.95004-12.844-2.2031-2.2569-3.1249-2.8798-8.656-.40625-14.553l48.908-78.25.0742-.14844c1.7108-3.4216 1.4029-7.3126.21484-11.174-1.1878-3.8605-3.6302-7.8989-8.1191-9.3965l-92.049-31.338c-6.7536-2.5383-9.4805-7.0987-9.4805-11.422 0-4.3247 2.7274-8.8861 9.4863-11.424l72.434-25.449.0098-.004c3.8214-1.2771 6.6779-4.0658 8.0156-7.4102 1.339-3.3474 1.272-7.135.0703-10.74l-.0742-.21875-41.125-84.207c-1.5147-4.6784-.31647-9.1958 2.2773-12.16 2.6154-2.9891 6.3554-4.4408 10.965-2.9043l99.998 33.332-.45898-.18945c3.4216 1.7108 7.0612.76091 9.8828-.80664s5.1804-3.8451 6.5781-6.6406l.0684-.13672 41.266-104.15.0312-.0918c1.4627-4.388 5.4449-6.582 9.4258-6.582zm-4.4805 154.91v17.646h-15.688v18.764h15.688v8.6855h-39.215v24.646h39.215v13.541l-9.8047-9.8047v31.469l9.8047 9.8027v43.227h22.686v-20.029l9.8027 13.725v-33.756l-9.8027-11.766v-36.408h33.332v-24.646h-33.332v-8.6855h15.686v-18.764h-15.686v-17.646zm7 7h8.6856v17.646h15.686v4.7637h-15.686v22.686h33.332v10.646h-33.332v45.943l9.8027 11.764v9.3789l-9.8027-13.725v34.873h-8.6856v-39.125l-9.8047-9.8047v-11.668l9.8047 9.8027v-37.439h-39.215v-10.646h39.215v-22.686h-15.688v-4.7637h15.688z" style="display:none;fill-rule:evenodd;fill:#ff001f;paint-order:stroke fill markers;stroke:#000000"></path><path d="m191.7 128.63c-1.9607 3.9215-7.843 7.843-11.764 5.8822l-99.998-33.333c-11.764-3.9215-21.568 7.843-17.647 19.607l41.176 84.312c1.9607 5.8822 0 11.764-5.8822 13.725l-72.547 25.49c-15.686 5.8822-15.686 23.529 0 29.411l92.155 31.372c5.8822 1.9607 7.843 11.764 5.8822 15.686l-49.018 78.43c-5.8822 13.725 1.9607 27.45 17.647 21.568l90.194-33.333c3.9215-1.9607 9.8037 0 11.764 7.843l39.215 98.037c3.9215 13.725 21.568 13.725 25.49 1.9607l47.058-101.96c3.9215-5.8822 5.8822-7.843 9.8037-5.8822l103.92 33.333c13.725 5.8822 27.45-7.843 17.647-23.529l-50.979-68.626c-3.9215-5.8822-5.8822-9.8037 1.9607-13.725l92.155-52.94c9.8037-5.8822 9.8037-17.647 0-21.568l-94.116-45.097c-5.8822-3.9215-7.843-9.8037-5.8822-15.686l33.333-76.469c5.8822-11.764-5.8822-23.529-19.607-15.686l-78.43 35.293c-3.9215 1.9607-11.764 1.9607-13.725-3.9215l-43.136-94.116c-3.9215-11.764-21.568-11.764-25.49 0zm37.254 78.43v-11.764h15.686v-17.647h15.686v17.647h15.686v11.764h-15.686v15.686h33.333v17.647h-33.333v41.176l9.8037 11.764v21.568l-9.8037-13.725v27.45h-15.686v-41.176l-9.8037-9.8037v-21.568l9.8037 9.8037v-25.49h-39.215v-17.647h39.215v-15.686z" style="fill-rule:evenodd;fill:#ff4d34;paint-order:stroke fill markers;stroke-width:.2;stroke:#080808"></path></g></g></svg></svg></g></g><defs><clipPath id="SvgjsClipPath1241"><rect width="1000" height="1000" x="0" y="0" rx="500" ry="500"></rect></clipPath></defs></svg>