<?xml version="1.0" encoding="UTF-8"?>
<!-- Created with EazyDraw for Mac ( https://www.eazydraw.com/ ) -->

<svg
    version="1.1"
    xmlns:dc="http://purl.org/dc/elements/1.1/"
    xmlns:cc="http://creativecommons.org/ns#"
    xmlns:rdf="http://www.w3.org/1999/02/22-rdf-syntax-ns#"
    xmlns:svg="http://www.w3.org/2000/svg"
    xmlns:xlink="http://www.w3.org/1999/xlink"
    xmlns="http://www.w3.org/2000/svg"
    width="442.17715156"
    height="155.191593825"
    viewBox="0, 0, 442.17715156, 155.191593825"
    preserveAspectRatio="none"
    id="svg2">
   <defs
       id="defs_1D4F6D2E">
      <marker
          orient="auto"
          refX="0.0"
          refY="0.0"
          id="AD63CCFD_dimArrow_start_arrow"
          style="overflow:visible"
          markerUnits="userSpaceOnUse">
         <path
             id="AD63CCFD_dimArrow_start_arrow_path"
             style="fill:#FF2600;fill-opacity:1;stroke:#FF2600;stroke-opacity:1;fill-rule:nonzero;stroke-linecap:butt;stroke-linejoin:bevel;stroke-width:0.125"
             d="M0,0 L7.517540966287,-2.736161146605 L7.517540966287,2.736161146605 z"/>
      </marker>
      <marker
          orient="auto"
          refX="0.0"
          refY="0.0"
          id="AD63CCFD_dimArrow_end_arrow"
          style="overflow:visible"
          markerUnits="userSpaceOnUse">
         <path
             id="AD63CCFD_dimArrow_end_arrow_path"
             style="fill:#FF2600;fill-opacity:1;stroke:#FF2600;stroke-opacity:1;fill-rule:nonzero;stroke-linecap:butt;stroke-linejoin:bevel;stroke-width:0.125"
             d="M0,0 L-7.517540966287,2.736161146605 L-7.517540966287,-2.736161146605 z"/>
      </marker>
      <marker
          orient="auto"
          refX="0.0"
          refY="0.0"
          id="34070EFD_dimArrow_start_arrow"
          style="overflow:visible"
          markerUnits="userSpaceOnUse">
         <path
             id="34070EFD_dimArrow_start_arrow_path"
             style="fill:#945200;fill-opacity:1;stroke:#945200;stroke-opacity:1;fill-rule:nonzero;stroke-linecap:butt;stroke-linejoin:bevel;stroke-width:0.125"
             d="M0,0 L7.517540966287,-2.736161146605 L7.517540966287,2.736161146605 z"/>
      </marker>
      <marker
          orient="auto"
          refX="0.0"
          refY="0.0"
          id="34070EFD_dimArrow_end_arrow"
          style="overflow:visible"
          markerUnits="userSpaceOnUse">
         <path
             id="34070EFD_dimArrow_end_arrow_path"
             style="fill:#945200;fill-opacity:1;stroke:#945200;stroke-opacity:1;fill-rule:nonzero;stroke-linecap:butt;stroke-linejoin:bevel;stroke-width:0.125"
             d="M0,0 L-7.517540966287,2.736161146605 L-7.517540966287,-2.736161146605 z"/>
      </marker>
      <marker
          orient="auto"
          refX="0.0"
          refY="0.0"
          id="31E3110E_dimArrow_start_arrow"
          style="overflow:visible"
          markerUnits="userSpaceOnUse">
         <path
             id="31E3110E_dimArrow_start_arrow_path"
             style="fill:#F59853;fill-opacity:1;stroke:#F59853;stroke-opacity:1;fill-rule:nonzero;stroke-linecap:butt;stroke-linejoin:bevel;stroke-width:0.125"
             d="M0,0 L7.517540966287,-2.736161146605 L7.517540966287,2.736161146605 z"/>
      </marker>
      <marker
          orient="auto"
          refX="0.0"
          refY="0.0"
          id="31E3110E_dimArrow_end_arrow"
          style="overflow:visible"
          markerUnits="userSpaceOnUse">
         <path
             id="31E3110E_dimArrow_end_arrow_path"
             style="fill:#F59853;fill-opacity:1;stroke:#F59853;stroke-opacity:1;fill-rule:nonzero;stroke-linecap:butt;stroke-linejoin:bevel;stroke-width:0.125"
             d="M0,0 L-7.517540966287,2.736161146605 L-7.517540966287,-2.736161146605 z"/>
      </marker>
   </defs>
   <metadata
       id="metadata7">
      <rdf:RDF>
         <cc:Work
             rdf:about="">
            <dc:format>image/svg+xml</dc:format>
            <dc:type rdf:resource="http://purl.org/dc/dcmitype/StillImage"/>
            <dc:title></dc:title>
         </cc:Work>
      </rdf:RDF>
   </metadata>
   <g
       id="layer_Paper"
       style="fill:#000000;fill-opacity:1;stroke:#000000;stroke-opacity:1;fill-rule:nonzero;stroke-linecap:square;stroke-linejoin:miter;stroke-width:1;stroke-miterlimit:10">
      <g id="84F5792E_transform" transform="matrix(0.726083920665,0,0,1,54.9331018726,0)">
         <path
             style="fill:none;stroke:#E8433E;stroke-opacity:0;stroke-linecap:butt;stroke-width:5.452220439911;stroke-miterlimit:6"
             id="4E20682E"
             d="M-58.9449906871,119.61340625 C-55.3250959179,112.565335443 -39.3189277016,114.283528459 -22.5582719371,114.0860625 C28.1877080808,113.488197848 47.038948279,137.383084113 81.9768843129,131.82825 C105.375234854,128.108111648 140.988532335,104.635953299 176.305009313,114.6485625
C232.398473036,130.551675694 221.470038223,133.083039092 264.379228063,128.98840625 C277.964130321,127.692059543 293.659805443,104.730021977 338.301103063,124.92590625 C395.514636556,150.809515439 400.111338184,119.004696805 460.039384313,113.16028125"/>
      </g>
      <g
          id="F9BD3BFD">
         <path
             style="fill:#FF0000;stroke:none"
             id="44BD3BFD"
             d="M56.0112280629,28.18134375 C55.9152280629,27.02934375 49.9632280629,28.37334375 56.5872280629,25.39734375 C58.4112280629,24.72534375 60.7152280629,24.34134375 62.6352280629,24.34134375 C65.3232280629,24.82134375 64.7472280629,24.14934375 63.9792280629,29.62134375
C63.9472280629,30.67734375 63.9152280629,31.73334375 63.8832280629,32.78934375 C113.035228063,36.62934375 92.6832280629,95.28534375 61.1952280629,105.55734375 C61.0992280629,106.61334375 61.0032280629,107.66934375 60.9072280629,108.72534375
C60.7152280629,114.38934375 56.4912280629,130.22934375 53.9952280629,127.44534375 C55.1472280629,122.45334375 55.6272280629,111.60534375 55.4352280629,106.51734375 C34.0272280629,108.62934375 11.2752280629,43.34934375 56.4912280629,33.84534375
z M56.0112280629,98.45334375 C57.7392280629,82.90134375 56.2992280629,59.47734375 56.0112280629,39.79734375 C24.2352280629,37.01334375 36.5232280629,93.55734375 56.0112280629,98.45334375 z M61.0992280629,99.70134375
C87.4032280629,100.94934375 93.6432280629,51.22134375 63.5952280629,39.98934375 z"/>
         <path
             style="fill:#202020;stroke:none"
             id="A4BD3BFD"
             d="M112.939228063,58.42134375 C99.7872280629,69.84534375 95.3712280629,88.75734375 111.499228063,100.27734375 C113.995228063,102.00534375 116.203228063,101.90934375 118.219228063,100.27734375 C137.899228063,83.28534375 133.771228063,60.62934375 118.411228063,56.98134375
C116.203228063,56.50134375 114.571228063,56.98134375 112.939228063,58.42134375 z M111.307228063,66.00534375 C112.363228063,64.66134375 113.803228063,63.89334375 116.107228063,64.27734375 C126.475228063,66.38934375 126.955228063,81.07734375 120.715228063,91.63734375
C119.467228063,93.74934375 117.547228063,94.61334375 115.339228063,93.55734375 C106.699228063,89.52534375 105.739228063,73.49334375 111.307228063,66.00534375 z"/>
         <path
             style="fill:#202020;stroke:none"
             id="E4BD3BFD"
             d="M117.355228063,50.64534375 C117.931228063,50.83734375 118.507228063,50.64534375 118.891228063,50.16534375 C121.739228063,45.42934375 124.587228063,40.69334375 127.435228063,35.95734375 C128.203228063,34.80534375 127.339228063,33.46134375 125.899228063,33.65334375
C125.035228063,33.74934375 124.171228063,33.84534375 123.307228063,33.94134375 C122.923228063,34.03734375 122.635228063,34.22934375 122.539228063,34.61334375 C120.459228063,39.34934375 118.379228063,44.08534375 116.299228063,48.82134375
C116.011228063,49.39734375 116.299228063,50.06934375 116.875228063,50.35734375 z"/>
         <path
             style="fill:#202020;stroke:none"
             id="15BD3BFD"
             d="M161.131228063,84.14934375 C161.131228063,88.66134375 161.131228063,93.17334375 161.131228063,97.68534375 C161.131228063,97.97334375 161.131228063,98.26134375 161.035228063,98.74134375 C160.875228063,99.15734375 160.715228063,99.57334375 160.555228063,99.98934375
C160.363228063,100.56534375 160.651228063,100.94934375 161.227228063,100.94934375 C163.371228063,100.94934375 165.515228063,100.94934375 167.659228063,100.94934375 C168.139228063,100.94934375 168.331228063,100.66134375 168.427228063,100.27734375
C168.491228063,100.05334375 168.555228063,99.82934375 168.619228063,99.60534375 C168.619228063,99.22134375 168.715228063,99.02934375 168.715228063,98.64534375 C168.715228063,85.78134375 168.715228063,72.91734375 168.715228063,60.05334375
C168.715228063,58.99734375 168.619228063,58.32534375 167.467228063,57.94134375 C165.451228063,57.26934375 163.435228063,57.36534375 161.035228063,57.74934375 C160.363228063,57.94134375 160.171228063,58.32534375 160.555228063,58.80534375
C160.651228063,58.90134375 160.747228063,58.99734375 160.843228063,59.09334375 C161.035228063,59.38134375 161.131228063,59.76534375 161.131228063,60.14934375 C161.131228063,66.99734375 161.131228063,73.84534375 161.131228063,80.69334375
C161.003228063,80.66134375 160.875228063,80.62934375 160.747228063,80.59734375 C157.195228063,79.92534375 150.667228063,75.02934375 147.499228063,72.05334375 C147.467228063,67.66934375 147.435228063,63.28534375 147.403228063,58.90134375
C147.403228063,58.32534375 147.115228063,58.13334375 146.539228063,58.03734375 C144.139228063,57.74934375 141.739228063,57.36534375 139.243228063,57.65334375 C138.667228063,57.74934375 138.571228063,58.13334375 138.763228063,58.61334375
C139.243228063,59.57334375 139.531228063,60.72534375 139.531228063,62.16534375 C139.627228063,74.35734375 139.723228063,86.54934375 139.819228063,98.74134375 C139.819228063,99.22134375 139.723228063,99.70134375 139.531228063,100.08534375
C139.243228063,100.66134375 139.339228063,100.94934375 140.011228063,100.85334375 C142.347228063,100.88534375 144.683228063,100.91734375 147.019228063,100.94934375 C147.499228063,100.94934375 147.691228063,100.66134375 147.691228063,100.18134375
C147.627228063,94.26134375 147.563228063,88.34134375 147.499228063,82.42134375 C147.499228063,81.26934375 147.499228063,80.11734375 147.499228063,78.96534375 C151.627228063,82.42134375 157.195228063,84.24534375 160.747228063,84.14934375
z"/>
         <path
             style="fill:#202020;stroke:none"
             id="45BD3BFD"
             d="M178.411228063,59.28534375 C177.067228063,59.76534375 176.395228063,60.62934375 176.395228063,61.97334375 C176.587228063,65.71734375 178.027228063,71.86134375 178.795228063,75.12534375 C178.891228063,75.79734375 179.467228063,76.08534375 180.043228063,75.98934375
C182.251228063,75.60534375 183.883228063,74.83734375 185.995228063,74.45334375 C186.763228063,74.26134375 187.243228063,73.58934375 186.955228063,72.82134375 C185.995228063,69.46134375 184.843228063,64.85334375 184.171228063,61.49334375
C184.075228063,60.72534375 184.651228063,60.05334375 185.419228063,60.05334375 C187.787228063,60.05334375 190.155228063,60.05334375 192.523228063,60.05334375 C193.195228063,60.05334375 193.771228063,60.62934375 193.675228063,61.30134375
C192.811228063,73.87734375 192.811228063,87.12534375 193.771228063,99.60534375 C193.867228063,100.27734375 194.155228063,100.75734375 194.923228063,100.75734375 C197.419228063,100.85334375 199.915228063,100.66134375 201.643228063,100.27734375
C203.275228063,99.89334375 202.315228063,99.12534375 202.411228063,97.49334375 C202.411228063,97.23734375 202.411228063,96.98134375 202.411228063,96.72534375 C201.451228063,85.68534375 201.451228063,73.68534375 202.219228063,62.54934375
C202.315228063,61.49334375 202.219228063,60.43734375 203.179228063,60.05334375 C205.131228063,60.05334375 207.083228063,60.05334375 209.035228063,60.05334375 C209.611228063,60.05334375 210.187228063,60.53334375 210.187228063,61.20534375
C210.283228063,63.50934375 210.283228063,65.23734375 210.283228063,66.67734375 C210.283228063,68.78934375 212.587228063,69.74934375 214.027228063,67.92534375 C216.043228063,65.42934375 217.387228063,62.45334375 218.155228063,59.28534375
C218.347228063,58.42134375 217.675228063,57.74934375 216.907228063,57.74934375 C206.123228063,57.74934375 195.339228063,57.74934375 184.555228063,57.74934375 C183.403228063,57.74934375 182.635228063,57.84534375 181.579228063,58.22934375
z"/>
         <path
             style="fill:#202020;stroke:none"
             id="75BD3BFD"
             d="M255.115228063,97.87734375 C255.051228063,85.10934375 254.987228063,72.34134375 254.923228063,59.57334375 C255.499228063,58.22934375 257.419228063,57.84534375 255.403228063,57.84534375 C251.083228063,57.74934375 248.587228063,57.84534375 247.147228063,58.03734375
C246.091228063,58.03734375 245.611228063,58.99734375 245.611228063,58.99734375 C246.859228063,59.09334375 247.243228063,59.47734375 247.531228063,60.82134375 C247.563228063,62.35734375 247.595228063,63.89334375 247.627228063,65.42934375
C243.595228063,71.28534375 238.987228063,75.50934375 232.555228063,82.42134375 C232.555228063,74.96534375 232.555228063,67.50934375 232.555228063,60.05334375 C233.131228063,58.70934375 234.955228063,57.84534375 232.939228063,57.84534375
C230.699228063,57.81334375 228.459228063,57.78134375 226.219228063,57.74934375 C225.163228063,57.74934375 223.531228063,58.13334375 223.339228063,58.22934375 C222.379228063,58.61334375 221.995228063,59.66934375 221.995228063,59.66934375
C222.763228063,59.66934375 223.627228063,59.66934375 224.299228063,59.76534375 C226.411228063,62.54934375 225.067228063,73.87734375 225.067228063,98.35734375 C225.067228063,99.22134375 224.779228063,99.60534375 224.491228063,99.89334375
C223.627228063,100.56534375 224.683228063,100.94934375 226.219228063,100.94934375 C228.043228063,101.04534375 230.059228063,101.04534375 231.691228063,100.85334375 C233.611228063,100.75734375 232.843228063,100.08534375 232.651228063,98.16534375
C232.651228063,97.87734375 232.651228063,97.58934375 232.555228063,97.20534375 C232.555228063,93.46134375 232.555228063,89.71734375 232.555228063,85.97334375 C239.563228063,79.63734375 243.787228063,75.98934375 247.627228063,72.62934375
C247.531228063,78.10134375 247.531228063,85.87734375 247.531228063,97.58934375 C247.531228063,98.45334375 247.147228063,99.02934375 246.859228063,99.41334375 C245.899228063,100.46934375 246.955228063,100.94934375 248.395228063,101.04534375
C250.315228063,101.04534375 252.331228063,101.14134375 253.963228063,101.04534375 C255.883228063,101.04534375 255.211228063,100.37334375 255.115228063,98.45334375 z"/>
         <path
             style="fill:#202020;stroke:none"
             id="A5BD3BFD"
             d="M294.763228063,100.08534375 C293.899228063,99.70134375 293.323228063,99.41334375 293.227228063,97.97334375 C292.363228063,86.74134375 286.795228063,80.78934375 279.595228063,77.90934375 C278.571228063,77.49334375 277.547228063,77.07734375 276.523228063,76.66134375
C276.555228063,76.50134375 276.587228063,76.34134375 276.619228063,76.18134375 C278.251228063,69.46134375 285.355228063,55.54134375 290.443228063,63.89334375 C291.499228063,65.71734375 292.171228063,71.38134375 294.187228063,60.34134375
C294.283228063,59.76534375 294.667228063,58.03734375 294.091228063,57.84534375 C293.515228063,57.65334375 292.747228063,57.55734375 292.171228063,57.65334375 C291.499228063,57.65334375 290.923228063,57.74934375 290.251228063,57.94134375
C283.243228063,59.57334375 275.947228063,67.44534375 273.259228063,75.41334375 C273.163228063,75.60534375 273.163228063,75.79734375 273.163228063,75.98934375 C272.907228063,75.95734375 272.651228063,75.92534375 272.395228063,75.89334375
C272.363228063,70.54934375 272.331228063,65.20534375 272.299228063,59.86134375 C272.395228063,58.42134375 275.755228063,57.74934375 270.283228063,57.74934375 C267.115228063,57.74934375 265.771228063,57.65334375 265.099228063,57.65334375
C264.427228063,57.65334375 263.563228063,58.32534375 263.563228063,58.32534375 C263.275228063,58.80534375 263.947228063,58.90134375 264.235228063,59.28534375 C264.619228063,59.66934375 264.619228063,60.14934375 264.619228063,60.82134375
C264.619228063,73.01334375 264.619228063,85.20534375 264.619228063,97.39734375 C264.715228063,98.45334375 264.715228063,99.12534375 264.619228063,99.60534375 C264.427228063,100.18134375 264.235228063,100.94934375 264.427228063,100.94934375
C267.307228063,100.94934375 270.187228063,100.94934375 273.067228063,100.94934375 C273.835228063,100.94934375 273.643228063,100.94934375 272.875228063,99.89334375 C272.587228063,99.41334375 272.299228063,98.26134375 272.299228063,96.43734375
C272.331228063,90.90134375 272.363228063,85.36534375 272.395228063,79.82934375 C272.587228063,79.92534375 272.779228063,79.92534375 273.067228063,80.02134375 C288.139228063,89.23734375 284.011228063,94.03734375 285.643228063,100.27734375
C285.739228063,100.66134375 286.027228063,100.85334375 286.507228063,100.85334375 C288.331228063,100.85334375 291.979228063,100.85334375 294.667228063,100.66134375 C295.339228063,100.56534375 295.339228063,100.37334375 294.763228063,100.08534375
z"/>
         <path
             style="fill:#202020;stroke:none"
             id="C5BD3BFD"
             d="M316.075228063,57.26934375 C285.163228063,70.32534375 299.563228063,84.72534375 306.571228063,100.66134375 C306.955228063,101.52534375 307.915228063,101.62134375 309.355228063,100.94934375 C316.939228063,97.30134375 320.299228063,92.78934375 322.795228063,86.64534375
C323.083228063,85.97334375 322.411228063,85.68534375 321.835228063,86.16534375 C320.811228063,86.96534375 319.787228063,87.76534375 318.763228063,88.56534375 C317.995228063,89.23734375 317.227228063,90.38934375 317.227228063,90.38934375
C316.651228063,91.92534375 315.595228063,93.65334375 314.731228063,94.70934375 C314.635228063,94.99734375 314.443228063,95.09334375 314.251228063,95.18934375 C313.771228063,95.28534375 313.675228063,94.51734375 313.195228063,93.55734375
C308.491228063,83.95734375 296.971228063,69.74934375 310.219228063,62.45334375 C310.699228063,62.26134375 311.083228063,62.26134375 311.563228063,62.83734375 C313.771228063,65.71734375 316.651228063,68.88534375 318.955228063,71.57334375
C319.147228063,71.76534375 319.339228063,71.86134375 319.531228063,71.95734375 C320.011228063,71.95734375 320.491228063,71.47734375 321.355228063,70.80534375 C322.859228063,69.62134375 324.363228063,68.43734375 325.867228063,67.25334375
C325.963228063,67.15734375 325.963228063,66.96534375 326.059228063,66.86934375 C326.059228063,66.48534375 325.675228063,66.10134375 324.907228063,65.14134375 C322.507228063,62.35734375 320.779228063,60.82134375 319.339228063,58.32534375
C318.571228063,56.98134375 317.515228063,56.59734375 316.075228063,57.26934375 z"/>
         <path
             style="fill:#202020;stroke:none"
             id="F5BD3BFD"
             d="M368.875228063,98.45334375 C367.531228063,90.86934375 364.651228063,83.95734375 363.115228063,80.30934375 C362.059228063,77.90934375 358.123228063,79.73334375 355.051228063,80.21334375 C352.523228063,80.72534375 349.995228063,81.23734375 347.467228063,81.74934375
C349.003228063,75.22134375 351.211228063,68.21334375 353.227228063,60.53334375 C353.323228063,60.05334375 353.323228063,59.57334375 353.323228063,59.09334375 C353.323228063,59.02934375 353.323228063,58.96534375 353.323228063,58.90134375
C353.227228063,58.22934375 352.747228063,57.65334375 352.075228063,57.74934375 C349.035228063,57.78134375 345.995228063,57.81334375 342.955228063,57.84534375 C342.123228063,57.84534375 341.291228063,57.84534375 340.459228063,57.84534375
C339.787228063,57.84534375 339.403228063,57.94134375 338.731228063,58.03734375 C337.131228063,58.42134375 335.531228063,58.80534375 333.931228063,59.18934375 C333.163228063,59.38134375 332.587228063,59.76534375 332.683228063,60.53334375
C332.875228063,61.30134375 333.163228063,62.45334375 333.067228063,63.70134375 C332.875228063,65.52534375 332.395228063,66.38934375 333.259228063,66.38934375 C335.307228063,66.38934375 337.355228063,66.38934375 339.403228063,66.38934375
C339.979228063,66.38934375 340.555228063,66.29334375 340.843228063,65.81334375 C341.803228063,64.08534375 340.171228063,61.58934375 341.035228063,60.24534375 C341.323228063,59.66934375 341.995228063,59.66934375 342.667228063,59.66934375
C343.563228063,59.66934375 344.459228063,59.66934375 345.355228063,59.66934375 C341.323228063,73.20534375 337.387228063,86.06934375 337.387228063,99.50934375 C337.387228063,100.46934375 337.867228063,100.94934375 338.827228063,100.94934375
C347.595228063,100.94934375 356.363228063,100.94934375 365.131228063,100.94934375 C366.379228063,100.94934375 369.067228063,99.22134375 368.875228063,98.45334375 z M346.411228063,97.30134375 C345.643228063,97.30134375 345.259228063,96.82134375 345.259228063,96.05334375
C345.355228063,92.59734375 345.931228063,88.94934375 346.699228063,85.20534375 C347.979228063,85.01334375 349.259228063,84.82134375 350.539228063,84.62934375 C352.267228063,84.24534375 353.419228063,84.05334375 354.379228063,84.24534375
C354.955228063,84.43734375 355.243228063,84.82134375 355.627228063,85.39734375 C358.027228063,88.94934375 359.851228063,92.69334375 361.387228063,96.43734375 C361.771228063,97.49334375 361.291228063,98.16534375 360.235228063,98.06934375
z"/>
      </g>
      <g
          id="AD63CCFD">
         <path
             id="AD63CCFD_dimension_a"
             d="M0.457353062909,71.8516875 L0.457353062909,2.44921875"/>
         <path
             id="AD63CCFD_dimension_b"
             d="M111.499228063,58.91015625 L111.499228063,2.44921875"/>
         <rect
             id="AD63CCFD_dimension_box"
             style="fill:none;stroke-linejoin:bevel"
             x="36.9636421254"
             y="4.75"
             width="38.029296875"
             height="22"/>
         <g
             id="AD63CCFD_dimension">
            <path
                id="AD63CCFD_dimension"
                d="M0.457353062909,15.75 L32.9636421254,15.75 M78.9929390004,15.75 L111.499228063,15.75"
                style="marker-start:url(#AD63CCFD_dimArrow_start_arrow);marker-end:url(#AD63CCFD_dimArrow_end_arrow)"/>
            <text
                id="AD63CCFD_dimension_text"
                style="stroke:none"
                font-family="Helvetica"
                font-size="12"
                font-weight="normal"
                font-style="normal">
               <tspan x="40.9636421254" y="19.75">3,917</tspan>
            </text>
         </g>
      </g>
      <g
          id="34070EFD">
         <path
             id="34070EFD_dimension_a"
             d="M168.715228063,98.64534375 L168.715228063,4.91878125"/>
         <path
             id="34070EFD_dimension_b"
             d="M253.963228063,101.04534375 L253.963228063,4.91878125"/>
         <rect
             id="34070EFD_dimension_box"
             style="fill:none;stroke-linejoin:bevel"
             x="192.324579625"
             y="13.446125"
             width="38.029296875"
             height="22"/>
         <g
             id="34070EFD_dimension">
            <path
                id="34070EFD_dimension"
                d="M168.715228063,24.446125 L188.324579625,24.446125 M234.3538765,24.446125 L253.963228063,24.446125"
                style="marker-start:url(#34070EFD_dimArrow_start_arrow);marker-end:url(#34070EFD_dimArrow_end_arrow)"/>
            <text
                id="34070EFD_dimension_text"
                style="stroke:none"
                font-family="Helvetica"
                font-size="12"
                font-weight="normal"
                font-style="normal">
               <tspan x="196.324579625" y="28.446125">3,007</tspan>
            </text>
         </g>
      </g>
      <g
          id="31E3110E">
         <path
             id="31E3110E_dimension_a"
             d="M330.966228063,57.84534375 L420.284790563,57.84534375"/>
         <path
             id="31E3110E_dimension_b"
             d="M332.058228063,100.44534375 L420.284790563,100.44534375"/>
         <rect
             id="31E3110E_dimension_box"
             style="fill:none;stroke-linejoin:bevel"
             x="388.527954625"
             y="68.14534375"
             width="38.029296875"
             height="22"/>
         <g
             id="31E3110E_dimension">
            <path
                id="31E3110E_dimension"
                d="M407.542603063,57.84534375 L407.542603063,72.14534375 M407.542603063,86.14534375 L407.542603063,100.44534375"
                style="marker-start:url(#31E3110E_dimArrow_start_arrow);marker-end:url(#31E3110E_dimArrow_end_arrow)"/>
            <text
                id="31E3110E_dimension_text"
                style="stroke:none"
                font-family="Helvetica"
                font-size="12"
                font-weight="normal"
                font-style="normal">
               <tspan x="392.527954625" y="83.14534375">1,503</tspan>
            </text>
         </g>
      </g>
      <path
          style="fill:none;stroke:#424242;stroke-linecap:butt;stroke-width:0.859935104847;stroke-miterlimit:6"
          id="80D8790E"
          d="M2.88159431616,110.466583361 L2.875658190163,119.407950605 M12.0633207851,110.47267906 L12.0450611793,137.97644844 M21.245047254,110.47877476 L21.239111128,119.420142004 M30.4267737229,110.484870459 L30.4167297703,125.613705082
M39.6085001918,110.490966158 L39.6025640658,119.432333402 M48.7902266607,110.497061857 L48.7664899528,146.250787741 M57.9719531296,110.503157556 L57.9660170036,119.444524801 M67.1536795985,110.509253256
L67.1436356459,125.638087878 M76.3354060673,110.515348955 L76.3294699414,119.456716199 M85.5171325362,110.521444654 L85.4988729305,138.025214034 M94.6988590051,110.527540353 L94.6929228791,119.468907598
M103.880585474,110.533636052 L103.870541521,125.662470675 M113.062311943,110.539731752 L113.056375817,119.481098996 M122.244038412,110.545827451 L122.220301704,146.299553335 M131.425764881,110.55192315
L131.419828755,119.493290394 M140.60749135,110.558018849 L140.597447397,125.686853472 M149.789217819,110.564114548 L149.783281693,119.505481793 M158.970944287,110.570210248 L158.952684682,138.073979627
M168.152670756,110.576305947 L168.14673463,119.517673191 M177.334397225,110.582401646 L177.324353273,125.711236269 M186.516123694,110.588497345 L186.510187568,119.52986459 M195.697850163,110.594593044 L195.674113455,146.348318929
M204.879576632,110.600688744 L204.873640506,119.542055988 M214.061303101,110.606784443 L214.051259148,125.735619066 M223.24302957,110.612880142 L223.237093444,119.554247386 M232.424756039,110.618975841
L232.406496433,138.122745221 M241.606482508,110.62507154 L241.600546382,119.566438785 M250.788208976,110.63116724 L250.778165024,125.760001862 M259.969935445,110.637262939 L259.963999319,119.578630183 M269.151661914,110.643358638
L269.127925206,146.397084522 M278.333388383,110.649454337 L278.327452257,119.590821582 M287.515114852,110.655550036 L287.505070899,125.784384659 M296.696841321,110.661645736 L296.690905195,119.60301298
M305.87856779,110.667741435 L305.860308184,138.171510815 M315.060294259,110.673837134 L315.054358133,119.615204378 M324.242020728,110.679932833 L324.231976775,125.808767456 M333.423747197,110.686028532
L333.417811071,119.627395777 M342.605473665,110.692124232 L342.581736958,146.445850116 M351.787200134,110.698219931 L351.781264008,119.639587175 M360.968926603,110.70431563 L360.958882651,125.833150253
M370.150653072,110.710411329 L370.144716946,119.651778574 M379.332379541,110.716507028 L379.314119935,138.220276408 M388.51410601,110.722602728 L388.508169884,119.663969972 M397.695832479,110.728698427
L397.685788526,125.85753305 M406.877558948,110.734794126 L406.871622822,119.67616137 M416.059285417,110.740889825 L416.035548709,146.49461571 M425.241011885,110.746985525 L425.235075759,119.688352769 M434.422738354,110.753081224
L434.412694402,125.881915847"/>
   </g>
</svg>
