<?xml version="1.0" encoding="UTF-8" standalone="no"?>
<!DOCTYPE svg PUBLIC "-//W3C//DTD SVG 1.1//EN" "http://www.w3.org/Graphics/SVG/1.1/DTD/svg11.dtd">
<!-- Created with Vectornator (http://vectornator.io/) -->
<svg height="100%" stroke-miterlimit="10" style="fill-rule:nonzero;clip-rule:evenodd;stroke-linecap:round;stroke-linejoin:round;" version="1.1" viewBox="0 0 500 192.169" width="100%" xml:space="preserve" xmlns="http://www.w3.org/2000/svg" xmlns:xlink="http://www.w3.org/1999/xlink">
<defs>
<clipPath id="TextBounds">
<rect height="173" width="56.261" x="103.309" y="11.0567"/>
</clipPath>
<clipPath id="TextBounds_2">
<rect height="173" width="52.911" x="153.349" y="11.0567"/>
</clipPath>
<clipPath id="TextBounds_3">
<rect height="173" width="64.595" x="203.519" y="11.0567"/>
</clipPath>
<clipPath id="TextBounds_4">
<rect height="173" width="60.277" x="264.089" y="11.0567"/>
</clipPath>
<clipPath id="TextBounds_5">
<rect height="173" width="55.705" x="320.359" y="11.0567"/>
</clipPath>
<clipPath id="TextBounds_6">
<rect height="173" width="60.682" x="365.689" y="11.0567"/>
</clipPath>
<clipPath id="TextBounds_7">
<rect height="173" width="58.245" x="414.459" y="11.0567"/>
</clipPath>
<clipPath id="TextBounds_8">
<rect height="176" width="136.74" x="19.4388" y="3.68273"/>
</clipPath>
</defs>
<g id="4VJ2N02l9vdjYVeYXCU2u">
<path clip-path="url(#TextBounds)" d="M125.637 75.7957C108.238 90.9087 102.396 115.928 123.732 131.168C127.034 133.454 129.955 133.327 132.622 131.168C158.657 108.689 153.196 78.7167 132.876 73.8907C129.955 73.2557 127.796 73.8907 125.637 75.7957ZM123.478 85.8287C124.875 84.0507 126.78 83.0347 129.828 83.5427C143.544 86.3367 144.179 105.768 135.924 119.738C134.273 122.532 131.733 123.675 128.812 122.278C117.382 116.944 116.112 95.7347 123.478 85.8287Z" fill="#525252" opacity="1" stroke="none"/>
<path clip-path="url(#TextBounds_2)" d="M189.647 98.2747L189.647 127.739C189.647 128.12 189.647 128.501 189.52 129.136L188.885 130.787C188.631 131.549 189.012 132.057 189.774 132.057L198.283 131.549C198.918 131.549 199.172 131.168 199.299 130.66L199.553 129.771C199.553 129.263 199.68 129.009 199.68 128.501L199.68 77.9547C199.68 76.5577 199.553 75.6687 198.029 75.1607C195.362 74.2717 192.695 74.3987 189.52 74.9067C188.631 75.1607 188.377 75.6687 188.885 76.3037L189.266 76.6847C189.52 77.0657 189.647 77.5737 189.647 78.0817L189.647 95.2267L189.139 95.0997C184.44 94.2107 178.344 90.9087 172.248 87.9877L171.613 87.6067L171.486 76.4307C171.486 75.6687 171.105 75.4147 170.343 75.2877C167.168 74.9067 163.993 74.3987 160.691 74.7797C159.929 74.9067 159.802 75.4147 160.056 76.0497C160.691 77.3197 161.072 78.8437 161.072 80.7487L161.453 129.136C161.453 129.771 161.326 130.406 161.072 130.914C160.691 131.676 160.818 132.057 161.707 131.93L170.978 131.295C171.613 131.295 171.867 130.914 171.867 130.279L171.613 94.4647L171.613 94.2107C177.074 95.3537 184.44 98.4017 189.139 98.2747L189.647 98.2747Z" fill="#525252" opacity="1" stroke="none"/>
<path clip-path="url(#TextBounds_3)" d="M212.766 76.9387C210.988 77.5737 210.099 78.7167 210.099 80.4947C210.353 85.4477 212.258 93.5757 213.274 97.8937C213.401 98.7827 214.163 99.1637 214.925 99.0367C217.846 98.5287 220.005 97.5127 222.799 97.0047C223.815 96.7507 224.45 95.8617 224.069 94.8457C222.799 90.4007 221.275 84.3047 220.386 79.8597C220.259 78.8437 221.021 77.9547 222.037 77.9547L231.435 77.9547C232.324 77.9547 233.086 78.7167 232.959 79.6057C231.816 96.2427 231.816 113.769 233.086 130.279C233.213 131.168 233.594 131.803 234.61 131.803C237.912 131.93 241.214 131.676 243.5 131.168C245.659 130.66 244.389 129.644 244.516 127.485L244.516 126.469C243.246 111.864 243.246 95.9887 244.262 81.2567C244.389 79.8597 244.262 78.4627 245.532 77.9547L245.913 77.9547L253.279 77.9547C254.041 77.9547 254.803 78.5897 254.803 79.4787C254.93 82.5267 254.93 84.8127 254.93 86.7177C254.93 89.5117 257.978 90.7817 259.883 88.3687C262.55 85.0667 264.328 81.1297 265.344 76.9387C265.598 75.7957 264.709 74.9067 263.693 74.9067L220.894 74.9067C219.37 74.9067 218.354 75.0337 216.957 75.5417L212.766 76.9387Z" fill="#525252" opacity="1" stroke="none"/>
<path clip-path="url(#TextBounds_4)" d="M314.992 127.993L314.738 76.9387C315.5 75.1607 318.04 74.5257 315.373 74.6527C309.658 74.9067 306.356 75.0337 304.451 75.2877C303.054 75.2877 302.419 76.5577 302.419 76.5577C304.07 76.6847 304.578 77.1927 304.959 78.9707L305.086 85.0667C299.752 92.8137 294.418 97.0047 285.147 100.688L285.147 77.9547C285.909 76.1767 288.322 75.0337 285.655 75.0337L276.765 74.9067C275.368 74.9067 273.209 75.4147 272.955 75.5417C271.685 76.0497 271.177 77.4467 271.177 77.4467C272.193 77.4467 273.336 77.4467 274.225 77.5737C277.019 81.2567 275.241 96.2427 275.241 128.628C275.241 129.771 274.86 130.279 274.479 130.66C273.336 131.549 274.733 132.057 276.765 132.057C279.178 132.184 281.845 132.184 284.004 131.93C286.544 131.803 285.528 130.914 285.274 128.374C285.274 127.993 285.274 127.612 285.147 127.104L285.147 105.387C295.18 102.466 300.006 99.0367 305.086 94.5917C304.959 101.831 304.959 112.118 304.959 127.612C304.959 128.755 304.451 129.517 304.07 130.025C302.8 131.422 304.197 132.057 306.102 132.184C308.642 132.184 311.309 132.311 313.468 132.184C316.008 132.184 315.119 131.295 314.992 128.755L314.992 127.993Z" fill="#525252" opacity="1" stroke="none"/>
<path clip-path="url(#TextBounds_5)" d="M368.976 130.914C367.833 130.406 367.452 130.025 366.944 128.12C361.61 108.562 357.038 103.736 347.132 100.561L344.846 99.9257L344.973 99.2907C347.132 90.4007 353.863 71.9857 360.594 83.0347C361.991 85.4477 362.88 92.9407 365.547 78.3357C365.674 77.5737 366.182 75.2877 365.42 75.0337C364.658 74.7797 363.642 74.6527 362.88 74.7797C361.991 74.7797 361.229 74.9067 360.34 75.1607C351.069 77.3197 344.084 87.7337 340.528 98.2747C340.401 98.5287 340.401 98.7827 340.401 99.0367L339.385 98.9097L339.258 77.7007C339.385 75.7957 343.83 74.9067 336.591 74.9067C332.4 74.9067 330.622 74.7797 329.733 74.7797C328.844 74.7797 327.701 75.6687 327.701 75.6687C327.32 76.3037 328.209 76.4307 328.59 76.9387C329.098 77.4467 329.098 78.0817 329.098 78.9707L329.098 127.358C329.225 128.755 329.225 129.644 329.098 130.279C328.844 131.041 328.59 132.057 328.844 132.057L340.274 132.057C341.29 132.057 341.036 132.057 340.02 130.66C339.639 130.025 339.258 128.501 339.258 126.088L339.385 104.117C339.639 104.244 339.893 104.244 340.274 104.371C355.641 107.292 354.752 122.913 356.911 131.168C357.038 131.676 357.419 131.93 358.054 131.93C360.467 131.93 365.293 131.93 368.849 131.676C369.738 131.549 369.738 131.295 368.976 130.914Z" fill="#525252" opacity="1" stroke="none"/>
<path clip-path="url(#TextBounds_6)" d="M397.415 74.2717C356.521 91.5437 375.571 113.007 384.842 134.089C385.35 135.232 386.62 135.359 388.525 134.47C398.558 129.644 403.003 123.675 406.305 115.547C406.686 114.658 405.797 114.277 405.035 114.912L400.971 118.087C399.955 118.976 398.939 120.5 398.939 120.5C398.177 122.532 396.78 124.818 395.637 126.215C395.51 126.596 395.256 126.723 395.002 126.85C394.367 126.977 394.24 125.961 393.605 124.691C387.382 111.991 372.142 90.7817 389.668 81.1297C390.303 80.8757 390.811 80.8757 391.446 81.6377C394.367 85.4477 398.177 89.6387 401.225 93.1947C401.479 93.4487 401.733 93.5757 401.987 93.7027C402.622 93.7027 403.257 93.0677 404.4 92.1787L410.369 87.4797C410.496 87.3527 410.496 87.0987 410.623 86.9717C410.623 86.4637 410.115 85.9557 409.099 84.6857C405.924 81.0027 403.638 78.9707 401.733 75.6687C400.717 73.8907 399.32 73.3827 397.415 74.2717Z" fill="#525252" opacity="1" stroke="none"/>
<path clip-path="url(#TextBounds_7)" d="M467.394 128.755C465.616 118.722 461.806 109.578 459.774 104.752C458.377 101.577 453.17 103.99 449.106 104.625L439.073 106.657C441.105 98.0207 444.026 88.7497 446.693 78.5897C446.82 77.9547 446.82 77.3197 446.82 76.6847L446.82 76.4307C446.693 75.5417 446.058 74.7797 445.169 74.9067L433.104 75.0337L429.802 75.0337C428.913 75.0337 428.405 75.1607 427.516 75.2877L421.166 76.8117C420.15 77.0657 419.388 77.5737 419.515 78.5897C419.769 79.6057 420.15 81.1297 420.023 82.7807C419.769 85.1937 419.134 86.3367 420.277 86.3367L428.405 86.3367C429.167 86.3367 429.929 86.2097 430.31 85.5747C431.58 83.2887 429.421 79.9867 430.564 78.2087C430.945 77.4467 431.834 77.4467 432.723 77.4467L436.279 77.4467C430.945 95.3537 425.738 112.372 425.738 130.152C425.738 131.422 426.373 132.057 427.643 132.057L462.441 132.057C464.092 132.057 467.648 129.771 467.394 128.755ZM437.676 127.231C436.66 127.231 436.152 126.596 436.152 125.58C436.279 121.008 437.041 116.182 438.057 111.229L443.137 110.467C445.423 109.959 446.947 109.705 448.217 109.959C448.979 110.213 449.36 110.721 449.868 111.483C453.043 116.182 455.456 121.135 457.488 126.088C457.996 127.485 457.361 128.374 455.964 128.247L437.676 127.231Z" fill="#525252" opacity="1" stroke="none"/>
</g>
<g id="F5cGFupRJuOydufqEERyg">
<path clip-path="url(#TextBounds_8)" d="M55.3818 28.9007C55.2528 27.3527 47.2548 29.1587 56.1558 25.1597C58.6068 24.2567 61.7028 23.7407 64.2828 23.7407C67.8948 24.3857 67.1208 23.4827 66.0888 30.8357L65.9598 35.0927C132.008 40.2527 104.66 119.072 62.3478 132.875L61.9608 137.132C61.7028 144.743 56.0268 166.028 52.6728 162.287C54.2208 155.579 54.8658 141.002 54.6078 134.165C25.8408 137.003-4.73216 49.2827 56.0268 36.5117L55.3818 28.9007ZM55.3818 123.329C57.7038 102.431 55.7688 70.9547 55.3818 44.5097C12.6828 40.7687 29.1948 116.75 55.3818 123.329ZM62.2188 125.006C97.5648 126.683 105.95 59.8607 65.5728 44.7677L62.2188 125.006Z" fill="#f72f3a" opacity="1" stroke="none"/>
</g>
<g id="6uYpf6gvRr7L5T54SlrTx">
<path d="M115.293 87.7707C311.476 87.7707 463.385 87.7707 463.385 87.7707" fill="none" opacity="1" stroke="#35ed35" stroke-linecap="round" stroke-linejoin="miter" stroke-width="1"/>
</g>
<g id="5ziOtD8oKdFLYO2GHjhn3">
<path d="M74.0446 140.405L460.308 140.405" fill="#ffffff" fill-opacity="0" fill-rule="nonzero" opacity="1" stroke="#31a8f7" stroke-linecap="round" stroke-linejoin="miter" stroke-width="1"/>
</g>
<g id="n7G5yqaAIySKEz0MvCZ1n">
<g opacity="1">
<path d="M149.179 30.3657L149.179 163.956" fill="#ffffff" fill-opacity="0" fill-rule="nonzero" opacity="1" stroke="#fc861d" stroke-linecap="round" stroke-linejoin="miter" stroke-width="1"/>
<path d="M159.639 30.3657L159.639 163.956" fill="#ffffff" fill-opacity="0" fill-rule="nonzero" opacity="1" stroke="#fc861d" stroke-linecap="round" stroke-linejoin="miter" stroke-width="1"/>
<path d="M198.769 30.3657L198.769 163.956" fill="#ffffff" fill-opacity="0" fill-rule="nonzero" opacity="1" stroke="#fc861d" stroke-linecap="round" stroke-linejoin="miter" stroke-width="1"/>
<path d="M208.659 30.3657L208.659 163.956" fill="#ffffff" fill-opacity="0" fill-rule="nonzero" opacity="1" stroke="#fc861d" stroke-linecap="round" stroke-linejoin="miter" stroke-width="1"/>
<path d="M263.909 30.3657L263.909 163.956" fill="#ffffff" fill-opacity="0" fill-rule="nonzero" opacity="1" stroke="#fc861d" stroke-linecap="round" stroke-linejoin="miter" stroke-width="1"/>
<path d="M270.519 30.3657L270.519 163.956" fill="#ffffff" fill-opacity="0" fill-rule="nonzero" opacity="1" stroke="#fc861d" stroke-linecap="round" stroke-linejoin="miter" stroke-width="1"/>
<path d="M315.439 30.3657L315.439 163.956" fill="#ffffff" fill-opacity="0" fill-rule="nonzero" opacity="1" stroke="#fc861d" stroke-linecap="round" stroke-linejoin="miter" stroke-width="1"/>
<path d="M325.599 30.3657L325.599 163.956" fill="#ffffff" fill-opacity="0" fill-rule="nonzero" opacity="1" stroke="#fc861d" stroke-linecap="round" stroke-linejoin="miter" stroke-width="1"/>
<path d="M367.999 30.3657L367.999 163.956" fill="#ffffff" fill-opacity="0" fill-rule="nonzero" opacity="1" stroke="#fc861d" stroke-linecap="round" stroke-linejoin="miter" stroke-width="1"/>
<path d="M371.049 30.3657L371.049 163.956" fill="#ffffff" fill-opacity="0" fill-rule="nonzero" opacity="1" stroke="#fc861d" stroke-linecap="round" stroke-linejoin="miter" stroke-width="1"/>
<path d="M409.359 30.3657L409.359 163.956" fill="#ffffff" fill-opacity="0" fill-rule="nonzero" opacity="1" stroke="#fc861d" stroke-linecap="round" stroke-linejoin="miter" stroke-width="1"/>
<path d="M417.339 30.3657L417.339 163.956" fill="#ffffff" fill-opacity="0" fill-rule="nonzero" opacity="1" stroke="#fc861d" stroke-linecap="round" stroke-linejoin="miter" stroke-width="1"/>
</g>
</g>
<g id="iz0IjAanIuUwJk7HJwDzF">
<path d="M141.709 150.87C158.668 140.343 168.609 136.132 168.609 136.132" fill="#ffffff" fill-opacity="0" fill-rule="nonzero" opacity="1" stroke="#fc861d" stroke-linecap="round" stroke-linejoin="miter" stroke-width="1"/>
</g>
<g id="zyZGjOWldcXj2_iP4NGYM">
<path d="M352.704 94.9111L383.614 82.6304" fill="#ffffff" fill-opacity="0" fill-rule="nonzero" opacity="1" stroke="#f72f3a" stroke-linecap="round" stroke-linejoin="miter" stroke-width="1"/>
</g>
<g id="5oh4ffTrT_RKLxjDH1uO0">
<path d="M190.949 150.87C207.908 140.343 217.849 136.132 217.849 136.132" fill="#ffffff" fill-opacity="0" fill-rule="nonzero" opacity="1" stroke="#fc861d" stroke-linecap="round" stroke-linejoin="miter" stroke-width="1"/>
</g>
<g id="abpZA1XbYATW669DEiHKs">
<path d="M251.299 151.37C268.258 140.843 278.199 136.632 278.199 136.632" fill="#ffffff" fill-opacity="0" fill-rule="nonzero" opacity="1" stroke="#fc861d" stroke-linecap="round" stroke-linejoin="miter" stroke-width="1"/>
</g>
<g id="dBg-la_UipcdGtea0em0V">
<path d="M305.219 151.37C322.178 140.843 332.119 136.632 332.119 136.632" fill="#ffffff" fill-opacity="0" fill-rule="nonzero" opacity="1" stroke="#fc861d" stroke-linecap="round" stroke-linejoin="miter" stroke-width="1"/>
</g>
<g id="z4K0nIzDrLlRx5le3ybUl">
<path d="M352.709 151.37C369.668 140.843 379.609 136.632 379.609 136.632" fill="#ffffff" fill-opacity="0" fill-rule="nonzero" opacity="1" stroke="#f72f3a" stroke-linecap="round" stroke-linejoin="miter" stroke-width="1"/>
</g>
<g id="LWFm5MbIvUcqDbgUpqDNA">
<path d="M397.859 150.87C414.818 140.343 424.759 136.132 424.759 136.132" fill="#ffffff" fill-opacity="0" fill-rule="nonzero" opacity="1" stroke="#fc861d" stroke-linecap="round" stroke-linejoin="miter" stroke-width="1"/>
</g>
</svg>
