<?xml version="1.0" encoding="UTF-8" standalone="no"?>
<!-- Created with Inkscape (http://www.inkscape.org/) -->

<svg width="396" height="320" viewBox="0 0 396 320" version="1.1" id="svg1" xmlns:xlink="http://www.w3.org/1999/xlink" xmlns="http://www.w3.org/2000/svg" xmlns:svg="http://www.w3.org/2000/svg">
  <defs id="defs1">
    <linearGradient id="linearGradient21">
      <stop style="stop-color:#d8bc00;stop-opacity:0.24736843;" offset="0" id="stop21" />
      <stop style="stop-color:#d8bc00;stop-opacity:0;" offset="1" id="stop22" />
    </linearGradient>
    <linearGradient id="linearGradient15">
      <stop style="stop-color:#ffd100;stop-opacity:1;" offset="0.47426128" id="stop16" />
      <stop style="stop-color:#c87f00;stop-opacity:0;" offset="0.98507041" id="stop17" />
    </linearGradient>
    <linearGradient id="linearGradient14">
      <stop style="stop-color:#ffffff;stop-opacity:1;" offset="0.5480544" id="stop14" />
      <stop style="stop-color:#a1b1ff;stop-opacity:0.94736844;" offset="1" id="stop15" />
    </linearGradient>
    <linearGradient id="linearGradient11">
      <stop style="stop-color:#000000;stop-opacity:1;" offset="0" id="stop12" />
      <stop style="stop-color:#000000;stop-opacity:0;" offset="1" id="stop13" />
    </linearGradient>
    <linearGradient xlink:href="#linearGradient11" id="linearGradient13" x1="257.09247" y1="185.76245" x2="254.24399" y2="167.77786" gradientUnits="userSpaceOnUse" gradientTransform="translate(-68,-52)" />
    <radialGradient xlink:href="#linearGradient14" id="radialGradient15" cx="256.07556" cy="169.01649" fx="256.07556" fy="169.01649" r="9.9984941" gradientTransform="matrix(1.0921165,0.03527724,-0.02041977,1.0499041,-88.613031,-69.756396)" gradientUnits="userSpaceOnUse" />
    <radialGradient xlink:href="#linearGradient15" id="radialGradient17" cx="256.27463" cy="144.23061" fx="256.27463" fy="144.23061" r="9.6531868" gradientTransform="matrix(2.050432,-0.05510563,0.04576673,1.7029375,-344.06989,-143.82979)" gradientUnits="userSpaceOnUse" />
    <radialGradient xlink:href="#linearGradient21" id="radialGradient22" cx="258.55545" cy="141.56972" fx="258.55545" fy="141.56972" r="51.711086" gradientUnits="userSpaceOnUse" gradientTransform="matrix(1.3836065,0,0,1.3081967,-168.37038,-101.73493)" />
    <filter style="color-interpolation-filters:sRGB" id="filter25" x="-0.01421109" y="-0.28177165" width="1.0284222" height="1.5635433">
      <feGaussianBlur stdDeviation="1.8278229" id="feGaussianBlur25" />
    </filter>
  </defs>
  <g id="layer1" style="display:inline;opacity:1">
    <path style="opacity:1;mix-blend-mode:normal;fill:#000000;fill-opacity:1;fill-rule:evenodd;stroke-width:1;filter:url(#filter25)" id="path25" d="m 350.20341,296.68179 a 154.34337,7.7842731 0 0 1 -153.25775,7.78408 154.34337,7.7842731 0 0 1 -155.41371,-7.67457 154.34337,7.7842731 0 0 1 151.07148,-7.89205 154.34337,7.7842731 0 0 1 157.5389,7.56356" />
    <path id="rect7" style="display:inline;fill-rule:evenodd" d="m 188.13341,114.59546 c 3.58452,0 6.47026,3.08249 6.47026,6.91141 v 5.18357 c 0,3.82892 -2.88574,6.91141 -6.47026,6.91141 -3.58453,0 -6.47026,-3.08249 -6.47026,-6.91141 v -5.18357 c 0,-3.82892 2.88573,-6.91141 6.47026,-6.91141 z" />
    <path id="path10" style="display:inline;opacity:0.762;mix-blend-mode:normal;fill:url(#radialGradient15);fill-rule:evenodd;stroke-width:0.999995" d="m 197.29102,103.95636 c 0,4.29159 -0.22221,13.54564 -1.35387,14.13655 -1.11382,0.5816 -3.1535,-6.24441 -7.53242,-7.28372 -5.1254,-1.21647 -7.54434,7.15672 -8.59165,7.0222 -1.45997,-0.18752 -1.6674,-10.14851 -1.69804,-14.54154 -0.0773,-11.08283 4.66344,-21.60931 10.15679,-21.84318 5.49335,-0.23386 8.86066,10.86277 9.01523,21.9423" />
    <path id="path1" style="display:inline;mix-blend-mode:normal;fill:#3c3c7b;fill-opacity:1;fill-rule:evenodd;stroke:none;stroke-width:8.2;stroke-dasharray:none;stroke-opacity:1" d="m 249.61914,233.66992 c -3.15198,0 -26.29972,-0.72387 -29.02053,0.18881 -9.48341,3.18117 4.29787,12.75073 4.29787,23.73697 0,3.35081 0.64671,6.54241 1.81055,9.46875 -75.80454,13.11357 -115.45237,65.05507 -114.24023,95.49805 1.38715,34.83841 56.55552,42.81538 155.16211,42.57031 98.60658,-0.24507 176.58203,-4.63275 176.58203,-39.47461 l -0.0703,-1.78515 c -12.09844,-46.06858 -68.69722,-93.27314 -130.58805,-96.54361 1.44868,-3.20868 2.25977,-5.97252 2.25977,-9.73374 0,-6.9601 1.48655,-15.68996 4.87183,-21.50644 3.26456,-5.60906 -24.01012,-2.41934 -31.18824,-2.41934 z" transform="translate(-81.201248,-106)" />
    <path d="M 0,0" id="path3" style="display:none" />
    <path id="path4" style="display:none;fill:#fffafa;fill-rule:evenodd;stroke-width:0.999995" d="m 249.70046,214.81255 c -8.2888,0.52819 -24.55074,1.52521 -28.85721,2.32407 -62.68484,11.89365 -95.4707,59.00311 -94.46835,86.61404 1.14708,31.59746 46.7673,38.83233 128.30776,38.61006 81.54048,-0.22227 146.02049,-4.20178 146.02049,-35.80235 l -0.0582,-1.61908 c -10.00454,-41.7829 -53.38045,-84.5961 -104.55964,-87.56234 -4.7996,-0.554 -15.63031,-1.93935 -22.31512,-2.67406 -7.63676,-0.0326 -14.91121,-0.47394 -24.06973,0.10966 z" />
    <path style="display:inline;opacity:0.318033;fill:#757575;fill-opacity:1;fill-rule:evenodd;stroke-width:2;paint-order:stroke fill markers" d="m 184.57258,162.57171 c -1.23303,20.80414 13.00907,44.31238 -7.24685,75.24723 -8.69494,13.27891 -64.59858,27.11438 -57.42056,41.47041 3.4806,6.9612 17.9694,5.48923 24.72274,7.17757 2.35243,0.58811 18.83145,0.0106 20.7352,0 43.01413,-0.23899 72.28814,-0.6408 112.06075,-4.8493 3.29516,-0.34867 -1.96672,-6.77237 -4.3972,-5.5183 -5.57884,2.87855 -139.81129,11.60503 -134.77881,-2.39252 2.77314,-7.71332 38.44521,-14.56691 47.85046,-31.10281 13.28258,-23.35286 3.1646,-81.87358 3.21259,-80.53401" id="path6" />
    <path id="rect8" style="display:none;fill:#ffea00;fill-opacity:1;fill-rule:evenodd;stroke-width:1" d="m 261.21915,214.50137 c 0.83605,-0.007 3.00087,0.0332 3.66014,0.17913 1.14219,0.25274 -1.03466,2.86086 -1.44535,9.47456 -0.40099,6.45761 0.22177,14.58572 0.0897,18.22174 0,0 -2.02417,0.64626 -5.56603,0.0948 l -5.57961,0.0847 -1.07693,-19.65765 c -0.19327,-3.52787 -3.67174,-7.9255 -2.36191,-8.00521 1.67312,-0.10181 1.3752,-0.3034 4.58785,-0.32952 z" />
    <path style="display:inline;opacity:0.281967;fill:#2c87bf;fill-rule:evenodd;stroke-width:2;paint-order:stroke fill markers" d="m 153.41251,318.43662 c 5.4198,-1.72689 10.35889,-2.95136 14.96737,-3.77566 54.1189,-9.68003 143.66455,-4.41802 198.78999,-2.62105 9.79276,0.31922 19.0756,1.64303 27.5604,4.54207" id="path5" transform="translate(-81.263309,-105.26331)" />
    <path id="path7" style="display:inline;opacity:0.186885;fill:#2c87bf;fill-rule:evenodd;stroke-width:0.999996" d="m 336.61697,266.94147 c -7.94208,18.72985 -65.5568,23.03506 -139.69617,23.23858 -74.61884,0.20484 -118.96597,-3.50865 -133.22819,-22.8536 -10.02227,-13.59396 -4.88234,-37.22192 10.55145,-54.56512 25.10884,1.84235 231.31447,-1.75976 240.72079,-0.78883 14.77021,1.5246 30.61746,34.5457 21.92777,54.79" />
    <path style="display:inline;opacity:0.426;fill:url(#radialGradient22);fill-rule:evenodd;stroke-width:1" id="path21" d="M 260.91642,83.46611 A 71.547798,67.64827 0 0 1 189.87187,151.11271 71.547798,67.64827 0 0 1 117.8279,84.417728 71.547798,67.64827 0 0 1 187.85897,15.832901 71.547798,67.64827 0 0 1 260.8881,81.563063" />
    <path id="path8" style="display:inline;fill:#ffc800;fill-opacity:1;fill-rule:evenodd;stroke:url(#linearGradient13);stroke-width:0.999996" d="m 187.92351,122.16953 c 8.03545,-0.40081 9.76461,-0.86316 7.33724,2.12986 -0.95251,1.17448 -0.083,1.45468 0,2.12087 0.19508,1.56497 -3.49905,1.21716 -7.48308,1.21716 -3.98402,0 -6.89969,0.34945 -6.89969,-1.21716 v -2.12087 c 0,-0.64705 -2.48401,-1.50013 -1.64022,-1.69616 2.12117,-0.49279 5.26809,-0.26323 8.68575,-0.4337 z" />
    <path id="path15" style="display:inline;opacity:0.438;mix-blend-mode:normal;fill:url(#radialGradient17);fill-rule:evenodd;stroke-width:0.999999" d="m 197.50632,98.65672 c -0.3915,26.99955 -1.37565,11.33911 -9.73278,9.57638 -5.02248,-1.05937 -9.51302,20.05091 -9.57354,-8.06273 -0.0186,-8.62803 4.80002,-18.06216 9.77386,-18.64898 5.09757,-0.60142 9.02086,9.41977 9.16518,18.83469" />
  </g>
  <g id="layer2" style="display:inline">
    <path style="display:inline;opacity:0.281967;fill:#000000;fill-opacity:0.996441;fill-rule:evenodd;stroke:none;stroke-width:1.2;stroke-dasharray:none;stroke-opacity:1;paint-order:stroke fill markers" id="path19" d="m 162.14806,147.87933 c 0.39972,-0.0214 0.79186,-0.11151 1.19011,-0.14455 0.43035,-0.0357 0.86248,-0.0454 1.29368,-0.0687 2.22375,-0.12045 4.44821,-0.18106 6.67381,-0.26153 0.93232,-0.0257 1.8645,-0.057 2.79696,-0.0769 0.9942,-0.0213 1.98857,-0.0346 2.98292,-0.0467 1.06466,-0.013 4.25882,-0.0263 3.19408,-0.0285 -27.2433,-0.0576 -12.02122,0.002 -6.09283,0.0503 6.74223,0.0943 13.48448,0.22591 20.21804,0.59153 3.25404,0.19045 6.50376,0.44455 9.75745,0.64018 1.38292,0.10048 2.76946,0.0672 4.15284,0.14791 0.63106,0.0352 1.25821,0.11815 1.88903,0.15424 0.43231,-0.0885 0.86984,-0.0244 1.29824,0.0526 0.0339,-0.005 0.13768,0.0553 0.14561,0.006 -0.003,-0.0189 -0.006,-0.0377 -0.009,-0.0566 0,0 21.79485,-2.97891 21.79485,-2.97891 v 0 c -0.004,-0.0191 -0.008,-0.0382 -0.0127,-0.0573 -0.0677,-0.0812 -0.24883,-0.022 -0.33432,-0.0576 -0.51167,-0.0469 -1.03476,-0.0741 -1.52205,-0.2496 -0.78039,0.0181 -1.56093,0.0128 -2.341,-0.0194 -0.70055,-0.029 -1.4037,-0.0931 -2.10412,-0.11009 -0.9303,-0.0226 -1.86319,0.0465 -2.79362,0.0248 -4.13946,0.0118 -8.27861,-0.063 -12.41597,-0.19414 -3.38681,-0.10439 -6.77414,-0.23874 -10.16154,-0.31975 -3.67899,-0.088 -7.35981,-0.0792 -11.03884,-0.16572 -12.43581,-0.27594 -24.87705,-0.21497 -37.31464,-0.10431 -4.18496,0.0346 -8.36971,0.0215 -12.55444,0.0431 z" />
    <path style="display:inline;opacity:0.281967;fill:#e5e25c;fill-opacity:0.430605;fill-rule:evenodd;stroke:none;stroke-width:1.2;stroke-dasharray:none;stroke-opacity:1;paint-order:stroke fill markers" id="path20" d="m 77.95122,187.39532 c -27.32207,17.98113 137.31211,-10.71935 229.33668,5.5758 19.51926,3.45635 -15.44958,-16.98973 -39.49743,-23.923 -36.17972,-13.32771 -91.41046,-6.7841 -115.4074,-7.65677 -26.7122,1.73013 -58.30662,15.39168 -74.43185,26.00397 z" />
  </g>
  <g id="layer3">
    <path d="m 150.08857,373.89016 c 0.76902,-0.61732 1.33755,0.0884 0.54635,1.59062 -0.92235,1.54188 -1.85704,3.11083 -2.76605,4.66265 -0.55278,1.31667 -1.37459,2.43182 0.59588,3.69064 0.74483,0.51958 1.49081,1.03435 2.23759,1.5444 0.27171,0.29956 0.54431,0.59841 0.8178,0.89663 0.71417,0.50157 -0.96346,5.43611 -1.9039,4.95902 -1.01003,-0.58574 -2.02133,-1.17902 -3.03281,-1.77983 -0.8018,-0.0165 -2.4592,-1.36775 -3.01494,-0.35948 -0.31202,0.87493 -0.61244,1.7543 -0.89843,2.63727 -0.62843,0.99479 -2.13138,3.3444 -1.4007,3.67151 0.83997,0.51466 1.67962,1.02453 2.51838,1.52972 0.53561,0.5211 2.7955,1.31716 2.46471,2.13932 -0.79828,4.77233 0.10198,5.45679 -0.79275,4.86958 -3.73773,-1.48633 -6.06788,-3.32045 -6.29777,-2.05781 -0.42072,1.60187 -0.7666,3.22779 -1.01765,4.87751 -0.33749,0.76804 -0.6381,1.0859 -1.10823,1.66237 0.14117,-0.0625 -3.15832,1.40035 -3.01715,1.33785 -0.84807,0.55054 -1.60636,-0.34076 -1.7261,-1.88303 0.35831,-2.44442 0.94354,-4.83243 1.68905,-7.16507 0.39562,-0.97659 -0.29385,-2.47093 -1.13333,-3.83008 -0.56806,-0.46997 -1.13409,-0.9422 -1.69806,-1.41685 -0.22585,-0.19548 -0.45131,-0.39134 -0.67639,-0.58759 -0.46008,-0.45635 -0.22155,-1.9295 0.31402,-3.22504 0.53392,-1.29154 1.34868,-2.38773 1.87511,-2.12523 0.62556,0.49698 1.25265,0.99039 1.88115,1.4804 0.52058,0.63019 1.57012,1.71278 2.41882,1.09493 0.46575,-1.1205 0.95712,-2.23459 1.46734,-3.34052 1.29093,-2.57535 1.63649,-2.52526 -0.20578,-4.16873 -0.42294,-0.30206 -0.84562,-0.60585 -1.26798,-0.9114 -0.47587,-0.45787 -1.00317,-1.34842 -1.57569,-1.84032 -0.71923,-0.94331 0.84773,-5.20588 2.3653,-4.01023 1.07896,0.63701 2.15736,1.26257 3.23394,1.87683 0.56219,0.39665 1.38537,1.10125 1.89284,0.32952 0.20356,-0.52107 0.40947,-1.04165 0.61711,-1.56126 0.29567,-0.66284 1.1923,-1.9816 1.92354,-2.20128 1.57804,-0.78911 3.13581,-1.58445 4.67478,-2.38702 z m 45.16078,21.04964 c -0.50954,-2.74595 -1.04558,-5.01452 -1.65601,-6.96478 -2.75913,-8.81011 -7.00153,-10.63171 -13.35221,-12.59362 7.11577,-2.32353 10.12308,-8.83629 11.53776,-12.88172 0.10633,-0.37357 -0.13578,-0.70516 -0.56525,-0.74913 -7.80649,-0.79935 -15.68154,-2.09228 -23.4289,-3.7989 -0.42631,-0.0939 -0.71615,0.16137 -0.75855,0.55236 -1.24198,10.22816 -3.16448,23.08612 -3.45659,33.29859 -0.006,0.3906 0.27433,0.67232 0.74277,0.7487 9.90076,1.61434 19.70683,2.70894 29.17063,3.08218 0.37915,0.0159 0.75835,0.0307 1.13762,0.0444 0.44813,0.0162 0.71684,-0.28014 0.62873,-0.73809 z m -21.73277,-21.62025 c -0.005,-0.61644 -0.009,-1.23408 -0.0127,-1.8518 0.23038,-2.53144 0.50866,-5.49495 0.73904,-8.02639 0.0492,-0.53918 0.55663,-1.30888 1.15708,-1.20201 2.4598,0.4639 4.92483,0.8845 7.38884,1.25908 0.68802,0.0974 1.00681,0.52595 0.87795,1.12484 -0.56379,3.13215 -1.16033,7.82954 -5.78424,10.05486 -1.45559,-0.43639 -2.91152,-0.88954 -4.36595,-1.35858 z m 12.59607,18.75832 c -0.008,0.60712 -0.45924,0.80116 -1.08983,0.74879 -4.22526,-0.37627 -8.50099,-0.88111 -12.80348,-1.49702 0.095,-5.35227 0.49378,-10.803 0.94725,-16.06711 14.03172,6.71948 13.18831,12.12443 12.94606,16.81536 0,0 0,-2e-5 0,-2e-5 z m 45.11276,0.28433 c -0.8248,-0.14127 -1.09371,-0.31517 -1.44267,-1.33619 -1.80721,-5.15657 -3.66116,-8.31649 -5.77628,-10.26475 -2.16686,-1.99592 -4.70163,-2.84967 -8.19746,-3.5327 -0.53659,-0.0865 -1.07284,-0.17583 -1.60872,-0.26792 0.76028,-2.4787 2.41315,-6.56975 4.3951,-9.26531 2.01128,-2.73547 4.33533,-4.0308 6.73798,-1.03335 0.48736,0.63924 0.89091,1.99135 1.40178,2.13408 0.49895,0.13941 1.1438,-0.89986 2.01233,-5.14756 0.0822,-0.44196 0.41797,-1.79888 -0.10957,-1.89343 -1.04935,-0.18804 -2.5376,0.0955 -2.62268,0.17547 -6.82206,1.55768 -12.39064,8.24591 -15.03133,14.6598 -0.20849,-0.0174 -0.41693,-0.0352 -0.62535,-0.0535 0.0745,-4.12014 0.14535,-7.92128 0.21253,-12.19227 0.11332,-1.12095 3.19015,-1.63282 -1.80266,-1.64414 -1.86915,-0.004 -3.73641,-0.0384 -5.60387,-0.1035 -0.44719,0.28755 -0.99309,0.798 -0.37916,0.82016 0.34497,0.16366 0.59542,0.54965 0.76047,0.85563 -0.30075,8.77882 -0.77172,20.01477 -0.88412,28.72799 0.0734,1.34706 0.0719,1.7974 -0.38502,2.33124 -0.18321,0.3786 -0.27409,0.4566 0.26863,0.45052 2.6833,-0.0301 5.36526,-0.12315 8.05158,-0.28108 0.72574,-0.0427 0.54197,-0.0338 -0.17052,-0.81365 -0.26651,-0.35801 -0.52716,-1.24161 -0.50431,-2.64626 0.0982,-4.19774 0.22813,-8.40359 0.35995,-12.48466 5.79086,0.53051 8.44476,2.79144 9.87925,5.67836 1.42173,2.86123 1.57497,6.29409 2.34641,8.62482 0.0852,0.28359 0.3558,0.39649 0.81244,0.3349 1.92882,-0.26016 5.01952,-0.71902 7.80318,-1.37877 0.65103,-0.19078 0.6477,-0.33629 0.1021,-0.45393 0,0 -1e-5,-4e-5 -1e-5,-4e-5 z m -12.50969,-45.55425 c 0.59583,0.055 1.1035,-0.39391 1.09992,-1.07453 -0.005,-0.9079 -0.0106,-1.82759 -0.0176,-2.75881 -0.007,-0.87444 0.57829,-1.35281 1.3355,-1.22698 0.92666,0.1736 1.85372,0.34082 2.78102,0.50196 0.42098,0.0545 0.67632,0.20994 0.68568,0.73559 0.0444,0.6007 0.38445,5.2384 0.42881,5.8391 0.008,0.57949 -0.49552,1.27364 -1.0948,1.23567 -5.36325,0.12043 -10.71349,0.0361 -16.08824,-0.31094 -0.59754,-0.09 -1.12255,0.39143 -1.22118,0.95886 -0.11338,1.21874 -0.22798,2.42032 -0.34402,3.60913 -0.0158,0.6343 -0.63104,1.01517 -1.31884,0.83615 -0.86018,-0.18414 -1.71937,-0.37535 -2.57755,-0.57377 -0.43185,-0.02 -0.76105,-0.51306 -0.74804,-0.91165 0.0708,-2.16916 0.13778,-4.32495 0.20583,-6.58918 0.02,-0.66508 0.63031,-1.1394 1.2225,-1.03057 5.218,0.50043 10.42586,0.73604 15.65102,0.75997 z m 42.57469,35.80022 c -4.57585,5.21482 -8.2524,5.74957 -11.06408,3.72779 -2.76192,-1.98601 -4.7592,-6.44204 -5.80676,-10.82904 3.98831,-1.2306 8.91928,-2.5774 10.20152,-0.64001 0.22567,0.45203 1.17886,0.38957 1.91649,-0.0616 -0.34975,0.31871 4.53008,-4.12495 4.18032,-3.80624 0.43768,-0.42619 0.39464,-0.78289 -0.002,-0.86331 -7.21319,-2.10001 -11.03539,-0.49959 -16.63701,3.85146 -0.84704,-4.83139 -0.63541,-9.73388 0.96431,-11.33427 3.04703,-1.9186 5.87665,-1.22534 8.50085,-0.23654 2.64614,0.99707 4.97493,2.23797 6.94062,1.84651 1.6545,-1.56758 3.29277,-3.12924 4.90491,-4.6765 -1.69392,0.7962 -4.91405,0.21061 -8.10281,-0.62417 -3.151,-0.82489 -6.31209,-1.90537 -7.97019,-1.51195 -4.5105,2.34041 -8.84345,8.9625 -10.73905,15.65156 -1.88641,6.65662 -1.50877,14.2254 3.89205,18.28793 5.54306,3.33382 8.74909,3.84078 11.1452,2.84436 2.3771,-0.98851 3.889,-3.4439 5.748,-5.96123 2.83566,-3.83038 7.57005,-9.6699 6.40812,-10.14113 -0.98548,0.39205 -2.00649,1.52594 -4.48045,4.47639 0,0 2e-5,-2e-5 2e-5,-2e-5 z" id="text25" style="font-size:81.3236px;font-family:Evangeliecs;-inkscape-font-specification:'Evangeliecs, Normal';opacity:0.99361;fill:#fffafa;fill-opacity:0.996441;fill-rule:evenodd;stroke-width:1.2;paint-order:stroke fill markers" transform="matrix(1.282588,0,0,0.7796736,-66.417366,-50.912226)" aria-label="„вк^†" />
  </g>
</svg>
