<?xml version="1.0" encoding="UTF-8" standalone="no"?>
<!-- Created with Pixodesk SVG (https://pixodesk.com) -->
<svg xmlns="http://www.w3.org/2000/svg" viewBox="0 0 396 320" text-rendering="geometricPrecision" shape-rendering="geometricPrecision">
  <defs>
    <radialGradient id="15290" spreadMethod="pad" cx="256.27463" cy="144.23061" fx="256.27463" fy="144.23061" r="9.6531868" gradientTransform="translate(-344.0699, -143.8298)rotate(-1.539461053558576)scale(2.0512, 1.7036)" gradientUnits="userSpaceOnUse">
      <stop offset="47.426128%" stop-color="rgb(255,200,0)"/>
      <stop offset="98.507041%" stop-color="rgb(255,255,255)"/>
    </radialGradient>
    <radialGradient id="14720" spreadMethod="pad" cx="256.07556" cy="169.01649" fx="256.07556" fy="169.01649" r="9.9984941" gradientTransform="translate(-88.613, -69.7564)rotate(1.8501088645108215)scale(1.0927, 1.05)" gradientUnits="userSpaceOnUse">
      <stop offset="54.805440000000004%" stop-color="rgb(255,255,255)"/>
      <stop offset="100%" stop-color="rgb(161,177,255)"/>
    </radialGradient>
    <radialGradient id="15176" spreadMethod="pad" cx="306.42792176443515" cy="144.96488812561796" fx="306.42792176443515" fy="144.96488812561796" r="95.49847185347176" gradientTransform="translate(-168.3704, -101.7349)scale(1.3836, 1.3082)" gradientUnits="userSpaceOnUse">
      <stop offset="42.1%" stop-color="rgb(255,255,255)"/>
      <stop offset="100%" stop-color="rgba(239,218,80,0.1478)"/>
    </radialGradient>
    <symbol id="_px_svg_2peeup63" viewBox="0 0 30.153276443481445 109.61930847167966"/>
    <symbol id="_px_svg_2peeup64" viewBox="0 0 30.153276443481445 109.61930847167966">
      <use href="#_px_svg_2peeup63" width="30.1533" height="109.6193"/>
    </symbol>
    <symbol id="_px_svg_2peeup62" viewBox="0 0 30.153276443481445 109.61930847167966">
      <use href="#_px_svg_2peeup64" width="30.1533" height="109.6193"/>
    </symbol>
    <filter id="filter25" x="-0.0142" y="-0.2818" width="1.0284" height="1.5635">
      <feGaussianBlur id="feGaussianBlur25" stdDeviation="1.8278"/>
    </filter>
  </defs>
  <use transform="translate(260.7713, 163.9257)" href="#_px_svg_2peeup62" width="30.1533" height="109.6193"/>
  <g id="layer1">
    <path id="path25" fill="#000000" fill-rule="evenodd" filter="url(#filter25)" d="M350.2034,296.6818C350.2034,300.9596,281.7614,304.4358,196.9457,304.4659C112.13,304.496,42.7252,301.0686,41.532,296.7913C40.3387,292.514,107.8044,288.9895,192.6034,288.8992C277.4024,288.809,347.7563,292.1867,350.1423,296.4628"/>
    <path id="path21" fill="url(#15176)" fill-rule="evenodd" opacity="0.426" transform="translate(-69.1902, -9.9651)" d="M394.7353,136.6605C394.7353,203.0682,333.3378,257.0328,257.252,257.4999C181.1661,257.967,118.905,204.7615,117.8347,138.3604C116.7643,71.9592,177.2859,17.2462,253.3567,15.845C329.4275,14.4438,392.54,66.8796,394.6805,133.261"/>
    <path id="rect7" fill-rule="evenodd" d="M188.1334,114.5955C191.7179,114.5955,194.6037,117.678,194.6037,121.5069L194.6037,126.6904C194.6037,130.5194,191.7179,133.6019,188.1334,133.6019C184.5489,133.6019,181.6632,130.5194,181.6632,126.6904L181.6632,121.5069C181.6632,117.678,184.5489,114.5955,188.1334,114.5955z"/>
    <path id="path10" fill="url(#14720)" fill-rule="evenodd" stroke-width="1" opacity="0.762" d="M197.291,103.9564C197.291,108.248,197.0688,117.502,195.9372,118.0929C194.8233,118.6745,192.7836,111.8485,188.4047,110.8092C183.2793,109.5927,180.8604,117.9659,179.8131,117.8314C178.3531,117.6439,178.1457,107.6829,178.115,103.2899C178.0377,92.207,182.7785,81.6805,188.2718,81.4467C193.7652,81.2128,197.1325,92.3094,197.2871,103.389"/>
    <path id="path1" fill="#3c3c7b" fill-rule="evenodd" stroke="none" transform="translate(-81.2012, -106)" d="M249.6191,233.6699C246.4672,233.6699,223.3194,232.946,220.5986,233.8587C211.1152,237.0399,224.8965,246.6095,224.8965,257.5957C224.8965,260.9465,225.5432,264.1381,226.707,267.0644C150.9025,280.178,111.2547,332.1195,112.4668,362.5625C113.8539,397.4009,169.0223,405.3779,267.6289,405.1328C366.2355,404.8877,444.2109,400.5001,444.2109,365.6582L444.1406,363.8731C432.0422,317.8045,375.4434,270.5999,313.5526,267.3294C315.0013,264.1208,315.8124,261.3569,315.8124,257.5957C315.8124,250.6356,317.2989,241.9057,320.6842,236.0893C323.9488,230.4802,296.6741,233.6699,289.496,233.6699L249.6191,233.6699z"/>
    <path id="path3" d="M0,0" style="display:none"/>
    <path id="path4" fill="#fffafa" fill-rule="evenodd" stroke-width="1" d="M249.7005,214.8125C241.4117,215.3407,225.1497,216.3378,220.8432,217.1366C158.1584,229.0303,125.3725,276.1397,126.3749,303.7507C127.522,335.3481,173.1422,342.583,254.6827,342.3607C336.2231,342.1384,400.7031,338.1589,400.7031,306.5584L400.6449,304.9393C390.6404,263.1564,347.2645,220.3432,296.0853,217.3769C291.2857,216.8229,280.455,215.4376,273.7702,214.7029C266.1334,214.6703,258.859,214.2289,249.7005,214.8125z" style="display:none"/>
    <path id="path6" fill="#757575" fill-rule="evenodd" stroke-width="2" opacity="0.318" d="M184.5726,162.5717C183.3395,183.3758,197.5816,206.8841,177.3257,237.8189C168.6308,251.0978,112.7271,264.9333,119.9052,279.2894C123.3858,286.2506,137.8746,284.7786,144.6279,286.4669C146.9803,287.055,163.4594,286.4775,165.3631,286.4669C208.3772,286.2279,237.6512,285.8261,277.4239,281.6176C280.719,281.2689,275.4571,274.8452,273.0267,276.0993C267.4478,278.9779,133.2154,287.7043,138.2478,273.7068C141.021,265.9935,176.6931,259.1399,186.0983,242.604C199.3809,219.2511,189.2629,160.7304,189.3109,162.07"/>
    <path id="rect8" fill="#ffea00" fill-rule="evenodd" d="M261.2192,214.5014C262.0552,214.4944,264.22,214.5346,264.8793,214.6805C266.0215,214.9332,263.8446,217.5414,263.4339,224.1551C263.033,230.6127,263.6557,238.7408,263.5236,242.3768C263.5236,242.3768,261.4995,243.0231,257.9576,242.4716L252.378,242.5563L251.3011,222.8987C251.1078,219.3708,247.6293,214.9732,248.9392,214.8934C250.6123,214.7916,250.3144,214.59,253.527,214.5639L261.2192,214.5014z" style="display:none"/>
    <path id="path5" fill="#2c87bf" fill-rule="evenodd" stroke-width="2" opacity="0.282" transform="translate(-81.2633, -105.2633)" d="M153.4125,318.4366C158.8323,316.7097,163.7714,315.4853,168.3799,314.661C222.4988,304.9809,312.0444,310.2429,367.1699,312.0399C376.9626,312.3591,386.2455,313.6829,394.7303,316.582"/>
    <path id="path7" fill="#2c87bf" fill-rule="evenodd" stroke-width="1" opacity="0.1869" d="M336.617,266.9415C328.6749,285.6713,271.0602,289.9765,196.9208,290.18C122.302,290.3849,77.9548,286.6714,63.6926,267.3265C53.6703,253.7325,58.8103,230.1045,74.2441,212.7613C99.3529,214.6037,305.5585,211.0016,314.9648,211.9725C329.7351,213.4971,345.5823,246.5182,336.8926,266.7625"/>
    <path id="path8" fill="#ffc800" fill-rule="evenodd" stroke="none" d="M187.9235,122.1695C195.959,121.7687,197.6881,121.3064,195.2608,124.2994C194.3082,125.4739,195.1778,125.7541,195.2608,126.4203C195.4558,127.9852,191.7617,127.6374,187.7777,127.6374C183.7937,127.6374,180.878,127.9869,180.878,126.4203L180.878,124.2994C180.878,123.6523,178.394,122.7993,179.2378,122.6032C181.3589,122.1104,184.5058,122.34,187.9235,122.1695z"/>
    <path id="path15" fill="url(#15290)" fill-rule="evenodd" stroke-width="1" opacity="0.438" transform="translate(-0.0557, -1.1283)" d="M197.5063,95.8654C197.1148,118.4734,196.1307,105.3602,187.7735,103.8842C182.7511,102.9971,178.3721,120.893,178.3116,97.3521C178.3021,93.6696,179.5204,89.7547,181.376,86.7361C183.1608,83.8325,185.5353,81.7581,187.9739,81.5172C193.0714,81.0136,196.9947,89.4048,197.139,97.2884"/>
  </g>
  <g id="layer2">
    <path id="path19" fill="#000000" fill-opacity="0.9964" fill-rule="evenodd" stroke="none" opacity="0.282" d="M162.1481,147.8793C162.5478,147.8579,162.9399,147.7678,163.3382,147.7348C163.7685,147.6991,164.2006,147.6894,164.6318,147.6661C166.8556,147.5456,169.0801,147.485,171.3057,147.4046C172.238,147.3788,173.1702,147.3476,174.1026,147.3277C175.0968,147.3064,176.0912,147.293,177.0855,147.281C178.1502,147.268,181.3444,147.2547,180.2796,147.2525C153.0363,147.1949,168.2584,147.2545,174.1868,147.3028C180.929,147.3971,187.6713,147.5287,194.4048,147.8943C197.6589,148.0847,200.9086,148.3388,204.1623,148.5345C205.5452,148.6349,206.9317,148.6017,208.3151,148.6824C208.9462,148.7176,209.5733,148.8005,210.2042,148.8366C210.6365,148.7481,211.074,148.8122,211.5024,148.8892C211.5363,148.8842,211.6401,148.9445,211.648,148.8952C211.645,148.8763,211.642,148.8575,211.639,148.8386L233.4339,145.8597L233.4339,145.8597C233.4299,145.8406,233.4259,145.8215,233.4212,145.8024C233.3535,145.7212,233.1723,145.7804,233.0868,145.7448C232.5752,145.6979,232.0521,145.6707,231.5648,145.4952C230.7844,145.5133,230.0039,145.508,229.2238,145.4758C228.5232,145.4468,227.8201,145.3827,227.1197,145.3657C226.1894,145.3431,225.2565,145.4122,224.326,145.3905C220.1866,145.4023,216.0474,145.3275,211.9101,145.1964C208.5233,145.092,205.1359,144.9576,201.7485,144.8766C198.0695,144.7886,194.3887,144.7974,190.7097,144.7109C178.2739,144.435,165.8326,144.4959,153.3951,144.6066C149.2101,144.6412,145.0253,144.6281,140.8406,144.6497L162.1481,147.8793z"/>
    <path id="path20" fill="#e5e25c" fill-opacity="0.4306" fill-rule="evenodd" stroke="none" opacity="0.282" d="M77.9512,187.3953C50.6292,205.3765,215.2633,176.676,307.2879,192.9711C326.8072,196.4275,291.8383,175.9814,267.7905,169.0481C231.6108,155.7204,176.38,162.264,152.3831,161.3913C125.6709,163.1215,94.0764,176.783,77.9512,187.3953z"/>
  </g>
  <g id="layer3">
    <path id="text25" fill="#fffafa" fill-opacity="0.9964" fill-rule="evenodd" stroke-width="1.2" opacity="0.9936" transform="translate(-66.4174, -50.9122)scale(1.2826, 0.7797)" d="M150.0886,373.8902C150.8576,373.2728,151.4261,373.9786,150.6349,375.4808C149.7126,377.0227,148.7779,378.5916,147.8689,380.1434C147.3161,381.4601,146.4943,382.5752,148.4647,383.8341C149.2096,384.3536,149.9556,384.8684,150.7023,385.3785C150.9741,385.678,151.2466,385.9769,151.5201,386.2751C152.2343,386.7767,150.5567,391.7112,149.6162,391.2341C148.6062,390.6484,147.5949,390.0551,146.5834,389.4543C145.7816,389.4378,144.1242,388.0865,143.5685,389.0948C143.2565,389.9697,142.9561,390.8491,142.6701,391.7321C142.0416,392.7269,140.5387,395.0765,141.2694,395.4036C142.1093,395.9182,142.949,396.4281,143.7877,396.9333C144.3234,397.4544,146.5832,398.2505,146.2525,399.0726C145.4542,403.845,146.3544,404.5294,145.4597,403.9422C141.722,402.4559,139.3918,400.6218,139.1619,401.8844C138.7412,403.4863,138.3953,405.1122,138.1443,406.7619C137.8068,407.5299,137.5062,407.8478,137.036,408.4243C137.1772,408.3618,133.8777,409.8246,134.0189,409.7621C133.1708,410.3127,132.4125,409.4214,132.2928,407.8791C132.6511,405.4347,133.2363,403.0467,133.9819,400.714C134.3775,399.7374,133.688,398.2431,132.8485,396.8839C132.2805,396.414,131.7144,395.9417,131.1505,395.4671C130.9246,395.2716,130.6992,395.0758,130.4741,394.8795C130.014,394.4232,130.2525,392.95,130.7881,391.6545C131.322,390.3629,132.1368,389.2667,132.6632,389.5292C133.2888,390.0262,133.9159,390.5196,134.5444,391.0096C135.0649,391.6398,136.1145,392.7224,136.9632,392.1046C137.4289,390.9841,137.9203,389.87,138.4305,388.764C139.7214,386.1887,140.067,386.2388,138.2247,384.5953C137.8018,384.2933,137.3791,383.9895,136.9568,383.6839C136.4809,383.226,135.9536,382.3355,135.3811,381.8436C134.6618,380.9003,136.2288,376.6377,137.7464,377.8334C138.8253,378.4704,139.9037,379.0959,140.9803,379.7102C141.5425,380.1068,142.3657,380.8114,142.8731,380.0397C143.0767,379.5186,143.2826,378.9981,143.4903,378.4785C143.7859,377.8156,144.6825,376.4969,145.4138,376.2772C146.9918,375.4881,148.5496,374.6927,150.0886,373.8902zM195.2493,394.9398C194.7398,392.1938,194.2038,389.9253,193.5933,387.975C190.8342,379.1649,186.5918,377.3433,180.2411,375.3814C187.3569,373.0579,190.3642,366.5451,191.7789,362.4997C191.8852,362.1261,191.6431,361.7945,191.2136,361.7506C183.4072,360.9512,175.5321,359.6583,167.7847,357.9517C167.3584,357.8578,167.0686,358.113,167.0262,358.504C165.7842,368.7322,163.8617,381.5901,163.5696,391.8026C163.5636,392.1932,163.8439,392.4749,164.3124,392.5513C174.2131,394.1656,184.0192,395.2602,193.483,395.6335C193.8621,395.6494,194.2413,395.6642,194.6206,395.6779C195.0687,395.6941,195.3375,395.3977,195.2493,394.9398L195.2493,394.9398zM173.5166,373.3195C173.5116,372.7031,173.5076,372.0855,173.5039,371.4677C173.7343,368.9363,174.0125,365.9728,174.2429,363.4414C174.2921,362.9022,174.7996,362.1325,175.4,362.2394C177.8598,362.7033,180.3248,363.1239,182.7888,363.4984C183.4769,363.5958,183.7956,364.0244,183.6668,364.6233C183.103,367.7554,182.5065,372.4528,177.8825,374.6781C176.427,374.2417,174.971,373.7886,173.5166,373.3195L173.5166,373.3195zM186.1127,392.0779C186.1046,392.685,185.6534,392.879,185.0228,392.8267C180.7976,392.4504,176.5218,391.9456,172.2193,391.3296C172.3143,385.9774,172.7131,380.5266,173.1666,375.2625C187.1983,381.982,186.3549,387.387,186.1126,392.0779L186.1127,392.0779zM231.2254,392.3622C230.4006,392.2209,230.1317,392.047,229.7827,391.026C227.9755,385.8694,226.1216,382.7095,224.0065,380.7613C221.8396,378.7653,219.3048,377.9116,215.809,377.2286C215.2724,377.1421,214.7362,377.0527,214.2003,376.9606C214.9606,374.4819,216.6134,370.3909,218.5954,367.6953C220.6067,364.9599,222.9307,363.6645,225.3334,366.662C225.8207,367.3012,226.2243,368.6533,226.7351,368.7961C227.2341,368.9355,227.8789,367.8962,228.7475,363.6485C228.8297,363.2065,229.1654,361.8496,228.6379,361.7551C227.5885,361.567,226.1003,361.8506,226.0152,361.9305C219.1932,363.4882,213.6246,370.1765,210.9839,376.5903C210.7754,376.5729,210.567,376.5551,210.3585,376.5368C210.433,372.4167,210.5039,368.6156,210.5711,364.3446C210.6844,363.2236,213.7612,362.7118,208.7684,362.7004C206.8993,362.6964,205.032,362.662,203.1645,362.5969C202.7173,362.8845,202.1714,363.3949,202.7854,363.4171C203.1303,363.5808,203.3808,363.9667,203.5458,364.2727C203.2451,373.0515,202.7741,384.2875,202.6617,393.0007C202.7351,394.3478,202.7336,394.7981,202.2767,395.332C202.0935,395.7106,202.0026,395.7886,202.5453,395.7825C205.2286,395.7524,207.9106,395.6593,210.5969,395.5014C211.3227,395.4587,211.1389,395.4676,210.4264,394.6877C210.1599,394.3297,209.8992,393.4461,209.9221,392.0415C210.0203,387.8437,210.1502,383.6379,210.282,379.5568C216.0729,380.0873,218.7268,382.3483,220.1613,385.2352C221.583,388.0964,221.7363,391.5293,222.5077,393.86C222.5929,394.1436,222.8635,394.2565,223.3201,394.1949C225.249,393.9347,228.3397,393.4759,231.1233,392.8161C231.7743,392.6254,231.771,392.4798,231.2254,392.3622L231.2254,392.3622L231.2254,392.3622zM218.7157,346.808C219.3116,346.863,219.8192,346.414,219.8156,345.7334C219.8106,344.8255,219.805,343.9058,219.798,342.9746C219.791,342.1002,220.3763,341.6218,221.1335,341.7476C222.0602,341.9212,222.9873,342.0885,223.9146,342.2496C224.3355,342.3041,224.5909,342.4595,224.6002,342.9852C224.6446,343.5859,224.9847,348.2236,225.0291,348.8243C225.0371,349.4038,224.5335,350.0979,223.9343,350.06C218.571,350.1804,213.2208,350.096,207.846,349.749C207.2485,349.659,206.7235,350.1404,206.6248,350.7079C206.5115,351.9266,206.3969,353.1282,206.2808,354.317C206.265,354.9513,205.6498,355.3322,204.962,355.1531C204.1018,354.969,203.2426,354.7778,202.3844,354.5794C201.9526,354.5594,201.6234,354.0663,201.6364,353.6677C201.7072,351.4986,201.7742,349.3428,201.8422,347.0785C201.8622,346.4135,202.4725,345.9391,203.0647,346.048C208.2827,346.5484,213.4906,346.784,218.7157,346.8079L218.7157,346.808z"/>
  </g>
  <g transform="translate(233.1964, 254.6581)rotate(-13)">
    <path fill="#fffafa" stroke="none" transform="translate(-2.9121, -0.958)rotate(0.8980629157694415)" d="M13.35,-4.25L13.35,-4.25C13.55,-4.75,13.8417,-5.325,14.225,-5.975C14.6083,-6.625,15.0333,-7.275,15.5,-7.925C15.9667,-8.575,16.425,-9.1917,16.875,-9.775C17.325,-10.3583,17.7167,-10.85,18.05,-11.25L18.05,-11.25C18.1833,-11.3833,18.325,-11.4667,18.475,-11.5C18.625,-11.5333,18.75,-11.55,18.85,-11.55L18.85,-11.55C19.4833,-11.4167,20.2,-11.2333,21,-11C21.8,-10.7667,22.6,-10.5,23.4,-10.2L23.4,-10.2C23.7667,-10.7,24.1667,-11.275,24.6,-11.925C25.0333,-12.575,25.3167,-13.0333,25.45,-13.3L25.45,-13.3C25.6833,-13.7667,25.8417,-14.1583,25.925,-14.475C26.0083,-14.7917,26.05,-15.1833,26.05,-15.65L26.05,-15.65C26.05,-16.45,25.8833,-17.1917,25.55,-17.875C25.2167,-18.5583,24.7667,-19.15,24.2,-19.65C23.6333,-20.15,22.975,-20.5333,22.225,-20.8C21.475,-21.0667,20.6667,-21.2,19.8,-21.2L19.8,-21.2C18.9333,-21.2,18.1167,-21.0167,17.35,-20.65C16.5833,-20.2833,15.9,-19.825,15.3,-19.275C14.7,-18.725,14.2167,-18.1083,13.85,-17.425C13.4833,-16.7417,13.2833,-16.0833,13.25,-15.45L13.25,-15.45C13.2167,-15.0833,13.2,-14.7167,13.2,-14.35L13.2,-14.35C13.1667,-14.05,13.15,-13.7333,13.15,-13.4C13.15,-13.0667,13.1333,-12.8167,13.1,-12.65L13.1,-12.65C12.7333,-12.5833,12.3083,-12.5333,11.825,-12.5C11.3417,-12.4667,10.8333,-12.45,10.3,-12.45L10.3,-12.45C9.3333,-12.45,8.4333,-12.5,7.6,-12.6L7.6,-12.6C7.5667,-12.7333,7.55,-12.9167,7.55,-13.15C7.55,-13.3833,7.55,-13.6167,7.55,-13.85L7.55,-13.85L7.55,-14.7C7.55,-14.8667,7.6,-15.1167,7.7,-15.45C7.8,-15.7833,7.925,-16.1333,8.075,-16.5C8.225,-16.8667,8.4,-17.2417,8.6,-17.625C8.8,-18.0083,9,-18.35,9.2,-18.65L9.2,-18.65C10.2333,-19.8167,11.6833,-20.7167,13.55,-21.35C15.4167,-21.9833,17.5,-22.3,19.8,-22.3L19.8,-22.3C21.0667,-22.3,22.2833,-22.2333,23.45,-22.1C24.6167,-21.9667,25.675,-21.775,26.625,-21.525C27.575,-21.275,28.4,-20.95,29.1,-20.55C29.8,-20.15,30.3,-19.7,30.6,-19.2L30.6,-19.2C30.8,-18.8667,31,-18.325,31.2,-17.575C31.4,-16.825,31.5,-16.05,31.5,-15.25L31.5,-15.25C31.5,-14.85,31.4917,-14.45,31.475,-14.05C31.4583,-13.65,31.4167,-13.3,31.35,-13L31.35,-13C31.2833,-12.5333,30.9917,-12.0583,30.475,-11.575C29.9583,-11.0917,29.45,-10.7167,28.95,-10.45L28.95,-10.45C28.45,-10.4167,27.8667,-10.3667,27.2,-10.3C26.5333,-10.2333,26.0167,-10.1667,25.65,-10.1L25.65,-10.1C25.5833,-9.9667,25.5167,-9.8583,25.45,-9.775C25.3833,-9.6917,25.3167,-9.5833,25.25,-9.45L25.25,-9.45C26.5167,-8.8833,27.6833,-8.2667,28.75,-7.6C29.8167,-6.9333,30.6333,-6.2333,31.2,-5.5L31.2,-5.5C31.7667,-4.4667,32.25,-3.2583,32.65,-1.875C33.05,-0.4917,33.25,0.9333,33.25,2.4L33.25,2.4C33.25,3.4667,33.1,4.5083,32.8,5.525C32.5,6.5417,32.0167,7.45,31.35,8.25L31.35,8.25C31.0167,8.65,30.5667,9.025,30,9.375C29.4333,9.725,28.8167,10.0333,28.15,10.3C27.4833,10.5667,26.8083,10.7833,26.125,10.95C25.4417,11.1167,24.8,11.2,24.2,11.2L24.2,11.2C23.7,11.2,23.2,11.1333,22.7,11C22.2,10.8667,21.6667,10.7,21.1,10.5L21.1,10.5C20.7,10.3333,20.175,10.1167,19.525,9.85C18.875,9.5833,18.2167,9.3,17.55,9L17.55,9C16.75,8.6333,16.025,8.4083,15.375,8.325C14.725,8.2417,13.9,8.2,12.9,8.2L12.9,8.2C11.8667,8.2,10.95,8.3917,10.15,8.775C9.35,9.1583,8.5667,9.6833,7.8,10.35L7.8,10.35C7.5333,10.5833,7.325,10.775,7.175,10.925C7.025,11.075,6.8667,11.15,6.7,11.15L6.7,11.15C6.5333,11.15,6.3583,10.9917,6.175,10.675C5.9917,10.3583,5.9,10.1167,5.9,9.95L5.9,9.95C5.9667,9.15,6.0333,8.5083,6.1,8.025C6.1667,7.5417,6.2667,7.1417,6.4,6.825C6.5333,6.5083,6.6917,6.2333,6.875,6C7.0583,5.7667,7.2833,5.4833,7.55,5.15L7.55,5.15C7.8833,4.75,8.3333,4.475,8.9,4.325C9.4667,4.175,10.0667,4.1,10.7,4.1L10.7,4.1C11.2,4.1,11.7,4.1333,12.2,4.2C12.7,4.2667,13.1667,4.3417,13.6,4.425C14.0333,4.5083,14.4167,4.6,14.75,4.7C15.0833,4.8,15.3333,4.8833,15.5,4.95L15.5,4.95C15.7333,5.1167,16.0583,5.35,16.475,5.65C16.8917,5.95,17.3083,6.2667,17.725,6.6C18.1417,6.9333,18.525,7.2667,18.875,7.6C19.225,7.9333,19.4833,8.2333,19.65,8.5L19.65,8.5C20.1167,8.7,20.575,8.8583,21.025,8.975C21.475,9.0917,22,9.15,22.6,9.15L22.6,9.15C23.0333,9.15,23.475,9.0667,23.925,8.9C24.375,8.7333,24.8,8.5167,25.2,8.25C25.6,7.9833,25.9667,7.7,26.3,7.4C26.6333,7.1,26.9167,6.8,27.15,6.5L27.15,6.5C27.85,5.3,28.2,3.8667,28.2,2.2L28.2,2.2C28.2,1.1667,28.0417,0.1917,27.725,-0.725C27.4083,-1.6417,27.1,-2.35,26.8,-2.85L26.8,-2.85C26.6,-2.9833,26.3083,-3.1833,25.925,-3.45C25.5417,-3.7167,25.1417,-3.9917,24.725,-4.275C24.3083,-4.5583,23.8917,-4.8167,23.475,-5.05C23.0583,-5.2833,22.7,-5.45,22.4,-5.55L22.4,-5.55C22.3,-5.5833,22.1917,-5.6167,22.075,-5.65C21.9583,-5.6833,21.85,-5.7,21.75,-5.7L21.75,-5.7C21.4167,-5.7,21.1167,-5.5667,20.85,-5.3L20.85,-5.3C20.55,-4.8333,20.1583,-4.2417,19.675,-3.525C19.1917,-2.8083,18.8167,-2.1833,18.55,-1.65L18.55,-1.65C18.1833,-1.65,17.7333,-1.7083,17.2,-1.825C16.6667,-1.9417,16.1417,-2.1167,15.625,-2.35C15.1083,-2.5833,14.6333,-2.8583,14.2,-3.175C13.7667,-3.4917,13.4833,-3.85,13.35,-4.25z"/>
  </g>
</svg>