<?xml version="1.0" encoding="UTF-8" standalone="no"?>
<!-- Created with Pixodesk SVG (https://pixodesk.com) -->
<svg xmlns="http://www.w3.org/2000/svg" viewBox="0 0 396 320" text-rendering="geometricPrecision" shape-rendering="geometricPrecision">
  <defs>
    <radialGradient id="15290" spreadMethod="pad" cx="256.27463" cy="144.23061" fx="256.27463" fy="144.23061" r="9.6531868" gradientTransform="translate(-344.0699, -143.8298)rotate(-1.539461053558576)scale(2.0512, 1.7036)" gradientUnits="userSpaceOnUse">
      <stop offset="47.426128%" stop-color="rgb(255,200,0)"/>
      <stop offset="98.507041%" stop-color="rgb(255,255,255)"/>
    </radialGradient>
    <radialGradient id="14720" spreadMethod="pad" cx="256.07556" cy="169.01649" fx="256.07556" fy="169.01649" r="9.9984941" gradientTransform="translate(-88.613, -69.7564)rotate(1.8501088645108215)scale(1.0927, 1.05)" gradientUnits="userSpaceOnUse">
      <stop offset="54.805440000000004%" stop-color="rgb(255,255,255)"/>
      <stop offset="100%" stop-color="rgb(161,177,255)"/>
    </radialGradient>
    <radialGradient id="15176" spreadMethod="pad" cx="306.42792176443515" cy="144.96488812561796" fx="306.42792176443515" fy="144.96488812561796" r="95.49847185347176" gradientTransform="translate(-168.3704, -101.7349)scale(1.3836, 1.3082)" gradientUnits="userSpaceOnUse">
      <stop offset="42.1%" stop-color="rgb(255,255,255)"/>
      <stop offset="100%" stop-color="rgba(239,218,80,0.1478)"/>
    </radialGradient>
    <symbol id="_px_svg_2pee7euu" viewBox="0 0 30.153276443481445 109.61930847167966"/>
    <symbol id="_px_svg_2pee7euv" viewBox="0 0 30.153276443481445 109.61930847167966">
      <use href="#_px_svg_2pee7euu" width="30.1533" height="109.6193"/>
    </symbol>
    <symbol id="_px_svg_2pee7eut" viewBox="0 0 30.153276443481445 109.61930847167966">
      <use href="#_px_svg_2pee7euv" width="30.1533" height="109.6193"/>
    </symbol>
    <filter id="filter25" x="-0.0142" y="-0.2818" width="1.0284" height="1.5635">
      <feGaussianBlur id="feGaussianBlur25" stdDeviation="1.8278"/>
    </filter>
  </defs>
  <use transform="translate(260.7713, 163.9257)" href="#_px_svg_2pee7eut" width="30.1533" height="109.6193"/>
  <g id="layer1">
    <path id="path25" fill="#000000" fill-rule="evenodd" filter="url(#filter25)" d="M350.2034,296.6818C350.2034,300.9596,281.7614,304.4358,196.9457,304.4659C112.13,304.496,42.7252,301.0686,41.532,296.7913C40.3387,292.514,107.8044,288.9895,192.6034,288.8992C277.4024,288.809,347.7563,292.1867,350.1423,296.4628"/>
    <path id="path21" fill="url(#15176)" fill-rule="evenodd" opacity="0.426" transform="translate(-69.1902, -9.9651)" d="M394.7353,136.6605C394.7353,203.0682,333.3378,257.0328,257.252,257.4999C181.1661,257.967,118.905,204.7615,117.8347,138.3604C116.7643,71.9592,177.2859,17.2462,253.3567,15.845C329.4275,14.4438,392.54,66.8796,394.6805,133.261"/>
    <path id="rect7" fill-rule="evenodd" d="M188.1334,114.5955C191.7179,114.5955,194.6037,117.678,194.6037,121.5069L194.6037,126.6904C194.6037,130.5194,191.7179,133.6019,188.1334,133.6019C184.5489,133.6019,181.6632,130.5194,181.6632,126.6904L181.6632,121.5069C181.6632,117.678,184.5489,114.5955,188.1334,114.5955z"/>
    <path id="path10" fill="url(#14720)" fill-rule="evenodd" stroke-width="1" opacity="0.762" d="M197.291,103.9564C197.291,108.248,197.0688,117.502,195.9372,118.0929C194.8233,118.6745,192.7836,111.8485,188.4047,110.8092C183.2793,109.5927,180.8604,117.9659,179.8131,117.8314C178.3531,117.6439,178.1457,107.6829,178.115,103.2899C178.0377,92.207,182.7785,81.6805,188.2718,81.4467C193.7652,81.2128,197.1325,92.3094,197.2871,103.389"/>
    <path id="path1" fill="#3c3c7b" fill-rule="evenodd" stroke="none" transform="translate(-81.2012, -106)" d="M249.6191,233.6699C246.4672,233.6699,223.3194,232.946,220.5986,233.8587C211.1152,237.0399,224.8965,246.6095,224.8965,257.5957C224.8965,260.9465,225.5432,264.1381,226.707,267.0644C150.9025,280.178,111.2547,332.1195,112.4668,362.5625C113.8539,397.4009,169.0223,405.3779,267.6289,405.1328C366.2355,404.8877,444.2109,400.5001,444.2109,365.6582L444.1406,363.8731C432.0422,317.8045,375.4434,270.5999,313.5526,267.3294C315.0013,264.1208,315.8124,261.3569,315.8124,257.5957C315.8124,250.6356,317.2989,241.9057,320.6842,236.0893C323.9488,230.4802,296.6741,233.6699,289.496,233.6699L249.6191,233.6699z"/>
    <path id="path3" d="M0,0" style="display:none"/>
    <path id="path4" fill="#fffafa" fill-rule="evenodd" stroke-width="1" d="M249.7005,214.8125C241.4117,215.3407,225.1497,216.3378,220.8432,217.1366C158.1584,229.0303,125.3725,276.1397,126.3749,303.7507C127.522,335.3481,173.1422,342.583,254.6827,342.3607C336.2231,342.1384,400.7031,338.1589,400.7031,306.5584L400.6449,304.9393C390.6404,263.1564,347.2645,220.3432,296.0853,217.3769C291.2857,216.8229,280.455,215.4376,273.7702,214.7029C266.1334,214.6703,258.859,214.2289,249.7005,214.8125z" style="display:none"/>
    <path id="path6" fill="#757575" fill-rule="evenodd" stroke-width="2" opacity="0.318" d="M184.5726,162.5717C183.3395,183.3758,197.5816,206.8841,177.3257,237.8189C168.6308,251.0978,112.7271,264.9333,119.9052,279.2894C123.3858,286.2506,137.8746,284.7786,144.6279,286.4669C146.9803,287.055,163.4594,286.4775,165.3631,286.4669C208.3772,286.2279,237.6512,285.8261,277.4239,281.6176C280.719,281.2689,275.4571,274.8452,273.0267,276.0993C267.4478,278.9779,133.2154,287.7043,138.2478,273.7068C141.021,265.9935,176.6931,259.1399,186.0983,242.604C199.3809,219.2511,189.2629,160.7304,189.3109,162.07"/>
    <path id="rect8" fill="#ffea00" fill-rule="evenodd" d="M261.2192,214.5014C262.0552,214.4944,264.22,214.5346,264.8793,214.6805C266.0215,214.9332,263.8446,217.5414,263.4339,224.1551C263.033,230.6127,263.6557,238.7408,263.5236,242.3768C263.5236,242.3768,261.4995,243.0231,257.9576,242.4716L252.378,242.5563L251.3011,222.8987C251.1078,219.3708,247.6293,214.9732,248.9392,214.8934C250.6123,214.7916,250.3144,214.59,253.527,214.5639L261.2192,214.5014z" style="display:none"/>
    <path id="path5" fill="#2c87bf" fill-rule="evenodd" stroke-width="2" opacity="0.282" transform="translate(-81.2633, -105.2633)" d="M153.4125,318.4366C158.8323,316.7097,163.7714,315.4853,168.3799,314.661C222.4988,304.9809,312.0444,310.2429,367.1699,312.0399C376.9626,312.3591,386.2455,313.6829,394.7303,316.582"/>
    <path id="path7" fill="#2c87bf" fill-rule="evenodd" stroke-width="1" opacity="0.1869" d="M336.617,266.9415C328.6749,285.6713,271.0602,289.9765,196.9208,290.18C122.302,290.3849,77.9548,286.6714,63.6926,267.3265C53.6703,253.7325,58.8103,230.1045,74.2441,212.7613C99.3529,214.6037,305.5585,211.0016,314.9648,211.9725C329.7351,213.4971,345.5823,246.5182,336.8926,266.7625"/>
    <path id="path8" fill="#ffc800" fill-rule="evenodd" stroke="none" d="M187.9235,122.1695C195.959,121.7687,197.6881,121.3064,195.2608,124.2994C194.3082,125.4739,195.1778,125.7541,195.2608,126.4203C195.4558,127.9852,191.7617,127.6374,187.7777,127.6374C183.7937,127.6374,180.878,127.9869,180.878,126.4203L180.878,124.2994C180.878,123.6523,178.394,122.7993,179.2378,122.6032C181.3589,122.1104,184.5058,122.34,187.9235,122.1695z"/>
    <path id="path15" fill="url(#15290)" fill-rule="evenodd" stroke-width="1" opacity="0.438" transform="translate(-0.0557, -1.1283)" d="M197.5063,95.8654C197.1148,118.4734,196.1307,105.3602,187.7735,103.8842C182.7511,102.9971,178.3721,120.893,178.3116,97.3521C178.3021,93.6696,179.5204,89.7547,181.376,86.7361C183.1608,83.8325,185.5353,81.7581,187.9739,81.5172C193.0714,81.0136,196.9947,89.4048,197.139,97.2884"/>
  </g>
  <g id="layer2">
    <path id="path19" fill="#000000" fill-opacity="0.9964" fill-rule="evenodd" stroke="none" opacity="0.282" d="M162.1481,147.8793C162.5478,147.8579,162.9399,147.7678,163.3382,147.7348C163.7685,147.6991,164.2006,147.6894,164.6318,147.6661C166.8556,147.5456,169.0801,147.485,171.3057,147.4046C172.238,147.3788,173.1702,147.3476,174.1026,147.3277C175.0968,147.3064,176.0912,147.293,177.0855,147.281C178.1502,147.268,181.3444,147.2547,180.2796,147.2525C153.0363,147.1949,168.2584,147.2545,174.1868,147.3028C180.929,147.3971,187.6713,147.5287,194.4048,147.8943C197.6589,148.0847,200.9086,148.3388,204.1623,148.5345C205.5452,148.6349,206.9317,148.6017,208.3151,148.6824C208.9462,148.7176,209.5733,148.8005,210.2042,148.8366C210.6365,148.7481,211.074,148.8122,211.5024,148.8892C211.5363,148.8842,211.6401,148.9445,211.648,148.8952C211.645,148.8763,211.642,148.8575,211.639,148.8386L233.4339,145.8597L233.4339,145.8597C233.4299,145.8406,233.4259,145.8215,233.4212,145.8024C233.3535,145.7212,233.1723,145.7804,233.0868,145.7448C232.5752,145.6979,232.0521,145.6707,231.5648,145.4952C230.7844,145.5133,230.0039,145.508,229.2238,145.4758C228.5232,145.4468,227.8201,145.3827,227.1197,145.3657C226.1894,145.3431,225.2565,145.4122,224.326,145.3905C220.1866,145.4023,216.0474,145.3275,211.9101,145.1964C208.5233,145.092,205.1359,144.9576,201.7485,144.8766C198.0695,144.7886,194.3887,144.7974,190.7097,144.7109C178.2739,144.435,165.8326,144.4959,153.3951,144.6066C149.2101,144.6412,145.0253,144.6281,140.8406,144.6497L162.1481,147.8793z"/>
    <path id="path20" fill="#e5e25c" fill-opacity="0.4306" fill-rule="evenodd" stroke="none" opacity="0.282" d="M77.9512,187.3953C50.6292,205.3765,215.2633,176.676,307.2879,192.9711C326.8072,196.4275,291.8383,175.9814,267.7905,169.0481C231.6108,155.7204,176.38,162.264,152.3831,161.3913C125.6709,163.1215,94.0764,176.783,77.9512,187.3953z"/>
  </g>
  <g id="layer3">
    <path id="text25" fill="#fffafa" fill-opacity="0.9964" fill-rule="evenodd" stroke-width="1.2" opacity="0.9936" transform="translate(-66.4174, -50.9122)scale(1.2826, 0.7797)" d="M150.0886,373.8902C150.8576,373.2728,151.4261,373.9786,150.6349,375.4808C149.7126,377.0227,148.7779,378.5916,147.8689,380.1434C147.3161,381.4601,146.4943,382.5752,148.4647,383.8341C149.2096,384.3536,149.9556,384.8684,150.7023,385.3785C150.9741,385.678,151.2466,385.9769,151.5201,386.2751C152.2343,386.7767,150.5567,391.7112,149.6162,391.2341C148.6062,390.6484,147.5949,390.0551,146.5834,389.4543C145.7816,389.4378,144.1242,388.0865,143.5685,389.0948C143.2565,389.9697,142.9561,390.8491,142.6701,391.7321C142.0416,392.7269,140.5387,395.0765,141.2694,395.4036C142.1093,395.9182,142.949,396.4281,143.7877,396.9333C144.3234,397.4544,146.5832,398.2505,146.2525,399.0726C145.4542,403.845,146.3544,404.5294,145.4597,403.9422C141.722,402.4559,139.3918,400.6218,139.1619,401.8844C138.7412,403.4863,138.3953,405.1122,138.1443,406.7619C137.8068,407.5299,137.5062,407.8478,137.036,408.4243C137.1772,408.3618,133.8777,409.8246,134.0189,409.7621C133.1708,410.3127,132.4125,409.4214,132.2928,407.8791C132.6511,405.4347,133.2363,403.0467,133.9819,400.714C134.3775,399.7374,133.688,398.2431,132.8485,396.8839C132.2805,396.414,131.7144,395.9417,131.1505,395.4671C130.9246,395.2716,130.6992,395.0758,130.4741,394.8795C130.014,394.4232,130.2525,392.95,130.7881,391.6545C131.322,390.3629,132.1368,389.2667,132.6632,389.5292C133.2888,390.0262,133.9159,390.5196,134.5444,391.0096C135.0649,391.6398,136.1145,392.7224,136.9632,392.1046C137.4289,390.9841,137.9203,389.87,138.4305,388.764C139.7214,386.1887,140.067,386.2388,138.2247,384.5953C137.8018,384.2933,137.3791,383.9895,136.9568,383.6839C136.4809,383.226,135.9536,382.3355,135.3811,381.8436C134.6618,380.9003,136.2288,376.6377,137.7464,377.8334C138.8253,378.4704,139.9037,379.0959,140.9803,379.7102C141.5425,380.1068,142.3657,380.8114,142.8731,380.0397C143.0767,379.5186,143.2826,378.9981,143.4903,378.4785C143.7859,377.8156,144.6825,376.4969,145.4138,376.2772C146.9918,375.4881,148.5496,374.6927,150.0886,373.8902zM195.2493,394.9398C194.7398,392.1938,194.2038,389.9253,193.5933,387.975C190.8342,379.1649,186.5918,377.3433,180.2411,375.3814C187.3569,373.0579,190.3642,366.5451,191.7789,362.4997C191.8852,362.1261,191.6431,361.7945,191.2136,361.7506C183.4072,360.9512,175.5321,359.6583,167.7847,357.9517C167.3584,357.8578,167.0686,358.113,167.0262,358.504C165.7842,368.7322,163.8617,381.5901,163.5696,391.8026C163.5636,392.1932,163.8439,392.4749,164.3124,392.5513C174.2131,394.1656,184.0192,395.2602,193.483,395.6335C193.8621,395.6494,194.2413,395.6642,194.6206,395.6779C195.0687,395.6941,195.3375,395.3977,195.2493,394.9398L195.2493,394.9398zM173.5166,373.3195C173.5116,372.7031,173.5076,372.0855,173.5039,371.4677C173.7343,368.9363,174.0125,365.9728,174.2429,363.4414C174.2921,362.9022,174.7996,362.1325,175.4,362.2394C177.8598,362.7033,180.3248,363.1239,182.7888,363.4984C183.4769,363.5958,183.7956,364.0244,183.6668,364.6233C183.103,367.7554,182.5065,372.4528,177.8825,374.6781C176.427,374.2417,174.971,373.7886,173.5166,373.3195L173.5166,373.3195zM186.1127,392.0779C186.1046,392.685,185.6534,392.879,185.0228,392.8267C180.7976,392.4504,176.5218,391.9456,172.2193,391.3296C172.3143,385.9774,172.7131,380.5266,173.1666,375.2625C187.1983,381.982,186.3549,387.387,186.1126,392.0779L186.1127,392.0779zM231.2254,392.3622C230.4006,392.2209,230.1317,392.047,229.7827,391.026C227.9755,385.8694,226.1216,382.7095,224.0065,380.7613C221.8396,378.7653,219.3048,377.9116,215.809,377.2286C215.2724,377.1421,214.7362,377.0527,214.2003,376.9606C214.9606,374.4819,216.6134,370.3909,218.5954,367.6953C220.6067,364.9599,222.9307,363.6645,225.3334,366.662C225.8207,367.3012,226.2243,368.6533,226.7351,368.7961C227.2341,368.9355,227.8789,367.8962,228.7475,363.6485C228.8297,363.2065,229.1654,361.8496,228.6379,361.7551C227.5885,361.567,226.1003,361.8506,226.0152,361.9305C219.1932,363.4882,213.6246,370.1765,210.9839,376.5903C210.7754,376.5729,210.567,376.5551,210.3585,376.5368C210.433,372.4167,210.5039,368.6156,210.5711,364.3446C210.6844,363.2236,213.7612,362.7118,208.7684,362.7004C206.8993,362.6964,205.032,362.662,203.1645,362.5969C202.7173,362.8845,202.1714,363.3949,202.7854,363.4171C203.1303,363.5808,203.3808,363.9667,203.5458,364.2727C203.2451,373.0515,202.7741,384.2875,202.6617,393.0007C202.7351,394.3478,202.7336,394.7981,202.2767,395.332C202.0935,395.7106,202.0026,395.7886,202.5453,395.7825C205.2286,395.7524,207.9106,395.6593,210.5969,395.5014C211.3227,395.4587,211.1389,395.4676,210.4264,394.6877C210.1599,394.3297,209.8992,393.4461,209.9221,392.0415C210.0203,387.8437,210.1502,383.6379,210.282,379.5568C216.0729,380.0873,218.7268,382.3483,220.1613,385.2352C221.583,388.0964,221.7363,391.5293,222.5077,393.86C222.5929,394.1436,222.8635,394.2565,223.3201,394.1949C225.249,393.9347,228.3397,393.4759,231.1233,392.8161C231.7743,392.6254,231.771,392.4798,231.2254,392.3622L231.2254,392.3622L231.2254,392.3622zM218.7157,346.808C219.3116,346.863,219.8192,346.414,219.8156,345.7334C219.8106,344.8255,219.805,343.9058,219.798,342.9746C219.791,342.1002,220.3763,341.6218,221.1335,341.7476C222.0602,341.9212,222.9873,342.0885,223.9146,342.2496C224.3355,342.3041,224.5909,342.4595,224.6002,342.9852C224.6446,343.5859,224.9847,348.2236,225.0291,348.8243C225.0371,349.4038,224.5335,350.0979,223.9343,350.06C218.571,350.1804,213.2208,350.096,207.846,349.749C207.2485,349.659,206.7235,350.1404,206.6248,350.7079C206.5115,351.9266,206.3969,353.1282,206.2808,354.317C206.265,354.9513,205.6498,355.3322,204.962,355.1531C204.1018,354.969,203.2426,354.7778,202.3844,354.5794C201.9526,354.5594,201.6234,354.0663,201.6364,353.6677C201.7072,351.4986,201.7742,349.3428,201.8422,347.0785C201.8622,346.4135,202.4725,345.9391,203.0647,346.048C208.2827,346.5484,213.4906,346.784,218.7157,346.8079L218.7157,346.808z"/>
  </g>
  <g transform="translate(236.6666, 259.2143)rotate(-8)">
    <path fill="#fffafa" stroke="none" transform="translate(-2.9522, -0.1391)rotate(3.4970293045043945)" d="M21.318,0.264L21.318,0.264C22.902,0.264,24.475,0.154,26.037,-0.066C27.599,-0.286,28.996,-0.726,30.228,-1.386C31.46,-2.046,32.461,-2.981,33.231,-4.191C34.001,-5.401,34.386,-6.996,34.386,-8.976L34.386,-8.976C34.386,-10.296,34.155,-11.528,33.693,-12.672C33.231,-13.816,32.582,-14.839,31.746,-15.741C30.91,-16.643,29.931,-17.413,28.809,-18.051C27.687,-18.689,26.466,-19.162,25.146,-19.47L25.146,-19.47C24.926,-19.514,24.761,-19.547,24.651,-19.569C24.541,-19.591,24.376,-19.558,24.156,-19.47L24.156,-19.47C23.276,-19.206,22.451,-18.887,21.681,-18.513C20.911,-18.139,20.163,-17.765,19.437,-17.391C18.711,-17.017,17.963,-16.687,17.193,-16.401C16.423,-16.115,15.576,-15.928,14.652,-15.84L14.652,-15.84C14.52,-15.84,14.421,-15.818,14.355,-15.774C14.289,-15.73,14.19,-15.752,14.058,-15.84L14.058,-15.84C11.726,-16.984,10.56,-18.7,10.56,-20.988L10.56,-20.988C10.56,-21.604,10.714,-22.242,11.022,-22.902C11.33,-23.562,11.737,-24.156,12.243,-24.684C12.749,-25.212,13.332,-25.641,13.992,-25.971C14.652,-26.301,15.334,-26.466,16.038,-26.466L16.038,-26.466C16.742,-26.466,17.347,-26.367,17.853,-26.169C18.359,-25.971,18.821,-25.696,19.239,-25.344C19.657,-24.992,20.075,-24.596,20.493,-24.156C20.911,-23.716,21.428,-23.254,22.044,-22.77L22.044,-22.77C22.132,-22.682,22.264,-22.638,22.44,-22.638L22.44,-22.638C22.616,-22.638,22.77,-22.682,22.902,-22.77L22.902,-22.77C23.87,-23.386,24.816,-24.101,25.74,-24.915C26.664,-25.729,27.522,-26.664,28.314,-27.72L28.314,-27.72C28.402,-27.852,28.391,-27.984,28.281,-28.116C28.171,-28.248,28.028,-28.38,27.852,-28.512C27.676,-28.644,27.489,-28.754,27.291,-28.842C27.093,-28.93,26.928,-29.018,26.796,-29.106L26.796,-29.106C26.488,-29.282,26.224,-29.37,26.004,-29.37L26.004,-29.37C25.784,-29.37,25.608,-29.348,25.476,-29.304L25.476,-29.304C24.728,-29.084,23.947,-28.831,23.133,-28.545C22.319,-28.259,21.516,-27.94,20.724,-27.588L20.724,-27.588C20.46,-27.5,20.152,-27.522,19.8,-27.654L19.8,-27.654C18.832,-28.138,17.853,-28.534,16.863,-28.842C15.873,-29.15,14.74,-29.304,13.464,-29.304L13.464,-29.304C12.144,-29.304,10.868,-29.073,9.636,-28.611C8.404,-28.149,7.315,-27.5,6.369,-26.664C5.423,-25.828,4.664,-24.849,4.092,-23.727C3.52,-22.605,3.234,-21.362,3.234,-19.998L3.234,-19.998C3.234,-18.018,3.85,-16.148,5.082,-14.388C6.314,-12.628,8.074,-11.44,10.362,-10.824L10.362,-10.824C10.67,-10.78,10.978,-10.78,11.286,-10.824L11.286,-10.824C13.266,-11.308,15.015,-11.913,16.533,-12.639C18.051,-13.365,19.536,-14.036,20.988,-14.652L20.988,-14.652C21.12,-14.74,21.219,-14.773,21.285,-14.751C21.351,-14.729,21.45,-14.696,21.582,-14.652L21.582,-14.652C22.286,-14.52,22.99,-14.311,23.694,-14.025C24.398,-13.739,25.025,-13.365,25.575,-12.903C26.125,-12.441,26.565,-11.891,26.895,-11.253C27.225,-10.615,27.39,-9.922,27.39,-9.174L27.39,-9.174C27.39,-8.294,27.225,-7.458,26.895,-6.666C26.565,-5.874,26.114,-5.17,25.542,-4.554C24.97,-3.938,24.299,-3.443,23.529,-3.069C22.759,-2.695,21.934,-2.486,21.054,-2.442L21.054,-2.442C20.438,-2.398,19.877,-2.453,19.371,-2.607C18.865,-2.761,18.381,-2.97,17.919,-3.234C17.457,-3.498,17.017,-3.795,16.599,-4.125C16.181,-4.455,15.73,-4.796,15.246,-5.148L15.246,-5.148C14.366,-5.764,13.629,-6.204,13.035,-6.468C12.441,-6.732,11.792,-6.908,11.088,-6.996L11.088,-6.996C11,-6.996,10.901,-7.007,10.791,-7.029C10.681,-7.051,10.582,-7.04,10.494,-6.996L10.494,-6.996C9.394,-6.688,8.349,-6.292,7.359,-5.808C6.369,-5.324,5.544,-4.84,4.884,-4.356L4.884,-4.356C4.708,-4.268,4.576,-4.136,4.488,-3.96L4.488,-3.96C4.18,-3.476,3.905,-3.025,3.663,-2.607C3.421,-2.189,3.146,-1.606,2.838,-0.858L2.838,-0.858C2.75,-0.594,2.893,-0.275,3.267,0.099C3.641,0.473,3.96,0.616,4.224,0.528L4.224,0.528C4.884,0.264,5.489,0.011,6.039,-0.231C6.589,-0.473,7.117,-0.682,7.623,-0.858C8.129,-1.034,8.657,-1.166,9.207,-1.254C9.757,-1.342,10.362,-1.386,11.022,-1.386L11.022,-1.386C12.078,-1.342,12.98,-1.232,13.728,-1.056C14.476,-0.88,15.213,-0.693,15.939,-0.495C16.665,-0.297,17.446,-0.121,18.282,0.033C19.118,0.187,20.13,0.264,21.318,0.264z"/>
  </g>
</svg>