<?xml version="1.0" encoding="UTF-8" standalone="no"?>
<!DOCTYPE svg PUBLIC "-//W3C//DTD SVG 1.1//EN" "http://www.w3.org/Graphics/SVG/1.1/DTD/svg11.dtd">
<!-- Created with Vectornator (http://vectornator.io/) -->
<svg height="100%" stroke-miterlimit="10" style="fill-rule:nonzero;clip-rule:evenodd;stroke-linecap:round;stroke-linejoin:round;" version="1.1" viewBox="0 0 450.594 199.789" width="100%" xml:space="preserve" xmlns="http://www.w3.org/2000/svg" xmlns:xlink="http://www.w3.org/1999/xlink">
<defs>
<clipPath id="TextBounds">
<rect height="90" width="392.357" x="49.2034" y="46.9821"/>
</clipPath>
<clipPath id="TextBounds_2">
<rect height="13" width="33.0293" x="485.353" y="212.654"/>
</clipPath>
</defs>
<clipPath id="ArtboardFrame">
<rect height="199.789" width="450.594" x="0" y="0"/>
</clipPath>
<g clip-path="url(#ArtboardFrame)" id="layer_Paper">
<path d="M-0.0527684 0.00313915L450.541 0.00313915L450.541 0.00313915L450.541 199.792L450.541 199.792L-0.0527684 199.792L-0.0527684 199.792L-0.0527684 0.00313915L-0.0527684 0.00313915Z" fill="#fffb00" fill-opacity="0.12123" fill-rule="nonzero" opacity="1" stroke="none"/>
<g fill="#ffdddd" opacity="1" stroke="none">
<path clip-path="url(#TextBounds)" d="M67.4398 120.724C68.083 120.724 68.72 120.693 69.3509 120.632C69.9818 120.57 70.4951 120.514 70.8909 120.465L70.8909 115.232C70.6188 115.257 70.3034 115.288 69.9446 115.325C69.5859 115.362 69.2086 115.381 68.8128 115.381C67.081 115.381 65.7698 115.016 64.8792 114.286C63.9886 113.556 63.5433 112.164 63.5433 110.111L63.5433 86.7321L70.8909 86.7321L70.8909 81.3884L63.5433 81.3884L63.5433 70.9606L56.8636 70.9606L56.8636 81.3884L51.223 81.3884L51.223 86.7321L56.8636 86.7321L56.8636 110.148C56.8636 113.834 57.7418 116.519 59.4984 118.201C61.2549 119.883 63.902 120.724 67.4398 120.724Z"/>
<path clip-path="url(#TextBounds)" d="M78.1644 119.982L84.6214 119.982L84.6214 97.4567C84.6214 95.2549 85.0358 93.3252 85.8646 91.6677C86.6933 90.0101 87.8561 88.7113 89.3528 87.7712C90.8496 86.8311 92.5875 86.361 94.5667 86.361C97.5849 86.361 99.9352 87.3382 101.617 89.2927C103.3 91.2471 104.141 93.9685 104.141 97.4567L104.141 119.982L110.598 119.982L110.598 96.3435C110.598 93.2263 110.017 90.4925 108.854 88.1423C107.691 85.792 106.077 83.9551 104.011 82.6315C101.945 81.308 99.5394 80.6462 96.7933 80.6462C93.9235 80.6462 91.4619 81.2523 89.4085 82.4645C87.3551 83.6768 85.8089 85.3714 84.7698 87.5485L84.6214 87.5485L84.6214 66.4333L78.1644 66.4333L78.1644 119.982Z"/>
<path clip-path="url(#TextBounds)" d="M119.244 119.982L125.701 119.982L125.701 81.3884L119.244 81.3884L119.244 119.982ZM122.473 74.8571C123.611 74.8571 124.57 74.4613 125.349 73.6696C126.128 72.878 126.518 71.9255 126.518 70.8122C126.518 69.6742 126.128 68.7155 125.349 67.9362C124.57 67.1569 123.611 66.7673 122.473 66.7673C121.36 66.7673 120.407 67.1569 119.616 67.9362C118.824 68.7155 118.428 69.6742 118.428 70.8122C118.428 71.9255 118.824 72.878 119.616 73.6696C120.407 74.4613 121.36 74.8571 122.473 74.8571Z"/>
<path clip-path="url(#TextBounds)" d="M148.227 120.724C151.097 120.724 153.663 120.236 155.927 119.258C158.191 118.281 159.972 116.927 161.271 115.195C162.57 113.463 163.219 111.472 163.219 109.22L163.219 109.183C163.219 107.353 162.873 105.775 162.18 104.452C161.487 103.128 160.368 101.996 158.822 101.056C157.275 100.116 155.203 99.3369 152.606 98.7185L146.483 97.2341C145.073 96.8877 143.922 96.4548 143.032 95.9353C142.141 95.4157 141.492 94.8034 141.083 94.0983C140.675 93.3933 140.471 92.6078 140.471 91.7419L140.471 91.7048C140.471 90.5668 140.774 89.571 141.38 88.7175C141.986 87.864 142.858 87.2022 143.996 86.7321C145.134 86.2621 146.483 86.027 148.041 86.027C150.441 86.027 152.34 86.5961 153.738 87.7341C155.135 88.8721 155.958 90.3812 156.205 92.2614L156.242 92.5212L162.403 92.5212L162.366 92.0388C162.217 89.8864 161.543 87.9506 160.343 86.2311C159.143 84.5117 157.498 83.1511 155.408 82.1491C153.317 81.1472 150.862 80.6462 148.041 80.6462C145.27 80.6462 142.815 81.1286 140.675 82.0935C138.535 83.0583 136.865 84.3942 135.665 86.1013C134.465 87.8083 133.866 89.7751 133.866 92.0017L133.866 92.0388C133.866 93.8942 134.261 95.5147 135.053 96.9001C135.845 98.2855 137.038 99.4545 138.634 100.407C140.23 101.359 142.24 102.133 144.664 102.726L150.787 104.211C152.989 104.755 154.511 105.448 155.352 106.289C156.193 107.13 156.614 108.243 156.614 109.629L156.614 109.666C156.614 110.828 156.28 111.837 155.612 112.69C154.944 113.544 153.991 114.199 152.754 114.657C151.517 115.115 150.02 115.343 148.264 115.343C145.642 115.343 143.601 114.805 142.141 113.729C140.681 112.653 139.754 111.15 139.358 109.22L139.284 108.849L132.826 108.849L132.864 109.183C133.136 111.484 133.909 113.5 135.183 115.232C136.457 116.964 138.195 118.312 140.397 119.277C142.599 120.242 145.209 120.724 148.227 120.724Z"/>
<path clip-path="url(#TextBounds)" d="M185.559 132.97L192.016 132.97L192.016 113.525L192.164 113.525C192.981 115.009 194.001 116.29 195.226 117.366C196.451 118.442 197.854 119.271 199.438 119.852C201.021 120.434 202.716 120.724 204.522 120.724C207.763 120.724 210.602 119.902 213.038 118.257C215.475 116.611 217.38 114.292 218.753 111.299C220.126 108.305 220.813 104.78 220.813 100.722L220.813 100.685C220.813 96.628 220.132 93.0964 218.772 90.0905C217.411 87.0847 215.5 84.7591 213.038 83.114C210.577 81.4688 207.701 80.6462 204.41 80.6462C202.58 80.6462 200.885 80.9431 199.326 81.5368C197.768 82.1306 196.389 82.9655 195.189 84.0417C193.989 85.1179 192.981 86.4105 192.164 87.9196L192.016 87.9196L192.016 81.3884L185.559 81.3884L185.559 132.97ZM203.149 115.009C200.972 115.009 199.048 114.416 197.378 113.228C195.708 112.041 194.391 110.377 193.426 108.237C192.461 106.097 191.979 103.592 191.979 100.722L191.979 100.685C191.979 97.7907 192.455 95.2735 193.408 93.1335C194.36 90.9935 195.677 89.3298 197.36 88.1423C199.042 86.9548 200.972 86.361 203.149 86.361C205.425 86.361 207.392 86.9362 209.049 88.0866C210.707 89.237 211.981 90.8822 212.871 93.0222C213.762 95.1621 214.207 97.7165 214.207 100.685L214.207 100.722C214.207 103.642 213.762 106.171 212.871 108.311C211.981 110.451 210.707 112.103 209.049 113.265C207.392 114.428 205.425 115.009 203.149 115.009Z"/>
<path clip-path="url(#TextBounds)" d="M227.678 119.982L234.135 119.982L234.135 97.4567C234.135 95.2549 234.549 93.3252 235.378 91.6677C236.207 90.0101 237.37 88.7113 238.867 87.7712C240.363 86.8311 242.101 86.361 244.08 86.361C247.099 86.361 249.449 87.3382 251.131 89.2927C252.813 91.2471 253.655 93.9685 253.655 97.4567L253.655 119.982L260.112 119.982L260.112 96.3435C260.112 93.2263 259.53 90.4925 258.367 88.1423C257.205 85.792 255.59 83.9551 253.525 82.6315C251.459 81.308 249.053 80.6462 246.307 80.6462C243.437 80.6462 240.976 81.2523 238.922 82.4645C236.869 83.6768 235.323 85.3714 234.284 87.5485L234.135 87.5485L234.135 66.4333L227.678 66.4333L227.678 119.982Z"/>
<path clip-path="url(#TextBounds)" d="M284.344 120.724C287.907 120.724 291.024 119.908 293.696 118.275C296.367 116.642 298.452 114.329 299.949 111.336C301.445 108.342 302.194 104.792 302.194 100.685L302.194 100.611C302.194 96.5043 301.445 92.9603 299.949 89.9792C298.452 86.9981 296.361 84.6973 293.677 83.0769C290.993 81.4564 287.869 80.6462 284.307 80.6462C280.769 80.6462 277.658 81.4564 274.974 83.0769C272.29 84.6973 270.199 86.9981 268.702 89.9792C267.206 92.9603 266.457 96.5043 266.457 100.611L266.457 100.685C266.457 104.767 267.206 108.311 268.702 111.317C270.199 114.323 272.29 116.642 274.974 118.275C277.658 119.908 280.782 120.724 284.344 120.724ZM284.381 115.009C282.105 115.009 280.12 114.447 278.425 113.321C276.73 112.195 275.413 110.563 274.473 108.423C273.533 106.283 273.063 103.703 273.063 100.685L273.063 100.611C273.063 97.5928 273.533 95.0261 274.473 92.9108C275.413 90.7956 276.73 89.1752 278.425 88.0495C280.12 86.9239 282.08 86.361 284.307 86.361C286.583 86.361 288.568 86.9177 290.263 88.031C291.958 89.1442 293.269 90.7647 294.197 92.8923C295.124 95.0199 295.588 97.5928 295.588 100.611L295.588 100.685C295.588 103.703 295.124 106.283 294.197 108.423C293.269 110.563 291.97 112.195 290.3 113.321C288.63 114.447 286.657 115.009 284.381 115.009Z"/>
<path clip-path="url(#TextBounds)" d="M321.268 120.724C321.911 120.724 322.548 120.693 323.179 120.632C323.81 120.57 324.323 120.514 324.719 120.465L324.719 115.232C324.447 115.257 324.131 115.288 323.773 115.325C323.414 115.362 323.037 115.381 322.641 115.381C320.909 115.381 319.598 115.016 318.707 114.286C317.817 113.556 317.371 112.164 317.371 110.111L317.371 86.7321L324.719 86.7321L324.719 81.3884L317.371 81.3884L317.371 70.9606L310.692 70.9606L310.692 81.3884L305.051 81.3884L305.051 86.7321L310.692 86.7321L310.692 110.148C310.692 113.834 311.57 116.519 313.326 118.201C315.083 119.883 317.73 120.724 321.268 120.724Z"/>
<path clip-path="url(#TextBounds)" d="M346.539 120.724C350.102 120.724 353.219 119.908 355.891 118.275C358.563 116.642 360.647 114.329 362.144 111.336C363.641 108.342 364.389 104.792 364.389 100.685L364.389 100.611C364.389 96.5043 363.641 92.9603 362.144 89.9792C360.647 86.9981 358.557 84.6973 355.872 83.0769C353.188 81.4564 350.065 80.6462 346.502 80.6462C342.965 80.6462 339.853 81.4564 337.169 83.0769C334.485 84.6973 332.395 86.9981 330.898 89.9792C329.401 92.9603 328.653 96.5043 328.653 100.611L328.653 100.685C328.653 104.767 329.401 108.311 330.898 111.317C332.395 114.323 334.485 116.642 337.169 118.275C339.853 119.908 342.977 120.724 346.539 120.724ZM346.576 115.009C344.3 115.009 342.315 114.447 340.62 113.321C338.926 112.195 337.608 110.563 336.668 108.423C335.728 106.283 335.258 103.703 335.258 100.685L335.258 100.611C335.258 97.5928 335.728 95.0261 336.668 92.9108C337.608 90.7956 338.926 89.1752 340.62 88.0495C342.315 86.9239 344.276 86.361 346.502 86.361C348.778 86.361 350.764 86.9177 352.458 88.031C354.153 89.1442 355.464 90.7647 356.392 92.8923C357.32 95.0199 357.784 97.5928 357.784 100.611L357.784 100.685C357.784 103.703 357.32 106.283 356.392 108.423C355.464 110.563 354.165 112.195 352.495 113.321C350.826 114.447 348.853 115.009 346.576 115.009Z"/>
<path clip-path="url(#TextBounds)" d="M380.42 103.431L386.914 103.431L386.914 101.019C386.914 99.708 387.094 98.57 387.452 97.6052C387.811 96.6403 388.43 95.7373 389.308 94.8962C390.186 94.055 391.405 93.1768 392.963 92.2614C394.547 91.2966 395.92 90.1957 397.082 88.9587C398.245 87.7217 399.142 86.3177 399.773 84.7468C400.404 83.1758 400.719 81.4255 400.719 79.4958L400.719 79.4587C400.719 76.8858 400.057 74.5912 398.734 72.5749C397.41 70.5586 395.567 68.9629 393.204 67.7878C390.842 66.6127 388.102 66.0251 384.985 66.0251C381.521 66.0251 378.627 66.656 376.301 67.9177C373.976 69.1794 372.201 70.8679 370.976 72.9831C369.751 75.0983 369.04 77.4177 368.842 79.9411L368.805 80.4235L375.151 80.4235L375.188 80.0524C375.361 78.3949 375.843 76.9538 376.635 75.7292C377.427 74.5046 378.509 73.5459 379.882 72.8532C381.255 72.1605 382.869 71.8142 384.725 71.8142C386.556 71.8142 388.151 72.1543 389.512 72.8347C390.873 73.515 391.93 74.4551 392.685 75.655C393.439 76.8548 393.817 78.2341 393.817 79.7927L393.817 79.8298C393.817 81.141 393.619 82.3037 393.223 83.3181C392.827 84.3324 392.19 85.2663 391.312 86.1198C390.434 86.9733 389.277 87.8454 387.842 88.736C386.16 89.7504 384.768 90.8142 383.667 91.9274C382.566 93.0407 381.75 94.2591 381.218 95.5827C380.686 96.9063 380.42 98.3845 380.42 100.017L380.42 103.431ZM383.686 120.353C384.898 120.353 385.906 119.945 386.71 119.129C387.514 118.312 387.916 117.31 387.916 116.123C387.916 114.911 387.514 113.902 386.71 113.098C385.906 112.294 384.898 111.892 383.686 111.892C382.498 111.892 381.496 112.294 380.68 113.098C379.864 113.902 379.455 114.911 379.455 116.123C379.455 117.31 379.864 118.312 380.68 119.129C381.496 119.945 382.498 120.353 383.686 120.353Z"/>
</g>
<g opacity="1">
<path d="M501.176 294.77L500.529 234.654M500.206 204.654L499.559 144.539" fill="none" opacity="1" stroke="#000000" stroke-linecap="butt" stroke-linejoin="bevel" stroke-width="0.5"/>
<path d="M481.353 208.654L519.382 208.654L519.382 208.654L519.382 230.654L519.382 230.654L481.353 230.654L481.353 230.654L481.353 208.654L481.353 208.654Z" fill="none" opacity="1" stroke="#000000" stroke-linecap="square" stroke-linejoin="bevel" stroke-width="1"/>
<g fill="#000000" opacity="1" stroke="#000000" stroke-linecap="square" stroke-linejoin="miter" stroke-width="1">
<path clip-path="url(#TextBounds_2)" d="M488.335 219.516C488.405 220.117 488.685 220.533 489.173 220.764C489.423 220.881 489.712 220.939 490.04 220.939C490.665 220.939 491.128 220.74 491.429 220.342C491.729 219.943 491.88 219.502 491.88 219.018C491.88 218.432 491.701 217.979 491.344 217.658C490.986 217.338 490.558 217.178 490.058 217.178C489.694 217.178 489.383 217.248 489.123 217.389C488.863 217.529 488.642 217.725 488.458 217.975L487.544 217.922L488.183 213.404L492.542 213.404L492.542 214.424L488.974 214.424L488.616 216.756C488.812 216.607 488.997 216.496 489.173 216.422C489.485 216.293 489.847 216.229 490.257 216.229C491.026 216.229 491.679 216.477 492.214 216.973C492.749 217.469 493.017 218.098 493.017 218.859C493.017 219.652 492.771 220.352 492.281 220.957C491.791 221.563 491.009 221.865 489.935 221.865C489.251 221.865 488.646 221.673 488.121 221.288C487.596 220.903 487.302 220.313 487.239 219.516L488.335 219.516Z"/>
<path clip-path="url(#TextBounds_2)" d="M494.522 222.879C494.792 222.832 494.981 222.643 495.091 222.311C495.149 222.135 495.179 221.965 495.179 221.801C495.179 221.773 495.178 221.749 495.176 221.728C495.174 221.706 495.169 221.682 495.161 221.654L494.522 221.654L494.522 220.377L495.776 220.377L495.776 221.561C495.776 222.025 495.683 222.434 495.495 222.785C495.308 223.137 494.983 223.354 494.522 223.436L494.522 222.879Z"/>
<path clip-path="url(#TextBounds_2)" d="M499.978 221.883C498.985 221.883 498.266 221.61 497.818 221.065C497.371 220.521 497.147 219.857 497.147 219.076L498.249 219.076C498.296 219.619 498.397 220.014 498.554 220.26C498.827 220.701 499.321 220.922 500.036 220.922C500.591 220.922 501.036 220.773 501.372 220.477C501.708 220.18 501.876 219.797 501.876 219.328C501.876 218.75 501.699 218.346 501.346 218.115C500.992 217.885 500.501 217.77 499.872 217.77C499.802 217.77 499.73 217.771 499.658 217.772C499.586 217.774 499.513 217.777 499.438 217.781L499.438 216.85C499.548 216.861 499.64 216.869 499.714 216.873C499.788 216.877 499.868 216.879 499.954 216.879C500.349 216.879 500.673 216.816 500.927 216.691C501.372 216.473 501.595 216.082 501.595 215.52C501.595 215.102 501.446 214.779 501.149 214.553C500.853 214.326 500.507 214.213 500.112 214.213C499.409 214.213 498.923 214.447 498.653 214.916C498.505 215.174 498.421 215.541 498.401 216.018L497.358 216.018C497.358 215.393 497.483 214.861 497.733 214.424C498.163 213.643 498.919 213.252 500.001 213.252C500.856 213.252 501.519 213.442 501.987 213.823C502.456 214.204 502.69 214.756 502.69 215.479C502.69 215.994 502.552 216.412 502.274 216.732C502.103 216.932 501.88 217.088 501.606 217.201C502.048 217.322 502.393 217.556 502.641 217.901C502.889 218.247 503.013 218.67 503.013 219.17C503.013 219.971 502.749 220.623 502.222 221.127C501.694 221.631 500.946 221.883 499.978 221.883Z"/>
<path clip-path="url(#TextBounds_2)" d="M506.78 213.264C507.866 213.264 508.651 213.711 509.136 214.605C509.511 215.297 509.698 216.244 509.698 217.447C509.698 218.588 509.528 219.531 509.188 220.277C508.696 221.348 507.892 221.883 506.774 221.883C505.767 221.883 505.017 221.445 504.524 220.57C504.114 219.84 503.909 218.859 503.909 217.629C503.909 216.676 504.032 215.857 504.278 215.174C504.739 213.9 505.573 213.264 506.78 213.264ZM506.769 220.922C507.315 220.922 507.751 220.68 508.075 220.195C508.399 219.711 508.562 218.809 508.562 217.488C508.562 216.535 508.444 215.751 508.21 215.136C507.976 214.521 507.521 214.213 506.845 214.213C506.224 214.213 505.77 214.505 505.482 215.089C505.195 215.673 505.052 216.533 505.052 217.67C505.052 218.525 505.144 219.213 505.327 219.732C505.608 220.525 506.089 220.922 506.769 220.922Z"/>
<path clip-path="url(#TextBounds_2)" d="M513.454 213.264C514.54 213.264 515.325 213.711 515.81 214.605C516.185 215.297 516.372 216.244 516.372 217.447C516.372 218.588 516.202 219.531 515.862 220.277C515.37 221.348 514.565 221.883 513.448 221.883C512.44 221.883 511.69 221.445 511.198 220.57C510.788 219.84 510.583 218.859 510.583 217.629C510.583 216.676 510.706 215.857 510.952 215.174C511.413 213.9 512.247 213.264 513.454 213.264ZM513.442 220.922C513.989 220.922 514.425 220.68 514.749 220.195C515.073 219.711 515.235 218.809 515.235 217.488C515.235 216.535 515.118 215.751 514.884 215.136C514.649 214.521 514.194 214.213 513.519 214.213C512.897 214.213 512.443 214.505 512.156 215.089C511.869 215.673 511.726 216.533 511.726 217.67C511.726 218.525 511.817 219.213 512.001 219.732C512.282 220.525 512.763 220.922 513.442 220.922Z"/>
</g>
</g>
<path d="M55.7603 2.55112L394.861 1.63082C424.447 1.55053 448.473 28.6223 448.526 62.0974L448.644 136.888C448.696 170.364 424.755 197.565 395.17 197.646L56.0691 198.566C26.4838 198.646 2.4574 171.575 2.40466 138.1L2.28683 63.3085C2.23409 29.8334 26.175 2.63141 55.7603 2.55112Z" fill="#fffb00" fill-opacity="0.12123" fill-rule="nonzero" opacity="1" stroke="none"/>
</g>
</svg>
