<?xml version="1.0" encoding="UTF-8"?>
<!-- Created with EazyDraw for Mac ( https://www.eazydraw.com/ ) -->

<svg
    version="1.1"
    xmlns:dc="http://purl.org/dc/elements/1.1/"
    xmlns:cc="http://creativecommons.org/ns#"
    xmlns:rdf="http://www.w3.org/1999/02/22-rdf-syntax-ns#"
    xmlns:svg="http://www.w3.org/2000/svg"
    xmlns:xlink="http://www.w3.org/1999/xlink"
    xmlns="http://www.w3.org/2000/svg"
    width="492.763412535"
    height="159.15625"
    viewBox="0, 0, 492.763412535, 159.15625"
    preserveAspectRatio="none"
    id="svg2">
   <defs
       id="defs_A2904C0A"/>
   <metadata
       id="metadata7">
      <rdf:RDF>
         <cc:Work
             rdf:about="">
            <dc:format>image/svg+xml</dc:format>
            <dc:type rdf:resource="http://purl.org/dc/dcmitype/StillImage"/>
            <dc:title></dc:title>
         </cc:Work>
      </rdf:RDF>
   </metadata>
   <g
       id="layer_Paper"
       style="fill:#000000;fill-opacity:1;stroke:#000000;stroke-opacity:1;fill-rule:nonzero;stroke-linecap:square;stroke-linejoin:miter;stroke-width:1;stroke-miterlimit:10">
      <path
          style="fill:#FFFFFF;stroke:#C0C0C0"
          id="38EA64D9"
          d="M174.669921875,0.5 L96.14453125,0.5 L96.14453125,134.51171875 L188.52734375,134.51171875 L188.52734375,14.357421875 L174.669921875,0.5 L173.669921875,0.5 L174.169921875,0.5 L174.169921875,14.357421875 L188.02734375,14.357421875"/>
      <text
          id="056F4AE9"
          style="fill:#D6D6D6;stroke:none"
          font-family=".AppleSystemUIFont"
          font-size="18"
          font-weight="normal"
          font-style="italic">
         <tspan x="129.376464844" y="63.505859375">md</tspan>
      </text>
      <path
          style="fill:#FFFFFF;stroke:#C0C0C0"
          id="F8C975D9"
          d="M316.041015625,1.26953125 L237.515625,1.26953125 L237.515625,135.28125 L329.8984375,135.28125 L329.8984375,15.126953125 L316.041015625,1.26953125 L315.041015625,1.26953125 L315.541015625,1.26953125 L315.541015625,15.126953125
L329.3984375,15.126953125"/>
      <text
          id="F2EED9E9"
          style="fill:#D6D6D6;stroke:none"
          font-family=".AppleSystemUIFont"
          font-size="18"
          font-weight="normal"
          font-style="italic">
         <tspan x="270.20703125" y="74.775390625">css</tspan>
      </text>
      <path
          style="fill:#FFFFFF;stroke:#C0C0C0"
          id="8936B6E9"
          d="M388.791015625,23.6953125 L310.265625,23.6953125 L310.265625,157.70703125 L402.6484375,157.70703125 L402.6484375,37.552734375 L388.791015625,23.6953125 L387.791015625,23.6953125 L388.291015625,23.6953125
L388.291015625,37.552734375 L402.1484375,37.552734375"/>
      <text
          id="908489E9"
          style="fill:#EBEBEB;stroke:none"
          font-family=".AppleSystemUIFont"
          font-size="18"
          font-weight="normal"
          font-style="italic">
         <tspan x="349.997070312" y="97.201171875">js</tspan>
      </text>
      <g id="D703D4E9_transform" transform="matrix(0.998879602791,0.04732376917,-0.04732376917,0.998879602791,4.596510553195,-20.864028187)">
         <path
             style="fill:#D783FF;stroke:#C0C0C0"
             id="260EA4E9"
             d="M475.263671875,19.63671875 L396.73828125,19.63671875 L396.73828125,153.6484375 L489.12109375,153.6484375 L489.12109375,33.494140625 L475.263671875,19.63671875 L474.263671875,19.63671875 L474.763671875,19.63671875
L474.763671875,33.494140625 L488.62109375,33.494140625"/>
      </g>
      <text
          id="697827E9"
          style="fill:#EBEBEB;stroke:none"
          font-family=".AppleSystemUIFont"
          font-size="18"
          font-weight="normal"
          font-style="italic">
         <tspan x="422.684082031" y="61.642578125">page</tspan>
      </text>
      <path
          style="fill:#0F70FA;stroke:#FFFFFF"
          id="5A37ABC9"
          d="M16.7708984375,6.5859375 L108.97265625,6.5859375 L108.97265625,158.65625 L0.5,158.65625 L0.5,22.8568359375 z"/>
      <text
          id="63DEB1F9"
          style="fill:#FFFFFF;stroke:none"
          font-family=".AppleSystemUIFont"
          font-size="18"
          font-weight="normal"
          font-style="italic">
         <tspan x="40.5112304688" y="68.12109375">nav</tspan>
      </text>
      <path
          style="fill:#FFFFFF;stroke:#C0C0C0"
          id="A27F55D9"
          d="M244.412109375,23.52734375 L165.88671875,23.52734375 L165.88671875,157.5390625 L258.26953125,157.5390625 L258.26953125,37.384765625 L244.412109375,23.52734375 L243.412109375,23.52734375 L243.912109375,23.52734375
L243.912109375,37.384765625 L257.76953125,37.384765625"/>
      <text
          id="B243EAE9"
          style="fill:#D6D6D6;stroke:none"
          font-family=".AppleSystemUIFont"
          font-size="18"
          font-weight="normal"
          font-style="italic">
         <tspan x="194.227539062" y="97.033203125">html</tspan>
      </text>
      <path
          style="fill:none;stroke:#D783FF;stroke-width:2.302332162857"
          id="057FD0E9"
          d="M452.309066244,116.12727763 C451.819500693,116.067034518 451.320704907,115.965459643 450.839461783,115.860725459 C450.34940533,115.754073209 449.859445113,115.627595282 449.369096268,115.52222432 C448.869711143,115.414911553 448.40746621,115.322114888 447.899576431,115.263672471
C447.396750224,115.205812715 446.938120978,115.183642532 446.432159826,115.203957182 C445.924518797,115.22433928 445.466434911,115.285257168 444.96720958,115.377408076 C444.47923404,115.46748241 443.984198142,115.595485462 443.504029347,115.718193474
C443.016419111,115.84280316 442.532792145,115.978877052 442.041153198,116.087726616 C441.543883535,116.197822829 441.08444498,116.284960369 440.576969935,116.333687004 C440.073308308,116.382047483 439.615295237,116.389362579 439.110416046,116.355531719
C438.60153089,116.321432428 438.141294352,116.247180946 437.641439399,116.148332259 C437.151486203,116.051441691 436.656303057,115.922292923 436.171031632,115.805836672 C435.680859034,115.68820423 435.197842997,115.567936686 434.700811055,115.481037779
C434.200530725,115.393570938 433.740450414,115.335551971 433.232331367,115.320820115 C432.726001695,115.306140139 432.268157909,115.334412837 431.766411352,115.402590379 C431.258683321,115.471580687 430.799513588,115.576655155 430.302774613,115.700218377
C429.815129381,115.821519541 429.326392295,115.967859085 428.840157692,116.094258593 C428.352570109,116.221009817 427.874670694,116.341060972 427.376844694,116.422492575 C426.876731393,116.504298323 426.418506333,116.549157707 425.91140232,116.549418346
C425.403520086,116.549679385 424.944471889,116.504784932 424.443300591,116.424932406 C423.95354686,116.346899061 423.453785211,116.225687519 422.973150575,116.106804231 C422.482939691,115.985552291 421.995267734,115.847906194 421.502452739,115.736886025
C421.004009307,115.624597896 420.541859936,115.532417554 420.032959345,115.480833942 C419.529288241,115.429780405 419.070990986,115.420298786 418.56592167,115.456942234 C418.057312297,115.493842518 417.59883169,115.574191831 417.10154533,115.684649384
C416.613763067,115.792995882 416.119224801,115.939601437 415.638890614,116.075116489 C415.151417038,116.212645752 414.670807337,116.356909535 414.176265495,116.468381629 C413.679532911,116.580347527 413.220275752,116.663195108 412.711947118,116.701568527
C412.206839708,116.739698777 411.748670984,116.731206527 411.24492428,116.679079402 C410.735062843,116.62631953 410.273768239,116.531534217 409.775341076,116.414536892 C409.28519576,116.299483589 408.791245922,116.153487457 408.304447271,116.026091984
C407.814161751,115.897783996 407.334206942,115.772526295 406.834071449,115.686616438 C406.333707675,115.600667368 405.874017497,115.550757363 405.36583887,115.549760148 C404.85809639,115.548763788 404.400182607,115.595644116 403.900468418,115.683485277
C403.392695778,115.772742976 402.932757324,115.898854356 402.43745258,116.039812394 C401.949991659,116.178538171 401.463849877,116.339272172 400.975262667,116.4742213 C400.480736587,116.610810759 400.019778192,116.729214346 399.511996622,116.806894212
C399.011057225,116.883527369 398.552982756,116.916405947 398.046195085,116.899865282 C397.53661731,116.883233553 397.076750389,116.817382208 396.577475766,116.716993236 C396.087505353,116.618475058 395.587181769,116.475219622 395.106710563,116.340706111
C394.616330057,116.203418375 394.131801932,116.054258575 393.635663869,115.937807335 C393.138177138,115.821039542 392.676195861,115.730894171 392.166241865,115.688504372 C391.661283275,115.646529815 391.203270699,115.65280341 390.699671998,115.708838544
C390.190068632,115.765541813 389.730907165,115.868673368 389.235965664,115.999887151 C388.748404588,116.129144312 388.255087016,116.296341468 387.773899056,116.445953166 C387.286573469,116.597473183 386.809804442,116.749804591 386.311526508,116.863095965
C385.815135419,116.975958335 385.356106308,117.05248783 384.847011226,117.077667739 C384.339956555,117.102746728 383.881410017,117.074947667 383.379418932,117.001343086 C382.868666116,116.926453813 382.405941756,116.807744025 381.909131713,116.67024397
C381.418767833,116.534527993 380.92695949,116.370140596 380.437699062,116.230857259 C379.941623912,116.089633898 379.476748425,115.962518608 378.967183567,115.878177249 C378.466367452,115.795283952 378.007132903,115.756155479 377.499277321,115.77217207
C376.989771076,115.78824072 376.531532017,115.857618579 376.034567337,115.968336991 C375.527080323,116.081399668 375.066114805,116.231895839 374.572268623,116.39246 C374.085016026,116.550880388 373.602557363,116.727038954 373.110545825,116.871029325
C372.617740738,117.015251933 372.156785166,117.134591324 371.647292009,117.204858324 C371.144951967,117.274138798 370.686950995,117.291696391 370.181034374,117.25471045 C369.669500018,117.217313814 369.208379358,117.126305503 368.711577814,117.002140696
C368.221353507,116.879619726 367.721106238,116.711229528 367.240105402,116.558995039 C366.749534757,116.403731751 366.269283213,116.242515076 365.768685527,116.120816218 C365.272111612,116.000095567 364.810392418,115.913745534 364.299390709,115.883537226
C363.792537383,115.853574153 363.33468566,115.879613855 362.83340321,115.958927681 C362.322852382,116.039707966 361.862610196,116.170064547 361.370493148,116.325254699 C360.883190324,116.478926675 360.392134663,116.669308205 359.909099112,116.834904785
C359.417790036,117.003337735 358.954240997,117.161357981 358.446984447,117.276427515 C357.950598395,117.389031111 357.491842458,117.456637776 356.982193649,117.464952405 C356.472542512,117.473267072 356.013250882,117.421511092 355.513900236,117.322344903
C355.002447329,117.220775322 354.537798839,117.073573987 354.042778776,116.91237782 C353.552160537,116.752615044 353.063769529,116.567761871 352.570734132,116.415134151 C352.076996169,116.262288939 351.611801924,116.13028766 351.100096002,116.050860378
C350.598246878,115.972963073 350.139514429,115.948142536 349.632619023,115.985437449 C349.120938673,116.023084415 348.661962824,116.120212787 348.168717246,116.258009147 C347.68122948,116.394196966 347.180518047,116.586172651 346.707266605,116.762307818
C346.220255559,116.943564047 345.742993418,117.136614171 345.246068569,117.290487338 C344.755178147,117.44249194 344.294265251,117.561556881 343.782784175,117.621425576 C343.278196734,117.680487373 342.820095743,117.678216378 342.315941992,117.616015381
C341.80219147,117.552630362 341.339175008,117.430702303 340.845586003,117.278414807 C340.355056821,117.127071361 339.855881183,116.929389954 339.373278592,116.756329563 C338.879902285,116.579405736 338.410669723,116.40681303 337.901448007,116.279322703
C337.405638077,116.155190194 336.944298703,116.074915409 336.432352399,116.060876837 C335.922747282,116.046902465 335.464792368,116.098233312 334.967102022,116.205953759 C334.455772738,116.316626227 333.993881091,116.480408431 333.505162549,116.664038924
C333.018169758,116.847020986 332.530910866,117.064141384 332.044561114,117.248620384 C331.55693099,117.433585045 331.09281071,117.601831315 330.582716685,117.715690902 C330.08575274,117.826619687 329.627299947,117.881779121 329.117545707,117.868274047
C328.604436408,117.854680087 328.143785142,117.772442994 327.648369844,117.642240958 C327.136572144,117.507733399 326.66933566,117.325553731 326.176230837,117.136076368 C325.685307151,116.947437116 325.202193913,116.739175149 324.703467333,116.570872723
C324.212644674,116.405237589 323.747105098,116.268534675 323.232724899,116.196738187 C322.728896402,116.12641449 322.270659647,116.120832618 321.765817804,116.185191273 C321.251487438,116.250759551 320.791108285,116.383144704 320.302931762,116.553789132
C319.815804587,116.724066755 319.315754829,116.953152066 318.842517391,117.156055307 C318.354899874,117.365124089 317.886844692,117.576595085 317.381931532,117.742109267 C316.893158769,117.902332511 316.432344486,118.019618974 315.918561592,118.064960095
C315.410426436,118.109802806 314.951860237,118.081232223 314.450955189,117.98730153 C313.934757023,117.890503042 313.468876129,117.729269515 312.979467243,117.54268739 C312.488559272,117.355533753 311.992025236,117.122667104 311.506136973,116.923902437
C311.017333348,116.723945169 310.546608253,116.533810998 310.033834986,116.402329959 C309.538432011,116.275302865 309.077618527,116.204239401 308.565036579,116.211981042 C308.051426126,116.219738218 307.59283662,116.3044806 307.100744815,116.447683877
C306.589018268,116.596601045 306.124659299,116.803006543 305.640031235,117.021663299 C305.153425239,117.241212468 304.672310347,117.490226698 304.180403375,117.698285129 C303.697697742,117.902451734 303.232807289,118.082580239 302.718854771,118.193322494
C302.220259904,118.300755608 301.762090812,118.338353009 301.253155815,118.295991415 C300.735413187,118.252896711 300.272348839,118.130389324 299.782831943,117.961427166 C299.271297097,117.78486527 298.800590041,117.557903054 298.309400805,117.33310628
C297.818094087,117.108255739 297.343117388,116.872160499 296.835752473,116.684252197 C296.348676964,116.503858305 295.882742757,116.362347034 295.36492485,116.302064035 C294.857491049,116.242989926 294.399606267,116.264085589 293.898792378,116.363748922
C293.381278753,116.466735547 292.918403093,116.645873245 292.437233215,116.857788043 C291.950572047,117.072121292 291.45290928,117.347842513 290.978143886,117.585321873 C290.497294264,117.825844585 290.027304871,118.065286696 289.518311196,118.242579378
C289.031847036,118.41202458 288.571204977,118.525561162 288.054780924,118.550272651 C287.540993234,118.574857987 287.081192188,118.509925976 286.586141211,118.374926394 C286.067351759,118.233453369 285.597111314,118.019801067 285.113164086,117.789527352
C284.621762485,117.555706666 284.130416742,117.278748126 283.638515079,117.046070881 C283.156398506,116.818022137 282.683537553,116.605412073 282.165637861,116.47011683 C281.669824415,116.340591361 281.209715847,116.283436261 280.697279604,116.321379033
C280.177759492,116.359846323 279.717470627,116.490962581 279.234287447,116.679944931 C278.722918932,116.879951114 278.254918283,117.143681443 277.775202152,117.407860143 C277.289105401,117.675552637 276.817902457,117.964452232 276.316841262,118.204259555
C275.84109488,118.431951237 275.375098122,118.627267954 274.855640317,118.732164179 C274.353372623,118.833589136 273.895320569,118.845453327 273.389188074,118.763618334 C272.865173197,118.678891993 272.397834048,118.5001248 271.91729577,118.280776685
C271.425995292,118.056516021 270.912711746,117.749566066 270.442127761,117.488254501 C269.959604302,117.22031304 269.478881193,116.94027862 268.967316434,116.729452481 C268.485311956,116.530808729 268.018862854,116.383661331 267.496421821,116.340931186
C266.982392703,116.298889047 266.524348326,116.359094603 266.031387758,116.506458046 C265.510159876,116.662271595 265.042979775,116.907377673 264.571662551,117.173876847 C264.085641123,117.44869029 263.593346057,117.786321393 263.114379935,118.072214789
C262.643945122,118.353015872 262.170857031,118.631393753 261.655546577,118.823947821 C261.171472187,119.00483003 260.711098716,119.111809871 260.191745788,119.106066771 C259.668691733,119.100282742 259.20596656,118.981591021 258.721632242,118.791386374
C258.200320387,118.586660148 257.72338157,118.298115363 257.24656567,118.008453856 C256.75447525,117.709513211 256.27259246,117.373840928 255.770088269,117.09214361 C255.298429849,116.82773803 254.822248363,116.582992752 254.296443617,116.443637386
C253.798248158,116.31159938 253.339046966,116.276319857 252.828754471,116.358156469 C252.300347027,116.442898211 251.836190651,116.64345 251.367639872,116.894224065 C250.85803364,117.166971507 250.384791524,117.513888627 249.910881592,117.842132087
C249.438737909,118.169152194 248.95737584,118.527989587 248.454311541,118.807834857 C247.989300588,119.066511761 247.521493655,119.284241148 246.993567779,119.37896096 C246.483258371,119.470520047 246.02468568,119.441673711 245.525981653,119.303219384
C244.993405062,119.155361077 244.518422737,118.891148003 244.051782111,118.602254632 C243.55963091,118.297567874 243.047752374,117.900022393 242.574076898,117.569868669 C242.104747741,117.242744349 241.617326062,116.897073985 241.097584948,116.65218295
C240.62305633,116.428595089 240.155766438,116.272980512 239.626634176,116.258352486 C239.100043392,116.24379472 238.640257397,116.367113436 238.163271342,116.581875073 C237.638010478,116.818372308 237.163612726,117.165501789 236.706306278,117.510233924
C236.221245734,117.875887978 235.739530975,118.302798613 235.251732015,118.664615785 C234.798587338,119.000728689 234.32017263,119.340922987 233.794379564,119.556351668 C233.312254272,119.753888727 232.852280331,119.849728387 232.330127304,119.795789178
C231.791275758,119.740124986 231.321683597,119.532831017 230.857724221,119.264659179 C230.334367851,118.962155453 229.847160466,118.555135628 229.379424619,118.176080548 C228.904199898,117.790956454 228.403277233,117.342451382 227.900121645,116.9926445
C227.446715708,116.677424872 226.964518121,116.378506352 226.425307209,116.233548489 C225.919365164,116.097534406 225.461175928,116.100551583 224.958704707,116.250797418 C224.416815466,116.412829785 223.94438629,116.730381308 223.5005903,117.070499054
C222.995113757,117.457887734 222.514999856,117.939862413 222.04755393,118.370271141 C221.594628356,118.78731001 221.104841961,119.259356086 220.593852984,119.60721517 C220.14794173,119.91077217 219.67646341,120.169608072 219.133826872,120.246186816
C218.604892888,120.320831808 218.143383358,120.217404879 217.664362656,119.992893306 C217.12018319,119.737842559 216.631592728,119.326115078 216.186343945,118.930869665 C215.692781187,118.492736145 215.186453283,117.948889771 214.704417141,117.499380376
C214.258441228,117.083497944 213.75894317,116.620081334 213.225113606,116.31589124 C212.763415531,116.052803562 212.294236868,115.878906309 211.754079967,115.914226638 C211.202144182,115.950317177 210.735582182,116.19415303 210.293583855,116.508765118
C209.764712512,116.885212962 209.279119698,117.414118878 208.841388372,117.888033523 C208.357995889,118.411383723 207.895594893,118.986645111 207.391538968,119.489097029 C206.97055997,119.908736388 206.481472138,120.369708043 205.936799894,120.627897903
C205.453706713,120.856897567 204.994324596,120.931876886 204.471752011,120.792118297 C203.905399349,120.640651016 203.419430713,120.258691089 202.995235733,119.872132631 C202.47055204,119.394001279 201.968391075,118.76683386 201.511050048,118.227091822
C201.056429561,117.690560496 200.539095048,117.0345911 200.026526135,116.550075486 C199.610805601,116.157107663 199.114650467,115.73897755 198.54949748,115.581650413 C198.018215305,115.433752223 197.559929946,115.522456142 197.084906584,115.789073691
C196.523584491,116.104128345 196.035233086,116.659856904 195.632503737,117.14873826 C195.133808341,117.754114756 194.648199778,118.498515483 194.186690249,119.131351565 C193.767262265,119.706484135 193.262437736,120.417876511 192.738681907,120.906466479
C192.336085113,121.282032237 191.8539614,121.648695064 191.280173289,121.68889993 C190.703756648,121.729288974 190.228375718,121.443196151 189.806992133,121.084212033 C189.247450649,120.60752876 188.736567682,119.881382052 188.3211577,119.28330087
C187.824668299,118.568486637 187.32825715,117.725678767 186.830361366,117.013298583 C186.427670274,116.437135532 185.903259753,115.693743108 185.344947264,115.252124978 C184.913814197,114.911104167 184.437670067,114.670971926 183.87355508,114.816563972
C183.270464286,114.972215256 182.781593116,115.526250905 182.419232692,115.994757754 C181.888175083,116.68137834 181.390052405,117.625779863 180.977732285,118.385123838 C180.54337369,119.185054686 180.020027504,120.250681817 179.538868145,121.024718857
C179.184690225,121.594481918 178.669731024,122.395004471 178.090551254,122.770663991 C177.589612891,123.09557566 177.130916403,123.113465237 176.623938529,122.786946422 C176.012587493,122.393206129 175.491251571,121.543108756 175.137549778,120.933630834
C174.607739292,120.020692873 174.087427035,118.83660893 173.638499115,117.88327574 C173.212895783,116.979474119 172.664485665,115.747151081 172.140091422,114.893706122 C171.821030008,114.374437731 171.277469927,113.523839085 170.656534441,113.308102196
C170.02914071,113.090121464 169.554585458,113.522852395 169.196806468,113.975259496 C168.610775832,114.716287976 168.103862425,115.965240328 167.760240873,116.83215576 C167.265497014,118.080334415 166.789535284,119.578789928 166.335868894,120.841819509
C165.966231013,121.870909582 165.438137581,123.38432627 164.90614355,124.345383634 C164.653480065,124.801825039 164.112484923,125.760494932 163.453874543,125.717701209 C162.759289981,125.672570036 162.218158465,124.591131256 161.969751159,124.078550325
C161.380496452,122.862641132 160.841210291,121.055361023 160.457341365,119.765241562 C159.950391039,118.061466038 159.437786336,116.040331901 158.933203872,114.34321242 C158.584846472,113.171542431 158.002832458,111.184961562 157.421526351,110.099131734
C157.190356915,109.667327105 156.619055686,108.60245549 155.944869364,109.165843607 C155.248703232,109.747599293 154.72350624,111.780147522 154.51431529,112.591060796 C153.970567056,114.698860689 153.486585079,117.570015491 153.122880127,119.714525238
C152.752515864,121.898300208 152.13477477,125.952193574 151.745140327,128.13273034 C151.468832116,129.679052088 150.913100854,132.854193 150.343906762,134.329867635 C150.051957708,135.086765538 149.527841107,136.245975539 148.882178158,134.807888001
C148.150493748,133.178204537 147.57566968,129.090333682 147.336487006,127.348205967 C146.69695929,122.690097009 146.127231262,116.644013294 145.706939036,111.960817125 C145.112821055,105.340730235 144.534579363,97.7863125196 144.020116005,91.1587235796
C143.498821222,84.4431286217 142.881359952,76.126160043 142.323320884,69.4138826128 C141.888921601,64.1887851868 141.289502545,57.1366048635 140.671609883,51.9312316599 C140.464553106,50.1869031229 139.827940295,44.7613465404 139.11162412,43.1201569902
C138.284018028,41.2239852744 137.674557098,45.2207558796 137.667468242,45.259478448 C137.070432902,48.5207579883 136.589413393,54.4965773722 136.333311527,57.7979677173 C135.864568505,63.8404995818 135.423971573,71.4736598998 135.075182926,77.5240491632
C134.63164189,85.2180952533 134.292805583,91.854314441 133.841359313,99.5478902562 C133.486258125,105.599547107 133.060012989,112.725641791 132.577885285,118.768622468 C132.285884715,122.428552796 131.831598276,127.718666922 131.244115911,131.343730451
C131.152157602,131.911159762 130.619759534,135.4473543 129.823302998,135.689863322 C129.112964225,135.906150781 128.396034747,132.978515967 128.325072903,132.717083626 C127.773972847,130.686761827 127.166767838,127.333180791 126.779488152,125.267460534
C126.285386997,122.63196273 125.774084686,119.621625473 125.225218936,116.996820316 C124.871258604,115.304098726 124.321327455,112.730746359 123.696180567,111.111469198 C123.527242267,110.673879352 122.961209621,109.15830797 122.211218213,109.393003234
C121.543646397,109.601906885 120.963575427,111.275735417 120.770038293,111.813667654 C120.263584809,113.221344049 119.73192503,115.371129565 119.356171683,116.816494456 C118.929882952,118.456247689 118.447698791,120.476751106 117.945227911,122.095642157
C117.63699099,123.088738496 117.126795222,124.688484183 116.514975787,125.54940528 C116.149455907,126.063746209 115.682010631,126.469901682 115.053436999,126.045370641 C114.42856257,125.623337997 113.859190484,124.386603051 113.562241187,123.737602159
C113.05118124,122.620649319 112.487587573,121.011471757 112.054478204,119.863596463 C111.621453243,118.715944878 111.093461171,117.250024052 110.548396021,116.148491272 C110.22996942,115.504976752 109.697890545,114.479186367 109.059734635,114.080323985
C108.501093286,113.731160064 108.034736203,113.932534929 107.595763249,114.346314907 C107.020914885,114.888172308 106.495760966,115.940271138 106.153177687,116.634091941 C105.69371025,117.564633757 105.151292877,118.900751547 104.720348352,119.844208992
C104.32730214,120.704696487 103.826202877,121.81648217 103.282678535,122.596713639 C102.947464121,123.077915333 102.454269461,123.701827343 101.82871146,123.808498217 C101.232222224,123.910212251 100.735783276,123.501379891 100.354506345,123.107006714
C99.7996583512,122.533100587 99.2642617403,121.610171528 98.8646682839,120.927598156 C98.3667432131,120.077057716 97.884275704,119.119627162 97.3698600033,118.278311993 C96.9728155045,117.628954753 96.4560063357,116.803107869 95.8820390748,116.28960037
C95.465402497,115.916850874 94.9915512442,115.636642996 94.4094926665,115.744920633 C93.8216385061,115.854276395 93.3264213966,116.355599927 92.9536898217,116.783154089 C92.4374493057,117.375324959 91.9265611528,118.221310325 91.5091119945,118.882585093
C91.0611860312,119.592137697 90.5700949434,120.442945312 90.06594768,121.115647621 C89.6810273949,121.629260971 89.1893996354,122.238887372 88.6143825828,122.554511832 C88.1259201475,122.822626824 87.6680216645,122.861878486 87.1486414587,122.653194196
C86.577340143,122.423648272 86.0697863387,121.898109495 85.6691424563,121.451225891 C85.1638348784,120.887598985 84.6376182841,120.127740965 84.1819849379,119.525232137 C83.7361402273,118.935667356 83.2291652232,118.238445106 82.696123901,117.721805938
C82.2838625848,117.322230269 81.7962497338,116.921166083 81.2195136184,116.792933179 C80.680899031,116.673176307 80.2183921438,116.812691242 79.7558610307,117.089062863 C79.2115245977,117.414314803 78.7158090211,117.96275312 78.3032974054,118.43352762
C77.8202008713,118.984856408 77.3286157734,119.660994262 76.8554236508,120.221366232 C76.4296172778,120.725622209 75.9413695251,121.298639723 75.4041845423,121.691048973 C74.9654684027,122.011527536 74.4997119336,122.247966968 73.9432973677,122.248616962
C73.3913301109,122.24926176 72.9154031698,122.010753545 72.4707890842,121.707541488 C71.9388158564,121.344753395 71.4325838152,120.809960464 70.9896290676,120.348543213 C70.4952534363,119.833561839 70.0242701527,119.273757463 69.5062773806,118.782347459
C69.070827416,118.369244264 68.5800451442,117.934034917 68.0278405125,117.68079185 C67.5440870224,117.458940728 67.0839233371,117.380831315 66.5590757251,117.493621295 C66.0107788242,117.611450537 65.5338987273,117.929724974 65.1004973572,118.269460655
C64.5943764435,118.666199902 64.099911443,119.196566408 63.6483300363,119.651391483 C63.1895016752,120.113515566 62.706326866,120.634192542 62.1962558545,121.042127554 C61.7592501944,121.391627732 61.2863804914,121.715897379 60.7381574076,121.863337981
C60.2274256238,122.000695571 59.7682132108,121.968714701 59.2706736911,121.797278086 C58.7288951178,121.610598071 58.2409012074,121.25919971 57.7945078475,120.910421973 C57.3015050583,120.52522718 56.7851663612,120.021691264 56.3139854514,119.611703448"/>
   </g>
</svg>
