<?xml version="1.0" encoding="UTF-8" standalone="no"?>
<!-- Created with Inkscape (http://www.inkscape.org/) -->

<svg
   width="100%"
   height="100%"
   viewBox="0 0 654.58026 347.73407"
   version="1.1"
   id="svg1"
   xmlns="http://www.w3.org/2000/svg"
   xmlns:svg="http://www.w3.org/2000/svg">
  <defs
     id="defs1">
    <linearGradient
       id="swatch76">
      <stop
         style="stop-color:#000000;stop-opacity:1;"
         offset="0"
         id="stop76" />
    </linearGradient>
    <filter
       style="color-interpolation-filters:sRGB"
       id="filter56"
       x="-0.028766071"
       y="-0.19308163"
       width="1.0891074"
       height="1.6132386">
      <feFlood
         result="flood"
         flood-opacity="0.498039"
         flood-color="rgb(0,0,0)"
         id="feFlood55"
         in="SourceGraphic" />
      <feGaussianBlur
         result="blur"
         in="SourceGraphic"
         stdDeviation="1.6866901"
         id="feGaussianBlur55" />
      <feOffset
         result="offset"
         in="blur"
         dx="5.600000"
         dy="6.000000"
         id="feOffset55" />
      <feComposite
         result="comp1"
         operator="in"
         in="flood"
         in2="offset"
         id="feComposite55" />
      <feComposite
         result="comp2"
         operator="out"
         in="comp1"
         in2="SourceGraphic"
         id="feComposite56" />
    </filter>
    <filter
       style="color-interpolation-filters:sRGB"
       id="filter225"
       x="-0.012075393"
       y="-0.29178955"
       width="1.0241508"
       height="1.5835791">
      <feGaussianBlur
         stdDeviation="1.3795793"
         result="blur"
         id="feGaussianBlur223" />
      <feComposite
         in="SourceGraphic"
         in2="blur"
         operator="atop"
         result="composite1"
         id="feComposite223" />
      <feComposite
         in2="composite1"
         operator="in"
         result="composite2"
         id="feComposite224" />
      <feComposite
         in2="composite2"
         operator="in"
         result="composite3"
         id="feComposite225" />
    </filter>
    <filter
       height="1.5324751"
       y="-0.26623757"
       width="1.097412"
       x="-0.048706007"
       style="color-interpolation-filters:sRGB"
       id="filter82">
      <feGaussianBlur
         result="result1"
         in="SourceGraphic"
         stdDeviation="0.00048900535"
         id="feGaussianBlur80" />
      <feTurbulence
         result="result0"
         numOctaves="5"
         baseFrequency="0.05"
         type="fractalNoise"
         id="feTurbulence80" />
      <feDisplacementMap
         result="result2"
         scale="10"
         yChannelSelector="G"
         xChannelSelector="R"
         in="result1"
         in2="result0"
         id="feDisplacementMap80" />
      <feColorMatrix
         values="1 0 0 0 0 0 1 0 0 0 0 0 1 0 0 0 0 0 10 0 "
         result="result3"
         id="feColorMatrix80" />
      <feBlend
         mode="multiply"
         in="result2"
         result="result5"
         in2="result3"
         id="feBlend80" />
      <feGaussianBlur
         result="result4"
         in="result3"
         stdDeviation="5"
         id="feGaussianBlur81" />
      <feComposite
         k1="0.5"
         k3="1.5"
         k2="0.15"
         in="result4"
         in2="result5"
         operator="arithmetic"
         result="result6"
         id="feComposite81"
         k4="0" />
      <feComposite
         operator="in"
         in="result6"
         in2="result4"
         id="feComposite82" />
    </filter>
  </defs>
  <g
     id="layer1"
     transform="translate(116.58283,-8.5235568)">
    <text
       xml:space="preserve"
       style="font-style:normal;font-variant:normal;font-weight:bold;font-stretch:normal;font-size:59.3082px;font-family:'Chalkboard SE';-inkscape-font-specification:'Chalkboard SE, Bold';font-variant-ligatures:normal;font-variant-caps:normal;font-variant-numeric:normal;font-variant-east-asian:normal;display:inline;opacity:0.968397;mix-blend-mode:normal;fill:#3400ff;fill-opacity:1;stroke:#bfbfbf;stroke-width:1.82009;stroke-linecap:round;stroke-dasharray:none;stroke-dashoffset:0;stroke-opacity:0.722741;filter:url(#filter82)"
       x="48.592121"
       y="293.72034"
       id="text14"
       transform="matrix(1.2802114,0.00672777,-0.10276787,0.76861002,12.991455,-4.1117771)"><tspan
         id="tspan14"
         x="48.592121"
         y="293.72034"
         style="font-style:normal;font-variant:normal;font-weight:bold;font-stretch:normal;font-size:59.3082px;font-family:'Chalkboard SE';-inkscape-font-specification:'Chalkboard SE, Bold';font-variant-ligatures:normal;font-variant-caps:normal;font-variant-numeric:normal;font-variant-east-asian:normal;fill:#3400ff;fill-opacity:1;stroke:#bfbfbf;stroke-width:1.82009;stroke-linecap:round;stroke-dasharray:none;stroke-dashoffset:0;stroke-opacity:0.722741">по-русски</tspan></text>
    <ellipse
       style="display:inline;opacity:0.738149;fill:#ff0019;fill-opacity:1;stroke:none;stroke-width:0.0651016;stroke-linecap:round;stroke-linejoin:bevel;stroke-dasharray:none;stroke-dashoffset:0;stroke-opacity:1;paint-order:stroke fill markers;filter:url(#filter225)"
       id="ellipse28"
       cx="23.506594"
       cy="268.33942"
       rx="137.09659"
       ry="5.673593"
       transform="matrix(2.2175902,-0.03521352,1.772328,18.801405,-317.00618,-4861.9397)" />
    <a
       id="a154"
       transform="matrix(1.0120236,0,0,1.1772121,9.6327056,-2.016604)"
       style="display:inline;fill:#a62400;fill-opacity:1;stroke:#e6c1ff;stroke-opacity:1">
      <g
         id="g144"
         style="display:inline;fill:#a62400;fill-opacity:1;stroke:#e6c1ff;stroke-opacity:1">
        <path
           style="font-weight:bold;font-size:34.0127px;font-family:'New Peninim MT';-inkscape-font-specification:'New Peninim MT Bold';display:inline;opacity:1;mix-blend-mode:normal;fill:#a62400;fill-opacity:1;stroke:#e6c1ff;stroke-width:2.10746;stroke-linecap:round;stroke-linejoin:bevel;stroke-dasharray:none;stroke-opacity:1;paint-order:stroke fill markers;filter:url(#filter56)"
           d="m 113.50096,120.09655 q 0,2.88975 -2.59081,4.66678 -2.59082,1.76042 -7.09152,1.76042 -2.49116,0 -4.517311,-0.46502 -2.026147,-0.46501 -3.255121,-1.02968 v -4.91589 h 0.548056 q 0.448409,0.31554 1.029681,0.69752 0.59788,0.36537 1.677384,0.79717 0.930031,0.38198 2.109191,0.66431 1.17915,0.26573 2.52438,0.26573 1.76042,0 2.60741,-0.38198 0.847,-0.39859 0.847,-1.16254 0,-0.68092 -0.49823,-0.97986 -0.49824,-0.31555 -1.89329,-0.59788 -0.66431,-0.14947 -1.81024,-0.31555 -1.12933,-0.18268 -2.05937,-0.4318 -2.540985,-0.66431 -3.769959,-2.05936 -1.228975,-1.41166 -1.228975,-3.50424 0,-2.69046 2.540988,-4.46749 2.557596,-1.79364 6.975256,-1.79364 2.09258,0 4.00248,0.4318 1.9265,0.4152 3.006,0.89682 v 4.71661 h -0.51484 q -1.32862,-0.91343 -3.03922,-1.47809 -1.69399,-0.58127 -3.43781,-0.58127 -1.44487,0 -2.44134,0.39858 -0.97986,0.39859 -0.97986,1.12933 0,0.66431 0.44841,1.01307 0.44841,0.34877 2.10919,0.69753 0.91343,0.18268 1.95971,0.36537 1.0629,0.16608 2.1258,0.4318 2.3583,0.61449 3.48763,1.94311 1.12933,1.31201 1.12933,3.28834 z m 22.70281,5.91236 h -6.01201 v -9.25052 q 0,-1.12933 -0.11626,-2.24205 -0.11625,-1.12933 -0.39858,-1.66078 -0.33216,-0.61448 -0.97986,-0.89682 -0.63109,-0.28233 -1.77703,-0.28233 -0.81378,0 -1.66078,0.26573 -0.83038,0.26572 -1.81024,0.84699 v 13.21978 h -5.9788 v -25.84168 h 5.9788 v 9.25053 q 1.59434,-1.24559 3.05583,-1.9099 1.47809,-0.66431 3.27172,-0.66431 3.02262,0 4.71661,1.76043 1.7106,1.76042 1.7106,5.26466 z m 24.56288,-9.31695 q 0,4.60035 -2.69046,7.25759 -2.67385,2.64063 -7.52332,2.64063 -4.84946,0 -7.53992,-2.64063 -2.67385,-2.65724 -2.67385,-7.25759 0,-4.63357 2.69046,-7.2742 2.70706,-2.64064 7.52331,-2.64064 4.88269,0 7.53993,2.65724 2.67385,2.65725 2.67385,7.2576 z m -7.35724,4.53392 q 0.58127,-0.71414 0.8636,-1.7106 0.29894,-1.01308 0.29894,-2.79011 0,-1.64417 -0.29894,-2.75689 -0.29894,-1.11272 -0.83038,-1.77703 -0.53145,-0.68092 -1.2788,-0.96325 -0.74735,-0.28233 -1.61096,-0.28233 -0.8636,0 -1.54452,0.23251 -0.66431,0.23251 -1.2788,0.93003 -0.54805,0.64771 -0.88021,1.77703 -0.31554,1.12933 -0.31554,2.83993 0,1.52792 0.28233,2.65724 0.28233,1.11272 0.83039,1.79364 0.53144,0.6477 1.26219,0.94664 0.74735,0.29894 1.69399,0.29894 0.81378,0 1.54452,-0.26572 0.74735,-0.28233 1.26219,-0.93003 z m 25.16076,-8.17102 h -0.53145 q -0.38197,-0.13287 -1.22897,-0.1993 -0.847,-0.0664 -1.41166,-0.0664 -1.2788,0 -2.25866,0.16608 -0.97985,0.16608 -2.10918,0.56466 v 12.48904 h -5.9788 v -18.65052 h 5.9788 v 2.74028 q 1.97632,-1.69399 3.43781,-2.24204 1.46148,-0.56467 2.69045,-0.56467 0.31555,0 0.71414,0.0166 0.39858,0.0166 0.69752,0.0498 z m 15.31236,12.78797 q -0.96325,0.24912 -2.04276,0.38198 -1.0795,0.14947 -2.64063,0.14947 -3.48763,0 -5.19823,-1.41166 -1.69399,-1.41166 -1.69399,-4.83286 v -8.71907 h -2.45795 v -4.0523 h 2.45795 v -5.33109 h 5.97879 v 5.33109 h 5.59682 v 4.0523 h -5.59682 v 6.60989 q 0,0.97986 0.0166,1.7106 0.0166,0.73074 0.26572,1.31201 0.23251,0.58127 0.81378,0.93003 0.59788,0.33216 1.72721,0.33216 0.46502,0 1.21237,-0.19929 0.76396,-0.1993 1.0629,-0.36537 h 0.49823 z m 13.28621,0.66431 q -2.44134,0 -4.46748,-0.58127 -2.00954,-0.58127 -3.50424,-1.79364 -1.47809,-1.21236 -2.29187,-3.05582 -0.81378,-1.84347 -0.81378,-4.31802 0,-2.60742 0.8636,-4.50071 0.88021,-1.89328 2.44134,-3.13886 1.51131,-1.17916 3.48763,-1.72721 1.97632,-0.54806 4.10212,-0.54806 1.90989,0 3.52084,0.4152 1.61096,0.41519 3.00601,1.0795 v 5.09858 h -0.847 q -0.34876,-0.29894 -0.84699,-0.69752 -0.48163,-0.39859 -1.19576,-0.78057 -0.68092,-0.36537 -1.4947,-0.59788 -0.81378,-0.24911 -1.89328,-0.24911 -2.39152,0 -3.68693,1.52791 -1.2788,1.51131 -1.2788,4.11873 0,2.69045 1.31202,4.08551 1.32862,1.39505 3.75335,1.39505 1.12933,0 2.02615,-0.24912 0.91343,-0.26572 1.51131,-0.61448 0.56466,-0.33216 0.99646,-0.69753 0.4318,-0.36537 0.79717,-0.71413 h 0.847 v 5.09858 q -1.41166,0.66431 -2.95618,1.04629 -1.52792,0.39858 -3.38799,0.39858 z m 28.8809,-0.49823 h -5.97879 v -2.05936 q -1.66078,1.26219 -3.03922,1.9265 -1.37845,0.6477 -3.28834,0.6477 -3.08904,0 -4.76643,-1.77703 -1.66078,-1.77703 -1.66078,-5.24805 v -12.14028 h 6.01201 v 9.25053 q 0,1.41166 0.083,2.3583 0.0996,0.93003 0.43181,1.54452 0.31554,0.61449 0.94664,0.89682 0.6477,0.28233 1.79364,0.28233 0.76395,0 1.69399,-0.28233 0.93003,-0.28233 1.79364,-0.83039 v -13.21978 h 5.97879 z m 17.57101,-0.16608 q -0.96325,0.24912 -2.04276,0.38198 -1.0795,0.14947 -2.64063,0.14947 -3.48763,0 -5.19823,-1.41166 -1.69399,-1.41166 -1.69399,-4.83286 v -8.71907 h -2.45795 v -4.0523 h 2.45795 v -5.33109 h 5.97879 v 5.33109 h 5.59682 v 4.0523 h -5.59682 v 6.60989 q 0,0.97986 0.0166,1.7106 0.0166,0.73074 0.26572,1.31201 0.23251,0.58127 0.81379,0.93003 0.59787,0.33216 1.7272,0.33216 0.46502,0 1.21237,-0.19929 0.76396,-0.1993 1.0629,-0.36537 h 0.49823 z m 19.77984,-5.74628 q 0,2.88975 -2.59081,4.66678 -2.59081,1.76042 -7.09151,1.76042 -2.49117,0 -4.51731,-0.46502 -2.02615,-0.46501 -3.25513,-1.02968 v -4.91589 h 0.54806 q 0.44841,0.31554 1.02968,0.69752 0.59788,0.36537 1.67739,0.79717 0.93003,0.38198 2.10918,0.66431 1.17915,0.26573 2.52438,0.26573 1.76042,0 2.60742,-0.38198 0.847,-0.39859 0.847,-1.16254 0,-0.68092 -0.49824,-0.97986 -0.49823,-0.31555 -1.89328,-0.59788 -0.66431,-0.14947 -1.81025,-0.31555 -1.12933,-0.18268 -2.05936,-0.4318 -2.54099,-0.66431 -3.76996,-2.05936 -1.22898,-1.41166 -1.22898,-3.50424 0,-2.69046 2.54099,-4.46749 2.5576,-1.79364 6.97526,-1.79364 2.09258,0 4.00247,0.4318 1.9265,0.4152 3.00601,0.89682 v 4.71661 h -0.51484 q -1.32862,-0.91343 -3.03922,-1.47809 -1.694,-0.58127 -3.43781,-0.58127 -1.44488,0 -2.44134,0.39858 -0.97986,0.39859 -0.97986,1.12933 0,0.66431 0.44841,1.01307 0.44841,0.34877 2.10918,0.69753 0.91343,0.18268 1.95972,0.36537 1.0629,0.16608 2.12579,0.4318 2.35831,0.61449 3.48763,1.94311 1.12933,1.31201 1.12933,3.28834 z"
           id="text10"
           aria-label="shortcuts"
           transform="matrix(2.7961772,-0.00221481,-0.0152445,2.3220358,-315.25468,-145.58151)" />
      </g>
      <path
         style="font-weight:bold;font-size:34.0127px;font-family:'New Peninim MT';-inkscape-font-specification:'New Peninim MT Bold';display:inline;opacity:1;mix-blend-mode:normal;fill:#a62400;fill-opacity:1;stroke:#e6c1ff;stroke-width:5.40086;stroke-linecap:round;stroke-linejoin:bevel;stroke-dasharray:none;stroke-opacity:1;paint-order:stroke fill markers"
         d="m 4.887016,142.02772 q -0.04458,6.70673 -7.403547,10.8367 -7.358737,4.09144 -20.094946,4.10141 -7.049556,0.006 -12.776043,-1.06925 -5.726474,-1.07474 -9.195548,-2.38254 l 0.07584,-11.40913 1.550905,-10e-4 q 1.264052,0.73132 2.903059,1.61657 1.686261,0.84664 4.73441,1.84641 2.625936,0.88446 5.958401,1.53711 3.332692,0.61411 7.139464,0.61113 4.981686,-0.004 7.384415,-0.89229 2.403015,-0.92696 2.414801,-2.69998 0.0105,-1.58033 -1.394788,-2.27303 -1.405065,-0.73124 -5.348462,-1.3834 -1.877577,-0.34544 -5.1178,-0.72835 -3.192992,-0.42148 -5.821003,-0.99759 -7.180304,-1.53615 -10.636567,-4.77115 -3.45601,-3.27356 -3.423725,-8.13016 0.04151,-6.2442 7.259484,-10.37407 7.265231,-4.16846 19.766453,-4.17825 5.921642,-0.005 11.31967,0.99329 5.44526,0.95937 8.492629,2.07475 l -0.07277,10.94662 -1.456909,0.001 q -3.745674,-2.11699 -8.577668,-3.42372 -4.784734,-1.34529 -9.719446,-1.34143 -4.088735,0.003 -6.914723,0.93044 -2.778985,0.92725 -2.79026,2.6232 -0.01025,1.54178 1.253294,2.35021 1.263543,0.80846 5.957886,1.61421 2.582031,0.42195 5.540006,0.84363 3.005263,0.3831 6.008987,0.99745 6.664106,1.42092 9.839419,4.50198 3.175569,3.0425 3.145078,7.6293 z m 64.153848,13.67154 -17.012959,0.0133 0.142717,-21.46923 q 0.01743,-2.62102 -0.294406,-5.20323 -0.311543,-2.62078 -1.10229,-3.85358 -0.930476,-1.42539 -2.759,-2.07923 -1.781521,-0.65385 -5.024335,-0.65131 -2.302858,0.002 -4.703823,0.62039 -2.353932,0.61854 -5.135736,1.96976 l -0.203954,30.68135 -16.91898,0.0132 0.398685,-59.9751 16.918979,-0.0132 -0.142716,21.46926 q 4.530926,-2.89439 8.676941,-4.43939 4.19299,-1.54505 9.268656,-1.54902 8.553497,-0.007 13.320038,4.07528 4.813545,4.08191 4.759482,12.21479 z m 69.652486,-21.67778 q -0.071,10.6768 -7.72551,16.84986 -7.60728,6.13447 -21.33045,6.1452 -13.72314,0.0107 -21.29594,-6.11185 -7.525544,-6.16119 -7.454569,-16.83799 0.07149,-10.7539 7.725769,-16.88841 7.70125,-6.13455 21.33041,-6.14522 13.81719,-0.0108 21.29572,6.15041 7.52554,6.1612 7.45457,16.838 z m -20.88968,10.53892 q 1.65592,-1.65872 2.47023,-3.97199 0.86158,-2.35189 0.889,-6.47613 0.0254,-3.81591 -0.80343,-6.39772 -0.82877,-2.58181 -2.32241,-4.12241 -1.4934,-1.57915 -3.60392,-2.23275 -2.11051,-0.65359 -4.55439,-0.65168 -2.44384,0.002 -4.37431,0.54305 -1.88347,0.54109 -3.63313,2.1613 -1.56088,1.50446 -2.51826,4.1262 -0.91035,2.62172 -0.93674,6.5918 -0.0236,3.54609 0.75795,6.16647 0.78178,2.58186 2.32219,4.16096 1.49389,1.50205 3.55717,2.19423 2.11027,0.69215 4.7891,0.69006 2.30285,-0.002 4.37482,-0.62013 2.11923,-0.65691 3.58613,-2.16126 z m 71.3267,-19.01956 -1.50391,10e-4 q -1.07887,-0.30752 -3.4747,-0.45982 -2.39583,-0.15224 -3.99373,-0.15099 -3.61879,0.003 -6.39418,0.39046 -2.77537,0.38761 -5.97734,1.31517 l -0.19268,28.98539 -16.91898,0.0132 0.28775,-43.28537 16.91897,-0.0132 -0.0423,6.35982 q 5.61877,-3.93589 9.763,-5.21108 4.14445,-1.31376 7.62223,-1.31648 0.89295,-7e-4 2.02063,0.037 1.12766,0.0377 1.9731,0.11404 z m 43.13407,29.64528 q -2.72968,0.58031 -5.78656,0.89106 -3.05711,0.34928 -7.47484,0.35274 -9.86939,0.008 -14.68831,-3.26477 -4.77193,-3.27252 -4.71915,-11.21267 l 0.13452,-20.2358 -6.95558,0.005 0.0626,-9.40485 6.95558,-0.005 0.0823,-12.37275 16.91895,-0.0132 -0.0822,12.37275 15.83804,-0.0124 -0.0626,9.40486 -15.83804,0.0124 -0.10198,15.34068 q -0.0151,2.27412 0.0206,3.97004 0.0357,1.69592 0.7317,3.04442 0.64899,1.34853 2.28851,2.15667 1.68677,0.76958 4.88259,0.76708 1.31592,-0.001 3.43387,-0.46522 2.16495,-0.46423 3.01346,-0.85033 l 1.40991,-0.001 z m 37.58744,1.51237 q -6.90857,0.005 -12.63323,-1.33916 -5.67768,-1.34461 -9.88873,-4.15504 -4.16404,-2.81046 -6.43845,-7.08708 -2.27442,-4.27664 -2.23625,-10.01974 0.0402,-6.05149 2.51329,-10.44747 2.52004,-4.396 6.95699,-7.29028 4.29495,-2.74002 9.89605,-4.01635 5.6011,-1.27634 11.61676,-1.28105 5.40465,-0.004 9.95696,0.95583 4.55233,0.96004 8.48984,2.49872 l -0.0786,11.83313 -2.39687,0.002 q -0.98232,-0.69304 -2.38607,-1.61698 -1.35679,-0.92401 -3.37176,-1.80896 -1.92124,-0.84646 -4.22052,-1.38429 -2.29901,-0.57635 -5.35382,-0.57396 -6.76758,0.005 -10.45695,3.55424 -3.6421,3.51038 -3.68233,9.56185 -0.0415,6.24417 3.64977,9.47903 3.73824,3.23478 10.59981,3.22941 3.19581,-0.002 5.7375,-0.58265 2.58895,-0.61874 4.28622,-1.42947 1.60303,-0.77215 2.83059,-1.62109 1.22756,-0.84893 2.26687,-1.65916 l 2.39686,-0.002 -0.0786,11.83313 q -4.00501,1.5449 -8.38162,2.43484 -4.32991,0.92843 -9.59358,0.93255 z m 81.73569,-1.22025 -16.91896,0.0132 0.0318,-4.77951 q -4.7192,2.93306 -8.63019,4.47788 -3.91077,1.50628 -9.31543,1.51051 -8.74146,0.007 -13.46077,-4.1137 -4.6723,-4.12057 -4.61875,-12.17634 l 0.18729,-28.17598 17.01297,-0.0133 -0.14273,21.46925 q -0.0218,3.27627 0.1985,5.47311 0.2675,2.15826 1.19812,3.58368 0.88344,1.42544 2.66498,2.0793 1.82853,0.65381 5.07136,0.65127 2.16184,-0.002 4.79806,-0.659 2.63617,-0.65731 5.0885,-1.93119 l 0.20395,-30.68134 16.91894,-0.0132 z m 49.72551,-0.42436 q -2.72968,0.58031 -5.78655,0.89105 -3.05712,0.3493 -7.47484,0.35275 -9.86939,0.008 -14.68831,-3.26477 -4.77194,-3.27253 -4.71916,-11.21268 l 0.13453,-20.2358 -6.95558,0.005 0.0625,-9.40484 6.95559,-0.005 0.0823,-12.37275 16.91895,-0.0132 -0.0823,12.37275 15.83804,-0.0124 -0.0625,9.40486 -15.83804,0.0124 -0.10198,15.34067 q -0.0151,2.27413 0.0206,3.97003 0.0357,1.69592 0.7317,3.04441 0.649,1.34854 2.28855,2.15668 1.68674,0.76957 4.88254,0.76707 1.31594,-0.001 3.43389,-0.4652 2.16494,-0.46425 3.01346,-0.85034 l 1.40989,-0.001 z m 56.06221,-13.38013 q -0.0446,6.70673 -7.40354,10.83671 -7.35871,4.09143 -20.09492,4.1014 -7.04959,0.006 -12.77605,-1.06925 -5.72647,-1.07474 -9.19557,-2.38255 l 0.0758,-11.40912 1.55091,-9.9e-4 q 1.26406,0.73132 2.90307,1.61657 1.68625,0.84665 4.73441,1.84641 2.62594,0.88446 5.95838,1.5371 3.33269,0.61412 7.13946,0.61114 4.98169,-0.004 7.38444,-0.89229 2.40302,-0.92696 2.41481,-2.69998 0.0105,-1.58033 -1.39482,-2.27302 -1.40504,-0.73125 -5.34844,-1.38341 -1.87757,-0.34543 -5.11782,-0.72835 -3.193,-0.42148 -5.82098,-0.99758 -7.18032,-1.53616 -10.63657,-4.77116 -3.45603,-3.27355 -3.42374,-8.13016 0.0415,-6.24419 7.2595,-10.37407 7.26523,-4.16846 19.76645,-4.17824 5.92165,-0.005 11.31965,0.99329 5.44526,0.95936 8.49266,2.07474 l -0.0728,10.94662 -1.45691,0.001 q -3.74568,-2.117 -8.57767,-3.42372 -4.78476,-1.34529 -9.71944,-1.34144 -4.08876,0.003 -6.91473,0.93046 -2.77898,0.92725 -2.79026,2.62319 -0.0102,1.54178 1.25329,2.35021 1.26355,0.80846 5.95787,1.61421 2.58203,0.42196 5.54003,0.84363 3.00526,0.38309 6.00896,0.99745 6.66412,1.42092 9.83942,4.50199 3.17556,3.04249 3.14507,7.62929 z"
         id="path144"
         aria-label="shortcuts"
         transform="matrix(1.0069383,0,0,0.84622372,-7.480074,6.4116095)" />
    </a>
  </g>
</svg>
