<?xml version="1.0" encoding="UTF-8" standalone="no"?>
<!DOCTYPE svg PUBLIC "-//W3C//DTD SVG 1.1//EN" "http://www.w3.org/Graphics/SVG/1.1/DTD/svg11.dtd">
<!-- Created with Vectornator (http://vectornator.io/) -->
<svg height="100%" stroke-miterlimit="10" style="fill-rule:nonzero;clip-rule:evenodd;stroke-linecap:round;stroke-linejoin:round;" version="1.1" viewBox="0 0 800 250" width="100%" xml:space="preserve" xmlns="http://www.w3.org/2000/svg" xmlns:xlink="http://www.w3.org/1999/xlink">
<defs>
<filter color-interpolation-filters="sRGB" filterUnits="userSpaceOnUse" height="103.695" id="Filter" width="505.478" x="229.699" y="96.0091">
<feDropShadow dx="-3.61999e-06" dy="1" flood-color="#000000" flood-opacity="0.630858" in="SourceGraphic" result="Shadow" stdDeviation="1.5"/>
</filter>
<filter color-interpolation-filters="sRGB" filterUnits="userSpaceOnUse" height="140.011" id="Filter_2" width="229.311" x="22.873" y="9.48843">
<feDropShadow dx="-3.61999e-06" dy="1" flood-color="#000000" flood-opacity="0.630858" in="SourceGraphic" result="Shadow" stdDeviation="1.5"/>
</filter>
<filter color-interpolation-filters="sRGB" filterUnits="userSpaceOnUse" height="11.8982" id="Filter_3" width="29.6114" x="762.689" y="128.022">
<feDropShadow dx="-3.61999e-06" dy="1" flood-color="#000000" flood-opacity="0.630858" in="SourceGraphic" result="Shadow" stdDeviation="1.5"/>
</filter>
<filter color-interpolation-filters="sRGB" filterUnits="userSpaceOnUse" height="11.9419" id="Filter_4" width="30.959" x="761.67" y="154.486">
<feDropShadow dx="-3.61999e-06" dy="1" flood-color="#000000" flood-opacity="0.630858" in="SourceGraphic" result="Shadow" stdDeviation="1.5"/>
</filter>
<filter color-interpolation-filters="sRGB" filterUnits="userSpaceOnUse" height="83.6285" id="Filter_5" width="272.981" x="6.76029" y="136.166">
<feDropShadow dx="-2.53399e-05" dy="7" flood-color="#000000" flood-opacity="0.630858" in="SourceGraphic" result="Shadow" stdDeviation="3.5"/>
</filter>
<filter color-interpolation-filters="sRGB" filterUnits="userSpaceOnUse" height="115.088" id="Filter_6" width="206.492" x="34.9734" y="19.7878">
<feComponentTransfer in="SourceGraphic" result="Alpha">
<feFuncA slope="0.314102" type="linear"/>
</feComponentTransfer>
<feDropShadow dx="-3.61999e-06" dy="1" flood-color="#bebebe" flood-opacity="0.630858" in="Alpha" result="Shadow" stdDeviation="1.5"/>
</filter>
<filter color-interpolation-filters="sRGB" filterUnits="userSpaceOnUse" height="50.1399" id="Filter_7" width="53.1076" x="716.646" y="120.515">
<feDropShadow dx="-3.61999e-06" dy="1" flood-color="#000000" flood-opacity="0.630858" in="SourceGraphic" result="Shadow" stdDeviation="1.5"/>
</filter>
<filter color-interpolation-filters="sRGB" filterUnits="userSpaceOnUse" height="67.0781" id="Filter_8" width="16.2268" x="754.802" y="113.095">
<feDropShadow dx="-3.61999e-06" dy="1" flood-color="#000000" flood-opacity="0.630858" in="SourceGraphic" result="Shadow" stdDeviation="1.5"/>
</filter>
</defs>
<g id="Слой-1">
<g filter="url(#Filter)">
<path d="M424.094 100.438C423.698 100.388 423.509 100.829 423.406 101.125C423.161 101.835 423.092 102.613 422.812 103.312C422.652 103.715 422.409 104.064 422.188 104.438C421.667 105.316 421.116 106.198 420.625 107.094C420.305 107.678 420.098 108.307 419.75 108.875C419.468 109.335 419.122 109.745 418.812 110.188C418.506 110.626 418.252 111.119 417.875 111.5C417.519 111.86 417.071 112.085 416.656 112.375C415.814 112.964 414.9 113.5 413.969 113.938C410.838 115.409 407.319 116.61 405.281 119.594C403.878 121.648 404.543 124.401 404.906 126.688C405.195 128.505 405.559 130.325 405.75 132.156C405.845 133.069 405.913 134.024 405.781 134.938C405.633 135.966 404.973 136.819 404.5 137.719C403.457 139.705 401.946 141.832 400.062 143.156C399.061 142.379 398.027 141.674 396.906 141.094C395.611 140.424 394.779 141.11 394 142.031C393.992 140.913 394.145 139.762 393.531 138.781C393.013 137.953 392.245 137.165 391.531 136.562C390.399 135.608 389.215 134.722 388 133.875C387.308 133.393 386.378 132.9 385.5 132.781C382.068 132.316 380.541 135.427 378.281 137.281C377.612 137.83 376.857 138.305 376.156 138.812C375.386 139.371 374.627 139.933 373.781 140.375C372.875 140.85 371.902 141.205 370.969 141.625C370.233 141.956 369.487 142.196 368.75 142.438C368.408 141.823 368.107 141.184 367.812 140.562C367.264 139.407 367.335 138.077 366.812 136.906C365.946 134.964 363.779 133.231 362.156 132.031C361.417 131.484 360.667 130.968 359.875 130.5C359.428 130.235 358.96 130.013 358.469 129.844C358.317 129.791 358.127 129.816 357.969 129.844C357.338 129.956 357.058 131.619 356.875 132.125C356.586 132.925 355.965 133.611 355.5 134.312C354.694 135.531 353.904 136.733 353.125 137.969C351.209 141.007 349.41 144.139 347.844 147.375C346.258 150.651 344.802 153.972 343.156 157.219C342.803 154.819 342.434 152.422 342.031 150.031C340.612 141.611 338.77 133.284 337.469 124.844C337.147 122.755 337.06 120.624 336.781 118.531C336.625 117.361 336.282 116.247 336.062 115.094C335.96 114.555 335.98 114.002 335.844 113.469C335.689 112.862 335.371 112.329 334.938 111.875C334.296 111.203 333.616 110.536 332.906 109.938C332.069 109.232 331.181 108.593 330.281 107.969C329.85 107.669 329.4 107.406 328.938 107.156C328.43 106.882 327.722 106.626 327.125 106.688C326.676 106.734 326.47 107.058 326.406 107.469C326.312 108.073 326.469 108.682 326.344 109.281C326.195 109.995 325.699 110.804 325.406 111.469C325.262 111.796 325.144 112.141 325 112.469C324.711 113.124 324.417 113.784 324.125 114.438C322.583 117.89 321.047 121.36 319.188 124.656C316.912 128.689 314.211 132.456 311.656 136.312C310.195 138.519 308.675 140.732 307.531 143.125C306.344 145.609 305.393 148.262 303.656 150.438C302.959 151.311 302.066 152.06 301.125 152.719C301 152.169 300.779 151.648 300.688 151.094C300.071 147.363 300.316 143.517 299.594 139.812C299.384 138.738 299.866 137.594 299.062 136.656C298.545 136.053 298.038 135.457 297.438 134.938C296.362 134.007 295.224 133.164 294.062 132.344C293.61 132.024 293.088 131.782 292.594 131.531C292.067 131.264 291.237 131.054 290.688 131.375C289.845 131.866 290.38 133.482 290.125 134.281C289.958 134.806 289.788 135.318 289.625 135.844C289.048 137.704 288.581 139.588 287.875 141.406C287.49 142.398 286.964 143.314 286.531 144.281C285.935 145.613 285.451 146.74 283.844 146.969C282.696 147.132 281.513 146.787 280.375 146.656C279.017 146.5 277.613 146.514 276.25 146.469C270.626 146.282 264.997 146.175 259.375 146.469C256.968 146.594 254.429 146.729 252.094 147.375C251.179 147.628 250.305 148.014 249.406 148.312C248.448 148.631 247.454 148.847 246.469 149.062C242.539 149.921 238.511 150.408 234.531 150.969C234.273 151.28 235.62 152.819 237.531 154.406C239.442 155.993 241.21 157.03 241.469 156.719C245.463 156.156 249.462 155.674 253.406 154.812C254.407 154.594 255.433 154.386 256.406 154.062C257.952 153.549 259.34 152.963 260.969 152.719C265.389 152.055 269.917 152.08 274.375 152.062C278.32 152.047 282.246 152.19 286.188 152.344C288.068 152.417 290.233 153.27 292 152.312C293.15 151.689 293.417 150.394 293.969 149.312C294.12 149.017 294.208 148.705 294.344 148.406C294.627 149.469 294.777 150.551 295.219 151.594C295.593 152.478 295.595 153.451 296.25 154.219C297.801 156.037 299.755 157.482 301.719 158.844C302.508 159.391 303.491 159.83 304.469 159.875C305.666 159.931 306.804 159.386 307.781 158.75C309.76 157.462 311.204 155.754 312.344 153.688C312.688 153.063 313.042 152.334 313.344 151.688C313.803 150.704 314.219 149.698 314.688 148.719C315.263 147.515 315.949 146.384 316.656 145.25C319.807 140.201 323.416 135.439 326.344 130.25C327.503 128.195 328.51 126.078 329.5 123.938C329.921 123.027 330.33 122.101 330.75 121.188C331.13 123.591 331.398 126.004 331.844 128.406C332.761 133.345 333.725 138.271 334.594 143.219C335.361 147.584 335.964 151.968 336.656 156.344C336.984 158.416 337.44 160.467 337.812 162.531C337.983 163.477 337.55 164.46 337.719 165.406C337.738 165.517 337.755 165.623 337.812 165.719C338.015 166.057 338.199 166.433 338.5 166.688C340.291 168.204 342.155 169.633 344.062 171C344.312 171.179 344.793 171.351 345.156 171.281C345.867 171.145 346.822 169.949 347.188 169.375C347.796 168.419 348.151 167.316 348.594 166.281C348.968 165.409 349.465 164.59 349.906 163.75C350.174 163.241 350.431 162.734 350.688 162.219C352.718 158.141 354.416 153.895 356.562 149.875C358.413 146.41 360.62 143.193 362.75 139.906C362.901 140.732 362.943 141.59 363.375 142.344C363.817 143.115 364.541 143.911 365.156 144.469C365.981 145.217 366.86 145.924 367.75 146.594C368.985 147.523 370.421 148.486 372 148.719C374.096 149.028 376.13 148.186 378 147.344C378.939 146.921 379.931 146.54 380.844 146.062C381.981 145.467 382.958 144.679 384 143.938C384.377 143.669 385 143.246 385.375 142.938C386.231 142.235 386.99 141.445 387.75 140.656C387.918 141.173 388.128 141.685 388.219 142.188C388.409 143.242 388.03 144.437 388.812 145.344C389.469 146.105 390.098 146.894 390.875 147.531C392.244 148.653 393.737 149.626 395.219 150.594C395.528 150.795 396.188 151.013 396.625 151.094C398.004 151.348 398.774 150.005 399.594 149.156C399.99 148.746 400.47 148.438 400.844 148C400.881 147.956 400.932 147.921 400.969 147.875C401.225 148.065 401.427 148.317 401.688 148.5C403.074 149.471 404.369 150.133 406.031 149.5C407.386 148.984 408.344 147.838 409.312 146.812C410.539 145.514 411.286 143.999 412.125 142.438C412.5 141.74 412.857 141.215 412.969 140.438C413.141 139.239 412.997 137.973 412.844 136.781C412.513 134.209 411.964 131.68 411.75 129.094C411.713 128.648 411.588 128.196 411.625 127.75C411.676 127.126 411.839 126.512 412 125.906C412.129 125.421 412.875 124.599 413.219 124.219C414.379 122.934 415.863 122.032 417.406 121.281C419.066 120.474 420.871 119.892 422.469 118.969C422.917 118.709 423.294 118.36 423.719 118.062C424.146 117.763 424.633 117.527 425 117.156C425.386 116.766 425.654 116.262 425.969 115.812C426.281 115.366 426.622 114.933 426.906 114.469C427.187 114.011 427.414 113.521 427.656 113.031C427.897 113.865 428.135 114.698 428.375 115.531C431.833 127.518 434.76 139.683 436.406 152.062C437.047 156.878 437.701 161.716 438.344 166.531C438.474 167.508 437.551 168.971 438.094 169.844C438.322 170.211 438.522 170.618 438.844 170.906C440.3 172.209 441.834 173.435 443.406 174.594C443.889 174.949 444.455 175.157 445 175.406C445.369 175.575 445.841 175.537 446.219 175.438C448.087 174.944 447.616 172.822 448.438 171.5C449.045 170.523 449.707 169.583 450.344 168.625C452.227 165.793 454.097 162.933 455.969 160.094C456.587 159.155 457.213 158.232 457.812 157.281C457.894 157.152 457.893 157.023 457.875 156.875C457.804 156.309 457.457 155.778 457.156 155.312C456.52 154.329 455.743 153.442 455.094 152.469C454.923 152.213 454.784 151.95 454.625 151.688C454.618 151.638 454.628 151.625 454.625 151.594C454.615 151.473 454.577 151.266 454.656 151.156C454.917 150.795 455.405 150.596 455.875 150.469C457.494 150.029 459.229 150.184 460.875 149.969C461.447 149.894 462.055 149.863 462.594 149.656C463.01 149.496 463.353 149.201 463.688 148.906C464.167 148.483 464.501 147.623 464.781 147.062C465.318 145.988 465.905 144.928 466.656 144C466.902 144.509 467.254 145.021 467.625 145.406C468.219 146.023 468.842 146.64 469.5 147.188C470.381 147.92 471.308 148.598 472.25 149.25C473.193 149.903 474.287 150.495 475.438 150.688C478.042 151.124 480.2 149.14 482.406 148.125C483.963 147.409 485.621 146.902 487.219 146.281C489.659 145.334 492.078 144.35 494.531 143.438C495.144 143.21 495.758 143.007 496.344 142.719C496.864 142.463 497.407 142.156 497.969 141.906C499.236 142.897 500.486 143.903 501.812 144.812C502.198 145.077 502.684 145.187 503.125 145.344C503.97 145.644 504.991 145.648 505.875 145.594C507.286 145.506 508.506 145.282 509.719 144.844C510.394 145.842 511.164 146.771 512.094 147.531C513.272 148.494 514.513 149.378 515.781 150.219C516.299 150.562 517.05 150.904 517.719 150.969C518.639 151.058 519.686 150.593 520.469 150.156C522.078 149.257 523.423 147.847 524.844 146.688C525.48 146.168 526.127 145.629 526.75 145.094C528.891 143.253 530.961 141.326 533.031 139.406C535.152 137.439 537.249 135.464 539.188 133.312C541.525 130.718 543.653 127.953 545.656 125.094C545.953 124.671 546.19 124.211 546.469 123.781C546.731 125.871 547.022 127.967 547.188 130.062C547.396 132.702 547.355 135.356 547.281 138C547.179 141.644 546.982 145.291 547.031 148.938C547.088 153.12 547.507 157.483 549.312 161.312C550.704 164.263 552.945 166.618 555.406 168.719C555.914 169.152 556.436 169.536 556.969 169.938C556.991 169.962 556.986 169.984 557 170C557.046 170.054 557.081 170.101 557.125 170.156C557.246 170.308 557.362 170.461 557.469 170.625C557.83 171.183 558.098 171.789 558.25 172.438C558.799 174.783 557.59 176.907 556.875 179.062C556.58 179.952 556.318 180.742 556.25 181.688C556.193 182.48 556.393 183.15 556.219 183.906C555.987 184.91 555.344 185.921 555.375 186.969C555.386 187.328 555.561 187.785 555.812 188.031C557.053 189.248 558.315 190.466 559.688 191.531C560.509 192.169 561.459 192.633 562.375 193.125C562.587 193.239 562.966 193.289 563.219 193.281C566.205 193.189 566.314 190.399 567.375 188.344C568.142 186.857 569.197 185.517 570.031 184.062C571.761 181.045 573.299 177.912 574.875 174.812C581.24 162.297 587.186 149.551 593.906 137.219C595.16 134.918 596.405 132.559 597.906 130.406C598.576 129.446 599.34 128.514 600.094 127.594C600.232 128.26 600.367 128.931 600.5 129.594C601.092 132.544 601.725 135.461 602.344 138.406C602.61 139.672 602.949 140.967 603.125 142.25C603.559 145.413 603.079 148.698 604.781 151.562C604.936 151.823 605.402 152.518 605.594 152.719C606.328 153.485 607.044 154.309 607.875 154.969C609.086 155.93 610.411 156.769 611.719 157.594C612.051 157.804 612.558 157.922 612.969 157.844C613.951 157.658 614.81 156.615 615.469 155.969C615.97 155.477 616.517 155.039 617.031 154.562C617.683 153.959 618.21 153.243 618.812 152.594C619.187 152.191 619.546 151.84 619.844 151.375C619.919 151.257 619.991 151.126 620.062 151C620.153 151.063 620.217 151.162 620.312 151.219C621.399 151.872 622.492 152.53 623.594 153.156C623.693 153.213 623.794 153.228 623.906 153.25C625.639 153.595 627.152 152.517 628.469 151.531C629.159 151.015 629.917 150.54 630.562 149.969C631.481 149.156 632.171 148.119 633.062 147.281C633.903 146.491 634.869 145.741 635.781 145.031C636.063 144.812 636.414 144.718 636.719 144.531C637.538 145.132 638.331 145.783 639.156 146.375C639.387 146.541 639.671 146.619 639.938 146.719C641.03 147.126 642.232 147.09 643.375 147.094C644.547 147.098 645.734 147.107 646.906 147.094C651.908 147.038 656.903 146.691 661.906 146.812C666.211 146.917 670.508 147.348 674.812 147.469C683.994 147.727 693.161 147.801 702.344 148C711.649 148.202 720.954 148.508 730.25 148.969C730.509 148.665 729.209 147.15 727.344 145.562C725.478 143.975 723.759 142.946 723.5 143.25C711.393 142.65 699.275 142.315 687.156 142.094C679.614 141.956 672.032 141.985 664.5 141.562C660.975 141.365 657.47 141.065 653.938 141.031C650.696 141 647.457 141.147 644.219 141.25C642.04 141.319 639.867 141.354 637.688 141.344C636.534 140.393 635.397 139.44 634.188 138.562C633.784 138.27 633.124 137.946 632.562 137.875C631.161 137.697 629.711 138.554 628.656 139.375C627.738 140.09 626.784 140.829 625.938 141.625C624.933 142.569 624.196 143.779 623.094 144.625C622.469 145.104 621.761 145.529 621.094 146C620.376 145.389 619.691 144.753 618.938 144.188C618.313 143.719 617.571 143.384 616.875 143.031C616.518 142.85 616.029 142.774 615.625 142.781C613.834 142.815 613.34 144.998 612.438 146.156C611.823 146.945 611.06 147.59 610.344 148.281C610.322 148.052 610.344 147.822 610.312 147.594C610.066 145.799 609.594 144.021 609.219 142.25C608.291 137.866 607.198 133.47 606.562 129.031C606.248 126.837 606.837 124.562 606.219 122.406C606.088 121.952 605.852 121.138 605.5 120.812C603.861 119.297 602.259 117.708 600.469 116.375C599.847 115.912 599.077 115.72 598.344 115.469C598.106 115.387 597.595 116.166 597.5 116.312C596.797 117.397 596.338 118.143 595.438 119.125C595.144 119.445 594.823 119.741 594.531 120.062C593.195 121.534 591.888 123.149 590.75 124.781C588.641 127.806 586.959 131.177 585.25 134.438C578.125 148.033 571.567 161.891 564.469 175.5C563.231 173.399 561.218 171.564 559.562 170.156C559.155 169.81 558.622 169.39 558.125 169C556.624 167.189 555.718 164.989 555.156 162.719C554.335 159.401 554.24 155.962 554.25 152.562C554.26 148.916 554.477 145.27 554.531 141.625C554.562 139.566 554.537 137.522 554.375 135.469C554.121 132.255 553.593 129.055 553.281 125.844C553.05 123.463 552.765 121.095 552.5 118.719C552.376 117.605 553.121 116.329 552.281 115.344C551.831 114.815 551.407 114.258 550.875 113.812C549.544 112.698 548.146 111.677 546.719 110.688C546.369 110.445 545.955 110.289 545.562 110.125C544.752 109.787 543.678 110.187 543.188 110.875C542.602 111.695 542.667 112.767 542.156 113.625C540.729 116.022 539.293 118.39 537.656 120.656C537.107 121.417 536.479 122.288 535.906 123.031C531.202 129.14 525.458 134.422 519.625 139.438C518.557 140.356 517.45 141.216 516.375 142.125C515.588 142.791 514.852 143.51 514 144.094C513.754 143.713 513.589 143.339 513.188 142.938C511.682 141.431 509.993 140.024 508.156 138.938C507.527 138.565 506.498 137.972 505.656 137.969C504.495 137.965 503.524 139.094 502.438 139.406C501.435 139.694 500.304 139.749 499.219 139.781C499.17 139.738 499.142 139.667 499.094 139.625C498.284 138.926 497.427 138.255 496.562 137.625C495.454 136.818 493.924 135.738 492.438 135.781C491.302 135.814 490.298 136.547 489.312 137.031C488.737 137.314 488.133 137.495 487.531 137.719C484.024 139.022 480.562 140.426 477.062 141.75C476.265 142.052 475.473 142.352 474.719 142.75C473.856 143.205 473.024 143.711 472.156 144.156C472.116 144.093 472.105 144.033 472.062 143.969C470.488 141.552 468.526 139.801 466.156 138.062C465.505 137.585 464.799 137.205 464.094 136.812C462.001 135.647 460.08 137.226 458.938 138.969C458.292 139.953 457.873 141.064 457.312 142.094C457.096 142.492 456.932 142.948 456.594 143.25C456.288 143.523 455.946 143.791 455.562 143.938C455.06 144.13 454.503 144.182 453.969 144.25C452.561 144.43 451.123 144.343 449.719 144.562C449.084 144.661 448.416 144.822 447.875 145.188C446.83 145.893 447.828 147.212 448.312 147.938C448.628 148.411 448.978 148.853 449.312 149.312C449.535 149.618 449.749 149.942 449.969 150.25C450.119 150.461 450.842 151.401 450.656 151.688C448.496 155.018 446.288 158.317 444.094 161.625C443.615 157.869 443.168 154.112 442.531 150.375C440.378 137.73 436.832 125.456 433.375 113.125C433.177 112.42 432.969 111.726 432.875 111C432.715 109.765 432.742 108.554 432.281 107.375C431.81 106.169 430.746 105.027 429.781 104.219C428.71 103.322 427.643 102.427 426.5 101.625C425.891 101.198 425.231 100.858 424.562 100.531C424.419 100.461 424.253 100.457 424.094 100.438Z" fill="#ffb600" stroke="none"/>
</g>
<g filter="url(#Filter_2)">
<path d="M34.5531 24.236C27.6215 53.3056 42.1685 138.481 43.6112 138.557C49.1619 138.852 228.634 138.683 229.758 137.374C231.343 135.529 239.346 86.3289 239.237 80.3145C239.207 78.6896 243.272 23.9887 242.18 22.8225C241.115 21.684 239.133 22.4992 237.603 22.4736C233.539 22.4055 229.472 22.6426 225.408 22.5417C220.126 22.4105 214.853 21.9886 209.573 21.7773C181.371 20.6487 153.434 18.7865 125.185 18.6512C101.601 18.5382 78.4185 17.5277 54.8782 19.6036C46.7684 20.3188 36.6047 15.6325 34.5531 24.236Z" fill="#ffb600" fill-rule="nonzero" stroke="none"/>
<path d="M83.2812 14.4688C75.2277 14.492 67.1683 14.6565 59.125 15.125C56.6714 15.2679 54.2314 15.4642 51.7812 15.6562C50.2691 15.7748 48.7674 15.8725 47.25 15.8125C43.5237 15.6652 39.7308 14.7994 36 15.2188C33.8421 15.4613 35.997 15.2044 29.75 20.5312C29.7477 20.5342 29.7521 20.5594 29.75 20.5625C27.9744 36.4695 28.1444 31.1353 27.9688 36.4688C27.7616 42.7582 27.912 49.0602 28.2188 55.3438C29.054 72.4515 31.0354 89.4933 33.5 106.438C34.4954 113.281 35.5512 120.112 36.8438 126.906C37.2234 128.902 37.6137 130.9 38.0938 132.875C38.2653 133.581 38.3999 134.614 38.8438 135.219C39.1904 135.691 39.4769 136.232 39.9375 136.594C42.5225 138.625 45.2422 140.492 47.9375 142.375C48.0878 142.48 49.2283 142.434 49.4375 142.438C50.7849 142.457 52.1213 142.46 53.4688 142.469C58.6967 142.501 63.9283 142.493 69.1562 142.5C89.4582 142.528 109.761 142.495 130.062 142.438C157.261 142.361 184.46 142.274 211.656 141.906C217.292 141.83 222.929 141.77 228.562 141.594C230.056 141.547 231.541 141.48 233.031 141.375C233.397 141.349 234.207 141.413 234.5 141.125C234.892 140.74 235.023 139.873 235.156 139.375C236.018 136.161 236.605 132.86 237.219 129.594C238.086 124.983 238.886 120.378 239.656 115.75C241.234 106.265 242.841 96.7272 243.812 87.1562C243.97 85.6078 244.031 84.0505 244.125 82.5C244.287 79.8147 244.445 77.1529 244.625 74.4688C245.174 66.2594 245.719 58.0251 246.219 49.8125C246.579 43.8954 246.95 37.9885 247.125 32.0625C247.17 30.5464 247.227 29.0166 247.156 27.5C247.141 27.1726 247.158 26.5274 246.938 26.25C246.332 25.4877 245.775 24.6641 245.062 24C243.752 22.7774 242.361 21.6408 240.906 20.5938C239.936 19.8955 238.868 19.3434 237.812 18.7812C237.543 18.6378 237.232 18.5797 236.938 18.5C235.779 18.1865 234.599 18.5605 233.438 18.625C232.306 18.6878 231.134 18.6126 230 18.625C225.636 18.6726 221.3 18.7652 216.938 18.5625C197.164 17.6439 177.404 16.5911 157.625 15.7812C150.009 15.4694 142.371 15.1665 134.75 15C125.64 14.801 116.549 14.8089 107.438 14.6875C99.386 14.5802 91.3348 14.4455 83.2812 14.4688ZM84.3438 22.2188C96.5302 22.0514 108.689 22.2635 120.875 22.4062C133.204 22.5507 145.551 22.6563 157.875 23.0938C174.272 23.6758 190.64 24.5981 207.031 25.3125C217.039 25.7487 227.042 26.5258 237.062 26.3438C237.187 26.3415 237.313 26.345 237.438 26.3438C237.394 27.5206 237.369 28.6989 237.312 29.875C236.942 37.5827 236.465 45.2994 235.969 53C235.573 59.1401 235.156 65.2669 234.75 71.4062C234.564 74.2123 234.503 77.0466 234.219 79.8438C233.192 89.9558 231.468 100.013 229.781 110.031C229.02 114.551 228.238 119.092 227.375 123.594C226.836 126.405 226.304 129.233 225.562 132C225.454 132.405 225.334 132.794 225.188 133.188C225.151 133.286 225.005 133.526 225 133.625C225 133.627 223.788 133.738 223.594 133.75C221.835 133.862 220.073 133.888 218.312 133.938C217.908 133.949 217.498 133.958 217.094 133.969C216.662 133.98 216.244 133.99 215.812 134C215.351 134.011 214.899 134.021 214.438 134.031C203.439 134.27 192.438 134.378 181.438 134.469C146.693 134.756 111.933 134.835 77.1875 134.844C68.1305 134.846 59.0882 134.843 50.0312 134.812C48.8987 134.809 47.7576 134.818 46.625 134.812C46.3359 133.323 46.0471 131.838 45.7812 130.344C44.6254 123.847 43.61 117.346 42.6875 110.812C40.3568 94.3058 38.481 77.6607 37.75 61C37.4977 55.251 37.7582 60.9583 39.3438 27.9375C39.3447 27.9183 39.3428 27.9255 39.3438 27.9062C40.1761 25.7715 39.8055 26.3734 40.2188 25.6875C42.7179 21.5397 49.0738 22.8726 53.0312 23.25C54.8177 23.4204 56.61 23.5679 58.4062 23.5C61.202 23.3944 63.9878 23.0377 66.7812 22.875C72.6233 22.5348 78.4918 22.2991 84.3438 22.2188Z" fill="#ffd15d" stroke="none"/>
</g>
<path d="M768.439 132.772C772.462 133.028 776.595 133.254 780.623 133.14C782.014 133.101 783.403 133.036 784.798 133.052C785.156 133.056 786.766 133.181 786.527 133.09" fill="none" filter="url(#Filter_3)" stroke="#feff34" stroke-linecap="round" stroke-linejoin="round" stroke-width="4"/>
<path d="M767.42 159.252C772.842 159.18 778.282 159.35 783.698 159.54C784.478 159.568 785.5 159.448 786.312 159.544C786.505 159.567 786.876 159.483 786.879 159.677" fill="none" filter="url(#Filter_4)" stroke="#feff34" stroke-linecap="round" stroke-linejoin="round" stroke-width="4"/>
<g filter="url(#Filter_5)">
<path d="M21.5783 197.977C21.5783 197.977 69.3108 196.137 88.0162 196.279C105.178 196.41 122.299 196.16 139.455 196.279C150.131 196.353 173.428 196.365 183.826 196.352C206.088 196.323 215.205 196.178 238.21 196.279C245.343 196.311 252.483 196.899 259.605 196.279C261.221 196.139 263.15 196.985 264.46 196.279C269.205 193.726 236.005 146.028 234.846 145.157C232.314 143.252 48.7913 143.767 46.5802 145.983C45.5539 147.012 21.5783 197.977 21.5783 197.977Z" fill="#ffb600" fill-rule="nonzero" stroke="none"/>
<path d="M150.531 140.156C128.755 140.184 106.961 140.292 85.1875 140.625C74.599 140.787 64.0211 140.901 53.4375 141.281C50.5693 141.384 47.6743 141.492 44.8125 141.719C44.2007 141.767 42.3217 141.786 41.8438 142.219C41.4409 142.583 41.1797 143.313 40.9375 143.781C40.3953 144.829 39.8664 145.88 39.3438 146.938C37.5849 150.498 35.8744 154.076 34.1562 157.656C28.3144 169.828 34.1735 157.655 16.8125 194.25C16.4793 194.678 18.3193 196.675 20.9375 198.719C20.9511 198.729 20.9551 198.739 20.9688 198.75C21.03 198.798 21.064 198.828 21.125 198.875C23.5617 200.891 25.8208 202.212 26.1562 201.812C84.3529 200.147 64.9406 200.386 84.3438 200.156C92.7994 200.056 101.263 200.173 109.719 200.156C144.248 200.087 178.783 200.222 213.312 200.094C223.718 200.055 234.126 199.969 244.531 200.125C248.1 200.179 251.65 200.334 255.219 200.375C256.413 200.389 257.618 200.396 258.812 200.375C260.009 200.354 261.211 200.293 262.406 200.219C263.189 200.17 264.115 200.069 264.938 200.125C266.081 200.203 267.258 200.56 268.406 200.344C268.877 200.255 269.381 200.083 269.594 199.625C269.923 198.916 269.685 197.994 269.5 197.281C269.115 195.798 268.485 194.356 267.844 192.969C265.163 187.17 261.778 181.695 258.406 176.281C254.407 169.861 250.219 163.548 245.938 157.312C244.338 154.983 242.752 152.663 241.094 150.375C240.233 149.188 239.363 147.781 238.25 146.812C236.901 145.638 235.564 144.438 234.125 143.375C233.16 142.662 232.074 142.126 231.031 141.531C230.413 141.179 229.566 141.125 228.875 141.062C227.464 140.936 226.041 140.871 224.625 140.812C219.874 140.617 215.098 140.546 210.344 140.469C190.401 140.144 170.476 140.131 150.531 140.156ZM158.156 147.812C175.894 147.79 193.639 147.828 211.375 148.031C217.345 148.1 223.313 148.176 229.281 148.344C231.177 148.397 233.074 148.47 234.969 148.562C236.831 151.231 238.689 153.921 240.5 156.625C246.205 165.142 251.907 173.764 256.688 182.844C257.877 185.104 259.089 187.445 259.812 189.906C260.004 190.556 260.39 191.681 259.938 192.312C259.637 192.732 258.885 192.729 258.438 192.719C257.286 192.692 256.191 192.37 255.031 192.438C249.687 192.748 244.381 192.678 239.031 192.531C231.889 192.335 224.739 192.407 217.594 192.406C205.28 192.405 192.97 192.481 180.656 192.5C159.691 192.532 138.715 192.36 117.75 192.406C109.18 192.425 100.633 192.485 92.0625 192.469C85.9338 192.457 79.7849 192.415 73.6562 192.5C59.1318 192.701 51.4621 193.094 30.0938 193.781C37.1217 178.936 39.139 174.636 43.7188 165.094C45.4365 161.515 47.1479 157.965 48.9062 154.406C49.428 153.35 49.9588 152.265 50.5 151.219C50.7403 150.754 50.9535 150.142 51.3125 149.75C51.5032 149.542 52.9698 149.463 53.25 149.438C54.9904 149.277 56.7546 149.206 58.5 149.125C64.9646 148.824 71.4364 148.695 77.9062 148.562C104.653 148.015 131.405 147.846 158.156 147.812Z" fill="#ffd15d" stroke="none"/>
</g>
<g opacity="1">
<path d="M150.531 37.5938C146.133 38.1181 142.046 40.056 139.438 44.0312C138.29 45.78 137.577 47.7828 136.906 49.75C136.158 51.9435 135.687 54.2058 135.188 56.4688C134.202 55.6458 133.222 54.7835 132.25 54.0312C127.679 50.4938 122.701 47.2584 117.25 45.25C111.024 42.9558 103.6 42.4354 98.2188 46.9688C97.1275 47.8881 96.1894 48.9556 95.375 50.125C92.5257 54.2164 91.5395 59.2735 91.4375 64.1875C91.3228 69.716 92.2738 75.3533 94.2188 80.5312C94.9657 82.5198 95.8207 84.5749 97.0625 86.3125C98.2134 87.9229 99.6928 89.3461 101.188 90.625C101.998 91.3189 102.915 91.9504 103.781 92.625C103.746 92.6758 103.69 92.7314 103.656 92.7812C101.976 95.2567 100.65 97.9284 99.5 100.688C98.8958 102.138 98.2898 103.63 97.9062 105.156C97.5099 106.734 97.5268 108.416 97.4375 110.031C97.3972 110.761 97.418 111.562 97.2812 112.281C97.2003 112.707 97.0305 113.117 96.9062 113.531C96.5641 114.673 96.4926 114.897 97.25 115.844C97.4285 116.067 97.617 116.291 97.8125 116.5C98.22 116.935 98.6228 117.348 99.0625 117.75C99.8593 118.479 100.686 119.203 101.531 119.875C102.96 121.01 104.45 122.057 106.031 122.969C106.308 123.128 106.586 123.271 106.875 123.406C107.018 123.473 107.165 123.538 107.312 123.594C107.35 123.608 107.397 123.612 107.438 123.625C107.46 123.632 107.516 123.671 107.5 123.656C107.615 123.707 107.817 123.712 107.906 123.719C108.501 123.761 108.923 122.9 109.125 122.531C109.213 122.37 109.296 122.197 109.375 122.031C109.461 121.849 109.547 121.655 109.625 121.469C109.71 121.267 109.797 121.079 109.875 120.875C111.349 117.013 111.966 112.754 114 109.125C115.169 107.039 117.275 105.11 119.094 103.594C123.571 99.8611 129.021 97.4028 134.688 96.0625C135.142 98.852 135.558 101.646 135.969 104.438C136.215 106.116 136.454 107.812 136.625 109.5C136.658 109.826 136.665 110.141 136.688 110.469C136.683 110.512 136.692 110.55 136.688 110.594C136.52 112.102 136.394 112.157 137.438 113.344C137.685 113.626 137.952 113.923 138.219 114.188C138.734 114.698 139.232 115.182 139.781 115.656C140.616 116.378 141.464 117.084 142.344 117.75C143.672 118.757 144.78 119.512 146.188 120.281C146.534 120.471 146.903 120.623 147.281 120.75C147.416 120.795 147.547 120.827 147.688 120.844C147.693 120.849 147.713 120.839 147.719 120.844C147.894 120.95 148.139 120.709 148.188 120.562C148.279 120.284 148.166 119.954 148.156 119.625C148.159 119.605 148.153 119.583 148.156 119.562C148.237 119.004 148.324 118.341 148.375 117.875C148.484 116.871 148.581 115.844 148.719 114.844C149.132 111.842 149.656 108.872 149.844 105.844C150.052 102.48 150.079 99.0872 150.219 95.7188C150.221 95.667 150.217 95.6143 150.219 95.5625C151.51 95.7639 152.811 95.9002 154.094 96.125C158.772 96.9449 163.438 97.935 167.969 99.375C170.674 100.235 173.301 101.306 175.875 102.5C176.587 102.83 177.272 103.171 177.969 103.531C178.113 103.606 178.266 103.665 178.406 103.75C178.741 103.978 179.07 104.214 179.406 104.438C179.599 104.358 179.361 103.339 178.875 102.156C178.852 102.099 178.836 102.118 178.812 102.062C178.949 102.191 179.017 102.224 178.656 102.625C177.911 103.453 177.637 100.601 177 99.6875C176.818 99.4268 176.481 99.3356 176.219 99.1562C175.945 98.9689 175.681 98.7801 175.406 98.5938C174.715 98.1252 174.014 97.6714 173.312 97.2188C171.406 95.9885 169.366 94.9865 167.312 94.0312C164.966 92.9401 162.565 91.9265 160.125 91.0625C156.935 89.9328 153.676 89.0834 150.375 88.3438C150.375 84.7413 150.221 81.1395 149.594 77.5938C149.331 76.1091 149.02 74.6369 148.5 73.2188C147.887 71.5449 147.013 69.956 146.062 68.4062C146.853 63.9158 147.916 59.4555 149.688 55.25C152.851 47.7389 161.112 45.6163 168.531 47.0625C169.873 47.3241 171.189 47.7383 172.469 48.25C173.035 49.1139 173.575 49.9958 174.062 50.9062C175.763 54.0826 176.972 57.4883 177.875 60.9688C180.346 70.4877 180.419 80.4807 180.156 90.25C180.077 93.191 179.955 96.1226 179.844 99.0625C179.798 100.281 179.726 101.5 179.688 102.719C179.675 103.114 179.903 104.215 179.656 103.906C178.948 103.02 179.317 103.649 179.5 104.5C179.505 104.503 179.495 104.528 179.5 104.531C179.543 104.739 179.631 104.866 179.625 105.094C179.233 105.612 181.508 107.968 184.688 110.375C187.867 112.782 190.764 114.331 191.156 113.812C191.544 99.87 192.88 85.6087 189.938 71.8438C188.184 63.6412 184.728 55.6354 178.562 49.7812C176.8 48.1078 174.917 46.546 172.969 45.0938C171.372 43.9032 169.719 42.7883 168 41.7812C166.58 40.9491 165.116 40.19 163.594 39.5625C159.657 37.9401 154.929 37.0694 150.531 37.5938ZM178.812 102.062C178.63 101.891 178.225 101.571 177.656 100.156C177.84 100.081 178.345 100.964 178.812 102.062ZM120.469 52.7188C124.378 52.9474 128.299 54.3491 131.438 56.4375C131.445 56.4426 131.461 56.4324 131.469 56.4375C131.486 56.453 131.489 56.4586 131.5 56.4688C131.584 56.5477 131.638 56.6371 131.719 56.7188C131.853 56.8536 131.995 56.9864 132.125 57.125C132.488 57.5127 132.786 57.8365 133.125 58.25C133.599 58.8283 133.951 59.5087 134.375 60.125C132.935 68.5638 132.761 77.2373 133.406 85.7812C132.967 85.7732 132.534 85.709 132.094 85.7188C125.56 85.8637 119.039 87.771 113.281 91C112.125 90.3015 110.956 89.604 109.781 88.9375C109.344 88.6896 108.599 88.7442 108.125 88.8438C108.075 88.8543 108.05 88.9248 108 88.9375C107.363 88.8985 106.722 88.8791 106.062 88.8125C105.936 88.7997 105.814 88.7628 105.688 88.75C105.522 88.3098 105.305 87.8834 105.156 87.4375C103.302 81.8703 102.518 75.7856 103.125 69.9375C103.454 66.7685 104.195 63.5848 105.75 60.7812C106.742 58.9931 108.025 57.3214 109.594 56C112.661 53.416 116.55 52.4896 120.469 52.7188Z" fill="#ffb600" stroke="none"/>
</g>
<g fill="#ffeab5" opacity="1" stroke="none">
<path d="M82.3392 69.07C82.349 66.798 81.7573 64.8994 80.5639 63.3742C79.3705 61.849 77.6876 60.6817 75.5151 59.8722C74.908 59.6456 74.325 59.435 73.7658 59.2406C73.2066 59.0462 72.6554 58.8598 72.1122 58.6814C71.569 58.5031 71.0178 58.3167 70.4586 58.1222C69.8995 57.9278 69.3004 57.7012 68.6616 57.4424C67.0322 56.8273 65.7078 56.0056 64.6882 54.9771C63.6687 53.9487 63.1626 52.5865 63.17 50.8905C63.1747 49.8025 63.3629 48.8353 63.7346 47.9889C64.1063 47.1425 64.6214 46.4327 65.2799 45.8596C65.9384 45.2865 66.7082 44.8578 67.5895 44.5736C68.4707 44.2895 69.4073 44.1495 70.3993 44.1538C71.6473 44.1593 72.7822 44.4202 73.804 44.9366C74.8257 45.4531 75.7348 46.121 76.5313 46.9405C77.3277 47.76 78.0277 48.691 78.6312 49.7337C79.2346 50.7763 79.7261 51.8264 80.1055 52.8841L80.6335 52.8864L80.6721 44.0065L80.1441 44.0042C79.8864 44.3871 79.6047 44.7698 79.2991 45.1525C78.9934 45.5352 78.7926 45.7263 78.6966 45.7259C78.6646 45.7258 78.4811 45.605 78.1461 45.3635C77.8112 45.1221 77.3163 44.8559 76.6616 44.5651C76.0069 44.2742 75.168 44.0066 74.1451 43.7621C73.1221 43.5177 71.8907 43.3923 70.4507 43.3861C68.9147 43.3794 67.4498 43.573 66.0561 43.967C64.6624 44.3609 63.4357 44.9716 62.3761 45.799C61.3165 46.6264 60.472 47.6627 59.8426 48.908C59.2132 50.1533 58.8947 51.6399 58.8872 53.3679C58.8827 54.3919 59.0545 55.3606 59.4026 56.2742C59.7506 57.1877 60.211 58.0217 60.7837 58.7762C61.3564 59.5307 62.0256 60.1896 62.7911 60.7529C63.5567 61.3163 64.3548 61.7597 65.1854 62.0833C65.9201 62.3745 66.5511 62.6093 67.0783 62.7876C67.6055 62.9659 68.1168 63.1441 68.612 63.3222C69.1072 63.5004 69.6424 63.6867 70.2176 63.8812C70.7928 64.0757 71.4637 64.3187 72.2304 64.61C72.9972 64.9013 73.7158 65.2244 74.3863 65.5794C75.0567 65.9343 75.6389 66.3608 76.1327 66.859C76.6265 67.3571 77.016 67.9428 77.3011 68.6161C77.5862 69.2893 77.7267 70.0739 77.7229 70.9699C77.7133 73.1779 76.9697 74.9267 75.492 76.2163C74.0144 77.5059 72.0916 78.1455 69.7236 78.1352C68.8916 78.1316 68.0283 77.9838 67.1335 77.692C66.2388 77.4001 65.5201 77.1089 64.9773 76.8186C64.4346 76.5282 63.8684 76.1098 63.2788 75.5632C62.6891 75.0166 62.1319 74.3822 61.607 73.6599C61.0821 72.9376 60.5975 72.1675 60.153 71.3496C59.7086 70.5316 59.3442 69.69 59.06 68.8248L58.58 68.8227L58.6825 78.3752L59.1145 78.3771C59.372 78.0262 59.6616 77.6595 59.9833 77.2769C60.3049 76.8943 60.5138 76.7032 60.6098 76.7036C60.7058 76.704 60.9373 76.817 61.3043 77.0426C61.6713 77.2682 62.2222 77.5186 62.9571 77.7938C63.6919 78.069 64.6189 78.305 65.738 78.5019C66.8572 78.6988 68.2007 78.8006 69.7687 78.8074C71.5927 78.8153 73.2736 78.6147 74.8114 78.2053C76.3492 77.796 77.6719 77.1618 78.7797 76.3026C79.8874 75.4434 80.7559 74.4071 81.3852 73.1939C82.0145 71.9806 82.3325 70.6059 82.3392 69.07Z"/>
<path d="M133.71 44.669L133.712 44.189L123.152 44.1431L123.15 44.6231C123.534 44.6568 123.965 44.7306 124.445 44.8447C124.924 44.9588 125.372 45.1208 125.787 45.3306C126.202 45.5404 126.553 45.7979 126.839 46.1032C127.126 46.4084 127.268 46.801 127.266 47.281C127.265 47.601 127.231 48.0969 127.164 48.7686C127.097 49.4403 126.836 50.5112 126.382 51.9812C126.025 53.1317 125.627 54.37 125.19 55.6961C124.752 57.0222 124.314 58.3483 123.876 59.6744C123.439 61.0005 123.001 62.3026 122.563 63.5807C122.126 64.8588 121.721 66.0171 121.348 67.0555C120.976 68.0939 120.668 68.9725 120.425 69.6915C120.182 70.4104 120.012 70.8817 119.915 71.1053C119.693 70.4963 119.338 69.5108 118.848 68.1486C118.357 66.7865 117.812 65.2481 117.212 63.5335C116.611 61.8188 115.979 60.0321 115.315 58.1732C114.651 56.3143 114.05 54.5916 113.513 53.0053C112.976 51.4189 112.534 50.073 112.187 48.9675C111.84 47.862 111.666 47.2132 111.667 47.0212C111.669 46.5412 111.871 46.1421 112.272 45.8238C112.674 45.5056 113.123 45.2595 113.62 45.0857C114.116 44.9118 114.613 44.794 115.109 44.7322C115.606 44.6703 115.95 44.6238 116.142 44.5926L116.144 44.1126L101.12 44.0474L101.118 44.5753C101.886 44.6107 102.541 44.7175 103.084 44.8959C103.628 45.0743 104.083 45.3002 104.449 45.5738C104.816 45.8474 105.103 46.1287 105.31 46.4176C105.517 46.7065 105.683 46.9792 105.81 47.2358C106.254 48.1657 106.666 49.1195 107.046 50.0972C107.426 51.0748 107.853 52.2047 108.327 53.4868C107.614 55.6917 106.9 57.8086 106.188 59.8375C105.475 61.8664 104.827 63.6876 104.244 65.3011C103.661 66.9146 103.175 68.2565 102.786 69.3268C102.398 70.3972 102.155 71.0601 102.058 71.3157C101.71 70.3542 101.251 69.1282 100.682 67.6377C100.112 66.1472 99.503 64.5445 98.8544 62.8297C98.2059 61.1148 97.5574 59.376 96.9091 57.6132C96.2607 55.8503 95.6678 54.2238 95.1303 52.7334C94.5927 51.243 94.1582 49.9771 93.8268 48.9357C93.4953 47.8942 93.3302 47.2295 93.3314 46.9415C93.3338 46.3975 93.4877 45.9662 93.7931 45.6475C94.0984 45.3288 94.4595 45.0904 94.8762 44.9322C95.2929 44.774 95.6934 44.6638 96.0776 44.6014C96.4619 44.5391 96.734 44.5083 96.894 44.509L96.8961 44.029L83.3603 43.9702L83.358 44.4982C84.0618 44.5332 84.6373 44.6557 85.0844 44.8657C85.5315 45.0756 85.9144 45.3173 86.2332 45.5907C86.5521 45.8641 86.7988 46.1451 86.9736 46.4339C87.1483 46.7227 87.2833 46.9632 87.3784 47.1557C87.5688 47.5405 87.7432 47.9092 87.9016 48.2619C88.0601 48.6146 88.2105 48.9833 88.3528 49.3679C88.4952 49.7525 88.6534 50.1692 88.8274 50.618C89.0015 51.0667 89.1992 51.5956 89.4205 52.2046C90.1798 54.2239 90.9389 56.2512 91.6981 58.2865C92.4573 60.3219 93.2402 62.4213 94.0468 64.5848C94.8534 66.7483 95.6916 69 96.5614 71.3398C97.4313 73.6796 98.3565 76.1476 99.3373 78.7439L99.9133 78.7464L102.046 74.0517C102.596 72.55 103.163 70.9925 103.746 69.379C104.329 67.7655 104.912 66.128 105.495 64.4666C106.079 62.8051 106.662 61.1676 107.245 59.5541C107.828 57.9406 108.378 56.399 108.897 54.9293C109.561 56.7242 110.209 58.543 110.841 60.3858C111.473 62.2285 112.129 64.1274 112.808 66.0824C113.488 68.0373 114.199 70.0724 114.942 72.1877C115.685 74.3029 116.483 76.5144 117.337 78.8222L117.817 78.8242L119.853 74.2251C120.469 72.4037 121.133 70.4786 121.846 68.4497C122.559 66.4207 123.264 64.3998 123.961 62.3868C124.657 60.3738 125.346 58.4168 126.026 56.5157C126.706 54.6147 127.306 52.8812 127.825 51.3155C128.149 50.3889 128.456 49.6142 128.747 48.9915C129.038 48.3687 129.312 47.8579 129.57 47.459C129.827 47.0601 130.053 46.7491 130.246 46.526C130.439 46.3028 130.583 46.1434 130.68 46.0478C130.776 45.9203 131.105 45.6817 131.667 45.3321C132.228 44.9826 132.909 44.7615 133.71 44.669Z"/>
<path d="M148.873 78.8152L148.876 78.3352C148.204 78.2683 147.453 78.089 146.622 77.7974C145.791 77.5058 145.185 77.0872 144.803 76.5415C144.549 76.1884 144.407 75.5798 144.379 74.7157C144.351 73.8515 144.339 72.9555 144.343 72.0275L144.39 61.1796C144.394 60.1876 144.398 59.2756 144.402 58.4436C144.406 57.5796 144.409 56.7476 144.413 55.9476C144.416 55.1476 144.428 54.3557 144.447 53.5717C144.467 52.7878 144.478 51.9959 144.481 51.1959C144.517 50.46 144.544 49.6761 144.564 48.8442C144.583 48.0123 144.738 47.325 145.029 46.7822C145.448 46.016 146.042 45.5066 146.811 45.2539C147.58 45.0013 148.301 44.8284 148.974 44.7353L148.976 44.2553L134.624 44.193L134.622 44.673C135.453 44.7726 136.197 44.9438 136.851 45.1867C137.506 45.4295 138.057 45.8239 138.502 46.3698C138.693 46.5947 138.836 46.9073 138.93 47.3077C139.025 47.7081 139.095 48.1564 139.14 48.6526C139.186 49.1488 139.208 49.6849 139.205 50.2609C139.203 50.8369 139.2 51.4129 139.198 51.9889L139.157 61.3488C139.153 62.2128 139.149 63.1408 139.145 64.1328C139.141 65.0928 139.129 66.0288 139.109 66.9407C139.089 67.8526 139.069 68.6925 139.05 69.4604C139.031 70.2284 139.02 70.8363 139.018 71.2843C139.016 71.7963 139.006 72.3163 138.987 72.8442C138.969 73.3721 138.935 73.876 138.885 74.3558C138.835 74.8356 138.769 75.2513 138.687 75.6029C138.606 75.9546 138.485 76.226 138.324 76.4173C137.841 76.9593 137.256 77.3727 136.566 77.6577C135.877 77.9427 135.132 78.1475 134.332 78.272L134.33 78.752L148.873 78.8152Z"/>
<path d="M183.74 52.4705L180.511 44.3924L153.824 44.2764L153.822 44.7564C154.685 44.8882 155.388 45.0272 155.932 45.1736C156.475 45.3199 156.986 45.6502 157.463 46.1642C157.655 46.3571 157.805 46.6697 157.915 47.1022C158.025 47.5347 158.103 48.023 158.149 48.5673C158.195 49.1115 158.224 49.6876 158.237 50.2957C158.251 50.9037 158.256 51.4957 158.254 52.0717L158.213 61.4317C158.209 62.2956 158.205 63.2236 158.201 64.2156C158.197 65.1756 158.185 66.1116 158.165 67.0235C158.145 67.9354 158.125 68.7753 158.106 69.5433C158.086 70.3112 158.076 70.9191 158.074 71.3671C158.072 71.8791 158.053 72.3991 158.019 72.9269C157.985 73.4548 157.927 73.9585 157.845 74.4382C157.762 74.9178 157.673 75.3414 157.575 75.709C157.477 76.0766 157.348 76.356 157.187 76.5473C156.737 77.0574 156.167 77.4549 155.478 77.7399C154.789 78.0249 154.044 78.2297 153.243 78.3542L153.241 78.8342L168.601 78.901L168.603 78.421C167.292 78.3513 166.292 78.1949 165.605 77.9519C164.918 77.7089 164.432 77.3628 164.146 76.9136C163.86 76.4643 163.679 75.7835 163.603 74.8712C163.527 73.9589 163.475 72.9906 163.447 71.9665C163.45 71.4225 163.445 70.7745 163.432 70.0224C163.419 69.2704 163.415 68.4463 163.419 67.5503C163.423 66.6223 163.427 65.6623 163.431 64.6704C163.435 63.6464 163.44 62.6224 163.444 61.5984C163.956 61.6006 164.388 61.6025 164.74 61.604C165.092 61.6056 165.428 61.607 165.748 61.6084C166.068 61.6098 166.404 61.6193 166.756 61.6368C167.108 61.6543 167.524 61.6801 168.004 61.7142C168.932 61.7822 169.739 61.9537 170.426 62.2287C171.113 62.5037 171.759 62.9145 172.364 63.4612C173.034 64.0721 173.606 64.9466 174.081 66.0847C174.556 67.2227 174.919 68.3043 175.171 69.3294L175.747 69.3319L175.814 53.8761L175.238 53.8736C175.107 54.673 174.959 55.4164 174.796 56.1037C174.633 56.791 174.359 57.4218 173.972 57.9961C173.586 58.5704 173.055 59.0641 172.382 59.4772C171.708 59.8903 170.794 60.2223 169.641 60.4733C169.193 60.5674 168.633 60.6369 167.96 60.682C167.288 60.7271 166.64 60.7643 166.016 60.7936C165.392 60.8228 164.824 60.8364 164.312 60.8342C163.832 60.8321 163.544 60.8308 163.448 60.8304C163.448 60.6704 163.451 60.1744 163.454 59.3424C163.458 58.4784 163.462 57.4544 163.468 56.2704C163.473 55.0864 163.486 53.8305 163.508 52.5026C163.53 51.1747 163.559 49.9508 163.596 48.8309C163.63 48.2551 163.665 47.7672 163.698 47.3674C163.732 46.9675 163.765 46.6396 163.799 46.3838C163.832 46.1279 163.873 45.9041 163.921 45.7123C163.97 45.5205 164.011 45.3287 164.044 45.1368C164.204 45.1375 164.452 45.1306 164.788 45.1161C165.124 45.1015 165.484 45.0871 165.868 45.0728C166.252 45.0584 166.652 45.0442 167.068 45.03C167.485 45.0158 167.853 45.0094 168.173 45.0108C170.061 45.019 171.716 45.1142 173.139 45.2964C174.563 45.4786 175.546 45.6988 176.088 45.9572C177.206 46.5061 178.354 47.3591 179.533 48.5162C180.712 49.6733 181.954 51.0707 183.259 52.7084L183.74 52.4705Z"/>
<path d="M218.872 53.4392L217.377 44.0726C216.64 44.2934 215.927 44.4743 215.239 44.6153C214.55 44.7563 213.678 44.8406 212.622 44.868C211.406 44.8627 210.318 44.8659 209.357 44.8778C208.397 44.8896 207.469 44.9016 206.573 44.9137C205.677 44.9258 204.749 44.9297 203.789 44.9256C202.861 44.9215 201.805 44.917 200.621 44.9118C199.437 44.9067 198.365 44.902 197.405 44.8978C196.477 44.8938 195.565 44.8898 194.669 44.8859C193.773 44.882 192.845 44.87 191.885 44.8498C190.926 44.8297 189.838 44.8009 188.622 44.7637C187.438 44.7265 186.534 44.6586 185.911 44.5599C185.287 44.4612 184.608 44.3302 183.872 44.167L182.393 53.2807L182.824 53.4265C183.019 52.8514 183.285 52.2605 183.624 51.654C183.962 51.0475 184.317 50.481 184.687 49.9546C185.057 49.4282 185.412 48.9417 185.75 48.4952C186.087 48.0487 186.385 47.714 186.642 47.4911C187.317 46.854 188.047 46.4092 188.832 46.1566C189.617 45.904 190.617 45.7643 191.834 45.7376C192.442 45.7403 192.978 45.7346 193.442 45.7206C193.906 45.7066 194.346 45.7005 194.762 45.7023C195.21 45.7043 195.674 45.7063 196.154 45.7084C196.666 45.7106 197.258 45.7132 197.93 45.7161L197.861 61.604C197.857 62.468 197.853 63.38 197.849 64.3399C197.845 65.2999 197.833 66.2279 197.813 67.1238C197.793 68.0197 197.773 68.8357 197.754 69.5716C197.735 70.3075 197.724 70.8995 197.722 71.3475C197.72 71.8595 197.71 72.3874 197.691 72.9313C197.673 73.4753 197.639 73.9791 197.589 74.4429C197.539 74.9067 197.473 75.3224 197.391 75.6901C197.31 76.0577 197.189 76.3212 197.028 76.4805C196.288 77.3093 195.534 77.834 194.765 78.0547C193.996 78.2753 193.196 78.4319 192.363 78.5242L192.361 79.0042L207.961 79.072L207.963 78.592C207.26 78.461 206.468 78.2655 205.589 78.0057C204.711 77.7459 204.033 77.2629 203.556 76.5569C203.301 76.2038 203.152 75.6031 203.108 74.7549C203.063 73.9067 203.043 73.0186 203.047 72.0906L203.093 61.4347C203.098 60.4427 203.103 59.2267 203.109 57.7867C203.116 56.3148 203.122 54.8268 203.129 53.3228C203.135 51.8188 203.15 50.3788 203.172 49.0029C203.193 47.627 203.206 46.5391 203.21 45.7391C203.914 45.7421 204.506 45.7447 204.986 45.7468C205.498 45.749 205.962 45.751 206.378 45.7528C206.826 45.7548 207.274 45.7647 207.722 45.7827C208.169 45.8006 208.697 45.8109 209.305 45.8136C210.521 45.8508 211.521 45.9752 212.304 46.1866C213.087 46.398 213.813 46.8252 214.482 47.4681C214.737 47.6932 215.04 48.0385 215.39 48.504C215.74 48.9696 216.098 49.4751 216.463 50.0207C216.829 50.5663 217.186 51.1519 217.536 51.7774C217.885 52.4029 218.186 53.0042 218.44 53.5813L218.872 53.4392Z"/>
</g>
<path d="M226.138 130.126C226.138 130.126 206.711 91.9148 162.231 66.1057C109.778 35.6701 38.7234 23.784 38.7234 23.784L84.6204 22.5378L136.849 22.9846L237.715 27.1196L234.101 83.0461L226.138 130.126Z" fill="#f98888" fill-rule="nonzero" filter="url(#Filter_6)" stroke="none"/>
<g opacity="1">
<path d="M55.5786 157.701C69.8315 157.701 84.0669 159.802 98.3432 159.615C124.071 159.279 149.812 157.234 175.546 159.158C188.102 160.097 200.919 159.821 213.515 159.821C217.431 159.821 221.334 160.022 225.248 160.113C226.754 160.148 228.269 160.301 229.773 160.365C229.894 160.371 230.438 160.4 230.29 160.247" fill="#b3b3b3" fill-rule="nonzero" opacity="1" stroke="#a09b9a" stroke-linecap="round" stroke-linejoin="round" stroke-width="1"/>
<path d="M59.0098 170.704C70.7664 170.704 82.5784 169.41 94.3219 169.287C113.284 169.089 132.55 168.943 151.487 169.979C168.197 170.894 184.895 172.05 201.637 172.359C212.201 172.554 222.717 171.236 233.243 171.236" fill="#b3b3b3" fill-rule="nonzero" opacity="1" stroke="#a09b9a" stroke-linecap="round" stroke-linejoin="round" stroke-width="1"/>
<path d="M51.7129 183.132C82.808 180.144 114.33 180.798 145.499 181.642C156.266 181.934 167.047 181.593 177.817 181.816C191.12 182.091 204.358 183.119 217.66 183.383C222.016 183.47 226.383 183.383 230.741 183.383C231.98 183.383 233.22 183.395 234.459 183.383C234.886 183.379 235.311 183.338 235.737 183.327C236.148 183.317 236.839 183.327 236.554 183.327" fill="#b3b3b3" fill-rule="nonzero" opacity="1" stroke="#a09b9a" stroke-linecap="round" stroke-linejoin="round" stroke-width="1"/>
<path d="M143.242 158.381C143.242 163.709 143.192 169.116 143.397 174.439C143.453 175.882 143.564 177.318 143.611 178.762C143.614 178.869 143.583 181.243 143.731 180.681" fill="#b3b3b3" fill-rule="nonzero" opacity="1" stroke="#a09b9a" stroke-linecap="round" stroke-linejoin="round" stroke-width="1"/>
<path d="M155.223 159.917C156.183 165.76 157.64 171.547 158.577 177.373C158.71 178.196 159.337 182.121 159.94 181.65" fill="#b3b3b3" fill-rule="nonzero" opacity="1" stroke="#a09b9a" stroke-linecap="round" stroke-linejoin="round" stroke-width="1"/>
<path d="M170.746 160.891C170.833 162.641 170.826 163.596 171.054 165.207C171.696 169.743 172.36 175.221 173.742 179.671C173.917 180.233 174.552 178.84 174.951 178.418" fill="#b3b3b3" fill-rule="nonzero" opacity="1" stroke="#a09b9a" stroke-linecap="round" stroke-linejoin="round" stroke-width="1"/>
<path d="M183.504 160.712C185.03 165.496 186.679 170.234 188.157 175.036C188.363 175.706 190.32 182.278 190.502 181.512" fill="#b3b3b3" fill-rule="nonzero" opacity="1" stroke="#a09b9a" stroke-linecap="round" stroke-linejoin="round" stroke-width="1"/>
<path d="M199.623 161.119C201.214 167.607 204.516 173.877 209.113 178.612C210.007 179.533 210.85 180.553 211.609 181.598C211.921 182.027 212.1 183.305 212.476 182.936" fill="#b3b3b3" fill-rule="nonzero" opacity="1" stroke="#a09b9a" stroke-linecap="round" stroke-linejoin="round" stroke-width="1"/>
<path d="M218.091 162.77C218.976 168.316 222.286 173.235 225.035 177.955C225.752 179.186 226.207 180.562 226.756 181.883C227.006 182.484 227.561 184.26 227.651 183.612" fill="#b3b3b3" fill-rule="nonzero" opacity="1" stroke="#a09b9a" stroke-linecap="round" stroke-linejoin="round" stroke-width="1"/>
<path d="M132.487 160.582C130.9 163.988 131.268 170.667 130.637 174.537C130.448 175.699 130.368 176.893 130.204 178.062C130.142 178.498 130.293 179.677 129.992 179.366" fill="#b3b3b3" fill-rule="nonzero" opacity="1" stroke="#a09b9a" stroke-linecap="round" stroke-linejoin="round" stroke-width="1"/>
<path d="M117.194 160.943C115.978 162.269 116.585 164.549 116.274 166.35C115.809 169.039 115.143 171.519 114.577 174.159C114.302 175.446 114.067 176.736 113.899 178.043C113.852 178.413 113.662 179.89 113.593 179.475" fill="#b3b3b3" fill-rule="nonzero" opacity="1" stroke="#a09b9a" stroke-linecap="round" stroke-linejoin="round" stroke-width="1"/>
<path d="M102.908 160.652C101.135 163.038 100.87 170.726 99.7336 174.109C99.3978 175.108 98.5094 176.912 98.1404 177.767C98.012 178.064 97.8551 179.465 97.9212 179.101" fill="#b3b3b3" fill-rule="nonzero" opacity="1" stroke="#a09b9a" stroke-linecap="round" stroke-linejoin="round" stroke-width="1"/>
<path d="M86.7063 159.256C85.4987 164.157 83.801 168.611 82.0116 173.279C81.4738 174.681 81.3568 176.143 80.8048 177.533C80.5302 178.224 79.9879 180.358 79.9879 179.61" fill="#b3b3b3" fill-rule="nonzero" opacity="1" stroke="#a09b9a" stroke-linecap="round" stroke-linejoin="round" stroke-width="1"/>
<path d="M71.6826 159.113C68.3319 163.64 66.911 170.398 64.1999 175.476C64.1363 175.595 62.4412 179.969 62.1884 179.969" fill="#b3b3b3" fill-rule="nonzero" opacity="1" stroke="#a09b9a" stroke-linecap="round" stroke-linejoin="round" stroke-width="1"/>
</g>
<path d="M758.332 129.265C752.936 129.729 747.51 129.82 742.099 130.07C740.354 130.15 735.033 131.173 733.376 131.905C726.499 134.941 726.844 144.223 726.53 146.331C726.141 148.931 726.648 151.661 727.424 154.161C729.156 159.747 744.26 159.468 749.652 159.63C752.115 159.704 754.597 159.894 757.058 159.864C757.983 159.853 757.59 159.852 759.209 159.905C759.381 159.91 760.206 159.815 759.957 159.818" fill="#ffb600" fill-rule="nonzero" filter="url(#Filter_7)" stroke="#ffebb7" stroke-linecap="round" stroke-linejoin="round" stroke-width="12"/>
<path d="M763.23 119.845C762.328 128.659 762.838 137.614 762.82 146.46C762.809 151.493 762.372 156.513 762.638 161.547C762.813 164.867 763.235 168.105 763.279 171.423" fill="none" filter="url(#Filter_8)" stroke="#ffb600" stroke-linecap="round" stroke-linejoin="round" stroke-width="8"/>
<path d="M745.494 144.009C745.712 144.009 745.569 143.595 745.569 143.847L741.937 145.01C741.937 145.262 744.648 144.478 744.43 144.478C744.43 144.478 743.8 144.717 743.8 144.465L743.8 144.465C743.8 144.213 745.494 144.009 745.494 144.009Z" fill="#5e5e5e" fill-rule="nonzero" opacity="1" stroke="#a6a6a6" stroke-linecap="round" stroke-linejoin="round" stroke-width="12"/>
<g fill="#ffd15d" opacity="1" stroke="none">
<path d="M75.8006 84.9455C78.7869 84.9455 80.9461 86.1755 82.2781 88.6354C83.3094 90.5368 83.825 93.1418 83.825 96.4504C83.825 99.5871 83.3577 102.181 82.4232 104.233C81.0696 107.176 78.8567 108.648 75.7845 108.648C73.013 108.648 70.9505 107.445 69.597 105.039C68.469 103.03 67.9051 100.334 67.9051 96.9499C67.9051 94.3288 68.2435 92.0783 68.9202 90.1984C70.1878 86.6965 72.4813 84.9455 75.8006 84.9455ZM75.7684 106.006C77.2723 106.006 78.47 105.34 79.3616 104.008C80.2532 102.675 80.699 100.194 80.699 96.5632C80.699 93.9421 80.3768 91.7856 79.7322 90.0937C79.0877 88.4018 77.8362 87.5558 75.9778 87.5558C74.2698 87.5558 73.0211 88.3588 72.2315 89.9648C71.4419 91.5707 71.0472 93.9367 71.0472 97.0627C71.0472 99.4152 71.2996 101.306 71.8045 102.735C72.5779 104.915 73.8992 106.006 75.7684 106.006Z"/>
<path d="M94.1536 84.9455C97.1399 84.9455 99.2991 86.1755 100.631 88.6354C101.662 90.5368 102.178 93.1418 102.178 96.4504C102.178 99.5871 101.711 102.181 100.776 104.233C99.4227 107.176 97.2098 108.648 94.1375 108.648C91.366 108.648 89.3035 107.445 87.95 105.039C86.8221 103.03 86.2581 100.334 86.2581 96.9499C86.2581 94.3288 86.5965 92.0783 87.2732 90.1984C88.5408 86.6965 90.8343 84.9455 94.1536 84.9455ZM94.1214 106.006C95.6253 106.006 96.8231 105.34 97.7147 104.008C98.6063 102.675 99.0521 100.194 99.0521 96.5632C99.0521 93.9421 98.7298 91.7856 98.0853 90.0937C97.4407 88.4018 96.1893 87.5558 94.3309 87.5558C92.6229 87.5558 91.3741 88.3588 90.5845 89.9648C89.795 91.5707 89.4002 93.9367 89.4002 97.0627C89.4002 99.4152 89.6526 101.306 90.1575 102.735C90.931 104.915 92.2523 106.006 94.1214 106.006Z"/>
<path d="M112.507 84.9455C115.493 84.9455 117.652 86.1755 118.984 88.6354C120.015 90.5368 120.531 93.1418 120.531 96.4504C120.531 99.5871 120.064 102.181 119.129 104.233C117.776 107.176 115.563 108.648 112.491 108.648C109.719 108.648 107.657 107.445 106.303 105.039C105.175 103.03 104.611 100.334 104.611 96.9499C104.611 94.3288 104.95 92.0783 105.626 90.1984C106.894 86.6965 109.187 84.9455 112.507 84.9455ZM112.474 106.006C113.978 106.006 115.176 105.34 116.068 104.008C116.959 102.675 117.405 100.194 117.405 96.5632C117.405 93.9421 117.083 91.7856 116.438 90.0937C115.794 88.4018 114.542 87.5558 112.684 87.5558C110.976 87.5558 109.727 88.3588 108.938 89.9648C108.148 91.5707 107.753 93.9367 107.753 97.0627C107.753 99.4152 108.006 101.306 108.511 102.735C109.284 104.915 110.605 106.006 112.474 106.006Z"/>
<path d="M130.86 84.9455C133.846 84.9455 136.005 86.1755 137.337 88.6354C138.368 90.5368 138.884 93.1418 138.884 96.4504C138.884 99.5871 138.417 102.181 137.482 104.233C136.129 107.176 133.916 108.648 130.844 108.648C128.072 108.648 126.01 107.445 124.656 105.039C123.528 103.03 122.964 100.334 122.964 96.9499C122.964 94.3288 123.303 92.0783 123.979 90.1984C125.247 86.6965 127.54 84.9455 130.86 84.9455ZM130.827 106.006C132.331 106.006 133.529 105.34 134.421 104.008C135.312 102.675 135.758 100.194 135.758 96.5632C135.758 93.9421 135.436 91.7856 134.791 90.0937C134.147 88.4018 132.895 87.5558 131.037 87.5558C129.329 87.5558 128.08 88.3588 127.291 89.9648C126.501 91.5707 126.106 93.9367 126.106 97.0627C126.106 99.4152 126.359 101.306 126.864 102.735C127.637 104.915 128.958 106.006 130.827 106.006Z"/>
<path d="M149.213 84.9455C152.199 84.9455 154.358 86.1755 155.69 88.6354C156.721 90.5368 157.237 93.1418 157.237 96.4504C157.237 99.5871 156.77 102.181 155.835 104.233C154.482 107.176 152.269 108.648 149.197 108.648C146.425 108.648 144.363 107.445 143.009 105.039C141.881 103.03 141.317 100.334 141.317 96.9499C141.317 94.3288 141.656 92.0783 142.332 90.1984C143.6 86.6965 145.893 84.9455 149.213 84.9455ZM149.18 106.006C150.684 106.006 151.882 105.34 152.774 104.008C153.665 102.675 154.111 100.194 154.111 96.5632C154.111 93.9421 153.789 91.7856 153.144 90.0937C152.5 88.4018 151.248 87.5558 149.39 87.5558C147.682 87.5558 146.433 88.3588 145.644 89.9648C144.854 91.5707 144.459 93.9367 144.459 97.0627C144.459 99.4152 144.712 101.306 145.217 102.735C145.99 104.915 147.311 106.006 149.18 106.006Z"/>
<path d="M161.797 91.6808L161.797 89.4572C163.892 89.2531 165.353 88.912 166.18 88.434C167.007 87.956 167.625 86.8254 168.033 85.0422L170.321 85.0422L170.321 108.02L167.227 108.02L167.227 91.6808L161.797 91.6808Z"/>
<path d="M185.919 84.9455C188.905 84.9455 191.064 86.1755 192.396 88.6354C193.428 90.5368 193.943 93.1418 193.943 96.4504C193.943 99.5871 193.476 102.181 192.541 104.233C191.188 107.176 188.975 108.648 185.903 108.648C183.131 108.648 181.069 107.445 179.715 105.039C178.587 103.03 178.023 100.334 178.023 96.9499C178.023 94.3288 178.362 92.0783 179.038 90.1984C180.306 86.6965 182.599 84.9455 185.919 84.9455ZM185.887 106.006C187.39 106.006 188.588 105.34 189.48 104.008C190.371 102.675 190.817 100.194 190.817 96.5632C190.817 93.9421 190.495 91.7856 189.85 90.0937C189.206 88.4018 187.954 87.5558 186.096 87.5558C184.388 87.5558 183.139 88.3588 182.35 89.9648C181.56 91.5707 181.165 93.9367 181.165 97.0627C181.165 99.4152 181.418 101.306 181.923 102.735C182.696 104.915 184.017 106.006 185.887 106.006Z"/>
<path d="M204.272 84.9455C207.258 84.9455 209.417 86.1755 210.749 88.6354C211.781 90.5368 212.296 93.1418 212.296 96.4504C212.296 99.5871 211.829 102.181 210.894 104.233C209.541 107.176 207.328 108.648 204.256 108.648C201.484 108.648 199.422 107.445 198.068 105.039C196.94 103.03 196.376 100.334 196.376 96.9499C196.376 94.3288 196.715 92.0783 197.391 90.1984C198.659 86.6965 200.952 84.9455 204.272 84.9455ZM204.24 106.006C205.743 106.006 206.941 105.34 207.833 104.008C208.724 102.675 209.17 100.194 209.17 96.5632C209.17 93.9421 208.848 91.7856 208.203 90.0937C207.559 88.4018 206.307 87.5558 204.449 87.5558C202.741 87.5558 201.492 88.3588 200.703 89.9648C199.913 91.5707 199.518 93.9367 199.518 97.0627C199.518 99.4152 199.771 101.306 200.276 102.735C201.049 104.915 202.37 106.006 204.24 106.006Z"/>
</g>
</g>
</svg>
