<!-- Created with Inkscape (http://www.inkscape.org/) -->
<svg inkscape:export-filename="contacts2-ystm.svg" inkscape:export-xdpi="96" inkscape:export-ydpi="96" inkscape:version="1.3.2 (091e20e, 2023-11-25)" version="1.1" viewBox="0 0 527.65 48.22" xmlns="http://www.w3.org/2000/svg" xmlns:inkscape="http://www.inkscape.org/namespaces/inkscape" xmlns:sodipodi="http://sodipodi.sourceforge.net/DTD/sodipodi-0.dtd"><sodipodi:namedview bordercolor="#cccccc" borderopacity="1" inkscape:current-layer="layer1" inkscape:deskcolor="#d1d1d1" inkscape:document-units="px" inkscape:pagecheckerboard="0" inkscape:pageopacity="1" inkscape:showpageshadow="0" pagecolor="#ffffff"><inkscape:page x="0" y="0" width="527.64935" height="48.220322" bleed="0" margin="0"/></sodipodi:namedview><defs><filter id="filter11" x="-.03159" y="-.21289" width="1.0632" height="1.4258" style="color-interpolation-filters:sRGB" inkscape:label="Evanescent" inkscape:menu="Blurs" inkscape:menu-tooltip="Blur the contents of objects, preserving the outline and adding progressive transparency at edges"><feGaussianBlur in="SourceGraphic" result="result6" stdDeviation="3"/><feColorMatrix in="SourceGraphic" result="result7" values="1 0 0 0 0 0 1 0 0 0 0 0 1 0 0 0 0 0 1 0 "/><feComposite in="result6" in2="result7" operator="in"/></filter></defs><g transform="translate(-20.595 -229.59)" inkscape:groupmode="layer" inkscape:label="Слой 1"><path transform="matrix(2.1775 0 0 1 -296.47 7.9602)" d="m152.81 232.95v-3.6387h3.1641v3.6387zm0 22.131v-18.668h3.1641v18.668zm10.898 0h-2.9355v-25.77h3.1641v9.1934q2.0039-2.5137 5.1152-2.5137 1.7227 0 3.252.70312 1.5469.68555 2.5312 1.9512 1.002 1.248 1.5644 3.0234t.5625 3.7969q0 4.7988-2.373 7.418-2.373 2.6191-5.6953 2.6191-3.3047 0-5.1856-2.7598zm-.0351-9.4746q0 3.3574.91406 4.8516 1.4941 2.4434 4.043 2.4434 2.0742 0 3.5859-1.793 1.5117-1.8105 1.5117-5.3789 0-3.6562-1.459-5.3965-1.4414-1.7402-3.498-1.7402-2.0742 0-3.5859 1.8106-1.5117 1.793-1.5117 5.2031zm15.961.14063q0-5.1856 2.8828-7.6816 2.4082-2.0742 5.8711-2.0742 3.8496 0 6.293 2.5312 2.4434 2.5137 2.4434 6.9609 0 3.6035-1.0898 5.6777-1.0723 2.0566-3.1465 3.1992-2.0566 1.1426-4.5 1.1426-3.9199 0-6.3457-2.5137-2.4082-2.5137-2.4082-7.2422zm3.252 0q0 3.5859 1.5644 5.3789 1.5644 1.7754 3.9375 1.7754 2.3555 0 3.9199-1.793 1.5644-1.793 1.5644-5.4668 0-3.4629-1.582-5.2383-1.5644-1.793-3.9023-1.793-2.373 0-3.9375 1.7754t-1.5644 5.3613zm17.279-13.061v-3.041h16.682v2.4609q-2.4609 2.6191-4.8867 6.9609-2.4082 4.3418-3.7266 8.9297-.94922 3.2344-1.2129 7.084h-3.252q.0527-3.041 1.1953-7.3477 1.1426-4.3066 3.2695-8.2969 2.1445-4.0078 4.5527-6.75zm38.725 19.529q-1.1426 1.3184-2.5664 2.127-1.4062.79102-2.8301.79102-1.5644 0-3.041-.91407-1.4766-.91406-2.4082-2.8125-.91406-1.8984-.91406-4.166 0-2.7949 1.4238-5.5898 1.4414-2.8125 3.5684-4.2188 2.127-1.4062 4.1309-1.4062 1.5293 0 2.918.8086 1.3887.79101 2.3906 2.4258l.59765-2.7246h3.1465l-2.5312 11.795q-.52735 2.4609-.52735 2.7246 0 .47461.35157.82617.36914.33399.8789.33399.93164 0 2.4434-1.0723 2.0039-1.4062 3.1641-3.7617 1.1777-2.373 1.1777-4.8867 0-2.9355-1.5117-5.4844-1.4941-2.5488-4.4824-4.0781-2.9707-1.5293-6.5742-1.5293-4.1133 0-7.5234 1.9336-3.3926 1.916-5.2734 5.5195-1.8633 3.5859-1.8633 7.6992 0 4.3066 1.8633 7.418 1.8808 3.1113 5.4141 4.5879 3.5508 1.4941 7.8574 1.4941 4.6055 0 7.7168-1.5469 3.1113-1.5469 4.6582-3.7617h3.1816q-.89648 1.8457-3.0762 3.7617-2.1797 1.916-5.1856 3.0234-3.0059 1.125-7.2422 1.125-3.9023 0-7.207-1.002-3.2871-1.002-5.6074-3.0234-2.3203-2.0039-3.498-4.623-1.4766-3.3223-1.4766-7.1719 0-4.2891 1.7578-8.1738 2.1445-4.7637 6.082-7.2949 3.9551-2.5312 9.5801-2.5312 4.3594 0 7.8223 1.793 3.4805 1.7754 5.4844 5.3086 1.7051 3.041 1.7051 6.6094 0 5.0976-3.5859 9.0527-3.1992 3.5508-6.9961 3.5508-1.2129 0-1.9688-.36914-.73828-.36914-1.0898-1.0547-.22852-.43946-.33399-1.5117zm-8.5078-4.7637q0 2.4082 1.1426 3.7442 1.1426 1.3359 2.6191 1.3359.98437 0 2.0742-.58008 1.0898-.59765 2.0742-1.7578 1.002-1.1602 1.6348-2.9355.63281-1.793.63281-3.5859 0-2.3906-1.1953-3.709-1.1777-1.3184-2.8828-1.3184-1.125 0-2.127.58008-.98438.5625-1.916 1.8281-.93164 1.2656-1.4941 3.0762t-.5625 3.3223zm27.018 7.6289v-18.668h2.8301v2.6191q.8789-1.3711 2.3379-2.1973 1.459-.84375 3.3223-.84375 2.0742 0 3.3926.86133 1.3359.86132 1.8809 2.4082 2.2148-3.2695 5.7656-3.2695 2.7773 0 4.2715 1.5469 1.4941 1.5293 1.4941 4.7285v12.814h-3.1465v-11.76q0-1.8984-.31641-2.7246-.29883-.84375-1.1074-1.3535-.8086-.50977-1.8984-.50977-1.9688 0-3.2695 1.3184-1.3008 1.3008-1.3008 4.1836v10.846h-3.1641v-12.129q0-2.1094-.77344-3.1641t-2.5312-1.0547q-1.3359 0-2.4785.70313-1.125.70312-1.6348 2.0566-.50977 1.3535-.50977 3.9023v9.6856zm42.768-6.0117 3.2695.4043q-.77344 2.8652-2.8652 4.4473-2.0918 1.582-5.3438 1.582-4.0957 0-6.5039-2.5137-2.3906-2.5312-2.3906-7.084 0-4.7109 2.4258-7.3125t6.293-2.6016q3.7441 0 6.1172 2.5488 2.373 2.5488 2.373 7.1719 0 .28125-.0176.84375h-13.922q.17578 3.0762 1.7402 4.7109 1.5644 1.6348 3.9023 1.6348 1.7402 0 2.9707-.91406 1.2305-.91406 1.9512-2.918zm-10.389-5.1152h10.424q-.21093-2.3555-1.1953-3.5332-1.5117-1.8281-3.9199-1.8281-2.1797 0-3.6738 1.459-1.4766 1.459-1.6348 3.9024zm18.527 11.127v-3.6035h3.6035v3.6035zm21.287-6.8379 3.1113.4043q-.50977 3.2168-2.6191 5.0449-2.0918 1.8106-5.1504 1.8106-3.832 0-6.1699-2.4961-2.3203-2.5137-2.3203-7.1894 0-3.0234 1.002-5.291 1.002-2.2676 3.041-3.3926 2.0566-1.1426 4.4648-1.1426 3.041 0 4.9746 1.5469 1.9336 1.5293 2.4785 4.3594l-3.0762.47461q-.43946-1.8809-1.5645-2.8301-1.1074-.94922-2.6894-.94922-2.3906 0-3.8848 1.7227-1.4941 1.7051-1.4941 5.4141 0 3.7617 1.4414 5.4668 1.4414 1.7051 3.7617 1.7051 1.8633 0 3.1113-1.1426 1.248-1.1426 1.582-3.5156zm4.6406-2.4961q0-5.1856 2.8828-7.6816 2.4082-2.0742 5.8711-2.0742 3.8496 0 6.293 2.5312 2.4434 2.5137 2.4434 6.9609 0 3.6035-1.0898 5.6777-1.0723 2.0566-3.1465 3.1992-2.0566 1.1426-4.5 1.1426-3.9199 0-6.3457-2.5137-2.4082-2.5137-2.4082-7.2422zm3.252 0q0 3.5859 1.5644 5.3789 1.5644 1.7754 3.9375 1.7754 2.3555 0 3.9199-1.793 1.5644-1.793 1.5644-5.4668 0-3.4629-1.582-5.2383-1.5644-1.793-3.9023-1.793-2.373 0-3.9375 1.7754t-1.5644 5.3613zm17.947 9.334v-18.668h2.8301v2.6191q.87891-1.3711 2.3379-2.1973 1.459-.84375 3.3223-.84375 2.0742 0 3.3926.86133 1.3359.86132 1.8809 2.4082 2.2148-3.2695 5.7656-3.2695 2.7773 0 4.2715 1.5469 1.4941 1.5293 1.4941 4.7285v12.814h-3.1465v-11.76q0-1.8984-.31641-2.7246-.29883-.84375-1.1074-1.3535t-1.8984-.50977q-1.9688 0-3.2695 1.3184-1.3008 1.3008-1.3008 4.1836v10.846h-3.1641v-12.129q0-2.1094-.77344-3.1641t-2.5312-1.0547q-1.3359 0-2.4785.70313-1.125.70312-1.6348 2.0566t-.50977 3.9023v9.6856z" style="fill:#888a85;filter:url(#filter11);paint-order:stroke fill markers;stroke-dasharray:3.35449, 3.35449;stroke-linecap:round;stroke-linejoin:round;stroke-width:.55908" aria-label="ibo7@me.com"/></g></svg>
