<?xml version="1.0" encoding="UTF-8" standalone="no"?>
<!DOCTYPE svg PUBLIC "-//W3C//DTD SVG 1.1//EN" "http://www.w3.org/Graphics/SVG/1.1/DTD/svg11.dtd">
<!-- Created with Vectornator (http://vectornator.io/) -->
<svg height="16rem" stroke-miterlimit="10" style="fill-rule:nonzero;clip-rule:evenodd;stroke-linecap:round;stroke-linejoin:round;" version="1.1" viewBox="0 0 512 512" width="16rem" xml:space="preserve" xmlns="http://www.w3.org/2000/svg" xmlns:vectornator="http://vectornator.io" xmlns:xlink="http://www.w3.org/1999/xlink">
<defs>
<clipPath id="TextBounds">
<rect height="553.374" width="422.521" x="51.3943" y="-54.9461"/>
</clipPath>
<radialGradient cx="221.658" cy="280.443" gradientTransform="matrix(1 0 0 1 -170.263 -284.889)" gradientUnits="userSpaceOnUse" id="RadialGradient" r="286.496">
<stop offset="0" stop-color="#e67b7b"/>
<stop offset="1" stop-color="#b93b3b"/>
</radialGradient>
<clipPath id="TextBounds_2">
<rect height="1" width="286.496" x="508.338" y="365.685"/>
</clipPath>
<linearGradient gradientTransform="matrix(1 0 0 1 0 0)" gradientUnits="userSpaceOnUse" id="LinearGradient" x1="508.338" x2="794.835" y1="416.185" y2="416.185">
<stop offset="0" stop-color="#e67b7b"/>
<stop offset="1" stop-color="#000000"/>
</linearGradient>
</defs>
<g id="Слой-1" vectornator:layerName="Слой 1">
<g opacity="1">
<path d="M35.9888 240.677L245.663 33.0111L476.011 176.583L266.337 384.248L35.9888 240.677Z" fill="#caffd4" fill-rule="evenodd" stroke="none"/>
<path d="M245.906 27.125C242.167 27.0741 239.564 30.4892 237.156 32.875C236.687 33.3399 236.219 33.8164 235.75 34.2812C234.812 35.211 233.876 36.1328 232.938 37.0625C231.999 37.9922 231.063 38.914 230.125 39.8438C218.866 51.0003 207.603 62.1559 196.344 73.3125C155.566 113.719 114.785 154.132 74 194.531C63.5966 204.836 53.1846 215.133 42.7812 225.438C40.1784 228.016 37.6028 230.609 35 233.188C34.4625 233.72 33.9125 234.249 33.375 234.781C33.3064 234.849 33.0074 235.149 32.9688 235.188C32.0393 235.696 31.194 236.349 30.5938 237.312C28.7324 240.299 29.6386 244.232 32.625 246.094C33.6374 246.725 32.9189 244.967 33.625 246.719C33.7736 247.088 34.3188 247.134 34.6562 247.344C34.9937 247.554 35.3188 247.758 35.6562 247.969C37.0061 248.81 38.3689 249.659 39.7188 250.5C45.9053 254.355 52.0634 258.208 58.25 262.062C80.5405 275.952 102.835 289.829 125.125 303.719C158.621 324.59 192.129 345.472 225.625 366.344C234.236 371.709 242.858 377.072 251.469 382.438C254.303 384.204 257.134 385.984 259.969 387.75C260.757 388.241 261.525 388.728 262.312 389.219C262.446 389.302 262.8 389.62 262.969 389.625C265.092 389.691 267.224 389.949 269.344 389.812C269.744 389.787 270.015 389.387 270.344 389.156C270.955 388.726 271.471 388.086 272 387.562C273.473 386.102 274.964 384.648 276.438 383.188C277.376 382.258 278.312 381.305 279.25 380.375C286.756 372.937 294.245 365.501 301.75 358.062C331.051 329.019 360.358 299.984 389.656 270.938C413.024 247.77 436.383 224.605 459.75 201.438C465.276 195.958 470.817 190.479 476.344 185C476.878 184.47 477.403 183.936 477.938 183.406C478.943 182.41 480.372 181.194 481.094 179.938C481.827 178.661 482.145 177.183 481.938 175.719C481.729 174.252 481.032 172.897 479.969 171.875C479.271 171.204 478.323 170.7 477.5 170.188C476.3 169.44 475.106 168.685 473.906 167.938C467.906 164.202 461.907 160.486 455.906 156.75C429.504 140.313 403.09 123.874 376.688 107.438C345.184 87.8252 313.686 68.2137 282.188 48.5938C274.088 43.5486 265.974 38.5143 257.875 33.4688C256.675 32.7213 255.481 31.9662 254.281 31.2188C253.381 30.6581 252.462 30.0919 251.562 29.5312C249.782 28.4221 248.114 27.155 245.906 27.125ZM246.531 40.6875C247.575 41.3383 248.613 42.0054 249.656 42.6562C254.155 45.4615 258.658 48.2571 263.156 51.0625C276.651 59.4787 290.132 67.893 303.625 76.3125C343.803 101.384 383.978 126.46 424.156 151.531C434.95 158.267 445.737 165.014 456.531 171.75C459.713 173.735 462.912 175.702 466.094 177.688C463.505 180.249 460.901 182.814 458.312 185.375C449.886 193.712 441.457 202.038 433.031 210.375C401.239 241.829 369.444 273.292 337.656 304.75C319.434 322.783 301.222 340.81 283 358.844C278.775 363.025 274.537 367.194 270.312 371.375C268.904 372.769 267.502 374.169 266.094 375.562C265.874 375.78 265.657 376 265.438 376.219C264.529 375.652 263.628 375.098 262.719 374.531C257.959 371.564 253.197 368.593 248.438 365.625C233.998 356.623 219.564 347.627 205.125 338.625C168.317 315.677 131.495 292.729 94.6875 269.781C80.9667 261.227 67.2521 252.648 53.5312 244.094C50.995 242.513 48.4425 240.956 45.9062 239.375C46.4192 238.867 46.9246 238.352 47.4375 237.844C51.6751 233.647 55.9186 229.446 60.1562 225.25C80.0089 205.59 99.8661 185.91 119.719 166.25C151.862 134.419 184.008 102.607 216.156 70.7812C223.666 63.3471 231.178 55.9029 238.688 48.4688C241.034 46.1456 243.372 43.8232 245.719 41.5C245.991 41.2301 246.259 40.9574 246.531 40.6875Z" fill="#3f864d" stroke="none"/>
</g>
<g fill="url(#RadialGradient)" opacity="1" stroke="none">
<path clip-path="url(#TextBounds)" d="M347.405 407.554L301.405 318.554C297.405 311.054 293.405 310.054 283.905 312.054L232.905 324.054C231.405 325.054 230.905 324.054 230.905 321.554L235.405 222.554C235.405 218.054 237.905 216.054 242.405 216.054L296.905 216.054C304.405 214.554 306.405 219.054 308.405 222.554C308.905 224.554 310.905 228.054 313.405 233.054C315.905 238.054 317.405 243.054 318.905 248.554C322.905 254.554 327.405 250.554 328.905 247.054L344.905 209.554C348.405 201.554 338.905 201.554 334.405 201.554L194.905 201.554C190.905 201.554 187.905 202.054 186.405 202.554C182.405 204.554 181.405 207.554 181.905 210.054L181.905 214.054C181.905 214.054 181.905 217.054 182.405 223.554L182.405 277.554C182.405 299.054 181.905 316.054 180.405 338.554L178.905 370.554L177.405 395.554L176.405 405.554C176.405 414.054 178.905 420.054 188.905 420.054L336.405 420.054C340.905 420.054 343.905 419.554 345.905 418.554C349.905 416.554 350.405 414.054 348.905 411.054L347.405 407.554ZM296.905 398.554C299.405 404.054 300.905 406.054 295.405 406.054L233.905 406.054C228.405 406.054 227.405 403.554 227.405 396.054L228.905 359.054C229.905 351.554 230.905 346.554 231.905 343.054C232.905 340.054 234.405 338.054 236.405 337.554L257.405 332.554C259.905 331.054 262.405 333.554 264.405 335.554C265.405 337.054 266.405 338.054 266.905 339.554C267.405 341.054 267.405 342.054 267.905 342.554L296.905 398.554Z" fill-rule="evenodd"/>
<path clip-path="url(#TextBounds)" d="M353.405 112.554C354.905 112.554 355.905 111.054 355.905 108.554C355.905 105.554 354.905 104.054 353.405 104.054C352.905 104.054 351.905 103.554 350.905 103.054C349.405 102.554 347.905 102.554 346.405 102.554C342.405 103.054 340.905 98.5539 340.405 95.0539C339.905 93.0539 339.905 90.5539 339.905 87.0539L339.905 57.0539C339.905 53.5539 339.405 51.0539 335.905 49.5539C331.405 49.0539 325.905 49.0539 318.405 49.0539L301.405 49.0539C299.405 49.0539 297.905 52.0539 297.905 54.0539C297.905 56.5539 297.905 59.5539 298.405 63.0539C298.405 70.0539 298.905 77.5539 298.905 84.0539C298.905 90.0539 298.905 94.0539 297.905 98.0539C297.405 100.554 295.905 101.554 293.905 101.554C273.905 101.554 248.905 101.054 224.905 100.054C200.905 99.0539 178.405 97.5539 162.405 93.5539C156.905 92.0539 154.405 100.554 161.905 106.054C163.405 107.554 163.905 109.054 163.405 111.554C162.905 114.054 162.405 116.054 162.405 118.054C162.405 125.054 162.905 131.054 163.405 135.554C163.905 140.054 163.905 144.054 163.405 146.554C163.405 149.054 164.905 150.554 167.405 150.554C175.905 152.054 194.405 152.554 201.905 151.054C203.405 150.554 204.405 149.054 204.405 147.054C203.905 142.054 203.405 136.554 203.405 130.554C203.405 124.554 203.905 119.554 204.405 116.054C204.405 113.554 205.405 112.554 207.905 112.554C227.905 113.054 255.405 113.554 282.905 113.554C309.405 113.554 335.905 113.054 353.405 112.554Z" fill-rule="evenodd"/>
</g>
<g fill="url(#LinearGradient)" opacity="1" stroke="none"/>
</g>
</svg>
