<?xml version="1.0" encoding="UTF-8" standalone="no"?>
<!-- Created with EazyDraw for Mac ( https://www.eazydraw.com/ ) -->

<svg version="1.1" width="335.577830995" height="335.577830995" viewBox="0, 0, 335.577830995, 335.577830995" preserveAspectRatio="none" id="svg2" sodipodi:docname="XB.svg" inkscape:version="1.4 (e7c3feb1, 2024-10-09)" xmlns:inkscape="http://www.inkscape.org/namespaces/inkscape" xmlns:sodipodi="http://sodipodi.sourceforge.net/DTD/sodipodi-0.dtd" xmlns="http://www.w3.org/2000/svg" xmlns:svg="http://www.w3.org/2000/svg" xmlns:rdf="http://www.w3.org/1999/02/22-rdf-syntax-ns#" xmlns:cc="http://creativecommons.org/ns#" xmlns:dc="http://purl.org/dc/elements/1.1/">
  <sodipodi:namedview id="namedview1" pagecolor="#ffffff" bordercolor="#cccccc" borderopacity="1" inkscape:showpageshadow="0" inkscape:pageopacity="1" inkscape:pagecheckerboard="0" inkscape:deskcolor="#d1d1d1" inkscape:current-layer="layer_Paper" />
  <defs id="defs_97CF81EF" />
  <metadata id="metadata7">
    <rdf:RDF>
      <cc:Work rdf:about="">
        <dc:format>image/svg+xml</dc:format>
        <dc:type rdf:resource="http://purl.org/dc/dcmitype/StillImage" />
      </cc:Work>
    </rdf:RDF>
  </metadata>
  <g id="layer_Paper" style="fill:#000000;fill-opacity:1;stroke:#000000;stroke-opacity:1;fill-rule:nonzero;stroke-linecap:square;stroke-linejoin:miter;stroke-width:1;stroke-miterlimit:10">
    <g id="B62BB7CE_groupWithCenterMark">
      <rect style="fill:#FF3333;stroke:none" id="B62BB7CE" x="18.9414919706" y="14.8417246381" width="297.121424724" height="297.121424724" />
      <path style="fill:none" id="B62BB7CE_CenterMark" d="M157.502204332,163.402437 L162.502204332,163.402437 M165.002204332,163.402437 L170.002204332,163.402437 M172.502204332,163.402437 L177.502204332,163.402437 M167.502204332,153.402437 L167.502204332,158.402437 M167.502204332,160.902437 L167.502204332,165.902437 M167.502204332,168.402437 L167.502204332,173.402437" />
    </g>
    <circle style="fill:#FFFF00;stroke:#FF3333;stroke-width:18.7961719543;stroke-miterlimit:9;stroke-dasharray:16,16" id="0BD3C8AF" cx="167.788915497" cy="167.788915497" r="158.39082952" />
    <path d="m 198.03073,129.19852 c -2.886,-8.658 -2.886,-14.43 -0.888,-25.308 0,-0.444 0.222,-0.888 0.444,-1.554 0.222,-0.444 0.444,-1.11 0.444,-1.776 0.666,-4.218003 -3.774,-3.774003 -7.992,-3.108003 -4.662,0.222 -10.212,4.884003 -15.762,11.544003 -5.55,6.66 -11.1,15.096 -15.762,22.866 l -21.978,35.52 -34.41,-65.49 h 8.88 V 97.452517 H 67.494728 v 4.440003 h 8.88 l 46.398002,88.134 -15.984,25.53 c -0.666,-0.222 -1.332,-0.222 -1.998,-0.444 -0.666,-0.222 -1.554,-0.222 -2.22,-0.222 -8.880002,0 -15.762002,7.104 -15.762002,15.762 0,4.218 1.554,7.77 4.44,10.656 l -10.434,16.872 c -3.33,5.106 -9.99,5.772 -14.652,5.772 v 4.44 h 39.072002 v -4.44 c -5.994002,0 -10.878002,-0.222 -12.432002,-1.776 -1.554,-1.11 -1.998,-3.552 -0.444,-6.216 l 5.994,-10.212 c 0.666,0.222 1.332,0.222 1.998002,0.222 h 2.22 c 8.658,0 15.318,-6.66 15.318,-15.318 0,-4.218 -1.332,-7.77 -3.996,-10.656 l 13.098,-21.534 34.854,65.49 h -8.88 v 4.44 h 43.956 v -4.44 h -8.88 l -47.508,-88.134 17.316,-27.528 c 4.44,-7.104 8.88,-12.21 13.32,-15.318 4.44,-2.886 7.992,-4.44 10.434,-4.44 3.774,0 6.438,0.888 8.436,1.776 1.998,1.11 3.996,2.22 7.326,3.108 0.666,0 1.11,-0.444 1.332,-1.11 0.222,-0.666 0,-1.776 -0.666,-3.108 z m 21.08992,134.754 h -8.88 v 4.44 h 102.786 v -4.44 h -8.88 v -56.166 l -55.056,-25.974 15.54,-27.306 c 14.43,0 24.42,-3.33 30.636,-8.436 6.216,-5.106 8.88,-12.21 8.88,-19.314 0,-12.654 -6.216,-19.98 -15.762,-24.198 -9.546,-4.218003 -22.2,-5.106003 -35.298,-5.106003 -9.102,0 -17.538,1.554 -23.754,5.106003 -6.216,3.552 -10.212,8.88 -10.212,16.872 z m 63.048,-137.196 c 0,5.106 -1.998,10.878 -5.55,15.54 -3.552,4.662 -8.658,7.992 -15.096,7.992 l -16.872,29.526 v -57.498 c 0,-9.102 2.22,-14.43 5.328,-17.316 3.108,-2.664 6.66,-3.108 9.99,-3.108 6.882,0 12.432,1.11 16.206,4.662 3.774,3.552 5.994,9.768 5.994,20.202 z m -37.518,137.196 v -79.032 l 33.966,15.984 v 63.048 z" id="4898CCCF" style="font-size:222px;font-family:Clunya;stroke:none" transform="matrix(0.841604179466,0,0,0.795442467652,8.843987651557,11.7400738778)" aria-label="ХВ" />
  </g>
</svg>
