<?xml version="1.0" encoding="UTF-8" standalone="no"?><!-- Generator: Gravit.io --><svg xmlns="http://www.w3.org/2000/svg" xmlns:xlink="http://www.w3.org/1999/xlink" style="isolation:isolate" viewBox="-52.298 326 512.78 513.755" width="512.78pt" height="513.755pt"><defs><clipPath id="_clipPath_v85ZywfD0np6g4o5EhJwszPZ5VQuABSO"><rect x="-52.298" y="326" width="512.78" height="513.755"/></clipPath></defs><g clip-path="url(#_clipPath_v85ZywfD0np6g4o5EhJwszPZ5VQuABSO)"><g><defs><filter id="qZNSerCk2zrHQw6hXUnpXrQ5L6ZvjvAB" x="-200%" y="-200%" width="400%" height="400%" filterUnits="objectBoundingBox" color-interpolation-filters="sRGB"><feGaussianBlur xmlns="http://www.w3.org/2000/svg" in="SourceGraphic" stdDeviation="10.73402265709757"/><feOffset xmlns="http://www.w3.org/2000/svg" dx="13" dy="18" result="pf_100_offsetBlur"/><feFlood xmlns="http://www.w3.org/2000/svg" flood-color="#000000" flood-opacity="0.65"/><feComposite xmlns="http://www.w3.org/2000/svg" in2="pf_100_offsetBlur" operator="in" result="pf_100_dropShadow"/><feBlend xmlns="http://www.w3.org/2000/svg" in="SourceGraphic" in2="pf_100_dropShadow" mode="normal"/></filter></defs><g filter="url(#qZNSerCk2zrHQw6hXUnpXrQ5L6ZvjvAB)"><path d=" M 275.31 788.132 C 201.179 795.617 134.241 734.821 125.924 652.453 C 117.607 570.085 171.04 497.135 245.172 489.649 C 319.303 482.164 386.241 542.96 394.558 625.328 C 402.875 707.697 349.442 780.646 275.31 788.132 Z  M 265.313 738.887 C 210.4 744.432 161.317 704.351 155.772 649.439 C 150.228 594.527 190.308 545.443 245.22 539.899 C 300.132 534.354 349.216 574.434 354.76 629.347 C 360.305 684.259 320.225 733.342 265.313 738.887 Z " fill-rule="evenodd" fill="rgb(116,116,116)"/></g></g><g><defs><filter id="6gLV1mBoEsQ8N6hNRwvrLw7pK58nDSMg" x="-200%" y="-200%" width="400%" height="400%" filterUnits="objectBoundingBox" color-interpolation-filters="sRGB"><feGaussianBlur xmlns="http://www.w3.org/2000/svg" in="SourceGraphic" stdDeviation="10.73402265709757"/><feOffset xmlns="http://www.w3.org/2000/svg" dx="13" dy="18" result="pf_100_offsetBlur"/><feFlood xmlns="http://www.w3.org/2000/svg" flood-color="#000000" flood-opacity="0.65"/><feComposite xmlns="http://www.w3.org/2000/svg" in2="pf_100_offsetBlur" operator="in" result="pf_100_dropShadow"/><feBlend xmlns="http://www.w3.org/2000/svg" in="SourceGraphic" in2="pf_100_dropShadow" mode="normal"/></filter></defs><g filter="url(#6gLV1mBoEsQ8N6hNRwvrLw7pK58nDSMg)"><path d=" M 8.112 719.198 C -46.681 668.708 -45.619 578.289 10.482 517.408 C 66.582 456.527 156.614 448.092 211.406 498.583 C 266.199 549.073 265.137 639.492 209.036 700.373 C 152.935 761.254 62.904 769.689 8.112 719.198 Z  M 38.317 679.041 C -2.27 641.64 -4.857 578.325 32.543 537.737 C 69.944 497.15 133.26 494.563 173.847 531.964 C 214.434 569.364 217.021 632.68 179.621 673.267 C 142.22 713.854 78.904 716.441 38.317 679.041 Z " fill-rule="evenodd" fill="rgb(116,116,116)"/></g></g><g><defs><filter id="dkLRXn1Vun4ATwhEwo5qYH3QtWnVYy6f" x="-200%" y="-200%" width="400%" height="400%" filterUnits="objectBoundingBox" color-interpolation-filters="sRGB"><feGaussianBlur xmlns="http://www.w3.org/2000/svg" in="SourceGraphic" stdDeviation="10.73402265709757"/><feOffset xmlns="http://www.w3.org/2000/svg" dx="13" dy="18" result="pf_100_offsetBlur"/><feFlood xmlns="http://www.w3.org/2000/svg" flood-color="#000000" flood-opacity="0.65"/><feComposite xmlns="http://www.w3.org/2000/svg" in2="pf_100_offsetBlur" operator="in" result="pf_100_dropShadow"/><feBlend xmlns="http://www.w3.org/2000/svg" in="SourceGraphic" in2="pf_100_dropShadow" mode="normal"/></filter></defs><g filter="url(#dkLRXn1Vun4ATwhEwo5qYH3QtWnVYy6f)"><path d=" M 319.66 616.901 C 270.637 673.011 180.221 674.342 117.877 619.872 C 55.533 565.402 44.718 475.626 93.741 419.516 C 142.764 363.407 233.18 362.076 295.524 416.546 C 357.867 471.016 368.682 560.792 319.66 616.901 Z  M 278.717 587.769 C 242.403 629.332 179.178 633.594 137.616 597.28 C 96.053 560.967 91.791 497.742 128.104 456.179 C 164.418 414.617 227.643 410.355 269.206 446.668 C 310.768 482.981 315.03 546.207 278.717 587.769 Z " fill-rule="evenodd" fill="rgb(116,116,116)"/></g></g></g></svg>