<?xml version="1.0" encoding="UTF-8" standalone="no"?>
<!DOCTYPE svg PUBLIC "-//W3C//DTD SVG 1.1//EN" "http://www.w3.org/Graphics/SVG/1.1/DTD/svg11.dtd">
<!-- Created with Vectornator (http://vectornator.io/) -->
<svg height="100%" stroke-miterlimit="10" style="fill-rule:nonzero;clip-rule:evenodd;stroke-linecap:round;stroke-linejoin:round;" version="1.1" viewBox="0 0 598 584" width="100%" xml:space="preserve" xmlns="http://www.w3.org/2000/svg" xmlns:vectornator="http://vectornator.io" xmlns:xlink="http://www.w3.org/1999/xlink">
<defs/>
<g id="Слой-1" vectornator:layerName="Слой-1">
<path d="M254.227 12.7778C236.894 15.4444 223.394 18.2778 213.727 21.2778C204.061 24.2778 187.279 30.7397 187.279 30.7397L170.034 39.0713C170.034 39.0713 162.612 42.3328 150.945 49.3328C145.87 52.3779 138.973 56.8743 131.727 62.3561C122.317 69.4756 113.377 77.4657 113.377 77.4657C113.377 77.4657 107.394 82.6111 99.7273 90.2778C92.0606 97.9444 84.7273 106.111 77.7273 114.778C70.7273 123.444 64.0606 132.944 57.7273 143.278C51.3939 153.611 44.3939 168.278 36.7273 187.278C29.0606 206.278 23.7273 224.444 20.7273 241.778C17.7273 259.111 16.2273 275.778 16.2273 291.778C16.2273 307.778 17.5606 323.611 20.2273 339.278C22.8939 354.944 25.7273 367.611 28.7273 377.278C31.7273 386.944 35.8939 397.444 41.2273 408.778C46.5606 420.111 52.0606 430.444 57.7273 439.778C63.3939 449.111 68.8939 457.278 74.2273 464.278C79.5606 471.278 87.8939 480.444 99.2273 491.778C110.561 503.111 122.227 513.111 134.227 521.778C146.227 530.444 161.727 539.111 180.727 547.778C199.727 556.444 216.394 562.611 230.727 566.278C245.061 569.944 256.227 572.278 264.227 573.278C272.227 574.278 283.727 574.778 298.727 574.778C313.727 574.778 329.894 573.278 347.227 570.278C364.561 567.278 377.894 564.278 387.227 561.278C396.561 558.278 405.394 554.611 413.727 550.278C422.061 545.944 426.894 543.778 428.227 543.778C429.561 543.778 437.894 538.778 453.227 528.778C468.561 518.778 482.227 508.111 494.227 496.778C506.227 485.444 517.894 471.778 529.227 455.778C540.561 439.778 549.727 424.111 556.727 408.778C563.727 393.444 569.561 376.278 574.227 357.278C578.894 338.278 581.394 318.611 581.727 298.278C582.061 277.944 580.561 258.778 577.227 240.778C573.894 222.778 570.727 209.278 567.727 200.278C564.727 191.278 561.061 182.111 556.727 172.778C552.394 163.444 545.561 151.611 536.227 137.278C526.894 122.944 519.394 112.444 513.727 105.778C508.061 99.1111 501.061 91.9444 492.727 84.2778C484.394 76.6111 471.894 67.2778 455.227 56.2778C438.561 45.2778 422.561 36.6111 407.227 30.2778C391.894 23.9444 375.894 18.9444 359.227 15.2778C342.561 11.6111 325.227 9.61111 307.227 9.27778C289.227 8.94444 271.561 10.1111 254.227 12.7778ZM284.227 103.278C286.894 103.611 289.561 106.111 292.227 110.778C294.894 115.444 297.061 117.444 298.727 116.778C300.394 116.111 302.394 113.611 304.727 109.278C307.061 104.944 314.227 103.111 326.227 103.778C338.227 104.444 348.394 105.611 356.727 107.278C365.061 108.944 374.061 111.444 383.727 114.778C393.394 118.111 402.894 122.278 412.227 127.278C421.561 132.278 426.061 143.944 425.727 162.278C425.394 180.611 425.561 192.778 426.227 198.778C426.894 204.778 428.394 213.611 430.727 225.278C433.061 236.944 436.561 249.944 441.227 264.278C445.894 278.611 451.227 291.944 457.227 304.278C463.227 316.611 468.561 326.278 473.227 333.278C477.894 340.278 483.727 347.944 490.727 356.278C497.727 364.611 503.894 371.111 509.227 375.778C514.561 380.444 519.061 383.778 522.727 385.778C526.394 387.778 528.394 389.278 528.727 390.278C529.061 391.278 528.727 392.278 527.727 393.278C526.727 394.278 525.227 395.111 523.227 395.778C521.227 396.444 520.227 397.111 520.227 397.778C520.227 398.444 516.227 401.278 508.227 406.278C500.227 411.278 491.227 416.278 481.227 421.278C471.227 426.278 462.227 430.111 454.227 432.778C446.227 435.444 435.394 420.278 421.727 387.278C408.061 354.278 394.727 339.944 381.727 344.278C368.727 348.611 357.061 351.444 346.727 352.778C336.394 354.111 331.394 359.778 331.727 369.778C332.061 379.778 333.561 397.278 336.227 422.278C337.561 434.778 338.894 447.278 340.227 459.778C328.727 459.944 317.227 460.111 305.727 460.278C282.727 460.611 270.061 460.611 267.727 460.278C265.394 459.944 264.061 458.778 263.727 456.778C263.394 454.778 264.394 445.278 266.727 428.278C269.061 411.278 270.561 394.611 271.227 378.278C271.894 361.944 267.894 353.278 259.227 352.278C250.561 351.278 241.727 349.278 232.727 346.278C223.727 343.278 207.894 356.778 185.227 386.778C162.561 416.778 148.227 430.778 142.227 428.778C136.227 426.778 128.394 423.278 118.727 418.278C109.061 413.278 98.2273 406.611 86.2273 398.278C74.2273 389.944 68.2273 385.111 68.2273 383.778C68.2273 382.444 74.2273 379.278 86.2273 374.278C98.2273 369.278 107.894 364.444 115.227 359.778C122.561 355.111 126.227 352.444 126.227 351.778C126.227 351.444 126.227 351.111 126.227 350.778C126.727 350.778 127.227 350.778 127.727 350.778C128.727 350.778 134.061 346.778 143.727 338.778C153.394 330.778 160.061 324.778 163.727 320.778C165.561 318.778 167.394 316.778 169.227 314.778C166.061 311.944 162.894 309.111 159.727 306.278C153.394 300.611 148.394 295.444 144.727 290.778C141.061 286.111 136.894 278.778 132.227 268.778C127.561 258.778 124.894 251.944 124.227 248.278C123.561 244.611 123.394 237.278 123.727 226.278C124.061 215.278 125.061 207.111 126.727 201.778C128.394 196.444 131.061 190.444 134.727 183.778C138.394 177.111 144.227 169.444 152.227 160.778C160.227 152.111 168.227 144.944 176.227 139.278C184.227 133.611 195.227 127.778 209.227 121.778C223.227 115.778 238.561 111.111 255.227 107.778C271.894 104.444 281.561 102.944 284.227 103.278ZM235.727 170.278C224.727 173.278 216.894 176.278 212.227 179.278C207.561 182.278 203.561 185.444 200.227 188.778C196.894 192.111 193.394 197.444 189.727 204.778C186.061 212.111 184.227 219.611 184.227 227.278C184.227 234.944 185.894 242.278 189.227 249.278C192.561 256.278 197.727 262.778 204.727 268.778C211.727 274.778 220.061 279.444 229.727 282.778C239.394 286.111 249.394 287.778 259.727 287.778C264.894 287.778 270.061 287.778 275.227 287.778C274.894 267.611 274.561 247.444 274.227 227.278C273.561 186.944 269.727 166.611 262.727 166.278C255.727 165.944 246.727 167.278 235.727 170.278ZM326.227 227.778C326.227 246.111 326.227 264.444 326.227 282.778C334.894 281.611 343.561 280.444 352.227 279.278C360.894 278.111 369.561 276.944 378.227 275.778C375.894 258.778 373.561 241.778 371.227 224.778C366.561 190.778 357.894 173.611 345.227 173.278C338.894 173.111 332.561 172.944 326.227 172.778C326.227 191.111 326.227 209.444 326.227 227.778Z" fill="#0062ff" fill-rule="nonzero" opacity="1" stroke="none" vectornator:layerName="path"/>
</g>
</svg>
