<?xml version="1.0" encoding="UTF-8"?>
<!-- Created with Inkscape (http://www.inkscape.org/) -->
<svg inkscape:export-filename="flag.svg" inkscape:export-xdpi="96" inkscape:export-ydpi="96" inkscape:version="1.3.2 (091e20e, 2023-11-25)" sodipodi:docname="ya-pointer-inkscape.svg" version="1.1" viewBox="0 0 512 512" xmlns="http://www.w3.org/2000/svg" xmlns:inkscape="http://www.inkscape.org/namespaces/inkscape" xmlns:sodipodi="http://sodipodi.sourceforge.net/DTD/sodipodi-0.dtd" xmlns:xlink="http://www.w3.org/1999/xlink">
 <sodipodi:namedview bordercolor="#cccccc" borderopacity="1" inkscape:current-layer="g21" inkscape:cx="326.1891" inkscape:cy="128.07924" inkscape:deskcolor="#d1d1d1" inkscape:document-units="px" inkscape:pagecheckerboard="0" inkscape:pageopacity="1" inkscape:showpageshadow="0" inkscape:zoom="4.2981203" pagecolor="#ffffff"/>
 <defs>
  <linearGradient id="linearGradient5" x1="93.291" x2="121.84" y1="278.59" y2="273.41" gradientTransform="matrix(1.0546 0 0 1.0765 4.8421 2.1696)" gradientUnits="userSpaceOnUse" inkscape:collect="always">
   <stop style="stop-color:#845f00" offset="0"/>
   <stop style="stop-color:#e2e2e2" offset=".55634"/>
   <stop style="stop-color:#845f00" offset="1"/>
  </linearGradient>
  <linearGradient id="linearGradient8" x1="443.35" x2="95.095" y1="198.39" y2="192.09" gradientTransform="matrix(1.0546 0 0 1.0765 4.8421 2.1696)" gradientUnits="userSpaceOnUse" inkscape:collect="always">
   <stop style="stop-color:#e8f5ff" offset="0"/>
   <stop style="stop-color:#fffefe" offset="1"/>
  </linearGradient>
  <linearGradient id="linearGradient10" x1="124.05" x2="213.2" y1="488.49" y2="473" gradientTransform="matrix(.98346 0 0 1.0225 -12.074 -21.917)" gradientUnits="userSpaceOnUse" inkscape:collect="always">
   <stop style="stop-color:#634b0d" offset="0"/>
   <stop style="stop-color:#e7e7e7" offset=".50398"/>
   <stop style="stop-color:#8d6700" offset="1"/>
  </linearGradient>
  <filter id="filter17" x="-.28624" y="-.051628" width="1.4786" height="1.1521" style="color-interpolation-filters:sRGB" inkscape:collect="always" inkscape:label="Drop Shadow">
   <feGaussianBlur inkscape:collect="always" result="fbSourceGraphic" stdDeviation="0.067666408"/>
   <feColorMatrix in="fbSourceGraphic" result="fbSourceGraphicAlpha" values="0 0 0 -1 0 0 0 0 -1 0 0 0 0 -1 0 0 0 0 1 0"/>
   <feFlood flood-color="rgb(0,0,0)" flood-opacity=".38824" in="fbSourceGraphic" result="flood"/>
   <feGaussianBlur in="fbSourceGraphic" result="blur" stdDeviation="9.090909"/>
   <feOffset dx="-10.725076" dy="20.809668" in="blur" result="offset"/>
   <feComposite in="flood" in2="offset" operator="in" result="comp1"/>
   <feComposite in="fbSourceGraphic" in2="comp1" result="comp2"/>
  </filter>
  <filter id="filter91" x="-.4087" y="-.20692" width="1.6921" height="1.4335" style="color-interpolation-filters:sRGB" inkscape:label="Drop Shadow">
   <feFlood flood-color="rgb(0,0,0)" flood-opacity=".42745" in="SourceGraphic" result="flood"/>
   <feGaussianBlur in="SourceGraphic" result="blur" stdDeviation="9.090909"/>
   <feOffset dx="-9.818731" dy="2.108761" in="blur" result="offset"/>
   <feComposite in="flood" in2="offset" operator="in" result="comp1"/>
   <feComposite in="SourceGraphic" in2="comp1" result="comp2"/>
  </filter>
  <filter id="filter123" x="-.15329" y="-.089415" width="1.231" height="1.2729" style="color-interpolation-filters:sRGB" inkscape:label="Drop Shadow">
   <feFlood flood-color="rgb(0,0,0)" flood-opacity=".43529" in="SourceGraphic" result="flood"/>
   <feGaussianBlur in="SourceGraphic" result="blur" stdDeviation="10.909091"/>
   <feOffset dx="-25.830816" dy="27.945620" in="blur" result="offset"/>
   <feComposite in="flood" in2="offset" operator="in" result="comp1"/>
   <feComposite in="SourceGraphic" in2="comp1" result="comp2"/>
  </filter>
  <linearGradient id="linearGradient166" x1="130.24" x2="152.91" y1="384.62" y2="488.62" gradientUnits="userSpaceOnUse" inkscape:collect="always">
   <stop style="stop-color:#d6d6d6" offset="0"/>
   <stop style="stop-color:#000000;stop-opacity:.088435" offset="1"/>
  </linearGradient>
 </defs>
 <g inkscape:groupmode="layer" inkscape:label="Слой 1" sodipodi:insensitive="true">
  <path d="m146.74 327.88c-9.0359 8.7462-9.8149 8.7462-9.8149 8.7462l-2.6484-10.495z" style="fill:#000000;paint-order:stroke fill markers;stroke-linecap:round;stroke-linejoin:round;stroke-width:.79697;stroke:#000000"/>
  <path d="m47.18 54.81 83.702 396.64 29.532-7.0301c-4.5433-22.028-76.83-407.56-76.83-407.56-11.779-27.243-43.506 1.9855-36.404 17.954z" style="fill:url(#linearGradient5);filter:url(#filter17);mix-blend-mode:normal;paint-order:stroke fill markers" sodipodi:nodetypes="ccccc"/>
  <path d="m130.76 39.158c36.93-8.9754 14.821-23.499 91.07-6.6009 55.89 12.386 176.23 81.333 189.5 33.314 4.2132-15.241 51.746 169.9 61.314 233.45 0 0-75.405 44.761-131.81 8.5771-50.811-32.595-113.72-38.103-140.54-26.904-52.96-76.915-49.854-162.52-69.537-241.84z" style="fill:url(#linearGradient8);filter:url(#filter123);paint-order:stroke fill markers;stroke-linecap:round;stroke-linejoin:round;stroke-width:.78994;stroke:#a9a9a9" inkscape:label="path3" sodipodi:nodetypes="csscscc"/>
  <path d="m49.212 66.814c61.335 287.52 57.764 271.87 57.764 271.87 2.49-23.055 19.987-15.473 34.751-10.421 24.792 3.4033 29.728-56.592 108.92-51.607-71.216-133.55-115.51-199.07-71.762-251.52-6.6943-1.2202-51.534-2.7884-93.665 20.527-0.87145-2.1656-4.0554-4.1843-12.209-3.0134-26.008 7.9292-23.795 24.166-23.795 24.166z" style="fill:#3e5bff;mix-blend-mode:normal;paint-order:stroke fill markers" inkscape:label="path4" sodipodi:nodetypes="cccccccc"/>
  <path d="m86.443 48.278 57.044 271.81" style="fill:#663300;opacity:.663;paint-order:stroke fill markers;stroke-dasharray:4.90967, 4.90967;stroke-linecap:round;stroke-linejoin:round;stroke-width:.81828;stroke:#cccccc" sodipodi:nodetypes="cc"/>
  <path d="m84.71 47.979s-17.093-4.0723-26.651 8.7315c-9.5574 12.804-7.7502 12.396-7.7502 12.396l-0.09753 0.19902" style="fill:none;opacity:.5;paint-order:stroke fill markers;stroke-dasharray:5.27406, 5.27406;stroke-linecap:round;stroke-linejoin:round;stroke-width:.87901;stroke:#d0d9ff" sodipodi:nodetypes="cscc"/>
  <path d="m143.2 321.89s-15.767-9.3505-26.877-5.9206c-11.718 3.6175-11.592 10.271-11.592 10.271" style="fill:none;opacity:.438;paint-order:stroke fill markers;stroke-dasharray:3.97848, 3.97848;stroke-linecap:round;stroke-linejoin:round;stroke-width:.66308;stroke:#d0d9ff" sodipodi:nodetypes="csc"/>
  <path d="m88.233 48.078c-0.06326-0.05423 33.269-21.394 81.632-21.143 34.162 0.17771 69.401 13.032 77.633 15.915 7.8923 2.7639 71.249 27.609 71.249 27.609s39.583 14.815 45.52 14.815c5.9374 0 25.069 4.0403 31.007 1.3468 5.9374-2.6936 17.153-12.121 17.153-16.835 0-4.7137 58.715 207.4 53.437 222.22-5.2777 14.815-29.687 18.182-29.687 18.182s-39.031 9.1558-48.159 8.0807c-17.153-2.0202-48.819-18.182-60.034-25.589-9.9851-6.5949-53.437-16.835-60.694-20.202-7.232-3.3554-38.381-8.0405-60.694 0.67339-21.433 8.3705-62.673 48.484-62.673 48.484l-1.3194-1.3468" style="fill:none;opacity:.5;paint-order:stroke fill markers;stroke-dasharray:5.27406, 5.27406;stroke-linecap:round;stroke-linejoin:round;stroke-width:.87901;stroke:#d0d9ff" sodipodi:nodetypes="csscsssscsssscc"/>
  <path d="m102.23 431.86 53.517 70.412 21.957-85.341c6.2884-37.65-95.407-23.111-75.474 14.93z" style="fill:url(#linearGradient10);filter:url(#filter91);paint-order:stroke fill markers;stroke-linecap:round;stroke-linejoin:round;stroke-width:.76974;stroke:url(#linearGradient166)" inkscape:export-filename="./path5.svg" inkscape:export-xdpi="96" inkscape:export-ydpi="96" sodipodi:nodetypes="cccc"/>
 </g>
 <g transform="translate(-10.128 -3.6829)" inkscape:groupmode="layer" inkscape:label="Слой 2">
  <g transform="matrix(1.0006 0 0 1.0323 12.212 -4.0158)" inkscape:layerName="Слой 2">
   <path d="m236.52 184.95c-9.973 3.024 5.6109 20.138 5.6109 20.138 1.0214-1.0214 5.028 7.8279 8.309 11.848 9.305-0.583 33.711-45.856 33.711-45.856 10.963 0.25727 16.749 3.966 22.438 7.739 0 0 5.4698 48.265 5.5638 48.357-0.15231-0.16138 4.7744-0.25537 19.6 6.7972 1.3094 0.62291-16.807-54.928-10.225-50.952 11.902 0.66914 21.059 2.8808 31.164 10.735l14.089 49.828s2.0596 6.0407 8.2356 8.6797c9.589 4.098 15.997 10.604 14.811 7.7353-21.861-52.886-26.328-103.52-53.458-138.21-12.39-13.129-18.622-16.849-28.356-20.668-2.0502-0.80439-4.1895 1.1223-4.1895 1.1223l-9.797-7.8817s-24.733-15.822-45.162-15.27c-20.43 0.5522-22.431 6.2996-18.842 22.003 12.579 55.034 28.562 57.763 28.562 57.763s6.903 17.303-22.065 26.088z" fill="#4066ff" opacity=".9533" stroke="#4066ff" stroke-linejoin="bevel" stroke-width="2" style="opacity:1" sodipodi:nodetypes="ccccccsccccccscccccc"/>
   <path d="m277.63 101.38c-50.574-26.817-21.506 35.4-9.1528 41.767s35.436 16.881 35.436 16.788c0-0.049-3.5568-24.725-3.5568-24.725s-1.1869-13.544-6.5056-22.651c-3.5038-5.9996-9.1324-7.42-16.221-11.179z" fill="#f9f9f9" opacity=".9533" style="fill:#ffffff;stroke:#ffffff" sodipodi:nodetypes="csscsc"/>
   <path d="m309.31 117.73s5.0914 42.732 8.2794 45.203c3.645 2.824 25.501 8.0125 30.229 10.857 6.6188 3.982-9.1649-31.026-9.2116-31.206-4.478-17.286-29.597-22.919-29.297-24.853z" fill="#eff2fd" opacity=".9533" stroke="#4066ff" style="fill:#f5f7ff" sodipodi:nodetypes="ccccc"/>
  </g>
 </g>
</svg>
