<?xml version="1.0" encoding="UTF-8" standalone="no"?>
<!DOCTYPE svg PUBLIC "-//W3C//DTD SVG 1.1//EN" "http://www.w3.org/Graphics/SVG/1.1/DTD/svg11.dtd">
<!-- Created with Vectornator (http://vectornator.io/) -->
<svg height="100%" stroke-miterlimit="10" style="fill-rule:nonzero;clip-rule:evenodd;stroke-linecap:round;stroke-linejoin:round;" version="1.1" viewBox="0 0 482.936 495.296" width="100%" xml:space="preserve" xmlns="http://www.w3.org/2000/svg" xmlns:vectornator="http://vectornator.io" xmlns:xlink="http://www.w3.org/1999/xlink">
<defs>
<clipPath id="TextBounds">
<rect height="350.073" width="73.8647" x="205.448" y="86.9213"/>
</clipPath>
<clipPath id="TextBounds_2">
<rect height="81.0737" width="109.435" x="199.708" y="111.152"/>
</clipPath>
</defs>
<g id="layer1" vectornator:layerName="layer1">
<path d="M39.2391 246.571C39.2391 130.989 129.431 37.2917 240.689 37.2917C351.947 37.2917 442.139 130.989 442.139 246.571C442.139 362.153 351.947 455.85 240.689 455.85C129.431 455.85 39.2391 362.153 39.2391 246.571Z" fill="#e4e4e4" fill-opacity="0" fill-rule="nonzero" opacity="1" stroke="#cdcdcd" stroke-dasharray="5.504080295562744,5.504080295562744" stroke-linecap="butt" stroke-linejoin="round" stroke-width="11.0082"/>
<g opacity="1">
<path d="M279.546 456.902C279.546 476.964 263.469 493.228 243.637 493.228C223.804 493.228 207.727 476.964 207.727 456.902C207.727 436.84 223.804 420.576 243.637 420.576C263.469 420.576 279.546 436.84 279.546 456.902Z" fill="#292121" fill-opacity="0.205418" fill-rule="nonzero" opacity="1" stroke="none"/>
<path d="M480.892 255.658C480.892 275.72 464.815 291.984 444.983 291.984C425.151 291.984 409.074 275.72 409.074 255.658C409.074 235.595 425.151 219.332 444.983 219.332C464.815 219.332 480.892 235.595 480.892 255.658Z" fill="#292121" fill-opacity="0.205418" fill-rule="nonzero" opacity="1" stroke="none"/>
<path d="M78.1996 253.218C78.1996 273.281 62.1224 289.545 42.2903 289.545C22.4582 289.545 6.38105 273.281 6.38105 253.218C6.38106 233.156 22.4582 216.892 42.2903 216.892C62.1224 216.892 78.1996 233.156 78.1996 253.218Z" fill="#292121" fill-opacity="0.205418" fill-rule="nonzero" opacity="1" stroke="none"/>
<path d="M111.958 151.986C111.958 172.049 95.8811 188.313 76.049 188.313C56.2168 188.313 40.1397 172.049 40.1397 151.986C40.1397 131.924 56.2168 115.66 76.049 115.66C95.8811 115.66 111.958 131.924 111.958 151.986Z" fill="#292121" fill-opacity="0.205418" fill-rule="nonzero" opacity="1" stroke="none"/>
<path d="M189.125 75.558C189.125 95.6204 173.047 111.884 153.215 111.884C133.383 111.884 117.306 95.6204 117.306 75.558C117.306 55.4957 133.383 39.2319 153.215 39.2319C173.047 39.2319 189.125 55.4957 189.125 75.558Z" fill="#292121" fill-opacity="0.205418" fill-rule="nonzero" opacity="1" stroke="none"/>
<path d="M373.588 84.905C373.588 104.967 357.511 121.231 337.678 121.231C317.846 121.231 301.769 104.967 301.769 84.905C301.769 64.8427 317.846 48.5789 337.678 48.5789C357.511 48.5789 373.588 64.8427 373.588 84.905Z" fill="#292121" fill-opacity="0.205418" fill-rule="nonzero" opacity="1" stroke="none"/>
<path d="M441.105 153.206C441.105 173.268 425.028 189.532 405.196 189.532C385.364 189.532 369.287 173.268 369.287 153.206C369.287 133.144 385.364 116.88 405.196 116.88C425.028 116.88 441.105 133.144 441.105 153.206Z" fill="#292121" fill-opacity="0.205418" fill-rule="nonzero" opacity="1" stroke="none"/>
<path d="M450.75 345.913C450.75 365.975 434.673 382.239 414.841 382.239C395.009 382.239 378.932 365.975 378.932 345.913C378.932 325.85 395.009 309.587 414.841 309.587C434.673 309.587 450.75 325.85 450.75 345.913Z" fill="#292121" fill-opacity="0.205418" fill-rule="nonzero" opacity="1" stroke="none"/>
<path d="M378.41 421.532C378.41 441.594 362.333 457.858 342.501 457.858C322.669 457.858 306.592 441.594 306.592 421.532C306.592 401.47 322.669 385.206 342.501 385.206C362.333 385.206 378.41 401.47 378.41 421.532Z" fill="#292121" fill-opacity="0.205418" fill-rule="nonzero" opacity="1" stroke="none"/>
<path d="M186.71 428.85C186.71 448.912 170.632 465.176 150.8 465.176C130.968 465.176 114.891 448.912 114.891 428.85C114.891 408.788 130.968 392.524 150.8 392.524C170.632 392.524 186.71 408.788 186.71 428.85Z" fill="#292121" fill-opacity="0.205418" fill-rule="nonzero" opacity="1" stroke="none"/>
<path d="M113.164 353.231C113.164 373.293 97.0867 389.557 77.2546 389.557C57.4225 389.557 41.3454 373.293 41.3454 353.231C41.3454 333.168 57.4225 316.905 77.2546 316.905C97.0867 316.905 113.164 333.168 113.164 353.231Z" fill="#292121" fill-opacity="0.205418" fill-rule="nonzero" opacity="1" stroke="none"/>
<path d="M281.957 50.7545C281.957 70.8168 265.88 87.0806 246.048 87.0806C226.216 87.0806 210.139 70.8168 210.139 50.7545C210.139 30.6921 226.216 14.4284 246.048 14.4283C265.88 14.4283 281.957 30.6921 281.957 50.7545Z" fill="#292121" fill-opacity="0.205418" fill-rule="nonzero" opacity="1" stroke="none"/>
</g>
<g opacity="1">
<path d="M284.769 37.5431C284.769 58.0008 268.185 74.5849 247.727 74.5849C227.269 74.5849 210.685 58.0008 210.685 37.5431C210.685 17.0855 227.269 0.501374 247.727 0.501371C268.185 0.501366 284.769 17.0855 284.769 37.5431Z" fill="#04b600" fill-opacity="0.95815" fill-rule="nonzero" opacity="1" stroke="#42e334" stroke-linecap="butt" stroke-linejoin="miter" stroke-width="1.00274"/>
<path d="M282.281 451.692C282.281 472.15 265.697 488.734 245.24 488.734C224.782 488.734 208.198 472.15 208.198 451.692C208.198 431.235 224.782 414.651 245.24 414.651C265.697 414.651 282.281 431.235 282.281 451.692Z" fill="#04b600" fill-opacity="0.95815" fill-rule="nonzero" opacity="1" stroke="#42e334" stroke-linecap="butt" stroke-linejoin="miter" stroke-width="1.00274"/>
<path d="M481.161 240.071C481.161 260.529 464.577 277.113 444.119 277.113C423.662 277.113 407.078 260.529 407.078 240.071C407.078 219.614 423.662 203.029 444.119 203.029C464.577 203.029 481.161 219.614 481.161 240.071Z" fill="#04b600" fill-opacity="0.95815" fill-rule="nonzero" opacity="1" stroke="#42e334" stroke-linecap="butt" stroke-linejoin="miter" stroke-width="1.00274"/>
<path d="M74.5849 243.996C74.5849 264.454 58.0008 281.038 37.5431 281.038C17.0855 281.038 0.501371 264.454 0.501373 243.996C0.501376 223.538 17.0855 206.954 37.5431 206.954C58.0008 206.954 74.5849 223.538 74.5849 243.996Z" fill="#04b600" fill-opacity="0.95815" fill-rule="nonzero" opacity="1" stroke="#42e334" stroke-linecap="butt" stroke-linejoin="miter" stroke-width="1.00274"/>
<path d="M109.408 140.77C109.408 161.227 92.8241 177.811 72.3665 177.811C51.9089 177.811 35.3247 161.227 35.3247 140.77C35.3247 120.312 51.9089 103.728 72.3665 103.728C92.8241 103.728 109.408 120.312 109.408 140.77Z" fill="#04b600" fill-opacity="0.95815" fill-rule="nonzero" opacity="1" stroke="#42e334" stroke-linecap="butt" stroke-linejoin="miter" stroke-width="1.00274"/>
<path d="M186.406 66.3137C186.406 86.7713 169.822 103.355 149.364 103.355C128.907 103.355 112.323 86.7713 112.323 66.3137C112.323 45.8561 128.907 29.2719 149.364 29.2719C169.822 29.2719 186.406 45.8561 186.406 66.3137Z" fill="#04b600" fill-opacity="0.95815" fill-rule="nonzero" opacity="1" stroke="#42e334" stroke-linecap="butt" stroke-linejoin="miter" stroke-width="1.00274"/>
<path d="M379.289 72.3665C379.289 92.8241 362.705 109.408 342.247 109.408C321.79 109.408 305.206 92.8241 305.206 72.3665C305.206 51.9089 321.79 35.3247 342.247 35.3247C362.705 35.3247 379.289 51.9089 379.289 72.3665Z" fill="#04b600" fill-opacity="0.95815" fill-rule="nonzero" opacity="1" stroke="#42e334" stroke-linecap="butt" stroke-linejoin="miter" stroke-width="2.50386"/>
<path d="M448.936 142.013C448.936 162.471 432.352 179.055 411.894 179.055C391.437 179.055 374.852 162.471 374.852 142.013C374.852 121.556 391.437 104.971 411.894 104.971C432.352 104.971 448.936 121.556 448.936 142.013Z" fill="#04b600" fill-opacity="0.95815" fill-rule="nonzero" opacity="1" stroke="#42e334" stroke-linecap="butt" stroke-linejoin="miter" stroke-width="1.00274"/>
<path d="M458.886 338.516C458.886 358.974 442.301 375.558 421.844 375.558C401.386 375.558 384.802 358.974 384.802 338.516C384.802 318.059 401.386 301.475 421.844 301.475C442.301 301.475 458.886 318.059 458.886 338.516Z" fill="#04b600" fill-opacity="0.95815" fill-rule="nonzero" opacity="1" stroke="#42e334" stroke-linecap="butt" stroke-linejoin="miter" stroke-width="1.00274"/>
<path d="M384.264 415.625C384.264 436.083 367.68 452.667 347.222 452.667C326.765 452.667 310.18 436.083 310.18 415.625C310.18 395.168 326.765 378.584 347.222 378.584C367.68 378.584 384.264 395.168 384.264 415.625Z" fill="#04b600" fill-opacity="0.95815" fill-rule="nonzero" opacity="1" stroke="#42e334" stroke-linecap="butt" stroke-linejoin="miter" stroke-width="1.00274"/>
<path d="M186.517 423.087C186.517 443.545 169.933 460.129 149.475 460.129C129.018 460.129 112.434 443.545 112.434 423.087C112.434 402.63 129.018 386.046 149.475 386.046C169.933 386.046 186.517 402.63 186.517 423.087Z" fill="#04b600" fill-opacity="0.95815" fill-rule="nonzero" opacity="1" stroke="#42e334" stroke-linecap="butt" stroke-linejoin="miter" stroke-width="1.00274"/>
<path d="M110.652 345.979C110.652 366.436 94.0678 383.02 73.6102 383.02C53.1526 383.02 36.5684 366.436 36.5684 345.979C36.5684 325.521 53.1526 308.937 73.6102 308.937C94.0678 308.937 110.652 325.521 110.652 345.979Z" fill="#04b600" fill-opacity="0.95815" fill-rule="nonzero" opacity="1" stroke="#42e334" stroke-linecap="butt" stroke-linejoin="miter" stroke-width="1.00274"/>
</g>
<g opacity="1">
<path clip-path="url(#TextBounds)" d="M261.703 222.42C262.655 218.702 261.069 213.248 256.311 213.248C253.456 213 249.967 213 246.478 213C242.989 213.248 239.182 213.248 235.693 213.248C230.935 213.248 228.08 216.223 227.763 219.445C226.494 234.319 225.86 247.705 225.86 266.544C225.86 285.632 225.86 301.744 227.129 316.37C227.129 320.584 229.666 322.567 234.424 322.567C237.596 322.319 240.768 322.071 243.94 322.071L255.359 322.071C257.897 322.071 260.117 320.088 260.117 317.857C260.117 308.189 259.166 300.753 258.214 293.068C257.262 285.384 256.628 277.699 256.945 267.784C257.262 249.936 259.483 233.079 261.703 222.42Z" fill="#e34234" opacity="1" stroke="none"/>
<path clip-path="url(#TextBounds_2)" d="M280.629 175.455C281.203 175.455 281.586 174.881 281.586 173.924C281.586 172.776 281.203 172.202 280.629 172.202C280.438 172.202 280.055 172.01 279.672 171.819C279.098 171.627 278.524 171.627 277.95 171.627C276.419 171.819 275.845 170.096 275.653 168.757C275.462 167.991 275.462 167.034 275.462 165.695L275.462 154.212C275.462 152.872 275.271 151.916 273.931 151.341C272.209 151.15 270.103 151.15 267.233 151.15L260.726 151.15C259.96 151.15 259.386 152.298 259.386 153.064C259.386 154.021 259.386 155.169 259.578 156.509C259.578 159.188 259.769 162.059 259.769 164.546C259.769 166.843 259.769 168.374 259.386 169.905C259.195 170.862 258.621 171.245 257.855 171.245C250.2 171.245 240.631 171.053 231.445 170.671C222.259 170.288 213.647 169.714 207.523 168.183C205.418 167.608 204.461 170.862 207.332 172.967C207.906 173.541 208.097 174.115 207.906 175.072C207.714 176.029 207.523 176.795 207.523 177.56C207.523 180.239 207.714 182.536 207.906 184.258C208.097 185.981 208.097 187.512 207.906 188.469C207.906 189.426 208.48 190 209.437 190C212.69 190.574 219.771 190.765 222.642 190.191C223.216 190 223.599 189.426 223.599 188.66C223.407 186.746 223.216 184.641 223.216 182.345C223.216 180.048 223.407 178.134 223.599 176.795C223.599 175.838 223.981 175.455 224.938 175.455C232.593 175.646 243.119 175.838 253.645 175.838C263.788 175.838 273.931 175.646 280.629 175.455Z" fill="#e34234" opacity="1" stroke="none"/>
</g>
<path d="M441.671 142.099C441.671 158.274 428.558 171.387 412.383 171.387C396.207 171.387 383.094 158.274 383.094 142.099C383.094 125.923 396.207 112.81 412.383 112.81C428.558 112.81 441.671 125.923 441.671 142.099Z" fill="#ff6b5f" fill-rule="nonzero" opacity="1" stroke="#fffefe" stroke-linecap="butt" stroke-linejoin="miter" stroke-width="1.97979"/>
</g>
</svg>
