<?xml version="1.0" encoding="UTF-8" standalone="no"?>
<!DOCTYPE svg PUBLIC "-//W3C//DTD SVG 1.1//EN" "http://www.w3.org/Graphics/SVG/1.1/DTD/svg11.dtd">
<!-- Created with Vectornator (http://vectornator.io/) -->
<svg height="100%" stroke-miterlimit="10" style="fill-rule:nonzero;clip-rule:evenodd;stroke-linecap:round;stroke-linejoin:round;" version="1.1" viewBox="0 0 482.936 495.296" width="100%" xml:space="preserve" xmlns="http://www.w3.org/2000/svg" xmlns:vectornator="http://vectornator.io" xmlns:xlink="http://www.w3.org/1999/xlink">
<defs>
<clipPath id="TextBounds">
<rect height="306.756" width="219.875" x="159.037" y="104.301"/>
</clipPath>
<clipPath id="TextBounds_2">
<rect height="271" width="164.271" x="181.65" y="106.737"/>
</clipPath>
</defs>
<g id="layer1" vectornator:layerName="layer1">
<path d="M39.2391 246.571C39.2391 130.989 129.431 37.2917 240.689 37.2917C351.947 37.2917 442.139 130.989 442.139 246.571C442.139 362.153 351.947 455.85 240.689 455.85C129.431 455.85 39.2391 362.153 39.2391 246.571Z" fill="#e4e4e4" fill-opacity="0" fill-rule="nonzero" opacity="1" stroke="#cdcdcd" stroke-dasharray="5.504080295562744,5.504080295562744" stroke-linecap="butt" stroke-linejoin="round" stroke-width="11.0082"/>
<g opacity="1">
<path d="M279.546 456.902C279.546 476.964 263.469 493.228 243.637 493.228C223.804 493.228 207.727 476.964 207.727 456.902C207.727 436.84 223.804 420.576 243.637 420.576C263.469 420.576 279.546 436.84 279.546 456.902Z" fill="#292121" fill-opacity="0.205418" fill-rule="nonzero" opacity="1" stroke="none"/>
<path d="M480.892 255.658C480.892 275.72 464.815 291.984 444.983 291.984C425.151 291.984 409.074 275.72 409.074 255.658C409.074 235.595 425.151 219.332 444.983 219.332C464.815 219.332 480.892 235.595 480.892 255.658Z" fill="#292121" fill-opacity="0.205418" fill-rule="nonzero" opacity="1" stroke="none"/>
<path d="M78.1996 253.218C78.1996 273.281 62.1224 289.545 42.2903 289.545C22.4582 289.545 6.38105 273.281 6.38105 253.218C6.38106 233.156 22.4582 216.892 42.2903 216.892C62.1224 216.892 78.1996 233.156 78.1996 253.218Z" fill="#292121" fill-opacity="0.205418" fill-rule="nonzero" opacity="1" stroke="none"/>
<path d="M111.958 151.986C111.958 172.049 95.8811 188.313 76.049 188.313C56.2168 188.313 40.1397 172.049 40.1397 151.986C40.1397 131.924 56.2168 115.66 76.049 115.66C95.8811 115.66 111.958 131.924 111.958 151.986Z" fill="#292121" fill-opacity="0.205418" fill-rule="nonzero" opacity="1" stroke="none"/>
<path d="M189.125 75.558C189.125 95.6204 173.047 111.884 153.215 111.884C133.383 111.884 117.306 95.6204 117.306 75.558C117.306 55.4957 133.383 39.2319 153.215 39.2319C173.047 39.2319 189.125 55.4957 189.125 75.558Z" fill="#292121" fill-opacity="0.205418" fill-rule="nonzero" opacity="1" stroke="none"/>
<path d="M373.588 84.905C373.588 104.967 357.511 121.231 337.678 121.231C317.846 121.231 301.769 104.967 301.769 84.905C301.769 64.8427 317.846 48.5789 337.678 48.5789C357.511 48.5789 373.588 64.8427 373.588 84.905Z" fill="#292121" fill-opacity="0.205418" fill-rule="nonzero" opacity="1" stroke="none"/>
<path d="M441.105 153.206C441.105 173.268 425.028 189.532 405.196 189.532C385.364 189.532 369.287 173.268 369.287 153.206C369.287 133.144 385.364 116.88 405.196 116.88C425.028 116.88 441.105 133.144 441.105 153.206Z" fill="#292121" fill-opacity="0.205418" fill-rule="nonzero" opacity="1" stroke="none"/>
<path d="M450.75 345.913C450.75 365.975 434.673 382.239 414.841 382.239C395.009 382.239 378.932 365.975 378.932 345.913C378.932 325.85 395.009 309.587 414.841 309.587C434.673 309.587 450.75 325.85 450.75 345.913Z" fill="#292121" fill-opacity="0.205418" fill-rule="nonzero" opacity="1" stroke="none"/>
<path d="M378.41 421.532C378.41 441.594 362.333 457.858 342.501 457.858C322.669 457.858 306.592 441.594 306.592 421.532C306.592 401.47 322.669 385.206 342.501 385.206C362.333 385.206 378.41 401.47 378.41 421.532Z" fill="#292121" fill-opacity="0.205418" fill-rule="nonzero" opacity="1" stroke="none"/>
<path d="M186.71 428.85C186.71 448.912 170.632 465.176 150.8 465.176C130.968 465.176 114.891 448.912 114.891 428.85C114.891 408.788 130.968 392.524 150.8 392.524C170.632 392.524 186.71 408.788 186.71 428.85Z" fill="#292121" fill-opacity="0.205418" fill-rule="nonzero" opacity="1" stroke="none"/>
<path d="M113.164 353.231C113.164 373.293 97.0867 389.557 77.2546 389.557C57.4225 389.557 41.3454 373.293 41.3454 353.231C41.3454 333.168 57.4225 316.905 77.2546 316.905C97.0867 316.905 113.164 333.168 113.164 353.231Z" fill="#292121" fill-opacity="0.205418" fill-rule="nonzero" opacity="1" stroke="none"/>
<path d="M281.957 50.7545C281.957 70.8168 265.88 87.0806 246.048 87.0806C226.216 87.0806 210.139 70.8168 210.139 50.7545C210.139 30.6921 226.216 14.4284 246.048 14.4283C265.88 14.4283 281.957 30.6921 281.957 50.7545Z" fill="#292121" fill-opacity="0.205418" fill-rule="nonzero" opacity="1" stroke="none"/>
</g>
<g opacity="1">
<path d="M284.769 37.5431C284.769 58.0008 268.185 74.5849 247.727 74.5849C227.269 74.5849 210.685 58.0008 210.685 37.5431C210.685 17.0855 227.269 0.501374 247.727 0.501371C268.185 0.501366 284.769 17.0855 284.769 37.5431Z" fill="#ffffff" fill-opacity="0.95815" fill-rule="nonzero" opacity="1" stroke="#bfbfbf" stroke-linecap="butt" stroke-linejoin="miter" stroke-width="1.00274"/>
<path d="M282.281 451.692C282.281 472.15 265.697 488.734 245.24 488.734C224.782 488.734 208.198 472.15 208.198 451.692C208.198 431.235 224.782 414.651 245.24 414.651C265.697 414.651 282.281 431.235 282.281 451.692Z" fill="#ffffff" fill-opacity="0.95815" fill-rule="nonzero" opacity="1" stroke="#bfbfbf" stroke-linecap="butt" stroke-linejoin="miter" stroke-width="1.00274"/>
<path d="M481.161 240.071C481.161 260.529 464.577 277.113 444.119 277.113C423.662 277.113 407.078 260.529 407.078 240.071C407.078 219.614 423.662 203.029 444.119 203.029C464.577 203.029 481.161 219.614 481.161 240.071Z" fill="#ffffff" fill-opacity="0.95815" fill-rule="nonzero" opacity="1" stroke="#bfbfbf" stroke-linecap="butt" stroke-linejoin="miter" stroke-width="1.00274"/>
<path d="M74.5849 243.996C74.5849 264.454 58.0008 281.038 37.5431 281.038C17.0855 281.038 0.501371 264.454 0.501373 243.996C0.501376 223.538 17.0855 206.954 37.5431 206.954C58.0008 206.954 74.5849 223.538 74.5849 243.996Z" fill="#ffffff" fill-opacity="0.95815" fill-rule="nonzero" opacity="1" stroke="#bfbfbf" stroke-linecap="butt" stroke-linejoin="miter" stroke-width="1.00274"/>
<path d="M109.408 140.77C109.408 161.227 92.8241 177.811 72.3665 177.811C51.9089 177.811 35.3247 161.227 35.3247 140.77C35.3247 120.312 51.9089 103.728 72.3665 103.728C92.8241 103.728 109.408 120.312 109.408 140.77Z" fill="#ffffff" fill-opacity="0.95815" fill-rule="nonzero" opacity="1" stroke="#bfbfbf" stroke-linecap="butt" stroke-linejoin="miter" stroke-width="1.00274"/>
<path d="M186.406 66.3137C186.406 86.7713 169.822 103.355 149.364 103.355C128.907 103.355 112.323 86.7713 112.323 66.3137C112.323 45.8561 128.907 29.2719 149.364 29.2719C169.822 29.2719 186.406 45.8561 186.406 66.3137Z" fill="#ffffff" fill-opacity="0.95815" fill-rule="nonzero" opacity="1" stroke="#bfbfbf" stroke-linecap="butt" stroke-linejoin="miter" stroke-width="1.00274"/>
<path d="M379.289 72.3665C379.289 92.8241 362.705 109.408 342.247 109.408C321.79 109.408 305.206 92.8241 305.206 72.3665C305.206 51.9089 321.79 35.3247 342.247 35.3247C362.705 35.3247 379.289 51.9089 379.289 72.3665Z" fill="#ffffff" fill-opacity="0.95815" fill-rule="nonzero" opacity="1" stroke="#bfbfbf" stroke-linecap="butt" stroke-linejoin="miter" stroke-width="2.50386"/>
<path d="M448.936 142.013C448.936 162.471 432.352 179.055 411.894 179.055C391.437 179.055 374.852 162.471 374.852 142.013C374.852 121.556 391.437 104.971 411.894 104.971C432.352 104.971 448.936 121.556 448.936 142.013Z" fill="#ffffff" fill-opacity="0.95815" fill-rule="nonzero" opacity="1" stroke="#bfbfbf" stroke-linecap="butt" stroke-linejoin="miter" stroke-width="1.00274"/>
<path d="M458.886 338.516C458.886 358.974 442.301 375.558 421.844 375.558C401.386 375.558 384.802 358.974 384.802 338.516C384.802 318.059 401.386 301.475 421.844 301.475C442.301 301.475 458.886 318.059 458.886 338.516Z" fill="#ffffff" fill-opacity="0.95815" fill-rule="nonzero" opacity="1" stroke="#bfbfbf" stroke-linecap="butt" stroke-linejoin="miter" stroke-width="1.00274"/>
<path d="M384.264 415.625C384.264 436.083 367.68 452.667 347.222 452.667C326.765 452.667 310.18 436.083 310.18 415.625C310.18 395.168 326.765 378.584 347.222 378.584C367.68 378.584 384.264 395.168 384.264 415.625Z" fill="#ffffff" fill-opacity="0.95815" fill-rule="nonzero" opacity="1" stroke="#bfbfbf" stroke-linecap="butt" stroke-linejoin="miter" stroke-width="1.00274"/>
<path d="M186.517 423.087C186.517 443.545 169.933 460.129 149.475 460.129C129.018 460.129 112.434 443.545 112.434 423.087C112.434 402.63 129.018 386.046 149.475 386.046C169.933 386.046 186.517 402.63 186.517 423.087Z" fill="#ffffff" fill-opacity="0.95815" fill-rule="nonzero" opacity="1" stroke="#bfbfbf" stroke-linecap="butt" stroke-linejoin="miter" stroke-width="1.00274"/>
<path d="M110.652 345.979C110.652 366.436 94.0678 383.02 73.6102 383.02C53.1526 383.02 36.5684 366.436 36.5684 345.979C36.5684 325.521 53.1526 308.937 73.6102 308.937C94.0678 308.937 110.652 325.521 110.652 345.979Z" fill="#ffffff" fill-opacity="0.95815" fill-rule="nonzero" opacity="1" stroke="#bfbfbf" stroke-linecap="butt" stroke-linejoin="miter" stroke-width="1.00274"/>
</g>
<g opacity="1">
<g fill="#e34234" opacity="1" stroke="none">
<path clip-path="url(#TextBounds)" d="M251.408 299.41C246.123 279.413 241.395 252.459 239.448 219.203C239.169 217.246 238.335 215.29 235.276 215.29C233.329 215.073 229.435 214.855 225.263 214.855L215.806 214.855C213.303 214.855 212.19 217.681 212.19 219.203C212.19 223.115 212.19 225.941 212.468 227.897C212.746 229.853 212.746 232.244 212.746 235.288C206.349 243.982 200.786 251.59 195.78 257.893C190.495 264.414 186.045 270.501 181.873 276.152C178.813 280.282 175.197 286.368 172.694 292.454C171.86 294.411 171.025 298.106 171.025 300.932C171.025 306.801 175.197 309.844 183.263 309.844C187.992 309.844 192.164 307.67 195.502 304.192C198.839 301.584 201.899 298.758 205.515 295.063C209.13 291.585 213.303 287.02 218.865 280.065C219.978 285.499 220.812 289.629 221.647 292.889C222.759 299.41 223.872 303.105 226.097 307.235C227.209 309.192 228.6 310.278 230.547 310.278L246.679 310.278C254.745 310.278 253.633 307.018 251.408 299.41ZM217.475 272.892C211.077 281.586 204.124 289.846 199.674 292.672C196.336 295.063 193.833 295.715 189.104 295.715C186.323 295.715 184.932 293.976 184.932 290.281C184.932 285.281 186.601 281.804 189.104 276.804C191.051 273.109 195.223 266.371 199.952 259.415L207.183 248.981C209.409 245.504 211.356 242.461 213.303 239.635L215.806 257.893C216.64 264.197 217.196 269.196 217.475 272.892Z"/>
<path clip-path="url(#TextBounds)" d="M315.102 222.898C315.936 219.637 314.545 214.855 310.373 214.855C307.87 214.638 304.81 214.638 301.751 214.638C298.691 214.855 295.354 214.855 292.294 214.855C288.122 214.855 285.619 217.464 285.341 220.289C284.228 233.331 283.672 245.069 283.672 261.589C283.672 278.326 283.672 292.454 284.784 305.279C284.784 308.974 287.01 310.713 291.182 310.713C293.963 310.496 296.744 310.278 299.526 310.278L309.539 310.278C311.764 310.278 313.711 308.539 313.711 306.583C313.711 298.106 312.877 291.585 312.042 284.847C311.208 278.108 310.651 271.37 310.93 262.675C311.208 247.025 313.155 232.244 315.102 222.898Z"/>
</g>
<path clip-path="url(#TextBounds_2)" d="M262.572 171.039C263.146 171.039 263.528 170.465 263.528 169.508C263.528 168.36 263.146 167.786 262.572 167.786C262.38 167.786 261.997 167.595 261.615 167.403C261.041 167.212 260.466 167.212 259.892 167.212C258.361 167.403 257.787 165.681 257.596 164.341C257.404 163.576 257.404 162.619 257.404 161.279L257.404 149.796C257.404 148.457 257.213 147.5 255.873 146.926C254.151 146.734 252.046 146.734 249.175 146.734L242.668 146.734C241.903 146.734 241.329 147.883 241.329 148.648C241.329 149.605 241.329 150.753 241.52 152.093C241.52 154.772 241.711 157.643 241.711 160.131C241.711 162.427 241.711 163.958 241.329 165.489C241.137 166.446 240.563 166.829 239.798 166.829C232.142 166.829 222.574 166.638 213.387 166.255C204.201 165.872 195.589 165.298 189.465 163.767C187.36 163.193 186.403 166.446 189.274 168.551C189.848 169.126 190.039 169.7 189.848 170.657C189.657 171.613 189.465 172.379 189.465 173.145C189.465 175.824 189.657 178.12 189.848 179.843C190.039 181.565 190.039 183.096 189.848 184.053C189.848 185.01 190.422 185.584 191.379 185.584C194.632 186.158 201.713 186.35 204.584 185.775C205.158 185.584 205.541 185.01 205.541 184.244C205.35 182.331 205.158 180.225 205.158 177.929C205.158 175.632 205.35 173.719 205.541 172.379C205.541 171.422 205.924 171.039 206.881 171.039C214.536 171.231 225.062 171.422 235.587 171.422C245.73 171.422 255.873 171.231 262.572 171.039Z" fill="#e34234" opacity="1" stroke="none"/>
</g>
<path d="M474.103 240.691C474.103 256.866 460.99 269.979 444.814 269.979C428.639 269.979 415.526 256.866 415.526 240.691C415.526 224.515 428.639 211.402 444.814 211.402C460.99 211.402 474.103 224.515 474.103 240.691Z" fill="#ff6b5f" fill-rule="nonzero" opacity="1" stroke="none"/>
</g>
</svg>
