<?xml version="1.0" encoding="UTF-8" standalone="no"?>
<!DOCTYPE svg PUBLIC "-//W3C//DTD SVG 1.1//EN" "http://www.w3.org/Graphics/SVG/1.1/DTD/svg11.dtd">
<!-- Created with Vectornator (http://vectornator.io/) -->
<svg height="100%" stroke-miterlimit="10" style="fill-rule:nonzero;clip-rule:evenodd;stroke-linecap:round;stroke-linejoin:round;" version="1.1" viewBox="0 0 482.936 495.296" width="100%" xml:space="preserve" xmlns="http://www.w3.org/2000/svg" xmlns:vectornator="http://vectornator.io" xmlns:xlink="http://www.w3.org/1999/xlink">
<defs>
<clipPath id="TextBounds">
<rect height="306.756" width="217.567" x="153.74" y="102.399"/>
</clipPath>
<clipPath id="TextBounds_2">
<rect height="133.187" width="136.127" x="169.071" y="86.3288"/>
</clipPath>
</defs>
<g id="layer1" vectornator:layerName="layer1">
<path d="M39.2391 246.571C39.2391 130.989 129.431 37.2917 240.689 37.2917C351.947 37.2917 442.139 130.989 442.139 246.571C442.139 362.153 351.947 455.85 240.689 455.85C129.431 455.85 39.2391 362.153 39.2391 246.571Z" fill="#e4e4e4" fill-opacity="0" fill-rule="nonzero" opacity="1" stroke="#cdcdcd" stroke-dasharray="5.504080295562744,5.504080295562744" stroke-linecap="butt" stroke-linejoin="round" stroke-width="11.0082"/>
<g opacity="1">
<path d="M279.546 456.902C279.546 476.964 263.469 493.228 243.637 493.228C223.804 493.228 207.727 476.964 207.727 456.902C207.727 436.84 223.804 420.576 243.637 420.576C263.469 420.576 279.546 436.84 279.546 456.902Z" fill="#292121" fill-opacity="0.205418" fill-rule="nonzero" opacity="1" stroke="none"/>
<path d="M480.892 255.658C480.892 275.72 464.815 291.984 444.983 291.984C425.151 291.984 409.074 275.72 409.074 255.658C409.074 235.595 425.151 219.332 444.983 219.332C464.815 219.332 480.892 235.595 480.892 255.658Z" fill="#292121" fill-opacity="0.205418" fill-rule="nonzero" opacity="1" stroke="none"/>
<path d="M78.1996 253.218C78.1996 273.281 62.1224 289.545 42.2903 289.545C22.4582 289.545 6.38105 273.281 6.38105 253.218C6.38106 233.156 22.4582 216.892 42.2903 216.892C62.1224 216.892 78.1996 233.156 78.1996 253.218Z" fill="#292121" fill-opacity="0.205418" fill-rule="nonzero" opacity="1" stroke="none"/>
<path d="M111.958 151.986C111.958 172.049 95.8811 188.313 76.049 188.313C56.2168 188.313 40.1397 172.049 40.1397 151.986C40.1397 131.924 56.2168 115.66 76.049 115.66C95.8811 115.66 111.958 131.924 111.958 151.986Z" fill="#292121" fill-opacity="0.205418" fill-rule="nonzero" opacity="1" stroke="none"/>
<path d="M189.125 75.558C189.125 95.6204 173.047 111.884 153.215 111.884C133.383 111.884 117.306 95.6204 117.306 75.558C117.306 55.4957 133.383 39.2319 153.215 39.2319C173.047 39.2319 189.125 55.4957 189.125 75.558Z" fill="#292121" fill-opacity="0.205418" fill-rule="nonzero" opacity="1" stroke="none"/>
<path d="M373.588 84.905C373.588 104.967 357.511 121.231 337.678 121.231C317.846 121.231 301.769 104.967 301.769 84.905C301.769 64.8427 317.846 48.5789 337.678 48.5789C357.511 48.5789 373.588 64.8427 373.588 84.905Z" fill="#292121" fill-opacity="0.205418" fill-rule="nonzero" opacity="1" stroke="none"/>
<path d="M441.105 153.206C441.105 173.268 425.028 189.532 405.196 189.532C385.364 189.532 369.287 173.268 369.287 153.206C369.287 133.144 385.364 116.88 405.196 116.88C425.028 116.88 441.105 133.144 441.105 153.206Z" fill="#292121" fill-opacity="0.205418" fill-rule="nonzero" opacity="1" stroke="none"/>
<path d="M450.75 345.913C450.75 365.975 434.673 382.239 414.841 382.239C395.009 382.239 378.932 365.975 378.932 345.913C378.932 325.85 395.009 309.587 414.841 309.587C434.673 309.587 450.75 325.85 450.75 345.913Z" fill="#292121" fill-opacity="0.205418" fill-rule="nonzero" opacity="1" stroke="none"/>
<path d="M378.41 421.532C378.41 441.594 362.333 457.858 342.501 457.858C322.669 457.858 306.592 441.594 306.592 421.532C306.592 401.47 322.669 385.206 342.501 385.206C362.333 385.206 378.41 401.47 378.41 421.532Z" fill="#292121" fill-opacity="0.205418" fill-rule="nonzero" opacity="1" stroke="none"/>
<path d="M186.71 428.85C186.71 448.912 170.632 465.176 150.8 465.176C130.968 465.176 114.891 448.912 114.891 428.85C114.891 408.788 130.968 392.524 150.8 392.524C170.632 392.524 186.71 408.788 186.71 428.85Z" fill="#292121" fill-opacity="0.205418" fill-rule="nonzero" opacity="1" stroke="none"/>
<path d="M113.164 353.231C113.164 373.293 97.0867 389.557 77.2546 389.557C57.4225 389.557 41.3454 373.293 41.3454 353.231C41.3454 333.168 57.4225 316.905 77.2546 316.905C97.0867 316.905 113.164 333.168 113.164 353.231Z" fill="#292121" fill-opacity="0.205418" fill-rule="nonzero" opacity="1" stroke="none"/>
<path d="M281.957 50.7545C281.957 70.8168 265.88 87.0806 246.048 87.0806C226.216 87.0806 210.139 70.8168 210.139 50.7545C210.139 30.6921 226.216 14.4284 246.048 14.4283C265.88 14.4283 281.957 30.6921 281.957 50.7545Z" fill="#292121" fill-opacity="0.205418" fill-rule="nonzero" opacity="1" stroke="none"/>
</g>
<g opacity="1">
<path d="M284.769 37.5431C284.769 58.0008 268.185 74.5849 247.727 74.5849C227.269 74.5849 210.685 58.0008 210.685 37.5431C210.685 17.0855 227.269 0.501374 247.727 0.501371C268.185 0.501366 284.769 17.0855 284.769 37.5431Z" fill="#0090ff" fill-opacity="0.95815" fill-rule="nonzero" opacity="1" stroke="#bfbfbf" stroke-linecap="butt" stroke-linejoin="miter" stroke-width="1.00274"/>
<path d="M282.281 451.692C282.281 472.15 265.697 488.734 245.24 488.734C224.782 488.734 208.198 472.15 208.198 451.692C208.198 431.235 224.782 414.651 245.24 414.651C265.697 414.651 282.281 431.235 282.281 451.692Z" fill="#0090ff" fill-opacity="0.95815" fill-rule="nonzero" opacity="1" stroke="#bfbfbf" stroke-linecap="butt" stroke-linejoin="miter" stroke-width="1.00274"/>
<path d="M481.161 240.071C481.161 260.529 464.577 277.113 444.119 277.113C423.662 277.113 407.078 260.529 407.078 240.071C407.078 219.614 423.662 203.029 444.119 203.029C464.577 203.029 481.161 219.614 481.161 240.071Z" fill="#0090ff" fill-opacity="0.95815" fill-rule="nonzero" opacity="1" stroke="#bfbfbf" stroke-linecap="butt" stroke-linejoin="miter" stroke-width="1.00274"/>
<path d="M74.5849 243.996C74.5849 264.454 58.0008 281.038 37.5431 281.038C17.0855 281.038 0.501371 264.454 0.501373 243.996C0.501376 223.538 17.0855 206.954 37.5431 206.954C58.0008 206.954 74.5849 223.538 74.5849 243.996Z" fill="#0090ff" fill-opacity="0.95815" fill-rule="nonzero" opacity="1" stroke="#bfbfbf" stroke-linecap="butt" stroke-linejoin="miter" stroke-width="1.00274"/>
<path d="M109.408 140.77C109.408 161.227 92.8241 177.811 72.3665 177.811C51.9089 177.811 35.3247 161.227 35.3247 140.77C35.3247 120.312 51.9089 103.728 72.3665 103.728C92.8241 103.728 109.408 120.312 109.408 140.77Z" fill="#0090ff" fill-opacity="0.95815" fill-rule="nonzero" opacity="1" stroke="#bfbfbf" stroke-linecap="butt" stroke-linejoin="miter" stroke-width="1.00274"/>
<path d="M186.406 66.3137C186.406 86.7713 169.822 103.355 149.364 103.355C128.907 103.355 112.323 86.7713 112.323 66.3137C112.323 45.8561 128.907 29.2719 149.364 29.2719C169.822 29.2719 186.406 45.8561 186.406 66.3137Z" fill="#0090ff" fill-opacity="0.95815" fill-rule="nonzero" opacity="1" stroke="#bfbfbf" stroke-linecap="butt" stroke-linejoin="miter" stroke-width="1.00274"/>
<path d="M379.289 72.3665C379.289 92.8241 362.705 109.408 342.247 109.408C321.79 109.408 305.206 92.8241 305.206 72.3665C305.206 51.9089 321.79 35.3247 342.247 35.3247C362.705 35.3247 379.289 51.9089 379.289 72.3665Z" fill="#0090ff" fill-opacity="0.95815" fill-rule="nonzero" opacity="1" stroke="#bfbfbf" stroke-linecap="butt" stroke-linejoin="miter" stroke-width="2.50386"/>
<path d="M448.936 142.013C448.936 162.471 432.352 179.055 411.894 179.055C391.437 179.055 374.852 162.471 374.852 142.013C374.852 121.556 391.437 104.971 411.894 104.971C432.352 104.971 448.936 121.556 448.936 142.013Z" fill="#0090ff" fill-opacity="0.95815" fill-rule="nonzero" opacity="1" stroke="#bfbfbf" stroke-linecap="butt" stroke-linejoin="miter" stroke-width="1.00274"/>
<path d="M458.886 338.516C458.886 358.974 442.301 375.558 421.844 375.558C401.386 375.558 384.802 358.974 384.802 338.516C384.802 318.059 401.386 301.475 421.844 301.475C442.301 301.475 458.886 318.059 458.886 338.516Z" fill="#0090ff" fill-opacity="0.95815" fill-rule="nonzero" opacity="1" stroke="#bfbfbf" stroke-linecap="butt" stroke-linejoin="miter" stroke-width="1.00274"/>
<path d="M384.264 415.625C384.264 436.083 367.68 452.667 347.222 452.667C326.765 452.667 310.18 436.083 310.18 415.625C310.18 395.168 326.765 378.584 347.222 378.584C367.68 378.584 384.264 395.168 384.264 415.625Z" fill="#0090ff" fill-opacity="0.95815" fill-rule="nonzero" opacity="1" stroke="#bfbfbf" stroke-linecap="butt" stroke-linejoin="miter" stroke-width="1.00274"/>
<path d="M186.517 423.087C186.517 443.545 169.933 460.129 149.475 460.129C129.018 460.129 112.434 443.545 112.434 423.087C112.434 402.63 129.018 386.046 149.475 386.046C169.933 386.046 186.517 402.63 186.517 423.087Z" fill="#0090ff" fill-opacity="0.95815" fill-rule="nonzero" opacity="1" stroke="#bfbfbf" stroke-linecap="butt" stroke-linejoin="miter" stroke-width="1.00274"/>
<path d="M110.652 345.979C110.652 366.436 94.0678 383.02 73.6102 383.02C53.1526 383.02 36.5684 366.436 36.5684 345.979C36.5684 325.521 53.1526 308.937 73.6102 308.937C94.0678 308.937 110.652 325.521 110.652 345.979Z" fill="#0090ff" fill-opacity="0.95815" fill-rule="nonzero" opacity="1" stroke="#bfbfbf" stroke-linecap="butt" stroke-linejoin="miter" stroke-width="1.00274"/>
</g>
<g opacity="1">
<g fill="#e34234" opacity="1" stroke="none">
<path clip-path="url(#TextBounds)" d="M249.17 257.078C248.336 254.687 246.667 254.687 244.72 254.687L222.469 254.687C220.522 254.687 218.853 254.687 220.244 253.166L256.124 218.822C259.183 215.996 255.289 213.388 251.951 213.388L178.523 213.388C176.297 213.388 174.629 213.605 173.794 213.823C171.569 214.692 171.291 215.996 171.569 217.083L171.569 218.822C171.569 218.822 171.569 220.126 171.847 222.517L171.847 232.081C171.847 235.776 171.847 239.906 172.125 244.254L172.125 256.426C172.125 265.773 171.569 276.858 170.735 285.988L169.9 297.508C169.622 300.551 169.344 302.073 169.344 302.073C169.066 306.203 172.682 308.376 176.854 308.376L266.693 308.376C270.865 308.376 272.812 305.116 270.865 300.768L249.17 257.078ZM206.893 257.296C205.78 258.382 203.555 259.469 202.164 259.687C200.774 259.904 199.383 259.904 199.661 258.382L201.33 222.952C202.164 221.213 204.111 219.691 208.284 219.691L237.21 219.691C240.27 219.691 244.998 220.778 242.495 223.169L206.893 257.296ZM243.607 300.551C244.72 302.073 242.773 302.073 240.826 302.073L199.661 302.073C198.27 302.073 196.88 301.638 197.158 300.116L198.27 276.858C199.105 274.25 201.886 270.772 203.277 269.251C207.727 264.686 209.396 263.164 212.456 260.773C214.403 258.382 218.853 259.034 220.244 259.687C221.634 259.904 225.528 261.425 226.363 262.947L243.607 300.551Z"/>
<path clip-path="url(#TextBounds)" d="M332.334 220.996C333.168 217.735 331.778 212.953 327.605 212.953C325.102 212.736 322.043 212.736 318.983 212.736C315.924 212.953 312.586 212.953 309.526 212.953C305.354 212.953 302.851 215.562 302.573 218.387C301.46 231.429 300.904 243.167 300.904 259.687C300.904 276.424 300.904 290.552 302.017 303.377C302.017 307.072 304.242 308.811 308.414 308.811C311.195 308.594 313.977 308.376 316.758 308.376L326.771 308.376C328.996 308.376 330.943 306.637 330.943 304.681C330.943 296.204 330.109 289.683 329.274 282.945C328.44 276.206 327.884 269.468 328.162 260.773C328.44 245.123 330.387 230.342 332.334 220.996Z"/>
</g>
<path clip-path="url(#TextBounds_2)" d="M268.824 165.725C269.535 165.725 270.008 165.015 270.008 163.831C270.008 162.41 269.535 161.7 268.824 161.7C268.588 161.7 268.114 161.463 267.641 161.226C266.93 160.99 266.22 160.99 265.51 160.99C263.616 161.226 262.906 159.096 262.669 157.438C262.432 156.491 262.432 155.308 262.432 153.65L262.432 139.445C262.432 137.788 262.195 136.604 260.538 135.894C258.407 135.657 255.803 135.657 252.252 135.657L244.202 135.657C243.255 135.657 242.545 137.078 242.545 138.025C242.545 139.208 242.545 140.629 242.781 142.286C242.781 145.601 243.018 149.152 243.018 152.23C243.018 155.071 243.018 156.965 242.545 158.859C242.308 160.043 241.598 160.516 240.651 160.516C231.18 160.516 219.343 160.279 207.979 159.806C196.614 159.332 185.96 158.622 178.384 156.728C175.78 156.018 174.596 160.043 178.147 162.647C178.858 163.357 179.094 164.068 178.858 165.251C178.621 166.435 178.384 167.382 178.384 168.329C178.384 171.644 178.621 174.485 178.858 176.616C179.094 178.746 179.094 180.64 178.858 181.824C178.858 183.008 179.568 183.718 180.752 183.718C184.777 184.428 193.537 184.665 197.088 183.955C197.798 183.718 198.272 183.008 198.272 182.061C198.035 179.693 197.798 177.089 197.798 174.248C197.798 171.407 198.035 169.039 198.272 167.382C198.272 166.198 198.745 165.725 199.929 165.725C209.399 165.962 222.421 166.198 235.442 166.198C247.99 166.198 260.538 165.962 268.824 165.725Z" fill="#e34234" opacity="1" stroke="none"/>
</g>
<path d="M450.563 338.363C450.563 354.539 437.45 367.652 421.275 367.652C405.099 367.652 391.986 354.539 391.986 338.363C391.986 322.187 405.099 309.074 421.275 309.074C437.45 309.074 450.563 322.187 450.563 338.363Z" fill="#ffffff" fill-rule="nonzero" opacity="1" stroke="none"/>
</g>
</svg>
