<?xml version="1.0" encoding="UTF-8" standalone="no"?>
<!DOCTYPE svg PUBLIC "-//W3C//DTD SVG 1.1//EN" "http://www.w3.org/Graphics/SVG/1.1/DTD/svg11.dtd">
<!-- Created with Vectornator (http://vectornator.io/) -->
<svg height="100%" stroke-miterlimit="10" style="fill-rule:nonzero;clip-rule:evenodd;stroke-linecap:round;stroke-linejoin:round;" version="1.1" viewBox="0 0 482.936 495.296" width="100%" xml:space="preserve" xmlns="http://www.w3.org/2000/svg" xmlns:vectornator="http://vectornator.io" xmlns:xlink="http://www.w3.org/1999/xlink">
<defs>
<clipPath id="TextBounds">
<rect height="306.756" width="171.934" x="190.8" y="88.6219"/>
</clipPath>
<clipPath id="TextBounds_2">
<rect height="271" width="159.637" x="199.399" y="103.129"/>
</clipPath>
</defs>
<g id="layer1" vectornator:layerName="layer1">
<path d="M39.2391 246.571C39.2391 130.989 129.431 37.2917 240.689 37.2917C351.947 37.2917 442.139 130.989 442.139 246.571C442.139 362.153 351.947 455.85 240.689 455.85C129.431 455.85 39.2391 362.153 39.2391 246.571Z" fill="#e4e4e4" fill-opacity="0" fill-rule="nonzero" opacity="1" stroke="#cdcdcd" stroke-dasharray="5.504080295562744,5.504080295562744" stroke-linecap="butt" stroke-linejoin="round" stroke-width="11.0082"/>
<g opacity="1">
<path d="M279.546 456.902C279.546 476.964 263.469 493.228 243.637 493.228C223.804 493.228 207.727 476.964 207.727 456.902C207.727 436.84 223.804 420.576 243.637 420.576C263.469 420.576 279.546 436.84 279.546 456.902Z" fill="#292121" fill-opacity="0.205418" fill-rule="nonzero" opacity="1" stroke="none"/>
<path d="M480.892 255.658C480.892 275.72 464.815 291.984 444.983 291.984C425.151 291.984 409.074 275.72 409.074 255.658C409.074 235.595 425.151 219.332 444.983 219.332C464.815 219.332 480.892 235.595 480.892 255.658Z" fill="#292121" fill-opacity="0.205418" fill-rule="nonzero" opacity="1" stroke="none"/>
<path d="M78.1996 253.218C78.1996 273.281 62.1224 289.545 42.2903 289.545C22.4582 289.545 6.38105 273.281 6.38105 253.218C6.38106 233.156 22.4582 216.892 42.2903 216.892C62.1224 216.892 78.1996 233.156 78.1996 253.218Z" fill="#292121" fill-opacity="0.205418" fill-rule="nonzero" opacity="1" stroke="none"/>
<path d="M111.958 151.986C111.958 172.049 95.8811 188.313 76.049 188.313C56.2168 188.313 40.1397 172.049 40.1397 151.986C40.1397 131.924 56.2168 115.66 76.049 115.66C95.8811 115.66 111.958 131.924 111.958 151.986Z" fill="#292121" fill-opacity="0.205418" fill-rule="nonzero" opacity="1" stroke="none"/>
<path d="M189.125 75.558C189.125 95.6204 173.047 111.884 153.215 111.884C133.383 111.884 117.306 95.6204 117.306 75.558C117.306 55.4957 133.383 39.2319 153.215 39.2319C173.047 39.2319 189.125 55.4957 189.125 75.558Z" fill="#292121" fill-opacity="0.205418" fill-rule="nonzero" opacity="1" stroke="none"/>
<path d="M373.588 84.905C373.588 104.967 357.511 121.231 337.678 121.231C317.846 121.231 301.769 104.967 301.769 84.905C301.769 64.8427 317.846 48.5789 337.678 48.5789C357.511 48.5789 373.588 64.8427 373.588 84.905Z" fill="#292121" fill-opacity="0.205418" fill-rule="nonzero" opacity="1" stroke="none"/>
<path d="M441.105 153.206C441.105 173.268 425.028 189.532 405.196 189.532C385.364 189.532 369.287 173.268 369.287 153.206C369.287 133.144 385.364 116.88 405.196 116.88C425.028 116.88 441.105 133.144 441.105 153.206Z" fill="#292121" fill-opacity="0.205418" fill-rule="nonzero" opacity="1" stroke="none"/>
<path d="M450.75 345.913C450.75 365.975 434.673 382.239 414.841 382.239C395.009 382.239 378.932 365.975 378.932 345.913C378.932 325.85 395.009 309.587 414.841 309.587C434.673 309.587 450.75 325.85 450.75 345.913Z" fill="#292121" fill-opacity="0.205418" fill-rule="nonzero" opacity="1" stroke="none"/>
<path d="M378.41 421.532C378.41 441.594 362.333 457.858 342.501 457.858C322.669 457.858 306.592 441.594 306.592 421.532C306.592 401.47 322.669 385.206 342.501 385.206C362.333 385.206 378.41 401.47 378.41 421.532Z" fill="#292121" fill-opacity="0.205418" fill-rule="nonzero" opacity="1" stroke="none"/>
<path d="M186.71 428.85C186.71 448.912 170.632 465.176 150.8 465.176C130.968 465.176 114.891 448.912 114.891 428.85C114.891 408.788 130.968 392.524 150.8 392.524C170.632 392.524 186.71 408.788 186.71 428.85Z" fill="#292121" fill-opacity="0.205418" fill-rule="nonzero" opacity="1" stroke="none"/>
<path d="M113.164 353.231C113.164 373.293 97.0867 389.557 77.2546 389.557C57.4225 389.557 41.3454 373.293 41.3454 353.231C41.3454 333.168 57.4225 316.905 77.2546 316.905C97.0867 316.905 113.164 333.168 113.164 353.231Z" fill="#292121" fill-opacity="0.205418" fill-rule="nonzero" opacity="1" stroke="none"/>
<path d="M281.957 50.7545C281.957 70.8168 265.88 87.0806 246.048 87.0806C226.216 87.0806 210.139 70.8168 210.139 50.7545C210.139 30.6921 226.216 14.4284 246.048 14.4283C265.88 14.4283 281.957 30.6921 281.957 50.7545Z" fill="#292121" fill-opacity="0.205418" fill-rule="nonzero" opacity="1" stroke="none"/>
</g>
<g opacity="1">
<path d="M284.769 37.5431C284.769 58.0008 268.185 74.5849 247.727 74.5849C227.269 74.5849 210.685 58.0008 210.685 37.5431C210.685 17.0855 227.269 0.501374 247.727 0.501371C268.185 0.501366 284.769 17.0855 284.769 37.5431Z" fill="#ffee09" fill-opacity="0.95815" fill-rule="nonzero" opacity="1" stroke="#bfbfbf" stroke-linecap="butt" stroke-linejoin="miter" stroke-width="1.00274"/>
<path d="M282.281 451.692C282.281 472.15 265.697 488.734 245.24 488.734C224.782 488.734 208.198 472.15 208.198 451.692C208.198 431.235 224.782 414.651 245.24 414.651C265.697 414.651 282.281 431.235 282.281 451.692Z" fill="#ffee09" fill-opacity="0.95815" fill-rule="nonzero" opacity="1" stroke="#bfbfbf" stroke-linecap="butt" stroke-linejoin="miter" stroke-width="1.00274"/>
<path d="M481.161 240.071C481.161 260.529 464.577 277.113 444.119 277.113C423.662 277.113 407.078 260.529 407.078 240.071C407.078 219.614 423.662 203.029 444.119 203.029C464.577 203.029 481.161 219.614 481.161 240.071Z" fill="#ffee09" fill-opacity="0.95815" fill-rule="nonzero" opacity="1" stroke="#bfbfbf" stroke-linecap="butt" stroke-linejoin="miter" stroke-width="1.00274"/>
<path d="M74.5849 243.996C74.5849 264.454 58.0008 281.038 37.5431 281.038C17.0855 281.038 0.501371 264.454 0.501373 243.996C0.501376 223.538 17.0855 206.954 37.5431 206.954C58.0008 206.954 74.5849 223.538 74.5849 243.996Z" fill="#ffee09" fill-opacity="0.95815" fill-rule="nonzero" opacity="1" stroke="#bfbfbf" stroke-linecap="butt" stroke-linejoin="miter" stroke-width="1.00274"/>
<path d="M109.408 140.77C109.408 161.227 92.8241 177.811 72.3665 177.811C51.9089 177.811 35.3247 161.227 35.3247 140.77C35.3247 120.312 51.9089 103.728 72.3665 103.728C92.8241 103.728 109.408 120.312 109.408 140.77Z" fill="#ffee09" fill-opacity="0.95815" fill-rule="nonzero" opacity="1" stroke="#bfbfbf" stroke-linecap="butt" stroke-linejoin="miter" stroke-width="1.00274"/>
<path d="M186.406 66.3137C186.406 86.7713 169.822 103.355 149.364 103.355C128.907 103.355 112.323 86.7713 112.323 66.3137C112.323 45.8561 128.907 29.2719 149.364 29.2719C169.822 29.2719 186.406 45.8561 186.406 66.3137Z" fill="#ffee09" fill-opacity="0.95815" fill-rule="nonzero" opacity="1" stroke="#bfbfbf" stroke-linecap="butt" stroke-linejoin="miter" stroke-width="1.00274"/>
<path d="M379.289 72.3665C379.289 92.8241 362.705 109.408 342.247 109.408C321.79 109.408 305.206 92.8241 305.206 72.3665C305.206 51.9089 321.79 35.3247 342.247 35.3247C362.705 35.3247 379.289 51.9089 379.289 72.3665Z" fill="#ffee09" fill-opacity="0.95815" fill-rule="nonzero" opacity="1" stroke="#bfbfbf" stroke-linecap="butt" stroke-linejoin="miter" stroke-width="2.50386"/>
<path d="M448.936 142.013C448.936 162.471 432.352 179.055 411.894 179.055C391.437 179.055 374.852 162.471 374.852 142.013C374.852 121.556 391.437 104.971 411.894 104.971C432.352 104.971 448.936 121.556 448.936 142.013Z" fill="#ffee09" fill-opacity="0.95815" fill-rule="nonzero" opacity="1" stroke="#bfbfbf" stroke-linecap="butt" stroke-linejoin="miter" stroke-width="1.00274"/>
<path d="M458.886 338.516C458.886 358.974 442.301 375.558 421.844 375.558C401.386 375.558 384.802 358.974 384.802 338.516C384.802 318.059 401.386 301.475 421.844 301.475C442.301 301.475 458.886 318.059 458.886 338.516Z" fill="#ffee09" fill-opacity="0.95815" fill-rule="nonzero" opacity="1" stroke="#bfbfbf" stroke-linecap="butt" stroke-linejoin="miter" stroke-width="1.00274"/>
<path d="M384.264 415.625C384.264 436.083 367.68 452.667 347.222 452.667C326.765 452.667 310.18 436.083 310.18 415.625C310.18 395.168 326.765 378.584 347.222 378.584C367.68 378.584 384.264 395.168 384.264 415.625Z" fill="#ffee09" fill-opacity="0.95815" fill-rule="nonzero" opacity="1" stroke="#bfbfbf" stroke-linecap="butt" stroke-linejoin="miter" stroke-width="1.00274"/>
<path d="M186.517 423.087C186.517 443.545 169.933 460.129 149.475 460.129C129.018 460.129 112.434 443.545 112.434 423.087C112.434 402.63 129.018 386.046 149.475 386.046C169.933 386.046 186.517 402.63 186.517 423.087Z" fill="#ffee09" fill-opacity="0.95815" fill-rule="nonzero" opacity="1" stroke="#bfbfbf" stroke-linecap="butt" stroke-linejoin="miter" stroke-width="1.00274"/>
<path d="M110.652 345.979C110.652 366.436 94.0678 383.02 73.6102 383.02C53.1526 383.02 36.5684 366.436 36.5684 345.979C36.5684 325.521 53.1526 308.937 73.6102 308.937C94.0678 308.937 110.652 325.521 110.652 345.979Z" fill="#ffee09" fill-opacity="0.95815" fill-rule="nonzero" opacity="1" stroke="#bfbfbf" stroke-linecap="butt" stroke-linejoin="miter" stroke-width="1.00274"/>
</g>
<g opacity="1">
<path clip-path="url(#TextBounds)" d="M299.302 296.555C300.693 294.164 301.249 292.643 300.971 291.556C299.859 289.6 296.799 289.165 292.905 289.817C290.958 290.034 289.289 290.252 287.899 290.252C285.395 290.252 284.561 288.513 283.17 285.252L266.204 227.868C265.369 225.042 264.813 222.434 264.813 220.043C264.813 217.652 264.535 214.609 264.257 211.348C264.257 209.827 264.813 208.305 265.647 207.218C266.482 206.132 266.482 205.045 266.204 203.958C266.204 202.436 265.926 201.35 265.091 200.48C264.257 199.828 261.475 199.828 256.747 200.48C252.019 202.002 246.178 201.132 241.449 200.48C235.608 199.828 233.383 202.219 234.496 207.436C234.774 209.827 235.608 213.087 236.721 217C236.999 218.956 237.555 220.912 237.834 222.869L238.668 228.303C239.781 232.433 239.502 234.606 237.555 238.302C233.94 247.648 229.767 254.821 226.152 261.777C222.536 268.95 218.92 276.123 216.417 284.165C215.304 286.556 213.357 288.295 210.02 288.295C208.073 288.295 206.404 288.078 205.013 287.643C202.51 286.774 198.894 286.774 195.834 289.382C194.444 290.904 193.887 292.425 194.166 293.947C195.278 297.425 196.391 300.468 197.225 303.294L199.728 311.771C200.285 314.597 200.841 317.422 201.675 320.248C202.51 323.074 203.344 326.334 204.179 330.029C205.013 333.29 208.629 335.029 210.02 330.029C210.854 326.769 211.41 323.726 212.245 321.335L213.914 314.597C214.47 312.64 215.304 310.467 216.139 308.293C216.973 306.337 217.807 303.728 218.92 300.903C220.033 297.425 220.589 294.816 226.986 295.468C235.608 296.121 242.284 296.121 248.959 296.121C255.634 296.121 262.31 295.903 270.932 295.251C276.495 295.251 277.886 297.859 278.72 301.12C278.998 306.337 278.998 310.901 278.998 315.031L278.998 329.812C278.998 330.682 280.389 331.768 282.058 331.986C283.727 332.203 284.839 331.986 285.674 330.029C286.786 326.552 287.621 323.291 288.455 320.248C289.846 314.379 294.018 306.119 295.687 302.859C296.521 301.337 297.634 299.164 299.302 296.555ZM255.634 284.6C256.747 286.991 253.687 288.947 251.184 289.6C241.449 290.252 233.383 290.034 225.317 289.165C222.536 288.947 221.423 287.426 222.258 285.035C224.483 278.079 226.986 272.862 229.767 267.428C231.158 264.603 232.549 261.777 234.218 258.734L240.059 247.866C240.337 246.779 241.449 246.344 242.84 246.996C244.231 247.648 245.343 249.604 246.178 252.865C247.568 258.299 249.237 263.516 250.906 268.515C252.297 273.732 253.966 279.166 255.634 284.6Z" fill="#e34234" opacity="1" stroke="none"/>
<path clip-path="url(#TextBounds_2)" d="M280.321 167.432C280.895 167.432 281.278 166.857 281.278 165.901C281.278 164.752 280.895 164.178 280.321 164.178C280.13 164.178 279.747 163.987 279.364 163.795C278.79 163.604 278.216 163.604 277.642 163.604C276.111 163.795 275.537 162.073 275.345 160.733C275.154 159.968 275.154 159.011 275.154 157.671L275.154 146.189C275.154 144.849 274.963 143.892 273.623 143.318C271.901 143.127 269.795 143.127 266.925 143.127L260.418 143.127C259.652 143.127 259.078 144.275 259.078 145.04C259.078 145.997 259.078 147.145 259.27 148.485C259.27 151.164 259.461 154.035 259.461 156.523C259.461 158.82 259.461 160.351 259.078 161.882C258.887 162.838 258.313 163.221 257.547 163.221C249.892 163.221 240.323 163.03 231.137 162.647C221.951 162.264 213.339 161.69 207.215 160.159C205.11 159.585 204.153 162.838 207.023 164.944C207.598 165.518 207.789 166.092 207.598 167.049C207.406 168.006 207.215 168.771 207.215 169.537C207.215 172.216 207.406 174.512 207.598 176.235C207.789 177.957 207.789 179.488 207.598 180.445C207.598 181.402 208.172 181.976 209.129 181.976C212.382 182.55 219.463 182.742 222.334 182.168C222.908 181.976 223.291 181.402 223.291 180.637C223.099 178.723 222.908 176.618 222.908 174.321C222.908 172.025 223.099 170.111 223.291 168.771C223.291 167.814 223.673 167.432 224.63 167.432C232.285 167.623 242.811 167.814 253.337 167.814C263.48 167.814 273.623 167.623 280.321 167.432Z" fill="#e34234" opacity="1" stroke="none"/>
</g>
<path d="M103.155 346.746C103.155 362.922 90.0416 376.035 73.866 376.035C57.6903 376.035 44.5774 362.922 44.5774 346.746C44.5774 330.57 57.6903 317.457 73.866 317.457C90.0416 317.457 103.155 330.57 103.155 346.746Z" fill="#ffffff" fill-rule="nonzero" opacity="1" stroke="none"/>
</g>
</svg>
