<?xml version="1.0" encoding="UTF-8" standalone="no"?>
<!DOCTYPE svg PUBLIC "-//W3C//DTD SVG 1.1//EN" "http://www.w3.org/Graphics/SVG/1.1/DTD/svg11.dtd">
<!-- Created with Vectornator (http://vectornator.io/) -->
<svg height="100%" stroke-miterlimit="10" style="fill-rule:nonzero;clip-rule:evenodd;stroke-linecap:round;stroke-linejoin:round;" version="1.1" viewBox="0 0 482.936 495.296" width="100%" xml:space="preserve" xmlns="http://www.w3.org/2000/svg" xmlns:vectornator="http://vectornator.io" xmlns:xlink="http://www.w3.org/1999/xlink">
<defs>
<clipPath id="TextBounds">
<rect height="252.273" width="119.574" x="169.358" y="120.638"/>
</clipPath>
<clipPath id="TextBounds_2">
<rect height="91.4674" width="159.16" x="200.989" y="116.105"/>
</clipPath>
</defs>
<g id="layer1" vectornator:layerName="layer1">
<path d="M39.2391 246.571C39.2391 130.989 129.431 37.2917 240.689 37.2917C351.947 37.2917 442.139 130.989 442.139 246.571C442.139 362.153 351.947 455.85 240.689 455.85C129.431 455.85 39.2391 362.153 39.2391 246.571Z" fill="#e4e4e4" fill-opacity="0" fill-rule="nonzero" opacity="1" stroke="#cdcdcd" stroke-dasharray="5.504080295562744,5.504080295562744" stroke-linecap="butt" stroke-linejoin="round" stroke-width="11.0082"/>
<g opacity="1">
<path d="M279.546 456.902C279.546 476.964 263.469 493.228 243.637 493.228C223.804 493.228 207.727 476.964 207.727 456.902C207.727 436.84 223.804 420.576 243.637 420.576C263.469 420.576 279.546 436.84 279.546 456.902Z" fill="#292121" fill-opacity="0.205418" fill-rule="nonzero" opacity="1" stroke="none"/>
<path d="M480.892 255.658C480.892 275.72 464.815 291.984 444.983 291.984C425.151 291.984 409.074 275.72 409.074 255.658C409.074 235.595 425.151 219.332 444.983 219.332C464.815 219.332 480.892 235.595 480.892 255.658Z" fill="#292121" fill-opacity="0.205418" fill-rule="nonzero" opacity="1" stroke="none"/>
<path d="M78.1996 253.218C78.1996 273.281 62.1224 289.545 42.2903 289.545C22.4582 289.545 6.38105 273.281 6.38105 253.218C6.38106 233.156 22.4582 216.892 42.2903 216.892C62.1224 216.892 78.1996 233.156 78.1996 253.218Z" fill="#292121" fill-opacity="0.205418" fill-rule="nonzero" opacity="1" stroke="none"/>
<path d="M111.958 151.986C111.958 172.049 95.8811 188.313 76.049 188.313C56.2168 188.313 40.1397 172.049 40.1397 151.986C40.1397 131.924 56.2168 115.66 76.049 115.66C95.8811 115.66 111.958 131.924 111.958 151.986Z" fill="#292121" fill-opacity="0.205418" fill-rule="nonzero" opacity="1" stroke="none"/>
<path d="M189.125 75.558C189.125 95.6204 173.047 111.884 153.215 111.884C133.383 111.884 117.306 95.6204 117.306 75.558C117.306 55.4957 133.383 39.2319 153.215 39.2319C173.047 39.2319 189.125 55.4957 189.125 75.558Z" fill="#292121" fill-opacity="0.205418" fill-rule="nonzero" opacity="1" stroke="none"/>
<path d="M373.588 84.905C373.588 104.967 357.511 121.231 337.678 121.231C317.846 121.231 301.769 104.967 301.769 84.905C301.769 64.8427 317.846 48.5789 337.678 48.5789C357.511 48.5789 373.588 64.8427 373.588 84.905Z" fill="#292121" fill-opacity="0.205418" fill-rule="nonzero" opacity="1" stroke="none"/>
<path d="M441.105 153.206C441.105 173.268 425.028 189.532 405.196 189.532C385.364 189.532 369.287 173.268 369.287 153.206C369.287 133.144 385.364 116.88 405.196 116.88C425.028 116.88 441.105 133.144 441.105 153.206Z" fill="#292121" fill-opacity="0.205418" fill-rule="nonzero" opacity="1" stroke="none"/>
<path d="M450.75 345.913C450.75 365.975 434.673 382.239 414.841 382.239C395.009 382.239 378.932 365.975 378.932 345.913C378.932 325.85 395.009 309.587 414.841 309.587C434.673 309.587 450.75 325.85 450.75 345.913Z" fill="#292121" fill-opacity="0.205418" fill-rule="nonzero" opacity="1" stroke="none"/>
<path d="M378.41 421.532C378.41 441.594 362.333 457.858 342.501 457.858C322.669 457.858 306.592 441.594 306.592 421.532C306.592 401.47 322.669 385.206 342.501 385.206C362.333 385.206 378.41 401.47 378.41 421.532Z" fill="#292121" fill-opacity="0.205418" fill-rule="nonzero" opacity="1" stroke="none"/>
<path d="M186.71 428.85C186.71 448.912 170.632 465.176 150.8 465.176C130.968 465.176 114.891 448.912 114.891 428.85C114.891 408.788 130.968 392.524 150.8 392.524C170.632 392.524 186.71 408.788 186.71 428.85Z" fill="#292121" fill-opacity="0.205418" fill-rule="nonzero" opacity="1" stroke="none"/>
<path d="M113.164 353.231C113.164 373.293 97.0867 389.557 77.2546 389.557C57.4225 389.557 41.3454 373.293 41.3454 353.231C41.3454 333.168 57.4225 316.905 77.2546 316.905C97.0867 316.905 113.164 333.168 113.164 353.231Z" fill="#292121" fill-opacity="0.205418" fill-rule="nonzero" opacity="1" stroke="none"/>
<path d="M281.957 50.7545C281.957 70.8168 265.88 87.0806 246.048 87.0806C226.216 87.0806 210.139 70.8168 210.139 50.7545C210.139 30.6921 226.216 14.4284 246.048 14.4283C265.88 14.4283 281.957 30.6921 281.957 50.7545Z" fill="#292121" fill-opacity="0.205418" fill-rule="nonzero" opacity="1" stroke="none"/>
</g>
<g opacity="1">
<path d="M284.769 37.5431C284.769 58.0008 268.185 74.5849 247.727 74.5849C227.269 74.5849 210.685 58.0008 210.685 37.5431C210.685 17.0855 227.269 0.501374 247.727 0.501371C268.185 0.501366 284.769 17.0855 284.769 37.5431Z" fill="#ffffff" fill-opacity="0.95815" fill-rule="nonzero" opacity="1" stroke="#bfbfbf" stroke-linecap="butt" stroke-linejoin="miter" stroke-width="1.00274"/>
<path d="M282.281 451.692C282.281 472.15 265.697 488.734 245.24 488.734C224.782 488.734 208.198 472.15 208.198 451.692C208.198 431.235 224.782 414.651 245.24 414.651C265.697 414.651 282.281 431.235 282.281 451.692Z" fill="#ffffff" fill-opacity="0.95815" fill-rule="nonzero" opacity="1" stroke="#bfbfbf" stroke-linecap="butt" stroke-linejoin="miter" stroke-width="1.00274"/>
<path d="M481.161 240.071C481.161 260.529 464.577 277.113 444.119 277.113C423.662 277.113 407.078 260.529 407.078 240.071C407.078 219.614 423.662 203.029 444.119 203.029C464.577 203.029 481.161 219.614 481.161 240.071Z" fill="#ffffff" fill-opacity="0.95815" fill-rule="nonzero" opacity="1" stroke="#bfbfbf" stroke-linecap="butt" stroke-linejoin="miter" stroke-width="1.00274"/>
<path d="M74.5849 243.996C74.5849 264.454 58.0008 281.038 37.5431 281.038C17.0855 281.038 0.501371 264.454 0.501373 243.996C0.501376 223.538 17.0855 206.954 37.5431 206.954C58.0008 206.954 74.5849 223.538 74.5849 243.996Z" fill="#ffffff" fill-opacity="0.95815" fill-rule="nonzero" opacity="1" stroke="#bfbfbf" stroke-linecap="butt" stroke-linejoin="miter" stroke-width="1.00274"/>
<path d="M109.408 140.77C109.408 161.227 92.8241 177.811 72.3665 177.811C51.9089 177.811 35.3247 161.227 35.3247 140.77C35.3247 120.312 51.9089 103.728 72.3665 103.728C92.8241 103.728 109.408 120.312 109.408 140.77Z" fill="#ffffff" fill-opacity="0.95815" fill-rule="nonzero" opacity="1" stroke="#bfbfbf" stroke-linecap="butt" stroke-linejoin="miter" stroke-width="1.00274"/>
<path d="M186.406 66.3137C186.406 86.7713 169.822 103.355 149.364 103.355C128.907 103.355 112.323 86.7713 112.323 66.3137C112.323 45.8561 128.907 29.2719 149.364 29.2719C169.822 29.2719 186.406 45.8561 186.406 66.3137Z" fill="#ffffff" fill-opacity="0.95815" fill-rule="nonzero" opacity="1" stroke="#bfbfbf" stroke-linecap="butt" stroke-linejoin="miter" stroke-width="1.00274"/>
<path d="M379.289 72.3665C379.289 92.8241 362.705 109.408 342.247 109.408C321.79 109.408 305.206 92.8241 305.206 72.3665C305.206 51.9089 321.79 35.3247 342.247 35.3247C362.705 35.3247 379.289 51.9089 379.289 72.3665Z" fill="#ffffff" fill-opacity="0.95815" fill-rule="nonzero" opacity="1" stroke="#bfbfbf" stroke-linecap="butt" stroke-linejoin="miter" stroke-width="2.50386"/>
<path d="M448.936 142.013C448.936 162.471 432.352 179.055 411.894 179.055C391.437 179.055 374.852 162.471 374.852 142.013C374.852 121.556 391.437 104.971 411.894 104.971C432.352 104.971 448.936 121.556 448.936 142.013Z" fill="#ffffff" fill-opacity="0.95815" fill-rule="nonzero" opacity="1" stroke="#bfbfbf" stroke-linecap="butt" stroke-linejoin="miter" stroke-width="1.00274"/>
<path d="M458.886 338.516C458.886 358.974 442.301 375.558 421.844 375.558C401.386 375.558 384.802 358.974 384.802 338.516C384.802 318.059 401.386 301.475 421.844 301.475C442.301 301.475 458.886 318.059 458.886 338.516Z" fill="#ffffff" fill-opacity="0.95815" fill-rule="nonzero" opacity="1" stroke="#bfbfbf" stroke-linecap="butt" stroke-linejoin="miter" stroke-width="1.00274"/>
<path d="M384.264 415.625C384.264 436.083 367.68 452.667 347.222 452.667C326.765 452.667 310.18 436.083 310.18 415.625C310.18 395.168 326.765 378.584 347.222 378.584C367.68 378.584 384.264 395.168 384.264 415.625Z" fill="#ffffff" fill-opacity="0.95815" fill-rule="nonzero" opacity="1" stroke="#bfbfbf" stroke-linecap="butt" stroke-linejoin="miter" stroke-width="1.00274"/>
<path d="M186.517 423.087C186.517 443.545 169.933 460.129 149.475 460.129C129.018 460.129 112.434 443.545 112.434 423.087C112.434 402.63 129.018 386.046 149.475 386.046C169.933 386.046 186.517 402.63 186.517 423.087Z" fill="#ffffff" fill-opacity="0.95815" fill-rule="nonzero" opacity="1" stroke="#bfbfbf" stroke-linecap="butt" stroke-linejoin="miter" stroke-width="1.00274"/>
<path d="M110.652 345.979C110.652 366.436 94.0678 383.02 73.6102 383.02C53.1526 383.02 36.5684 366.436 36.5684 345.979C36.5684 325.521 53.1526 308.937 73.6102 308.937C94.0678 308.937 110.652 325.521 110.652 345.979Z" fill="#ffffff" fill-opacity="0.95815" fill-rule="nonzero" opacity="1" stroke="#bfbfbf" stroke-linecap="butt" stroke-linejoin="miter" stroke-width="1.00274"/>
</g>
<g opacity="1">
<path clip-path="url(#TextBounds)" d="M299.299 282.923C300.925 281.497 298.835 279.358 297.905 278.467C296.047 277.22 294.421 276.15 293.259 275.259C290.704 273.655 289.31 272.229 287.684 270.625C286.755 269.912 285.594 269.021 284.432 267.951C280.715 264.565 276.534 259.93 273.979 256.544C272.352 254.405 271.191 252.444 267.242 253.335C257.021 254.94 252.375 257.435 244.012 261.534L234.952 265.456C229.377 267.951 224.267 270.09 218.691 272.051C215.904 273.12 212.884 274.189 209.4 275.259C205.915 276.507 204.986 274.368 204.521 271.516C204.289 270.09 204.057 268.486 204.289 266.703L204.289 262.247C204.289 259.217 205.683 252.622 208.47 246.206C211.258 239.968 215.439 233.551 220.318 230.521C231.7 223.391 239.831 223.213 245.174 223.748C254.233 224.461 258.182 227.491 260.738 232.303C270.262 231.056 279.786 231.59 287.916 232.125C290.472 232.303 291.866 231.056 292.562 228.204C288.846 222.678 283.967 219.47 277.928 217.153C274.908 215.905 271.656 215.014 268.171 214.123C264.687 213.232 260.97 212.162 257.021 211.271L256.556 211.093C256.092 210.915 255.627 210.915 255.395 210.915C241.457 212.34 229.842 214.123 217.762 221.431C207.309 227.669 199.875 233.551 194.532 239.968C188.957 246.562 185.473 254.227 182.685 263.495C181.756 266.169 182.917 273.12 184.776 280.071C186.634 287.023 188.957 293.974 190.583 296.826C195.462 305.916 201.269 314.472 209.4 323.562C214.045 328.731 217.995 332.295 221.479 333.9C224.731 335.504 227.054 336.395 228.448 336.395C231.236 336.395 236.346 335.682 241.457 334.613C246.567 333.543 251.678 332.117 255.395 330.691C263.061 327.305 268.403 323.918 274.211 320.353C276.998 318.749 276.534 315.363 274.443 314.115C271.656 313.224 269.1 313.58 266.777 315.184C263.757 316.61 261.667 317.68 259.808 318.749C257.95 319.819 256.324 320.71 253.536 321.958C251.678 322.671 248.426 323.383 245.406 323.383C242.386 323.562 239.134 323.205 237.972 321.958C229.61 314.293 221.711 305.203 215.207 295.043C210.561 287.914 211.722 285.597 213.581 282.745C215.439 280.071 221.944 278.111 227.519 276.15L235.417 273.476C240.063 271.872 244.244 270.803 246.103 270.625C249.587 270.09 252.607 271.694 255.627 274.189C258.415 276.685 260.97 280.25 263.525 283.28C265.151 284.527 267.242 283.993 269.797 283.814C279.089 282.388 285.826 282.923 294.189 284.349C296.279 284.527 298.138 283.993 299.299 282.923Z" fill="#e34234" opacity="1" stroke="none"/>
<path clip-path="url(#TextBounds_2)" d="M281.911 180.407C282.485 180.407 282.868 179.833 282.868 178.876C282.868 177.728 282.485 177.154 281.911 177.154C281.72 177.154 281.337 176.963 280.954 176.771C280.38 176.58 279.806 176.58 279.232 176.58C277.701 176.771 277.127 175.049 276.935 173.709C276.744 172.944 276.744 171.987 276.744 170.647L276.744 159.165C276.744 157.825 276.552 156.868 275.213 156.294C273.49 156.103 271.385 156.103 268.515 156.103L262.008 156.103C261.242 156.103 260.668 157.251 260.668 158.016C260.668 158.973 260.668 160.121 260.859 161.461C260.859 164.14 261.051 167.011 261.051 169.499C261.051 171.795 261.051 173.327 260.668 174.858C260.477 175.814 259.903 176.197 259.137 176.197C251.482 176.197 241.913 176.006 232.727 175.623C223.541 175.24 214.929 174.666 208.805 173.135C206.7 172.561 205.743 175.814 208.613 177.92C209.188 178.494 209.379 179.068 209.188 180.025C208.996 180.982 208.805 181.747 208.805 182.513C208.805 185.192 208.996 187.488 209.188 189.211C209.379 190.933 209.379 192.464 209.188 193.421C209.188 194.378 209.762 194.952 210.719 194.952C213.972 195.526 221.053 195.718 223.924 195.144C224.498 194.952 224.88 194.378 224.88 193.613C224.689 191.699 224.498 189.594 224.498 187.297C224.498 185.001 224.689 183.087 224.88 181.747C224.88 180.79 225.263 180.407 226.22 180.407C233.875 180.599 244.401 180.79 254.927 180.79C265.07 180.79 275.213 180.599 281.911 180.407Z" fill="#e34234" opacity="1" stroke="none"/>
</g>
<path d="M66.9124 243.456C66.9124 259.631 53.7994 272.744 37.6238 272.744C21.4481 272.744 8.33516 259.631 8.33516 243.456C8.33516 227.28 21.4481 214.167 37.6238 214.167C53.7994 214.167 66.9124 227.28 66.9124 243.456Z" fill="#e34234" fill-rule="nonzero" opacity="1" stroke="none"/>
</g>
</svg>
