<?xml version="1.0" encoding="UTF-8" standalone="no"?>
<!DOCTYPE svg PUBLIC "-//W3C//DTD SVG 1.1//EN" "http://www.w3.org/Graphics/SVG/1.1/DTD/svg11.dtd">
<!-- Created with Vectornator (http://vectornator.io/) -->
<svg height="100%" stroke-miterlimit="10" style="fill-rule:nonzero;clip-rule:evenodd;stroke-linecap:round;stroke-linejoin:round;" version="1.1" viewBox="0 0 482.936 495.296" width="100%" xml:space="preserve" xmlns="http://www.w3.org/2000/svg" xmlns:vectornator="http://vectornator.io" xmlns:xlink="http://www.w3.org/1999/xlink">
<defs>
<clipPath id="TextBounds">
<rect height="303.171" width="140.012" x="169.748" y="98.3894"/>
</clipPath>
<clipPath id="TextBounds_2">
<rect height="271" width="109.435" x="203.171" y="105.924"/>
</clipPath>
</defs>
<g id="layer1" vectornator:layerName="layer1">
<path d="M39.2391 246.571C39.2391 130.989 129.431 37.2917 240.689 37.2917C351.947 37.2917 442.139 130.989 442.139 246.571C442.139 362.153 351.947 455.85 240.689 455.85C129.431 455.85 39.2391 362.153 39.2391 246.571Z" fill="#e4e4e4" fill-opacity="0" fill-rule="nonzero" opacity="1" stroke="#cdcdcd" stroke-dasharray="5.504080295562744,5.504080295562744" stroke-linecap="butt" stroke-linejoin="round" stroke-width="11.0082"/>
<g opacity="1">
<path d="M279.546 456.902C279.546 476.964 263.469 493.228 243.637 493.228C223.804 493.228 207.727 476.964 207.727 456.902C207.727 436.84 223.804 420.576 243.637 420.576C263.469 420.576 279.546 436.84 279.546 456.902Z" fill="#292121" fill-opacity="0.205418" fill-rule="nonzero" opacity="1" stroke="none"/>
<path d="M480.892 255.658C480.892 275.72 464.815 291.984 444.983 291.984C425.151 291.984 409.074 275.72 409.074 255.658C409.074 235.595 425.151 219.332 444.983 219.332C464.815 219.332 480.892 235.595 480.892 255.658Z" fill="#292121" fill-opacity="0.205418" fill-rule="nonzero" opacity="1" stroke="none"/>
<path d="M78.1996 253.218C78.1996 273.281 62.1224 289.545 42.2903 289.545C22.4582 289.545 6.38105 273.281 6.38105 253.218C6.38106 233.156 22.4582 216.892 42.2903 216.892C62.1224 216.892 78.1996 233.156 78.1996 253.218Z" fill="#292121" fill-opacity="0.205418" fill-rule="nonzero" opacity="1" stroke="none"/>
<path d="M111.958 151.986C111.958 172.049 95.8811 188.313 76.049 188.313C56.2168 188.313 40.1397 172.049 40.1397 151.986C40.1397 131.924 56.2168 115.66 76.049 115.66C95.8811 115.66 111.958 131.924 111.958 151.986Z" fill="#292121" fill-opacity="0.205418" fill-rule="nonzero" opacity="1" stroke="none"/>
<path d="M189.125 75.558C189.125 95.6204 173.047 111.884 153.215 111.884C133.383 111.884 117.306 95.6204 117.306 75.558C117.306 55.4957 133.383 39.2319 153.215 39.2319C173.047 39.2319 189.125 55.4957 189.125 75.558Z" fill="#292121" fill-opacity="0.205418" fill-rule="nonzero" opacity="1" stroke="none"/>
<path d="M373.588 84.905C373.588 104.967 357.511 121.231 337.678 121.231C317.846 121.231 301.769 104.967 301.769 84.905C301.769 64.8427 317.846 48.5789 337.678 48.5789C357.511 48.5789 373.588 64.8427 373.588 84.905Z" fill="#292121" fill-opacity="0.205418" fill-rule="nonzero" opacity="1" stroke="none"/>
<path d="M441.105 153.206C441.105 173.268 425.028 189.532 405.196 189.532C385.364 189.532 369.287 173.268 369.287 153.206C369.287 133.144 385.364 116.88 405.196 116.88C425.028 116.88 441.105 133.144 441.105 153.206Z" fill="#292121" fill-opacity="0.205418" fill-rule="nonzero" opacity="1" stroke="none"/>
<path d="M450.75 345.913C450.75 365.975 434.673 382.239 414.841 382.239C395.009 382.239 378.932 365.975 378.932 345.913C378.932 325.85 395.009 309.587 414.841 309.587C434.673 309.587 450.75 325.85 450.75 345.913Z" fill="#292121" fill-opacity="0.205418" fill-rule="nonzero" opacity="1" stroke="none"/>
<path d="M378.41 421.532C378.41 441.594 362.333 457.858 342.501 457.858C322.669 457.858 306.592 441.594 306.592 421.532C306.592 401.47 322.669 385.206 342.501 385.206C362.333 385.206 378.41 401.47 378.41 421.532Z" fill="#292121" fill-opacity="0.205418" fill-rule="nonzero" opacity="1" stroke="none"/>
<path d="M186.71 428.85C186.71 448.912 170.632 465.176 150.8 465.176C130.968 465.176 114.891 448.912 114.891 428.85C114.891 408.788 130.968 392.524 150.8 392.524C170.632 392.524 186.71 408.788 186.71 428.85Z" fill="#292121" fill-opacity="0.205418" fill-rule="nonzero" opacity="1" stroke="none"/>
<path d="M113.164 353.231C113.164 373.293 97.0867 389.557 77.2546 389.557C57.4225 389.557 41.3454 373.293 41.3454 353.231C41.3454 333.168 57.4225 316.905 77.2546 316.905C97.0867 316.905 113.164 333.168 113.164 353.231Z" fill="#292121" fill-opacity="0.205418" fill-rule="nonzero" opacity="1" stroke="none"/>
<path d="M281.957 50.7545C281.957 70.8168 265.88 87.0806 246.048 87.0806C226.216 87.0806 210.139 70.8168 210.139 50.7545C210.139 30.6921 226.216 14.4284 246.048 14.4283C265.88 14.4283 281.957 30.6921 281.957 50.7545Z" fill="#292121" fill-opacity="0.205418" fill-rule="nonzero" opacity="1" stroke="none"/>
</g>
<g opacity="1">
<path d="M284.769 37.5431C284.769 58.0008 268.185 74.5849 247.727 74.5849C227.269 74.5849 210.685 58.0008 210.685 37.5431C210.685 17.0855 227.269 0.501374 247.727 0.501371C268.185 0.501366 284.769 17.0855 284.769 37.5431Z" fill="#008ccf" fill-rule="nonzero" opacity="1" stroke="#bfbfbf" stroke-linecap="butt" stroke-linejoin="miter" stroke-width="1.00274"/>
<path d="M282.281 451.692C282.281 472.15 265.697 488.734 245.24 488.734C224.782 488.734 208.198 472.15 208.198 451.692C208.198 431.235 224.782 414.651 245.24 414.651C265.697 414.651 282.281 431.235 282.281 451.692Z" fill="#008ccf" fill-rule="nonzero" opacity="1" stroke="#bfbfbf" stroke-linecap="butt" stroke-linejoin="miter" stroke-width="1.00274"/>
<path d="M481.161 240.071C481.161 260.529 464.577 277.113 444.119 277.113C423.662 277.113 407.078 260.529 407.078 240.071C407.078 219.614 423.662 203.029 444.119 203.029C464.577 203.029 481.161 219.614 481.161 240.071Z" fill="#008ccf" fill-rule="nonzero" opacity="1" stroke="#bfbfbf" stroke-linecap="butt" stroke-linejoin="miter" stroke-width="1.00274"/>
<path d="M74.5849 243.996C74.5849 264.454 58.0008 281.038 37.5431 281.038C17.0855 281.038 0.501371 264.454 0.501373 243.996C0.501376 223.538 17.0855 206.954 37.5431 206.954C58.0008 206.954 74.5849 223.538 74.5849 243.996Z" fill="#008ccf" fill-rule="nonzero" opacity="1" stroke="#bfbfbf" stroke-linecap="butt" stroke-linejoin="miter" stroke-width="1.00274"/>
<path d="M109.408 140.77C109.408 161.227 92.8241 177.811 72.3665 177.811C51.9089 177.811 35.3247 161.227 35.3247 140.77C35.3247 120.312 51.9089 103.728 72.3665 103.728C92.8241 103.728 109.408 120.312 109.408 140.77Z" fill="#008ccf" fill-rule="nonzero" opacity="1" stroke="#bfbfbf" stroke-linecap="butt" stroke-linejoin="miter" stroke-width="1.00274"/>
<path d="M186.406 66.3137C186.406 86.7713 169.822 103.355 149.364 103.355C128.907 103.355 112.323 86.7713 112.323 66.3137C112.323 45.8561 128.907 29.2719 149.364 29.2719C169.822 29.2719 186.406 45.8561 186.406 66.3137Z" fill="#008ccf" fill-rule="nonzero" opacity="1" stroke="#bfbfbf" stroke-linecap="butt" stroke-linejoin="miter" stroke-width="1.00274"/>
<path d="M379.289 72.3665C379.289 92.8241 362.705 109.408 342.247 109.408C321.79 109.408 305.206 92.8241 305.206 72.3665C305.206 51.9089 321.79 35.3247 342.247 35.3247C362.705 35.3247 379.289 51.9089 379.289 72.3665Z" fill="#008ccf" fill-rule="nonzero" opacity="1" stroke="#bfbfbf" stroke-linecap="butt" stroke-linejoin="miter" stroke-width="2.50386"/>
<path d="M448.936 142.013C448.936 162.471 432.352 179.055 411.894 179.055C391.437 179.055 374.852 162.471 374.852 142.013C374.852 121.556 391.437 104.971 411.894 104.971C432.352 104.971 448.936 121.556 448.936 142.013Z" fill="#008ccf" fill-rule="nonzero" opacity="1" stroke="#bfbfbf" stroke-linecap="butt" stroke-linejoin="miter" stroke-width="1.00274"/>
<path d="M458.886 338.516C458.886 358.974 442.301 375.558 421.844 375.558C401.386 375.558 384.802 358.974 384.802 338.516C384.802 318.059 401.386 301.475 421.844 301.475C442.301 301.475 458.886 318.059 458.886 338.516Z" fill="#008ccf" fill-rule="nonzero" opacity="1" stroke="#bfbfbf" stroke-linecap="butt" stroke-linejoin="miter" stroke-width="1.00274"/>
<path d="M384.264 415.625C384.264 436.083 367.68 452.667 347.222 452.667C326.765 452.667 310.18 436.083 310.18 415.625C310.18 395.168 326.765 378.584 347.222 378.584C367.68 378.584 384.264 395.168 384.264 415.625Z" fill="#008ccf" fill-rule="nonzero" opacity="1" stroke="#bfbfbf" stroke-linecap="butt" stroke-linejoin="miter" stroke-width="1.00274"/>
<path d="M186.517 423.087C186.517 443.545 169.933 460.129 149.475 460.129C129.018 460.129 112.434 443.545 112.434 423.087C112.434 402.63 129.018 386.046 149.475 386.046C169.933 386.046 186.517 402.63 186.517 423.087Z" fill="#008ccf" fill-rule="nonzero" opacity="1" stroke="#bfbfbf" stroke-linecap="butt" stroke-linejoin="miter" stroke-width="1.00274"/>
<path d="M110.652 345.979C110.652 366.436 94.0678 383.02 73.6102 383.02C53.1526 383.02 36.5684 366.436 36.5684 345.979C36.5684 325.521 53.1526 308.937 73.6102 308.937C94.0678 308.937 110.652 325.521 110.652 345.979Z" fill="#008ccf" fill-rule="nonzero" opacity="1" stroke="#bfbfbf" stroke-linecap="butt" stroke-linejoin="miter" stroke-width="1.00274"/>
</g>
<g opacity="1">
<path clip-path="url(#TextBounds)" d="M310.254 262.336C310.254 256.324 305.336 251.6 298.777 248.164C292.219 244.729 283.475 242.796 276.644 242.796C268.173 242.796 261.341 243.87 254.237 245.587C247.132 247.52 239.754 250.097 231.283 252.888C230.463 253.318 229.37 253.103 228.277 252.459C215.434 246.232 212.155 237.857 212.155 227.335C212.155 218.961 220.899 215.955 232.103 215.31C241.94 214.666 247.952 217.458 255.33 223.255C256.149 223.9 257.516 224.329 258.336 223.255L262.981 218.317C264.347 216.599 266.533 214.881 268.993 212.948C269.812 212.734 270.086 212.09 270.086 211.445C270.086 210.801 269.812 210.157 268.993 209.942C267.08 209.083 261.615 208.439 256.149 208.224C254.783 208.01 252.597 208.01 250.138 208.01C244.946 208.01 239.208 208.224 233.196 208.439C227.184 208.654 221.173 209.083 212.155 211.016C203.138 212.948 195.213 216.384 190.568 221.323C188.109 223.9 187.016 226.906 187.016 230.342C187.016 238.072 190.021 246.232 195.487 252.244C200.952 258.471 209.149 262.551 219.26 262.551C229.37 262.551 237.568 259.76 244.673 257.183C251.777 254.606 258.062 251.815 265.713 251.815C278.556 251.815 285.388 259.76 285.388 269.852C285.388 283.595 272.272 293.043 256.149 293.043C246.585 293.043 238.661 290.681 230.463 288.533C222.266 286.386 214.068 284.239 204.504 284.239C196.853 284.239 191.661 286.171 186.196 289.607C183.19 290.681 184.83 293.043 186.469 295.19C187.289 296.264 188.109 296.908 189.202 296.908C192.754 296.478 196.306 295.62 199.312 294.331C202.318 293.043 205.87 292.399 210.516 292.399C219.26 292.399 226.638 294.761 234.562 297.123C242.213 299.485 250.684 301.847 260.795 301.847C274.184 301.847 286.481 297.552 295.498 290.466C304.516 283.38 310.254 273.502 310.254 262.336Z" fill="#e34234" opacity="1" stroke="none"/>
<path clip-path="url(#TextBounds_2)" d="M284.092 170.227C284.666 170.227 285.049 169.653 285.049 168.696C285.049 167.548 284.666 166.974 284.092 166.974C283.901 166.974 283.518 166.782 283.135 166.591C282.561 166.4 281.987 166.4 281.413 166.4C279.882 166.591 279.308 164.869 279.116 163.529C278.925 162.763 278.925 161.806 278.925 160.467L278.925 148.984C278.925 147.645 278.734 146.688 277.394 146.114C275.672 145.922 273.566 145.922 270.696 145.922L264.189 145.922C263.423 145.922 262.849 147.07 262.849 147.836C262.849 148.793 262.849 149.941 263.041 151.281C263.041 153.96 263.232 156.831 263.232 159.319C263.232 161.615 263.232 163.146 262.849 164.677C262.658 165.634 262.084 166.017 261.318 166.017C253.663 166.017 244.094 165.825 234.908 165.443C225.722 165.06 217.11 164.486 210.986 162.955C208.881 162.381 207.924 165.634 210.795 167.739C211.369 168.313 211.56 168.887 211.369 169.844C211.177 170.801 210.986 171.567 210.986 172.332C210.986 175.012 211.177 177.308 211.369 179.03C211.56 180.753 211.56 182.284 211.369 183.241C211.369 184.198 211.943 184.772 212.9 184.772C216.153 185.346 223.234 185.537 226.105 184.963C226.679 184.772 227.062 184.198 227.062 183.432C226.87 181.518 226.679 179.413 226.679 177.117C226.679 174.82 226.87 172.906 227.062 171.567C227.062 170.61 227.444 170.227 228.401 170.227C236.056 170.418 246.582 170.61 257.108 170.61C267.251 170.61 277.394 170.418 284.092 170.227Z" fill="#e34234" opacity="1" stroke="none"/>
</g>
<path d="M101.342 140.166C101.342 156.341 88.2295 169.454 72.0539 169.454C55.8782 169.454 42.7652 156.341 42.7652 140.166C42.7652 123.99 55.8782 110.877 72.0539 110.877C88.2295 110.877 101.342 123.99 101.342 140.166Z" fill="#f9f8f8" fill-rule="nonzero" opacity="1" stroke="none"/>
</g>
</svg>
