<?xml version="1.0" encoding="UTF-8" standalone="no"?>
<!DOCTYPE svg PUBLIC "-//W3C//DTD SVG 1.1//EN" "http://www.w3.org/Graphics/SVG/1.1/DTD/svg11.dtd">
<!-- Created with Vectornator (http://vectornator.io/) -->
<svg height="100%" stroke-miterlimit="10" style="fill-rule:nonzero;clip-rule:evenodd;stroke-linecap:round;stroke-linejoin:round;" version="1.1" viewBox="0 0 482.936 495.296" width="100%" xml:space="preserve" xmlns="http://www.w3.org/2000/svg" xmlns:vectornator="http://vectornator.io" xmlns:xlink="http://www.w3.org/1999/xlink">
<defs>
<clipPath id="TextBounds">
<rect height="250.265" width="188.425" x="178.217" y="100.32"/>
</clipPath>
<clipPath id="TextBounds_2">
<rect height="271" width="159.819" x="202.306" y="96.4585"/>
</clipPath>
</defs>
<g id="layer1" vectornator:layerName="layer1">
<path d="M39.2391 246.571C39.2391 130.989 129.431 37.2917 240.689 37.2917C351.947 37.2917 442.139 130.989 442.139 246.571C442.139 362.153 351.947 455.85 240.689 455.85C129.431 455.85 39.2391 362.153 39.2391 246.571Z" fill="#e4e4e4" fill-opacity="0" fill-rule="nonzero" opacity="1" stroke="#cdcdcd" stroke-dasharray="5.504080295562744,5.504080295562744" stroke-linecap="butt" stroke-linejoin="round" stroke-width="11.0082"/>
<g opacity="1">
<path d="M279.546 456.902C279.546 476.964 263.469 493.228 243.637 493.228C223.804 493.228 207.727 476.964 207.727 456.902C207.727 436.84 223.804 420.576 243.637 420.576C263.469 420.576 279.546 436.84 279.546 456.902Z" fill="#292121" fill-opacity="0.205418" fill-rule="nonzero" opacity="1" stroke="none"/>
<path d="M480.892 255.658C480.892 275.72 464.815 291.984 444.983 291.984C425.151 291.984 409.074 275.72 409.074 255.658C409.074 235.595 425.151 219.332 444.983 219.332C464.815 219.332 480.892 235.595 480.892 255.658Z" fill="#292121" fill-opacity="0.205418" fill-rule="nonzero" opacity="1" stroke="none"/>
<path d="M78.1996 253.218C78.1996 273.281 62.1224 289.545 42.2903 289.545C22.4582 289.545 6.38105 273.281 6.38105 253.218C6.38106 233.156 22.4582 216.892 42.2903 216.892C62.1224 216.892 78.1996 233.156 78.1996 253.218Z" fill="#292121" fill-opacity="0.205418" fill-rule="nonzero" opacity="1" stroke="none"/>
<path d="M111.958 151.986C111.958 172.049 95.8811 188.313 76.049 188.313C56.2168 188.313 40.1397 172.049 40.1397 151.986C40.1397 131.924 56.2168 115.66 76.049 115.66C95.8811 115.66 111.958 131.924 111.958 151.986Z" fill="#292121" fill-opacity="0.205418" fill-rule="nonzero" opacity="1" stroke="none"/>
<path d="M189.125 75.558C189.125 95.6204 173.047 111.884 153.215 111.884C133.383 111.884 117.306 95.6204 117.306 75.558C117.306 55.4957 133.383 39.2319 153.215 39.2319C173.047 39.2319 189.125 55.4957 189.125 75.558Z" fill="#292121" fill-opacity="0.205418" fill-rule="nonzero" opacity="1" stroke="none"/>
<path d="M373.588 84.905C373.588 104.967 357.511 121.231 337.678 121.231C317.846 121.231 301.769 104.967 301.769 84.905C301.769 64.8427 317.846 48.5789 337.678 48.5789C357.511 48.5789 373.588 64.8427 373.588 84.905Z" fill="#292121" fill-opacity="0.205418" fill-rule="nonzero" opacity="1" stroke="none"/>
<path d="M441.105 153.206C441.105 173.268 425.028 189.532 405.196 189.532C385.364 189.532 369.287 173.268 369.287 153.206C369.287 133.144 385.364 116.88 405.196 116.88C425.028 116.88 441.105 133.144 441.105 153.206Z" fill="#292121" fill-opacity="0.205418" fill-rule="nonzero" opacity="1" stroke="none"/>
<path d="M450.75 345.913C450.75 365.975 434.673 382.239 414.841 382.239C395.009 382.239 378.932 365.975 378.932 345.913C378.932 325.85 395.009 309.587 414.841 309.587C434.673 309.587 450.75 325.85 450.75 345.913Z" fill="#292121" fill-opacity="0.205418" fill-rule="nonzero" opacity="1" stroke="none"/>
<path d="M378.41 421.532C378.41 441.594 362.333 457.858 342.501 457.858C322.669 457.858 306.592 441.594 306.592 421.532C306.592 401.47 322.669 385.206 342.501 385.206C362.333 385.206 378.41 401.47 378.41 421.532Z" fill="#292121" fill-opacity="0.205418" fill-rule="nonzero" opacity="1" stroke="none"/>
<path d="M186.71 428.85C186.71 448.912 170.632 465.176 150.8 465.176C130.968 465.176 114.891 448.912 114.891 428.85C114.891 408.788 130.968 392.524 150.8 392.524C170.632 392.524 186.71 408.788 186.71 428.85Z" fill="#292121" fill-opacity="0.205418" fill-rule="nonzero" opacity="1" stroke="none"/>
<path d="M113.164 353.231C113.164 373.293 97.0867 389.557 77.2546 389.557C57.4225 389.557 41.3454 373.293 41.3454 353.231C41.3454 333.168 57.4225 316.905 77.2546 316.905C97.0867 316.905 113.164 333.168 113.164 353.231Z" fill="#292121" fill-opacity="0.205418" fill-rule="nonzero" opacity="1" stroke="none"/>
<path d="M281.957 50.7545C281.957 70.8168 265.88 87.0806 246.048 87.0806C226.216 87.0806 210.139 70.8168 210.139 50.7545C210.139 30.6921 226.216 14.4284 246.048 14.4283C265.88 14.4283 281.957 30.6921 281.957 50.7545Z" fill="#292121" fill-opacity="0.205418" fill-rule="nonzero" opacity="1" stroke="none"/>
</g>
<g opacity="1">
<path d="M284.769 37.5431C284.769 58.0008 268.185 74.5849 247.727 74.5849C227.269 74.5849 210.685 58.0008 210.685 37.5431C210.685 17.0855 227.269 0.501374 247.727 0.501371C268.185 0.501366 284.769 17.0855 284.769 37.5431Z" fill="#0091ff" fill-opacity="0.95815" fill-rule="nonzero" opacity="1" stroke="#bfbfbf" stroke-linecap="butt" stroke-linejoin="miter" stroke-width="1.00274"/>
<path d="M282.281 451.692C282.281 472.15 265.697 488.734 245.24 488.734C224.782 488.734 208.198 472.15 208.198 451.692C208.198 431.235 224.782 414.651 245.24 414.651C265.697 414.651 282.281 431.235 282.281 451.692Z" fill="#0091ff" fill-opacity="0.95815" fill-rule="nonzero" opacity="1" stroke="#bfbfbf" stroke-linecap="butt" stroke-linejoin="miter" stroke-width="1.00274"/>
<path d="M481.161 240.071C481.161 260.529 464.577 277.113 444.119 277.113C423.662 277.113 407.078 260.529 407.078 240.071C407.078 219.614 423.662 203.029 444.119 203.029C464.577 203.029 481.161 219.614 481.161 240.071Z" fill="#0091ff" fill-opacity="0.95815" fill-rule="nonzero" opacity="1" stroke="#bfbfbf" stroke-linecap="butt" stroke-linejoin="miter" stroke-width="1.00274"/>
<path d="M74.5849 243.996C74.5849 264.454 58.0008 281.038 37.5431 281.038C17.0855 281.038 0.501371 264.454 0.501373 243.996C0.501376 223.538 17.0855 206.954 37.5431 206.954C58.0008 206.954 74.5849 223.538 74.5849 243.996Z" fill="#0091ff" fill-opacity="0.95815" fill-rule="nonzero" opacity="1" stroke="#bfbfbf" stroke-linecap="butt" stroke-linejoin="miter" stroke-width="1.00274"/>
<path d="M109.408 140.77C109.408 161.227 92.8241 177.811 72.3665 177.811C51.9089 177.811 35.3247 161.227 35.3247 140.77C35.3247 120.312 51.9089 103.728 72.3665 103.728C92.8241 103.728 109.408 120.312 109.408 140.77Z" fill="#0091ff" fill-opacity="0.95815" fill-rule="nonzero" opacity="1" stroke="#bfbfbf" stroke-linecap="butt" stroke-linejoin="miter" stroke-width="1.00274"/>
<path d="M186.406 66.3137C186.406 86.7713 169.822 103.355 149.364 103.355C128.907 103.355 112.323 86.7713 112.323 66.3137C112.323 45.8561 128.907 29.2719 149.364 29.2719C169.822 29.2719 186.406 45.8561 186.406 66.3137Z" fill="#0091ff" fill-opacity="0.95815" fill-rule="nonzero" opacity="1" stroke="#bfbfbf" stroke-linecap="butt" stroke-linejoin="miter" stroke-width="1.00274"/>
<path d="M379.289 72.3665C379.289 92.8241 362.705 109.408 342.247 109.408C321.79 109.408 305.206 92.8241 305.206 72.3665C305.206 51.9089 321.79 35.3247 342.247 35.3247C362.705 35.3247 379.289 51.9089 379.289 72.3665Z" fill="#0091ff" fill-opacity="0.95815" fill-rule="nonzero" opacity="1" stroke="#bfbfbf" stroke-linecap="butt" stroke-linejoin="miter" stroke-width="2.50386"/>
<path d="M448.936 142.013C448.936 162.471 432.352 179.055 411.894 179.055C391.437 179.055 374.852 162.471 374.852 142.013C374.852 121.556 391.437 104.971 411.894 104.971C432.352 104.971 448.936 121.556 448.936 142.013Z" fill="#0091ff" fill-opacity="0.95815" fill-rule="nonzero" opacity="1" stroke="#bfbfbf" stroke-linecap="butt" stroke-linejoin="miter" stroke-width="1.00274"/>
<path d="M458.886 338.516C458.886 358.974 442.301 375.558 421.844 375.558C401.386 375.558 384.802 358.974 384.802 338.516C384.802 318.059 401.386 301.475 421.844 301.475C442.301 301.475 458.886 318.059 458.886 338.516Z" fill="#0091ff" fill-opacity="0.95815" fill-rule="nonzero" opacity="1" stroke="#bfbfbf" stroke-linecap="butt" stroke-linejoin="miter" stroke-width="1.00274"/>
<path d="M384.264 415.625C384.264 436.083 367.68 452.667 347.222 452.667C326.765 452.667 310.18 436.083 310.18 415.625C310.18 395.168 326.765 378.584 347.222 378.584C367.68 378.584 384.264 395.168 384.264 415.625Z" fill="#0091ff" fill-opacity="0.95815" fill-rule="nonzero" opacity="1" stroke="#bfbfbf" stroke-linecap="butt" stroke-linejoin="miter" stroke-width="1.00274"/>
<path d="M186.517 423.087C186.517 443.545 169.933 460.129 149.475 460.129C129.018 460.129 112.434 443.545 112.434 423.087C112.434 402.63 129.018 386.046 149.475 386.046C169.933 386.046 186.517 402.63 186.517 423.087Z" fill="#0091ff" fill-opacity="0.95815" fill-rule="nonzero" opacity="1" stroke="#bfbfbf" stroke-linecap="butt" stroke-linejoin="miter" stroke-width="1.00274"/>
<path d="M110.652 345.979C110.652 366.436 94.0678 383.02 73.6102 383.02C53.1526 383.02 36.5684 366.436 36.5684 345.979C36.5684 325.521 53.1526 308.937 73.6102 308.937C94.0678 308.937 110.652 325.521 110.652 345.979Z" fill="#0091ff" fill-opacity="0.95815" fill-rule="nonzero" opacity="1" stroke="#bfbfbf" stroke-linecap="butt" stroke-linejoin="miter" stroke-width="1.00274"/>
</g>
<g opacity="1">
<path clip-path="url(#TextBounds)" d="M291.219 250.791C285.435 245.299 277.337 241.402 270.627 239.098C269.471 238.921 269.008 238.744 269.008 238.921C269.008 238.744 269.008 238.567 269.239 238.567C269.471 238.567 269.702 238.567 269.933 238.39C282.89 232.721 291.682 227.583 292.376 216.953C293.07 205.438 282.89 196.225 267.157 193.213C259.059 191.619 251.193 191.088 245.408 191.088C241.475 191.265 237.773 191.442 234.072 191.442C226.899 191.442 218.57 193.036 210.703 196.402C202.837 199.768 196.127 204.375 192.425 210.575C190.343 213.587 189.649 216.953 189.88 220.496C190.112 223.508 192.657 225.28 196.359 226.343C199.829 227.406 204.225 227.937 208.621 228.114C211.166 228.114 213.248 226.697 213.248 225.103C213.48 223.863 213.48 222.268 213.711 220.674C213.711 217.485 213.943 214.473 214.868 211.638C215.099 210.221 215.794 208.981 216.488 208.095C220.421 203.312 225.742 200.477 231.989 199.591C234.534 199.237 236.617 199.06 238.699 199.06C242.632 199.06 246.334 199.237 250.267 199.768C252.118 199.946 254.2 200.3 256.514 200.477C265.537 201.363 269.702 207.386 269.933 214.296C270.165 223.331 262.992 229.177 258.134 231.126C255.126 232.189 252.581 232.366 250.036 231.658C247.491 231.126 244.714 230.418 241.707 229.886C238.699 229.177 236.385 229 234.534 229.709C232.452 230.595 230.37 232.721 226.899 236.441C225.742 237.858 224.585 239.098 223.66 240.339C222.735 241.579 221.809 242.642 220.884 243.705C219.033 246.008 216.95 248.311 214.868 251.854C213.711 253.803 214.637 255.22 217.182 256.283C219.495 257.523 221.809 258.763 224.354 260.004C226.668 261.421 229.444 262.661 232.915 263.724C234.534 264.255 237.773 260.535 238.93 258.941L243.558 252.208C246.334 248.134 247.954 247.957 251.655 247.779C255.357 247.602 262.761 247.602 267.851 250.614C272.941 253.626 275.949 258.409 277.568 263.901C278.263 266.736 278.725 269.57 278.725 272.405C278.725 278.074 276.874 284.452 272.71 289.235C268.545 294.196 262.298 297.562 254.663 297.385C249.342 297.208 246.334 296.676 243.789 295.79C241.244 294.904 238.93 293.133 235.228 290.475C228.75 285.692 223.197 282.857 214.174 280.909C208.621 279.669 201.912 279.137 193.814 281.086C186.41 283.035 181.783 291.716 180.857 302.522C180.626 304.471 182.939 306.066 185.253 306.774C186.41 307.129 187.567 307.306 188.724 307.306C189.88 307.306 190.806 306.952 191.269 306.42C197.053 299.511 202.374 295.436 210.703 295.967C221.115 296.499 227.825 298.625 234.303 300.751C240.781 303.054 247.028 305.357 256.283 306.243C269.239 307.483 277.568 305.889 287.517 300.042C293.764 296.322 297.003 292.07 298.854 287.287C300.705 282.503 300.937 277.188 300.937 271.519C301.168 263.192 297.003 256.46 291.219 250.791Z" fill="#e34234" opacity="1" stroke="none"/>
<path clip-path="url(#TextBounds_2)" d="M283.227 160.761C283.801 160.761 284.184 160.187 284.184 159.23C284.184 158.082 283.801 157.508 283.227 157.508C283.036 157.508 282.653 157.316 282.27 157.125C281.696 156.934 281.122 156.934 280.548 156.934C279.017 157.125 278.443 155.403 278.252 154.063C278.06 153.298 278.06 152.341 278.06 151.001L278.06 139.518C278.06 138.179 277.869 137.222 276.529 136.648C274.807 136.456 272.702 136.456 269.831 136.456L263.324 136.456C262.559 136.456 261.984 137.605 261.984 138.37C261.984 139.327 261.984 140.475 262.176 141.815C262.176 144.494 262.367 147.365 262.367 149.853C262.367 152.149 262.367 153.68 261.984 155.211C261.793 156.168 261.219 156.551 260.453 156.551C252.798 156.551 243.229 156.36 234.043 155.977C224.857 155.594 216.245 155.02 210.121 153.489C208.016 152.915 207.059 156.168 209.93 158.273C210.504 158.847 210.695 159.422 210.504 160.379C210.312 161.335 210.121 162.101 210.121 162.866C210.121 165.546 210.312 167.842 210.504 169.565C210.695 171.287 210.695 172.818 210.504 173.775C210.504 174.732 211.078 175.306 212.035 175.306C215.288 175.88 222.369 176.071 225.24 175.497C225.814 175.306 226.197 174.732 226.197 173.966C226.005 172.053 225.814 169.947 225.814 167.651C225.814 165.354 226.005 163.441 226.197 162.101C226.197 161.144 226.58 160.761 227.536 160.761C235.192 160.953 245.717 161.144 256.243 161.144C266.386 161.144 276.529 160.953 283.227 160.761Z" fill="#e34234" opacity="1" stroke="none"/>
</g>
<path d="M178.451 64.869C178.451 81.0447 165.338 94.1577 149.162 94.1577C132.987 94.1577 119.874 81.0447 119.874 64.8691C119.874 48.6934 132.987 35.5804 149.162 35.5804C165.338 35.5804 178.451 48.6934 178.451 64.869Z" fill="#f9f8f8" fill-rule="nonzero" opacity="1" stroke="none"/>
</g>
</svg>
