<?xml version="1.0" encoding="UTF-8" standalone="no"?>
<!DOCTYPE svg PUBLIC "-//W3C//DTD SVG 1.1//EN" "http://www.w3.org/Graphics/SVG/1.1/DTD/svg11.dtd">
<!-- Created with Vectornator (http://vectornator.io/) -->
<svg height="100%" stroke-miterlimit="10" style="fill-rule:nonzero;clip-rule:evenodd;stroke-linecap:round;stroke-linejoin:round;" version="1.1" viewBox="0 0 482.936 495.296" width="100%" xml:space="preserve" xmlns="http://www.w3.org/2000/svg" xmlns:vectornator="http://vectornator.io" xmlns:xlink="http://www.w3.org/1999/xlink">
<defs>
<clipPath id="TextBounds">
<rect height="327.27" width="180.124" x="176.573" y="95.6402"/>
</clipPath>
<clipPath id="TextBounds_2">
<rect height="108.551" width="127.696" x="197.335" y="97.3553"/>
</clipPath>
</defs>
<g id="layer1" vectornator:layerName="layer1">
<path d="M39.2391 246.571C39.2391 130.989 129.431 37.2917 240.689 37.2917C351.947 37.2917 442.139 130.989 442.139 246.571C442.139 362.153 351.947 455.85 240.689 455.85C129.431 455.85 39.2391 362.153 39.2391 246.571Z" fill="#e4e4e4" fill-opacity="0" fill-rule="nonzero" opacity="1" stroke="#cdcdcd" stroke-dasharray="5.504080295562744,5.504080295562744" stroke-linecap="butt" stroke-linejoin="round" stroke-width="11.0082"/>
<g opacity="1">
<path d="M279.546 456.902C279.546 476.964 263.469 493.228 243.637 493.228C223.804 493.228 207.727 476.964 207.727 456.902C207.727 436.84 223.804 420.576 243.637 420.576C263.469 420.576 279.546 436.84 279.546 456.902Z" fill="#292121" fill-opacity="0.205418" fill-rule="nonzero" opacity="1" stroke="none"/>
<path d="M480.892 255.658C480.892 275.72 464.815 291.984 444.983 291.984C425.151 291.984 409.074 275.72 409.074 255.658C409.074 235.595 425.151 219.332 444.983 219.332C464.815 219.332 480.892 235.595 480.892 255.658Z" fill="#292121" fill-opacity="0.205418" fill-rule="nonzero" opacity="1" stroke="none"/>
<path d="M78.1996 253.218C78.1996 273.281 62.1224 289.545 42.2903 289.545C22.4582 289.545 6.38105 273.281 6.38105 253.218C6.38106 233.156 22.4582 216.892 42.2903 216.892C62.1224 216.892 78.1996 233.156 78.1996 253.218Z" fill="#292121" fill-opacity="0.205418" fill-rule="nonzero" opacity="1" stroke="none"/>
<path d="M111.958 151.986C111.958 172.049 95.8811 188.313 76.049 188.313C56.2168 188.313 40.1397 172.049 40.1397 151.986C40.1397 131.924 56.2168 115.66 76.049 115.66C95.8811 115.66 111.958 131.924 111.958 151.986Z" fill="#292121" fill-opacity="0.205418" fill-rule="nonzero" opacity="1" stroke="none"/>
<path d="M189.125 75.558C189.125 95.6204 173.047 111.884 153.215 111.884C133.383 111.884 117.306 95.6204 117.306 75.558C117.306 55.4957 133.383 39.2319 153.215 39.2319C173.047 39.2319 189.125 55.4957 189.125 75.558Z" fill="#292121" fill-opacity="0.205418" fill-rule="nonzero" opacity="1" stroke="none"/>
<path d="M373.588 84.905C373.588 104.967 357.511 121.231 337.678 121.231C317.846 121.231 301.769 104.967 301.769 84.905C301.769 64.8427 317.846 48.5789 337.678 48.5789C357.511 48.5789 373.588 64.8427 373.588 84.905Z" fill="#292121" fill-opacity="0.205418" fill-rule="nonzero" opacity="1" stroke="none"/>
<path d="M441.105 153.206C441.105 173.268 425.028 189.532 405.196 189.532C385.364 189.532 369.287 173.268 369.287 153.206C369.287 133.144 385.364 116.88 405.196 116.88C425.028 116.88 441.105 133.144 441.105 153.206Z" fill="#292121" fill-opacity="0.205418" fill-rule="nonzero" opacity="1" stroke="none"/>
<path d="M450.75 345.913C450.75 365.975 434.673 382.239 414.841 382.239C395.009 382.239 378.932 365.975 378.932 345.913C378.932 325.85 395.009 309.587 414.841 309.587C434.673 309.587 450.75 325.85 450.75 345.913Z" fill="#292121" fill-opacity="0.205418" fill-rule="nonzero" opacity="1" stroke="none"/>
<path d="M378.41 421.532C378.41 441.594 362.333 457.858 342.501 457.858C322.669 457.858 306.592 441.594 306.592 421.532C306.592 401.47 322.669 385.206 342.501 385.206C362.333 385.206 378.41 401.47 378.41 421.532Z" fill="#292121" fill-opacity="0.205418" fill-rule="nonzero" opacity="1" stroke="none"/>
<path d="M186.71 428.85C186.71 448.912 170.632 465.176 150.8 465.176C130.968 465.176 114.891 448.912 114.891 428.85C114.891 408.788 130.968 392.524 150.8 392.524C170.632 392.524 186.71 408.788 186.71 428.85Z" fill="#292121" fill-opacity="0.205418" fill-rule="nonzero" opacity="1" stroke="none"/>
<path d="M113.164 353.231C113.164 373.293 97.0867 389.557 77.2546 389.557C57.4225 389.557 41.3454 373.293 41.3454 353.231C41.3454 333.168 57.4225 316.905 77.2546 316.905C97.0867 316.905 113.164 333.168 113.164 353.231Z" fill="#292121" fill-opacity="0.205418" fill-rule="nonzero" opacity="1" stroke="none"/>
<path d="M281.957 50.7545C281.957 70.8168 265.88 87.0806 246.048 87.0806C226.216 87.0806 210.139 70.8168 210.139 50.7545C210.139 30.6921 226.216 14.4284 246.048 14.4283C265.88 14.4283 281.957 30.6921 281.957 50.7545Z" fill="#292121" fill-opacity="0.205418" fill-rule="nonzero" opacity="1" stroke="none"/>
</g>
<g opacity="1">
<path d="M284.769 37.5431C284.769 58.0008 268.185 74.5849 247.727 74.5849C227.269 74.5849 210.685 58.0008 210.685 37.5431C210.685 17.0855 227.269 0.501374 247.727 0.501371C268.185 0.501366 284.769 17.0855 284.769 37.5431Z" fill="#2fa802" fill-opacity="0.95815" fill-rule="nonzero" opacity="1" stroke="#bfbfbf" stroke-linecap="butt" stroke-linejoin="miter" stroke-width="1.00274"/>
<path d="M282.281 451.692C282.281 472.15 265.697 488.734 245.24 488.734C224.782 488.734 208.198 472.15 208.198 451.692C208.198 431.235 224.782 414.651 245.24 414.651C265.697 414.651 282.281 431.235 282.281 451.692Z" fill="#2fa802" fill-opacity="0.95815" fill-rule="nonzero" opacity="1" stroke="#bfbfbf" stroke-linecap="butt" stroke-linejoin="miter" stroke-width="1.00274"/>
<path d="M481.161 240.071C481.161 260.529 464.577 277.113 444.119 277.113C423.662 277.113 407.078 260.529 407.078 240.071C407.078 219.614 423.662 203.029 444.119 203.029C464.577 203.029 481.161 219.614 481.161 240.071Z" fill="#2fa802" fill-opacity="0.95815" fill-rule="nonzero" opacity="1" stroke="#bfbfbf" stroke-linecap="butt" stroke-linejoin="miter" stroke-width="1.00274"/>
<path d="M74.5849 243.996C74.5849 264.454 58.0008 281.038 37.5431 281.038C17.0855 281.038 0.501371 264.454 0.501373 243.996C0.501376 223.538 17.0855 206.954 37.5431 206.954C58.0008 206.954 74.5849 223.538 74.5849 243.996Z" fill="#2fa802" fill-opacity="0.95815" fill-rule="nonzero" opacity="1" stroke="#bfbfbf" stroke-linecap="butt" stroke-linejoin="miter" stroke-width="1.00274"/>
<path d="M109.408 140.77C109.408 161.227 92.8241 177.811 72.3665 177.811C51.9089 177.811 35.3247 161.227 35.3247 140.77C35.3247 120.312 51.9089 103.728 72.3665 103.728C92.8241 103.728 109.408 120.312 109.408 140.77Z" fill="#2fa802" fill-opacity="0.95815" fill-rule="nonzero" opacity="1" stroke="#bfbfbf" stroke-linecap="butt" stroke-linejoin="miter" stroke-width="1.00274"/>
<path d="M186.406 66.3137C186.406 86.7713 169.822 103.355 149.364 103.355C128.907 103.355 112.323 86.7713 112.323 66.3137C112.323 45.8561 128.907 29.2719 149.364 29.2719C169.822 29.2719 186.406 45.8561 186.406 66.3137Z" fill="#2fa802" fill-opacity="0.95815" fill-rule="nonzero" opacity="1" stroke="#bfbfbf" stroke-linecap="butt" stroke-linejoin="miter" stroke-width="1.00274"/>
<path d="M379.289 72.3665C379.289 92.8241 362.705 109.408 342.247 109.408C321.79 109.408 305.206 92.8241 305.206 72.3665C305.206 51.9089 321.79 35.3247 342.247 35.3247C362.705 35.3247 379.289 51.9089 379.289 72.3665Z" fill="#2fa802" fill-opacity="0.95815" fill-rule="nonzero" opacity="1" stroke="#bfbfbf" stroke-linecap="butt" stroke-linejoin="miter" stroke-width="2.50386"/>
<path d="M448.936 142.013C448.936 162.471 432.352 179.055 411.894 179.055C391.437 179.055 374.852 162.471 374.852 142.013C374.852 121.556 391.437 104.971 411.894 104.971C432.352 104.971 448.936 121.556 448.936 142.013Z" fill="#2fa802" fill-opacity="0.95815" fill-rule="nonzero" opacity="1" stroke="#bfbfbf" stroke-linecap="butt" stroke-linejoin="miter" stroke-width="1.00274"/>
<path d="M458.886 338.516C458.886 358.974 442.301 375.558 421.844 375.558C401.386 375.558 384.802 358.974 384.802 338.516C384.802 318.059 401.386 301.475 421.844 301.475C442.301 301.475 458.886 318.059 458.886 338.516Z" fill="#2fa802" fill-opacity="0.95815" fill-rule="nonzero" opacity="1" stroke="#bfbfbf" stroke-linecap="butt" stroke-linejoin="miter" stroke-width="1.00274"/>
<path d="M384.264 415.625C384.264 436.083 367.68 452.667 347.222 452.667C326.765 452.667 310.18 436.083 310.18 415.625C310.18 395.168 326.765 378.584 347.222 378.584C367.68 378.584 384.264 395.168 384.264 415.625Z" fill="#2fa802" fill-opacity="0.95815" fill-rule="nonzero" opacity="1" stroke="#bfbfbf" stroke-linecap="butt" stroke-linejoin="miter" stroke-width="1.00274"/>
<path d="M186.517 423.087C186.517 443.545 169.933 460.129 149.475 460.129C129.018 460.129 112.434 443.545 112.434 423.087C112.434 402.63 129.018 386.046 149.475 386.046C169.933 386.046 186.517 402.63 186.517 423.087Z" fill="#2fa802" fill-opacity="0.95815" fill-rule="nonzero" opacity="1" stroke="#bfbfbf" stroke-linecap="butt" stroke-linejoin="miter" stroke-width="1.00274"/>
<path d="M110.652 345.979C110.652 366.436 94.0678 383.02 73.6102 383.02C53.1526 383.02 36.5684 366.436 36.5684 345.979C36.5684 325.521 53.1526 308.937 73.6102 308.937C94.0678 308.937 110.652 325.521 110.652 345.979Z" fill="#2fa802" fill-opacity="0.95815" fill-rule="nonzero" opacity="1" stroke="#bfbfbf" stroke-linecap="butt" stroke-linejoin="miter" stroke-width="1.00274"/>
</g>
<g opacity="1">
<path clip-path="url(#TextBounds)" d="M298.205 222.296C298.508 218.818 297.297 213.948 292.149 214.644C285.789 214.644 278.825 215.34 272.465 216.035C266.409 216.267 265.5 219.745 265.5 223.455C265.5 231.803 264.895 236.904 263.986 245.02C263.986 245.252 263.078 245.716 261.564 245.947C255.204 247.107 248.845 248.498 242.789 249.889C236.732 251.281 230.676 252.44 224.316 253.136C224.014 253.136 223.711 252.904 224.014 252.672C224.316 252.44 224.316 251.976 224.316 251.744C224.316 248.962 224.316 246.411 224.619 243.861C224.922 241.31 224.922 238.991 225.225 236.44C225.225 233.89 225.225 231.339 225.528 228.557C225.831 226.006 225.831 222.992 225.831 219.513C225.831 216.963 224.619 213.485 220.077 214.18C217.351 214.412 214.02 214.876 210.689 215.108C207.358 215.34 204.027 215.803 201.302 216.035C196.76 216.267 195.548 219.282 195.548 222.064C195.548 230.412 195.245 236.209 195.245 242.469C194.943 245.484 194.943 248.73 194.64 251.976C194.337 255.454 194.337 259.164 194.034 263.338C193.731 272.15 193.731 280.033 194.034 286.99C194.337 293.946 194.337 301.366 194.337 309.482C194.337 312.032 196.457 315.974 200.393 315.279C203.422 315.047 206.147 314.815 208.267 314.815C210.387 314.815 213.112 315.047 216.443 315.279C224.619 315.974 224.014 312.264 224.014 308.786C224.316 304.381 224.316 300.207 224.014 296.497C223.711 292.787 223.408 288.381 223.408 283.512L223.408 278.874C223.408 277.715 223.408 276.323 223.711 275.164C223.711 274.005 223.711 272.613 224.014 271.222C224.014 269.831 224.014 268.208 224.316 266.121L224.316 263.338C224.014 262.411 224.619 261.715 225.831 261.483C232.19 260.788 238.549 259.628 245.211 258.005L263.683 254.063C264.289 254.063 264.592 254.295 264.289 254.991C263.986 255.686 263.986 256.15 263.986 256.614C264.289 259.164 264.289 261.715 264.289 263.802L264.289 276.091C263.986 278.178 263.986 280.497 263.986 283.048C263.986 293.946 264.592 300.67 265.5 309.946C265.803 312.96 267.014 315.974 271.86 315.279C278.219 314.815 284.578 314.815 291.24 315.279C294.874 315.279 298.205 314.815 297.902 310.409C297.6 302.757 296.994 295.569 296.388 288.845C295.783 282.12 295.48 274.468 295.48 265.889C295.48 257.309 296.085 250.353 296.691 243.629L297.6 233.426C297.902 229.948 297.902 226.238 298.205 222.296Z" fill="#e34234" opacity="1" stroke="none"/>
<path clip-path="url(#TextBounds_2)" d="M291.883 172.465C292.556 172.465 293.004 171.793 293.004 170.672C293.004 169.326 292.556 168.654 291.883 168.654C291.659 168.654 291.21 168.43 290.762 168.205C290.089 167.981 289.417 167.981 288.744 167.981C286.95 168.205 286.278 166.187 286.054 164.618C285.829 163.721 285.829 162.6 285.829 161.031L285.829 147.578C285.829 146.008 285.605 144.887 284.036 144.215C282.018 143.991 279.552 143.991 276.188 143.991L268.565 143.991C267.668 143.991 266.996 145.336 266.996 146.233C266.996 147.354 266.996 148.699 267.22 150.268C267.22 153.407 267.444 156.771 267.444 159.685C267.444 162.376 267.444 164.17 266.996 165.963C266.771 167.084 266.099 167.533 265.202 167.533C256.234 167.533 245.023 167.308 234.261 166.86C223.499 166.412 213.409 165.739 206.234 163.945C203.768 163.273 202.647 167.084 206.01 169.551C206.683 170.223 206.907 170.896 206.683 172.017C206.459 173.138 206.234 174.035 206.234 174.932C206.234 178.071 206.459 180.761 206.683 182.779C206.907 184.797 206.907 186.591 206.683 187.712C206.683 188.833 207.355 189.505 208.477 189.505C212.288 190.178 220.584 190.402 223.947 189.73C224.62 189.505 225.068 188.833 225.068 187.936C224.844 185.694 224.62 183.227 224.62 180.537C224.62 177.846 224.844 175.604 225.068 174.035C225.068 172.914 225.517 172.465 226.638 172.465C235.606 172.69 247.938 172.914 260.269 172.914C272.153 172.914 284.036 172.69 291.883 172.465Z" fill="#e34234" opacity="1" stroke="none"/>
</g>
<path d="M277.117 36.8753C277.117 53.0509 264.004 66.1639 247.829 66.1639C231.653 66.1639 218.54 53.051 218.54 36.8753C218.54 20.6996 231.653 7.58668 247.829 7.58668C264.004 7.58669 277.117 20.6996 277.117 36.8753Z" fill="#f9f8f8" fill-rule="nonzero" opacity="1" stroke="none"/>
</g>
</svg>
