<?xml version="1.0" encoding="UTF-8" standalone="no"?>
<!DOCTYPE svg PUBLIC "-//W3C//DTD SVG 1.1//EN" "http://www.w3.org/Graphics/SVG/1.1/DTD/svg11.dtd">
<!-- Created with Vectornator (http://vectornator.io/) -->
<svg height="100%" stroke-miterlimit="10" style="fill-rule:nonzero;clip-rule:evenodd;stroke-linecap:round;stroke-linejoin:round;" version="1.1" viewBox="0 0 482.936 495.296" width="100%" xml:space="preserve" xmlns="http://www.w3.org/2000/svg" xmlns:vectornator="http://vectornator.io" xmlns:xlink="http://www.w3.org/1999/xlink">
<defs>
<clipPath id="TextBounds">
<rect height="297" width="199.505" x="169.8" y="91.5535"/>
</clipPath>
<clipPath id="TextBounds_2">
<rect height="88.1019" width="109.435" x="206.239" y="98.2626"/>
</clipPath>
</defs>
<g id="layer1" vectornator:layerName="layer1">
<path d="M39.2391 246.571C39.2391 130.989 129.431 37.2917 240.689 37.2917C351.947 37.2917 442.139 130.989 442.139 246.571C442.139 362.153 351.947 455.85 240.689 455.85C129.431 455.85 39.2391 362.153 39.2391 246.571Z" fill="#e4e4e4" fill-opacity="0" fill-rule="nonzero" opacity="1" stroke="#cdcdcd" stroke-dasharray="5.504080295562744,5.504080295562744" stroke-linecap="butt" stroke-linejoin="round" stroke-width="11.0082"/>
<g opacity="1">
<path d="M279.546 456.902C279.546 476.964 263.469 493.228 243.637 493.228C223.804 493.228 207.727 476.964 207.727 456.902C207.727 436.84 223.804 420.576 243.637 420.576C263.469 420.576 279.546 436.84 279.546 456.902Z" fill="#292121" fill-opacity="0.205418" fill-rule="nonzero" opacity="1" stroke="none"/>
<path d="M480.892 255.658C480.892 275.72 464.815 291.984 444.983 291.984C425.151 291.984 409.074 275.72 409.074 255.658C409.074 235.595 425.151 219.332 444.983 219.332C464.815 219.332 480.892 235.595 480.892 255.658Z" fill="#292121" fill-opacity="0.205418" fill-rule="nonzero" opacity="1" stroke="none"/>
<path d="M78.1996 253.218C78.1996 273.281 62.1224 289.545 42.2903 289.545C22.4582 289.545 6.38105 273.281 6.38105 253.218C6.38106 233.156 22.4582 216.892 42.2903 216.892C62.1224 216.892 78.1996 233.156 78.1996 253.218Z" fill="#292121" fill-opacity="0.205418" fill-rule="nonzero" opacity="1" stroke="none"/>
<path d="M111.958 151.986C111.958 172.049 95.8811 188.313 76.049 188.313C56.2168 188.313 40.1397 172.049 40.1397 151.986C40.1397 131.924 56.2168 115.66 76.049 115.66C95.8811 115.66 111.958 131.924 111.958 151.986Z" fill="#292121" fill-opacity="0.205418" fill-rule="nonzero" opacity="1" stroke="none"/>
<path d="M189.125 75.558C189.125 95.6204 173.047 111.884 153.215 111.884C133.383 111.884 117.306 95.6204 117.306 75.558C117.306 55.4957 133.383 39.2319 153.215 39.2319C173.047 39.2319 189.125 55.4957 189.125 75.558Z" fill="#292121" fill-opacity="0.205418" fill-rule="nonzero" opacity="1" stroke="none"/>
<path d="M373.588 84.905C373.588 104.967 357.511 121.231 337.678 121.231C317.846 121.231 301.769 104.967 301.769 84.905C301.769 64.8427 317.846 48.5789 337.678 48.5789C357.511 48.5789 373.588 64.8427 373.588 84.905Z" fill="#292121" fill-opacity="0.205418" fill-rule="nonzero" opacity="1" stroke="none"/>
<path d="M441.105 153.206C441.105 173.268 425.028 189.532 405.196 189.532C385.364 189.532 369.287 173.268 369.287 153.206C369.287 133.144 385.364 116.88 405.196 116.88C425.028 116.88 441.105 133.144 441.105 153.206Z" fill="#292121" fill-opacity="0.205418" fill-rule="nonzero" opacity="1" stroke="none"/>
<path d="M450.75 345.913C450.75 365.975 434.673 382.239 414.841 382.239C395.009 382.239 378.932 365.975 378.932 345.913C378.932 325.85 395.009 309.587 414.841 309.587C434.673 309.587 450.75 325.85 450.75 345.913Z" fill="#292121" fill-opacity="0.205418" fill-rule="nonzero" opacity="1" stroke="none"/>
<path d="M378.41 421.532C378.41 441.594 362.333 457.858 342.501 457.858C322.669 457.858 306.592 441.594 306.592 421.532C306.592 401.47 322.669 385.206 342.501 385.206C362.333 385.206 378.41 401.47 378.41 421.532Z" fill="#292121" fill-opacity="0.205418" fill-rule="nonzero" opacity="1" stroke="none"/>
<path d="M186.71 428.85C186.71 448.912 170.632 465.176 150.8 465.176C130.968 465.176 114.891 448.912 114.891 428.85C114.891 408.788 130.968 392.524 150.8 392.524C170.632 392.524 186.71 408.788 186.71 428.85Z" fill="#292121" fill-opacity="0.205418" fill-rule="nonzero" opacity="1" stroke="none"/>
<path d="M113.164 353.231C113.164 373.293 97.0867 389.557 77.2546 389.557C57.4225 389.557 41.3454 373.293 41.3454 353.231C41.3454 333.168 57.4225 316.905 77.2546 316.905C97.0867 316.905 113.164 333.168 113.164 353.231Z" fill="#292121" fill-opacity="0.205418" fill-rule="nonzero" opacity="1" stroke="none"/>
<path d="M281.957 50.7545C281.957 70.8168 265.88 87.0806 246.048 87.0806C226.216 87.0806 210.139 70.8168 210.139 50.7545C210.139 30.6921 226.216 14.4284 246.048 14.4283C265.88 14.4283 281.957 30.6921 281.957 50.7545Z" fill="#292121" fill-opacity="0.205418" fill-rule="nonzero" opacity="1" stroke="none"/>
</g>
<g opacity="1">
<path d="M284.769 37.5431C284.769 58.0008 268.185 74.5849 247.727 74.5849C227.269 74.5849 210.685 58.0008 210.685 37.5431C210.685 17.0855 227.269 0.501374 247.727 0.501371C268.185 0.501366 284.769 17.0855 284.769 37.5431Z" fill="#ffffff" fill-rule="nonzero" opacity="1" stroke="#ff877d" stroke-linecap="butt" stroke-linejoin="miter" stroke-width="1.00274"/>
<path d="M282.281 451.692C282.281 472.15 265.697 488.734 245.24 488.734C224.782 488.734 208.198 472.15 208.198 451.692C208.198 431.235 224.782 414.651 245.24 414.651C265.697 414.651 282.281 431.235 282.281 451.692Z" fill="#ffffff" fill-rule="nonzero" opacity="1" stroke="#ff877d" stroke-linecap="butt" stroke-linejoin="miter" stroke-width="1.00274"/>
<path d="M481.161 240.071C481.161 260.529 464.577 277.113 444.119 277.113C423.662 277.113 407.078 260.529 407.078 240.071C407.078 219.614 423.662 203.029 444.119 203.029C464.577 203.029 481.161 219.614 481.161 240.071Z" fill="#ffffff" fill-rule="nonzero" opacity="1" stroke="#ff877d" stroke-linecap="butt" stroke-linejoin="miter" stroke-width="1.00274"/>
<path d="M74.5849 243.996C74.5849 264.454 58.0008 281.038 37.5431 281.038C17.0855 281.038 0.501371 264.454 0.501373 243.996C0.501376 223.538 17.0855 206.954 37.5431 206.954C58.0008 206.954 74.5849 223.538 74.5849 243.996Z" fill="#ffffff" fill-rule="nonzero" opacity="1" stroke="#ff877d" stroke-linecap="butt" stroke-linejoin="miter" stroke-width="1.00274"/>
<path d="M109.408 140.77C109.408 161.227 92.8241 177.811 72.3665 177.811C51.9089 177.811 35.3247 161.227 35.3247 140.77C35.3247 120.312 51.9089 103.728 72.3665 103.728C92.8241 103.728 109.408 120.312 109.408 140.77Z" fill="#ffffff" fill-rule="nonzero" opacity="1" stroke="#ff877d" stroke-linecap="butt" stroke-linejoin="miter" stroke-width="1.00274"/>
<path d="M186.406 66.3137C186.406 86.7713 169.822 103.355 149.364 103.355C128.907 103.355 112.323 86.7713 112.323 66.3137C112.323 45.8561 128.907 29.2719 149.364 29.2719C169.822 29.2719 186.406 45.8561 186.406 66.3137Z" fill="#ffffff" fill-rule="nonzero" opacity="1" stroke="#ff877d" stroke-linecap="butt" stroke-linejoin="miter" stroke-width="1.00274"/>
<path d="M379.289 72.3665C379.289 92.8241 362.705 109.408 342.247 109.408C321.79 109.408 305.206 92.8241 305.206 72.3665C305.206 51.9089 321.79 35.3247 342.247 35.3247C362.705 35.3247 379.289 51.9089 379.289 72.3665Z" fill="#ffffff" fill-rule="nonzero" opacity="1" stroke="#ff877d" stroke-linecap="butt" stroke-linejoin="miter" stroke-width="2.50386"/>
<path d="M448.936 142.013C448.936 162.471 432.352 179.055 411.894 179.055C391.437 179.055 374.852 162.471 374.852 142.013C374.852 121.556 391.437 104.971 411.894 104.971C432.352 104.971 448.936 121.556 448.936 142.013Z" fill="#ffffff" fill-rule="nonzero" opacity="1" stroke="#ff877d" stroke-linecap="butt" stroke-linejoin="miter" stroke-width="1.00274"/>
<path d="M458.886 338.516C458.886 358.974 442.301 375.558 421.844 375.558C401.386 375.558 384.802 358.974 384.802 338.516C384.802 318.059 401.386 301.475 421.844 301.475C442.301 301.475 458.886 318.059 458.886 338.516Z" fill="#ffffff" fill-rule="nonzero" opacity="1" stroke="#ff877d" stroke-linecap="butt" stroke-linejoin="miter" stroke-width="1.00274"/>
<path d="M384.264 415.625C384.264 436.083 367.68 452.667 347.222 452.667C326.765 452.667 310.18 436.083 310.18 415.625C310.18 395.168 326.765 378.584 347.222 378.584C367.68 378.584 384.264 395.168 384.264 415.625Z" fill="#ffffff" fill-rule="nonzero" opacity="1" stroke="#ff877d" stroke-linecap="butt" stroke-linejoin="miter" stroke-width="1.00274"/>
<path d="M186.517 423.087C186.517 443.545 169.933 460.129 149.475 460.129C129.018 460.129 112.434 443.545 112.434 423.087C112.434 402.63 129.018 386.046 149.475 386.046C169.933 386.046 186.517 402.63 186.517 423.087Z" fill="#ffffff" fill-rule="nonzero" opacity="1" stroke="#ff877d" stroke-linecap="butt" stroke-linejoin="miter" stroke-width="1.00274"/>
<path d="M110.652 345.979C110.652 366.436 94.0678 383.02 73.6102 383.02C53.1526 383.02 36.5684 366.436 36.5684 345.979C36.5684 325.521 53.1526 308.937 73.6102 308.937C94.0678 308.937 110.652 325.521 110.652 345.979Z" fill="#ffffff" fill-rule="nonzero" opacity="1" stroke="#ff877d" stroke-linecap="butt" stroke-linejoin="miter" stroke-width="1.00274"/>
</g>
<g opacity="1">
<path clip-path="url(#TextBounds)" d="M320.31 285.93C320.1 285.72 319.47 285.509 318.419 285.299C309.802 285.089 301.395 284.669 293.408 284.459L270.71 283.828C269.87 258.398 265.876 235.279 260.832 218.886C258.31 210.689 255.578 204.384 252.636 199.76C246.751 190.723 242.968 192.194 238.975 199.76C234.771 207.326 231.198 222.248 228.676 244.526C227.415 255.665 226.785 268.696 226.575 283.618L179.076 284.669C177.605 284.669 177.395 286.56 177.395 288.242C177.395 289.713 177.815 291.184 178.866 291.184C178.656 291.184 178.656 291.394 178.656 291.604L178.236 328.594C177.605 331.116 179.707 331.957 181.388 331.957L188.114 331.957C190.215 331.957 192.737 331.957 195.469 332.167C197.991 332.167 199.253 329.435 199.253 326.913L198.622 317.455C198.412 311.991 198.202 306.737 197.781 301.272C197.571 298.54 197.151 295.598 196.941 292.235C196.941 292.025 196.941 291.604 196.73 291.184C196.52 290.764 196.52 290.553 196.73 290.553L211.022 289.923C216.276 289.923 222.161 289.713 228.676 289.503C230.147 293.286 231.619 296.859 232.669 300.011C234.981 306.526 237.083 312.411 239.815 318.716C241.286 321.869 242.968 325.442 245.069 329.015C245.49 329.645 246.331 330.065 247.802 330.065C249.273 330.065 250.114 329.645 250.744 329.015C255.788 321.238 259.781 315.354 262.724 309.469C265.666 303.584 267.768 297.699 269.659 289.923C279.958 289.923 290.676 290.553 300.134 291.184C300.554 291.394 300.764 291.815 300.764 292.025C300.554 292.235 300.764 292.445 300.975 292.655C301.605 295.598 302.025 298.33 302.656 300.642C303.497 305.686 304.337 309.679 305.178 314.303C305.598 316.615 306.019 319.347 306.649 322.079C306.859 325.231 310.432 324.601 310.642 322.079L313.795 306.526C314.846 301.482 316.527 296.228 318.839 290.553C319.049 289.923 319.259 289.503 319.68 288.872C320.31 287.821 320.731 286.77 320.31 285.93ZM260.202 285.299C252.425 287.191 244.019 286.77 234.561 284.248C233.931 284.248 233.72 284.038 233.51 283.828C233.51 274.16 234.771 262.181 236.663 252.723C237.503 247.889 238.554 243.896 240.025 240.743C241.497 237.591 242.968 236.12 244.859 236.12C249.063 236.12 253.266 243.476 256.629 253.143C259.781 262.811 262.093 275.001 262.093 284.248C261.253 284.879 260.622 285.089 260.202 285.299Z" fill="#e34234" opacity="1" stroke="none"/>
<path clip-path="url(#TextBounds_2)" d="M287.161 162.565C287.735 162.565 288.118 161.991 288.118 161.034C288.118 159.886 287.735 159.312 287.161 159.312C286.969 159.312 286.587 159.121 286.204 158.929C285.63 158.738 285.056 158.738 284.482 158.738C282.951 158.929 282.376 157.207 282.185 155.867C281.994 155.102 281.994 154.145 281.994 152.805L281.994 141.322C281.994 139.983 281.802 139.026 280.463 138.452C278.74 138.26 276.635 138.26 273.764 138.26L267.258 138.26C266.492 138.26 265.918 139.409 265.918 140.174C265.918 141.131 265.918 142.279 266.109 143.619C266.109 146.298 266.301 149.169 266.301 151.657C266.301 153.953 266.301 155.484 265.918 157.015C265.727 157.972 265.152 158.355 264.387 158.355C256.732 158.355 247.163 158.164 237.977 157.781C228.791 157.398 220.179 156.824 214.055 155.293C211.949 154.719 210.993 157.972 213.863 160.077C214.437 160.652 214.629 161.226 214.437 162.183C214.246 163.139 214.055 163.905 214.055 164.671C214.055 167.35 214.246 169.646 214.437 171.369C214.629 173.091 214.629 174.622 214.437 175.579C214.437 176.536 215.011 177.11 215.968 177.11C219.222 177.684 226.303 177.876 229.173 177.301C229.748 177.11 230.13 176.536 230.13 175.77C229.939 173.857 229.748 171.751 229.748 169.455C229.748 167.158 229.939 165.245 230.13 163.905C230.13 162.948 230.513 162.565 231.47 162.565C239.125 162.757 249.651 162.948 260.177 162.948C270.32 162.948 280.463 162.757 287.161 162.565Z" fill="#e34234" opacity="1" stroke="none"/>
</g>
<path d="M371.939 71.565C371.939 87.7407 358.826 100.854 342.651 100.854C326.475 100.854 313.362 87.7406 313.362 71.565C313.362 55.3893 326.475 42.2764 342.651 42.2764C358.826 42.2764 371.939 55.3893 371.939 71.565Z" fill="#e34234" fill-rule="nonzero" opacity="1" stroke="#ff877d" stroke-linecap="butt" stroke-linejoin="miter" stroke-width="1.97979"/>
</g>
</svg>
