<svg version="1.2" xmlns="http://www.w3.org/2000/svg" viewBox="0 0 1080 1080" width="512" height="512">
	<title>Новый проект</title>
	<style>
		.s0 { fill: #000000 } 
		.s1 { fill: #ffff00 } 
		.s2 { fill: #1e1e1b } 
	</style>
	<path id="форма 1" class="s0" d="m539.5 1061c-288.4 0-521.5-233.1-521.5-521.5 0-288.4 233.1-521.5 521.5-521.5 288.4 0 521.5 233.1 521.5 521.5 0 288.4-233.1 521.5-521.5 521.5z"/>
	<path id="форма 2" class="s1" d="m539.5 728c-104.2 0-188.5-84.3-188.5-188.5 0-104.2 84.3-188.5 188.5-188.5 104.2 0 188.5 84.3 188.5 188.5 0 104.2-84.3 188.5-188.5 188.5z"/>
	<path id="YSTM" class="s2" aria-label="YSTM"  d="m447.9 444.2c0 0-3.1-0.2-7.7-0.4-2.4-0.1-5.2-0.1-8.2-0.1-3.1 0.1-6.4 0.2-9.7 0.4-3.3 0.3-6.7 0.6-9.9 0.9-3.2 0.5-6.2 0.9-8.8 1.3-5.3 1-8.8 1.7-8.8 1.7 0 0 9-10.7 9-10.7 0 0 2.7-0.4 6.8-0.8 2-0.2 4.4-0.4 6.9-0.6 2.5-0.1 5.1-0.2 7.7-0.3 2.6 0 5.2 0 7.6 0 2.3 0 4.5 0.1 6.4 0.2 3.7 0.3 6.2 0.5 6.2 0.5 0 0-0.5-1.9-1-4.8-0.3-1.5-0.5-3.2-0.8-5-0.2-1.9-0.4-3.9-0.6-5.9-0.1-2-0.2-4-0.3-5.9 0-1.9 0-3.7 0-5.3 0.1-3.1 0.2-5.1 0.2-5.1 0 0 11.4-6.7 11.4-6.7 0 0-0.4 2.7-0.9 6.6-0.2 1.9-0.3 4.2-0.5 6.6 0 2.4-0.1 5 0 7.5 0.1 2.5 0.2 5 0.4 7.4 0.3 2.3 0.5 4.4 0.8 6.3 0.7 3.6 1.2 6 1.2 6 0 0 1.6 1.3 3.9 3.2 1.2 1 2.6 2.1 4.1 3.4 1.5 1.2 3.1 2.5 4.7 3.8 1.6 1.2 3.2 2.5 4.7 3.8 1.5 1.2 2.9 2.3 4.1 3.3 2.4 1.9 4 3.2 4 3.2 0 0-5.3 4.4-5.3 4.4 0 0-1.7-1.1-4.3-2.9-1.3-0.9-2.8-1.9-4.4-3-1.6-1.2-3.4-2.3-5.1-3.5-1.7-1.2-3.4-2.4-5.1-3.5-1.6-1.1-3.1-2.1-4.4-3-2.6-1.8-4.3-3-4.3-3zm68.2-64.8c0 0 1.7 7.9 1.7 7.9-2.2-0.4-4.4-0.7-6.5-0.9-2.2-0.2-4.2-0.2-6.2-0.2-4 0.1-7.7 0.7-11.2 1.6-3 0.9-5.5 1.9-7.6 3.1-2.1 1.2-3.7 2.5-4.9 3.9-2.1 2.7-2.3 5.6-0.6 8.5 1.4 2.4 3.5 3.9 6 4.5 1.3 0.2 2.9 0.3 5 0.2 2-0.1 4.3-0.4 7.1-0.8 0 0 6-0.6 6-0.6 3.7-0.3 6.9-0.2 9.8 0.3 2.8 0.5 5.2 1.4 7.1 2.6 1.9 1.2 3.4 2.8 4.6 4.6 1.1 1.9 1.8 4.1 2.3 6.6 0.5 2.9 0.5 5.5 0 7.9-0.4 2.3-1.2 4.4-2.5 6.2-1.2 1.7-2.8 3.2-4.8 4.5-1 0.6-2.1 1.2-3.3 1.7-1.2 0.5-2.5 1-4 1.4-1 0.4-2.2 0.7-3.4 0.9-1.2 0.3-2.5 0.5-3.9 0.6-1.3 0.2-2.8 0.3-4.3 0.4-1.5 0.2-3.1 0.3-4.8 0.3 0 0-5.3-7.4-5.3-7.4 2 0.2 3.8 0.3 5.6 0.3 1.7 0.1 3.4 0.1 4.9 0 1.6-0.1 3-0.2 4.4-0.5 1.4-0.2 2.7-0.5 4-0.9 1.9-0.6 3.5-1.3 4.9-2.1 1.3-0.9 2.4-1.8 3.2-3 0.8-1.1 1.3-2.4 1.5-3.8 0.3-1.4 0.1-3-0.3-4.7-0.8-2.9-2.4-5-4.7-6.3-1.2-0.6-2.7-1.1-4.5-1.3-1.7-0.2-3.8-0.3-6.2-0.1 0 0-5.6 0.7-5.6 0.7-3.5 0.5-6.7 0.8-9.5 0.8-2.8 0.1-5.4-0.1-7.6-0.6-2.2-0.5-4.3-1.4-6.1-2.6-1.9-1.2-3.6-2.8-5-4.9-1.7-2.3-2.6-4.7-2.7-7.1-0.1-2.4 0.6-4.8 2.2-7.3 1.6-2.5 4-4.7 7.2-6.8 1.6-1 3.4-2 5.4-2.8 2-0.9 4.1-1.7 6.5-2.4 4-1.1 8.2-1.9 12.6-2.4 2.2-0.2 4.4-0.3 6.7-0.3 2.2 0 4.5 0.1 6.8 0.3zm12 3.6c0 0-0.9-7-0.9-7 0 0 4.7-0.3 11.6-0.6 3.5-0.1 7.6 0 12 0.1 2.1 0.1 4.4 0.2 6.7 0.4 2.2 0.1 4.6 0.4 6.9 0.6 2.3 0.3 4.6 0.6 6.9 0.9 2.2 0.3 4.4 0.7 6.6 1.1 4.3 0.8 8.3 1.7 11.7 2.5 6.7 1.9 11.2 3.2 11.2 3.2 0 0-2.9 6.5-2.9 6.5 0 0-1.8-0.5-4.5-1.3-2.6-0.8-6.2-1.7-9.8-2.6-3.7-0.8-7.3-1.5-10.1-2-2.7-0.4-4.5-0.7-4.5-0.7 0 0-0.7 3.4-1.6 8.4-0.5 2.5-1.1 5.4-1.7 8.5-0.3 1.6-0.6 3.2-0.9 4.9-0.4 1.6-0.7 3.3-1 5-0.3 1.6-0.7 3.3-1 4.9-0.3 1.7-0.6 3.3-0.9 4.9-0.6 3.1-1.2 6-1.7 8.5-1 5-1.6 8.4-1.6 8.4 0 0-6.5-0.7-6.5-0.7 0 0 0.3-3.4 0.9-8.4 0.2-2.6 0.5-5.5 0.9-8.7 0.1-1.6 0.3-3.2 0.5-4.9 0.1-1.6 0.3-3.3 0.5-5 0.2-1.7 0.3-3.4 0.5-5 0.2-1.7 0.4-3.3 0.5-4.9 0.4-3.2 0.7-6.1 0.9-8.7 0.5-5 0.9-8.4 0.9-8.4 0 0-1.8-0.2-4.6-0.3-2.8-0.2-6.5-0.3-10.2-0.3-3.7 0.1-7.4 0.2-10.2 0.3-2.7 0.2-4.6 0.4-4.6 0.4zm53.1 60.4c0 0 0.5-0.9 1.3-2.4 0.9-1.5 2.1-3.7 3.5-6.3 0.7-1.3 1.5-2.7 2.3-4.1 0.8-1.5 1.7-3.1 2.6-4.7 0.9-1.6 1.8-3.3 2.8-5 0.9-1.7 1.9-3.4 2.8-5.2 1-1.7 1.9-3.4 2.9-5.1 0.9-1.7 1.8-3.4 2.7-5 0.9-1.6 1.8-3.2 2.6-4.7 0.8-1.5 1.6-2.9 2.3-4.2 1.4-2.6 2.6-4.7 3.4-6.2 0.9-1.5 1.3-2.4 1.3-2.4 0 0 4.2 1.7 8.3 3.4 4.1 1.9 8.2 3.9 8.2 3.9 0 0-0.4 2.8-1 7.1-0.4 2.1-0.8 4.5-1.4 7.1-0.6 2.6-1.2 5.4-2 8.1-0.7 2.7-1.6 5.4-2.4 7.9-0.9 2.4-1.7 4.7-2.5 6.7-1.6 3.9-2.7 6.4-2.7 6.4 0 0 2.8-1.4 7.2-3.4 2.2-1 4.8-2.1 7.7-3.3 2.8-1.1 5.9-2.3 9.1-3.4 3.2-1.1 6.4-2.1 9.4-3 3.1-0.9 6.1-1.7 8.6-2.3 5.1-1.2 8.5-2 8.5-2 0 0 3.5 3.2 7 6.4 3.3 3.3 6.6 6.8 6.6 6.8 0 0-0.9 0.5-2.6 1.4-1.7 1-4.1 2.3-7 3.9-1.4 0.8-2.9 1.6-4.6 2.6-1.6 0.9-3.4 1.8-5.2 2.8-1.8 1-3.6 2.1-5.5 3.1-1.9 1-3.8 2.1-5.7 3.2-2 1-3.9 2.1-5.8 3.1-1.9 1.1-3.7 2.1-5.5 3.1-1.8 1-3.6 2-5.2 2.9-1.7 0.9-3.2 1.8-4.7 2.6-2.9 1.6-5.3 2.9-7 3.8-1.7 0.9-2.6 1.5-2.6 1.5 0 0-4.9-4.8-4.9-4.8 0 0 3.2-2.1 8-5.2 2.3-1.6 5.1-3.4 8.1-5.4 1.4-0.9 3-1.9 4.5-3 1.6-1 3.2-2 4.7-3.1 1.6-1 3.2-2.1 4.8-3.1 1.5-1 3-2 4.5-3 3-2 5.7-3.8 8.1-5.4 4.7-3.1 7.9-5.2 7.9-5.2 0 0-3.5 0.7-8.7 1.8-2.5 0.6-5.5 1.4-8.6 2.2-3.1 0.9-6.3 1.8-9.6 2.8-3.1 1.1-6.3 2.2-9.2 3.3-2.9 1.1-5.5 2.2-7.7 3.1-4.5 2-7.4 3.4-7.4 3.4 0 0-6.5-4.4-6.5-4.4 0 0 1.1-2.5 2.7-6.4 0.7-2 1.5-4.3 2.4-6.8 0.7-2.5 1.5-5.2 2.3-7.9 0.6-2.7 1.3-5.4 1.8-8 0.5-2.6 0.9-5.1 1.2-7.2 0.6-4.2 0.9-7.1 0.9-7.1 0 0-1.9 3-4.8 7.3-1.5 2.2-3.2 4.8-5 7.5-0.9 1.4-1.9 2.8-2.8 4.2-1 1.5-1.9 2.9-2.9 4.4-1 1.4-1.9 2.9-2.9 4.3-1 1.5-1.9 2.9-2.8 4.3-1.8 2.7-3.5 5.2-5 7.4-2.9 4.4-4.9 7.3-4.9 7.3 0 0-5.9-2.4-5.9-2.4z"/>
	<path id="форма 3" class="s0" d="m539.5 561c-11.9 0-21.5-9.6-21.5-21.5 0-11.9 9.6-21.5 21.5-21.5 11.9 0 21.5 9.6 21.5 21.5 0 11.9-9.6 21.5-21.5 21.5z"/>
</svg>